<?xml version="1.0" encoding="UTF-8"?>
<svg width="64px" height="64px" viewBox="0 0 64 64" version="1.1" xmlns="http://www.w3.org/2000/svg" xmlns:xlink="http://www.w3.org/1999/xlink">
    <title>logo/hrc/color-dark/icon/hrc-logo-color-dark-icon</title>
    <g id="logo/hrc/color-dark/icon/hrc-logo-color-dark-icon" stroke="none" stroke-width="1" fill="none" fill-rule="evenodd">
        <g id="Group">
            <path d="M64,31.9998 C64,49.6738 49.673,63.9998 32,63.9998 C14.327,63.9998 0,49.6738 0,31.9998 C0,14.3268 14.327,-0.0002 32,-0.0002 C49.673,-0.0002 64,14.3268 64,31.9998" id="circle" fill="#083C6F"></path>
            <path d="M25.7686,36.8547 L29.9686,41.0547 L22.6436,48.3797 C21.2506,49.7727 19.3626,50.5547 17.3936,50.5547 L17.3936,50.5547 L13.2636,50.5547 C12.8226,50.5547 12.6016,50.0217 12.9136,49.7097 L12.9136,49.7097 L25.7686,36.8547 Z M38.2315,36.8547 L51.0855,49.7097 C51.3985,50.0217 51.1775,50.5547 50.7365,50.5547 L46.6065,50.5547 C44.6375,50.5547 42.7495,49.7727 41.3565,48.3797 L34.0315,41.0547 L38.2315,36.8547 Z M16.5734,19.0827 C18.9589652,19.0827 21.2521221,19.9893994 22.9899142,21.6120147 L23.2234,21.8377 L32.0004,30.6137 L40.7764,21.8377 C42.4637043,20.1503957 44.7255871,19.1703352 47.1017173,19.0883021 L47.4264,19.0827 L50.7364,19.0827 C51.148,19.0827 51.3679556,19.5470022 51.1417861,19.8625767 L51.0864,19.9277 L32.0004,39.0147 L12.9134,19.9277 C12.6222,19.6365 12.7953022,19.1527844 13.1782261,19.0895833 L13.2634,19.0827 L16.5734,19.0827 Z M32.0004,10.6583 C35.0754,10.6583 37.5684,13.1513 37.5684,16.2263 C37.5684,19.3013 35.0754,21.7943 32.0004,21.7943 C28.9244,21.7943 26.4314,19.3013 26.4314,16.2263 C26.4314,13.1513 28.9244,10.6583 32.0004,10.6583 Z" id="icon" fill="#F5EA14"></path>
        </g>
    </g>
</svg>