<?xml version="1.0" encoding="UTF-8"?>
<svg width="392px" height="64px" viewBox="0 0 392 64" version="1.1" xmlns="http://www.w3.org/2000/svg" xmlns:xlink="http://www.w3.org/1999/xlink">
    <title>logo/digital/white/stacked/digital-logo-white-stacked</title>
    <g id="logo/digital/white/stacked/digital-logo-white-stacked" stroke="none" stroke-width="1" fill="none" fill-rule="evenodd">
        <g id="Enterprise-Applicati" transform="translate(73.247020, 3.960570)" fill="#FFFFFF" fill-rule="nonzero">
            <polygon id="Path" points="2.2183822 20.2936029 2.2183822 3.84607092 0.0525060877 3.51790787 0.0525060877 2.06086394 13.7303419 2.06086394 14.0978845 6.22197139 12.4045632 6.22197139 11.5907189 3.72793222 5.30311485 3.55728744 5.30311485 10.9737723 9.56923448 10.8950132 9.96303013 8.71601055 11.6563515 8.71601055 11.6563515 14.9379819 9.96303013 14.9379819 9.582361 12.6277141 5.30311485 12.5620815 5.30311485 20.4117416 12.5227019 20.1229581 14.0059989 16.8282011 15.6861937 17.3270089 14.9117289 22.0394303 0.0131265219 22.0394303 0.0131265219 20.6086394"></polygon>
            <path d="M19.3878729,20.3854885 L19.3878729,9.38546317 L17.5107802,8.86040229 L17.5107802,7.28521966 L21.3962307,6.76015879 L21.4618633,6.76015879 L22.0788099,7.27209314 L22.0788099,8.33534142 L22.0656833,8.93916142 C22.46823,8.58036983 22.9736011,8.23470475 23.5817966,7.90216619 C24.1899921,7.56962764 24.8419427,7.29834619 25.5376484,7.08832183 C26.233354,6.87829748 26.8918679,6.77328531 27.5131899,6.77328531 C28.6508218,6.77328531 29.5302988,6.98549741 30.1516208,7.40992162 C30.7729429,7.83434583 31.2061181,8.48848417 31.4511465,9.37233665 C31.6961749,10.2561891 31.8186891,11.4550781 31.8186891,12.9690037 L31.8186891,20.3854885 L33.7089083,20.6086394 L33.7089083,22.0394303 L27.1193943,22.0394303 L27.1193943,20.6086394 L28.7995891,20.3854885 L28.7995891,12.9558771 C28.7995891,11.9407594 28.7317687,11.1422294 28.596128,10.5602869 C28.4604873,9.97834441 28.2045201,9.54079368 27.8282265,9.24763469 C27.4519328,8.9544757 26.8962434,8.80789621 26.1611582,8.80789621 C25.5310851,8.80789621 24.874759,8.94353693 24.1921799,9.21481838 C23.5096008,9.48609984 22.9101562,9.81426289 22.3938464,10.1993075 L22.3938464,20.3854885 L24.2053064,20.6086394 L24.2053064,22.0394303 L17.6682985,22.0394303 L17.6682985,20.6086394 L19.3878729,20.3854885 Z" id="Path"></path>
            <path d="M35.2578379,8.99166751 L35.2578379,7.74464793 C35.5028663,7.68339083 35.7850865,7.59588068 36.1044985,7.48211749 C36.4239106,7.3683543 36.6317472,7.28084416 36.7280083,7.21958705 C37.0167918,7.0095627 37.2530692,6.66827313 37.4368405,6.19571834 C37.5681057,5.89818385 37.7409383,5.4234413 37.9553381,4.77149072 C38.169738,4.11954013 38.3163175,3.62729556 38.3950766,3.294757 L40.1015245,3.294757 L40.1277775,7.11457488 L44.5382889,7.11457488 L44.5382889,8.99166751 L40.140904,8.99166751 L40.140904,16.9332133 C40.140904,18.0008371 40.1715326,18.7424855 40.2327897,19.1581587 C40.2940468,19.5738319 40.4187487,19.8407379 40.6068955,19.9588766 C40.7950424,20.0770153 41.1385197,20.1360846 41.6373275,20.1360846 L41.650454,20.1360846 C42.1055068,20.1360846 42.6196289,20.079203 43.1928204,19.9654398 C43.7660118,19.8516766 44.2101258,19.7335379 44.5251623,19.6110237 L44.5382889,19.6110237 L44.9845906,20.8842964 C44.7220602,21.1030717 44.3282645,21.3240349 43.8032036,21.5471857 C43.2781428,21.7703366 42.7137023,21.9562957 42.1098823,22.1050629 C41.5060623,22.2538302 40.9503729,22.3282138 40.442814,22.3282138 L40.416561,22.3282138 C39.3314352,22.3282138 38.5132153,22.0897486 37.9619014,21.6128183 C37.4105875,21.135888 37.1349305,20.337358 37.1349305,19.2172281 L37.1349305,8.99166751 L35.2578379,8.99166751 Z" id="Path"></path>
            <path d="M46.4416345,14.5441863 C46.4416345,13.0040077 46.7435445,11.6388494 47.3473645,10.4487114 C47.9511846,9.25857346 48.7869065,8.33752917 49.8545302,7.68557858 C50.922154,7.03362799 52.1341695,6.7076527 53.4905768,6.7076527 C55.1707716,6.7076527 56.4702973,7.16708097 57.3891538,8.0859375 C58.3080103,9.00479403 58.7980672,10.3305727 58.8593243,12.0632736 L58.8593243,12.5358284 C58.8593243,13.454685 58.8068182,14.1547661 58.701806,14.6360719 L49.6051263,14.6360719 C49.6401304,15.9224711 49.8589057,16.9900949 50.2614524,17.8389433 C50.6639991,18.6877917 51.1934355,19.3134892 51.8497616,19.7160359 C52.5060877,20.1185826 53.2455484,20.3198559 54.0681438,20.3198559 C54.785727,20.3198559 55.5229999,20.195154 56.2799627,19.9457501 C57.0369255,19.6963461 57.6298067,19.4097504 58.0586064,19.0859629 L58.6099204,20.346109 C58.2773818,20.6873985 57.8201413,21.0111861 57.2381988,21.3174716 C56.6562563,21.6237571 56.0086813,21.8709733 55.2954736,22.0591201 C54.5822659,22.2472669 53.8756214,22.3413403 53.1755403,22.3413403 C51.7053698,22.3413403 50.4649135,22.015365 49.4541713,21.3634144 C48.4434291,20.7114638 47.6886541,19.8013583 47.1898463,18.6330979 C46.6910385,17.4648374 46.4416345,16.1018669 46.4416345,14.5441863 Z M55.708959,13.1133954 C55.7439631,12.7983589 55.7614651,12.4220652 55.7614651,11.9845145 C55.7527141,10.8731357 55.5208122,9.98053216 55.0657594,9.30670404 C54.6107067,8.63287591 53.8931235,8.29596185 52.9130098,8.29596185 C51.9328962,8.29596185 51.1562437,8.66131671 50.5830522,9.39202643 C50.0098607,10.1227362 49.6838855,11.3631925 49.6051263,13.1133954 L55.708959,13.1133954 Z" id="Shape"></path>
            <path d="M63.204203,20.4117416 L63.204203,9.38546317 L61.3402369,8.86040229 L61.3402369,7.28521966 L65.0944222,6.76015879 L65.1600548,6.76015879 L65.7901278,7.27209314 L65.7901278,8.09906402 L65.7638748,9.80551187 L65.7901278,9.80551187 C65.9476461,9.51672839 66.2517439,9.12949599 66.7024211,8.64381468 C67.1530984,8.15813337 67.7350408,7.71401938 68.4482485,7.31147271 C69.1614562,6.90892603 69.9381088,6.7076527 70.7782062,6.7076527 C71.1194957,6.7076527 71.4082792,6.75578328 71.6445566,6.85204444 L71.6445566,10.0811688 C71.4782873,9.98490767 71.2573242,9.90396079 70.9816673,9.83832818 C70.7060103,9.77269557 70.4106636,9.73987926 70.095627,9.73987926 C69.2117746,9.73987926 68.4482485,9.84707919 67.805049,10.061479 C67.1618494,10.2758789 66.6258497,10.5449726 66.19705,10.8687601 L66.19705,20.3986151 L69.6493253,20.6348925 L69.6493253,22.0394303 L61.1433391,22.0394303 L61.1433391,20.6217659 L63.204203,20.4117416 Z" id="Path"></path>
            <path d="M80.5180854,22.3413403 C80.1242898,22.3413403 79.6911145,22.308524 79.2185598,22.2428914 C78.746005,22.1772588 78.3478338,22.1006874 78.0240463,22.0131773 L78.1028054,24.244686 L78.1028054,26.8437373 L80.7937424,27.1325208 L80.7937424,28.5501852 L73.1672332,28.5501852 L73.1672332,27.1325208 L75.1230849,26.8306108 L75.1230849,9.38546317 L73.2459923,8.86040229 L73.2459923,7.28521966 L77.1183163,6.76015879 L77.1839489,6.76015879 L77.7746423,7.27209314 L77.7746423,8.76851664 C78.2997032,8.19094968 78.9472783,7.70308061 79.7173676,7.30490945 C80.4874569,6.90673828 81.3581828,6.7076527 82.3295455,6.7076527 C83.3971692,6.7076527 84.3729074,6.96799538 85.2567598,7.48868075 C86.1406123,8.00936612 86.8494445,8.81883497 87.3832564,9.91708731 C87.9170683,11.0153396 88.1839742,12.3914367 88.1839742,14.0453784 C88.1839742,15.576806 87.8711255,16.9725928 87.2454279,18.2327389 C86.6197304,19.492885 85.7271269,20.4926885 84.5676174,21.2321492 C83.408108,21.9716099 82.058264,22.3413403 80.5180854,22.3413403 Z M78.1028054,20.0179459 C78.2253196,20.2367213 78.5250419,20.4292436 79.0019721,20.5955129 C79.4789024,20.7617822 80.0149021,20.8449168 80.6099711,20.8449168 C81.4588195,20.8449168 82.209219,20.6195782 82.8611696,20.1689009 C83.5131202,19.7182237 84.0272423,19.005016 84.4035359,18.0292779 C84.7798295,17.0535397 84.9679764,15.8130834 84.9679764,14.3079089 C84.9679764,13.0390118 84.7995193,11.98889 84.4626053,11.1575436 C84.1256912,10.3261972 83.6684507,9.71143846 83.0908837,9.3132673 C82.5133168,8.91509613 81.8526152,8.71601055 81.1087789,8.71601055 C80.4874569,8.71601055 79.9098899,8.84290026 79.376078,9.09667969 C78.8422661,9.35045911 78.4178419,9.64799361 78.1028054,9.98928318 L78.1028054,20.0179459 Z" id="Shape"></path>
            <path d="M92.5682325,20.4117416 L92.5682325,9.38546317 L90.7042664,8.86040229 L90.7042664,7.28521966 L94.4584517,6.76015879 L94.5240843,6.76015879 L95.1541574,7.27209314 L95.1541574,8.09906402 L95.1279043,9.80551187 L95.1541574,9.80551187 C95.3116756,9.51672839 95.6157734,9.12949599 96.0664506,8.64381468 C96.5171279,8.15813337 97.0990704,7.71401938 97.8122781,7.31147271 C98.5254857,6.90892603 99.3021383,6.7076527 100.142236,6.7076527 C100.483525,6.7076527 100.772309,6.75578328 101.008586,6.85204444 L101.008586,10.0811688 C100.842317,9.98490767 100.621354,9.90396079 100.345697,9.83832818 C100.07004,9.77269557 99.7746931,9.73987926 99.4596566,9.73987926 C98.5758041,9.73987926 97.8122781,9.84707919 97.1690785,10.061479 C96.5258789,10.2758789 95.9898793,10.5449726 95.5610795,10.8687601 L95.5610795,20.3986151 L99.0133548,20.6348925 L99.0133548,22.0394303 L90.5073686,22.0394303 L90.5073686,20.6217659 L92.5682325,20.4117416 Z" id="Path"></path>
            <path d="M104.815277,20.3854885 L104.815277,9.38546317 L102.911932,8.84727577 L102.911932,7.29834619 L107.086166,6.76015879 L107.151798,6.76015879 L107.821251,7.27209314 L107.821251,20.3854885 L109.921495,20.6086394 L109.921495,22.0394303 L102.688781,22.0394303 L102.688781,20.6086394 L104.815277,20.3854885 Z M104.27709,2.49403916 C104.27709,1.89897017 104.449923,1.39578683 104.795588,0.984489144 C105.141253,0.573191457 105.624746,0.367542614 106.246068,0.367542614 L106.259195,0.367542614 C106.626738,0.367542614 106.94615,0.452865006 107.217431,0.623509791 C107.488712,0.794154576 107.696549,1.0194932 107.840941,1.29952567 C107.985333,1.57955814 108.057528,1.87709263 108.057528,2.19212916 C108.057528,2.80470018 107.882508,3.30788352 107.532468,3.70167918 C107.182427,4.09547484 106.674868,4.29237267 106.009791,4.29237267 L105.996664,4.29237267 C105.489106,4.29237267 105.07562,4.12172788 104.756208,3.78043831 C104.436796,3.43914874 104.27709,3.01034903 104.27709,2.49403916 Z" id="Shape"></path>
            <path d="M114.069475,17.7733107 L114.594536,19.768542 C114.699548,19.9523133 114.90301,20.1273336 115.20492,20.2936029 C115.50683,20.4598722 115.863433,20.5955129 116.274731,20.7005251 C116.686029,20.8055372 117.106078,20.8580433 117.534877,20.8580433 C118.523742,20.8580433 119.228199,20.6720843 119.648247,20.3001661 C120.068296,19.928248 120.27832,19.4185014 120.27832,18.7709263 C120.27832,18.3158736 120.136116,17.9155147 119.851708,17.5698496 C119.5673,17.2241845 119.145064,16.8982092 118.584999,16.5919237 C118.024934,16.2856382 117.263596,15.9399731 116.300984,15.5549285 C114.909573,15.0123656 113.894455,14.3713537 113.255631,13.631893 C112.616807,12.8924323 112.297395,11.9363839 112.297395,10.763748 C112.297395,9.97615666 112.53586,9.28263875 113.01279,8.68319425 C113.489721,8.08374975 114.143859,7.61775822 114.975205,7.28521966 C115.806552,6.95268111 116.74291,6.78641183 117.784281,6.78641183 C118.589374,6.78641183 119.298207,6.84985669 119.910778,6.9767464 C120.523349,7.10363611 121.140295,7.26771763 121.761617,7.46899097 L122.234172,7.61338271 L122.234172,10.9343928 L120.553977,10.9343928 L119.989537,9.09667969 C119.884525,8.86915331 119.602304,8.67225548 119.142876,8.5059862 C118.683448,8.33971692 118.169326,8.25658228 117.60051,8.25658228 C116.795416,8.25658228 116.174094,8.42722707 115.736544,8.76851664 C115.298993,9.10980621 115.080218,9.55610795 115.080218,10.1074219 C115.080218,10.5974787 115.209295,11.0087764 115.46745,11.3413149 C115.725605,11.6738535 116.047205,11.9451349 116.432249,12.1551593 C116.817294,12.3651836 117.355481,12.6145876 118.046812,12.903371 L118.558746,13.1265219 C119.556362,13.5553216 120.36583,13.9578683 120.987152,14.3341619 C121.608475,14.7104556 122.124784,15.1917614 122.536082,15.7780793 C122.94738,16.3643973 123.153029,17.0819805 123.153029,17.9308289 C123.153029,18.8059304 122.923314,19.5760197 122.463886,20.2410968 C122.004458,20.9061739 121.339381,21.4224838 120.468655,21.7900264 C119.597929,22.157569 118.567497,22.3413403 117.377359,22.3413403 C116.484755,22.3413403 115.548397,22.2188261 114.568283,21.9737977 C113.58817,21.7287693 112.804954,21.4749899 112.218636,21.2124594 L112.218636,17.7733107 L114.069475,17.7733107 Z" id="Path"></path>
            <path d="M125.463296,14.5441863 C125.463296,13.0040077 125.765206,11.6388494 126.369026,10.4487114 C126.972846,9.25857346 127.808568,8.33752917 128.876192,7.68557858 C129.943816,7.03362799 131.155831,6.7076527 132.512239,6.7076527 C134.192434,6.7076527 135.491959,7.16708097 136.410816,8.0859375 C137.329672,9.00479403 137.819729,10.3305727 137.880986,12.0632736 L137.880986,12.5358284 C137.880986,13.454685 137.82848,14.1547661 137.723468,14.6360719 L128.626788,14.6360719 C128.661792,15.9224711 128.880568,16.9900949 129.283114,17.8389433 C129.685661,18.6877917 130.215097,19.3134892 130.871423,19.7160359 C131.52775,20.1185826 132.26721,20.3198559 133.089806,20.3198559 C133.807389,20.3198559 134.544662,20.195154 135.301625,19.9457501 C136.058587,19.6963461 136.651469,19.4097504 137.080268,19.0859629 L137.631582,20.346109 C137.299044,20.6873985 136.841803,21.0111861 136.259861,21.3174716 C135.677918,21.6237571 135.030343,21.8709733 134.317136,22.0591201 C133.603928,22.2472669 132.897283,22.3413403 132.197202,22.3413403 C130.727032,22.3413403 129.486575,22.015365 128.475833,21.3634144 C127.465091,20.7114638 126.710316,19.8013583 126.211508,18.6330979 C125.7127,17.4648374 125.463296,16.1018669 125.463296,14.5441863 Z M134.730621,13.1133954 C134.765625,12.7983589 134.783127,12.4220652 134.783127,11.9845145 C134.774376,10.8731357 134.542474,9.98053216 134.087421,9.30670404 C133.632369,8.63287591 132.914785,8.29596185 131.934672,8.29596185 C130.954558,8.29596185 130.177906,8.66131671 129.604714,9.39202643 C129.031523,10.1227362 128.705547,11.3631925 128.626788,13.1133954 L134.730621,13.1133954 Z" id="Shape"></path>
            <path d="M148.250939,20.2936029 L154.722314,1.90334568 L157.846426,1.90334568 L164.370307,20.2936029 L166.037376,20.6086394 L166.037376,22.0394303 L158.830915,22.0394303 L158.830915,20.6086394 L160.970538,20.2936029 L159.723519,16.4606585 L152.005124,16.4606585 L150.81061,20.2936029 L153.055246,20.6086394 L153.055246,22.0394303 L146.596997,22.0394303 L146.58387,20.6086394 L148.250939,20.2936029 Z M159.185331,14.7935902 L156.376256,6.1694653 L155.798689,3.96420962 L155.221122,6.19571834 L152.530185,14.7935902 L159.185331,14.7935902 Z" id="Shape"></path>
            <path d="M173.847656,22.3413403 C173.453861,22.3413403 173.020685,22.308524 172.548131,22.2428914 C172.075576,22.1772588 171.677405,22.1006874 171.353617,22.0131773 L171.432376,24.244686 L171.432376,26.8437373 L174.123313,27.1325208 L174.123313,28.5501852 L166.496804,28.5501852 L166.496804,27.1325208 L168.452656,26.8306108 L168.452656,9.38546317 L166.575563,8.86040229 L166.575563,7.28521966 L170.447887,6.76015879 L170.51352,6.76015879 L171.104213,7.27209314 L171.104213,8.76851664 C171.629274,8.19094968 172.276849,7.70308061 173.046938,7.30490945 C173.817028,6.90673828 174.687754,6.7076527 175.659116,6.7076527 C176.72674,6.7076527 177.702478,6.96799538 178.586331,7.48868075 C179.470183,8.00936612 180.179015,8.81883497 180.712827,9.91708731 C181.246639,11.0153396 181.513545,12.3914367 181.513545,14.0453784 C181.513545,15.576806 181.200696,16.9725928 180.574999,18.2327389 C179.949301,19.492885 179.056698,20.4926885 177.897188,21.2321492 C176.737679,21.9716099 175.387835,22.3413403 173.847656,22.3413403 Z M171.432376,20.0179459 C171.55489,20.2367213 171.854613,20.4292436 172.331543,20.5955129 C172.808473,20.7617822 173.344473,20.8449168 173.939542,20.8449168 C174.78839,20.8449168 175.53879,20.6195782 176.19074,20.1689009 C176.842691,19.7182237 177.356813,19.005016 177.733107,18.0292779 C178.1094,17.0535397 178.297547,15.8130834 178.297547,14.3079089 C178.297547,13.0390118 178.12909,11.98889 177.792176,11.1575436 C177.455262,10.3261972 176.998022,9.71143846 176.420455,9.3132673 C175.842888,8.91509613 175.182186,8.71601055 174.43835,8.71601055 C173.817028,8.71601055 173.239461,8.84290026 172.705649,9.09667969 C172.171837,9.35045911 171.747413,9.64799361 171.432376,9.98928318 L171.432376,20.0179459 Z" id="Shape"></path>
            <path d="M190.833376,22.3413403 C190.43958,22.3413403 190.006405,22.308524 189.53385,22.2428914 C189.061295,22.1772588 188.663124,22.1006874 188.339336,22.0131773 L188.418096,24.244686 L188.418096,26.8437373 L191.109033,27.1325208 L191.109033,28.5501852 L183.482523,28.5501852 L183.482523,27.1325208 L185.438375,26.8306108 L185.438375,9.38546317 L183.561282,8.86040229 L183.561282,7.28521966 L187.433606,6.76015879 L187.499239,6.76015879 L188.089933,7.27209314 L188.089933,8.76851664 C188.614993,8.19094968 189.262568,7.70308061 190.032658,7.30490945 C190.802747,6.90673828 191.673473,6.7076527 192.644836,6.7076527 C193.712459,6.7076527 194.688198,6.96799538 195.57205,7.48868075 C196.455902,8.00936612 197.164735,8.81883497 197.698547,9.91708731 C198.232358,11.0153396 198.499264,12.3914367 198.499264,14.0453784 C198.499264,15.576806 198.186416,16.9725928 197.560718,18.2327389 C196.935021,19.492885 196.042417,20.4926885 194.882908,21.2321492 C193.723398,21.9716099 192.373554,22.3413403 190.833376,22.3413403 Z M188.418096,20.0179459 C188.54061,20.2367213 188.840332,20.4292436 189.317262,20.5955129 C189.794193,20.7617822 190.330192,20.8449168 190.925261,20.8449168 C191.77411,20.8449168 192.524509,20.6195782 193.17646,20.1689009 C193.82841,19.7182237 194.342532,19.005016 194.718826,18.0292779 C195.09512,17.0535397 195.283267,15.8130834 195.283267,14.3079089 C195.283267,13.0390118 195.11481,11.98889 194.777895,11.1575436 C194.440981,10.3261972 193.983741,9.71143846 193.406174,9.3132673 C192.828607,8.91509613 192.167905,8.71601055 191.424069,8.71601055 C190.802747,8.71601055 190.22518,8.84290026 189.691368,9.09667969 C189.157556,9.35045911 188.733132,9.64799361 188.418096,9.98928318 L188.418096,20.0179459 Z" id="Shape"></path>
            <polygon id="Path" points="202.686625 20.3854885 202.686625 2.07399046 200.533875 1.81146002 200.533875 0.564440442 205.010019 0 205.036272 0 205.679472 0.446301745 205.679472 20.3854885 207.910981 20.6086394 207.910981 22.0394303 200.560128 22.0394303 200.560128 20.6086394"></polygon>
            <path d="M211.783305,20.3854885 L211.783305,9.38546317 L209.879959,8.84727577 L209.879959,7.29834619 L214.054193,6.76015879 L214.119825,6.76015879 L214.789278,7.27209314 L214.789278,20.3854885 L216.889522,20.6086394 L216.889522,22.0394303 L209.656808,22.0394303 L209.656808,20.6086394 L211.783305,20.3854885 Z M211.245117,2.49403916 C211.245117,1.89897017 211.41795,1.39578683 211.763615,0.984489144 C212.10928,0.573191457 212.592773,0.367542614 213.214095,0.367542614 L213.227222,0.367542614 C213.594765,0.367542614 213.914177,0.452865006 214.185458,0.623509791 C214.45674,0.794154576 214.664576,1.0194932 214.808968,1.29952567 C214.95336,1.57955814 215.025555,1.87709263 215.025555,2.19212916 C215.025555,2.80470018 214.850535,3.30788352 214.500495,3.70167918 C214.150454,4.09547484 213.642895,4.29237267 212.977818,4.29237267 L212.964692,4.29237267 C212.457133,4.29237267 212.043647,4.12172788 211.724235,3.78043831 C211.404823,3.43914874 211.245117,3.01034903 211.245117,2.49403916 Z" id="Shape"></path>
            <path d="M226.196226,6.7076527 C227.456372,6.7076527 228.804028,6.97893415 230.239194,7.52149706 L230.107929,11.5644658 L228.283343,11.5644658 L227.679523,9.10980621 C227.557008,8.82102273 227.314168,8.60662287 226.951001,8.46660664 C226.587834,8.3265904 226.152471,8.25658228 225.644912,8.25658228 C224.874822,8.25658228 224.20537,8.46879439 223.636554,8.8932186 C223.067738,9.31764281 222.625812,9.95209137 222.310775,10.7965643 C221.995739,11.6410372 221.83822,12.6845957 221.83822,13.9272398 C221.83822,15.3711572 222.026367,16.5700462 222.402661,17.5239068 C222.778954,18.4777673 223.290889,19.182224 223.938464,19.6372768 C224.586039,20.0923295 225.316749,20.3198559 226.130593,20.3198559 C226.891931,20.3198559 227.5942,20.2082805 228.2374,19.9851296 C228.880599,19.7619787 229.429726,19.4885095 229.884778,19.164722 L230.449219,20.372362 C230.134182,20.6961496 229.714134,21.0089983 229.189073,21.3109083 C228.664012,21.6128183 228.075506,21.8600345 227.423555,22.0525568 C226.771605,22.2450791 226.117467,22.3413403 225.46114,22.3413403 C223.982219,22.3413403 222.730824,22.0131773 221.706955,21.3568512 C220.683086,20.7005251 219.915185,19.8013583 219.403251,18.6593509 C218.891316,17.5173435 218.635349,16.2200056 218.635349,14.7673372 C218.635349,13.2709137 218.924133,11.9123186 219.501699,10.6915521 C220.079266,9.47078556 220.936866,8.50161069 222.074498,7.7840275 C223.21213,7.0664443 224.586039,6.7076527 226.196226,6.7076527 Z" id="Path"></path>
            <path d="M241.278599,12.2864245 C241.278599,11.4638291 241.193277,10.8162541 241.022632,10.3436993 C240.851987,9.87114448 240.556641,9.5254794 240.136592,9.30670404 C239.716543,9.08792867 239.121474,8.97854099 238.351385,8.97854099 C236.872463,8.97854099 235.314783,9.39421418 233.678343,10.2255606 L233.665217,10.2255606 L233.008891,8.86040229 C233.245168,8.65037794 233.698033,8.37909649 234.367486,8.04655793 C235.036938,7.71401938 235.798276,7.42304814 236.6515,7.17364423 C237.504724,6.92424031 238.316381,6.79953835 239.08647,6.79953835 C240.364118,6.79953835 241.368297,6.97237089 242.099007,7.31803597 C242.829717,7.66370105 243.356965,8.21720272 243.680753,8.97854099 C244.00454,9.73987926 244.166434,10.7681235 244.166434,12.0632736 L244.166434,20.5955129 L245.76787,20.5955129 L245.76787,21.881912 C244.490222,22.1881975 243.52761,22.3413403 242.880035,22.3413403 C242.512492,22.3413403 242.23246,22.3107117 242.039938,22.2494546 C241.847415,22.1881975 241.705211,22.0634956 241.613326,21.8753488 C241.52144,21.687202 241.475497,21.3962307 241.475497,21.0024351 L241.475497,20.372362 C241.002942,20.8361658 240.38162,21.2802798 239.611531,21.704704 C238.841442,22.1291282 237.979467,22.3413403 237.025606,22.3413403 C236.185509,22.3413403 235.421983,22.1881975 234.735028,21.881912 C234.048074,21.5756265 233.501135,21.1030717 233.094213,20.4642477 C232.687291,19.8254236 232.48383,19.0290813 232.48383,18.0752207 C232.48383,16.9113357 232.888564,15.9530996 233.698033,15.2005124 C234.507502,14.4479251 235.57075,13.8944234 236.887778,13.5400074 C238.204805,13.1855913 239.668413,12.9952567 241.278599,12.9690037 L241.278599,12.2864245 Z M241.278599,14.4523006 C239.9922,14.4523006 238.935515,14.5988801 238.108544,14.8920391 C237.281573,15.1851981 236.682129,15.5724305 236.310211,16.0537363 C235.938293,16.5350421 235.752334,17.0819805 235.752334,17.6945515 C235.752334,18.6134081 235.97986,19.2872362 236.434913,19.7160359 C236.889966,20.1448356 237.502537,20.3592355 238.272626,20.3592355 C238.683923,20.3592355 239.180544,20.2432845 239.762486,20.0113827 C240.344429,19.7794808 240.8498,19.4972606 241.278599,19.164722 L241.278599,14.4523006 Z" id="Shape"></path>
            <path d="M247.316799,8.99166751 L247.316799,7.74464793 C247.561828,7.68339083 247.844048,7.59588068 248.16346,7.48211749 C248.482872,7.3683543 248.690709,7.28084416 248.78697,7.21958705 C249.075753,7.0095627 249.312031,6.66827313 249.495802,6.19571834 C249.627067,5.89818385 249.7999,5.4234413 250.0143,4.77149072 C250.2287,4.11954013 250.375279,3.62729556 250.454038,3.294757 L252.160486,3.294757 L252.186739,7.11457488 L256.59725,7.11457488 L256.59725,8.99166751 L252.199866,8.99166751 L252.199866,16.9332133 C252.199866,18.0008371 252.230494,18.7424855 252.291751,19.1581587 C252.353008,19.5738319 252.47771,19.8407379 252.665857,19.9588766 C252.854004,20.0770153 253.197481,20.1360846 253.696289,20.1360846 L253.709416,20.1360846 C254.164468,20.1360846 254.67859,20.079203 255.251782,19.9654398 C255.824973,19.8516766 256.269087,19.7335379 256.584124,19.6110237 L256.59725,19.6110237 L257.043552,20.8842964 C256.781022,21.1030717 256.387226,21.3240349 255.862165,21.5471857 C255.337104,21.7703366 254.772664,21.9562957 254.168844,22.1050629 C253.565024,22.2538302 253.009334,22.3282138 252.501776,22.3282138 L252.475523,22.3282138 C251.390397,22.3282138 250.572177,22.0897486 250.020863,21.6128183 C249.469549,21.135888 249.193892,20.337358 249.193892,19.2172281 L249.193892,8.99166751 L247.316799,8.99166751 Z" id="Path"></path>
            <path d="M260.535207,20.3854885 L260.535207,9.38546317 L258.631861,8.84727577 L258.631861,7.29834619 L262.806095,6.76015879 L262.871728,6.76015879 L263.54118,7.27209314 L263.54118,20.3854885 L265.641424,20.6086394 L265.641424,22.0394303 L258.40871,22.0394303 L258.40871,20.6086394 L260.535207,20.3854885 Z M259.99702,2.49403916 C259.99702,1.89897017 260.169852,1.39578683 260.515517,0.984489144 C260.861182,0.573191457 261.344676,0.367542614 261.965998,0.367542614 L261.979124,0.367542614 C262.346667,0.367542614 262.666079,0.452865006 262.93736,0.623509791 C263.208642,0.794154576 263.416479,1.0194932 263.56087,1.29952567 C263.705262,1.57955814 263.777458,1.87709263 263.777458,2.19212916 C263.777458,2.80470018 263.602438,3.30788352 263.252397,3.70167918 C262.902356,4.09547484 262.394798,4.29237267 261.72972,4.29237267 L261.716594,4.29237267 C261.209035,4.29237267 260.79555,4.12172788 260.476138,3.78043831 C260.156726,3.43914874 259.99702,3.01034903 259.99702,2.49403916 Z" id="Shape"></path>
            <path d="M274.528079,6.7076527 C276.050756,6.7076527 277.319653,7.04456676 278.334771,7.71839489 C279.349888,8.39222301 280.102476,9.31764281 280.592532,10.4946543 C281.082589,11.6716657 281.327618,13.0171342 281.327618,14.5310598 C281.327618,16.1499975 280.992891,17.5501598 280.323439,18.7315468 C279.653986,19.9129337 278.774509,20.8099127 277.685008,21.4224838 C276.595507,22.0350548 275.433809,22.3413403 274.199916,22.3413403 C272.67724,22.3413403 271.41053,22.0044262 270.399788,21.3305981 C269.389046,20.65677 268.638647,19.7313502 268.14859,18.5543387 C267.658533,17.3773273 267.413504,16.0318588 267.413504,14.5179332 C267.413504,12.9164976 267.748231,11.5250862 268.417683,10.3436993 C269.087136,9.1623123 269.966613,8.26095779 271.056114,7.63963575 C272.145616,7.01831372 273.302937,6.7076527 274.528079,6.7076527 Z M278.006608,14.7673372 C278.006608,12.7983589 277.715636,11.234115 277.133694,10.0746056 C276.551751,8.91509613 275.630707,8.33534142 274.370561,8.33534142 C273.162921,8.33534142 272.252816,8.8319615 271.640245,9.82520165 C271.027673,10.8184418 270.721388,12.3039265 270.721388,14.2816558 C270.721388,16.2506341 271.016735,17.814878 271.607428,18.9743874 C272.198122,20.1338969 273.119166,20.7136516 274.370561,20.7136516 C276.794592,20.7136516 278.006608,18.7315468 278.006608,14.7673372 Z" id="Shape"></path>
            <path d="M285.423093,20.3854885 L285.423093,9.38546317 L283.546,8.86040229 L283.546,7.28521966 L287.43145,6.76015879 L287.497083,6.76015879 L288.11403,7.27209314 L288.11403,8.33534142 L288.100903,8.93916142 C288.50345,8.58036983 289.008821,8.23470475 289.617016,7.90216619 C290.225212,7.56962764 290.877162,7.29834619 291.572868,7.08832183 C292.268574,6.87829748 292.927088,6.77328531 293.54841,6.77328531 C294.686041,6.77328531 295.565518,6.98549741 296.186841,7.40992162 C296.808163,7.83434583 297.241338,8.48848417 297.486366,9.37233665 C297.731395,10.2561891 297.853909,11.4550781 297.853909,12.9690037 L297.853909,20.3854885 L299.744128,20.6086394 L299.744128,22.0394303 L293.154614,22.0394303 L293.154614,20.6086394 L294.834809,20.3854885 L294.834809,12.9558771 C294.834809,11.9407594 294.766988,11.1422294 294.631348,10.5602869 C294.495707,9.97834441 294.23974,9.54079368 293.863446,9.24763469 C293.487152,8.9544757 292.931463,8.80789621 292.196378,8.80789621 C291.566305,8.80789621 290.909979,8.94353693 290.2274,9.21481838 C289.54482,9.48609984 288.945376,9.81426289 288.429066,10.1993075 L288.429066,20.3854885 L290.240526,20.6086394 L290.240526,22.0394303 L283.703518,22.0394303 L283.703518,20.6086394 L285.423093,20.3854885 Z" id="Path"></path>
            <path d="M303.826476,17.7733107 L304.351537,19.768542 C304.456549,19.9523133 304.66001,20.1273336 304.96192,20.2936029 C305.26383,20.4598722 305.620434,20.5955129 306.031732,20.7005251 C306.44303,20.8055372 306.863078,20.8580433 307.291878,20.8580433 C308.280743,20.8580433 308.985199,20.6720843 309.405248,20.3001661 C309.825297,19.928248 310.035321,19.4185014 310.035321,18.7709263 C310.035321,18.3158736 309.893117,17.9155147 309.608709,17.5698496 C309.324301,17.2241845 308.902065,16.8982092 308.342,16.5919237 C307.781935,16.2856382 307.020597,15.9399731 306.057985,15.5549285 C304.666574,15.0123656 303.651456,14.3713537 303.012632,13.631893 C302.373808,12.8924323 302.054396,11.9363839 302.054396,10.763748 C302.054396,9.97615666 302.292861,9.28263875 302.769791,8.68319425 C303.246722,8.08374975 303.90086,7.61775822 304.732206,7.28521966 C305.563553,6.95268111 306.499911,6.78641183 307.541282,6.78641183 C308.346375,6.78641183 309.055207,6.84985669 309.667779,6.9767464 C310.28035,7.10363611 310.897296,7.26771763 311.518618,7.46899097 L311.991173,7.61338271 L311.991173,10.9343928 L310.310978,10.9343928 L309.746538,9.09667969 C309.641525,8.86915331 309.359305,8.67225548 308.899877,8.5059862 C308.440449,8.33971692 307.926327,8.25658228 307.357511,8.25658228 C306.552417,8.25658228 305.931095,8.42722707 305.493545,8.76851664 C305.055994,9.10980621 304.837218,9.55610795 304.837218,10.1074219 C304.837218,10.5974787 304.966296,11.0087764 305.224451,11.3413149 C305.482606,11.6738535 305.804206,11.9451349 306.18925,12.1551593 C306.574295,12.3651836 307.112482,12.6145876 307.803812,12.903371 L308.315747,13.1265219 C309.313362,13.5553216 310.122831,13.9578683 310.744153,14.3341619 C311.365475,14.7104556 311.881785,15.1917614 312.293083,15.7780793 C312.704381,16.3643973 312.910029,17.0819805 312.910029,17.9308289 C312.910029,18.8059304 312.680315,19.5760197 312.220887,20.2410968 C311.761459,20.9061739 311.096382,21.4224838 310.225656,21.7900264 C309.35493,22.157569 308.324498,22.3413403 307.13436,22.3413403 C306.241756,22.3413403 305.305398,22.2188261 304.325284,21.9737977 C303.34517,21.7287693 302.561955,21.4749899 301.975637,21.2124594 L301.975637,17.7733107 L303.826476,17.7733107 Z" id="Path"></path>
            <path d="M2.2183822,51.2936029 L2.2183822,34.8591974 L0.144391741,34.5179079 L0.144391741,33.0608639 L3.64917309,33.0608639 C4.08672382,33.0608639 4.54833984,33.0477374 5.03402115,33.0214844 C5.51970247,32.9952313 5.83692675,32.9777293 5.98569399,32.9689783 C7.01831372,32.8989702 7.81465605,32.8639661 8.37472098,32.8639661 C11.7263596,32.8639661 14.218211,33.699688 15.8502752,35.3711318 C17.4823394,37.0425756 18.2983716,39.392223 18.2983716,42.4200741 C18.2983716,44.5465706 17.8826984,46.4280388 17.051352,48.0644785 C16.2200056,49.7009182 15.0539329,50.9741908 13.5531339,51.8842964 C12.0523349,52.7944019 10.3261972,53.2494546 8.37472098,53.2494546 C7.92841924,53.2494546 7.18020749,53.2144506 6.13008573,53.1444425 C5.04495992,53.0744344 4.26174412,53.0394303 3.78043831,53.0394303 L0,53.0394303 L0,51.6086394 L2.2183822,51.2936029 Z M5.28998833,51.4248681 C5.65753095,51.5211293 6.04038783,51.5867619 6.438559,51.6217659 C6.83673016,51.65677 7.28521966,51.674272 7.7840275,51.674272 L8.3878475,51.674272 C9.68299767,51.648019 10.8228173,51.3045416 11.8073065,50.64384 C12.7917956,49.9831384 13.5618849,49.0074003 14.1175743,47.7166257 C14.6732637,46.425851 14.9511085,44.8484806 14.9511085,42.9845145 C14.9511085,40.1579368 14.3472885,38.0226892 13.1396484,36.5787718 C11.9320084,35.1348544 10.1117974,34.4128957 7.67901532,34.4128957 C7.14520343,34.4128957 6.48450183,34.4566508 5.69691051,34.5441609 L5.28998833,34.5835405 L5.28998833,51.4248681 Z" id="Shape"></path>
            <path d="M22.3938464,51.3854885 L22.3938464,40.3854632 L20.4905007,39.8472758 L20.4905007,38.2983462 L24.6647347,37.7601588 L24.7303673,37.7601588 L25.3998199,38.2720931 L25.3998199,51.3854885 L27.5000634,51.6086394 L27.5000634,53.0394303 L20.2673498,53.0394303 L20.2673498,51.6086394 L22.3938464,51.3854885 Z M21.855659,33.4940392 C21.855659,32.8989702 22.0284915,32.3957868 22.3741566,31.9844891 C22.7198217,31.5731915 23.2033152,31.3675426 23.8246373,31.3675426 L23.8377638,31.3675426 C24.2053064,31.3675426 24.5247184,31.452865 24.7959999,31.6235098 C25.0672814,31.7941546 25.2751179,32.0194932 25.4195097,32.2995257 C25.5639014,32.5795581 25.6360973,32.8770926 25.6360973,33.1921292 C25.6360973,33.8047002 25.461077,34.3078835 25.1110364,34.7016792 C24.7609958,35.0954748 24.253437,35.2923727 23.5883599,35.2923727 L23.5752334,35.2923727 C23.0676745,35.2923727 22.6541891,35.1217279 22.334777,34.7804383 C22.015365,34.4391487 21.855659,34.010349 21.855659,33.4940392 Z" id="Shape"></path>
            <path d="M35.8616579,47.7231889 C35.1440747,47.7231889 34.4746221,47.6488053 33.8533,47.500038 C33.6082716,47.7188134 33.4157493,47.9704051 33.2757331,48.2548131 C33.1357168,48.539221 33.0657087,48.8301923 33.0657087,49.1277268 C33.0657087,49.5652775 33.1685331,49.9000038 33.374182,50.1319057 C33.5798308,50.3638076 33.8904918,50.5235136 34.306165,50.6110237 C34.7218382,50.6985339 35.2928419,50.742289 36.0191761,50.742289 L38.8807579,50.742289 C42.3024046,50.742289 44.013228,52.0549412 44.013228,54.6802455 C44.013228,55.6953632 43.6522486,56.6317218 42.9302899,57.4893212 C42.2083312,58.3469207 41.2435319,59.027312 40.0358918,59.5304954 C38.8282518,60.0336787 37.5331017,60.2852704 36.1504414,60.2852704 L36.1373148,60.2852704 C33.7920429,60.2852704 32.0899706,59.9286665 31.0310978,59.2154589 C29.972225,58.5022512 29.4427887,57.4936967 29.4427887,56.1897956 C29.4427887,55.3759512 29.6812538,54.6386782 30.1581841,53.9779766 C30.6351144,53.317275 31.2104936,52.8162794 31.8843217,52.4749899 C31.0354733,51.9936841 30.6110491,51.2585988 30.6110491,50.2697342 C30.6110491,49.6134081 30.7991959,49.0074003 31.1754895,48.4517109 C31.5517832,47.8960215 32.0462155,47.447532 32.6587865,47.1062424 C31.7836851,46.7036957 31.1120447,46.132692 30.6438654,45.3932313 C30.1756861,44.6537705 29.9415965,43.7896079 29.9415965,42.8007432 C29.9415965,41.7681235 30.2347555,40.866769 30.8210735,40.0966797 C31.4073914,39.3265904 32.1774807,38.7380847 33.1313413,38.3311625 C34.0852019,37.9242403 35.1046951,37.7164037 36.1898209,37.7076527 L36.2029474,37.7076527 C37.148057,37.7076527 37.9969054,37.8148526 38.7494927,38.0292525 C39.50208,38.2436523 40.1365285,38.5608766 40.6528384,38.9809253 C40.9153688,38.6746398 41.3091645,38.3814808 41.8342253,38.1014484 C42.3592862,37.8214159 42.9762328,37.6813997 43.6850649,37.6813997 L44.3938971,37.6813997 L44.3938971,40.2279449 L41.6373275,40.2279449 C41.943613,40.866769 42.0967558,41.5712256 42.0967558,42.3413149 C42.0967558,43.3914367 41.8254743,44.3256075 41.2829114,45.1438274 C40.7403485,45.9620472 39.9965123,46.5964958 39.0514027,47.047173 C38.1062931,47.4978503 37.0474204,47.7231889 35.8747844,47.7231889 L35.8616579,47.7231889 Z M36.0191761,39.2434558 C35.0740666,39.2434558 34.3411691,39.4994229 33.8204837,40.0113573 C33.2997983,40.5232916 33.0394557,41.3612013 33.0394557,42.5250862 C33.0394557,43.6277141 33.2866718,44.5093788 33.7811041,45.1700804 C34.2755365,45.830782 35.0653155,46.1611328 36.1504414,46.1611328 L36.1635679,46.1611328 C37.1611835,46.1611328 37.88533,45.8635983 38.3360073,45.2685293 C38.7866845,44.6734603 39.0120231,43.8027344 39.0120231,42.6563515 C39.0120231,41.4837155 38.7691825,40.6217406 38.2835012,40.0704266 C37.7978199,39.5191127 37.0474204,39.2434558 36.0323027,39.2434558 L36.0191761,39.2434558 Z M33.223227,52.9344181 C32.663162,53.6257483 32.3831296,54.4527192 32.3831296,55.4153308 C32.3831296,56.4654525 32.6937906,57.2617948 33.3151126,57.8043578 C33.9364347,58.3469207 34.9559279,58.6182021 36.3735922,58.6182021 L36.3998453,58.6182021 C37.1874366,58.6182021 37.9400238,58.4956879 38.657607,58.2506595 C39.3751902,58.0056311 39.9571327,57.642464 40.4034345,57.1611582 C40.8497362,56.6798524 41.0728871,56.1066609 41.0728871,55.4415838 C41.0728871,54.8727679 40.9875647,54.4242784 40.8169199,54.0961153 C40.6462751,53.7679523 40.3334263,53.5207361 39.8783736,53.3544668 C39.4233208,53.1881975 38.7626192,53.1050629 37.8962688,53.1050629 L35.2578379,53.1050629 C34.5402547,53.1050629 33.862051,53.0481813 33.223227,52.9344181 Z" id="Shape"></path>
            <path d="M47.8330459,51.3854885 L47.8330459,40.3854632 L45.9297002,39.8472758 L45.9297002,38.2983462 L50.1039342,37.7601588 L50.1695668,37.7601588 L50.8390194,38.2720931 L50.8390194,51.3854885 L52.9392629,51.6086394 L52.9392629,53.0394303 L45.7065493,53.0394303 L45.7065493,51.6086394 L47.8330459,51.3854885 Z M47.2948585,33.4940392 C47.2948585,32.8989702 47.467691,32.3957868 47.8133561,31.9844891 C48.1590212,31.5731915 48.6425147,31.3675426 49.2638367,31.3675426 L49.2769633,31.3675426 C49.6445059,31.3675426 49.9639179,31.452865 50.2351994,31.6235098 C50.5064808,31.7941546 50.7143174,32.0194932 50.8587092,32.2995257 C51.0031009,32.5795581 51.0752968,32.8770926 51.0752968,33.1921292 C51.0752968,33.8047002 50.9002765,34.3078835 50.5502359,34.7016792 C50.2001953,35.0954748 49.6926365,35.2923727 49.0275594,35.2923727 L49.0144328,35.2923727 C48.506874,35.2923727 48.0933885,35.1217279 47.7739765,34.7804383 C47.4545645,34.4391487 47.2948585,34.010349 47.2948585,33.4940392 Z" id="Shape"></path>
            <path d="M54.5538251,39.9916675 L54.5538251,38.7446479 C54.7988535,38.6833908 55.0810737,38.5958807 55.4004857,38.4821175 C55.7198978,38.3683543 55.9277344,38.2808442 56.0239955,38.2195871 C56.312779,38.0095627 56.5490564,37.6682731 56.7328277,37.1957183 C56.8640929,36.8981838 57.0369255,36.4234413 57.2513253,35.7714907 C57.4657252,35.1195401 57.6123047,34.6272956 57.6910638,34.294757 L59.3975117,34.294757 L59.4237647,38.1145749 L63.8342761,38.1145749 L63.8342761,39.9916675 L59.4368912,39.9916675 L59.4368912,47.9332133 C59.4368912,49.0008371 59.4675198,49.7424855 59.5287769,50.1581587 C59.590034,50.5738319 59.7147359,50.8407379 59.9028828,50.9588766 C60.0910296,51.0770153 60.4345069,51.1360846 60.9333147,51.1360846 L60.9464413,51.1360846 C61.401494,51.1360846 61.9156161,51.079203 62.4888076,50.9654398 C63.061999,50.8516766 63.506113,50.7335379 63.8211496,50.6110237 L63.8342761,50.6110237 L64.2805778,51.8842964 C64.0180474,52.1030717 63.6242517,52.3240349 63.0991908,52.5471857 C62.57413,52.7703366 62.0096895,52.9562957 61.4058695,53.1050629 C60.8020495,53.2538302 60.2463601,53.3282138 59.7388012,53.3282138 L59.7125482,53.3282138 C58.6274224,53.3282138 57.8092025,53.0897486 57.2578886,52.6128183 C56.7065747,52.135888 56.4309177,51.337358 56.4309177,50.2172281 L56.4309177,39.9916675 L54.5538251,39.9916675 Z" id="Path"></path>
            <path d="M74.5323914,43.2864245 C74.5323914,42.4638291 74.447069,41.8162541 74.2764243,41.3436993 C74.1057795,40.8711445 73.8104327,40.5254794 73.390384,40.306704 C72.9703353,40.0879287 72.3752663,39.978541 71.605177,39.978541 C70.1262556,39.978541 68.568575,40.3942142 66.9321352,41.2255606 L66.9190087,41.2255606 L66.2626826,39.8604023 C66.49896,39.6503779 66.951825,39.3790965 67.6212776,39.0465579 C68.2907303,38.7140194 69.0520685,38.4230481 69.9052925,38.1736442 C70.7585164,37.9242403 71.570173,37.7995384 72.3402623,37.7995384 C73.6179104,37.7995384 74.6220893,37.9723709 75.3527991,38.318036 C76.0835088,38.663701 76.6107574,39.2172027 76.9345449,39.978541 C77.2583325,40.7398793 77.4202263,41.7681235 77.4202263,43.0632736 L77.4202263,51.5955129 L79.0216619,51.5955129 L79.0216619,52.881912 C77.7440138,53.1881975 76.7814022,53.3413403 76.1338271,53.3413403 C75.7662845,53.3413403 75.486252,53.3107117 75.2937297,53.2494546 C75.1012074,53.1881975 74.9590034,53.0634956 74.8671177,52.8753488 C74.7752321,52.687202 74.7292893,52.3962307 74.7292893,52.0024351 L74.7292893,51.372362 C74.2567345,51.8361658 73.6354124,52.2802798 72.8653232,52.704704 C72.0952339,53.1291282 71.2332589,53.3413403 70.2793983,53.3413403 C69.4393009,53.3413403 68.6757749,53.1881975 67.9888203,52.881912 C67.3018656,52.5756265 66.7549272,52.1030717 66.348005,51.4642477 C65.9410828,50.8254236 65.7376218,50.0290813 65.7376218,49.0752207 C65.7376218,47.9113357 66.1423562,46.9530996 66.951825,46.2005124 C67.7612939,45.4479251 68.8245422,44.8944234 70.1415699,44.5400074 C71.4585976,44.1855913 72.9222047,43.9952567 74.5323914,43.9690037 L74.5323914,43.2864245 Z M74.5323914,45.4523006 C73.2459923,45.4523006 72.1893073,45.5988801 71.3623364,45.8920391 C70.5353655,46.1851981 69.935921,46.5724305 69.5640029,47.0537363 C69.1920848,47.5350421 69.0061257,48.0819805 69.0061257,48.6945515 C69.0061257,49.6134081 69.2336521,50.2872362 69.6887048,50.7160359 C70.1437576,51.1448356 70.7563286,51.3592355 71.5264179,51.3592355 C71.9377156,51.3592355 72.4343357,51.2432845 73.0162782,51.0113827 C73.5982206,50.7794808 74.1035917,50.4972606 74.5323914,50.164722 L74.5323914,45.4523006 Z" id="Shape"></path>
            <polygon id="Path" points="82.7758472 51.3854885 82.7758472 33.0739905 80.6230976 32.81146 80.6230976 31.5644404 85.0992416 31 85.1254946 31 85.7686942 31.4463017 85.7686942 51.3854885 88.0002029 51.6086394 88.0002029 53.0394303 80.6493506 53.0394303 80.6493506 51.6086394"></polygon>
        </g>
        <path d="M32,0 C49.673,0 64,14.327 64,32 C64,49.673 49.673,64 32,64 C14.327,64 0,49.673 0,32 C0,14.327 14.327,0 32,0 Z M49.1509,16.5796 L14.9019,16.5796 C13.9579,16.5796 13.2229,17.3136 13.2229,18.2586 L13.2229,18.2586 L13.2229,41.6615 C13.2229,42.5535 13.9579,43.2875 14.9019,43.2875 L14.9019,43.2875 L26.7559,43.2875 L25.8639,48.6375 L23.1359,48.6375 C22.2449,48.6375 22.2449,50.3685 23.1359,50.3685 L23.1359,50.3685 L40.8639,50.3685 C41.7559,50.3685 41.8079,48.6375 40.8639,48.6375 L40.8639,48.6375 L38.1359,48.6375 L37.2449,43.2875 L49.1509,43.2875 C50.0429,43.2875 50.7769,42.5535 50.7769,41.6615 L50.7769,41.6615 L50.7769,41.0035 L50.7759,41.0026 L50.7769,18.2586 C50.7769,17.3136 50.0429,16.5796 49.1509,16.5796 L49.1509,16.5796 Z M36.1294381,20.9177269 C39.5860966,22.5057362 42,26.0126797 42,30.0842369 C42,35.6406579 37.5139141,40.1607901 32,40.1607901 C26.4860859,40.1607901 22,35.6406579 22,30.0842369 C22,26.1170786 24.2917005,22.6854407 27.6072381,21.0436043 L27.6072381,21.0436043 L27.871095,20.9177269 L27.871095,24.0878362 L27.6567894,24.2440993 C25.8953084,25.5780032 24.7508263,27.6977598 24.7508263,30.0842369 C24.7508263,34.1122795 28.0027722,37.3887575 32,37.3887575 C35.9972278,37.3887575 39.2491737,34.1122795 39.2491737,30.0842369 C39.2491737,27.6977598 38.1051845,25.5780032 36.3437414,24.2445769 L36.3437414,24.2445769 L36.1294381,24.0883734 Z M33.481288,18.4998 L33.481288,29.4998 L30.481288,29.4998 L30.481288,18.4998 L33.481288,18.4998 Z" id="icon" fill="#FFFFFF" fill-rule="nonzero"></path>
    </g>
</svg>