<?xml version="1.0" encoding="UTF-8"?>
<svg width="64px" height="64px" viewBox="0 0 64 64" version="1.1" xmlns="http://www.w3.org/2000/svg" xmlns:xlink="http://www.w3.org/1999/xlink">
    <title>logo/tms/color-light/icon/tms-logo-color-light-icon</title>
    <g id="logo/tms/color-light/icon/tms-logo-color-light-icon" stroke="none" stroke-width="1" fill="none" fill-rule="evenodd">
        <g id="mark/tms">
            <path d="M64,31.9998 C64,49.6728 49.673,63.9998 32,63.9998 C14.327,63.9998 0,49.6728 0,31.9998 C0,14.3268 14.327,-0.0002 32,-0.0002 C49.673,-0.0002 64,14.3268 64,31.9998" id="circle" fill="#0053A2" fill-rule="nonzero"></path>
            <path d="M51.9662,37.0498 C49.3532,40.5378 45.2652,39.9188 42.4112,40.2928 C42.3410065,40.3020043 42.2701432,40.3102975 42.198687,40.3178316 L41.9826159,40.3383086 C41.9100502,40.3444765 41.8369682,40.3500372 41.7634465,40.3551429 L41.5416389,40.3692463 L41.3176529,40.3815307 L41.0919484,40.3929081 L41.0353077,40.3957176 L41.0353077,40.3957176 L40.7511757,40.4102682 C37.7900252,40.5696606 34.6847161,41.0770258 35.9822,50.9478 C36.1222,52.3468 36.5712,55.5358 37.2152,57.3268 C35.5242,57.6538 33.7812,57.8308 31.9952,57.8308 C30.1922,57.8308 28.4322,57.6508 26.7272,57.3178 C27.3702,55.5258 27.8172,52.3438 27.9572,50.9478 C29.2546839,41.0770258 26.1493748,40.5696606 23.1882243,40.4102682 L22.9608045,40.3985416 C22.9229742,40.3966509 22.8851867,40.3947794 22.8474516,40.3929081 L22.6217471,40.3815307 L22.3977611,40.3692463 L22.1759535,40.3551429 C22.1024318,40.3500372 22.0293498,40.3444765 21.9567841,40.3383086 L21.740713,40.3178316 C21.6692568,40.3102975 21.5983935,40.3020043 21.5282,40.2928 C18.6732,39.9188 14.5862,40.5378 11.9742,37.0498 C11.6922,36.6738 12.1372,36.1678 12.5462,36.3968 C14.1752,37.3118 16.6932,37.9158 19.8862,37.7208 C23.4182,37.3618 26.1972,37.9558 28.1962,38.7268 C30.6332,39.6668 33.3072,39.6668 35.7432,38.7268 C37.7422,37.9558 40.5212,37.3618 44.0532,37.7208 C47.2462,37.9158 49.7652,37.3118 51.3932,36.3968 C51.8032,36.1678 52.2472,36.6738 51.9662,37.0498 Z M32.7553,29.0022 C34.3333,29.3002 35.6063,30.5742 35.9053,32.1522 C36.4403,34.9772 34.0103,37.4082 31.1843,36.8732 C29.6063,36.5742 28.3333,35.3002 28.0343,33.7222 C27.4993,30.8962 29.9283,28.4652 32.7553,29.0022 Z M45.0977,28.8436 C47.9157,28.2176 50.7127,28.8896 52.8887,30.4476 C51.5767,32.7806 49.3257,34.5716 46.5077,35.1976 C43.6897,35.8226 40.8927,35.1516 38.7167,33.5926 C40.0297,31.2596 42.2797,29.4686 45.0977,28.8436 Z M18.8418,28.8436 C21.6588,29.4686 23.9098,31.2596 25.2228,33.5926 C23.0468,35.1516 20.2498,35.8226 17.4318,35.1976 C14.6138,34.5716 12.3628,32.7806 11.0508,30.4476 C13.2268,28.8896 16.0238,28.2176 18.8418,28.8436 Z M24.168,20.325 C26.534,22.543 27.684,25.563 27.616,28.569 C24.621,28.83 21.533,27.877 19.167,25.659 C16.802,23.441 15.652,20.421 15.72,17.415 C18.714,17.154 21.803,18.107 24.168,20.325 Z M13.8692,23.2108 C15.4582,23.8468 16.6042,25.1088 17.1492,26.5998 C15.7272,27.3048 14.0262,27.4298 12.4362,26.7948 C10.8482,26.1588 9.7012,24.8968 9.1562,23.4058 C10.5782,22.7008 12.2792,22.5758 13.8692,23.2108 Z M22.1653,10.2888 C23.6783,10.7678 24.9913,11.8558 25.6963,13.4158 C26.4013,14.9768 26.3503,16.6818 25.7103,18.1328 C24.1973,17.6538 22.8833,16.5648 22.1793,15.0058 C21.4743,13.4458 21.5243,11.7408 22.1653,10.2888 Z M28.211,17.5028 C28.211,20.8998 29.695,23.9428 32.041,26.0458 C34.386,23.9428 35.87,20.8998 35.87,17.5028 C35.87,14.1068 34.386,11.0628 32.041,8.9608 C29.695,11.0628 28.211,14.1068 28.211,17.5028 M48.2195,17.415 C48.2875,20.421 47.1375,23.441 44.7725,25.659 C42.4065,27.877 39.3185,28.83 36.3235,28.569 C36.2555,25.563 37.4055,22.543 39.7715,20.325 C42.1365,18.107 45.2245,17.154 48.2195,17.415 Z M50.0704,23.2108 C51.6604,22.5758 53.3614,22.7008 54.7834,23.4058 C54.2384,24.8968 53.0914,26.1588 51.5034,26.7948 C49.9134,27.4298 48.2124,27.3048 46.7904,26.5998 C47.3354,25.1088 48.4814,23.8468 50.0704,23.2108 Z M41.7742,10.2888 C42.4152,11.7408 42.4652,13.4458 41.7602,15.0058 C41.0552,16.5648 39.7422,17.6538 38.2292,18.1328 C37.5892,16.6818 37.5382,14.9768 38.2432,13.4158 C38.9482,11.8558 40.2612,10.7678 41.7742,10.2888 Z" id="icon" fill="#F5EA14"></path>
        </g>
    </g>
</svg>