<?xml version="1.0" encoding="UTF-8"?>
<svg width="585px" height="64px" viewBox="0 0 585 64" version="1.1" xmlns="http://www.w3.org/2000/svg" xmlns:xlink="http://www.w3.org/1999/xlink">
    <title>logo/eas/color-light/long/eas-logo-color-light-long</title>
    <g id="logo/eas/color-light/long/eas-logo-color-light-long" stroke="none" stroke-width="1" fill="none" fill-rule="evenodd">
        <g id="Enterprise-Applicati" transform="translate(76.406250, 18.405073)" fill="#FFFFFF" fill-rule="nonzero">
            <polygon id="Path" points="2.4609375 22.6464844 2.4609375 4.29199219 0.0439453125 3.92578125 0.0439453125 2.29980469 15.3076172 2.29980469 15.7177734 6.94335938 13.828125 6.94335938 12.9199219 4.16015625 5.90332031 3.96972656 5.90332031 12.2460938 10.6640625 12.1582031 11.1035156 9.7265625 12.9931641 9.7265625 12.9931641 16.6699219 11.1035156 16.6699219 10.6787109 14.0917969 5.90332031 14.0185547 5.90332031 22.7783203 13.9599609 22.4560547 15.6152344 18.7792969 17.4902344 19.3359375 16.6259766 24.5947266 0 24.5947266 0 22.9980469"></polygon>
            <path d="M21.6210938,22.7490234 L21.6210938,10.4736328 L19.5263672,9.88769531 L19.5263672,8.12988281 L23.8623047,7.54394531 L23.9355469,7.54394531 L24.6240234,8.11523438 L24.6240234,9.30175781 L24.609375,9.97558594 C25.0585938,9.57519531 25.6225586,9.18945312 26.3012695,8.81835938 C26.9799805,8.44726562 27.7075195,8.14453125 28.4838867,7.91015625 C29.2602539,7.67578125 29.9951172,7.55859375 30.6884766,7.55859375 C31.9580078,7.55859375 32.9394531,7.79541016 33.6328125,8.26904297 C34.3261719,8.74267578 34.8095703,9.47265625 35.0830078,10.4589844 C35.3564453,11.4453125 35.4931641,12.7832031 35.4931641,14.4726562 L35.4931641,22.7490234 L37.6025391,22.9980469 L37.6025391,24.5947266 L30.2490234,24.5947266 L30.2490234,22.9980469 L32.1240234,22.7490234 L32.1240234,14.4580078 C32.1240234,13.3251953 32.0483398,12.434082 31.8969727,11.784668 C31.7456055,11.1352539 31.4599609,10.6469727 31.0400391,10.3198242 C30.6201172,9.99267578 30,9.82910156 29.1796875,9.82910156 C28.4765625,9.82910156 27.7441406,9.98046875 26.9824219,10.2832031 C26.2207031,10.5859375 25.5517578,10.9521484 24.9755859,11.3818359 L24.9755859,22.7490234 L26.9970703,22.9980469 L26.9970703,24.5947266 L19.7021484,24.5947266 L19.7021484,22.9980469 L21.6210938,22.7490234 Z" id="Path"></path>
            <path d="M39.3310547,10.0341797 L39.3310547,8.64257812 C39.6044922,8.57421875 39.9194336,8.4765625 40.2758789,8.34960938 C40.6323242,8.22265625 40.8642578,8.125 40.9716797,8.05664062 C41.2939453,7.82226562 41.5576172,7.44140625 41.7626953,6.9140625 C41.9091797,6.58203125 42.1020508,6.05224609 42.3413086,5.32470703 C42.5805664,4.59716797 42.7441406,4.04785156 42.8320312,3.67675781 L44.7363281,3.67675781 L44.765625,7.93945312 L49.6875,7.93945312 L49.6875,10.0341797 L44.7802734,10.0341797 L44.7802734,18.8964844 C44.7802734,20.0878906 44.8144531,20.9155273 44.8828125,21.3793945 C44.9511719,21.8432617 45.090332,22.1411133 45.300293,22.2729492 C45.5102539,22.4047852 45.8935547,22.4707031 46.4501953,22.4707031 L46.4648438,22.4707031 C46.9726562,22.4707031 47.5463867,22.4072266 48.1860352,22.2802734 C48.8256836,22.1533203 49.3212891,22.0214844 49.6728516,21.8847656 L49.6875,21.8847656 L50.1855469,23.3056641 C49.8925781,23.5498047 49.453125,23.7963867 48.8671875,24.0454102 C48.28125,24.2944336 47.6513672,24.5019531 46.9775391,24.6679688 C46.3037109,24.8339844 45.6835938,24.9169922 45.1171875,24.9169922 L45.0878906,24.9169922 C43.8769531,24.9169922 42.9638672,24.6508789 42.3486328,24.1186523 C41.7333984,23.5864258 41.4257812,22.6953125 41.4257812,21.4453125 L41.4257812,10.0341797 L39.3310547,10.0341797 Z" id="Path"></path>
            <path d="M51.8115234,16.2304688 C51.8115234,14.5117188 52.1484375,12.9882812 52.8222656,11.6601562 C53.4960938,10.3320312 54.4287109,9.30419922 55.6201172,8.57666016 C56.8115234,7.84912109 58.1640625,7.48535156 59.6777344,7.48535156 C61.5527344,7.48535156 63.0029297,7.99804688 64.0283203,9.0234375 C65.0537109,10.0488281 65.6005859,11.5283203 65.6689453,13.4619141 L65.6689453,13.9892578 C65.6689453,15.0146484 65.6103516,15.7958984 65.4931641,16.3330078 L55.3417969,16.3330078 C55.3808594,17.7685547 55.625,18.9599609 56.0742188,19.9072266 C56.5234375,20.8544922 57.1142578,21.5527344 57.8466797,22.0019531 C58.5791016,22.4511719 59.4042969,22.6757812 60.3222656,22.6757812 C61.1230469,22.6757812 61.9458008,22.5366211 62.7905273,22.2583008 C63.6352539,21.9799805 64.296875,21.6601562 64.7753906,21.2988281 L65.390625,22.7050781 C65.0195312,23.0859375 64.5092773,23.4472656 63.8598633,23.7890625 C63.2104492,24.1308594 62.487793,24.4067383 61.6918945,24.6166992 C60.8959961,24.8266602 60.1074219,24.9316406 59.3261719,24.9316406 C57.6855469,24.9316406 56.3012695,24.5678711 55.1733398,23.840332 C54.0454102,23.112793 53.203125,22.097168 52.6464844,20.793457 C52.0898438,19.4897461 51.8115234,17.96875 51.8115234,16.2304688 Z M62.1533203,14.6337891 C62.1923828,14.2822266 62.2119141,13.8623047 62.2119141,13.3740234 C62.2021484,12.1337891 61.9433594,11.1376953 61.4355469,10.3857422 C60.9277344,9.63378906 60.1269531,9.2578125 59.0332031,9.2578125 C57.9394531,9.2578125 57.0727539,9.66552734 56.4331055,10.480957 C55.793457,11.2963867 55.4296875,12.6806641 55.3417969,14.6337891 L62.1533203,14.6337891 Z" id="Shape"></path>
            <path d="M70.5175781,22.7783203 L70.5175781,10.4736328 L68.4375,9.88769531 L68.4375,8.12988281 L72.6269531,7.54394531 L72.7001953,7.54394531 L73.4033203,8.11523438 L73.4033203,9.03808594 L73.3740234,10.9423828 L73.4033203,10.9423828 C73.5791016,10.6201172 73.918457,10.1879883 74.4213867,9.64599609 C74.9243164,9.10400391 75.5737305,8.60839844 76.3696289,8.15917969 C77.1655273,7.70996094 78.0322266,7.48535156 78.9697266,7.48535156 C79.3505859,7.48535156 79.6728516,7.5390625 79.9365234,7.64648438 L79.9365234,11.25 C79.7509766,11.1425781 79.5043945,11.0522461 79.1967773,10.9790039 C78.8891602,10.9057617 78.5595703,10.8691406 78.2080078,10.8691406 C77.2216797,10.8691406 76.3696289,10.9887695 75.6518555,11.2280273 C74.934082,11.4672852 74.3359375,11.7675781 73.8574219,12.1289062 L73.8574219,22.7636719 L77.7099609,23.0273438 L77.7099609,24.5947266 L68.2177734,24.5947266 L68.2177734,23.0126953 L70.5175781,22.7783203 Z" id="Path"></path>
            <path d="M89.8388672,24.9316406 C89.3994141,24.9316406 88.9160156,24.8950195 88.3886719,24.8217773 C87.8613281,24.7485352 87.4169922,24.6630859 87.0556641,24.5654297 L87.1435547,27.0556641 L87.1435547,29.9560547 L90.1464844,30.2783203 L90.1464844,31.8603516 L81.6357422,31.8603516 L81.6357422,30.2783203 L83.8183594,29.9414062 L83.8183594,10.4736328 L81.7236328,9.88769531 L81.7236328,8.12988281 L86.0449219,7.54394531 L86.1181641,7.54394531 L86.7773438,8.11523438 L86.7773438,9.78515625 C87.3632812,9.140625 88.0859375,8.59619141 88.9453125,8.15185547 C89.8046875,7.70751953 90.7763672,7.48535156 91.8603516,7.48535156 C93.0517578,7.48535156 94.140625,7.77587891 95.1269531,8.35693359 C96.1132812,8.93798828 96.9042969,9.84130859 97.5,11.0668945 C98.0957031,12.2924805 98.3935547,13.828125 98.3935547,15.6738281 C98.3935547,17.3828125 98.0444336,18.9404297 97.3461914,20.3466797 C96.6479492,21.7529297 95.6518555,22.8686523 94.3579102,23.6938477 C93.0639648,24.519043 91.5576172,24.9316406 89.8388672,24.9316406 Z M87.1435547,22.3388672 C87.2802734,22.5830078 87.6147461,22.7978516 88.1469727,22.9833984 C88.6791992,23.1689453 89.2773438,23.2617188 89.9414062,23.2617188 C90.8886719,23.2617188 91.7260742,23.0102539 92.4536133,22.5073242 C93.1811523,22.0043945 93.7548828,21.2084961 94.1748047,20.1196289 C94.5947266,19.0307617 94.8046875,17.6464844 94.8046875,15.9667969 C94.8046875,14.5507812 94.6166992,13.3789062 94.2407227,12.4511719 C93.8647461,11.5234375 93.3544922,10.8374023 92.7099609,10.3930664 C92.0654297,9.94873047 91.328125,9.7265625 90.4980469,9.7265625 C89.8046875,9.7265625 89.1601562,9.86816406 88.5644531,10.1513672 C87.96875,10.4345703 87.4951172,10.7666016 87.1435547,11.1474609 L87.1435547,22.3388672 Z" id="Shape"></path>
            <path d="M103.286133,22.7783203 L103.286133,10.4736328 L101.206055,9.88769531 L101.206055,8.12988281 L105.395508,7.54394531 L105.46875,7.54394531 L106.171875,8.11523438 L106.171875,9.03808594 L106.142578,10.9423828 L106.171875,10.9423828 C106.347656,10.6201172 106.687012,10.1879883 107.189941,9.64599609 C107.692871,9.10400391 108.342285,8.60839844 109.138184,8.15917969 C109.934082,7.70996094 110.800781,7.48535156 111.738281,7.48535156 C112.119141,7.48535156 112.441406,7.5390625 112.705078,7.64648438 L112.705078,11.25 C112.519531,11.1425781 112.272949,11.0522461 111.965332,10.9790039 C111.657715,10.9057617 111.328125,10.8691406 110.976562,10.8691406 C109.990234,10.8691406 109.138184,10.9887695 108.42041,11.2280273 C107.702637,11.4672852 107.104492,11.7675781 106.625977,12.1289062 L106.625977,22.7636719 L110.478516,23.0273438 L110.478516,24.5947266 L100.986328,24.5947266 L100.986328,23.0126953 L103.286133,22.7783203 Z" id="Path"></path>
            <path d="M116.953125,22.7490234 L116.953125,10.4736328 L114.829102,9.87304688 L114.829102,8.14453125 L119.487305,7.54394531 L119.560547,7.54394531 L120.307617,8.11523438 L120.307617,22.7490234 L122.651367,22.9980469 L122.651367,24.5947266 L114.580078,24.5947266 L114.580078,22.9980469 L116.953125,22.7490234 Z M116.352539,2.78320312 C116.352539,2.11914062 116.54541,1.55761719 116.931152,1.09863281 C117.316895,0.639648438 117.856445,0.41015625 118.549805,0.41015625 L118.564453,0.41015625 C118.974609,0.41015625 119.331055,0.505371094 119.633789,0.695800781 C119.936523,0.886230469 120.168457,1.13769531 120.32959,1.45019531 C120.490723,1.76269531 120.571289,2.09472656 120.571289,2.44628906 C120.571289,3.12988281 120.375977,3.69140625 119.985352,4.13085938 C119.594727,4.5703125 119.02832,4.79003906 118.286133,4.79003906 L118.271484,4.79003906 C117.705078,4.79003906 117.243652,4.59960938 116.887207,4.21875 C116.530762,3.83789062 116.352539,3.359375 116.352539,2.78320312 Z" id="Shape"></path>
            <path d="M127.280273,19.8339844 L127.866211,22.0605469 C127.983398,22.265625 128.210449,22.4609375 128.547363,22.6464844 C128.884277,22.8320312 129.282227,22.9833984 129.741211,23.1005859 C130.200195,23.2177734 130.668945,23.2763672 131.147461,23.2763672 C132.250977,23.2763672 133.037109,23.0688477 133.505859,22.6538086 C133.974609,22.2387695 134.208984,21.6699219 134.208984,20.9472656 C134.208984,20.4394531 134.050293,19.9926758 133.73291,19.6069336 C133.415527,19.2211914 132.944336,18.8574219 132.319336,18.515625 C131.694336,18.1738281 130.844727,17.7880859 129.770508,17.3583984 C128.217773,16.7529297 127.084961,16.0375977 126.37207,15.2124023 C125.65918,14.387207 125.302734,13.3203125 125.302734,12.0117188 C125.302734,11.1328125 125.568848,10.3588867 126.101074,9.68994141 C126.633301,9.02099609 127.363281,8.50097656 128.291016,8.12988281 C129.21875,7.75878906 130.263672,7.57324219 131.425781,7.57324219 C132.324219,7.57324219 133.115234,7.64404297 133.798828,7.78564453 C134.482422,7.92724609 135.170898,8.11035156 135.864258,8.33496094 L136.391602,8.49609375 L136.391602,12.2021484 L134.516602,12.2021484 L133.886719,10.1513672 C133.769531,9.89746094 133.45459,9.67773438 132.941895,9.4921875 C132.429199,9.30664062 131.855469,9.21386719 131.220703,9.21386719 C130.322266,9.21386719 129.628906,9.40429688 129.140625,9.78515625 C128.652344,10.1660156 128.408203,10.6640625 128.408203,11.2792969 C128.408203,11.8261719 128.552246,12.2851562 128.840332,12.65625 C129.128418,13.0273438 129.487305,13.3300781 129.916992,13.5644531 C130.34668,13.7988281 130.947266,14.0771484 131.71875,14.3994141 L132.290039,14.6484375 C133.40332,15.1269531 134.306641,15.5761719 135,15.9960938 C135.693359,16.4160156 136.269531,16.953125 136.728516,17.6074219 C137.1875,18.2617188 137.416992,19.0625 137.416992,20.0097656 C137.416992,20.9863281 137.160645,21.8457031 136.647949,22.5878906 C136.135254,23.3300781 135.393066,23.90625 134.421387,24.3164062 C133.449707,24.7265625 132.299805,24.9316406 130.97168,24.9316406 C129.975586,24.9316406 128.930664,24.7949219 127.836914,24.5214844 C126.743164,24.2480469 125.869141,23.9648438 125.214844,23.671875 L125.214844,19.8339844 L127.280273,19.8339844 Z" id="Path"></path>
            <path d="M139.995117,16.2304688 C139.995117,14.5117188 140.332031,12.9882812 141.005859,11.6601562 C141.679688,10.3320312 142.612305,9.30419922 143.803711,8.57666016 C144.995117,7.84912109 146.347656,7.48535156 147.861328,7.48535156 C149.736328,7.48535156 151.186523,7.99804688 152.211914,9.0234375 C153.237305,10.0488281 153.78418,11.5283203 153.852539,13.4619141 L153.852539,13.9892578 C153.852539,15.0146484 153.793945,15.7958984 153.676758,16.3330078 L143.525391,16.3330078 C143.564453,17.7685547 143.808594,18.9599609 144.257812,19.9072266 C144.707031,20.8544922 145.297852,21.5527344 146.030273,22.0019531 C146.762695,22.4511719 147.587891,22.6757812 148.505859,22.6757812 C149.306641,22.6757812 150.129395,22.5366211 150.974121,22.2583008 C151.818848,21.9799805 152.480469,21.6601562 152.958984,21.2988281 L153.574219,22.7050781 C153.203125,23.0859375 152.692871,23.4472656 152.043457,23.7890625 C151.394043,24.1308594 150.671387,24.4067383 149.875488,24.6166992 C149.07959,24.8266602 148.291016,24.9316406 147.509766,24.9316406 C145.869141,24.9316406 144.484863,24.5678711 143.356934,23.840332 C142.229004,23.112793 141.386719,22.097168 140.830078,20.793457 C140.273438,19.4897461 139.995117,17.96875 139.995117,16.2304688 Z M150.336914,14.6337891 C150.375977,14.2822266 150.395508,13.8623047 150.395508,13.3740234 C150.385742,12.1337891 150.126953,11.1376953 149.619141,10.3857422 C149.111328,9.63378906 148.310547,9.2578125 147.216797,9.2578125 C146.123047,9.2578125 145.256348,9.66552734 144.616699,10.480957 C143.977051,11.2963867 143.613281,12.6806641 143.525391,14.6337891 L150.336914,14.6337891 Z" id="Shape"></path>
            <path d="M165.424805,22.6464844 L172.646484,2.12402344 L176.132812,2.12402344 L183.413086,22.6464844 L185.273438,22.9980469 L185.273438,24.5947266 L177.231445,24.5947266 L177.231445,22.9980469 L179.619141,22.6464844 L178.227539,18.3691406 L169.614258,18.3691406 L168.28125,22.6464844 L170.786133,22.9980469 L170.786133,24.5947266 L163.579102,24.5947266 L163.564453,22.9980469 L165.424805,22.6464844 Z M177.626953,16.5087891 L174.492188,6.88476562 L173.847656,4.42382812 L173.203125,6.9140625 L170.200195,16.5087891 L177.626953,16.5087891 Z" id="Shape"></path>
            <path d="M193.989258,24.9316406 C193.549805,24.9316406 193.066406,24.8950195 192.539062,24.8217773 C192.011719,24.7485352 191.567383,24.6630859 191.206055,24.5654297 L191.293945,27.0556641 L191.293945,29.9560547 L194.296875,30.2783203 L194.296875,31.8603516 L185.786133,31.8603516 L185.786133,30.2783203 L187.96875,29.9414062 L187.96875,10.4736328 L185.874023,9.88769531 L185.874023,8.12988281 L190.195312,7.54394531 L190.268555,7.54394531 L190.927734,8.11523438 L190.927734,9.78515625 C191.513672,9.140625 192.236328,8.59619141 193.095703,8.15185547 C193.955078,7.70751953 194.926758,7.48535156 196.010742,7.48535156 C197.202148,7.48535156 198.291016,7.77587891 199.277344,8.35693359 C200.263672,8.93798828 201.054688,9.84130859 201.650391,11.0668945 C202.246094,12.2924805 202.543945,13.828125 202.543945,15.6738281 C202.543945,17.3828125 202.194824,18.9404297 201.496582,20.3466797 C200.79834,21.7529297 199.802246,22.8686523 198.508301,23.6938477 C197.214355,24.519043 195.708008,24.9316406 193.989258,24.9316406 Z M191.293945,22.3388672 C191.430664,22.5830078 191.765137,22.7978516 192.297363,22.9833984 C192.82959,23.1689453 193.427734,23.2617188 194.091797,23.2617188 C195.039062,23.2617188 195.876465,23.0102539 196.604004,22.5073242 C197.331543,22.0043945 197.905273,21.2084961 198.325195,20.1196289 C198.745117,19.0307617 198.955078,17.6464844 198.955078,15.9667969 C198.955078,14.5507812 198.76709,13.3789062 198.391113,12.4511719 C198.015137,11.5234375 197.504883,10.8374023 196.860352,10.3930664 C196.21582,9.94873047 195.478516,9.7265625 194.648438,9.7265625 C193.955078,9.7265625 193.310547,9.86816406 192.714844,10.1513672 C192.119141,10.4345703 191.645508,10.7666016 191.293945,11.1474609 L191.293945,22.3388672 Z" id="Shape"></path>
            <path d="M212.944336,24.9316406 C212.504883,24.9316406 212.021484,24.8950195 211.494141,24.8217773 C210.966797,24.7485352 210.522461,24.6630859 210.161133,24.5654297 L210.249023,27.0556641 L210.249023,29.9560547 L213.251953,30.2783203 L213.251953,31.8603516 L204.741211,31.8603516 L204.741211,30.2783203 L206.923828,29.9414062 L206.923828,10.4736328 L204.829102,9.88769531 L204.829102,8.12988281 L209.150391,7.54394531 L209.223633,7.54394531 L209.882812,8.11523438 L209.882812,9.78515625 C210.46875,9.140625 211.191406,8.59619141 212.050781,8.15185547 C212.910156,7.70751953 213.881836,7.48535156 214.96582,7.48535156 C216.157227,7.48535156 217.246094,7.77587891 218.232422,8.35693359 C219.21875,8.93798828 220.009766,9.84130859 220.605469,11.0668945 C221.201172,12.2924805 221.499023,13.828125 221.499023,15.6738281 C221.499023,17.3828125 221.149902,18.9404297 220.45166,20.3466797 C219.753418,21.7529297 218.757324,22.8686523 217.463379,23.6938477 C216.169434,24.519043 214.663086,24.9316406 212.944336,24.9316406 Z M210.249023,22.3388672 C210.385742,22.5830078 210.720215,22.7978516 211.252441,22.9833984 C211.784668,23.1689453 212.382812,23.2617188 213.046875,23.2617188 C213.994141,23.2617188 214.831543,23.0102539 215.559082,22.5073242 C216.286621,22.0043945 216.860352,21.2084961 217.280273,20.1196289 C217.700195,19.0307617 217.910156,17.6464844 217.910156,15.9667969 C217.910156,14.5507812 217.722168,13.3789062 217.346191,12.4511719 C216.970215,11.5234375 216.459961,10.8374023 215.81543,10.3930664 C215.170898,9.94873047 214.433594,9.7265625 213.603516,9.7265625 C212.910156,9.7265625 212.265625,9.86816406 211.669922,10.1513672 C211.074219,10.4345703 210.600586,10.7666016 210.249023,11.1474609 L210.249023,22.3388672 Z" id="Shape"></path>
            <polygon id="Path" points="226.171875 22.7490234 226.171875 2.31445312 223.769531 2.02148438 223.769531 0.629882812 228.764648 0 228.793945 0 229.511719 0.498046875 229.511719 22.7490234 232.001953 22.9980469 232.001953 24.5947266 223.798828 24.5947266 223.798828 22.9980469"></polygon>
            <path d="M236.323242,22.7490234 L236.323242,10.4736328 L234.199219,9.87304688 L234.199219,8.14453125 L238.857422,7.54394531 L238.930664,7.54394531 L239.677734,8.11523438 L239.677734,22.7490234 L242.021484,22.9980469 L242.021484,24.5947266 L233.950195,24.5947266 L233.950195,22.9980469 L236.323242,22.7490234 Z M235.722656,2.78320312 C235.722656,2.11914062 235.915527,1.55761719 236.30127,1.09863281 C236.687012,0.639648438 237.226562,0.41015625 237.919922,0.41015625 L237.93457,0.41015625 C238.344727,0.41015625 238.701172,0.505371094 239.003906,0.695800781 C239.306641,0.886230469 239.538574,1.13769531 239.699707,1.45019531 C239.86084,1.76269531 239.941406,2.09472656 239.941406,2.44628906 C239.941406,3.12988281 239.746094,3.69140625 239.355469,4.13085938 C238.964844,4.5703125 238.398438,4.79003906 237.65625,4.79003906 L237.641602,4.79003906 C237.075195,4.79003906 236.61377,4.59960938 236.257324,4.21875 C235.900879,3.83789062 235.722656,3.359375 235.722656,2.78320312 Z" id="Shape"></path>
            <path d="M252.407227,7.48535156 C253.813477,7.48535156 255.317383,7.78808594 256.918945,8.39355469 L256.772461,12.9052734 L254.736328,12.9052734 L254.0625,10.1660156 C253.925781,9.84375 253.654785,9.60449219 253.249512,9.44824219 C252.844238,9.29199219 252.358398,9.21386719 251.791992,9.21386719 C250.932617,9.21386719 250.185547,9.45068359 249.550781,9.92431641 C248.916016,10.3979492 248.422852,11.105957 248.071289,12.0483398 C247.719727,12.9907227 247.543945,14.1552734 247.543945,15.5419922 C247.543945,17.1533203 247.753906,18.4912109 248.173828,19.5556641 C248.59375,20.6201172 249.165039,21.40625 249.887695,21.9140625 C250.610352,22.421875 251.425781,22.6757812 252.333984,22.6757812 C253.183594,22.6757812 253.967285,22.5512695 254.685059,22.3022461 C255.402832,22.0532227 256.015625,21.7480469 256.523438,21.3867188 L257.15332,22.734375 C256.801758,23.0957031 256.333008,23.4448242 255.74707,23.7817383 C255.161133,24.1186523 254.504395,24.3945312 253.776855,24.609375 C253.049316,24.8242188 252.319336,24.9316406 251.586914,24.9316406 C249.936523,24.9316406 248.540039,24.5654297 247.397461,23.8330078 C246.254883,23.1005859 245.397949,22.097168 244.82666,20.8227539 C244.255371,19.5483398 243.969727,18.1005859 243.969727,16.4794922 C243.969727,14.8095703 244.291992,13.293457 244.936523,11.9311523 C245.581055,10.5688477 246.538086,9.48730469 247.807617,8.68652344 C249.077148,7.88574219 250.610352,7.48535156 252.407227,7.48535156 Z" id="Path"></path>
            <path d="M269.238281,13.7109375 C269.238281,12.7929688 269.143066,12.0703125 268.952637,11.5429688 C268.762207,11.015625 268.432617,10.6298828 267.963867,10.3857422 C267.495117,10.1416016 266.831055,10.0195312 265.97168,10.0195312 C264.321289,10.0195312 262.583008,10.4833984 260.756836,11.4111328 L260.742188,11.4111328 L260.009766,9.88769531 C260.273438,9.65332031 260.778809,9.35058594 261.525879,8.97949219 C262.272949,8.60839844 263.122559,8.28369141 264.074707,8.00537109 C265.026855,7.72705078 265.932617,7.58789062 266.791992,7.58789062 C268.217773,7.58789062 269.338379,7.78076172 270.153809,8.16650391 C270.969238,8.55224609 271.557617,9.16992188 271.918945,10.0195312 C272.280273,10.8691406 272.460938,12.0166016 272.460938,13.4619141 L272.460938,22.9833984 L274.248047,22.9833984 L274.248047,24.4189453 C272.822266,24.7607422 271.748047,24.9316406 271.025391,24.9316406 C270.615234,24.9316406 270.302734,24.8974609 270.087891,24.8291016 C269.873047,24.7607422 269.714355,24.621582 269.611816,24.4116211 C269.509277,24.2016602 269.458008,23.8769531 269.458008,23.4375 L269.458008,22.734375 C268.930664,23.2519531 268.237305,23.7475586 267.37793,24.2211914 C266.518555,24.6948242 265.556641,24.9316406 264.492188,24.9316406 C263.554688,24.9316406 262.702637,24.7607422 261.936035,24.4189453 C261.169434,24.0771484 260.559082,23.5498047 260.10498,22.8369141 C259.650879,22.1240234 259.423828,21.2353516 259.423828,20.1708984 C259.423828,18.8720703 259.875488,17.8027344 260.778809,16.9628906 C261.682129,16.1230469 262.868652,15.5053711 264.338379,15.1098633 C265.808105,14.7143555 267.441406,14.5019531 269.238281,14.4726562 L269.238281,13.7109375 Z M269.238281,16.1279297 C267.802734,16.1279297 266.623535,16.2915039 265.700684,16.6186523 C264.777832,16.9458008 264.108887,17.3779297 263.693848,17.9150391 C263.278809,18.4521484 263.071289,19.0625 263.071289,19.7460938 C263.071289,20.7714844 263.325195,21.5234375 263.833008,22.0019531 C264.34082,22.4804688 265.024414,22.7197266 265.883789,22.7197266 C266.342773,22.7197266 266.896973,22.590332 267.546387,22.331543 C268.195801,22.0727539 268.759766,21.7578125 269.238281,21.3867188 L269.238281,16.1279297 Z" id="Shape"></path>
            <path d="M275.976562,10.0341797 L275.976562,8.64257812 C276.25,8.57421875 276.564941,8.4765625 276.921387,8.34960938 C277.277832,8.22265625 277.509766,8.125 277.617188,8.05664062 C277.939453,7.82226562 278.203125,7.44140625 278.408203,6.9140625 C278.554688,6.58203125 278.747559,6.05224609 278.986816,5.32470703 C279.226074,4.59716797 279.389648,4.04785156 279.477539,3.67675781 L281.381836,3.67675781 L281.411133,7.93945312 L286.333008,7.93945312 L286.333008,10.0341797 L281.425781,10.0341797 L281.425781,18.8964844 C281.425781,20.0878906 281.459961,20.9155273 281.52832,21.3793945 C281.59668,21.8432617 281.73584,22.1411133 281.945801,22.2729492 C282.155762,22.4047852 282.539062,22.4707031 283.095703,22.4707031 L283.110352,22.4707031 C283.618164,22.4707031 284.191895,22.4072266 284.831543,22.2802734 C285.471191,22.1533203 285.966797,22.0214844 286.318359,21.8847656 L286.333008,21.8847656 L286.831055,23.3056641 C286.538086,23.5498047 286.098633,23.7963867 285.512695,24.0454102 C284.926758,24.2944336 284.296875,24.5019531 283.623047,24.6679688 C282.949219,24.8339844 282.329102,24.9169922 281.762695,24.9169922 L281.733398,24.9169922 C280.522461,24.9169922 279.609375,24.6508789 278.994141,24.1186523 C278.378906,23.5864258 278.071289,22.6953125 278.071289,21.4453125 L278.071289,10.0341797 L275.976562,10.0341797 Z" id="Path"></path>
            <path d="M290.727539,22.7490234 L290.727539,10.4736328 L288.603516,9.87304688 L288.603516,8.14453125 L293.261719,7.54394531 L293.334961,7.54394531 L294.082031,8.11523438 L294.082031,22.7490234 L296.425781,22.9980469 L296.425781,24.5947266 L288.354492,24.5947266 L288.354492,22.9980469 L290.727539,22.7490234 Z M290.126953,2.78320312 C290.126953,2.11914062 290.319824,1.55761719 290.705566,1.09863281 C291.091309,0.639648438 291.630859,0.41015625 292.324219,0.41015625 L292.338867,0.41015625 C292.749023,0.41015625 293.105469,0.505371094 293.408203,0.695800781 C293.710938,0.886230469 293.942871,1.13769531 294.104004,1.45019531 C294.265137,1.76269531 294.345703,2.09472656 294.345703,2.44628906 C294.345703,3.12988281 294.150391,3.69140625 293.759766,4.13085938 C293.369141,4.5703125 292.802734,4.79003906 292.060547,4.79003906 L292.045898,4.79003906 C291.479492,4.79003906 291.018066,4.59960938 290.661621,4.21875 C290.305176,3.83789062 290.126953,3.359375 290.126953,2.78320312 Z" id="Shape"></path>
            <path d="M306.342773,7.48535156 C308.041992,7.48535156 309.458008,7.86132812 310.59082,8.61328125 C311.723633,9.36523438 312.563477,10.3979492 313.110352,11.7114258 C313.657227,13.0249023 313.930664,14.5263672 313.930664,16.2158203 C313.930664,18.0224609 313.557129,19.5849609 312.810059,20.9033203 C312.062988,22.2216797 311.081543,23.2226562 309.865723,23.90625 C308.649902,24.5898438 307.353516,24.9316406 305.976562,24.9316406 C304.277344,24.9316406 302.86377,24.5556641 301.73584,23.8037109 C300.60791,23.0517578 299.770508,22.019043 299.223633,20.7055664 C298.676758,19.3920898 298.40332,17.890625 298.40332,16.2011719 C298.40332,14.4140625 298.776855,12.8613281 299.523926,11.5429688 C300.270996,10.2246094 301.252441,9.21875 302.468262,8.52539062 C303.684082,7.83203125 304.975586,7.48535156 306.342773,7.48535156 Z M310.224609,16.4794922 C310.224609,14.2822266 309.899902,12.5366211 309.250488,11.2426758 C308.601074,9.94873047 307.573242,9.30175781 306.166992,9.30175781 C304.819336,9.30175781 303.803711,9.85595703 303.120117,10.9643555 C302.436523,12.0727539 302.094727,13.7304688 302.094727,15.9375 C302.094727,18.1347656 302.424316,19.8803711 303.083496,21.1743164 C303.742676,22.4682617 304.770508,23.1152344 306.166992,23.1152344 C308.87207,23.1152344 310.224609,20.9033203 310.224609,16.4794922 Z" id="Shape"></path>
            <path d="M318.500977,22.7490234 L318.500977,10.4736328 L316.40625,9.88769531 L316.40625,8.12988281 L320.742188,7.54394531 L320.81543,7.54394531 L321.503906,8.11523438 L321.503906,9.30175781 L321.489258,9.97558594 C321.938477,9.57519531 322.502441,9.18945312 323.181152,8.81835938 C323.859863,8.44726562 324.587402,8.14453125 325.36377,7.91015625 C326.140137,7.67578125 326.875,7.55859375 327.568359,7.55859375 C328.837891,7.55859375 329.819336,7.79541016 330.512695,8.26904297 C331.206055,8.74267578 331.689453,9.47265625 331.962891,10.4589844 C332.236328,11.4453125 332.373047,12.7832031 332.373047,14.4726562 L332.373047,22.7490234 L334.482422,22.9980469 L334.482422,24.5947266 L327.128906,24.5947266 L327.128906,22.9980469 L329.003906,22.7490234 L329.003906,14.4580078 C329.003906,13.3251953 328.928223,12.434082 328.776855,11.784668 C328.625488,11.1352539 328.339844,10.6469727 327.919922,10.3198242 C327.5,9.99267578 326.879883,9.82910156 326.05957,9.82910156 C325.356445,9.82910156 324.624023,9.98046875 323.862305,10.2832031 C323.100586,10.5859375 322.431641,10.9521484 321.855469,11.3818359 L321.855469,22.7490234 L323.876953,22.9980469 L323.876953,24.5947266 L316.582031,24.5947266 L316.582031,22.9980469 L318.500977,22.7490234 Z" id="Path"></path>
            <path d="M339.038086,19.8339844 L339.624023,22.0605469 C339.741211,22.265625 339.968262,22.4609375 340.305176,22.6464844 C340.64209,22.8320312 341.040039,22.9833984 341.499023,23.1005859 C341.958008,23.2177734 342.426758,23.2763672 342.905273,23.2763672 C344.008789,23.2763672 344.794922,23.0688477 345.263672,22.6538086 C345.732422,22.2387695 345.966797,21.6699219 345.966797,20.9472656 C345.966797,20.4394531 345.808105,19.9926758 345.490723,19.6069336 C345.17334,19.2211914 344.702148,18.8574219 344.077148,18.515625 C343.452148,18.1738281 342.602539,17.7880859 341.52832,17.3583984 C339.975586,16.7529297 338.842773,16.0375977 338.129883,15.2124023 C337.416992,14.387207 337.060547,13.3203125 337.060547,12.0117188 C337.060547,11.1328125 337.32666,10.3588867 337.858887,9.68994141 C338.391113,9.02099609 339.121094,8.50097656 340.048828,8.12988281 C340.976562,7.75878906 342.021484,7.57324219 343.183594,7.57324219 C344.082031,7.57324219 344.873047,7.64404297 345.556641,7.78564453 C346.240234,7.92724609 346.928711,8.11035156 347.62207,8.33496094 L348.149414,8.49609375 L348.149414,12.2021484 L346.274414,12.2021484 L345.644531,10.1513672 C345.527344,9.89746094 345.212402,9.67773438 344.699707,9.4921875 C344.187012,9.30664062 343.613281,9.21386719 342.978516,9.21386719 C342.080078,9.21386719 341.386719,9.40429688 340.898438,9.78515625 C340.410156,10.1660156 340.166016,10.6640625 340.166016,11.2792969 C340.166016,11.8261719 340.310059,12.2851562 340.598145,12.65625 C340.88623,13.0273438 341.245117,13.3300781 341.674805,13.5644531 C342.104492,13.7988281 342.705078,14.0771484 343.476562,14.3994141 L344.047852,14.6484375 C345.161133,15.1269531 346.064453,15.5761719 346.757812,15.9960938 C347.451172,16.4160156 348.027344,16.953125 348.486328,17.6074219 C348.945312,18.2617188 349.174805,19.0625 349.174805,20.0097656 C349.174805,20.9863281 348.918457,21.8457031 348.405762,22.5878906 C347.893066,23.3300781 347.150879,23.90625 346.179199,24.3164062 C345.20752,24.7265625 344.057617,24.9316406 342.729492,24.9316406 C341.733398,24.9316406 340.688477,24.7949219 339.594727,24.5214844 C338.500977,24.2480469 337.626953,23.9648438 336.972656,23.671875 L336.972656,19.8339844 L339.038086,19.8339844 Z" id="Path"></path>
            <path d="M361.494141,18.1494141 L363.530273,18.1494141 L364.116211,21.8994141 C364.448242,22.2509766 364.985352,22.5512695 365.727539,22.800293 C366.469727,23.0493164 367.275391,23.1738281 368.144531,23.1738281 C369.599609,23.1738281 370.695801,22.8491211 371.433105,22.199707 C372.17041,21.550293 372.539062,20.6494141 372.539062,19.4970703 C372.539062,18.7451172 372.336426,18.0981445 371.931152,17.5561523 C371.525879,17.0141602 370.976562,16.5380859 370.283203,16.1279297 C369.589844,15.7177734 368.637695,15.2392578 367.426758,14.6923828 C366.37207,14.2138672 365.424805,13.6962891 364.584961,13.1396484 C363.745117,12.5830078 363.022461,11.8603516 362.416992,10.9716797 C361.811523,10.0830078 361.508789,9.03320312 361.508789,7.82226563 C361.508789,6.70898438 361.806641,5.71533203 362.402344,4.84130859 C362.998047,3.96728516 363.847656,3.28369141 364.951172,2.79052734 C366.054688,2.29736328 367.338867,2.05078125 368.803711,2.05078125 C369.702148,2.05078125 370.532227,2.12646484 371.293945,2.27783203 C372.055664,2.42919922 372.84668,2.62207031 373.666992,2.85644531 C374.09668,2.98339844 374.443359,3.07128906 374.707031,3.12011719 L374.516602,8.14453125 L372.553711,8.14453125 L371.879883,4.58496094 C371.694336,4.37988281 371.303711,4.19189453 370.708008,4.02099609 C370.112305,3.85009766 369.467773,3.76464844 368.774414,3.76464844 C366.137695,3.76464844 364.819336,4.82910156 364.819336,6.95800781 C364.819336,7.70019531 365.019531,8.33496094 365.419922,8.86230469 C365.820312,9.38964844 366.352539,9.85595703 367.016602,10.2612305 C367.680664,10.6665039 368.662109,11.1865234 369.960938,11.8212891 C371.25,12.4560547 372.304688,13.0371094 373.125,13.5644531 C373.945312,14.0917969 374.648438,14.7631836 375.234375,15.5786133 C375.820312,16.394043 376.113281,17.3583984 376.113281,18.4716797 C376.113281,19.5458984 375.812988,20.5786133 375.212402,21.5698242 C374.611816,22.5610352 373.708496,23.3691406 372.502441,23.9941406 C371.296387,24.6191406 369.833984,24.9316406 368.115234,24.9316406 C367.060547,24.9316406 366.098633,24.8364258 365.229492,24.6459961 C364.360352,24.4555664 363.457031,24.2089844 362.519531,23.90625 C361.875,23.7011719 361.450195,23.5888672 361.245117,23.5693359 L361.494141,18.1494141 Z" id="Path"></path>
            <path d="M386.425781,7.48535156 C388.125,7.48535156 389.541016,7.86132812 390.673828,8.61328125 C391.806641,9.36523438 392.646484,10.3979492 393.193359,11.7114258 C393.740234,13.0249023 394.013672,14.5263672 394.013672,16.2158203 C394.013672,18.0224609 393.640137,19.5849609 392.893066,20.9033203 C392.145996,22.2216797 391.164551,23.2226562 389.94873,23.90625 C388.73291,24.5898438 387.436523,24.9316406 386.05957,24.9316406 C384.360352,24.9316406 382.946777,24.5556641 381.818848,23.8037109 C380.690918,23.0517578 379.853516,22.019043 379.306641,20.7055664 C378.759766,19.3920898 378.486328,17.890625 378.486328,16.2011719 C378.486328,14.4140625 378.859863,12.8613281 379.606934,11.5429688 C380.354004,10.2246094 381.335449,9.21875 382.55127,8.52539062 C383.76709,7.83203125 385.058594,7.48535156 386.425781,7.48535156 Z M390.307617,16.4794922 C390.307617,14.2822266 389.98291,12.5366211 389.333496,11.2426758 C388.684082,9.94873047 387.65625,9.30175781 386.25,9.30175781 C384.902344,9.30175781 383.886719,9.85595703 383.203125,10.9643555 C382.519531,12.0727539 382.177734,13.7304688 382.177734,15.9375 C382.177734,18.1347656 382.507324,19.8803711 383.166504,21.1743164 C383.825684,22.4682617 384.853516,23.1152344 386.25,23.1152344 C388.955078,23.1152344 390.307617,20.9033203 390.307617,16.4794922 Z" id="Shape"></path>
            <polygon id="Path" points="398.613281 22.7490234 398.613281 2.31445312 396.210938 2.02148438 396.210938 0.629882812 401.206055 0 401.235352 0 401.953125 0.498046875 401.953125 22.7490234 404.443359 22.9980469 404.443359 24.5947266 396.240234 24.5947266 396.240234 22.9980469"></polygon>
            <path d="M418.549805,22.6025391 C417.924805,23.2080078 417.133789,23.7475586 416.176758,24.2211914 C415.219727,24.6948242 414.25293,24.9316406 413.276367,24.9316406 C412.055664,24.9316406 411.064453,24.7143555 410.302734,24.2797852 C409.541016,23.8452148 408.979492,23.1542969 408.618164,22.2070312 C408.256836,21.2597656 408.076172,20.0097656 408.076172,18.4570312 L408.076172,9.9609375 L406.450195,9.41894531 L406.450195,7.99804688 L410.786133,7.55859375 L410.800781,7.55859375 L411.416016,7.95410156 L411.416016,18.2958984 C411.416016,19.4091797 411.499023,20.2783203 411.665039,20.9033203 C411.831055,21.5283203 412.124023,21.9848633 412.543945,22.2729492 C412.963867,22.5610352 413.569336,22.7050781 414.360352,22.7050781 C415.12207,22.7050781 415.830078,22.5585938 416.484375,22.265625 C417.138672,21.9726562 417.705078,21.6357422 418.183594,21.2548828 L418.183594,9.97558594 L416.088867,9.40429688 L416.088867,7.98339844 L420.717773,7.55859375 L420.74707,7.55859375 L421.523438,7.95410156 L421.523438,22.9394531 L423.28125,22.9394531 L423.28125,24.4042969 C422.714844,24.5703125 422.224121,24.699707 421.809082,24.7924805 C421.394043,24.8852539 420.917969,24.9316406 420.380859,24.9316406 C419.755859,24.9316406 419.294434,24.8120117 418.996582,24.5727539 C418.69873,24.3334961 418.549805,23.9306641 418.549805,23.3642578 L418.549805,22.6025391 Z" id="Path"></path>
            <path d="M425.375977,10.0341797 L425.375977,8.64257812 C425.649414,8.57421875 425.964355,8.4765625 426.320801,8.34960938 C426.677246,8.22265625 426.90918,8.125 427.016602,8.05664062 C427.338867,7.82226562 427.602539,7.44140625 427.807617,6.9140625 C427.954102,6.58203125 428.146973,6.05224609 428.38623,5.32470703 C428.625488,4.59716797 428.789062,4.04785156 428.876953,3.67675781 L430.78125,3.67675781 L430.810547,7.93945312 L435.732422,7.93945312 L435.732422,10.0341797 L430.825195,10.0341797 L430.825195,18.8964844 C430.825195,20.0878906 430.859375,20.9155273 430.927734,21.3793945 C430.996094,21.8432617 431.135254,22.1411133 431.345215,22.2729492 C431.555176,22.4047852 431.938477,22.4707031 432.495117,22.4707031 L432.509766,22.4707031 C433.017578,22.4707031 433.591309,22.4072266 434.230957,22.2802734 C434.870605,22.1533203 435.366211,22.0214844 435.717773,21.8847656 L435.732422,21.8847656 L436.230469,23.3056641 C435.9375,23.5498047 435.498047,23.7963867 434.912109,24.0454102 C434.326172,24.2944336 433.696289,24.5019531 433.022461,24.6679688 C432.348633,24.8339844 431.728516,24.9169922 431.162109,24.9169922 L431.132812,24.9169922 C429.921875,24.9169922 429.008789,24.6508789 428.393555,24.1186523 C427.77832,23.5864258 427.470703,22.6953125 427.470703,21.4453125 L427.470703,10.0341797 L425.375977,10.0341797 Z" id="Path"></path>
            <path d="M440.126953,22.7490234 L440.126953,10.4736328 L438.00293,9.87304688 L438.00293,8.14453125 L442.661133,7.54394531 L442.734375,7.54394531 L443.481445,8.11523438 L443.481445,22.7490234 L445.825195,22.9980469 L445.825195,24.5947266 L437.753906,24.5947266 L437.753906,22.9980469 L440.126953,22.7490234 Z M439.526367,2.78320312 C439.526367,2.11914062 439.719238,1.55761719 440.10498,1.09863281 C440.490723,0.639648438 441.030273,0.41015625 441.723633,0.41015625 L441.738281,0.41015625 C442.148438,0.41015625 442.504883,0.505371094 442.807617,0.695800781 C443.110352,0.886230469 443.342285,1.13769531 443.503418,1.45019531 C443.664551,1.76269531 443.745117,2.09472656 443.745117,2.44628906 C443.745117,3.12988281 443.549805,3.69140625 443.15918,4.13085938 C442.768555,4.5703125 442.202148,4.79003906 441.459961,4.79003906 L441.445312,4.79003906 C440.878906,4.79003906 440.41748,4.59960938 440.061035,4.21875 C439.70459,3.83789062 439.526367,3.359375 439.526367,2.78320312 Z" id="Shape"></path>
            <path d="M455.742188,7.48535156 C457.441406,7.48535156 458.857422,7.86132812 459.990234,8.61328125 C461.123047,9.36523438 461.962891,10.3979492 462.509766,11.7114258 C463.056641,13.0249023 463.330078,14.5263672 463.330078,16.2158203 C463.330078,18.0224609 462.956543,19.5849609 462.209473,20.9033203 C461.462402,22.2216797 460.480957,23.2226562 459.265137,23.90625 C458.049316,24.5898438 456.75293,24.9316406 455.375977,24.9316406 C453.676758,24.9316406 452.263184,24.5556641 451.135254,23.8037109 C450.007324,23.0517578 449.169922,22.019043 448.623047,20.7055664 C448.076172,19.3920898 447.802734,17.890625 447.802734,16.2011719 C447.802734,14.4140625 448.17627,12.8613281 448.92334,11.5429688 C449.67041,10.2246094 450.651855,9.21875 451.867676,8.52539062 C453.083496,7.83203125 454.375,7.48535156 455.742188,7.48535156 Z M459.624023,16.4794922 C459.624023,14.2822266 459.299316,12.5366211 458.649902,11.2426758 C458.000488,9.94873047 456.972656,9.30175781 455.566406,9.30175781 C454.21875,9.30175781 453.203125,9.85595703 452.519531,10.9643555 C451.835938,12.0727539 451.494141,13.7304688 451.494141,15.9375 C451.494141,18.1347656 451.82373,19.8803711 452.48291,21.1743164 C453.14209,22.4682617 454.169922,23.1152344 455.566406,23.1152344 C458.271484,23.1152344 459.624023,20.9033203 459.624023,16.4794922 Z" id="Shape"></path>
            <path d="M467.900391,22.7490234 L467.900391,10.4736328 L465.805664,9.88769531 L465.805664,8.12988281 L470.141602,7.54394531 L470.214844,7.54394531 L470.90332,8.11523438 L470.90332,9.30175781 L470.888672,9.97558594 C471.337891,9.57519531 471.901855,9.18945312 472.580566,8.81835938 C473.259277,8.44726562 473.986816,8.14453125 474.763184,7.91015625 C475.539551,7.67578125 476.274414,7.55859375 476.967773,7.55859375 C478.237305,7.55859375 479.21875,7.79541016 479.912109,8.26904297 C480.605469,8.74267578 481.088867,9.47265625 481.362305,10.4589844 C481.635742,11.4453125 481.772461,12.7832031 481.772461,14.4726562 L481.772461,22.7490234 L483.881836,22.9980469 L483.881836,24.5947266 L476.52832,24.5947266 L476.52832,22.9980469 L478.40332,22.7490234 L478.40332,14.4580078 C478.40332,13.3251953 478.327637,12.434082 478.17627,11.784668 C478.024902,11.1352539 477.739258,10.6469727 477.319336,10.3198242 C476.899414,9.99267578 476.279297,9.82910156 475.458984,9.82910156 C474.755859,9.82910156 474.023438,9.98046875 473.261719,10.2832031 C472.5,10.5859375 471.831055,10.9521484 471.254883,11.3818359 L471.254883,22.7490234 L473.276367,22.9980469 L473.276367,24.5947266 L465.981445,24.5947266 L465.981445,22.9980469 L467.900391,22.7490234 Z" id="Path"></path>
            <path d="M488.4375,19.8339844 L489.023438,22.0605469 C489.140625,22.265625 489.367676,22.4609375 489.70459,22.6464844 C490.041504,22.8320312 490.439453,22.9833984 490.898438,23.1005859 C491.357422,23.2177734 491.826172,23.2763672 492.304688,23.2763672 C493.408203,23.2763672 494.194336,23.0688477 494.663086,22.6538086 C495.131836,22.2387695 495.366211,21.6699219 495.366211,20.9472656 C495.366211,20.4394531 495.20752,19.9926758 494.890137,19.6069336 C494.572754,19.2211914 494.101562,18.8574219 493.476562,18.515625 C492.851562,18.1738281 492.001953,17.7880859 490.927734,17.3583984 C489.375,16.7529297 488.242188,16.0375977 487.529297,15.2124023 C486.816406,14.387207 486.459961,13.3203125 486.459961,12.0117188 C486.459961,11.1328125 486.726074,10.3588867 487.258301,9.68994141 C487.790527,9.02099609 488.520508,8.50097656 489.448242,8.12988281 C490.375977,7.75878906 491.420898,7.57324219 492.583008,7.57324219 C493.481445,7.57324219 494.272461,7.64404297 494.956055,7.78564453 C495.639648,7.92724609 496.328125,8.11035156 497.021484,8.33496094 L497.548828,8.49609375 L497.548828,12.2021484 L495.673828,12.2021484 L495.043945,10.1513672 C494.926758,9.89746094 494.611816,9.67773438 494.099121,9.4921875 C493.586426,9.30664062 493.012695,9.21386719 492.37793,9.21386719 C491.479492,9.21386719 490.786133,9.40429688 490.297852,9.78515625 C489.80957,10.1660156 489.56543,10.6640625 489.56543,11.2792969 C489.56543,11.8261719 489.709473,12.2851562 489.997559,12.65625 C490.285645,13.0273438 490.644531,13.3300781 491.074219,13.5644531 C491.503906,13.7988281 492.104492,14.0771484 492.875977,14.3994141 L493.447266,14.6484375 C494.560547,15.1269531 495.463867,15.5761719 496.157227,15.9960938 C496.850586,16.4160156 497.426758,16.953125 497.885742,17.6074219 C498.344727,18.2617188 498.574219,19.0625 498.574219,20.0097656 C498.574219,20.9863281 498.317871,21.8457031 497.805176,22.5878906 C497.29248,23.3300781 496.550293,23.90625 495.578613,24.3164062 C494.606934,24.7265625 493.457031,24.9316406 492.128906,24.9316406 C491.132812,24.9316406 490.087891,24.7949219 488.994141,24.5214844 C487.900391,24.2480469 487.026367,23.9648438 486.37207,23.671875 L486.37207,19.8339844 L488.4375,19.8339844 Z" id="Path"></path>
        </g>
        <g id="mark/eas1">
            <path d="M64,32.0002 C64,49.6732 49.673,64.0002 32,64.0002 C14.327,64.0002 0,49.6732 0,32.0002 C0,14.3272 14.327,0.0002 32,0.0002 C49.673,0.0002 64,14.3272 64,32.0002" id="circle" fill="#0053A2" fill-rule="nonzero"></path>
            <path d="M49.1509,16.5798 C50.0429,16.5798 50.7769,17.3138 50.7769,18.2588 L50.7769,41.0038 L50.7769,41.0037 L50.7769,41.6617 C50.7769,42.5537 50.0429,43.2877 49.1509,43.2877 L37.2449,43.2877 L38.1359,48.6377 L40.8639,48.6377 C41.8079,48.6377 41.7559,50.3687 40.8639,50.3687 L23.1359,50.3687 C22.2449,50.3687 22.2449,48.6377 23.1359,48.6377 L25.8639,48.6377 L26.7559,43.2877 L14.9019,43.2877 C13.9579,43.2877 13.2229,42.5537 13.2229,41.6617 L13.2229,18.2588 C13.2229,17.3138 13.9579,16.5798 14.9019,16.5798 L49.1509,16.5798 Z M32,29.6 L24.7525764,36.8631354 C26.4918306,38.7823158 29.0852233,40 31.9821218,40 C34.8830369,40 37.4905752,38.7789368 39.2396559,36.8551486 L39.2396559,36.8551486 L32,29.6 Z M41.5,20 L22.5,20 L22.5,31.1110317 L22.5078857,31.4769133 C22.5340871,32.0836604 22.6251593,32.6747351 22.7747763,33.2442068 L22.7747763,33.2442068 L32,24 L41.223587,33.2422056 C41.4041493,32.5594459 41.5,31.8456487 41.5,31.1110317 L41.5,31.1110317 L41.5,20 Z" id="icon" fill="#F5EA14"></path>
        </g>
    </g>
</svg>