<?xml version="1.0" encoding="UTF-8"?>
<svg width="64px" height="64px" viewBox="0 0 64 64" version="1.1" xmlns="http://www.w3.org/2000/svg" xmlns:xlink="http://www.w3.org/1999/xlink">
    <title>logo/edm/black/icon/edm-logo-black-icon</title>
    <g id="logo/edm/black/icon/edm-logo-black-icon" stroke="none" stroke-width="1" fill="none" fill-rule="evenodd">
        <path d="M32,0 C49.673,0 64,14.327 64,32 C64,49.673 49.673,64 32,64 C14.327,64 0,49.673 0,32 C0,14.327 14.327,0 32,0 Z M15.5816,40.8264 L15.5816,46.0514 L15.6321538,46.1945601 C16.7263194,48.9992792 23.6914333,51.1604 32.0006,51.1604 C40.4506,51.1604 47.5096,48.9254 48.4186,46.0514 L48.4186,46.0514 L48.4176,40.8294 L48.1586693,41.0286742 C44.7167694,43.5841681 38.34395,44.7734 32.0006,44.7734 C25.4926,44.7734 18.9546,43.5224 15.5816,40.8264 L15.5816,40.8264 Z M15.5816,31.885 L15.5826,36.471 L15.5875025,36.6124946 C15.8027974,39.7164106 23.0817343,42.219 32.0006,42.219 C41.0456,42.219 48.4036,39.644 48.4176,36.479 L48.4176,36.479 L48.4176,31.887 C45.0436,34.581 38.5066,35.832 32.0006,35.832 C25.4926,35.832 18.9546,34.581 15.5816,31.885 L15.5816,31.885 Z M15.5816,22.9426 L15.5826,27.5286 L15.5875025,27.6701387 C15.8027974,30.7750106 23.0817343,33.2776 32.0006,33.2776 C41.0456,33.2776 48.4036,30.7026 48.4176,27.5366 L48.4176,27.5366 L48.4176,22.9456 C45.0436,25.6396 38.5066,26.8896 32.0006,26.8896 C25.4926,26.8896 18.9546,25.6396 15.5816,22.9426 L15.5816,22.9426 Z M32.0006,12.8391 C22.9336,12.8391 15.5826,15.4121 15.5826,18.5871 C15.5826,21.7621 22.9336,24.3351 32.0006,24.3351 C41.0676,24.3351 48.4186,21.7621 48.4186,18.5871 C48.4186,15.4121 41.0676,12.8391 32.0006,12.8391 Z" id="icon" fill="#000000"></path>
    </g>
</svg>