<?xml version="1.0" encoding="UTF-8"?>
<svg width="64px" height="64px" viewBox="0 0 64 64" version="1.1" xmlns="http://www.w3.org/2000/svg" xmlns:xlink="http://www.w3.org/1999/xlink">
    <title>logo/digital/white/icon/digital-logo-white-icon</title>
    <g id="logo/digital/white/icon/digital-logo-white-icon" stroke="none" stroke-width="1" fill="none" fill-rule="evenodd">
        <path d="M32,0 C49.673,0 64,14.327 64,32 C64,49.673 49.673,64 32,64 C14.327,64 0,49.673 0,32 C0,14.327 14.327,0 32,0 Z M49.1509,16.5796 L14.9019,16.5796 C13.9579,16.5796 13.2229,17.3136 13.2229,18.2586 L13.2229,18.2586 L13.2229,41.6615 C13.2229,42.5535 13.9579,43.2875 14.9019,43.2875 L14.9019,43.2875 L26.7559,43.2875 L25.8639,48.6375 L23.1359,48.6375 C22.2449,48.6375 22.2449,50.3685 23.1359,50.3685 L23.1359,50.3685 L40.8639,50.3685 C41.7559,50.3685 41.8079,48.6375 40.8639,48.6375 L40.8639,48.6375 L38.1359,48.6375 L37.2449,43.2875 L49.1509,43.2875 C50.0429,43.2875 50.7769,42.5535 50.7769,41.6615 L50.7769,41.6615 L50.7769,41.0035 L50.7759,41.0026 L50.7769,18.2586 C50.7769,17.3136 50.0429,16.5796 49.1509,16.5796 L49.1509,16.5796 Z M36.1294381,20.9177269 C39.5860966,22.5057362 42,26.0126797 42,30.0842369 C42,35.6406579 37.5139141,40.1607901 32,40.1607901 C26.4860859,40.1607901 22,35.6406579 22,30.0842369 C22,26.1170786 24.2917005,22.6854407 27.6072381,21.0436043 L27.6072381,21.0436043 L27.871095,20.9177269 L27.871095,24.0878362 L27.6567894,24.2440993 C25.8953084,25.5780032 24.7508263,27.6977598 24.7508263,30.0842369 C24.7508263,34.1122795 28.0027722,37.3887575 32,37.3887575 C35.9972278,37.3887575 39.2491737,34.1122795 39.2491737,30.0842369 C39.2491737,27.6977598 38.1051845,25.5780032 36.3437414,24.2445769 L36.3437414,24.2445769 L36.1294381,24.0883734 Z M33.481288,18.4998 L33.481288,29.4998 L30.481288,29.4998 L30.481288,18.4998 L33.481288,18.4998 Z" id="icon" fill="#FFFFFF" fill-rule="nonzero"></path>
    </g>
</svg>