<?xml version="1.0" encoding="UTF-8"?>
<svg width="64px" height="64px" viewBox="0 0 64 64" version="1.1" xmlns="http://www.w3.org/2000/svg" xmlns:xlink="http://www.w3.org/1999/xlink">
    <title>logo/eas/color-light/icon/eas-logo-color-light-icon</title>
    <g id="logo/eas/color-light/icon/eas-logo-color-light-icon" stroke="none" stroke-width="1" fill="none" fill-rule="evenodd">
        <g id="mark/eas1">
            <path d="M64,32.0002 C64,49.6732 49.673,64.0002 32,64.0002 C14.327,64.0002 0,49.6732 0,32.0002 C0,14.3272 14.327,0.0002 32,0.0002 C49.673,0.0002 64,14.3272 64,32.0002" id="circle" fill="#0053A2" fill-rule="nonzero"></path>
            <path d="M49.1509,16.5798 C50.0429,16.5798 50.7769,17.3138 50.7769,18.2588 L50.7769,41.0038 L50.7769,41.0037 L50.7769,41.6617 C50.7769,42.5537 50.0429,43.2877 49.1509,43.2877 L37.2449,43.2877 L38.1359,48.6377 L40.8639,48.6377 C41.8079,48.6377 41.7559,50.3687 40.8639,50.3687 L23.1359,50.3687 C22.2449,50.3687 22.2449,48.6377 23.1359,48.6377 L25.8639,48.6377 L26.7559,43.2877 L14.9019,43.2877 C13.9579,43.2877 13.2229,42.5537 13.2229,41.6617 L13.2229,18.2588 C13.2229,17.3138 13.9579,16.5798 14.9019,16.5798 L49.1509,16.5798 Z M32,29.6 L24.7525764,36.8631354 C26.4918306,38.7823158 29.0852233,40 31.9821218,40 C34.8830369,40 37.4905752,38.7789368 39.2396559,36.8551486 L39.2396559,36.8551486 L32,29.6 Z M41.5,20 L22.5,20 L22.5,31.1110317 L22.5078857,31.4769133 C22.5340871,32.0836604 22.6251593,32.6747351 22.7747763,33.2442068 L22.7747763,33.2442068 L32,24 L41.223587,33.2422056 C41.4041493,32.5594459 41.5,31.8456487 41.5,31.1110317 L41.5,31.1110317 L41.5,20 Z" id="icon" fill="#F5EA14"></path>
        </g>
    </g>
</svg>