<?xml version="1.0" encoding="UTF-8"?>
<svg width="292px" height="64px" viewBox="0 0 292 64" version="1.1" xmlns="http://www.w3.org/2000/svg" xmlns:xlink="http://www.w3.org/1999/xlink">
    <title>logo/eih/white/stacked/eih-logo-white-stacked</title>
    <g id="logo/eih/white/stacked/eih-logo-white-stacked" stroke="none" stroke-width="1" fill="none" fill-rule="evenodd">
        <g id="Enterprise-Integrati" transform="translate(73.260146, 4.328112)" fill="#FFFFFF" fill-rule="nonzero">
            <polygon id="Path" points="2.20525568 19.9260603 2.20525568 3.47852831 0.0393795657 3.15036526 0.0393795657 1.69332133 13.7172154 1.69332133 14.084758 5.85442877 12.3914367 5.85442877 11.5775923 3.36038961 5.28998833 3.18974483 5.28998833 10.6062297 9.55610795 10.5274706 9.94990361 8.34846794 11.6432249 8.34846794 11.6432249 14.5704393 9.94990361 14.5704393 9.56923448 12.2601715 5.28998833 12.1945389 5.28998833 20.044199 12.5095754 19.7554155 13.9928724 16.4606585 15.6730672 16.9594663 14.8986024 21.6718877 0 21.6718877 0 20.2410968"></polygon>
            <path d="M19.3747463,20.0179459 L19.3747463,9.01792056 L17.4976537,8.49285968 L17.4976537,6.91767705 L21.3831042,6.39261617 L21.4487368,6.39261617 L22.0656833,6.90455053 L22.0656833,7.9677988 L22.0525568,8.57161881 C22.4551035,8.21282721 22.9604746,7.86716213 23.5686701,7.53462358 C24.1768656,7.20208502 24.8288162,6.93080357 25.5245219,6.72077922 C26.2202275,6.51075487 26.8787414,6.40574269 27.5000634,6.40574269 C28.6376953,6.40574269 29.5171723,6.6179548 30.1384943,7.04237901 C30.7598164,7.46680322 31.1929916,8.12094156 31.43802,9.00479403 C31.6830484,9.88864651 31.8055626,11.0875355 31.8055626,12.601461 L31.8055626,20.0179459 L33.6957818,20.2410968 L33.6957818,21.6718877 L27.1062678,21.6718877 L27.1062678,20.2410968 L28.7864626,20.0179459 L28.7864626,12.5883345 C28.7864626,11.5732168 28.7186422,10.7746867 28.5830015,10.1927443 C28.4473607,9.6108018 28.1913936,9.17325107 27.8150999,8.88009208 C27.4388063,8.58693309 26.8831169,8.44035359 26.1480317,8.44035359 C25.5179586,8.44035359 24.8616325,8.57599432 24.1790534,8.84727577 C23.4964742,9.11855722 22.8970297,9.44672027 22.3807199,9.83176491 L22.3807199,20.0179459 L24.1921799,20.2410968 L24.1921799,21.6718877 L17.655172,21.6718877 L17.655172,20.2410968 L19.3747463,20.0179459 Z" id="Path"></path>
            <path d="M35.2447113,8.6241249 L35.2447113,7.37710532 C35.4897398,7.31584821 35.77196,7.22833807 36.091372,7.11457488 C36.410784,7.00081169 36.6186206,6.91330154 36.7148818,6.85204444 C37.0036653,6.64202009 37.2399427,6.30073052 37.423714,5.82817573 C37.5549792,5.53064123 37.7278117,5.05589869 37.9422116,4.4039481 C38.1566115,3.75199751 38.3031909,3.25975294 38.3819501,2.92721439 L40.0883979,2.92721439 L40.114651,6.74703226 L44.5251623,6.74703226 L44.5251623,8.6241249 L40.1277775,8.6241249 L40.1277775,16.5656707 C40.1277775,17.6332944 40.158406,18.3749429 40.2196631,18.7906161 C40.2809203,19.2062893 40.4056222,19.4731953 40.593769,19.591334 C40.7819158,19.7094727 41.1253932,19.768542 41.624201,19.768542 L41.6373275,19.768542 C42.0923803,19.768542 42.6065024,19.7116604 43.1796938,19.5978972 C43.7528853,19.484134 44.1969993,19.3659953 44.5120358,19.2434811 L44.5251623,19.2434811 L44.9714641,20.5167538 C44.7089336,20.7355291 44.315138,20.9564922 43.7900771,21.1796431 C43.2650162,21.402794 42.7005758,21.588753 42.0967558,21.7375203 C41.4929358,21.8862875 40.9372463,21.9606712 40.4296875,21.9606712 L40.4034345,21.9606712 C39.3183086,21.9606712 38.5000888,21.722206 37.9487749,21.2452757 C37.3974609,20.7683454 37.121804,19.9698153 37.121804,18.8496855 L37.121804,8.6241249 L35.2447113,8.6241249 Z" id="Path"></path>
            <path d="M46.428508,14.1766437 C46.428508,12.6364651 46.730418,11.2713068 47.334238,10.0811688 C47.938058,8.89103084 48.7737799,7.96998656 49.8414037,7.31803597 C50.9090275,6.66608538 52.121043,6.34011009 53.4774503,6.34011009 C55.1576451,6.34011009 56.4571708,6.79953835 57.3760273,7.71839489 C58.2948838,8.63725142 58.7849406,9.96303013 58.8461977,11.695731 L58.8461977,12.1682858 C58.8461977,13.0871423 58.7936917,13.7872235 58.6886795,14.2685293 L49.5919998,14.2685293 C49.6270039,15.5549285 49.8457792,16.6225523 50.2483259,17.4714007 C50.6508726,18.3202491 51.1803089,18.9459466 51.836635,19.3484933 C52.4929611,19.75104 53.2324219,19.9523133 54.0550172,19.9523133 C54.7726004,19.9523133 55.5098734,19.8276114 56.2668362,19.5782074 C57.023799,19.3288035 57.6166802,19.0422078 58.0454799,18.7184203 L58.5967938,19.9785664 C58.2642553,20.3198559 57.8070148,20.6436435 57.2250723,20.949929 C56.6431298,21.2562145 55.9955547,21.5034307 55.282347,21.6915775 C54.5691394,21.8797243 53.8624949,21.9737977 53.1624138,21.9737977 C51.6922433,21.9737977 50.451787,21.6478224 49.4410448,20.9958718 C48.4303026,20.3439212 47.6755276,19.4338157 47.1767198,18.2655552 C46.6779119,17.0972948 46.428508,15.7343243 46.428508,14.1766437 Z M55.6958325,12.7458528 C55.7308365,12.4308163 55.7483386,12.0545226 55.7483386,11.6169719 C55.7395876,10.505593 55.5076857,9.61298955 55.0526329,8.93916142 C54.5975802,8.2653333 53.879997,7.92841924 52.8998833,7.92841924 C51.9197697,7.92841924 51.1431171,8.2937741 50.5699257,9.02448382 C49.9967342,9.75519354 49.6707589,10.9956499 49.5919998,12.7458528 L55.6958325,12.7458528 Z" id="Shape"></path>
            <path d="M63.1910765,20.044199 L63.1910765,9.01792056 L61.3271104,8.49285968 L61.3271104,6.91767705 L65.0812957,6.39261617 L65.1469283,6.39261617 L65.7770013,6.90455053 L65.7770013,7.73152141 L65.7507483,9.43796926 L65.7770013,9.43796926 C65.9345196,9.14918578 66.2386173,8.76195338 66.6892946,8.27627207 C67.1399718,7.79059076 67.7219143,7.34647677 68.435122,6.94393009 C69.1483297,6.54138342 69.9249822,6.34011009 70.7650796,6.34011009 C71.1063692,6.34011009 71.3951527,6.38824067 71.6314301,6.48450183 L71.6314301,9.71362622 C71.4651608,9.61736506 71.2441977,9.53641817 70.9685407,9.47078556 C70.6928838,9.40515295 70.397537,9.37233665 70.0825005,9.37233665 C69.198648,9.37233665 68.435122,9.47953658 67.7919224,9.69393643 C67.1487229,9.90833629 66.6127232,10.17743 66.1839235,10.5012175 L66.1839235,20.0310724 L69.6361988,20.2673498 L69.6361988,21.6718877 L61.1302126,21.6718877 L61.1302126,20.2542233 L63.1910765,20.044199 Z" id="Path"></path>
            <path d="M80.5049589,21.9737977 C80.1111633,21.9737977 79.677988,21.9409814 79.2054332,21.8753488 C78.7328784,21.8097162 78.3347073,21.7331448 78.0109197,21.6456346 L78.0896789,23.8771434 L78.0896789,26.4761947 L80.7806159,26.7649782 L80.7806159,28.1826426 L73.1541066,28.1826426 L73.1541066,26.7649782 L75.1099584,26.4630682 L75.1099584,9.01792056 L73.2328658,8.49285968 L73.2328658,6.91767705 L77.1051897,6.39261617 L77.1708223,6.39261617 L77.7615158,6.90455053 L77.7615158,8.40097403 C78.2865767,7.82340706 78.9341518,7.335538 79.7042411,6.93736683 C80.4743304,6.53919567 81.3450563,6.34011009 82.3164189,6.34011009 C83.3840427,6.34011009 84.3597808,6.60045277 85.2436333,7.12113814 C86.1274858,7.64182351 86.836318,8.45129236 87.3701299,9.54954469 C87.9039418,10.647797 88.1708477,12.0238941 88.1708477,13.6778358 C88.1708477,15.2092634 87.8579989,16.6050502 87.2323014,17.8651963 C86.6066038,19.1253424 85.7140004,20.1251459 84.5544909,20.8646066 C83.3949815,21.6040673 82.0451375,21.9737977 80.5049589,21.9737977 Z M78.0896789,19.6504033 C78.2121931,19.8691787 78.5119153,20.061701 78.9888456,20.2279703 C79.4657759,20.3942395 80.0017756,20.4773742 80.5968446,20.4773742 C81.445693,20.4773742 82.1960925,20.2520356 82.8480431,19.8013583 C83.4999937,19.3506811 84.0141158,18.6374734 84.3904094,17.6617352 C84.766703,16.6859971 84.9548498,15.4455408 84.9548498,13.9403663 C84.9548498,12.6714692 84.7863928,11.6213474 84.4494787,10.790001 C84.1125647,9.95865463 83.6553242,9.34389585 83.0777572,8.94572469 C82.5001902,8.54755352 81.8394886,8.34846794 81.0956524,8.34846794 C80.4743304,8.34846794 79.8967634,8.47535765 79.3629515,8.72913707 C78.8291396,8.9829165 78.4047154,9.28045099 78.0896789,9.62174056 L78.0896789,19.6504033 Z" id="Shape"></path>
            <path d="M92.555106,20.044199 L92.555106,9.01792056 L90.6911399,8.49285968 L90.6911399,6.91767705 L94.4453252,6.39261617 L94.5109578,6.39261617 L95.1410308,6.90455053 L95.1410308,7.73152141 L95.1147778,9.43796926 L95.1410308,9.43796926 C95.2985491,9.14918578 95.6026469,8.76195338 96.0533241,8.27627207 C96.5040014,7.79059076 97.0859438,7.34647677 97.7991515,6.94393009 C98.5123592,6.54138342 99.2890118,6.34011009 100.129109,6.34011009 C100.470399,6.34011009 100.759182,6.38824067 100.99546,6.48450183 L100.99546,9.71362622 C100.82919,9.61736506 100.608227,9.53641817 100.33257,9.47078556 C100.056913,9.40515295 99.7615666,9.37233665 99.44653,9.37233665 C98.5626776,9.37233665 97.7991515,9.47953658 97.155952,9.69393643 C96.5127524,9.90833629 95.9767527,10.17743 95.547953,10.5012175 L95.547953,20.0310724 L99.0002283,20.2673498 L99.0002283,21.6718877 L90.4942421,21.6718877 L90.4942421,20.2542233 L92.555106,20.044199 Z" id="Path"></path>
            <path d="M104.802151,20.0179459 L104.802151,9.01792056 L102.898805,8.47973316 L102.898805,6.93080357 L107.073039,6.39261617 L107.138672,6.39261617 L107.808124,6.90455053 L107.808124,20.0179459 L109.908368,20.2410968 L109.908368,21.6718877 L102.675654,21.6718877 L102.675654,20.2410968 L104.802151,20.0179459 Z M104.263964,2.12649655 C104.263964,1.53142756 104.436796,1.02824422 104.782461,0.61694653 C105.128126,0.205648843 105.61162,0 106.232942,0 L106.246068,0 C106.613611,0 106.933023,0.0853223925 107.204304,0.255967177 C107.475586,0.426611962 107.683423,0.651950588 107.827814,0.931983056 C107.972206,1.21201552 108.044402,1.50955002 108.044402,1.82458655 C108.044402,2.43715757 107.869382,2.94034091 107.519341,3.33413657 C107.1693,3.72793222 106.661742,3.92483005 105.996664,3.92483005 L105.983538,3.92483005 C105.475979,3.92483005 105.062494,3.75418527 104.743082,3.4128957 C104.42367,3.07160613 104.263964,2.64280641 104.263964,2.12649655 Z" id="Shape"></path>
            <path d="M114.056349,17.4057681 L114.58141,19.4009994 C114.686422,19.5847707 114.889883,19.759791 115.191793,19.9260603 C115.493703,20.0923295 115.850307,20.2279703 116.261605,20.3329824 C116.672902,20.4379946 117.092951,20.4905007 117.521751,20.4905007 C118.510615,20.4905007 119.215072,20.3045416 119.635121,19.9326235 C120.055169,19.5607054 120.265194,19.0509588 120.265194,18.4033837 C120.265194,17.948331 120.12299,17.547972 119.838582,17.202307 C119.554174,16.8566419 119.131937,16.5306666 118.571872,16.2243811 C118.011808,15.9180956 117.250469,15.5724305 116.287858,15.1873859 C114.896446,14.644823 113.881329,14.0038111 113.242505,13.2643504 C112.60368,12.5248897 112.284268,11.5688413 112.284268,10.3962054 C112.284268,9.60861404 112.522734,8.91509613 112.999664,8.31565163 C113.476594,7.71620713 114.130733,7.2502156 114.962079,6.91767705 C115.793425,6.58513849 116.729784,6.41886922 117.771155,6.41886922 C118.576248,6.41886922 119.28508,6.48231407 119.897651,6.60920378 C120.510222,6.7360935 121.127169,6.90017502 121.748491,7.10144836 L122.221046,7.2458401 L122.221046,10.5668501 L120.540851,10.5668501 L119.97641,8.72913707 C119.871398,8.50161069 119.589178,8.30471287 119.12975,8.13844359 C118.670321,7.97217431 118.156199,7.88903967 117.587383,7.88903967 C116.78229,7.88903967 116.160968,8.05968446 115.723417,8.40097403 C115.285866,8.7422636 115.067091,9.18856534 115.067091,9.73987926 C115.067091,10.2299361 115.196169,10.6412338 115.454324,10.9737723 C115.712478,11.3063109 116.034078,11.5775923 116.419123,11.7876167 C116.804168,11.997641 117.342355,12.2470449 118.033685,12.5358284 L118.545619,12.7589793 C119.543235,13.187779 120.352704,13.5903257 120.974026,13.9666193 C121.595348,14.3429129 122.111658,14.8242188 122.522956,15.4105367 C122.934253,15.9968547 123.139902,16.7144379 123.139902,17.5632863 C123.139902,18.4383878 122.910188,19.2084771 122.45076,19.8735542 C121.991331,20.5386313 121.326254,21.0549412 120.455528,21.4224838 C119.584802,21.7900264 118.55437,21.9737977 117.364232,21.9737977 C116.471629,21.9737977 115.53527,21.8512835 114.555157,21.6062551 C113.575043,21.3612267 112.791827,21.1074472 112.205509,20.8449168 L112.205509,17.4057681 L114.056349,17.4057681 Z" id="Path"></path>
            <path d="M125.45017,14.1766437 C125.45017,12.6364651 125.75208,11.2713068 126.3559,10.0811688 C126.95972,8.89103084 127.795442,7.96998656 128.863066,7.31803597 C129.930689,6.66608538 131.142705,6.34011009 132.499112,6.34011009 C134.179307,6.34011009 135.478833,6.79953835 136.397689,7.71839489 C137.316546,8.63725142 137.806603,9.96303013 137.86786,11.695731 L137.86786,12.1682858 C137.86786,13.0871423 137.815354,13.7872235 137.710341,14.2685293 L128.613662,14.2685293 C128.648666,15.5549285 128.867441,16.6225523 129.269988,17.4714007 C129.672534,18.3202491 130.201971,18.9459466 130.858297,19.3484933 C131.514623,19.75104 132.254084,19.9523133 133.076679,19.9523133 C133.794262,19.9523133 134.531535,19.8276114 135.288498,19.5782074 C136.045461,19.3288035 136.638342,19.0422078 137.067142,18.7184203 L137.618456,19.9785664 C137.285917,20.3198559 136.828677,20.6436435 136.246734,20.949929 C135.664792,21.2562145 135.017217,21.5034307 134.304009,21.6915775 C133.590801,21.8797243 132.884157,21.9737977 132.184076,21.9737977 C130.713905,21.9737977 129.473449,21.6478224 128.462707,20.9958718 C127.451965,20.3439212 126.69719,19.4338157 126.198382,18.2655552 C125.699574,17.0972948 125.45017,15.7343243 125.45017,14.1766437 Z M134.717494,12.7458528 C134.752498,12.4308163 134.770001,12.0545226 134.770001,11.6169719 C134.761249,10.505593 134.529348,9.61298955 134.074295,8.93916142 C133.619242,8.2653333 132.901659,7.92841924 131.921545,7.92841924 C130.941432,7.92841924 130.164779,8.2937741 129.591588,9.02448382 C129.018396,9.75519354 128.692421,10.9956499 128.613662,12.7458528 L134.717494,12.7458528 Z" id="Shape"></path>
            <polygon id="Path" points="2.61217786 50.9260603 2.61217786 34.4916548 0.210024351 34.1503653 0.210024351 32.6933213 8.11219054 32.6933213 8.11219054 34.1503653 5.71003703 34.4785283 5.71003703 50.9260603 8.15157011 51.2804764 8.15157011 52.6718877 0.210024351 52.6718877 0.210024351 51.2410968"></polygon>
            <path d="M12.6539671,51.0179459 L12.6539671,40.0179206 L10.7768745,39.4928597 L10.7768745,37.917677 L14.662325,37.3926162 L14.7279576,37.3926162 L15.3449041,37.9045505 L15.3449041,38.9677988 L15.3317776,39.5716188 C15.7343243,39.2128272 16.2396954,38.8671621 16.8478909,38.5346236 C17.4560864,38.202085 18.108037,37.9308036 18.8037426,37.7207792 C19.4994483,37.5107549 20.1579622,37.4057427 20.7792842,37.4057427 C21.9169161,37.4057427 22.7963931,37.6179548 23.4177151,38.042379 C24.0390371,38.4668032 24.4722124,39.1209416 24.7172408,40.004794 C24.9622692,40.8886465 25.0847834,42.0875355 25.0847834,43.601461 L25.0847834,51.0179459 L26.9750025,51.2410968 L26.9750025,52.6718877 L20.3854885,52.6718877 L20.3854885,51.2410968 L22.0656833,51.0179459 L22.0656833,43.5883345 C22.0656833,42.5732168 21.997863,41.7746867 21.8622223,41.1927443 C21.7265815,40.6108018 21.4706143,40.1732511 21.0943207,39.8800921 C20.7180271,39.5869331 20.1623377,39.4403536 19.4272524,39.4403536 C18.7971794,39.4403536 18.1408533,39.5759943 17.4582741,39.8472758 C16.775695,40.1185572 16.1762505,40.4467203 15.6599406,40.8317649 L15.6599406,51.0179459 L17.4714007,51.2410968 L17.4714007,52.6718877 L10.9343928,52.6718877 L10.9343928,51.2410968 L12.6539671,51.0179459 Z" id="Path"></path>
            <path d="M28.5239321,39.6241249 L28.5239321,38.3771053 C28.7689605,38.3158482 29.0511808,38.2283381 29.3705928,38.1145749 C29.6900048,38.0008117 29.8978414,37.9133015 29.9941026,37.8520444 C30.2828861,37.6420201 30.5191635,37.3007305 30.7029348,36.8281757 C30.8342,36.5306412 31.0070325,36.0558987 31.2214324,35.4039481 C31.4358322,34.7519975 31.5824117,34.2597529 31.6611709,33.9272144 L33.3676187,33.9272144 L33.3938718,37.7470323 L37.8043831,37.7470323 L37.8043831,39.6241249 L33.4069983,39.6241249 L33.4069983,47.5656707 C33.4069983,48.6332944 33.4376268,49.3749429 33.4988839,49.7906161 C33.560141,50.2062893 33.684843,50.4731953 33.8729898,50.591334 C34.0611366,50.7094727 34.4046139,50.768542 34.9034218,50.768542 L34.9165483,50.768542 C35.3716011,50.768542 35.8857232,50.7116604 36.4589146,50.5978972 C37.0321061,50.484134 37.4762201,50.3659953 37.7912566,50.2434811 L37.8043831,50.2434811 L38.2506849,51.5167538 C37.9881544,51.7355291 37.5943588,51.9564922 37.0692979,52.1796431 C36.544237,52.402794 35.9797966,52.588753 35.3759766,52.7375203 C34.7721566,52.8862875 34.2164671,52.9606712 33.7089083,52.9606712 L33.6826552,52.9606712 C32.5975294,52.9606712 31.7793096,52.722206 31.2279956,52.2452757 C30.6766817,51.7683454 30.4010248,50.9698153 30.4010248,49.8496855 L30.4010248,39.6241249 L28.5239321,39.6241249 Z" id="Path"></path>
            <path d="M39.7077288,45.1766437 C39.7077288,43.6364651 40.0096388,42.2713068 40.6134588,41.0811688 C41.2172788,39.8910308 42.0530007,38.9699866 43.1206245,38.318036 C44.1882483,37.6660854 45.4002638,37.3401101 46.7566711,37.3401101 C48.4368659,37.3401101 49.7363915,37.7995384 50.6552481,38.7183949 C51.5741046,39.6372514 52.0641614,40.9630301 52.1254185,42.695731 L52.1254185,43.1682858 C52.1254185,44.0871423 52.0729124,44.7872235 51.9679003,45.2685293 L42.8712206,45.2685293 C42.9062246,46.5549285 43.125,47.6225523 43.5275467,48.4714007 C43.9300933,49.3202491 44.4595297,49.9459466 45.1158558,50.3484933 C45.7721819,50.75104 46.5116427,50.9523133 47.334238,50.9523133 C48.0518212,50.9523133 48.7890942,50.8276114 49.546057,50.5782074 C50.3030197,50.3288035 50.895901,50.0422078 51.3247007,49.7184203 L51.8760146,50.9785664 C51.5434761,51.3198559 51.0862355,51.6436435 50.5042931,51.949929 C49.9223506,52.2562145 49.2747755,52.5034307 48.5615678,52.6915775 C47.8483601,52.8797243 47.1417157,52.9737977 46.4416345,52.9737977 C44.9714641,52.9737977 43.7310078,52.6478224 42.7202656,51.9958718 C41.7095234,51.3439212 40.9547484,50.4338157 40.4559405,49.2655552 C39.9571327,48.0972948 39.7077288,46.7343243 39.7077288,45.1766437 Z M48.9750533,43.7458528 C49.0100573,43.4308163 49.0275594,43.0545226 49.0275594,42.6169719 C49.0188083,41.505593 48.7869065,40.6129895 48.3318537,39.9391614 C47.8768009,39.2653333 47.1592177,38.9284192 46.1791041,38.9284192 C45.1989905,38.9284192 44.4223379,39.2937741 43.8491465,40.0244838 C43.275955,40.7551935 42.9499797,41.9956499 42.8712206,43.7458528 L48.9750533,43.7458528 Z" id="Shape"></path>
            <path d="M60.815176,47.3556463 C60.0975928,47.3556463 59.4281402,47.2812627 58.8068182,47.1324954 C58.5617898,47.3512708 58.3692675,47.6028625 58.2292512,47.8872704 C58.089235,48.1716784 58.0192269,48.4626497 58.0192269,48.7601842 C58.0192269,49.1977349 58.1220513,49.5324612 58.3277001,49.7643631 C58.533349,49.996265 58.84401,50.155971 59.2596832,50.2434811 C59.6753564,50.3309913 60.2463601,50.3747463 60.9726943,50.3747463 L63.8342761,50.3747463 C67.2559228,50.3747463 68.9667461,51.6873985 68.9667461,54.3127029 C68.9667461,55.3278206 68.6057668,56.2641792 67.8838081,57.1217786 C67.1618494,57.979378 66.19705,58.6597694 64.98941,59.1629528 C63.78177,59.6661361 62.4866198,59.9177278 61.1039595,59.9177278 L61.090833,59.9177278 C58.7455611,59.9177278 57.0434887,59.5611239 55.984616,58.8479162 C54.9257432,58.1347086 54.3963068,57.1261541 54.3963068,55.8222529 C54.3963068,55.0084086 54.634772,54.2711356 55.1117023,53.610434 C55.5886326,52.9497324 56.1640118,52.4487368 56.8378399,52.1074472 C55.9889915,51.6261414 55.5645673,50.8910562 55.5645673,49.9021916 C55.5645673,49.2458655 55.7527141,48.6398577 56.1290077,48.0841683 C56.5053013,47.5284788 56.9997337,47.0799893 57.6123047,46.7386998 C56.7372032,46.3361531 56.0655629,45.7651494 55.5973836,45.0256887 C55.1292043,44.2862279 54.8951147,43.4220652 54.8951147,42.4332006 C54.8951147,41.4005809 55.1882736,40.4992264 55.7745916,39.7291371 C56.3609096,38.9590478 57.1309989,38.3705421 58.0848595,37.9636199 C59.0387201,37.5566977 60.0582133,37.3488611 61.1433391,37.3401101 L61.1564656,37.3401101 C62.1015752,37.3401101 62.9504236,37.44731 63.7030109,37.6617099 C64.4555981,37.8761097 65.0900467,38.193334 65.6063565,38.6133827 C65.868887,38.3070972 66.2626826,38.0139382 66.7877435,37.7339057 C67.3128044,37.4538733 67.9297509,37.313857 68.6385831,37.313857 L69.3474153,37.313857 L69.3474153,39.8604023 L66.5908457,39.8604023 C66.8971312,40.4992264 67.0502739,41.203683 67.0502739,41.9737723 C67.0502739,43.0238941 66.7789925,43.9580649 66.2364296,44.7762848 C65.6938667,45.5945046 64.9500304,46.2289532 64.0049209,46.6796304 C63.0598113,47.1303077 62.0009385,47.3556463 60.8283026,47.3556463 L60.815176,47.3556463 Z M60.9726943,38.8759131 C60.0275847,38.8759131 59.2946872,39.1318803 58.7740019,39.6438147 C58.2533165,40.155749 57.9929738,40.9936587 57.9929738,42.1575436 C57.9929738,43.2601715 58.24019,44.1418362 58.7346223,44.8025378 C59.2290546,45.4632394 60.0188337,45.7935902 61.1039595,45.7935902 L61.117086,45.7935902 C62.1147017,45.7935902 62.8388482,45.4960557 63.2895254,44.9009867 C63.7402027,44.3059177 63.9655413,43.4351918 63.9655413,42.2888088 C63.9655413,41.1161729 63.7227006,40.254198 63.2370193,39.702884 C62.751338,39.1515701 62.0009385,38.8759131 60.9858208,38.8759131 L60.9726943,38.8759131 Z M58.1767451,52.5668755 C57.6166802,53.2582057 57.3366477,54.0851765 57.3366477,55.0477881 C57.3366477,56.0979099 57.6473087,56.8942522 58.2686308,57.4368151 C58.8899528,57.979378 59.909446,58.2506595 61.3271104,58.2506595 L61.3533634,58.2506595 C62.1409547,58.2506595 62.893542,58.1281453 63.6111252,57.8831169 C64.3287084,57.6380885 64.9106509,57.2749214 65.3569526,56.7936156 C65.8032544,56.3123098 66.0264052,55.7391183 66.0264052,55.0740412 C66.0264052,54.5052252 65.9410828,54.0567357 65.7704381,53.7285727 C65.5997933,53.4004096 65.2869445,53.1531935 64.8318917,52.9869242 C64.376839,52.8206549 63.7161374,52.7375203 62.8497869,52.7375203 L60.211356,52.7375203 C59.4937728,52.7375203 58.8155692,52.6806387 58.1767451,52.5668755 Z" id="Shape"></path>
            <path d="M72.9178292,51.044199 L72.9178292,40.0179206 L71.0538631,39.4928597 L71.0538631,37.917677 L74.8080484,37.3926162 L74.873681,37.3926162 L75.5037541,37.9045505 L75.5037541,38.7315214 L75.477501,40.4379693 L75.5037541,40.4379693 C75.6612723,40.1491858 75.9653701,39.7619534 76.4160473,39.2762721 C76.8667246,38.7905908 77.4486671,38.3464768 78.1618747,37.9439301 C78.8750824,37.5413834 79.651735,37.3401101 80.4918324,37.3401101 C80.833122,37.3401101 81.1219054,37.3882407 81.3581828,37.4845018 L81.3581828,40.7136262 C81.1919136,40.6173651 80.9709504,40.5364182 80.6952935,40.4707856 C80.4196365,40.405153 80.1242898,40.3723366 79.8092532,40.3723366 C78.9254008,40.3723366 78.1618747,40.4795366 77.5186752,40.6939364 C76.8754756,40.9083363 76.339476,41.17743 75.9106762,41.5012175 L75.9106762,51.0310724 L79.3629515,51.2673498 L79.3629515,52.6718877 L70.8569653,52.6718877 L70.8569653,51.2542233 L72.9178292,51.044199 Z" id="Path"></path>
            <path d="M91.925033,42.9188819 C91.925033,42.0962865 91.8397106,41.4487114 91.6690658,40.9761567 C91.498421,40.5036019 91.2030743,40.1579368 90.7830256,39.9391614 C90.3629769,39.7203861 89.7679079,39.6109984 88.9978186,39.6109984 C87.5188971,39.6109984 85.9612165,40.0266716 84.3247768,40.858018 L84.3116503,40.858018 L83.6553242,39.4928597 C83.8916016,39.2828353 84.3444666,39.0115539 85.0139192,38.6790153 C85.6833718,38.3464768 86.4447101,38.0555055 87.297934,37.8061016 C88.1511579,37.5566977 88.9628145,37.4319957 89.7329038,37.4319957 C91.0105519,37.4319957 92.0147309,37.6048283 92.7454406,37.9504934 C93.4761503,38.2961584 94.0033989,38.8496601 94.3271865,39.6109984 C94.650974,40.3723366 94.8128678,41.4005809 94.8128678,42.695731 L94.8128678,51.2279703 L96.4143035,51.2279703 L96.4143035,52.5143694 C95.1366553,52.8206549 94.1740437,52.9737977 93.5264686,52.9737977 C93.158926,52.9737977 92.8788936,52.9431691 92.6863712,52.881912 C92.4938489,52.8206549 92.3516449,52.695953 92.2597593,52.5078062 C92.1678736,52.3196593 92.1219308,52.0286881 92.1219308,51.6348925 L92.1219308,51.0048194 C91.649376,51.4686232 91.028054,51.9127372 90.2579647,52.3371614 C89.4878754,52.7615856 88.6259005,52.9737977 87.6720399,52.9737977 C86.8319425,52.9737977 86.0684164,52.8206549 85.3814618,52.5143694 C84.6945072,52.2080839 84.1475687,51.7355291 83.7406466,51.0967051 C83.3337244,50.457881 83.1302633,49.6615387 83.1302633,48.7076781 C83.1302633,47.5437931 83.5349977,46.585557 84.3444666,45.8329698 C85.1539354,45.0803825 86.2171837,44.5268808 87.5342114,44.1724647 C88.8512391,43.8180487 90.3148463,43.6277141 91.925033,43.601461 L91.925033,42.9188819 Z M91.925033,45.084758 C90.6386338,45.084758 89.5819488,45.2313375 88.7549779,45.5244965 C87.9280071,45.8176555 87.3285626,46.2048879 86.9566444,46.6861937 C86.5847263,47.1674995 86.3987672,47.7144379 86.3987672,48.3270089 C86.3987672,49.2458655 86.6262936,49.9196936 87.0813464,50.3484933 C87.5363991,50.777293 88.1489702,50.9916929 88.9190595,50.9916929 C89.3303571,50.9916929 89.8269772,50.8757419 90.4089197,50.64384 C90.9908622,50.4119382 91.4962333,50.1297179 91.925033,49.7971794 L91.925033,45.084758 Z" id="Shape"></path>
            <path d="M97.9632331,39.6241249 L97.9632331,38.3771053 C98.2082615,38.3158482 98.4904817,38.2283381 98.8098937,38.1145749 C99.1293058,38.0008117 99.3371423,37.9133015 99.4334035,37.8520444 C99.722187,37.6420201 99.9584644,37.3007305 100.142236,36.8281757 C100.273501,36.5306412 100.446333,36.0558987 100.660733,35.4039481 C100.875133,34.7519975 101.021713,34.2597529 101.100472,33.9272144 L102.80692,33.9272144 L102.833173,37.7470323 L107.243684,37.7470323 L107.243684,39.6241249 L102.846299,39.6241249 L102.846299,47.5656707 C102.846299,48.6332944 102.876928,49.3749429 102.938185,49.7906161 C102.999442,50.2062893 103.124144,50.4731953 103.312291,50.591334 C103.500438,50.7094727 103.843915,50.768542 104.342723,50.768542 L104.355849,50.768542 C104.810902,50.768542 105.325024,50.7116604 105.898216,50.5978972 C106.471407,50.484134 106.915521,50.3659953 107.230558,50.2434811 L107.243684,50.2434811 L107.689986,51.5167538 C107.427455,51.7355291 107.03366,51.9564922 106.508599,52.1796431 C105.983538,52.402794 105.419098,52.588753 104.815277,52.7375203 C104.211457,52.8862875 103.655768,52.9606712 103.148209,52.9606712 L103.121956,52.9606712 C102.03683,52.9606712 101.21861,52.722206 100.667297,52.2452757 C100.115983,51.7683454 99.8403257,50.9698153 99.8403257,49.8496855 L99.8403257,39.6241249 L97.9632331,39.6241249 Z" id="Path"></path>
            <path d="M111.181641,51.0179459 L111.181641,40.0179206 L109.278295,39.4797332 L109.278295,37.9308036 L113.452529,37.3926162 L113.518162,37.3926162 L114.187614,37.9045505 L114.187614,51.0179459 L116.287858,51.2410968 L116.287858,52.6718877 L109.055144,52.6718877 L109.055144,51.2410968 L111.181641,51.0179459 Z M110.643453,33.1264966 C110.643453,32.5314276 110.816286,32.0282442 111.161951,31.6169465 C111.507616,31.2056488 111.991109,31 112.612432,31 L112.625558,31 C112.993101,31 113.312513,31.0853224 113.583794,31.2559672 C113.855076,31.426612 114.062912,31.6519506 114.207304,31.9319831 C114.351696,32.2120155 114.423892,32.50955 114.423892,32.8245865 C114.423892,33.4371576 114.248871,33.9403409 113.898831,34.3341366 C113.54879,34.7279322 113.041231,34.9248301 112.376154,34.9248301 L112.363028,34.9248301 C111.855469,34.9248301 111.441983,34.7541853 111.122571,34.4128957 C110.803159,34.0716061 110.643453,33.6428064 110.643453,33.1264966 Z" id="Shape"></path>
            <path d="M125.174513,37.3401101 C126.69719,37.3401101 127.966087,37.6770241 128.981204,38.3508523 C129.996322,39.0246804 130.748909,39.9501002 131.238966,41.1271117 C131.729023,42.3041231 131.974051,43.6495916 131.974051,45.1635171 C131.974051,46.7824548 131.639325,48.1826172 130.969872,49.3640042 C130.30042,50.5453911 129.420943,51.4423701 128.331442,52.0549412 C127.24194,52.6675122 126.080243,52.9737977 124.84635,52.9737977 C123.323673,52.9737977 122.056964,52.6368836 121.046222,51.9630555 C120.03548,51.2892274 119.28508,50.3638076 118.795023,49.1867961 C118.304967,48.0097846 118.059938,46.6643162 118.059938,45.1503906 C118.059938,43.548955 118.394664,42.1575436 119.064117,40.9761567 C119.73357,39.7947697 120.613047,38.8934152 121.702548,38.2720931 C122.792049,37.6507711 123.949371,37.3401101 125.174513,37.3401101 Z M128.653041,45.3997945 C128.653041,43.4308163 128.36207,41.8665724 127.780128,40.707063 C127.198185,39.5475535 126.277141,38.9677988 125.016995,38.9677988 C123.809355,38.9677988 122.899249,39.4644189 122.286678,40.457659 C121.674107,41.4508992 121.367822,42.9363839 121.367822,44.9141132 C121.367822,46.8830915 121.663168,48.4473354 122.253862,49.6068448 C122.844555,50.7663543 123.7656,51.346109 125.016995,51.346109 C127.441026,51.346109 128.653041,49.3640042 128.653041,45.3997945 Z" id="Shape"></path>
            <path d="M136.069526,51.0179459 L136.069526,40.0179206 L134.192434,39.4928597 L134.192434,37.917677 L138.077884,37.3926162 L138.143517,37.3926162 L138.760463,37.9045505 L138.760463,38.9677988 L138.747337,39.5716188 C139.149883,39.2128272 139.655254,38.8671621 140.26345,38.5346236 C140.871645,38.202085 141.523596,37.9308036 142.219302,37.7207792 C142.915007,37.5107549 143.573521,37.4057427 144.194843,37.4057427 C145.332475,37.4057427 146.211952,37.6179548 146.833274,38.042379 C147.454596,38.4668032 147.887771,39.1209416 148.1328,40.004794 C148.377828,40.8886465 148.500342,42.0875355 148.500342,43.601461 L148.500342,51.0179459 L150.390562,51.2410968 L150.390562,52.6718877 L143.801048,52.6718877 L143.801048,51.2410968 L145.481242,51.0179459 L145.481242,43.5883345 C145.481242,42.5732168 145.413422,41.7746867 145.277781,41.1927443 C145.142141,40.6108018 144.886173,40.1732511 144.50988,39.8800921 C144.133586,39.5869331 143.577897,39.4403536 142.842811,39.4403536 C142.212738,39.4403536 141.556412,39.5759943 140.873833,39.8472758 C140.191254,40.1185572 139.59181,40.4467203 139.0755,40.8317649 L139.0755,51.0179459 L140.88696,51.2410968 L140.88696,52.6718877 L134.349952,52.6718877 L134.349952,51.2410968 L136.069526,51.0179459 Z" id="Path"></path>
            <polygon id="Path" points="162.62448 50.9260603 162.62448 34.4916548 160.537363 34.1503653 160.537363 32.6933213 167.966974 32.6933213 167.966974 34.1503653 165.709213 34.4785283 165.709213 41.5668501 174.897778 41.5668501 174.897778 34.4785283 172.745028 34.1503653 172.745028 32.6933213 180.082754 32.6933213 180.082754 34.1503653 177.982511 34.4785283 177.982511 50.9391868 180.082754 51.2410968 180.082754 52.6718877 172.758155 52.6718877 172.758155 51.2410968 174.897778 50.9391868 174.897778 43.299551 165.709213 43.299551 165.709213 50.9260603 167.966974 51.2410968 167.966974 52.6718877 160.458604 52.6718877 160.458604 51.2410968"></polygon>
            <path d="M193.379921,50.8866807 C192.819856,51.4292436 192.111024,51.9127372 191.253424,52.3371614 C190.395825,52.7615856 189.529474,52.9737977 188.654373,52.9737977 C187.560496,52.9737977 186.672268,52.7790876 185.989689,52.3896675 C185.30711,52.0002473 184.803927,51.381113 184.480139,50.5322646 C184.156351,49.6834162 183.994458,48.5632863 183.994458,47.171875 L183.994458,39.5584923 L182.537414,39.072811 L182.537414,37.7995384 L186.422864,37.4057427 L186.435991,37.4057427 L186.987305,37.7601588 L186.987305,47.0274833 C186.987305,48.0250989 187.061688,48.8039392 187.210456,49.3640042 C187.359223,49.9240691 187.621753,50.333179 187.998047,50.591334 C188.374341,50.8494889 188.916903,50.9785664 189.625736,50.9785664 C190.308315,50.9785664 190.942763,50.8473011 191.529081,50.5847707 C192.115399,50.3222403 192.622958,50.0203303 193.051758,49.6790407 L193.051758,39.5716188 L191.174665,39.0596845 L191.174665,37.7864118 L195.322646,37.4057427 L195.348899,37.4057427 L196.044605,37.7601588 L196.044605,51.1885907 L197.619787,51.1885907 L197.619787,52.5012429 C197.112229,52.6500101 196.67249,52.7659611 196.300572,52.8490957 C195.928654,52.9322304 195.502042,52.9737977 195.020736,52.9737977 C194.460671,52.9737977 194.047186,52.8665978 193.78028,52.6521979 C193.513374,52.437798 193.379921,52.0768187 193.379921,51.5692598 L193.379921,50.8866807 Z" id="Path"></path>
            <path d="M198.55177,32.4307909 L198.55177,31.1968978 L202.975408,30.6324574 L203.041041,30.6324574 L203.697367,31.0787591 L203.697367,39.099064 C204.213677,38.5915052 204.830623,38.1714565 205.548207,37.8389179 C206.26579,37.5063794 207.062132,37.3401101 207.937234,37.3401101 C209.004857,37.3401101 209.980596,37.598265 210.864448,38.1145749 C211.748301,38.6308847 212.457133,39.4381658 212.990945,40.5364182 C213.524756,41.6346705 213.791662,43.0151431 213.791662,44.6778358 C213.791662,46.2180144 213.476626,47.6203645 212.846553,48.8848861 C212.21648,50.1494077 211.312938,51.1470234 210.135926,51.8777331 C208.958915,52.6084428 207.587193,52.9737977 206.020761,52.9737977 C205.171913,52.9737977 204.364632,52.9147283 203.598918,52.7965896 C202.833204,52.6784509 202.192193,52.536247 201.675883,52.3699777 C201.159573,52.2037084 200.840161,52.0593167 200.717647,51.9368025 L200.717647,32.6933213 L198.55177,32.4307909 Z M203.697367,50.6110237 C203.81113,50.8735542 204.104289,51.0813908 204.576844,51.2345335 C205.049399,51.3876763 205.596337,51.4642477 206.217659,51.4642477 C207.075259,51.4642477 207.830034,51.2235948 208.481984,50.742289 C209.133935,50.2609832 209.643682,49.5368367 210.011224,48.5698496 C210.378767,47.6028625 210.562538,46.4105367 210.562538,44.9928724 C210.562538,43.7327263 210.398457,42.6826045 210.070293,41.8425071 C209.74213,41.0024097 209.289265,40.3810877 208.711698,39.978541 C208.134131,39.5759943 207.47343,39.374721 206.729594,39.374721 C206.099521,39.374721 205.517578,39.516925 204.983766,39.8013329 C204.449954,40.0857409 204.021155,40.4073407 203.697367,40.7661323 L203.697367,50.6110237 Z" id="Shape"></path>
        </g>
        <path d="M32,0 C49.672429,0 64,14.3262845 64,32 C64,49.672429 49.672429,64 32,64 C14.3262845,64 0,49.672429 0,32 C0,14.3262845 14.3262845,0 32,0 Z M48,16 L16,16 L16,35.9998571 L16.0030306,36.3147411 C16.1704668,45.0063311 23.2546646,52 31.9698894,52 C40.790117,52 48,44.8367938 48,35.9998571 L48,35.9998571 L48,16 Z M25.686,21 L31.994,30.874 L38.365,21.041 C42.022,23.22 44.478,27.206 44.478,31.778 C44.478,36.618 41.735,40.81 37.707,42.885 L37.707,42.885 L36.649,38.837 C38.889,37.543 40.409,35.036 40.409,32.148 C40.409,30.525 39.926,29.004 39.094,27.771 L39.094,27.771 L33.608,35.95 L30.289,35.95 L24.802,27.771 C23.97,29.004 23.487,30.515 23.487,32.148 C23.487,35.241 25.234,37.912 27.751,39.094 L27.751,39.094 L26.713,43.101 C22.449,41.118 19.5,36.792 19.5,31.778 C19.5,27.186 21.987,23.168 25.686,21 L25.686,21 Z" id="icon" fill="#FFFFFF" fill-rule="nonzero"></path>
    </g>
</svg>