<?xml version="1.0" encoding="UTF-8"?>
<svg width="64px" height="64px" viewBox="0 0 64 64" version="1.1" xmlns="http://www.w3.org/2000/svg" xmlns:xlink="http://www.w3.org/1999/xlink">
    <title>logo/ecm/black/icon/ecm-logo-black-icon</title>
    <g id="logo/ecm/black/icon/ecm-logo-black-icon" stroke="none" stroke-width="1" fill="none" fill-rule="evenodd">
        <path d="M32,0 C49.673,0 64,14.327 64,32 C64,49.673 49.673,64 32,64 C14.327,64 0,49.673 0,32 C0,14.327 14.327,0 32,0 Z M31.9999861,5.9998 L26.5774533,22.8457902 L34.0295682,33.1994155 L21.9716594,37.1540912 L16.5491267,53.9998 L31.9999861,42.6686903 L47.4508454,53.9998 L41.5491406,35.6653549 L57,24.3342451 L37.9016908,24.3342451 L31.9999861,5.9998 Z M24.5476203,24.334217 L7,24.334217 L21.1964823,34.7458048 L29.9704318,31.8679376 L24.5476203,24.334217 Z" id="icon" fill="#000000"></path>
    </g>
</svg>