<?xml version="1.0" encoding="UTF-8"?>
<svg width="64px" height="64px" viewBox="0 0 64 64" version="1.1" xmlns="http://www.w3.org/2000/svg" xmlns:xlink="http://www.w3.org/1999/xlink">
    <title>logo/tssec/black/icon/tssec-logo-black-icon</title>
    <g id="logo/tssec/black/icon/tssec-logo-black-icon" stroke="none" stroke-width="1" fill="none" fill-rule="evenodd">
        <path d="M32,0 C49.673,0 64,14.327 64,32 C64,49.673 49.673,64 32,64 C14.327,64 0,49.673 0,32 C0,14.327 14.327,0 32,0 Z M27,46.3077044 C27,46.9172182 26.3059799,47.2284455 25.8910366,46.8039858 L25.8910366,46.8039858 L21.1987505,41.9958146 C20.9337498,41.7247039 20.9337498,41.2756565 21.1987505,41.0038988 L21.1987505,41.0038988 L25.8910366,36.1957276 C26.3059799,35.7712679 27,36.0818482 27,36.6926561 L27,36.6926561 L27,38.999 L48,38.999 L48.0006,27.0767 C48.0006,25.4897 46.7126,24.2027 45.1266,24.2027 L42.8486,24.2027 L42.8486,20.5227 C42.8486,14.5407 37.9826,9.6737 32.0006,9.6737 C26.0176,9.6737 21.1506,14.5407 21.1506,20.5227 L21.1506,24.2027 L18.8746,24.2027 C17.2866,24.2027 16.0006,25.4897 16.0006,27.0767 L16,28.999 L38,28.999 L38,26.6920525 C38,26.1177648 38.6148349,25.8088581 39.0326343,26.1283896 L39.1084645,26.1957549 L43.8012292,31.0034352 C44.0662569,31.2752018 44.0662569,31.7242637 43.8012292,31.9960303 L43.8012292,31.9960303 L39.1084645,36.8037106 C38.6940909,37.2281841 38,36.9182408 38,36.307413 L38,36.307413 L38,33.999 L16,33.999 L16.0006,46.1767 C16.0006,47.7647 17.2866,49.0507 18.8746,49.0507 L45.1266,49.0507 C46.7126,49.0507 48.0006,47.7647 48.0006,46.1767 L48,43.999 L27,43.999 Z M32.0006,14.5877 C35.2726,14.5877 37.9346,17.2507 37.9346,20.5227 L37.9346,24.2027 L26.0646,24.2027 L26.0646,20.5227 C26.0646,17.2507 28.7276,14.5877 32.0006,14.5877 Z" id="icon" fill="#000000"></path>
    </g>
</svg>