<?xml version="1.0" encoding="UTF-8"?>
<svg width="411px" height="64px" viewBox="0 0 411 64" version="1.1" xmlns="http://www.w3.org/2000/svg" xmlns:xlink="http://www.w3.org/1999/xlink">
    <title>logo/tssec/color-dark/stacked/tssec-logo-color-dark-stacked</title>
    <g id="logo/tssec/color-dark/stacked/tssec-logo-color-dark-stacked" stroke="none" stroke-width="1" fill="none" fill-rule="evenodd">
        <g id="Group">
            <path d="M64,32.0002 C64,49.6732 49.673,64.0002 32,64.0002 C14.327,64.0002 0,49.6732 0,32.0002 C0,14.3272 14.327,0.0002 32,0.0002 C49.673,0.0002 64,14.3272 64,32.0002" id="circle" fill="#083C6F"></path>
            <path d="M48,43.9999 L48.0006,46.1769 C48.0006,47.7649 46.7126,49.0509 45.1266,49.0509 L45.1266,49.0509 L18.8746,49.0509 C17.2866,49.0509 16.0006,47.7649 16.0006,46.1769 L16.0006,46.1769 L16,33.9999 L38,33.9999 L38,36.307613 C38,36.9184408 38.6940909,37.2283841 39.1084645,36.8039106 L43.8012292,31.9962303 C44.0662569,31.7244637 44.0662569,31.2754018 43.8012292,31.0036352 L39.1084645,26.1959549 C38.6940909,25.7714814 38,26.0820718 38,26.6922525 L38,28.9999 L16,28.9999 L16.0006,27.0769 C16.0006,25.5465786 17.1963832,24.2952112 18.7056576,24.2077798 L18.8746,24.2029 L21.1506,24.2029 L21.1506,20.5229 C21.1506,14.5409 26.0176,9.6739 32.0006,9.6739 C37.9826,9.6739 42.8486,14.5409 42.8486,20.5229 L42.8486,20.5229 L42.8486,24.2029 L45.1266,24.2029 C46.7126,24.2029 48.0006,25.4899 48.0006,27.0769 L48.0006,27.0769 L48,38.9999 L27,38.9999 L27,36.6928561 C27,36.0820482 26.3059799,35.7714679 25.8910366,36.1959276 L21.1987505,41.0040988 C20.9337498,41.2758565 20.9337498,41.7249039 21.1987505,41.9960146 L25.8910366,46.8041858 C26.3059799,47.2286455 27,46.9174182 27,46.3079044 L27,43.9999 L48,43.9999 Z M32.0006,14.5879 C28.7276,14.5879 26.0646,17.2509 26.0646,20.5229 L26.0646,20.5229 L26.0646,24.2029 L37.9346,24.2029 L37.9346,20.5229 C37.9346,17.2509 35.2726,14.5879 32.0006,14.5879 Z" id="icon" fill="#F5EA14"></path>
        </g>
        <g id="Name-of-Application" transform="translate(72.420049, 3.960570)" fill="#000000">
            <polygon id="Path" points="7.25896662 20.2936029 7.25896662 3.62292005 2.88783482 3.75418527 1.90334568 9.24107143 0 9.24107143 0.459428267 2.06086394 17.077605 2.06086394 17.4976537 9.24107143 15.6205611 9.24107143 14.6229454 3.75418527 10.4224584 3.62292005 10.4224584 20.2936029 14.1372641 20.6086394 14.1372641 22.0394303 3.8329444 22.0394303 3.8329444 20.6086394"></polygon>
            <path d="M21.3831042,20.4117416 L21.3831042,9.38546317 L19.5191381,8.86040229 L19.5191381,7.28521966 L23.2733234,6.76015879 L23.338956,6.76015879 L23.969029,7.27209314 L23.969029,8.09906402 L23.942776,9.80551187 L23.969029,9.80551187 C24.1265473,9.51672839 24.430645,9.12949599 24.8813223,8.64381468 C25.3319995,8.15813337 25.913942,7.71401938 26.6271497,7.31147271 C27.3403574,6.90892603 28.1170099,6.7076527 28.9571073,6.7076527 C29.2983969,6.7076527 29.5871804,6.75578328 29.8234578,6.85204444 L29.8234578,10.0811688 C29.6571885,9.98490767 29.4362254,9.90396079 29.1605684,9.83832818 C28.8849115,9.77269557 28.5895647,9.73987926 28.2745282,9.73987926 C27.3906757,9.73987926 26.6271497,9.84707919 25.9839501,10.061479 C25.3407506,10.2758789 24.8047509,10.5449726 24.3759512,10.8687601 L24.3759512,20.3986151 L27.8282265,20.6348925 L27.8282265,22.0394303 L19.3222403,22.0394303 L19.3222403,20.6217659 L21.3831042,20.4117416 Z" id="Path"></path>
            <path d="M31.5955383,14.5441863 C31.5955383,13.0040077 31.8974483,11.6388494 32.5012683,10.4487114 C33.1050883,9.25857346 33.9408102,8.33752917 35.0084339,7.68557858 C36.0760577,7.03362799 37.2880733,6.7076527 38.6444805,6.7076527 C40.3246753,6.7076527 41.624201,7.16708097 42.5430575,8.0859375 C43.4619141,9.00479403 43.9519709,10.3305727 44.013228,12.0632736 L44.013228,12.5358284 C44.013228,13.454685 43.9607219,14.1547661 43.8557097,14.6360719 L34.75903,14.6360719 C34.7940341,15.9224711 35.0128095,16.9900949 35.4153561,17.8389433 C35.8179028,18.6877917 36.3473392,19.3134892 37.0036653,19.7160359 C37.6599914,20.1185826 38.3994521,20.3198559 39.2220475,20.3198559 C39.9396307,20.3198559 40.6769037,20.195154 41.4338664,19.9457501 C42.1908292,19.6963461 42.7837104,19.4097504 43.2125101,19.0859629 L43.7638241,20.346109 C43.4312855,20.6873985 42.974045,21.0111861 42.3921025,21.3174716 C41.8101601,21.6237571 41.162585,21.8709733 40.4493773,22.0591201 C39.7361696,22.2472669 39.0295252,22.3413403 38.329444,22.3413403 C36.8592735,22.3413403 35.6188172,22.015365 34.608075,21.3634144 C33.5973328,20.7114638 32.8425578,19.8013583 32.34375,18.6330979 C31.8449422,17.4648374 31.5955383,16.1018669 31.5955383,14.5441863 Z M40.8628627,13.1133954 C40.8978668,12.7983589 40.9153688,12.4220652 40.9153688,11.9845145 C40.9066178,10.8731357 40.6747159,9.98053216 40.2196631,9.30670404 C39.7646104,8.63287591 39.0470272,8.29596185 38.0669136,8.29596185 C37.0867999,8.29596185 36.3101474,8.66131671 35.7369559,9.39202643 C35.1637645,10.1227362 34.8377892,11.3631925 34.75903,13.1133954 L40.8628627,13.1133954 Z" id="Shape"></path>
            <path d="M54.9870003,12.2864245 C54.9870003,11.4638291 54.9016779,10.8162541 54.7310331,10.3436993 C54.5603883,9.87114448 54.2650416,9.5254794 53.8449929,9.30670404 C53.4249442,9.08792867 52.8298752,8.97854099 52.0597859,8.97854099 C50.5808644,8.97854099 49.0231838,9.39421418 47.3867441,10.2255606 L47.3736176,10.2255606 L46.7172915,8.86040229 C46.9535689,8.65037794 47.4064339,8.37909649 48.0758865,8.04655793 C48.7453391,7.71401938 49.5066774,7.42304814 50.3599013,7.17364423 C51.2131253,6.92424031 52.0247819,6.79953835 52.7948711,6.79953835 C54.0725193,6.79953835 55.0766982,6.97237089 55.8074079,7.31803597 C56.5381176,7.66370105 57.0653663,8.21720272 57.3891538,8.97854099 C57.7129414,9.73987926 57.8748351,10.7681235 57.8748351,12.0632736 L57.8748351,20.5955129 L59.4762708,20.5955129 L59.4762708,21.881912 C58.1986227,22.1881975 57.2360111,22.3413403 56.588436,22.3413403 C56.2208934,22.3413403 55.9408609,22.3107117 55.7483386,22.2494546 C55.5558163,22.1881975 55.4136123,22.0634956 55.3217266,21.8753488 C55.229841,21.687202 55.1838981,21.3962307 55.1838981,21.0024351 L55.1838981,20.372362 C54.7113433,20.8361658 54.0900213,21.2802798 53.319932,21.704704 C52.5498427,22.1291282 51.6878678,22.3413403 50.7340072,22.3413403 C49.8939098,22.3413403 49.1303838,22.1881975 48.4434291,21.881912 C47.7564745,21.5756265 47.2095361,21.1030717 46.8026139,20.4642477 C46.3956917,19.8254236 46.1922306,19.0290813 46.1922306,18.0752207 C46.1922306,16.9113357 46.596965,15.9530996 47.4064339,15.2005124 C48.2159027,14.4479251 49.279151,13.8944234 50.5961787,13.5400074 C51.9132064,13.1855913 53.3768136,12.9952567 54.9870003,12.9690037 L54.9870003,12.2864245 Z M54.9870003,14.4523006 C53.7006012,14.4523006 52.6439161,14.5988801 51.8169453,14.8920391 C50.9899744,15.1851981 50.3905299,15.5724305 50.0186118,16.0537363 C49.6466936,16.5350421 49.4607346,17.0819805 49.4607346,17.6945515 C49.4607346,18.6134081 49.688261,19.2872362 50.1433137,19.7160359 C50.5983665,20.1448356 51.2109375,20.3592355 51.9810268,20.3592355 C52.3923245,20.3592355 52.8889446,20.2432845 53.470887,20.0113827 C54.0528295,19.7794808 54.5582006,19.4972606 54.9870003,19.164722 L54.9870003,14.4523006 Z" id="Shape"></path>
            <path d="M63.5586191,17.7733107 L64.08368,19.768542 C64.1886922,19.9523133 64.3921533,20.1273336 64.6940633,20.2936029 C64.9959733,20.4598722 65.3525771,20.5955129 65.7638748,20.7005251 C66.1751725,20.8055372 66.5952212,20.8580433 67.0240209,20.8580433 C68.0128856,20.8580433 68.7173422,20.6720843 69.1373909,20.3001661 C69.5574396,19.928248 69.767464,19.4185014 69.767464,18.7709263 C69.767464,18.3158736 69.62526,17.9155147 69.340852,17.5698496 C69.056444,17.2241845 68.6342076,16.8982092 68.0741427,16.5919237 C67.5140777,16.2856382 66.7527394,15.9399731 65.7901278,15.5549285 C64.3987165,15.0123656 63.3835988,14.3713537 62.7447748,13.631893 C62.1059507,12.8924323 61.7865387,11.9363839 61.7865387,10.763748 C61.7865387,9.97615666 62.0250038,9.28263875 62.5019341,8.68319425 C62.9788644,8.08374975 63.6330027,7.61775822 64.4643491,7.28521966 C65.2956955,6.95268111 66.2320541,6.78641183 67.2734248,6.78641183 C68.0785182,6.78641183 68.7873503,6.84985669 69.3999214,6.9767464 C70.0124924,7.10363611 70.6294389,7.26771763 71.250761,7.46899097 L71.7233157,7.61338271 L71.7233157,10.9343928 L70.0431209,10.9343928 L69.4786805,9.09667969 C69.3736683,8.86915331 69.0914481,8.67225548 68.6320198,8.5059862 C68.1725916,8.33971692 67.6584695,8.25658228 67.0896535,8.25658228 C66.2845602,8.25658228 65.6632381,8.42722707 65.2256874,8.76851664 C64.7881367,9.10980621 64.5693613,9.55610795 64.5693613,10.1074219 C64.5693613,10.5974787 64.6984388,11.0087764 64.9565937,11.3413149 C65.2147486,11.6738535 65.5363484,11.9451349 65.9213931,12.1551593 C66.3064377,12.3651836 66.8446251,12.6145876 67.5359553,12.903371 L68.0478896,13.1265219 C69.0455053,13.5553216 69.8549741,13.9578683 70.4762962,14.3341619 C71.0976182,14.7104556 71.6139281,15.1917614 72.0252258,15.7780793 C72.4365234,16.3643973 72.6421723,17.0819805 72.6421723,17.9308289 C72.6421723,18.8059304 72.4124581,19.5760197 71.9530299,20.2410968 C71.4936016,20.9061739 70.8285245,21.4224838 69.9577985,21.7900264 C69.0870726,22.157569 68.0566406,22.3413403 66.8665026,22.3413403 C65.9738991,22.3413403 65.0375406,22.2188261 64.0574269,21.9737977 C63.0773133,21.7287693 62.2940975,21.4749899 61.7077795,21.2124594 L61.7077795,17.7733107 L63.5586191,17.7733107 Z" id="Path"></path>
            <path d="M85.7555677,20.2542233 C85.1955027,20.7967862 84.4866706,21.2802798 83.6290711,21.704704 C82.7714717,22.1291282 81.9051212,22.3413403 81.0300198,22.3413403 C79.936143,22.3413403 79.047915,22.1466302 78.3653358,21.7572101 C77.6827567,21.3677899 77.1795734,20.7486556 76.8557858,19.8998072 C76.5319983,19.0509588 76.3701045,17.9308289 76.3701045,16.5394176 L76.3701045,8.9260349 L74.9130606,8.44035359 L74.9130606,7.16708097 L78.7985111,6.77328531 L78.8116376,6.77328531 L79.3629515,7.1277014 L79.3629515,16.3950259 C79.3629515,17.3926415 79.4373351,18.1714818 79.5861024,18.7315468 C79.7348696,19.2916117 79.9974001,19.7007216 80.3736937,19.9588766 C80.7499873,20.2170315 81.2925502,20.346109 82.0013824,20.346109 C82.6839615,20.346109 83.3184101,20.2148438 83.9047281,19.9523133 C84.4910461,19.6897829 84.9986049,19.3878729 85.4274046,19.0465833 L85.4274046,8.93916142 L83.550312,8.42722707 L83.550312,7.15395444 L87.6982929,6.77328531 L87.724546,6.77328531 L88.4202516,7.1277014 L88.4202516,20.5561333 L89.9954343,20.5561333 L89.9954343,21.8687855 C89.4878754,22.0175528 89.0481369,22.1335037 88.6762188,22.2166383 C88.3043007,22.299773 87.8776887,22.3413403 87.3963829,22.3413403 C86.836318,22.3413403 86.4228325,22.2341404 86.1559266,22.0197405 C85.8890206,21.8053407 85.7555677,21.4443613 85.7555677,20.9368025 L85.7555677,20.2542233 Z" id="Path"></path>
            <path d="M94.2746804,20.4117416 L94.2746804,9.38546317 L92.4107143,8.86040229 L92.4107143,7.28521966 L96.1648996,6.76015879 L96.2305322,6.76015879 L96.8606052,7.27209314 L96.8606052,8.09906402 L96.8343522,9.80551187 L96.8606052,9.80551187 C97.0181235,9.51672839 97.3222212,9.12949599 97.7728985,8.64381468 C98.2235757,8.15813337 98.8055182,7.71401938 99.5187259,7.31147271 C100.231934,6.90892603 101.008586,6.7076527 101.848684,6.7076527 C102.189973,6.7076527 102.478757,6.75578328 102.715034,6.85204444 L102.715034,10.0811688 C102.548765,9.98490767 102.327802,9.90396079 102.052145,9.83832818 C101.776488,9.77269557 101.481141,9.73987926 101.166104,9.73987926 C100.282252,9.73987926 99.5187259,9.84707919 98.8755263,10.061479 C98.2323268,10.2758789 97.6963271,10.5449726 97.2675274,10.8687601 L97.2675274,20.3986151 L100.719803,20.6348925 L100.719803,22.0394303 L92.2138165,22.0394303 L92.2138165,20.6217659 L94.2746804,20.4117416 Z" id="Path"></path>
            <path d="M105.287832,26.056146 C105.392844,26.1174031 105.607244,26.1720969 105.931032,26.2202275 C106.254819,26.2683581 106.561105,26.2924234 106.849888,26.2924234 C107.374949,26.2924234 107.858443,26.1852235 108.300369,25.9708236 C108.742295,25.7564238 109.190785,25.3385628 109.645838,24.7172408 C110.10089,24.0959187 110.542817,23.2033152 110.971616,22.0394303 L109.488319,22.0394303 L104.579,8.84727577 L103.331981,8.5059862 L103.331981,7.11457488 L110.01338,7.11457488 L110.01338,8.5059862 L107.952516,8.84727577 L110.485935,16.775695 L111.654195,20.5823864 L112.704317,16.7625685 L115.080218,8.83414925 L113.321264,8.5059862 L113.321264,7.11457488 L118.834403,7.11457488 L118.834403,8.5059862 L117.495498,8.83414925 C116.235352,12.7546038 115.209295,15.8852793 114.417328,18.2261757 C113.625361,20.5670721 113.11999,21.9869242 112.901215,22.485732 C112.306146,23.9909066 111.743893,25.1810445 111.214457,26.056146 C110.685021,26.9312475 110.07245,27.5963246 109.376744,28.0513773 C108.681038,28.5064301 107.830002,28.7339565 106.823635,28.7339565 C106.552354,28.7339565 106.259195,28.7142667 105.944158,28.6748871 C105.629122,28.6355076 105.410346,28.5895647 105.287832,28.5370586 L105.287832,26.056146 Z" id="Path"></path>
            <path d="M128.705547,16.2637607 L130.530134,16.2637607 L131.055195,19.6241503 C131.352729,19.9391868 131.834035,20.2082805 132.499112,20.4314314 C133.164189,20.6545822 133.886148,20.7661577 134.664988,20.7661577 C135.96889,20.7661577 136.951191,20.4751864 137.611893,19.893244 C138.272594,19.3113015 138.602945,18.5040204 138.602945,17.4714007 C138.602945,16.7975725 138.421361,16.2178178 138.058194,15.7321365 C137.695027,15.2464552 137.202783,14.8198432 136.581461,14.4523006 C135.960138,14.084758 135.106915,13.6559583 134.021789,13.1659015 C133.076679,12.7371018 132.227831,12.273298 131.475244,11.7744902 C130.722656,11.2756823 130.075081,10.6281072 129.532518,9.83176491 C128.989955,9.03542259 128.718674,8.09468851 128.718674,7.0095627 C128.718674,6.01194704 128.98558,5.1215313 129.519392,4.33831549 C130.053204,3.55509969 130.814542,2.94252866 131.803407,2.50060242 C132.792271,2.05867619 133.94303,1.83771307 135.255682,1.83771307 C136.060775,1.83771307 136.804611,1.90553343 137.487191,2.04117416 C138.16977,2.17681488 138.878602,2.34964742 139.613687,2.55967177 C139.998732,2.67343496 140.309393,2.75219409 140.54567,2.79594917 L140.375025,7.29834619 L138.616071,7.29834619 L138.012251,4.10860136 C137.845982,3.92483005 137.495942,3.75637302 136.96213,3.60323027 C136.428318,3.45008751 135.850751,3.37351613 135.229429,3.37351613 C132.866655,3.37351613 131.685268,4.32737672 131.685268,6.23509791 C131.685268,6.90017502 131.864664,7.46899097 132.223455,7.94154576 C132.582247,8.41410055 133.059177,8.8319615 133.654246,9.1951286 C134.249315,9.55829571 135.128792,10.0242872 136.292677,10.5931032 C137.447811,11.1619191 138.392921,11.6826045 139.128006,12.1551593 C139.863091,12.6277141 140.493164,13.2293463 141.018225,13.9600561 C141.543286,14.6907658 141.805816,15.5549285 141.805816,16.5525441 C141.805816,17.5151557 141.536723,18.4405755 140.998535,19.3288035 C140.460348,20.2170315 139.650879,20.941178 138.570129,21.5012429 C137.489378,22.0613078 136.178914,22.3413403 134.638735,22.3413403 C133.693626,22.3413403 132.831651,22.2560179 132.05281,22.0853731 C131.27397,21.9147283 130.464501,21.6937652 129.624404,21.4224838 C129.046837,21.2387125 128.666168,21.1380758 128.482397,21.1205738 L128.705547,16.2637607 Z" id="Path"></path>
            <path d="M145.638761,20.3986151 L145.638761,2.07399046 L143.472885,1.81146002 L143.472885,0.564440442 L147.922775,0 L147.988408,0 L148.618481,0.446301745 L148.631608,6.53700791 L148.513469,8.88665534 C149.108538,8.36159446 149.887378,7.8781009 150.84999,7.43617467 C151.812601,6.99424843 152.801466,6.77328531 153.816584,6.77328531 C154.936714,6.77328531 155.809627,6.98768517 156.435325,7.41648488 C157.061022,7.8452846 157.498573,8.50379845 157.747977,9.39202643 C157.997381,10.2802544 158.122083,11.4725802 158.122083,12.9690037 L158.122083,20.3854885 L160.012302,20.6086394 L160.012302,22.0394303 L153.409662,22.0394303 L153.409662,20.6217659 L155.129236,20.3986151 L155.129236,12.9558771 C155.129236,11.9407594 155.061416,11.1422294 154.925775,10.5602869 C154.790134,9.97834441 154.529791,9.54079368 154.144747,9.24763469 C153.759702,8.9544757 153.195262,8.80789621 152.451426,8.80789621 C151.821352,8.80789621 151.160651,8.93697367 150.469321,9.1951286 C149.777991,9.45328353 149.169795,9.77925883 148.644734,10.1730545 L148.644734,20.3854885 L150.5087,20.6086394 L150.5087,22.0394303 L144.063578,22.0394303 L144.063578,20.6086394 L145.638761,20.3986151 Z" id="Path"></path>
            <path d="M170.605405,12.2864245 C170.605405,11.4638291 170.520083,10.8162541 170.349438,10.3436993 C170.178793,9.87114448 169.883447,9.5254794 169.463398,9.30670404 C169.043349,9.08792867 168.44828,8.97854099 167.678191,8.97854099 C166.199269,8.97854099 164.641589,9.39421418 163.005149,10.2255606 L162.992023,10.2255606 L162.335697,8.86040229 C162.571974,8.65037794 163.024839,8.37909649 163.694292,8.04655793 C164.363744,7.71401938 165.125082,7.42304814 165.978306,7.17364423 C166.83153,6.92424031 167.643187,6.79953835 168.413276,6.79953835 C169.690924,6.79953835 170.695103,6.97237089 171.425813,7.31803597 C172.156523,7.66370105 172.683771,8.21720272 173.007559,8.97854099 C173.331346,9.73987926 173.49324,10.7681235 173.49324,12.0632736 L173.49324,20.5955129 L175.094676,20.5955129 L175.094676,21.881912 C173.817028,22.1881975 172.854416,22.3413403 172.206841,22.3413403 C171.839298,22.3413403 171.559266,22.3107117 171.366744,22.2494546 C171.174221,22.1881975 171.032017,22.0634956 170.940132,21.8753488 C170.848246,21.687202 170.802303,21.3962307 170.802303,21.0024351 L170.802303,20.372362 C170.329748,20.8361658 169.708426,21.2802798 168.938337,21.704704 C168.168248,22.1291282 167.306273,22.3413403 166.352412,22.3413403 C165.512315,22.3413403 164.748789,22.1881975 164.061834,21.881912 C163.37488,21.5756265 162.827941,21.1030717 162.421019,20.4642477 C162.014097,19.8254236 161.810636,19.0290813 161.810636,18.0752207 C161.810636,16.9113357 162.21537,15.9530996 163.024839,15.2005124 C163.834308,14.4479251 164.897556,13.8944234 166.214584,13.5400074 C167.531611,13.1855913 168.995219,12.9952567 170.605405,12.9690037 L170.605405,12.2864245 Z M170.605405,14.4523006 C169.319006,14.4523006 168.262321,14.5988801 167.43535,14.8920391 C166.608379,15.1851981 166.008935,15.5724305 165.637017,16.0537363 C165.265099,16.5350421 165.07914,17.0819805 165.07914,17.6945515 C165.07914,18.6134081 165.306666,19.2872362 165.761719,19.7160359 C166.216772,20.1448356 166.829343,20.3592355 167.599432,20.3592355 C168.01073,20.3592355 168.50735,20.2432845 169.089292,20.0113827 C169.671235,19.7794808 170.176606,19.4972606 170.605405,19.164722 L170.605405,14.4523006 Z" id="Shape"></path>
            <path d="M179.045759,20.4117416 L179.045759,9.38546317 L177.181793,8.86040229 L177.181793,7.28521966 L180.935978,6.76015879 L181.001611,6.76015879 L181.631684,7.27209314 L181.631684,8.09906402 L181.605431,9.80551187 L181.631684,9.80551187 C181.789202,9.51672839 182.0933,9.12949599 182.543977,8.64381468 C182.994654,8.15813337 183.576597,7.71401938 184.289804,7.31147271 C185.003012,6.90892603 185.779665,6.7076527 186.619762,6.7076527 C186.961052,6.7076527 187.249835,6.75578328 187.486113,6.85204444 L187.486113,10.0811688 C187.319843,9.98490767 187.09888,9.90396079 186.823223,9.83832818 C186.547566,9.77269557 186.252219,9.73987926 185.937183,9.73987926 C185.05333,9.73987926 184.289804,9.84707919 183.646605,10.061479 C183.003405,10.2758789 182.467406,10.5449726 182.038606,10.8687601 L182.038606,20.3986151 L185.490881,20.6348925 L185.490881,22.0394303 L176.984895,22.0394303 L176.984895,20.6217659 L179.045759,20.4117416 Z" id="Path"></path>
            <path d="M189.258193,14.5441863 C189.258193,13.0040077 189.560103,11.6388494 190.163923,10.4487114 C190.767743,9.25857346 191.603465,8.33752917 192.671089,7.68557858 C193.738712,7.03362799 194.950728,6.7076527 196.307135,6.7076527 C197.98733,6.7076527 199.286856,7.16708097 200.205712,8.0859375 C201.124569,9.00479403 201.614626,10.3305727 201.675883,12.0632736 L201.675883,12.5358284 C201.675883,13.454685 201.623377,14.1547661 201.518364,14.6360719 L192.421685,14.6360719 C192.456689,15.9224711 192.675464,16.9900949 193.078011,17.8389433 C193.480558,18.6877917 194.009994,19.3134892 194.66632,19.7160359 C195.322646,20.1185826 196.062107,20.3198559 196.884702,20.3198559 C197.602285,20.3198559 198.339558,20.195154 199.096521,19.9457501 C199.853484,19.6963461 200.446365,19.4097504 200.875165,19.0859629 L201.426479,20.346109 C201.09394,20.6873985 200.6367,21.0111861 200.054757,21.3174716 C199.472815,21.6237571 198.82524,21.8709733 198.112032,22.0591201 C197.398824,22.2472669 196.69218,22.3413403 195.992099,22.3413403 C194.521928,22.3413403 193.281472,22.015365 192.27073,21.3634144 C191.259988,20.7114638 190.505213,19.8013583 190.006405,18.6330979 C189.507597,17.4648374 189.258193,16.1018669 189.258193,14.5441863 Z M198.525517,13.1133954 C198.560522,12.7983589 198.578024,12.4220652 198.578024,11.9845145 C198.569273,10.8731357 198.337371,9.98053216 197.882318,9.30670404 C197.427265,8.63287591 196.709682,8.29596185 195.729568,8.29596185 C194.749455,8.29596185 193.972802,8.66131671 193.399611,9.39202643 C192.826419,10.1227362 192.500444,11.3631925 192.421685,13.1133954 L198.525517,13.1133954 Z" id="Shape"></path>
            <path d="M203.854885,14.9248554 C203.854885,13.3934279 204.165546,12.0042043 204.786868,10.7571847 C205.40819,9.51016513 206.305169,8.52348823 207.477805,7.79715402 C208.650441,7.07081981 210.024351,6.7076527 211.599533,6.7076527 C212.369623,6.7076527 213.161589,6.79078734 213.975434,6.95705662 L213.975434,2.06086394 L211.337003,1.7983335 L211.337003,0.525060877 L216.233196,0 L216.311955,0 L216.955154,0.472554789 L216.955154,20.5167538 L218.504084,20.5167538 L218.504084,21.881912 C217.935268,22.0219283 217.429897,22.1335037 216.987971,22.2166383 C216.546044,22.299773 216.088804,22.3413403 215.616249,22.3413403 C215.274959,22.3413403 215.005866,22.308524 214.808968,22.2428914 C214.61207,22.1772588 214.463303,22.0459936 214.362666,21.8490957 C214.262029,21.6521979 214.211711,21.3656022 214.211711,20.9893085 L214.211711,20.2936029 C213.677899,20.8799209 213.028136,21.3677899 212.262423,21.7572101 C211.496709,22.1466302 210.645673,22.3413403 209.709314,22.3413403 C208.632939,22.3413403 207.652826,22.0678711 206.768973,21.5209327 C205.885121,20.9739943 205.178476,20.1426479 204.64904,19.0268935 C204.119604,17.9111392 203.854885,16.5437931 203.854885,14.9248554 Z M213.975434,9.05730012 C213.844169,8.83852476 213.529132,8.65037794 213.030324,8.49285968 C212.531516,8.33534142 211.993329,8.25658228 211.415762,8.25658228 C210.10311,8.25658228 209.052988,8.77726765 208.265397,9.81863839 C207.477805,10.8600091 207.08401,12.4920734 207.08401,14.7148311 C207.08401,15.9837282 207.252467,17.0360377 207.589381,17.8717596 C207.926295,18.7074815 208.381348,19.324428 208.954539,19.7225992 C209.527731,20.1207703 210.181869,20.3198559 210.916954,20.3198559 C211.555778,20.3198559 212.142096,20.1798397 212.675908,19.8998072 C213.20972,19.6197748 213.642895,19.2959872 213.975434,18.9284446 L213.975434,9.05730012 Z" id="Shape"></path>
            <path d="M229.280958,16.2637607 L231.105545,16.2637607 L231.630606,19.6241503 C231.92814,19.9391868 232.409446,20.2082805 233.074523,20.4314314 C233.7396,20.6545822 234.461559,20.7661577 235.240399,20.7661577 C236.5443,20.7661577 237.526602,20.4751864 238.187303,19.893244 C238.848005,19.3113015 239.178356,18.5040204 239.178356,17.4714007 C239.178356,16.7975725 238.996772,16.2178178 238.633605,15.7321365 C238.270438,15.2464552 237.778193,14.8198432 237.156871,14.4523006 C236.535549,14.084758 235.682325,13.6559583 234.5972,13.1659015 C233.65209,12.7371018 232.803242,12.273298 232.050654,11.7744902 C231.298067,11.2756823 230.650492,10.6281072 230.107929,9.83176491 C229.565366,9.03542259 229.294085,8.09468851 229.294085,7.0095627 C229.294085,6.01194704 229.560991,5.1215313 230.094803,4.33831549 C230.628615,3.55509969 231.389953,2.94252866 232.378817,2.50060242 C233.367682,2.05867619 234.518441,1.83771307 235.831093,1.83771307 C236.636186,1.83771307 237.380022,1.90553343 238.062601,2.04117416 C238.745181,2.17681488 239.454013,2.34964742 240.189098,2.55967177 C240.574143,2.67343496 240.884804,2.75219409 241.121081,2.79594917 L240.950436,7.29834619 L239.191482,7.29834619 L238.587662,4.10860136 C238.421393,3.92483005 238.071352,3.75637302 237.537541,3.60323027 C237.003729,3.45008751 236.426162,3.37351613 235.80484,3.37351613 C233.442066,3.37351613 232.260679,4.32737672 232.260679,6.23509791 C232.260679,6.90017502 232.440075,7.46899097 232.798866,7.94154576 C233.157658,8.41410055 233.634588,8.8319615 234.229657,9.1951286 C234.824726,9.55829571 235.704203,10.0242872 236.868088,10.5931032 C238.023222,11.1619191 238.968331,11.6826045 239.703417,12.1551593 C240.438502,12.6277141 241.068575,13.2293463 241.593636,13.9600561 C242.118697,14.6907658 242.381227,15.5549285 242.381227,16.5525441 C242.381227,17.5151557 242.112133,18.4405755 241.573946,19.3288035 C241.035759,20.2170315 240.22629,20.941178 239.14554,21.5012429 C238.064789,22.0613078 236.754325,22.3413403 235.214146,22.3413403 C234.269037,22.3413403 233.407062,22.2560179 232.628221,22.0853731 C231.849381,21.9147283 231.039912,21.6937652 230.199815,21.4224838 C229.622248,21.2387125 229.241579,21.1380758 229.057807,21.1205738 L229.280958,16.2637607 Z" id="Path"></path>
            <path d="M244.586483,14.5441863 C244.586483,13.0040077 244.888393,11.6388494 245.492213,10.4487114 C246.096033,9.25857346 246.931755,8.33752917 247.999379,7.68557858 C249.067002,7.03362799 250.279018,6.7076527 251.635425,6.7076527 C253.31562,6.7076527 254.615146,7.16708097 255.534002,8.0859375 C256.452859,9.00479403 256.942915,10.3305727 257.004173,12.0632736 L257.004173,12.5358284 C257.004173,13.454685 256.951666,14.1547661 256.846654,14.6360719 L247.749975,14.6360719 C247.784979,15.9224711 248.003754,16.9900949 248.406301,17.8389433 C248.808847,18.6877917 249.338284,19.3134892 249.99461,19.7160359 C250.650936,20.1185826 251.390397,20.3198559 252.212992,20.3198559 C252.930575,20.3198559 253.667848,20.195154 254.424811,19.9457501 C255.181774,19.6963461 255.774655,19.4097504 256.203455,19.0859629 L256.754769,20.346109 C256.42223,20.6873985 255.96499,21.0111861 255.383047,21.3174716 C254.801105,21.6237571 254.15353,21.8709733 253.440322,22.0591201 C252.727114,22.2472669 252.02047,22.3413403 251.320389,22.3413403 C249.850218,22.3413403 248.609762,22.015365 247.59902,21.3634144 C246.588277,20.7114638 245.833502,19.8013583 245.334695,18.6330979 C244.835887,17.4648374 244.586483,16.1018669 244.586483,14.5441863 Z M253.853807,13.1133954 C253.888811,12.7983589 253.906313,12.4220652 253.906313,11.9845145 C253.897562,10.8731357 253.665661,9.98053216 253.210608,9.30670404 C252.755555,8.63287591 252.037972,8.29596185 251.057858,8.29596185 C250.077745,8.29596185 249.301092,8.66131671 248.727901,9.39202643 C248.154709,10.1227362 247.828734,11.3631925 247.749975,13.1133954 L253.853807,13.1133954 Z" id="Shape"></path>
            <path d="M261.349051,20.4117416 L261.349051,9.38546317 L259.485085,8.86040229 L259.485085,7.28521966 L263.23927,6.76015879 L263.304903,6.76015879 L263.934976,7.27209314 L263.934976,8.09906402 L263.908723,9.80551187 L263.934976,9.80551187 C264.092494,9.51672839 264.396592,9.12949599 264.847269,8.64381468 C265.297947,8.15813337 265.879889,7.71401938 266.593097,7.31147271 C267.306305,6.90892603 268.082957,6.7076527 268.923054,6.7076527 C269.264344,6.7076527 269.553128,6.75578328 269.789405,6.85204444 L269.789405,10.0811688 C269.623136,9.98490767 269.402173,9.90396079 269.126516,9.83832818 C268.850859,9.77269557 268.555512,9.73987926 268.240475,9.73987926 C267.356623,9.73987926 266.593097,9.84707919 265.949897,10.061479 C265.306698,10.2758789 264.770698,10.5449726 264.341898,10.8687601 L264.341898,20.3986151 L267.794174,20.6348925 L267.794174,22.0394303 L259.288187,22.0394303 L259.288187,20.6217659 L261.349051,20.4117416 Z" id="Path"></path>
            <polygon id="Path" points="270.406351 8.5059862 270.406351 7.11457488 276.969612 7.11457488 276.969612 8.5059862 275.000634 8.84727577 277.573432 16.2637607 278.728566 19.794795 279.699929 16.3950259 282.180842 8.84727577 280.369382 8.5059862 280.369382 7.11457488 285.9219 7.11457488 285.9219 8.5059862 284.556742 8.86040229 279.489905 22.2494546 277.022119 22.2494546 271.640245 8.84727577"></polygon>
            <path d="M288.941,20.3854885 L288.941,9.38546317 L287.037655,8.84727577 L287.037655,7.29834619 L291.211889,6.76015879 L291.277521,6.76015879 L291.946974,7.27209314 L291.946974,20.3854885 L294.047217,20.6086394 L294.047217,22.0394303 L286.814504,22.0394303 L286.814504,20.6086394 L288.941,20.3854885 Z M288.402813,2.49403916 C288.402813,1.89897017 288.575646,1.39578683 288.921311,0.984489144 C289.266976,0.573191457 289.750469,0.367542614 290.371791,0.367542614 L290.384918,0.367542614 C290.75246,0.367542614 291.071872,0.452865006 291.343154,0.623509791 C291.614435,0.794154576 291.822272,1.0194932 291.966664,1.29952567 C292.111055,1.57955814 292.183251,1.87709263 292.183251,2.19212916 C292.183251,2.80470018 292.008231,3.30788352 291.65819,3.70167918 C291.30815,4.09547484 290.800591,4.29237267 290.135514,4.29237267 L290.122387,4.29237267 C289.614829,4.29237267 289.201343,4.12172788 288.881931,3.78043831 C288.562519,3.43914874 288.402813,3.01034903 288.402813,2.49403916 Z" id="Shape"></path>
            <path d="M303.353921,6.7076527 C304.614068,6.7076527 305.961724,6.97893415 307.39689,7.52149706 L307.265625,11.5644658 L305.441038,11.5644658 L304.837218,9.10980621 C304.714704,8.82102273 304.471864,8.60662287 304.108696,8.46660664 C303.745529,8.3265904 303.310166,8.25658228 302.802608,8.25658228 C302.032518,8.25658228 301.363066,8.46879439 300.79425,8.8932186 C300.225434,9.31764281 299.783508,9.95209137 299.468471,10.7965643 C299.153434,11.6410372 298.995916,12.6845957 298.995916,13.9272398 C298.995916,15.3711572 299.184063,16.5700462 299.560357,17.5239068 C299.93665,18.4777673 300.448585,19.182224 301.09616,19.6372768 C301.743735,20.0923295 302.474445,20.3198559 303.288289,20.3198559 C304.049627,20.3198559 304.751896,20.2082805 305.395096,19.9851296 C306.038295,19.7619787 306.587421,19.4885095 307.042474,19.164722 L307.606915,20.372362 C307.291878,20.6961496 306.871829,21.0089983 306.346768,21.3109083 C305.821708,21.6128183 305.233202,21.8600345 304.581251,22.0525568 C303.929301,22.2450791 303.275162,22.3413403 302.618836,22.3413403 C301.139915,22.3413403 299.88852,22.0131773 298.864651,21.3568512 C297.840782,20.7005251 297.072881,19.8013583 296.560946,18.6593509 C296.049012,17.5173435 295.793045,16.2200056 295.793045,14.7673372 C295.793045,13.2709137 296.081828,11.9123186 296.659395,10.6915521 C297.236962,9.47078556 298.094562,8.50161069 299.232194,7.7840275 C300.369825,7.0664443 301.743735,6.7076527 303.353921,6.7076527 Z" id="Path"></path>
            <path d="M309.641525,14.5441863 C309.641525,13.0040077 309.943435,11.6388494 310.547255,10.4487114 C311.151075,9.25857346 311.986797,8.33752917 313.054421,7.68557858 C314.122045,7.03362799 315.33406,6.7076527 316.690468,6.7076527 C318.370663,6.7076527 319.670188,7.16708097 320.589045,8.0859375 C321.507901,9.00479403 321.997958,10.3305727 322.059215,12.0632736 L322.059215,12.5358284 C322.059215,13.454685 322.006709,14.1547661 321.901697,14.6360719 L312.805017,14.6360719 C312.840021,15.9224711 313.058797,16.9900949 313.461343,17.8389433 C313.86389,18.6877917 314.393326,19.3134892 315.049652,19.7160359 C315.705979,20.1185826 316.445439,20.3198559 317.268035,20.3198559 C317.985618,20.3198559 318.722891,20.195154 319.479854,19.9457501 C320.236816,19.6963461 320.829698,19.4097504 321.258497,19.0859629 L321.809811,20.346109 C321.477273,20.6873985 321.020032,21.0111861 320.43809,21.3174716 C319.856147,21.6237571 319.208572,21.8709733 318.495364,22.0591201 C317.782157,22.2472669 317.075512,22.3413403 316.375431,22.3413403 C314.905261,22.3413403 313.664804,22.015365 312.654062,21.3634144 C311.64332,20.7114638 310.888545,19.8013583 310.389737,18.6330979 C309.890929,17.4648374 309.641525,16.1018669 309.641525,14.5441863 Z M318.90885,13.1133954 C318.943854,12.7983589 318.961356,12.4220652 318.961356,11.9845145 C318.952605,10.8731357 318.720703,9.98053216 318.26565,9.30670404 C317.810598,8.63287591 317.093014,8.29596185 316.112901,8.29596185 C315.132787,8.29596185 314.356135,8.66131671 313.782943,9.39202643 C313.209752,10.1227362 312.883776,11.3631925 312.805017,13.1133954 L318.90885,13.1133954 Z" id="Shape"></path>
            <path d="M326.535359,17.7733107 L327.06042,19.768542 C327.165432,19.9523133 327.368893,20.1273336 327.670803,20.2936029 C327.972713,20.4598722 328.329317,20.5955129 328.740615,20.7005251 C329.151913,20.8055372 329.571961,20.8580433 330.000761,20.8580433 C330.989626,20.8580433 331.694082,20.6720843 332.114131,20.3001661 C332.53418,19.928248 332.744204,19.4185014 332.744204,18.7709263 C332.744204,18.3158736 332.602,17.9155147 332.317592,17.5698496 C332.033184,17.2241845 331.610948,16.8982092 331.050883,16.5919237 C330.490818,16.2856382 329.72948,15.9399731 328.766868,15.5549285 C327.375457,15.0123656 326.360339,14.3713537 325.721515,13.631893 C325.082691,12.8924323 324.763279,11.9363839 324.763279,10.763748 C324.763279,9.97615666 325.001744,9.28263875 325.478674,8.68319425 C325.955604,8.08374975 326.609743,7.61775822 327.441089,7.28521966 C328.272436,6.95268111 329.208794,6.78641183 330.250165,6.78641183 C331.055258,6.78641183 331.76409,6.84985669 332.376661,6.9767464 C332.989232,7.10363611 333.606179,7.26771763 334.227501,7.46899097 L334.700056,7.61338271 L334.700056,10.9343928 L333.019861,10.9343928 L332.455421,9.09667969 C332.350408,8.86915331 332.068188,8.67225548 331.60876,8.5059862 C331.149332,8.33971692 330.63521,8.25658228 330.066394,8.25658228 C329.2613,8.25658228 328.639978,8.42722707 328.202427,8.76851664 C327.764877,9.10980621 327.546101,9.55610795 327.546101,10.1074219 C327.546101,10.5974787 327.675179,11.0087764 327.933334,11.3413149 C328.191489,11.6738535 328.513088,11.9451349 328.898133,12.1551593 C329.283178,12.3651836 329.821365,12.6145876 330.512695,12.903371 L331.02463,13.1265219 C332.022245,13.5553216 332.831714,13.9578683 333.453036,14.3341619 C334.074358,14.7104556 334.590668,15.1917614 335.001966,15.7780793 C335.413263,16.3643973 335.618912,17.0819805 335.618912,17.9308289 C335.618912,18.8059304 335.389198,19.5760197 334.92977,20.2410968 C334.470342,20.9061739 333.805265,21.4224838 332.934539,21.7900264 C332.063813,22.157569 331.033381,22.3413403 329.843243,22.3413403 C328.950639,22.3413403 328.014281,22.2188261 327.034167,21.9737977 C326.054053,21.7287693 325.270838,21.4749899 324.68452,21.2124594 L324.68452,17.7733107 L326.535359,17.7733107 Z" id="Path"></path>
            <polygon id="Path" points="3.04535308 51.2936029 3.04535308 34.8460709 0.879476968 34.5179079 0.879476968 33.0608639 14.5573128 33.0608639 14.9248554 37.2219714 13.2315341 37.2219714 12.4176897 34.7279322 6.13008573 34.5572874 6.13008573 41.9737723 10.3962054 41.8950132 10.790001 39.7160106 12.4833223 39.7160106 12.4833223 45.9379819 10.790001 45.9379819 10.4093319 43.6277141 6.13008573 43.5620815 6.13008573 51.4117416 13.3496728 51.1229581 14.8329698 47.8282011 16.5131646 48.3270089 15.7386998 53.0394303 0.840097403 53.0394303 0.840097403 51.6086394"></polygon>
            <path d="M20.2148438,51.3854885 L20.2148438,40.3854632 L18.3377511,39.8604023 L18.3377511,38.2852197 L22.2232016,37.7601588 L22.2888342,37.7601588 L22.9057807,38.2720931 L22.9057807,39.3353414 L22.8926542,39.9391614 C23.2952009,39.5803698 23.800572,39.2347047 24.4087675,38.9021662 C25.016963,38.5696276 25.6689136,38.2983462 26.3646193,38.0883218 C27.0603249,37.8782975 27.7188388,37.7732853 28.3401608,37.7732853 C29.4777927,37.7732853 30.3572697,37.9854974 30.9785917,38.4099216 C31.5999138,38.8343458 32.033089,39.4884842 32.2781174,40.3723366 C32.5231458,41.2561891 32.64566,42.4550781 32.64566,43.9690037 L32.64566,51.3854885 L34.5358792,51.6086394 L34.5358792,53.0394303 L27.9463652,53.0394303 L27.9463652,51.6086394 L29.62656,51.3854885 L29.62656,43.9558771 C29.62656,42.9407594 29.5587396,42.1422294 29.4230989,41.5602869 C29.2874581,40.9783444 29.031491,40.5407937 28.6551973,40.2476347 C28.2789037,39.9544757 27.7232143,39.8078962 26.9881291,39.8078962 C26.358056,39.8078962 25.7017299,39.9435369 25.0191508,40.2148184 C24.3365716,40.4860998 23.7371271,40.8142629 23.2208173,41.1993075 L23.2208173,51.3854885 L25.0322773,51.6086394 L25.0322773,53.0394303 L18.4952694,53.0394303 L18.4952694,51.6086394 L20.2148438,51.3854885 Z" id="Path"></path>
            <path d="M36.0848087,39.9916675 L36.0848087,38.7446479 C36.3298372,38.6833908 36.6120574,38.5958807 36.9314694,38.4821175 C37.2508814,38.3683543 37.458718,38.2808442 37.5549792,38.2195871 C37.8437627,38.0095627 38.0800401,37.6682731 38.2638114,37.1957183 C38.3950766,36.8981838 38.5679091,36.4234413 38.782309,35.7714907 C38.9967089,35.1195401 39.1432884,34.6272956 39.2220475,34.294757 L40.9284953,34.294757 L40.9547484,38.1145749 L45.3652597,38.1145749 L45.3652597,39.9916675 L40.9678749,39.9916675 L40.9678749,47.9332133 C40.9678749,49.0008371 40.9985034,49.7424855 41.0597606,50.1581587 C41.1210177,50.5738319 41.2457196,50.8407379 41.4338664,50.9588766 C41.6220132,51.0770153 41.9654906,51.1360846 42.4642984,51.1360846 L42.4774249,51.1360846 C42.9324777,51.1360846 43.4465998,51.079203 44.0197912,50.9654398 C44.5929827,50.8516766 45.0370967,50.7335379 45.3521332,50.6110237 L45.3652597,50.6110237 L45.8115615,51.8842964 C45.549031,52.1030717 45.1552354,52.3240349 44.6301745,52.5471857 C44.1051136,52.7703366 43.5406732,52.9562957 42.9368532,53.1050629 C42.3330332,53.2538302 41.7773438,53.3282138 41.2697849,53.3282138 L41.2435319,53.3282138 C40.158406,53.3282138 39.3401862,53.0897486 38.7888723,52.6128183 C38.2375583,52.135888 37.9619014,51.337358 37.9619014,50.2172281 L37.9619014,39.9916675 L36.0848087,39.9916675 Z" id="Path"></path>
            <path d="M47.2686054,45.5441863 C47.2686054,44.0040077 47.5705154,42.6388494 48.1743354,41.4487114 C48.7781554,40.2585735 49.6138773,39.3375292 50.6815011,38.6855786 C51.7491249,38.033628 52.9611404,37.7076527 54.3175477,37.7076527 C55.9977425,37.7076527 57.2972682,38.167081 58.2161247,39.0859375 C59.1349812,40.004794 59.625038,41.3305727 59.6862952,43.0632736 L59.6862952,43.5358284 C59.6862952,44.454685 59.6337891,45.1547661 59.5287769,45.6360719 L50.4320972,45.6360719 C50.4671013,46.9224711 50.6858766,47.9900949 51.0884233,48.8389433 C51.49097,49.6877917 52.0204064,50.3134892 52.6767324,50.7160359 C53.3330585,51.1185826 54.0725193,51.3198559 54.8951147,51.3198559 C55.6126978,51.3198559 56.3499708,51.195154 57.1069336,50.9457501 C57.8638964,50.6963461 58.4567776,50.4097504 58.8855773,50.0859629 L59.4368912,51.346109 C59.1043527,51.6873985 58.6471122,52.0111861 58.0651697,52.3174716 C57.4832272,52.6237571 56.8356521,52.8709733 56.1224445,53.0591201 C55.4092368,53.2472669 54.7025923,53.3413403 54.0025112,53.3413403 C52.5323407,53.3413403 51.2918844,53.015365 50.2811422,52.3634144 C49.2704,51.7114638 48.515625,50.8013583 48.0168172,49.6330979 C47.5180093,48.4648374 47.2686054,47.1018669 47.2686054,45.5441863 Z M56.5359299,44.1133954 C56.5709339,43.7983589 56.588436,43.4220652 56.588436,42.9845145 C56.579685,41.8731357 56.3477831,40.9805322 55.8927303,40.306704 C55.4376776,39.6328759 54.7200944,39.2959619 53.7399807,39.2959619 C52.7598671,39.2959619 51.9832145,39.6613167 51.4100231,40.3920264 C50.8368316,41.1227362 50.5108563,42.3631925 50.4320972,44.1133954 L56.5359299,44.1133954 Z" id="Shape"></path>
            <path d="M64.0311739,51.4117416 L64.0311739,40.3854632 L62.1672078,39.8604023 L62.1672078,38.2852197 L65.9213931,37.7601588 L65.9870257,37.7601588 L66.6170987,38.2720931 L66.6170987,39.099064 L66.5908457,40.8055119 L66.6170987,40.8055119 C66.774617,40.5167284 67.0787147,40.129496 67.529392,39.6438147 C67.9800692,39.1581334 68.5620117,38.7140194 69.2752194,38.3114727 C69.9884271,37.908926 70.7650796,37.7076527 71.605177,37.7076527 C71.9464666,37.7076527 72.2352501,37.7557833 72.4715275,37.8520444 L72.4715275,41.0811688 C72.3052582,40.9849077 72.0842951,40.9039608 71.8086381,40.8383282 C71.5329812,40.7726956 71.2376344,40.7398793 70.9225979,40.7398793 C70.0387454,40.7398793 69.2752194,40.8470792 68.6320198,41.061479 C67.9888203,41.2758789 67.4528206,41.5449726 67.0240209,41.8687601 L67.0240209,51.3986151 L70.4762962,51.6348925 L70.4762962,53.0394303 L61.97031,53.0394303 L61.97031,51.6217659 L64.0311739,51.4117416 Z" id="Path"></path>
            <path d="M81.3450563,53.3413403 C80.9512607,53.3413403 80.5180854,53.308524 80.0455306,53.2428914 C79.5729759,53.1772588 79.1748047,53.1006874 78.8510171,53.0131773 L78.9297763,55.244686 L78.9297763,57.8437373 L81.6207133,58.1325208 L81.6207133,59.5501852 L73.994204,59.5501852 L73.994204,58.1325208 L75.9500558,57.8306108 L75.9500558,40.3854632 L74.0729632,39.8604023 L74.0729632,38.2852197 L77.9452871,37.7601588 L78.0109197,37.7601588 L78.6016132,38.2720931 L78.6016132,39.7685166 C79.1266741,39.1909497 79.7742492,38.7030806 80.5443385,38.3049094 C81.3144278,37.9067383 82.1851537,37.7076527 83.1565163,37.7076527 C84.2241401,37.7076527 85.1998782,37.9679954 86.0837307,38.4886808 C86.9675832,39.0093661 87.6764154,39.818835 88.2102273,40.9170873 C88.7440392,42.0153396 89.0109451,43.3914367 89.0109451,45.0453784 C89.0109451,46.576806 88.6980963,47.9725928 88.0723988,49.2327389 C87.4467012,50.492885 86.5540978,51.4926885 85.3945883,52.2321492 C84.2350789,52.9716099 82.8852349,53.3413403 81.3450563,53.3413403 Z M78.9297763,51.0179459 C79.0522905,51.2367213 79.3520127,51.4292436 79.828943,51.5955129 C80.3058733,51.7617822 80.841873,51.8449168 81.436942,51.8449168 C82.2857904,51.8449168 83.0361899,51.6195782 83.6881405,51.1689009 C84.3400911,50.7182237 84.8542132,50.005016 85.2305068,49.0292779 C85.6068004,48.0535397 85.7949472,46.8130834 85.7949472,45.3079089 C85.7949472,44.0390118 85.6264902,42.98889 85.2895761,42.1575436 C84.9526621,41.3261972 84.4954216,40.7114385 83.9178546,40.3132673 C83.3402876,39.9150961 82.679586,39.7160106 81.9357498,39.7160106 C81.3144278,39.7160106 80.7368608,39.8429003 80.2030489,40.0966797 C79.669237,40.3504591 79.2448128,40.6479936 78.9297763,40.9892832 L78.9297763,51.0179459 Z" id="Shape"></path>
            <path d="M93.3952034,51.4117416 L93.3952034,40.3854632 L91.5312373,39.8604023 L91.5312373,38.2852197 L95.2854226,37.7601588 L95.3510552,37.7601588 L95.9811282,38.2720931 L95.9811282,39.099064 L95.9548752,40.8055119 L95.9811282,40.8055119 C96.1386465,40.5167284 96.4427443,40.129496 96.8934215,39.6438147 C97.3440988,39.1581334 97.9260412,38.7140194 98.6392489,38.3114727 C99.3524566,37.908926 100.129109,37.7076527 100.969207,37.7076527 C101.310496,37.7076527 101.59928,37.7557833 101.835557,37.8520444 L101.835557,41.0811688 C101.669288,40.9849077 101.448325,40.9039608 101.172668,40.8383282 C100.897011,40.7726956 100.601664,40.7398793 100.286627,40.7398793 C99.402775,40.7398793 98.6392489,40.8470792 97.9960494,41.061479 C97.3528498,41.2758789 96.8168501,41.5449726 96.3880504,41.8687601 L96.3880504,51.3986151 L99.8403257,51.6348925 L99.8403257,53.0394303 L91.3343395,53.0394303 L91.3343395,51.6217659 L93.3952034,51.4117416 Z" id="Path"></path>
            <path d="M105.642248,51.3854885 L105.642248,40.3854632 L103.738903,39.8472758 L103.738903,38.2983462 L107.913137,37.7601588 L107.978769,37.7601588 L108.648222,38.2720931 L108.648222,51.3854885 L110.748465,51.6086394 L110.748465,53.0394303 L103.515752,53.0394303 L103.515752,51.6086394 L105.642248,51.3854885 Z M105.104061,33.4940392 C105.104061,32.8989702 105.276894,32.3957868 105.622559,31.9844891 C105.968224,31.5731915 106.451717,31.3675426 107.073039,31.3675426 L107.086166,31.3675426 C107.453708,31.3675426 107.77312,31.452865 108.044402,31.6235098 C108.315683,31.7941546 108.52352,32.0194932 108.667912,32.2995257 C108.812303,32.5795581 108.884499,32.8770926 108.884499,33.1921292 C108.884499,33.8047002 108.709479,34.3078835 108.359438,34.7016792 C108.009398,35.0954748 107.501839,35.2923727 106.836762,35.2923727 L106.823635,35.2923727 C106.316077,35.2923727 105.902591,35.1217279 105.583179,34.7804383 C105.263767,34.4391487 105.104061,34.010349 105.104061,33.4940392 Z" id="Shape"></path>
            <path d="M114.896446,48.7733107 L115.421507,50.768542 C115.526519,50.9523133 115.72998,51.1273336 116.03189,51.2936029 C116.3338,51.4598722 116.690404,51.5955129 117.101702,51.7005251 C117.513,51.8055372 117.933048,51.8580433 118.361848,51.8580433 C119.350713,51.8580433 120.055169,51.6720843 120.475218,51.3001661 C120.895267,50.928248 121.105291,50.4185014 121.105291,49.7709263 C121.105291,49.3158736 120.963087,48.9155147 120.678679,48.5698496 C120.394271,48.2241845 119.972035,47.8982092 119.41197,47.5919237 C118.851905,47.2856382 118.090567,46.9399731 117.127955,46.5549285 C115.736544,46.0123656 114.721426,45.3713537 114.082602,44.631893 C113.443778,43.8924323 113.124366,42.9363839 113.124366,41.763748 C113.124366,40.9761567 113.362831,40.2826387 113.839761,39.6831942 C114.316692,39.0837497 114.97083,38.6177582 115.802176,38.2852197 C116.633523,37.9526811 117.569881,37.7864118 118.611252,37.7864118 C119.416345,37.7864118 120.125178,37.8498567 120.737749,37.9767464 C121.35032,38.1036361 121.967266,38.2677176 122.588588,38.468991 L123.061143,38.6133827 L123.061143,41.9343928 L121.380948,41.9343928 L120.816508,40.0966797 C120.711496,39.8691533 120.429275,39.6722555 119.969847,39.5059862 C119.510419,39.3397169 118.996297,39.2565823 118.427481,39.2565823 C117.622387,39.2565823 117.001065,39.4272271 116.563515,39.7685166 C116.125964,40.1098062 115.907189,40.556108 115.907189,41.1074219 C115.907189,41.5974787 116.036266,42.0087764 116.294421,42.3413149 C116.552576,42.6738535 116.874176,42.9451349 117.25922,43.1551593 C117.644265,43.3651836 118.182452,43.6145876 118.873782,43.903371 L119.385717,44.1265219 C120.383332,44.5553216 121.192801,44.9578683 121.814123,45.3341619 C122.435445,45.7104556 122.951755,46.1917614 123.363053,46.7780793 C123.774351,47.3643973 123.979999,48.0819805 123.979999,48.9308289 C123.979999,49.8059304 123.750285,50.5760197 123.290857,51.2410968 C122.831429,51.9061739 122.166352,52.4224838 121.295626,52.7900264 C120.4249,53.157569 119.394468,53.3413403 118.20433,53.3413403 C117.311726,53.3413403 116.375368,53.2188261 115.395254,52.9737977 C114.415141,52.7287693 113.631925,52.4749899 113.045607,52.2124594 L113.045607,48.7733107 L114.896446,48.7733107 Z" id="Path"></path>
            <path d="M126.290267,45.5441863 C126.290267,44.0040077 126.592177,42.6388494 127.195997,41.4487114 C127.799817,40.2585735 128.635539,39.3375292 129.703163,38.6855786 C130.770787,38.033628 131.982802,37.7076527 133.33921,37.7076527 C135.019404,37.7076527 136.31893,38.167081 137.237787,39.0859375 C138.156643,40.004794 138.6467,41.3305727 138.707957,43.0632736 L138.707957,43.5358284 C138.707957,44.454685 138.655451,45.1547661 138.550439,45.6360719 L129.453759,45.6360719 C129.488763,46.9224711 129.707539,47.9900949 130.110085,48.8389433 C130.512632,49.6877917 131.042068,50.3134892 131.698394,50.7160359 C132.35472,51.1185826 133.094181,51.3198559 133.916777,51.3198559 C134.63436,51.3198559 135.371633,51.195154 136.128596,50.9457501 C136.885558,50.6963461 137.47844,50.4097504 137.907239,50.0859629 L138.458553,51.346109 C138.126015,51.6873985 137.668774,52.0111861 137.086832,52.3174716 C136.504889,52.6237571 135.857314,52.8709733 135.144106,53.0591201 C134.430899,53.2472669 133.724254,53.3413403 133.024173,53.3413403 C131.554003,53.3413403 130.313546,53.015365 129.302804,52.3634144 C128.292062,51.7114638 127.537287,50.8013583 127.038479,49.6330979 C126.539671,48.4648374 126.290267,47.1018669 126.290267,45.5441863 Z M135.557592,44.1133954 C135.592596,43.7983589 135.610098,43.4220652 135.610098,42.9845145 C135.601347,41.8731357 135.369445,40.9805322 134.914392,40.306704 C134.459339,39.6328759 133.741756,39.2959619 132.761643,39.2959619 C131.781529,39.2959619 131.004876,39.6613167 130.431685,40.3920264 C129.858494,41.1227362 129.532518,42.3631925 129.453759,44.1133954 L135.557592,44.1133954 Z" id="Shape"></path>
            <path d="M148.723493,43.0370206 C148.723493,40.9717811 149.150105,39.1690721 150.003329,37.6288936 C150.856553,36.088715 152.022626,34.907328 153.501547,34.0847327 C154.980469,33.2621373 156.634411,32.8508396 158.463373,32.8508396 C159.30347,32.8508396 160.115127,32.9120967 160.898342,33.0346109 C161.681558,33.1571251 162.567598,33.3190189 163.556463,33.5202922 L164.265295,33.6646839 L164.015891,38.5740031 L162.06004,38.5740031 L161.324954,35.2267401 C161.141183,34.9817116 160.769265,34.7870016 160.2092,34.6426098 C159.649135,34.4982181 158.91405,34.4260222 158.003944,34.4260222 C156.883814,34.4260222 155.892762,34.7454343 155.030787,35.3842583 C154.168812,36.0230824 153.494984,36.9660042 153.009303,38.2130238 C152.523621,39.4600434 152.280781,40.9630301 152.280781,42.7219841 C152.280781,44.3496728 152.497368,45.848284 152.930544,47.2178178 C153.363719,48.5873516 154.033171,49.6899795 154.938901,50.5257013 C155.844631,51.3614232 156.9757,51.7792842 158.332107,51.7792842 C159.741021,51.7792842 160.751763,51.4554967 161.364334,50.8079216 L162.506341,48.0382254 L164.370307,48.2876294 L163.79274,52.3043451 C163.556463,52.3218471 163.328937,52.3590389 163.110161,52.4159205 C162.891386,52.4728021 162.606978,52.5625 162.256937,52.6850142 C161.661868,52.8950386 161.093052,53.0569323 160.55049,53.1706955 C160.007927,53.2844587 159.338474,53.3413403 158.542132,53.3413403 C156.45939,53.3413403 154.682934,52.9322304 153.212764,52.1140105 C151.742593,51.2957906 150.626839,50.1165914 149.865501,48.5764128 C149.104162,47.0362343 148.723493,45.1897702 148.723493,43.0370206 Z" id="Path"></path>
            <path d="M167.297522,57.056146 C167.402534,57.1174031 167.616934,57.1720969 167.940721,57.2202275 C168.264509,57.2683581 168.570794,57.2924234 168.859578,57.2924234 C169.384639,57.2924234 169.868132,57.1852235 170.310059,56.9708236 C170.751985,56.7564238 171.200474,56.3385628 171.655527,55.7172408 C172.11058,55.0959187 172.552506,54.2033152 172.981306,53.0394303 L171.498009,53.0394303 L166.58869,39.8472758 L165.34167,39.5059862 L165.34167,38.1145749 L172.02307,38.1145749 L172.02307,39.5059862 L169.962206,39.8472758 L172.495624,47.775695 L173.663885,51.5823864 L174.714007,47.7625685 L177.089907,39.8341492 L175.330953,39.5059862 L175.330953,38.1145749 L180.844092,38.1145749 L180.844092,39.5059862 L179.505187,39.8341492 C178.245041,43.7546038 177.218985,46.8852793 176.427018,49.2261757 C175.635051,51.5670721 175.12968,52.9869242 174.910905,53.485732 C174.315836,54.9909066 173.753583,56.1810445 173.224146,57.056146 C172.69471,57.9312475 172.082139,58.5963246 171.386433,59.0513773 C170.690728,59.5064301 169.839692,59.7339565 168.833325,59.7339565 C168.562043,59.7339565 168.268884,59.7142667 167.953848,59.6748871 C167.638811,59.6355076 167.420036,59.5895647 167.297522,59.5370586 L167.297522,57.056146 Z" id="Path"></path>
            <path d="M180.804713,32.7983335 L180.804713,31.5644404 L185.228351,31 L185.293983,31 L185.950309,31.4463017 L185.950309,39.4666066 C186.466619,38.9590478 187.083566,38.5389991 187.801149,38.2064605 C188.518732,37.873922 189.315075,37.7076527 190.190176,37.7076527 C191.2578,37.7076527 192.233538,37.9658076 193.11739,38.4821175 C194.001243,38.9984274 194.710075,39.8057085 195.243887,40.9039608 C195.777699,42.0022131 196.044605,43.3826857 196.044605,45.0453784 C196.044605,46.585557 195.729568,47.9879071 195.099495,49.2524287 C194.469422,50.5169503 193.56588,51.514566 192.388868,52.2452757 C191.211857,52.9759854 189.840135,53.3413403 188.273704,53.3413403 C187.424855,53.3413403 186.617574,53.282271 185.851861,53.1641323 C185.086147,53.0459936 184.445135,52.9037896 183.928825,52.7375203 C183.412515,52.571251 183.093103,52.4268593 182.970589,52.3043451 L182.970589,33.0608639 L180.804713,32.7983335 Z M185.950309,50.9785664 C186.064073,51.2410968 186.357232,51.4489334 186.829786,51.6020761 C187.302341,51.7552189 187.84928,51.8317903 188.470602,51.8317903 C189.328201,51.8317903 190.082976,51.5911374 190.734927,51.1098316 C191.386877,50.6285258 191.896624,49.9043793 192.264166,48.9373922 C192.631709,47.9704051 192.81548,46.7780793 192.81548,45.360415 C192.81548,44.1002689 192.651399,43.0501471 192.323236,42.2100497 C191.995073,41.3699523 191.542208,40.7486303 190.964641,40.3460836 C190.387074,39.9435369 189.726372,39.7422636 188.982536,39.7422636 C188.352463,39.7422636 187.77052,39.8844676 187.236709,40.1688756 C186.702897,40.4532835 186.274097,40.7748833 185.950309,41.1336749 L185.950309,50.9785664 Z" id="Shape"></path>
            <path d="M198.276114,45.5441863 C198.276114,44.0040077 198.578024,42.6388494 199.181844,41.4487114 C199.785664,40.2585735 200.621385,39.3375292 201.689009,38.6855786 C202.756633,38.033628 203.968649,37.7076527 205.325056,37.7076527 C207.005251,37.7076527 208.304776,38.167081 209.223633,39.0859375 C210.142489,40.004794 210.632546,41.3305727 210.693803,43.0632736 L210.693803,43.5358284 C210.693803,44.454685 210.641297,45.1547661 210.536285,45.6360719 L201.439605,45.6360719 C201.474609,46.9224711 201.693385,47.9900949 202.095931,48.8389433 C202.498478,49.6877917 203.027914,50.3134892 203.684241,50.7160359 C204.340567,51.1185826 205.080027,51.3198559 205.902623,51.3198559 C206.620206,51.3198559 207.357479,51.195154 208.114442,50.9457501 C208.871404,50.6963461 209.464286,50.4097504 209.893085,50.0859629 L210.444399,51.346109 C210.111861,51.6873985 209.65462,52.0111861 209.072678,52.3174716 C208.490735,52.6237571 207.84316,52.8709733 207.129953,53.0591201 C206.416745,53.2472669 205.7101,53.3413403 205.010019,53.3413403 C203.539849,53.3413403 202.299393,53.015365 201.28865,52.3634144 C200.277908,51.7114638 199.523133,50.8013583 199.024325,49.6330979 C198.525517,48.4648374 198.276114,47.1018669 198.276114,45.5441863 Z M207.543438,44.1133954 C207.578442,43.7983589 207.595944,43.4220652 207.595944,42.9845145 C207.587193,41.8731357 207.355291,40.9805322 206.900238,40.306704 C206.445186,39.6328759 205.727602,39.2959619 204.747489,39.2959619 C203.767375,39.2959619 202.990723,39.6613167 202.417531,40.3920264 C201.84434,41.1227362 201.518364,42.3631925 201.439605,44.1133954 L207.543438,44.1133954 Z" id="Shape"></path>
            <path d="M215.038682,51.4117416 L215.038682,40.3854632 L213.174716,39.8604023 L213.174716,38.2852197 L216.928901,37.7601588 L216.994534,37.7601588 L217.624607,38.2720931 L217.624607,39.099064 L217.598354,40.8055119 L217.624607,40.8055119 C217.782125,40.5167284 218.086223,40.129496 218.5369,39.6438147 C218.987577,39.1581334 219.56952,38.7140194 220.282728,38.3114727 C220.995935,37.908926 221.772588,37.7076527 222.612685,37.7076527 C222.953975,37.7076527 223.242758,37.7557833 223.479036,37.8520444 L223.479036,41.0811688 C223.312766,40.9849077 223.091803,40.9039608 222.816146,40.8383282 C222.540489,40.7726956 222.245143,40.7398793 221.930106,40.7398793 C221.046254,40.7398793 220.282728,40.8470792 219.639528,41.061479 C218.996328,41.2758789 218.460329,41.5449726 218.031529,41.8687601 L218.031529,51.3986151 L221.483804,51.6348925 L221.483804,53.0394303 L212.977818,53.0394303 L212.977818,51.6217659 L215.038682,51.4117416 Z" id="Path"></path>
            <path d="M227.548257,48.7733107 L228.073318,50.768542 C228.17833,50.9523133 228.381792,51.1273336 228.683702,51.2936029 C228.985612,51.4598722 229.342215,51.5955129 229.753513,51.7005251 C230.164811,51.8055372 230.584859,51.8580433 231.013659,51.8580433 C232.002524,51.8580433 232.706981,51.6720843 233.127029,51.3001661 C233.547078,50.928248 233.757102,50.4185014 233.757102,49.7709263 C233.757102,49.3158736 233.614898,48.9155147 233.33049,48.5698496 C233.046082,48.2241845 232.623846,47.8982092 232.063781,47.5919237 C231.503716,47.2856382 230.742378,46.9399731 229.779766,46.5549285 C228.388355,46.0123656 227.373237,45.3713537 226.734413,44.631893 C226.095589,43.8924323 225.776177,42.9363839 225.776177,41.763748 C225.776177,40.9761567 226.014642,40.2826387 226.491572,39.6831942 C226.968503,39.0837497 227.622641,38.6177582 228.453987,38.2852197 C229.285334,37.9526811 230.221692,37.7864118 231.263063,37.7864118 C232.068156,37.7864118 232.776989,37.8498567 233.38956,37.9767464 C234.002131,38.1036361 234.619077,38.2677176 235.240399,38.468991 L235.712954,38.6133827 L235.712954,41.9343928 L234.032759,41.9343928 L233.468319,40.0966797 C233.363307,39.8691533 233.081086,39.6722555 232.621658,39.5059862 C232.16223,39.3397169 231.648108,39.2565823 231.079292,39.2565823 C230.274198,39.2565823 229.652876,39.4272271 229.215326,39.7685166 C228.777775,40.1098062 228.559,40.556108 228.559,41.1074219 C228.559,41.5974787 228.688077,42.0087764 228.946232,42.3413149 C229.204387,42.6738535 229.525987,42.9451349 229.911031,43.1551593 C230.296076,43.3651836 230.834263,43.6145876 231.525594,43.903371 L232.037528,44.1265219 C233.035144,44.5553216 233.844612,44.9578683 234.465934,45.3341619 C235.087256,45.7104556 235.603566,46.1917614 236.014864,46.7780793 C236.426162,47.3643973 236.631811,48.0819805 236.631811,48.9308289 C236.631811,49.8059304 236.402096,50.5760197 235.942668,51.2410968 C235.48324,51.9061739 234.818163,52.4224838 233.947437,52.7900264 C233.076711,53.157569 232.046279,53.3413403 230.856141,53.3413403 C229.963537,53.3413403 229.027179,53.2188261 228.047065,52.9737977 C227.066952,52.7287693 226.283736,52.4749899 225.697418,52.2124594 L225.697418,48.7733107 L227.548257,48.7733107 Z" id="Path"></path>
            <path d="M238.942078,45.5441863 C238.942078,44.0040077 239.243988,42.6388494 239.847808,41.4487114 C240.451628,40.2585735 241.28735,39.3375292 242.354974,38.6855786 C243.422598,38.033628 244.634613,37.7076527 245.991021,37.7076527 C247.671216,37.7076527 248.970741,38.167081 249.889598,39.0859375 C250.808454,40.004794 251.298511,41.3305727 251.359768,43.0632736 L251.359768,43.5358284 C251.359768,44.454685 251.307262,45.1547661 251.20225,45.6360719 L242.10557,45.6360719 C242.140574,46.9224711 242.35935,47.9900949 242.761896,48.8389433 C243.164443,49.6877917 243.693879,50.3134892 244.350205,50.7160359 C245.006532,51.1185826 245.745992,51.3198559 246.568588,51.3198559 C247.286171,51.3198559 248.023444,51.195154 248.780407,50.9457501 C249.537369,50.6963461 250.130251,50.4097504 250.55905,50.0859629 L251.110364,51.346109 C250.777826,51.6873985 250.320585,52.0111861 249.738643,52.3174716 C249.1567,52.6237571 248.509125,52.8709733 247.795917,53.0591201 C247.08271,53.2472669 246.376065,53.3413403 245.675984,53.3413403 C244.205814,53.3413403 242.965357,53.015365 241.954615,52.3634144 C240.943873,51.7114638 240.189098,50.8013583 239.69029,49.6330979 C239.191482,48.4648374 238.942078,47.1018669 238.942078,45.5441863 Z M248.209403,44.1133954 C248.244407,43.7983589 248.261909,43.4220652 248.261909,42.9845145 C248.253158,41.8731357 248.021256,40.9805322 247.566203,40.306704 C247.111151,39.6328759 246.393567,39.2959619 245.413454,39.2959619 C244.43334,39.2959619 243.656688,39.6613167 243.083496,40.3920264 C242.510305,41.1227362 242.184329,42.3631925 242.10557,44.1133954 L248.209403,44.1133954 Z" id="Shape"></path>
            <path d="M260.994635,37.7076527 C262.254781,37.7076527 263.602438,37.9789342 265.037604,38.5214971 L264.906339,42.5644658 L263.081752,42.5644658 L262.477932,40.1098062 C262.355418,39.8210227 262.112577,39.6066229 261.74941,39.4666066 C261.386243,39.3265904 260.95088,39.2565823 260.443321,39.2565823 C259.673232,39.2565823 259.003779,39.4687944 258.434963,39.8932186 C257.866148,40.3176428 257.424221,40.9520914 257.109185,41.7965643 C256.794148,42.6410372 256.63663,43.6845957 256.63663,44.9272398 C256.63663,46.3711572 256.824777,47.5700462 257.20107,48.5239068 C257.577364,49.4777673 258.089298,50.182224 258.736873,50.6372768 C259.384449,51.0923295 260.115158,51.3198559 260.929003,51.3198559 C261.690341,51.3198559 262.39261,51.2082805 263.035809,50.9851296 C263.679009,50.7619787 264.228135,50.4885095 264.683188,50.164722 L265.247628,51.372362 C264.932592,51.6961496 264.512543,52.0089983 263.987482,52.3109083 C263.462421,52.6128183 262.873916,52.8600345 262.221965,53.0525568 C261.570014,53.2450791 260.915876,53.3413403 260.25955,53.3413403 C258.780629,53.3413403 257.529233,53.0131773 256.505365,52.3568512 C255.481496,51.7005251 254.713595,50.8013583 254.20166,49.6593509 C253.689726,48.5173435 253.433759,47.2200056 253.433759,45.7673372 C253.433759,44.2709137 253.722542,42.9123186 254.300109,41.6915521 C254.877676,40.4707856 255.735275,39.5016107 256.872907,38.7840275 C258.010539,38.0664443 259.384449,37.7076527 260.994635,37.7076527 Z" id="Path"></path>
            <path d="M278.085367,51.2542233 C277.525302,51.7967862 276.81647,52.2802798 275.95887,52.704704 C275.101271,53.1291282 274.23492,53.3413403 273.359819,53.3413403 C272.265942,53.3413403 271.377714,53.1466302 270.695135,52.7572101 C270.012556,52.3677899 269.509372,51.7486556 269.185585,50.8998072 C268.861797,50.0509588 268.699904,48.9308289 268.699904,47.5394176 L268.699904,39.9260349 L267.24286,39.4403536 L267.24286,38.167081 L271.12831,37.7732853 L271.141437,37.7732853 L271.692751,38.1277014 L271.692751,47.3950259 C271.692751,48.3926415 271.767134,49.1714818 271.915901,49.7315468 C272.064669,50.2916117 272.327199,50.7007216 272.703493,50.9588766 C273.079786,51.2170315 273.622349,51.346109 274.331182,51.346109 C275.013761,51.346109 275.648209,51.2148438 276.234527,50.9523133 C276.820845,50.6897829 277.328404,50.3878729 277.757204,50.0465833 L277.757204,39.9391614 L275.880111,39.4272271 L275.880111,38.1539544 L280.028092,37.7732853 L280.054345,37.7732853 L280.750051,38.1277014 L280.750051,51.5561333 L282.325233,51.5561333 L282.325233,52.8687855 C281.817675,53.0175528 281.377936,53.1335037 281.006018,53.2166383 C280.6341,53.299773 280.207488,53.3413403 279.726182,53.3413403 C279.166117,53.3413403 278.752632,53.2341404 278.485726,53.0197405 C278.21882,52.8053407 278.085367,52.4443613 278.085367,51.9368025 L278.085367,51.2542233 Z" id="Path"></path>
            <path d="M286.60448,51.4117416 L286.60448,40.3854632 L284.740513,39.8604023 L284.740513,38.2852197 L288.494699,37.7601588 L288.560331,37.7601588 L289.190404,38.2720931 L289.190404,39.099064 L289.164151,40.8055119 L289.190404,40.8055119 C289.347923,40.5167284 289.65202,40.129496 290.102698,39.6438147 C290.553375,39.1581334 291.135317,38.7140194 291.848525,38.3114727 C292.561733,37.908926 293.338385,37.7076527 294.178483,37.7076527 C294.519772,37.7076527 294.808556,37.7557833 295.044833,37.8520444 L295.044833,41.0811688 C294.878564,40.9849077 294.657601,40.9039608 294.381944,40.8383282 C294.106287,40.7726956 293.81094,40.7398793 293.495904,40.7398793 C292.612051,40.7398793 291.848525,40.8470792 291.205325,41.061479 C290.562126,41.2758789 290.026126,41.5449726 289.597327,41.8687601 L289.597327,51.3986151 L293.049602,51.6348925 L293.049602,53.0394303 L284.543616,53.0394303 L284.543616,51.6217659 L286.60448,51.4117416 Z" id="Path"></path>
            <path d="M298.851524,51.3854885 L298.851524,40.3854632 L296.948179,39.8472758 L296.948179,38.2983462 L301.122413,37.7601588 L301.188045,37.7601588 L301.857498,38.2720931 L301.857498,51.3854885 L303.957741,51.6086394 L303.957741,53.0394303 L296.725028,53.0394303 L296.725028,51.6086394 L298.851524,51.3854885 Z M298.313337,33.4940392 C298.313337,32.8989702 298.48617,32.3957868 298.831835,31.9844891 C299.1775,31.5731915 299.660993,31.3675426 300.282315,31.3675426 L300.295442,31.3675426 C300.662984,31.3675426 300.982397,31.452865 301.253678,31.6235098 C301.524959,31.7941546 301.732796,32.0194932 301.877188,32.2995257 C302.021579,32.5795581 302.093775,32.8770926 302.093775,33.1921292 C302.093775,33.8047002 301.918755,34.3078835 301.568714,34.7016792 C301.218674,35.0954748 300.711115,35.2923727 300.046038,35.2923727 L300.032911,35.2923727 C299.525353,35.2923727 299.111867,35.1217279 298.792455,34.7804383 C298.473043,34.4391487 298.313337,34.010349 298.313337,33.4940392 Z" id="Shape"></path>
            <path d="M305.572304,39.9916675 L305.572304,38.7446479 C305.817332,38.6833908 306.099552,38.5958807 306.418964,38.4821175 C306.738376,38.3683543 306.946213,38.2808442 307.042474,38.2195871 C307.331258,38.0095627 307.567535,37.6682731 307.751306,37.1957183 C307.882572,36.8981838 308.055404,36.4234413 308.269804,35.7714907 C308.484204,35.1195401 308.630783,34.6272956 308.709542,34.294757 L310.41599,34.294757 L310.442243,38.1145749 L314.852755,38.1145749 L314.852755,39.9916675 L310.45537,39.9916675 L310.45537,47.9332133 C310.45537,49.0008371 310.485998,49.7424855 310.547255,50.1581587 C310.608513,50.5738319 310.733215,50.8407379 310.921361,50.9588766 C311.109508,51.0770153 311.452985,51.1360846 311.951793,51.1360846 L311.96492,51.1360846 C312.419973,51.1360846 312.934095,51.079203 313.507286,50.9654398 C314.080478,50.8516766 314.524592,50.7335379 314.839628,50.6110237 L314.852755,50.6110237 L315.299056,51.8842964 C315.036526,52.1030717 314.64273,52.3240349 314.117669,52.5471857 C313.592609,52.7703366 313.028168,52.9562957 312.424348,53.1050629 C311.820528,53.2538302 311.264839,53.3282138 310.75728,53.3282138 L310.731027,53.3282138 C309.645901,53.3282138 308.827681,53.0897486 308.276367,52.6128183 C307.725053,52.135888 307.449396,51.337358 307.449396,50.2172281 L307.449396,39.9916675 L305.572304,39.9916675 Z" id="Path"></path>
            <path d="M317.556818,57.056146 C317.66183,57.1174031 317.87623,57.1720969 318.200018,57.2202275 C318.523805,57.2683581 318.830091,57.2924234 319.118874,57.2924234 C319.643935,57.2924234 320.127429,57.1852235 320.569355,56.9708236 C321.011281,56.7564238 321.459771,56.3385628 321.914823,55.7172408 C322.369876,55.0959187 322.811802,54.2033152 323.240602,53.0394303 L321.757305,53.0394303 L316.847986,39.8472758 L315.600966,39.5059862 L315.600966,38.1145749 L322.282366,38.1145749 L322.282366,39.5059862 L320.221502,39.8472758 L322.754921,47.775695 L323.923181,51.5823864 L324.973303,47.7625685 L327.349204,39.8341492 L325.59025,39.5059862 L325.59025,38.1145749 L331.103389,38.1145749 L331.103389,39.5059862 L329.764484,39.8341492 C328.504337,43.7546038 327.478281,46.8852793 326.686314,49.2261757 C325.894347,51.5670721 325.388976,52.9869242 325.170201,53.485732 C324.575132,54.9909066 324.012879,56.1810445 323.483443,57.056146 C322.954006,57.9312475 322.341435,58.5963246 321.64573,59.0513773 C320.950024,59.5064301 320.098988,59.7339565 319.092621,59.7339565 C318.82134,59.7339565 318.528181,59.7142667 318.213144,59.6748871 C317.898108,59.6355076 317.679332,59.5895647 317.556818,59.5370586 L317.556818,57.056146 Z" id="Path"></path>
        </g>
    </g>
</svg>