<?xml version="1.0" encoding="UTF-8"?>
<svg width="392px" height="64px" viewBox="0 0 392 64" version="1.1" xmlns="http://www.w3.org/2000/svg" xmlns:xlink="http://www.w3.org/1999/xlink">
    <title>logo/eac/color-dark/stacked/eac-logo-color-dark-stacked</title>
    <g id="logo/eac/color-dark/stacked/eac-logo-color-dark-stacked" stroke="none" stroke-width="1" fill="none" fill-rule="evenodd">
        <g id="Group">
            <path d="M32,64.0002 C14.327,64.0002 0,49.6732 0,32.0002 C0,14.3272 14.327,0.0002 32,0.0002 C49.673,0.0002 64,14.3272 64,32.0002 C64,49.6732 49.673,64.0002 32,64.0002 Z" id="circle" fill="#083C6F"></path>
            <path d="M50.7769,41.0042 L50.7769,41.6622 C50.7769,42.5542 50.0429,43.2872 49.1509,43.2872 L37.2449,43.2872 L38.1359,48.6382 L40.8639,48.6382 C41.8079,48.6382 41.7559,50.3682 40.8639,50.3682 L23.1359,50.3682 C22.2449,50.3682 22.2449,48.6382 23.1359,48.6382 L25.8639,48.6382 L26.7559,43.2872 L14.9019,43.2872 C13.9579,43.2872 13.2229,42.5542 13.2229,41.6622 L13.2229,41.0042 L50.7769,41.0042 Z M49.1509,16.5804 C50.0429,16.5804 50.7769,17.3134 50.7769,18.2584 L50.7769,38.6044 L13.2229,38.6044 L13.2229,18.2584 C13.2229,17.3134 13.9579,16.5804 14.9019,16.5804 L49.1509,16.5804 Z M32.2229,18.5804 C29.2314,18.5804 26.7979,21.0524014 26.7979,24.0907233 L26.7979,25.9598347 L25.6599,25.9598347 C24.8659,25.9598347 24.2229,26.6135158 24.2229,27.4195701 L24.2229,34.5804 C24.2229,35.3869622 24.8659,36.0401354 25.6599,36.0401354 L38.7859,36.0401354 C39.5789,36.0401354 40.2229,35.3869622 40.2229,34.5804 L40.2229,27.4195701 C40.2229,26.6135158 39.5789,25.9598347 38.7859,25.9598347 L37.6469,25.9598347 L37.6469,24.0907233 C37.6469,21.0524014 35.2139,18.5804 32.2229,18.5804 Z M32.2234055,21.5804 C33.8773229,21.5804 35.2229,22.9652154 35.2229,24.6667235 L35.2229,26.0804 L29.2229,26.0804 L29.2229,24.6667235 C29.2229,22.9652154 30.5689826,21.5804 32.2234055,21.5804 Z" id="icon" fill="#F5EA14"></path>
        </g>
        <g id="Enterprise-Applicati" transform="translate(72.866350, 3.960570)" fill="#000000">
            <polygon id="Path" points="2.59905134 20.2936029 2.59905134 3.84607092 0.433175223 3.51790787 0.433175223 2.06086394 14.1110111 2.06086394 14.4785537 6.22197139 12.7852323 6.22197139 11.971388 3.72793222 5.68378399 3.55728744 5.68378399 10.9737723 9.94990361 10.8950132 10.3436993 8.71601055 12.0370206 8.71601055 12.0370206 14.9379819 10.3436993 14.9379819 9.96303013 12.6277141 5.68378399 12.5620815 5.68378399 20.4117416 12.903371 20.1229581 14.386668 16.8282011 16.0668628 17.3270089 15.292398 22.0394303 0.393795657 22.0394303 0.393795657 20.6086394"></polygon>
            <path d="M19.768542,20.3854885 L19.768542,9.38546317 L17.8914494,8.86040229 L17.8914494,7.28521966 L21.7768999,6.76015879 L21.8425325,6.76015879 L22.459479,7.27209314 L22.459479,8.33534142 L22.4463525,8.93916142 C22.8488991,8.58036983 23.3542702,8.23470475 23.9624658,7.90216619 C24.5706613,7.56962764 25.2226119,7.29834619 25.9183175,7.08832183 C26.6140232,6.87829748 27.272537,6.77328531 27.8938591,6.77328531 C29.031491,6.77328531 29.9109679,6.98549741 30.53229,7.40992162 C31.153612,7.83434583 31.5867872,8.48848417 31.8318156,9.37233665 C32.0768441,10.2561891 32.1993583,11.4550781 32.1993583,12.9690037 L32.1993583,20.3854885 L34.0895774,20.6086394 L34.0895774,22.0394303 L27.5000634,22.0394303 L27.5000634,20.6086394 L29.1802582,20.3854885 L29.1802582,12.9558771 C29.1802582,11.9407594 29.1124379,11.1422294 28.9767971,10.5602869 C28.8411564,9.97834441 28.5851892,9.54079368 28.2088956,9.24763469 C27.832602,8.9544757 27.2769125,8.80789621 26.5418273,8.80789621 C25.9117543,8.80789621 25.2554282,8.94353693 24.572849,9.21481838 C23.8902699,9.48609984 23.2908254,9.81426289 22.7745155,10.1993075 L22.7745155,20.3854885 L24.5859755,20.6086394 L24.5859755,22.0394303 L18.0489676,22.0394303 L18.0489676,20.6086394 L19.768542,20.3854885 Z" id="Path"></path>
            <path d="M35.638507,8.99166751 L35.638507,7.74464793 C35.8835354,7.68339083 36.1657556,7.59588068 36.4851677,7.48211749 C36.8045797,7.3683543 37.0124163,7.28084416 37.1086775,7.21958705 C37.3974609,7.0095627 37.6337383,6.66827313 37.8175096,6.19571834 C37.9487749,5.89818385 38.1216074,5.4234413 38.3360073,4.77149072 C38.5504071,4.11954013 38.6969866,3.62729556 38.7757457,3.294757 L40.4821936,3.294757 L40.5084466,7.11457488 L44.918958,7.11457488 L44.918958,8.99166751 L40.5215732,8.99166751 L40.5215732,16.9332133 C40.5215732,18.0008371 40.5522017,18.7424855 40.6134588,19.1581587 C40.6747159,19.5738319 40.7994179,19.8407379 40.9875647,19.9588766 C41.1757115,20.0770153 41.5191888,20.1360846 42.0179967,20.1360846 L42.0311232,20.1360846 C42.4861759,20.1360846 43.000298,20.079203 43.5734895,19.9654398 C44.146681,19.8516766 44.5907949,19.7335379 44.9058315,19.6110237 L44.918958,19.6110237 L45.3652597,20.8842964 C45.1027293,21.1030717 44.7089336,21.3240349 44.1838728,21.5471857 C43.6588119,21.7703366 43.0943714,21.9562957 42.4905514,22.1050629 C41.8867314,22.2538302 41.331042,22.3282138 40.8234832,22.3282138 L40.7972301,22.3282138 C39.7121043,22.3282138 38.8938844,22.0897486 38.3425705,21.6128183 C37.7912566,21.135888 37.5155996,20.337358 37.5155996,19.2172281 L37.5155996,8.99166751 L35.638507,8.99166751 Z" id="Path"></path>
            <path d="M46.8223037,14.5441863 C46.8223037,13.0040077 47.1242137,11.6388494 47.7280337,10.4487114 C48.3318537,9.25857346 49.1675756,8.33752917 50.2351994,7.68557858 C51.3028232,7.03362799 52.5148387,6.7076527 53.8712459,6.7076527 C55.5514407,6.7076527 56.8509664,7.16708097 57.769823,8.0859375 C58.6886795,9.00479403 59.1787363,10.3305727 59.2399934,12.0632736 L59.2399934,12.5358284 C59.2399934,13.454685 59.1874873,14.1547661 59.0824751,14.6360719 L49.9857955,14.6360719 C50.0207995,15.9224711 50.2395749,16.9900949 50.6421216,17.8389433 C51.0446682,18.6877917 51.5741046,19.3134892 52.2304307,19.7160359 C52.8867568,20.1185826 53.6262175,20.3198559 54.4488129,20.3198559 C55.1663961,20.3198559 55.9036691,20.195154 56.6606318,19.9457501 C57.4175946,19.6963461 58.0104759,19.4097504 58.4392756,19.0859629 L58.9905895,20.346109 C58.6580509,20.6873985 58.2008104,21.0111861 57.6188679,21.3174716 C57.0369255,21.6237571 56.3893504,21.8709733 55.6761427,22.0591201 C54.962935,22.2472669 54.2562906,22.3413403 53.5562094,22.3413403 C52.086039,22.3413403 50.8455826,22.015365 49.8348405,21.3634144 C48.8240983,20.7114638 48.0693233,19.8013583 47.5705154,18.6330979 C47.0717076,17.4648374 46.8223037,16.1018669 46.8223037,14.5441863 Z M56.0896281,13.1133954 C56.1246322,12.7983589 56.1421342,12.4220652 56.1421342,11.9845145 C56.1333832,10.8731357 55.9014813,9.98053216 55.4464286,9.30670404 C54.9913758,8.63287591 54.2737926,8.29596185 53.293679,8.29596185 C52.3135653,8.29596185 51.5369128,8.66131671 50.9637213,9.39202643 C50.3905299,10.1227362 50.0645546,11.3631925 49.9857955,13.1133954 L56.0896281,13.1133954 Z" id="Shape"></path>
            <path d="M63.5848722,20.4117416 L63.5848722,9.38546317 L61.720906,8.86040229 L61.720906,7.28521966 L65.4750913,6.76015879 L65.5407239,6.76015879 L66.170797,7.27209314 L66.170797,8.09906402 L66.1445439,9.80551187 L66.170797,9.80551187 C66.3283152,9.51672839 66.632413,9.12949599 67.0830902,8.64381468 C67.5337675,8.15813337 68.11571,7.71401938 68.8289177,7.31147271 C69.5421254,6.90892603 70.3187779,6.7076527 71.1588753,6.7076527 C71.5001649,6.7076527 71.7889484,6.75578328 72.0252258,6.85204444 L72.0252258,10.0811688 C71.8589565,9.98490767 71.6379934,9.90396079 71.3623364,9.83832818 C71.0866794,9.77269557 70.7913327,9.73987926 70.4762962,9.73987926 C69.5924437,9.73987926 68.8289177,9.84707919 68.1857181,10.061479 C67.5425185,10.2758789 67.0065189,10.5449726 66.5777192,10.8687601 L66.5777192,20.3986151 L70.0299944,20.6348925 L70.0299944,22.0394303 L61.5240082,22.0394303 L61.5240082,20.6217659 L63.5848722,20.4117416 Z" id="Path"></path>
            <path d="M80.8987546,22.3413403 C80.5049589,22.3413403 80.0717837,22.308524 79.5992289,22.2428914 C79.1266741,22.1772588 78.7285029,22.1006874 78.4047154,22.0131773 L78.4834745,24.244686 L78.4834745,26.8437373 L81.1744115,27.1325208 L81.1744115,28.5501852 L73.5479023,28.5501852 L73.5479023,27.1325208 L75.5037541,26.8306108 L75.5037541,9.38546317 L73.6266614,8.86040229 L73.6266614,7.28521966 L77.4989854,6.76015879 L77.564618,6.76015879 L78.1553115,7.27209314 L78.1553115,8.76851664 C78.6803724,8.19094968 79.3279474,7.70308061 80.0980367,7.30490945 C80.868126,6.90673828 81.738852,6.7076527 82.7102146,6.7076527 C83.7778384,6.7076527 84.7535765,6.96799538 85.637429,7.48868075 C86.5212815,8.00936612 87.2301136,8.81883497 87.7639255,9.91708731 C88.2977374,11.0153396 88.5646434,12.3914367 88.5646434,14.0453784 C88.5646434,15.576806 88.2517946,16.9725928 87.626097,18.2327389 C87.0003995,19.492885 86.107796,20.4926885 84.9482866,21.2321492 C83.7887771,21.9716099 82.4389331,22.3413403 80.8987546,22.3413403 Z M78.4834745,20.0179459 C78.6059887,20.2367213 78.905711,20.4292436 79.3826413,20.5955129 C79.8595716,20.7617822 80.3955712,20.8449168 80.9906402,20.8449168 C81.8394886,20.8449168 82.5898881,20.6195782 83.2418387,20.1689009 C83.8937893,19.7182237 84.4079114,19.005016 84.7842051,18.0292779 C85.1604987,17.0535397 85.3486455,15.8130834 85.3486455,14.3079089 C85.3486455,13.0390118 85.1801885,11.98889 84.8432744,11.1575436 C84.5063603,10.3261972 84.0491198,9.71143846 83.4715529,9.3132673 C82.8939859,8.91509613 82.2332843,8.71601055 81.4894481,8.71601055 C80.868126,8.71601055 80.2905591,8.84290026 79.7567472,9.09667969 C79.2229353,9.35045911 78.7985111,9.64799361 78.4834745,9.98928318 L78.4834745,20.0179459 Z" id="Shape"></path>
            <path d="M92.9489017,20.4117416 L92.9489017,9.38546317 L91.0849356,8.86040229 L91.0849356,7.28521966 L94.8391208,6.76015879 L94.9047534,6.76015879 L95.5348265,7.27209314 L95.5348265,8.09906402 L95.5085735,9.80551187 L95.5348265,9.80551187 C95.6923448,9.51672839 95.9964425,9.12949599 96.4471198,8.64381468 C96.897797,8.15813337 97.4797395,7.71401938 98.1929472,7.31147271 C98.9061549,6.90892603 99.6828074,6.7076527 100.522905,6.7076527 C100.864194,6.7076527 101.152978,6.75578328 101.389255,6.85204444 L101.389255,10.0811688 C101.222986,9.98490767 101.002023,9.90396079 100.726366,9.83832818 C100.450709,9.77269557 100.155362,9.73987926 99.8403257,9.73987926 C98.9564732,9.73987926 98.1929472,9.84707919 97.5497476,10.061479 C96.906548,10.2758789 96.3705484,10.5449726 95.9417487,10.8687601 L95.9417487,20.3986151 L99.3940239,20.6348925 L99.3940239,22.0394303 L90.8880377,22.0394303 L90.8880377,20.6217659 L92.9489017,20.4117416 Z" id="Path"></path>
            <path d="M105.195947,20.3854885 L105.195947,9.38546317 L103.292601,8.84727577 L103.292601,7.29834619 L107.466835,6.76015879 L107.532468,6.76015879 L108.20192,7.27209314 L108.20192,20.3854885 L110.302164,20.6086394 L110.302164,22.0394303 L103.06945,22.0394303 L103.06945,20.6086394 L105.195947,20.3854885 Z M104.657759,2.49403916 C104.657759,1.89897017 104.830592,1.39578683 105.176257,0.984489144 C105.521922,0.573191457 106.005415,0.367542614 106.626738,0.367542614 L106.639864,0.367542614 C107.007407,0.367542614 107.326819,0.452865006 107.5981,0.623509791 C107.869382,0.794154576 108.077218,1.0194932 108.22161,1.29952567 C108.366002,1.57955814 108.438198,1.87709263 108.438198,2.19212916 C108.438198,2.80470018 108.263177,3.30788352 107.913137,3.70167918 C107.563096,4.09547484 107.055537,4.29237267 106.39046,4.29237267 L106.377334,4.29237267 C105.869775,4.29237267 105.456289,4.12172788 105.136877,3.78043831 C104.817465,3.43914874 104.657759,3.01034903 104.657759,2.49403916 Z" id="Shape"></path>
            <path d="M114.450145,17.7733107 L114.975205,19.768542 C115.080218,19.9523133 115.283679,20.1273336 115.585589,20.2936029 C115.887499,20.4598722 116.244103,20.5955129 116.6554,20.7005251 C117.066698,20.8055372 117.486747,20.8580433 117.915546,20.8580433 C118.904411,20.8580433 119.608868,20.6720843 120.028916,20.3001661 C120.448965,19.928248 120.658989,19.4185014 120.658989,18.7709263 C120.658989,18.3158736 120.516785,17.9155147 120.232377,17.5698496 C119.94797,17.2241845 119.525733,16.8982092 118.965668,16.5919237 C118.405603,16.2856382 117.644265,15.9399731 116.681653,15.5549285 C115.290242,15.0123656 114.275124,14.3713537 113.6363,13.631893 C112.997476,12.8924323 112.678064,11.9363839 112.678064,10.763748 C112.678064,9.97615666 112.916529,9.28263875 113.39346,8.68319425 C113.87039,8.08374975 114.524528,7.61775822 115.355875,7.28521966 C116.187221,6.95268111 117.12358,6.78641183 118.16495,6.78641183 C118.970044,6.78641183 119.678876,6.84985669 120.291447,6.9767464 C120.904018,7.10363611 121.520964,7.26771763 122.142286,7.46899097 L122.614841,7.61338271 L122.614841,10.9343928 L120.934646,10.9343928 L120.370206,9.09667969 C120.265194,8.86915331 119.982974,8.67225548 119.523545,8.5059862 C119.064117,8.33971692 118.549995,8.25658228 117.981179,8.25658228 C117.176086,8.25658228 116.554764,8.42722707 116.117213,8.76851664 C115.679662,9.10980621 115.460887,9.55610795 115.460887,10.1074219 C115.460887,10.5974787 115.589964,11.0087764 115.848119,11.3413149 C116.106274,11.6738535 116.427874,11.9451349 116.812919,12.1551593 C117.197963,12.3651836 117.736151,12.6145876 118.427481,12.903371 L118.939415,13.1265219 C119.937031,13.5553216 120.7465,13.9578683 121.367822,14.3341619 C121.989144,14.7104556 122.505454,15.1917614 122.916751,15.7780793 C123.328049,16.3643973 123.533698,17.0819805 123.533698,17.9308289 C123.533698,18.8059304 123.303984,19.5760197 122.844555,20.2410968 C122.385127,20.9061739 121.72005,21.4224838 120.849324,21.7900264 C119.978598,22.157569 118.948166,22.3413403 117.758028,22.3413403 C116.865425,22.3413403 115.929066,22.2188261 114.948952,21.9737977 C113.968839,21.7287693 113.185623,21.4749899 112.599305,21.2124594 L112.599305,17.7733107 L114.450145,17.7733107 Z" id="Path"></path>
            <path d="M125.843966,14.5441863 C125.843966,13.0040077 126.145876,11.6388494 126.749696,10.4487114 C127.353516,9.25857346 128.189238,8.33752917 129.256861,7.68557858 C130.324485,7.03362799 131.536501,6.7076527 132.892908,6.7076527 C134.573103,6.7076527 135.872628,7.16708097 136.791485,8.0859375 C137.710341,9.00479403 138.200398,10.3305727 138.261655,12.0632736 L138.261655,12.5358284 C138.261655,13.454685 138.209149,14.1547661 138.104137,14.6360719 L129.007457,14.6360719 C129.042461,15.9224711 129.261237,16.9900949 129.663783,17.8389433 C130.06633,18.6877917 130.595767,19.3134892 131.252093,19.7160359 C131.908419,20.1185826 132.647879,20.3198559 133.470475,20.3198559 C134.188058,20.3198559 134.925331,20.195154 135.682294,19.9457501 C136.439257,19.6963461 137.032138,19.4097504 137.460937,19.0859629 L138.012251,20.346109 C137.679713,20.6873985 137.222472,21.0111861 136.64053,21.3174716 C136.058587,21.6237571 135.411012,21.8709733 134.697805,22.0591201 C133.984597,22.2472669 133.277953,22.3413403 132.577871,22.3413403 C131.107701,22.3413403 129.867245,22.015365 128.856502,21.3634144 C127.84576,20.7114638 127.090985,19.8013583 126.592177,18.6330979 C126.09337,17.4648374 125.843966,16.1018669 125.843966,14.5441863 Z M135.11129,13.1133954 C135.146294,12.7983589 135.163796,12.4220652 135.163796,11.9845145 C135.155045,10.8731357 134.923143,9.98053216 134.468091,9.30670404 C134.013038,8.63287591 133.295455,8.29596185 132.315341,8.29596185 C131.335227,8.29596185 130.558575,8.66131671 129.985383,9.39202643 C129.412192,10.1227362 129.086217,11.3631925 129.007457,13.1133954 L135.11129,13.1133954 Z" id="Shape"></path>
            <path d="M148.631608,20.2936029 L155.102983,1.90334568 L158.227095,1.90334568 L164.750977,20.2936029 L166.418045,20.6086394 L166.418045,22.0394303 L159.211584,22.0394303 L159.211584,20.6086394 L161.351207,20.2936029 L160.104188,16.4606585 L152.385793,16.4606585 L151.191279,20.2936029 L153.435915,20.6086394 L153.435915,22.0394303 L146.977666,22.0394303 L146.964539,20.6086394 L148.631608,20.2936029 Z M159.566,14.7935902 L156.756925,6.1694653 L156.179358,3.96420962 L155.601791,6.19571834 L152.910854,14.7935902 L159.566,14.7935902 Z" id="Shape"></path>
            <path d="M174.228325,22.3413403 C173.83453,22.3413403 173.401355,22.308524 172.9288,22.2428914 C172.456245,22.1772588 172.058074,22.1006874 171.734286,22.0131773 L171.813045,24.244686 L171.813045,26.8437373 L174.503982,27.1325208 L174.503982,28.5501852 L166.877473,28.5501852 L166.877473,27.1325208 L168.833325,26.8306108 L168.833325,9.38546317 L166.956232,8.86040229 L166.956232,7.28521966 L170.828556,6.76015879 L170.894189,6.76015879 L171.484882,7.27209314 L171.484882,8.76851664 C172.009943,8.19094968 172.657518,7.70308061 173.427608,7.30490945 C174.197697,6.90673828 175.068423,6.7076527 176.039785,6.7076527 C177.107409,6.7076527 178.083147,6.96799538 178.967,7.48868075 C179.850852,8.00936612 180.559684,8.81883497 181.093496,9.91708731 C181.627308,11.0153396 181.894214,12.3914367 181.894214,14.0453784 C181.894214,15.576806 181.581365,16.9725928 180.955668,18.2327389 C180.32997,19.492885 179.437367,20.4926885 178.277857,21.2321492 C177.118348,21.9716099 175.768504,22.3413403 174.228325,22.3413403 Z M171.813045,20.0179459 C171.93556,20.2367213 172.235282,20.4292436 172.712212,20.5955129 C173.189142,20.7617822 173.725142,20.8449168 174.320211,20.8449168 C175.169059,20.8449168 175.919459,20.6195782 176.57141,20.1689009 C177.22336,19.7182237 177.737482,19.005016 178.113776,18.0292779 C178.49007,17.0535397 178.678216,15.8130834 178.678216,14.3079089 C178.678216,13.0390118 178.509759,11.98889 178.172845,11.1575436 C177.835931,10.3261972 177.378691,9.71143846 176.801124,9.3132673 C176.223557,8.91509613 175.562855,8.71601055 174.819019,8.71601055 C174.197697,8.71601055 173.62013,8.84290026 173.086318,9.09667969 C172.552506,9.35045911 172.128082,9.64799361 171.813045,9.98928318 L171.813045,20.0179459 Z" id="Shape"></path>
            <path d="M191.214045,22.3413403 C190.820249,22.3413403 190.387074,22.308524 189.914519,22.2428914 C189.441964,22.1772588 189.043793,22.1006874 188.720006,22.0131773 L188.798765,24.244686 L188.798765,26.8437373 L191.489702,27.1325208 L191.489702,28.5501852 L183.863192,28.5501852 L183.863192,27.1325208 L185.819044,26.8306108 L185.819044,9.38546317 L183.941952,8.86040229 L183.941952,7.28521966 L187.814276,6.76015879 L187.879908,6.76015879 L188.470602,7.27209314 L188.470602,8.76851664 C188.995663,8.19094968 189.643238,7.70308061 190.413327,7.30490945 C191.183416,6.90673828 192.054142,6.7076527 193.025505,6.7076527 C194.093129,6.7076527 195.068867,6.96799538 195.952719,7.48868075 C196.836572,8.00936612 197.545404,8.81883497 198.079216,9.91708731 C198.613028,11.0153396 198.879934,12.3914367 198.879934,14.0453784 C198.879934,15.576806 198.567085,16.9725928 197.941387,18.2327389 C197.31569,19.492885 196.423086,20.4926885 195.263577,21.2321492 C194.104067,21.9716099 192.754223,22.3413403 191.214045,22.3413403 Z M188.798765,20.0179459 C188.921279,20.2367213 189.221001,20.4292436 189.697931,20.5955129 C190.174862,20.7617822 190.710861,20.8449168 191.30593,20.8449168 C192.154779,20.8449168 192.905178,20.6195782 193.557129,20.1689009 C194.209079,19.7182237 194.723202,19.005016 195.099495,18.0292779 C195.475789,17.0535397 195.663936,15.8130834 195.663936,14.3079089 C195.663936,13.0390118 195.495479,11.98889 195.158565,11.1575436 C194.821651,10.3261972 194.36441,9.71143846 193.786843,9.3132673 C193.209276,8.91509613 192.548574,8.71601055 191.804738,8.71601055 C191.183416,8.71601055 190.605849,8.84290026 190.072037,9.09667969 C189.538225,9.35045911 189.113801,9.64799361 188.798765,9.98928318 L188.798765,20.0179459 Z" id="Shape"></path>
            <polygon id="Path" points="203.067294 20.3854885 203.067294 2.07399046 200.914544 1.81146002 200.914544 0.564440442 205.390688 0 205.416941 0 206.060141 0.446301745 206.060141 20.3854885 208.29165 20.6086394 208.29165 22.0394303 200.940797 22.0394303 200.940797 20.6086394"></polygon>
            <path d="M212.163974,20.3854885 L212.163974,9.38546317 L210.260628,8.84727577 L210.260628,7.29834619 L214.434862,6.76015879 L214.500495,6.76015879 L215.169947,7.27209314 L215.169947,20.3854885 L217.270191,20.6086394 L217.270191,22.0394303 L210.037477,22.0394303 L210.037477,20.6086394 L212.163974,20.3854885 Z M211.625786,2.49403916 C211.625786,1.89897017 211.798619,1.39578683 212.144284,0.984489144 C212.489949,0.573191457 212.973443,0.367542614 213.594765,0.367542614 L213.607891,0.367542614 C213.975434,0.367542614 214.294846,0.452865006 214.566127,0.623509791 C214.837409,0.794154576 215.045245,1.0194932 215.189637,1.29952567 C215.334029,1.57955814 215.406225,1.87709263 215.406225,2.19212916 C215.406225,2.80470018 215.231204,3.30788352 214.881164,3.70167918 C214.531123,4.09547484 214.023564,4.29237267 213.358487,4.29237267 L213.345361,4.29237267 C212.837802,4.29237267 212.424316,4.12172788 212.104904,3.78043831 C211.785492,3.43914874 211.625786,3.01034903 211.625786,2.49403916 Z" id="Shape"></path>
            <path d="M226.576895,6.7076527 C227.837041,6.7076527 229.184697,6.97893415 230.619864,7.52149706 L230.488598,11.5644658 L228.664012,11.5644658 L228.060192,9.10980621 C227.937678,8.82102273 227.694837,8.60662287 227.33167,8.46660664 C226.968503,8.3265904 226.53314,8.25658228 226.025581,8.25658228 C225.255492,8.25658228 224.586039,8.46879439 224.017223,8.8932186 C223.448407,9.31764281 223.006481,9.95209137 222.691444,10.7965643 C222.376408,11.6410372 222.21889,12.6845957 222.21889,13.9272398 C222.21889,15.3711572 222.407036,16.5700462 222.78333,17.5239068 C223.159624,18.4777673 223.671558,19.182224 224.319133,19.6372768 C224.966708,20.0923295 225.697418,20.3198559 226.511262,20.3198559 C227.2726,20.3198559 227.974869,20.2082805 228.618069,19.9851296 C229.261269,19.7619787 229.810395,19.4885095 230.265447,19.164722 L230.829888,20.372362 C230.514851,20.6961496 230.094803,21.0089983 229.569742,21.3109083 C229.044681,21.6128183 228.456175,21.8600345 227.804225,22.0525568 C227.152274,22.2450791 226.498136,22.3413403 225.84181,22.3413403 C224.362888,22.3413403 223.111493,22.0131773 222.087624,21.3568512 C221.063756,20.7005251 220.295854,19.8013583 219.78392,18.6593509 C219.271985,17.5173435 219.016018,16.2200056 219.016018,14.7673372 C219.016018,13.2709137 219.304802,11.9123186 219.882369,10.6915521 C220.459936,9.47078556 221.317535,8.50161069 222.455167,7.7840275 C223.592799,7.0664443 224.966708,6.7076527 226.576895,6.7076527 Z" id="Path"></path>
            <path d="M241.659268,12.2864245 C241.659268,11.4638291 241.573946,10.8162541 241.403301,10.3436993 C241.232657,9.87114448 240.93731,9.5254794 240.517261,9.30670404 C240.097212,9.08792867 239.502143,8.97854099 238.732054,8.97854099 C237.253133,8.97854099 235.695452,9.39421418 234.059012,10.2255606 L234.045886,10.2255606 L233.38956,8.86040229 C233.625837,8.65037794 234.078702,8.37909649 234.748155,8.04655793 C235.417607,7.71401938 236.178946,7.42304814 237.032169,7.17364423 C237.885393,6.92424031 238.69705,6.79953835 239.467139,6.79953835 C240.744787,6.79953835 241.748966,6.97237089 242.479676,7.31803597 C243.210386,7.66370105 243.737634,8.21720272 244.061422,8.97854099 C244.38521,9.73987926 244.547103,10.7681235 244.547103,12.0632736 L244.547103,20.5955129 L246.148539,20.5955129 L246.148539,21.881912 C244.870891,22.1881975 243.908279,22.3413403 243.260704,22.3413403 C242.893162,22.3413403 242.613129,22.3107117 242.420607,22.2494546 C242.228084,22.1881975 242.08588,22.0634956 241.993995,21.8753488 C241.902109,21.687202 241.856166,21.3962307 241.856166,21.0024351 L241.856166,20.372362 C241.383612,20.8361658 240.762289,21.2802798 239.9922,21.704704 C239.222111,22.1291282 238.360136,22.3413403 237.406275,22.3413403 C236.566178,22.3413403 235.802652,22.1881975 235.115697,21.881912 C234.428743,21.5756265 233.881804,21.1030717 233.474882,20.4642477 C233.06796,19.8254236 232.864499,19.0290813 232.864499,18.0752207 C232.864499,16.9113357 233.269233,15.9530996 234.078702,15.2005124 C234.888171,14.4479251 235.951419,13.8944234 237.268447,13.5400074 C238.585475,13.1855913 240.049082,12.9952567 241.659268,12.9690037 L241.659268,12.2864245 Z M241.659268,14.4523006 C240.372869,14.4523006 239.316184,14.5988801 238.489213,14.8920391 C237.662243,15.1851981 237.062798,15.5724305 236.69088,16.0537363 C236.318962,16.5350421 236.133003,17.0819805 236.133003,17.6945515 C236.133003,18.6134081 236.360529,19.2872362 236.815582,19.7160359 C237.270635,20.1448356 237.883206,20.3592355 238.653295,20.3592355 C239.064593,20.3592355 239.561213,20.2432845 240.143155,20.0113827 C240.725098,19.7794808 241.230469,19.4972606 241.659268,19.164722 L241.659268,14.4523006 Z" id="Shape"></path>
            <path d="M247.697469,8.99166751 L247.697469,7.74464793 C247.942497,7.68339083 248.224717,7.59588068 248.544129,7.48211749 C248.863541,7.3683543 249.071378,7.28084416 249.167639,7.21958705 C249.456422,7.0095627 249.6927,6.66827313 249.876471,6.19571834 C250.007736,5.89818385 250.180569,5.4234413 250.394969,4.77149072 C250.609369,4.11954013 250.755948,3.62729556 250.834707,3.294757 L252.541155,3.294757 L252.567408,7.11457488 L256.97792,7.11457488 L256.97792,8.99166751 L252.580535,8.99166751 L252.580535,16.9332133 C252.580535,18.0008371 252.611163,18.7424855 252.67242,19.1581587 C252.733677,19.5738319 252.858379,19.8407379 253.046526,19.9588766 C253.234673,20.0770153 253.57815,20.1360846 254.076958,20.1360846 L254.090085,20.1360846 C254.545137,20.1360846 255.05926,20.079203 255.632451,19.9654398 C256.205643,19.8516766 256.649756,19.7335379 256.964793,19.6110237 L256.97792,19.6110237 L257.424221,20.8842964 C257.161691,21.1030717 256.767895,21.3240349 256.242834,21.5471857 C255.717773,21.7703366 255.153333,21.9562957 254.549513,22.1050629 C253.945693,22.2538302 253.390004,22.3282138 252.882445,22.3282138 L252.856192,22.3282138 C251.771066,22.3282138 250.952846,22.0897486 250.401532,21.6128183 C249.850218,21.135888 249.574561,20.337358 249.574561,19.2172281 L249.574561,8.99166751 L247.697469,8.99166751 Z" id="Path"></path>
            <path d="M260.915876,20.3854885 L260.915876,9.38546317 L259.01253,8.84727577 L259.01253,7.29834619 L263.186764,6.76015879 L263.252397,6.76015879 L263.92185,7.27209314 L263.92185,20.3854885 L266.022093,20.6086394 L266.022093,22.0394303 L258.78938,22.0394303 L258.78938,20.6086394 L260.915876,20.3854885 Z M260.377689,2.49403916 C260.377689,1.89897017 260.550521,1.39578683 260.896186,0.984489144 C261.241851,0.573191457 261.725345,0.367542614 262.346667,0.367542614 L262.359794,0.367542614 C262.727336,0.367542614 263.046748,0.452865006 263.31803,0.623509791 C263.589311,0.794154576 263.797148,1.0194932 263.941539,1.29952567 C264.085931,1.57955814 264.158127,1.87709263 264.158127,2.19212916 C264.158127,2.80470018 263.983107,3.30788352 263.633066,3.70167918 C263.283026,4.09547484 262.775467,4.29237267 262.11039,4.29237267 L262.097263,4.29237267 C261.589704,4.29237267 261.176219,4.12172788 260.856807,3.78043831 C260.537395,3.43914874 260.377689,3.01034903 260.377689,2.49403916 Z" id="Shape"></path>
            <path d="M274.908748,6.7076527 C276.431425,6.7076527 277.700322,7.04456676 278.71544,7.71839489 C279.730558,8.39222301 280.483145,9.31764281 280.973202,10.4946543 C281.463258,11.6716657 281.708287,13.0171342 281.708287,14.5310598 C281.708287,16.1499975 281.373561,17.5501598 280.704108,18.7315468 C280.034655,19.9129337 279.155178,20.8099127 278.065677,21.4224838 C276.976176,22.0350548 275.814478,22.3413403 274.580585,22.3413403 C273.057909,22.3413403 271.7912,22.0044262 270.780457,21.3305981 C269.769715,20.65677 269.019316,19.7313502 268.529259,18.5543387 C268.039202,17.3773273 267.794174,16.0318588 267.794174,14.5179332 C267.794174,12.9164976 268.1289,11.5250862 268.798353,10.3436993 C269.467805,9.1623123 270.347282,8.26095779 271.436783,7.63963575 C272.526285,7.01831372 273.683606,6.7076527 274.908748,6.7076527 Z M278.387277,14.7673372 C278.387277,12.7983589 278.096306,11.234115 277.514363,10.0746056 C276.932421,8.91509613 276.011376,8.33534142 274.75123,8.33534142 C273.54359,8.33534142 272.633485,8.8319615 272.020914,9.82520165 C271.408343,10.8184418 271.102057,12.3039265 271.102057,14.2816558 C271.102057,16.2506341 271.397404,17.814878 271.988097,18.9743874 C272.578791,20.1338969 273.499835,20.7136516 274.75123,20.7136516 C277.175261,20.7136516 278.387277,18.7315468 278.387277,14.7673372 Z" id="Shape"></path>
            <path d="M285.803762,20.3854885 L285.803762,9.38546317 L283.926669,8.86040229 L283.926669,7.28521966 L287.81212,6.76015879 L287.877752,6.76015879 L288.494699,7.27209314 L288.494699,8.33534142 L288.481572,8.93916142 C288.884119,8.58036983 289.38949,8.23470475 289.997685,7.90216619 C290.605881,7.56962764 291.257832,7.29834619 291.953537,7.08832183 C292.649243,6.87829748 293.307757,6.77328531 293.929079,6.77328531 C295.066711,6.77328531 295.946188,6.98549741 296.56751,7.40992162 C297.188832,7.83434583 297.622007,8.48848417 297.867035,9.37233665 C298.112064,10.2561891 298.234578,11.4550781 298.234578,12.9690037 L298.234578,20.3854885 L300.124797,20.6086394 L300.124797,22.0394303 L293.535283,22.0394303 L293.535283,20.6086394 L295.215478,20.3854885 L295.215478,12.9558771 C295.215478,11.9407594 295.147658,11.1422294 295.012017,10.5602869 C294.876376,9.97834441 294.620409,9.54079368 294.244115,9.24763469 C293.867822,8.9544757 293.312132,8.80789621 292.577047,8.80789621 C291.946974,8.80789621 291.290648,8.94353693 290.608069,9.21481838 C289.92549,9.48609984 289.326045,9.81426289 288.809735,10.1993075 L288.809735,20.3854885 L290.621195,20.6086394 L290.621195,22.0394303 L284.084187,22.0394303 L284.084187,20.6086394 L285.803762,20.3854885 Z" id="Path"></path>
            <path d="M304.207145,17.7733107 L304.732206,19.768542 C304.837218,19.9523133 305.04068,20.1273336 305.34259,20.2936029 C305.6445,20.4598722 306.001103,20.5955129 306.412401,20.7005251 C306.823699,20.8055372 307.243747,20.8580433 307.672547,20.8580433 C308.661412,20.8580433 309.365869,20.6720843 309.785917,20.3001661 C310.205966,19.928248 310.41599,19.4185014 310.41599,18.7709263 C310.41599,18.3158736 310.273786,17.9155147 309.989378,17.5698496 C309.70497,17.2241845 309.282734,16.8982092 308.722669,16.5919237 C308.162604,16.2856382 307.401266,15.9399731 306.438654,15.5549285 C305.047243,15.0123656 304.032125,14.3713537 303.393301,13.631893 C302.754477,12.8924323 302.435065,11.9363839 302.435065,10.763748 C302.435065,9.97615666 302.67353,9.28263875 303.15046,8.68319425 C303.627391,8.08374975 304.281529,7.61775822 305.112875,7.28521966 C305.944222,6.95268111 306.88058,6.78641183 307.921951,6.78641183 C308.727044,6.78641183 309.435877,6.84985669 310.048448,6.9767464 C310.661019,7.10363611 311.277965,7.26771763 311.899287,7.46899097 L312.371842,7.61338271 L312.371842,10.9343928 L310.691647,10.9343928 L310.127207,9.09667969 C310.022195,8.86915331 309.739974,8.67225548 309.280546,8.5059862 C308.821118,8.33971692 308.306996,8.25658228 307.73818,8.25658228 C306.933086,8.25658228 306.311764,8.42722707 305.874214,8.76851664 C305.436663,9.10980621 305.217888,9.55610795 305.217888,10.1074219 C305.217888,10.5974787 305.346965,11.0087764 305.60512,11.3413149 C305.863275,11.6738535 306.184875,11.9451349 306.569919,12.1551593 C306.954964,12.3651836 307.493151,12.6145876 308.184482,12.903371 L308.696416,13.1265219 C309.694032,13.5553216 310.5035,13.9578683 311.124822,14.3341619 C311.746144,14.7104556 312.262454,15.1917614 312.673752,15.7780793 C313.08505,16.3643973 313.290699,17.0819805 313.290699,17.9308289 C313.290699,18.8059304 313.060984,19.5760197 312.601556,20.2410968 C312.142128,20.9061739 311.477051,21.4224838 310.606325,21.7900264 C309.735599,22.157569 308.705167,22.3413403 307.515029,22.3413403 C306.622425,22.3413403 305.686067,22.2188261 304.705953,21.9737977 C303.72584,21.7287693 302.942624,21.4749899 302.356306,21.2124594 L302.356306,17.7733107 L304.207145,17.7733107 Z" id="Path"></path>
            <path d="M0,43.0370206 C0,40.9717811 0.426611962,39.1690721 1.27983589,37.6288936 C2.13305981,36.088715 3.29913251,34.907328 4.77805398,34.0847327 C6.25697545,33.2621373 7.91091721,32.8508396 9.73987926,32.8508396 C10.5799767,32.8508396 11.3916333,32.9120967 12.1748491,33.0346109 C12.9580649,33.1571251 13.8441051,33.3190189 14.8329698,33.5202922 L15.5418019,33.6646839 L15.292398,38.5740031 L13.3365463,38.5740031 L12.601461,35.2267401 C12.4176897,34.9817116 12.0457716,34.7870016 11.4857067,34.6426098 C10.9256417,34.4982181 10.1905565,34.4260222 9.28045099,34.4260222 C8.16032112,34.4260222 7.16926872,34.7454343 6.30729378,35.3842583 C5.44531884,36.0230824 4.77149072,36.9660042 4.28580941,38.2130238 C3.80012809,39.4600434 3.55728744,40.9630301 3.55728744,42.7219841 C3.55728744,44.3496728 3.77387505,45.848284 4.20705027,47.2178178 C4.6402255,48.5873516 5.30967811,49.6899795 6.21540813,50.5257013 C7.12113814,51.3614232 8.25220678,51.7792842 9.60861404,51.7792842 C11.0175274,51.7792842 12.0282696,51.4554967 12.6408406,50.8079216 L13.782848,48.0382254 L15.6468141,48.2876294 L15.0692472,52.3043451 C14.8329698,52.3218471 14.6054434,52.3590389 14.386668,52.4159205 C14.1678927,52.4728021 13.8834847,52.5625 13.5334441,52.6850142 C12.9383751,52.8950386 12.3695592,53.0569323 11.8269962,53.1706955 C11.2844333,53.2844587 10.6149807,53.3413403 9.81863839,53.3413403 C7.73589692,53.3413403 5.95944095,52.9322304 4.4892705,52.1140105 C3.01910004,51.2957906 1.90334568,50.1165914 1.14200741,48.5764128 C0.380669136,47.0362343 0,45.1897702 0,43.0370206 Z" id="Path"></path>
            <path d="M18.5740285,57.056146 C18.6790407,57.1174031 18.8934405,57.1720969 19.2172281,57.2202275 C19.5410156,57.2683581 19.8473011,57.2924234 20.1360846,57.2924234 C20.6611455,57.2924234 21.1446391,57.1852235 21.5865653,56.9708236 C22.0284915,56.7564238 22.476981,56.3385628 22.9320338,55.7172408 C23.3870865,55.0959187 23.8290128,54.2033152 24.2578125,53.0394303 L22.7745155,53.0394303 L17.8651963,39.8472758 L16.6181767,39.5059862 L16.6181767,38.1145749 L23.2995764,38.1145749 L23.2995764,39.5059862 L21.2387125,39.8472758 L23.7721312,47.775695 L24.9403916,51.5823864 L25.9905134,47.7625685 L28.3664139,39.8341492 L26.6074599,39.5059862 L26.6074599,38.1145749 L32.1205991,38.1145749 L32.1205991,39.5059862 L30.7816939,39.8341492 C29.5215478,43.7546038 28.4954913,46.8852793 27.7035245,49.2261757 C26.9115577,51.5670721 26.4061866,52.9869242 26.1874112,53.485732 C25.5923422,54.9909066 25.0300895,56.1810445 24.5006532,57.056146 C23.9712168,57.9312475 23.3586457,58.5963246 22.6629401,59.0513773 C21.9672344,59.5064301 21.1161983,59.7339565 20.1098316,59.7339565 C19.8385501,59.7339565 19.5453911,59.7142667 19.2303546,59.6748871 C18.9153181,59.6355076 18.6965427,59.5895647 18.5740285,59.5370586 L18.5740285,57.056146 Z" id="Path"></path>
            <path d="M32.0812196,32.7983335 L32.0812196,31.5644404 L36.5048574,31 L36.5704901,31 L37.2268162,31.4463017 L37.2268162,39.4666066 C37.743126,38.9590478 38.3600725,38.5389991 39.0776557,38.2064605 C39.7952389,37.873922 40.5915813,37.7076527 41.4666827,37.7076527 C42.5343065,37.7076527 43.5100446,37.9658076 44.3938971,38.4821175 C45.2777496,38.9984274 45.9865818,39.8057085 46.5203937,40.9039608 C47.0542056,42.0022131 47.3211115,43.3826857 47.3211115,45.0453784 C47.3211115,46.585557 47.006075,47.9879071 46.3760019,49.2524287 C45.7459289,50.5169503 44.8423866,51.514566 43.6653752,52.2452757 C42.4883637,52.9759854 41.1166421,53.3413403 39.5502105,53.3413403 C38.7013621,53.3413403 37.894081,53.282271 37.1283672,53.1641323 C36.3626535,53.0459936 35.7216416,52.9037896 35.2053318,52.7375203 C34.6890219,52.571251 34.3696099,52.4268593 34.2470957,52.3043451 L34.2470957,33.0608639 L32.0812196,32.7983335 Z M37.2268162,50.9785664 C37.3405793,51.2410968 37.6337383,51.4489334 38.1062931,51.6020761 C38.5788479,51.7552189 39.1257863,51.8317903 39.7471084,51.8317903 C40.6047078,51.8317903 41.3594828,51.5911374 42.0114334,51.1098316 C42.663384,50.6285258 43.1731306,49.9043793 43.5406732,48.9373922 C43.9082158,47.9704051 44.0919871,46.7780793 44.0919871,45.360415 C44.0919871,44.1002689 43.9279056,43.0501471 43.5997425,42.2100497 C43.2715795,41.3699523 42.8187145,40.7486303 42.2411475,40.3460836 C41.6635806,39.9435369 41.002879,39.7422636 40.2590427,39.7422636 C39.6289697,39.7422636 39.0470272,39.8844676 38.5132153,40.1688756 C37.9794034,40.4532835 37.5506037,40.7748833 37.2268162,41.1336749 L37.2268162,50.9785664 Z" id="Shape"></path>
            <path d="M49.5526202,45.5441863 C49.5526202,44.0040077 49.8545302,42.6388494 50.4583502,41.4487114 C51.0621703,40.2585735 51.8978921,39.3375292 52.9655159,38.6855786 C54.0331397,38.033628 55.2451552,37.7076527 56.6015625,37.7076527 C58.2817573,37.7076527 59.581283,38.167081 60.5001395,39.0859375 C61.418996,40.004794 61.9090529,41.3305727 61.97031,43.0632736 L61.97031,43.5358284 C61.97031,44.454685 61.9178039,45.1547661 61.8127917,45.6360719 L52.716112,45.6360719 C52.7511161,46.9224711 52.9698914,47.9900949 53.3724381,48.8389433 C53.7749848,49.6877917 54.3044212,50.3134892 54.9607473,50.7160359 C55.6170734,51.1185826 56.3565341,51.3198559 57.1791295,51.3198559 C57.8967127,51.3198559 58.6339856,51.195154 59.3909484,50.9457501 C60.1479112,50.6963461 60.7407924,50.4097504 61.1695921,50.0859629 L61.720906,51.346109 C61.3883675,51.6873985 60.931127,52.0111861 60.3491845,52.3174716 C59.767242,52.6237571 59.119667,52.8709733 58.4064593,53.0591201 C57.6932516,53.2472669 56.9866071,53.3413403 56.286526,53.3413403 C54.8163555,53.3413403 53.5758992,53.015365 52.565157,52.3634144 C51.5544148,51.7114638 50.7996398,50.8013583 50.300832,49.6330979 C49.8020241,48.4648374 49.5526202,47.1018669 49.5526202,45.5441863 Z M58.8199447,44.1133954 C58.8549488,43.7983589 58.8724508,43.4220652 58.8724508,42.9845145 C58.8636998,41.8731357 58.6317979,40.9805322 58.1767451,40.306704 C57.7216924,39.6328759 57.0041092,39.2959619 56.0239955,39.2959619 C55.0438819,39.2959619 54.2672294,39.6613167 53.6940379,40.3920264 C53.1208464,41.1227362 52.7948711,42.3631925 52.716112,44.1133954 L58.8199447,44.1133954 Z" id="Shape"></path>
            <path d="M66.3151887,51.4117416 L66.3151887,40.3854632 L64.4512226,39.8604023 L64.4512226,38.2852197 L68.2054079,37.7601588 L68.2710405,37.7601588 L68.9011135,38.2720931 L68.9011135,39.099064 L68.8748605,40.8055119 L68.9011135,40.8055119 C69.0586318,40.5167284 69.3627296,40.129496 69.8134068,39.6438147 C70.2640841,39.1581334 70.8460265,38.7140194 71.5592342,38.3114727 C72.2724419,37.908926 73.0490945,37.7076527 73.8891919,37.7076527 C74.2304814,37.7076527 74.5192649,37.7557833 74.7555423,37.8520444 L74.7555423,41.0811688 C74.589273,40.9849077 74.3683099,40.9039608 74.092653,40.8383282 C73.816996,40.7726956 73.5216492,40.7398793 73.2066127,40.7398793 C72.3227602,40.7398793 71.5592342,40.8470792 70.9160346,41.061479 C70.2728351,41.2758789 69.7368354,41.5449726 69.3080357,41.8687601 L69.3080357,51.3986151 L72.760311,51.6348925 L72.760311,53.0394303 L64.2543248,53.0394303 L64.2543248,51.6217659 L66.3151887,51.4117416 Z" id="Path"></path>
            <path d="M78.8247641,48.7733107 L79.349825,50.768542 C79.4548372,50.9523133 79.6582982,51.1273336 79.9602082,51.2936029 C80.2621183,51.4598722 80.6187221,51.5955129 81.0300198,51.7005251 C81.4413175,51.8055372 81.8613662,51.8580433 82.2901659,51.8580433 C83.2790305,51.8580433 83.9834872,51.6720843 84.4035359,51.3001661 C84.8235846,50.928248 85.033609,50.4185014 85.033609,49.7709263 C85.033609,49.3158736 84.891405,48.9155147 84.606997,48.5698496 C84.322589,48.2241845 83.9003526,47.8982092 83.3402876,47.5919237 C82.7802227,47.2856382 82.0188844,46.9399731 81.0562728,46.5549285 C79.6648615,46.0123656 78.6497438,45.3713537 78.0109197,44.631893 C77.3720957,43.8924323 77.0526836,42.9363839 77.0526836,41.763748 C77.0526836,40.9761567 77.2911488,40.2826387 77.7680791,39.6831942 C78.2450094,39.0837497 78.8991477,38.6177582 79.7304941,38.2852197 C80.5618405,37.9526811 81.4981991,37.7864118 82.5395698,37.7864118 C83.3446631,37.7864118 84.0534953,37.8498567 84.6660664,37.9767464 C85.2786374,38.1036361 85.8955839,38.2677176 86.5169059,38.468991 L86.9894607,38.6133827 L86.9894607,41.9343928 L85.3092659,41.9343928 L84.7448255,40.0966797 C84.6398133,39.8691533 84.3575931,39.6722555 83.8981648,39.5059862 C83.4387366,39.3397169 82.9246144,39.2565823 82.3557985,39.2565823 C81.5507052,39.2565823 80.9293831,39.4272271 80.4918324,39.7685166 C80.0542817,40.1098062 79.8355063,40.556108 79.8355063,41.1074219 C79.8355063,41.5974787 79.9645838,42.0087764 80.2227387,42.3413149 C80.4808936,42.6738535 80.8024934,42.9451349 81.187538,43.1551593 C81.5725827,43.3651836 82.1107701,43.6145876 82.8021002,43.903371 L83.3140346,44.1265219 C84.3116503,44.5553216 85.1211191,44.9578683 85.7424412,45.3341619 C86.3637632,45.7104556 86.8800731,46.1917614 87.2913707,46.7780793 C87.7026684,47.3643973 87.9083173,48.0819805 87.9083173,48.9308289 C87.9083173,49.8059304 87.6786031,50.5760197 87.2191749,51.2410968 C86.7597466,51.9061739 86.0946695,52.4224838 85.2239435,52.7900264 C84.3532176,53.157569 83.3227856,53.3413403 82.1326476,53.3413403 C81.2400441,53.3413403 80.3036856,53.2188261 79.3235719,52.9737977 C78.3434583,52.7287693 77.5602425,52.4749899 76.9739245,52.2124594 L76.9739245,48.7733107 L78.8247641,48.7733107 Z" id="Path"></path>
            <path d="M90.2185851,45.5441863 C90.2185851,44.0040077 90.5204951,42.6388494 91.1243151,41.4487114 C91.7281351,40.2585735 92.563857,39.3375292 93.6314808,38.6855786 C94.6991046,38.033628 95.9111201,37.7076527 97.2675274,37.7076527 C98.9477222,37.7076527 100.247248,38.167081 101.166104,39.0859375 C102.084961,40.004794 102.575018,41.3305727 102.636275,43.0632736 L102.636275,43.5358284 C102.636275,44.454685 102.583769,45.1547661 102.478757,45.6360719 L93.3820769,45.6360719 C93.417081,46.9224711 93.6358563,47.9900949 94.038403,48.8389433 C94.4409497,49.6877917 94.9703861,50.3134892 95.6267122,50.7160359 C96.2830383,51.1185826 97.022499,51.3198559 97.8450944,51.3198559 C98.5626776,51.3198559 99.2999505,51.195154 100.056913,50.9457501 C100.813876,50.6963461 101.406757,50.4097504 101.835557,50.0859629 L102.386871,51.346109 C102.054332,51.6873985 101.597092,52.0111861 101.015149,52.3174716 C100.433207,52.6237571 99.7856318,52.8709733 99.0724242,53.0591201 C98.3592165,53.2472669 97.652572,53.3413403 96.9524909,53.3413403 C95.4823204,53.3413403 94.2418641,53.015365 93.2311219,52.3634144 C92.2203797,51.7114638 91.4656047,50.8013583 90.9667969,49.6330979 C90.467989,48.4648374 90.2185851,47.1018669 90.2185851,45.5441863 Z M99.4859096,44.1133954 C99.5209137,43.7983589 99.5384157,43.4220652 99.5384157,42.9845145 C99.5296647,41.8731357 99.2977628,40.9805322 98.84271,40.306704 C98.3876573,39.6328759 97.6700741,39.2959619 96.6899604,39.2959619 C95.7098468,39.2959619 94.9331942,39.6613167 94.3600028,40.3920264 C93.7868113,41.1227362 93.460836,42.3631925 93.3820769,44.1133954 L99.4859096,44.1133954 Z" id="Shape"></path>
            <path d="M112.271142,37.7076527 C113.531288,37.7076527 114.878944,37.9789342 116.314111,38.5214971 L116.182845,42.5644658 L114.358259,42.5644658 L113.754439,40.1098062 C113.631925,39.8210227 113.389084,39.6066229 113.025917,39.4666066 C112.66275,39.3265904 112.227387,39.2565823 111.719828,39.2565823 C110.949739,39.2565823 110.280286,39.4687944 109.71147,39.8932186 C109.142654,40.3176428 108.700728,40.9520914 108.385691,41.7965643 C108.070655,42.6410372 107.913137,43.6845957 107.913137,44.9272398 C107.913137,46.3711572 108.101283,47.5700462 108.477577,48.5239068 C108.853871,49.4777673 109.365805,50.182224 110.01338,50.6372768 C110.660955,51.0923295 111.391665,51.3198559 112.205509,51.3198559 C112.966848,51.3198559 113.669117,51.2082805 114.312316,50.9851296 C114.955516,50.7619787 115.504642,50.4885095 115.959695,50.164722 L116.524135,51.372362 C116.209099,51.6961496 115.78905,52.0089983 115.263989,52.3109083 C114.738928,52.6128183 114.150422,52.8600345 113.498472,53.0525568 C112.846521,53.2450791 112.192383,53.3413403 111.536057,53.3413403 C110.057135,53.3413403 108.80574,53.0131773 107.781871,52.3568512 C106.758003,51.7005251 105.990101,50.8013583 105.478167,49.6593509 C104.966232,48.5173435 104.710265,47.2200056 104.710265,45.7673372 C104.710265,44.2709137 104.999049,42.9123186 105.576616,41.6915521 C106.154183,40.4707856 107.011782,39.5016107 108.149414,38.7840275 C109.287046,38.0664443 110.660955,37.7076527 112.271142,37.7076527 Z" id="Path"></path>
            <path d="M129.361873,51.2542233 C128.801809,51.7967862 128.092976,52.2802798 127.235377,52.704704 C126.377777,53.1291282 125.511427,53.3413403 124.636326,53.3413403 C123.542449,53.3413403 122.654221,53.1466302 121.971642,52.7572101 C121.289063,52.3677899 120.785879,51.7486556 120.462092,50.8998072 C120.138304,50.0509588 119.97641,48.9308289 119.97641,47.5394176 L119.97641,39.9260349 L118.519366,39.4403536 L118.519366,38.167081 L122.404817,37.7732853 L122.417943,37.7732853 L122.969257,38.1277014 L122.969257,47.3950259 C122.969257,48.3926415 123.043641,49.1714818 123.192408,49.7315468 C123.341175,50.2916117 123.603706,50.7007216 123.979999,50.9588766 C124.356293,51.2170315 124.898856,51.346109 125.607688,51.346109 C126.290267,51.346109 126.924716,51.2148438 127.511034,50.9523133 C128.097352,50.6897829 128.604911,50.3878729 129.03371,50.0465833 L129.03371,39.9391614 L127.156618,39.4272271 L127.156618,38.1539544 L131.304599,37.7732853 L131.330852,37.7732853 L132.026557,38.1277014 L132.026557,51.5561333 L133.60174,51.5561333 L133.60174,52.8687855 C133.094181,53.0175528 132.654443,53.1335037 132.282525,53.2166383 C131.910606,53.299773 131.483995,53.3413403 131.002689,53.3413403 C130.442624,53.3413403 130.029138,53.2341404 129.762232,53.0197405 C129.495326,52.8053407 129.361873,52.4443613 129.361873,51.9368025 L129.361873,51.2542233 Z" id="Path"></path>
            <path d="M137.880986,51.4117416 L137.880986,40.3854632 L136.01702,39.8604023 L136.01702,38.2852197 L139.771205,37.7601588 L139.836838,37.7601588 L140.466911,38.2720931 L140.466911,39.099064 L140.440658,40.8055119 L140.466911,40.8055119 C140.624429,40.5167284 140.928527,40.129496 141.379204,39.6438147 C141.829882,39.1581334 142.411824,38.7140194 143.125032,38.3114727 C143.838239,37.908926 144.614892,37.7076527 145.454989,37.7076527 C145.796279,37.7076527 146.085062,37.7557833 146.32134,37.8520444 L146.32134,41.0811688 C146.155071,40.9849077 145.934107,40.9039608 145.65845,40.8383282 C145.382793,40.7726956 145.087447,40.7398793 144.77241,40.7398793 C143.888558,40.7398793 143.125032,40.8470792 142.481832,41.061479 C141.838633,41.2758789 141.302633,41.5449726 140.873833,41.8687601 L140.873833,51.3986151 L144.326108,51.6348925 L144.326108,53.0394303 L135.820122,53.0394303 L135.820122,51.6217659 L137.880986,51.4117416 Z" id="Path"></path>
            <path d="M150.128031,51.3854885 L150.128031,40.3854632 L148.224685,39.8472758 L148.224685,38.2983462 L152.398919,37.7601588 L152.464552,37.7601588 L153.134005,38.2720931 L153.134005,51.3854885 L155.234248,51.6086394 L155.234248,53.0394303 L148.001535,53.0394303 L148.001535,51.6086394 L150.128031,51.3854885 Z M149.589844,33.4940392 C149.589844,32.8989702 149.762676,32.3957868 150.108341,31.9844891 C150.454006,31.5731915 150.9375,31.3675426 151.558822,31.3675426 L151.571949,31.3675426 C151.939491,31.3675426 152.258903,31.452865 152.530185,31.6235098 C152.801466,31.7941546 153.009303,32.0194932 153.153694,32.2995257 C153.298086,32.5795581 153.370282,32.8770926 153.370282,33.1921292 C153.370282,33.8047002 153.195262,34.3078835 152.845221,34.7016792 C152.495181,35.0954748 151.987622,35.2923727 151.322545,35.2923727 L151.309418,35.2923727 C150.801859,35.2923727 150.388374,35.1217279 150.068962,34.7804383 C149.74955,34.4391487 149.589844,34.010349 149.589844,33.4940392 Z" id="Shape"></path>
            <path d="M156.84881,39.9916675 L156.84881,38.7446479 C157.093839,38.6833908 157.376059,38.5958807 157.695471,38.4821175 C158.014883,38.3683543 158.22272,38.2808442 158.318981,38.2195871 C158.607764,38.0095627 158.844042,37.6682731 159.027813,37.1957183 C159.159078,36.8981838 159.331911,36.4234413 159.546311,35.7714907 C159.76071,35.1195401 159.90729,34.6272956 159.986049,34.294757 L161.692497,34.294757 L161.71875,38.1145749 L166.129261,38.1145749 L166.129261,39.9916675 L161.731877,39.9916675 L161.731877,47.9332133 C161.731877,49.0008371 161.762505,49.7424855 161.823762,50.1581587 C161.885019,50.5738319 162.009721,50.8407379 162.197868,50.9588766 C162.386015,51.0770153 162.729492,51.1360846 163.2283,51.1360846 L163.241427,51.1360846 C163.696479,51.1360846 164.210601,51.079203 164.783793,50.9654398 C165.356984,50.8516766 165.801098,50.7335379 166.116135,50.6110237 L166.129261,50.6110237 L166.575563,51.8842964 C166.313033,52.1030717 165.919237,52.3240349 165.394176,52.5471857 C164.869115,52.7703366 164.304675,52.9562957 163.700855,53.1050629 C163.097035,53.2538302 162.541345,53.3282138 162.033787,53.3282138 L162.007533,53.3282138 C160.922408,53.3282138 160.104188,53.0897486 159.552874,52.6128183 C159.00156,52.135888 158.725903,51.337358 158.725903,50.2172281 L158.725903,39.9916675 L156.84881,39.9916675 Z" id="Path"></path>
            <path d="M168.833325,57.056146 C168.938337,57.1174031 169.152737,57.1720969 169.476524,57.2202275 C169.800312,57.2683581 170.106598,57.2924234 170.395381,57.2924234 C170.920442,57.2924234 171.403935,57.1852235 171.845862,56.9708236 C172.287788,56.7564238 172.736277,56.3385628 173.19133,55.7172408 C173.646383,55.0959187 174.088309,54.2033152 174.517109,53.0394303 L173.033812,53.0394303 L168.124493,39.8472758 L166.877473,39.5059862 L166.877473,38.1145749 L173.558873,38.1145749 L173.558873,39.5059862 L171.498009,39.8472758 L174.031428,47.775695 L175.199688,51.5823864 L176.24981,47.7625685 L178.62571,39.8341492 L176.866756,39.5059862 L176.866756,38.1145749 L182.379895,38.1145749 L182.379895,39.5059862 L181.04099,39.8341492 C179.780844,43.7546038 178.754788,46.8852793 177.962821,49.2261757 C177.170854,51.5670721 176.665483,52.9869242 176.446708,53.485732 C175.851639,54.9909066 175.289386,56.1810445 174.75995,57.056146 C174.230513,57.9312475 173.617942,58.5963246 172.922236,59.0513773 C172.226531,59.5064301 171.375495,59.7339565 170.369128,59.7339565 C170.097846,59.7339565 169.804687,59.7142667 169.489651,59.6748871 C169.174614,59.6355076 168.955839,59.5895647 168.833325,59.5370586 L168.833325,57.056146 Z" id="Path"></path>
        </g>
    </g>
</svg>