<?xml version="1.0" encoding="UTF-8"?>
<svg width="64px" height="64px" viewBox="0 0 64 64" version="1.1" xmlns="http://www.w3.org/2000/svg" xmlns:xlink="http://www.w3.org/1999/xlink">
    <title>logo/cfius/black/icon/cfius-logo-black-icon</title>
    <g id="logo/cfius/black/icon/cfius-logo-black-icon" stroke="none" stroke-width="1" fill="none" fill-rule="evenodd">
        <path d="M32,0 C49.673,0 64,14.327 64,32 C64,49.673 49.673,64 32,64 C14.327,64 0,49.673 0,32 C0,14.327 14.327,0 32,0 Z M50.7767,23.6618 L13.2227,23.6618 L13.2227,44.0078 C13.2227,44.9518 13.9567,45.6858 14.8487,45.6858 L14.8487,45.6858 L49.0987,45.6858 C50.0417,45.6858 50.7767,44.9518 50.7767,44.0078 L50.7767,44.0078 L50.7767,23.6618 Z M35.3737,14.612 L28.6257,14.612 C27.5807,14.612 26.6707,15.325 26.4207,16.339 L26.4207,16.339 L25.7727,18.978 L14.8487,18.978 C13.9547,18.978 13.2227,19.71 13.2227,20.604 L13.2227,20.604 L13.2227,21.262 L50.7767,21.262 L50.7767,20.604 C50.7767,19.712 50.0417,18.978 49.0987,18.978 L49.0987,18.978 L38.2277,18.978 L37.5787,16.339 C37.3287,15.325 36.4187,14.612 35.3737,14.612 L35.3737,14.612 Z M34.7833,16.3049 C35.1853,16.3049 35.5323,16.5899 35.6113,16.9849 L35.6113,16.9849 L35.9873,18.8749 L28.0133,18.8749 L28.3883,16.9859 C28.4683,16.5899 28.8143,16.3049 29.2173,16.3049 L29.2173,16.3049 Z" id="icon" fill="#000000"></path>
    </g>
</svg>