<?xml version="1.0" encoding="UTF-8"?>
<svg width="411px" height="64px" viewBox="0 0 411 64" version="1.1" xmlns="http://www.w3.org/2000/svg" xmlns:xlink="http://www.w3.org/1999/xlink">
    <title>logo/eic/black/stacked/eic-logo-black-stacked</title>
    <g id="logo/eic/black/stacked/eic-logo-black-stacked" stroke="none" stroke-width="1" fill="none" fill-rule="evenodd">
        <path d="M32,0 C49.673,0 64,14.327 64,32 C64,49.673 49.673,64 32,64 C14.327,64 0,49.673 0,32 C0,14.327 14.327,0 32,0 Z M33.556,10.9998 L30.854,10.9998 C29.665,11.0008 28.651,11.8538 28.446,13.0238 L27.885,16.2088 C26.509,16.5838 25.188,17.1348 23.954,17.8488 L21.31,15.9918 C20.327,15.3208 19.004,15.4538 18.175,16.3058 L16.268,18.2138 C15.428,19.0528 15.312,20.3758 15.993,21.3478 L17.851,23.9928 C17.136,25.2258 16.584,26.5478 16.209,27.9238 L13.025,28.4838 C11.855,28.6888 11.001,29.7038 11,30.8918 L11,33.6238 C11.001,34.8108 11.855,35.8268 13.025,36.0318 L16.209,36.5918 C16.584,37.9678 17.136,39.2898 17.851,40.5228 L15.993,43.1678 C15.312,44.1398 15.428,45.4628 16.268,46.3018 L18.175,48.2088 C19.015,49.0488 20.337,49.1658 21.31,48.4838 L23.944,46.6268 C25.178,47.3408 26.499,47.8928 27.875,48.2678 L28.436,51.4528 C28.641,52.6218 29.655,53.4758 30.843,53.4768 L33.575,53.4768 C34.763,53.4758 35.779,52.6218 35.984,51.4528 L36.544,48.2678 C37.92,47.8938 39.241,47.3418 40.475,46.6268 L43.149,48.4348 C44.121,49.1168 45.444,49.0008 46.283,48.1598 L48.191,46.2538 C49.03,45.4138 49.147,44.0908 48.465,43.1178 L46.608,40.4738 C47.322,39.2398 47.874,37.9188 48.249,36.5428 L51.384,35.9638 C52.554,35.7578 53.407,34.7428 53.409,33.5548 L53.409,30.8518 C53.407,29.6648 52.554,28.6498 51.384,28.4448 L48.2,27.8838 C47.825,26.5078 47.274,25.1868 46.559,23.9528 L48.416,21.3088 C49.098,20.3358 48.982,19.0128 48.141,18.1738 L46.235,16.2668 C45.395,15.4258 44.072,15.3098 43.099,15.9918 L40.455,17.8488 C39.222,17.1338 37.901,16.5828 36.524,16.2088 L35.964,13.0238 C35.759,11.8538 34.743,11.0008 33.556,10.9998 Z M32.2046,17.2381 C36.317225,17.2381 39.6626,20.4517018 39.6626,24.4015203 L39.6626,24.4015203 L39.6626,26.8313651 L41.228725,26.8313651 C42.3191,26.8313651 43.2046,27.6811505 43.2046,28.7290211 L43.2046,28.7290211 L43.2046,41.340444 C43.2046,42.3889749 42.3191,43.2381 41.228725,43.2381 L41.228725,43.2381 L23.180475,43.2381 C22.088725,43.2381 21.2046,42.3889749 21.2046,41.340444 L21.2046,41.340444 L21.2046,28.7290211 C21.2046,27.6811505 22.088725,26.8313651 23.180475,26.8313651 L23.180475,26.8313651 L24.745225,26.8313651 L24.745225,24.4015203 C24.745225,20.4517018 28.0912875,17.2381 32.2046,17.2381 Z M32.205274,21.2381 C29.9993767,21.2381 28.2046,22.8998785 28.2046,24.9416881 L28.2046,24.9416881 L28.2046,27.2381 L36.2046,27.2381 L36.2046,24.9416881 C36.2046,22.8998785 34.4104972,21.2381 32.205274,21.2381 Z" id="icon" fill="#000000"></path>
        <g id="Enterprise-Infrastru" transform="translate(72.866350, 3.737419)" fill="#000000">
            <polygon id="Path" points="2.59905134 20.5167538 2.59905134 4.06922179 0.433175223 3.74105875 0.433175223 2.28401481 14.1110111 2.28401481 14.4785537 6.44512226 12.7852323 6.44512226 11.971388 3.9510831 5.68378399 3.78043831 5.68378399 11.1969232 9.94990361 11.1181641 10.3436993 8.93916142 12.0370206 8.93916142 12.0370206 15.1611328 10.3436993 15.1611328 9.96303013 12.850865 5.68378399 12.7852323 5.68378399 20.6348925 12.903371 20.346109 14.386668 17.051352 16.0668628 17.5501598 15.292398 22.2625812 0.393795657 22.2625812 0.393795657 20.8317903"></polygon>
            <path d="M19.768542,20.6086394 L19.768542,9.60861404 L17.8914494,9.08355317 L17.8914494,7.50837054 L21.7768999,6.98330966 L21.8425325,6.98330966 L22.459479,7.49524401 L22.459479,8.55849229 L22.4463525,9.1623123 C22.8488991,8.8035207 23.3542702,8.45785562 23.9624658,8.12531707 C24.5706613,7.79277851 25.2226119,7.52149706 25.9183175,7.31147271 C26.6140232,7.10144836 27.272537,6.99643618 27.8938591,6.99643618 C29.031491,6.99643618 29.9109679,7.20864829 30.53229,7.63307249 C31.153612,8.0574967 31.5867872,8.71163504 31.8318156,9.59548752 C32.0768441,10.47934 32.1993583,11.678229 32.1993583,13.1921545 L32.1993583,20.6086394 L34.0895774,20.8317903 L34.0895774,22.2625812 L27.5000634,22.2625812 L27.5000634,20.8317903 L29.1802582,20.6086394 L29.1802582,13.179028 C29.1802582,12.1639103 29.1124379,11.3653802 28.9767971,10.7834378 C28.8411564,10.2014953 28.5851892,9.76394455 28.2088956,9.47078556 C27.832602,9.17762657 27.2769125,9.03104708 26.5418273,9.03104708 C25.9117543,9.03104708 25.2554282,9.1666878 24.572849,9.43796926 C23.8902699,9.70925071 23.2908254,10.0374138 22.7745155,10.4224584 L22.7745155,20.6086394 L24.5859755,20.8317903 L24.5859755,22.2625812 L18.0489676,22.2625812 L18.0489676,20.8317903 L19.768542,20.6086394 Z" id="Path"></path>
            <path d="M35.638507,9.21481838 L35.638507,7.9677988 C35.8835354,7.9065417 36.1657556,7.81903155 36.4851677,7.70526836 C36.8045797,7.59150517 37.0124163,7.50399503 37.1086775,7.44273793 C37.3974609,7.23271358 37.6337383,6.89142401 37.8175096,6.41886922 C37.9487749,6.12133472 38.1216074,5.64659218 38.3360073,4.99464159 C38.5504071,4.342691 38.6969866,3.85044643 38.7757457,3.51790787 L40.4821936,3.51790787 L40.5084466,7.33772575 L44.918958,7.33772575 L44.918958,9.21481838 L40.5215732,9.21481838 L40.5215732,17.1563641 C40.5215732,18.2239879 40.5522017,18.9656364 40.6134588,19.3813096 C40.6747159,19.7969828 40.7994179,20.0638887 40.9875647,20.1820274 C41.1757115,20.3001661 41.5191888,20.3592355 42.0179967,20.3592355 L42.0311232,20.3592355 C42.4861759,20.3592355 43.000298,20.3023539 43.5734895,20.1885907 C44.146681,20.0748275 44.5907949,19.9566888 44.9058315,19.8341746 L44.918958,19.8341746 L45.3652597,21.1074472 C45.1027293,21.3262226 44.7089336,21.5471857 44.1838728,21.7703366 C43.6588119,21.9934875 43.0943714,22.1794465 42.4905514,22.3282138 C41.8867314,22.476981 41.331042,22.5513647 40.8234832,22.5513647 L40.7972301,22.5513647 C39.7121043,22.5513647 38.8938844,22.3128995 38.3425705,21.8359692 C37.7912566,21.3590389 37.5155996,20.5605088 37.5155996,19.440379 L37.5155996,9.21481838 L35.638507,9.21481838 Z" id="Path"></path>
            <path d="M46.8223037,14.7673372 C46.8223037,13.2271586 47.1242137,11.8620003 47.7280337,10.6718623 C48.3318537,9.48172433 49.1675756,8.56068004 50.2351994,7.90872945 C51.3028232,7.25677887 52.5148387,6.93080357 53.8712459,6.93080357 C55.5514407,6.93080357 56.8509664,7.39023184 57.769823,8.30908837 C58.6886795,9.22794491 59.1787363,10.5537236 59.2399934,12.2864245 L59.2399934,12.7589793 C59.2399934,13.6778358 59.1874873,14.377917 59.0824751,14.8592228 L49.9857955,14.8592228 C50.0207995,16.145622 50.2395749,17.2132457 50.6421216,18.0620942 C51.0446682,18.9109426 51.5741046,19.5366401 52.2304307,19.9391868 C52.8867568,20.3417335 53.6262175,20.5430068 54.4488129,20.5430068 C55.1663961,20.5430068 55.9036691,20.4183048 56.6606318,20.1689009 C57.4175946,19.919497 58.0104759,19.6329013 58.4392756,19.3091137 L58.9905895,20.5692598 C58.6580509,20.9105494 58.2008104,21.234337 57.6188679,21.5406225 C57.0369255,21.846908 56.3893504,22.0941241 55.6761427,22.282271 C54.962935,22.4704178 54.2562906,22.5644912 53.5562094,22.5644912 C52.086039,22.5644912 50.8455826,22.2385159 49.8348405,21.5865653 C48.8240983,20.9346147 48.0693233,20.0245092 47.5705154,18.8562487 C47.0717076,17.6879883 46.8223037,16.3250178 46.8223037,14.7673372 Z M56.0896281,13.3365463 C56.1246322,13.0215097 56.1421342,12.6452161 56.1421342,12.2076654 C56.1333832,11.0962865 55.9014813,10.203683 55.4464286,9.52985491 C54.9913758,8.85602679 54.2737926,8.51911272 53.293679,8.51911272 C52.3135653,8.51911272 51.5369128,8.88446758 50.9637213,9.6151773 C50.3905299,10.345887 50.0645546,11.5863433 49.9857955,13.3365463 L56.0896281,13.3365463 Z" id="Shape"></path>
            <path d="M63.5848722,20.6348925 L63.5848722,9.60861404 L61.720906,9.08355317 L61.720906,7.50837054 L65.4750913,6.98330966 L65.5407239,6.98330966 L66.170797,7.49524401 L66.170797,8.32221489 L66.1445439,10.0286627 L66.170797,10.0286627 C66.3283152,9.73987926 66.632413,9.35264686 67.0830902,8.86696555 C67.5337675,8.38128424 68.11571,7.93717025 68.8289177,7.53462358 C69.5421254,7.13207691 70.3187779,6.93080357 71.1588753,6.93080357 C71.5001649,6.93080357 71.7889484,6.97893415 72.0252258,7.07519531 L72.0252258,10.3043197 C71.8589565,10.2080585 71.6379934,10.1271117 71.3623364,10.061479 C71.0866794,9.99584644 70.7913327,9.96303013 70.4762962,9.96303013 C69.5924437,9.96303013 68.8289177,10.0702301 68.1857181,10.2846299 C67.5425185,10.4990298 67.0065189,10.7681235 66.5777192,11.091911 L66.5777192,20.6217659 L70.0299944,20.8580433 L70.0299944,22.2625812 L61.5240082,22.2625812 L61.5240082,20.8449168 L63.5848722,20.6348925 Z" id="Path"></path>
            <path d="M80.8987546,22.5644912 C80.5049589,22.5644912 80.0717837,22.5316749 79.5992289,22.4660423 C79.1266741,22.4004096 78.7285029,22.3238383 78.4047154,22.2363281 L78.4834745,24.4678369 L78.4834745,27.0668882 L81.1744115,27.3556717 L81.1744115,28.773336 L73.5479023,28.773336 L73.5479023,27.3556717 L75.5037541,27.0537617 L75.5037541,9.60861404 L73.6266614,9.08355317 L73.6266614,7.50837054 L77.4989854,6.98330966 L77.564618,6.98330966 L78.1553115,7.49524401 L78.1553115,8.99166751 C78.6803724,8.41410055 79.3279474,7.92623148 80.0980367,7.52806032 C80.868126,7.12988915 81.738852,6.93080357 82.7102146,6.93080357 C83.7778384,6.93080357 84.7535765,7.19114626 85.637429,7.71183163 C86.5212815,8.23251699 87.2301136,9.04198585 87.7639255,10.1402382 C88.2977374,11.2384905 88.5646434,12.6145876 88.5646434,14.2685293 C88.5646434,15.7999569 88.2517946,17.1957437 87.626097,18.4558898 C87.0003995,19.7160359 86.107796,20.7158393 84.9482866,21.4553001 C83.7887771,22.1947608 82.4389331,22.5644912 80.8987546,22.5644912 Z M78.4834745,20.2410968 C78.6059887,20.4598722 78.905711,20.6523945 79.3826413,20.8186638 C79.8595716,20.984933 80.3955712,21.0680677 80.9906402,21.0680677 C81.8394886,21.0680677 82.5898881,20.842729 83.2418387,20.3920518 C83.8937893,19.9413745 84.4079114,19.2281669 84.7842051,18.2524287 C85.1604987,17.2766906 85.3486455,16.0362343 85.3486455,14.5310598 C85.3486455,13.2621626 85.1801885,12.2120409 84.8432744,11.3806945 C84.5063603,10.5493481 84.0491198,9.93458934 83.4715529,9.53641817 C82.8939859,9.13824701 82.2332843,8.93916142 81.4894481,8.93916142 C80.868126,8.93916142 80.2905591,9.06605114 79.7567472,9.31983056 C79.2229353,9.57360998 78.7985111,9.87114448 78.4834745,10.2124341 L78.4834745,20.2410968 Z" id="Shape"></path>
            <path d="M92.9489017,20.6348925 L92.9489017,9.60861404 L91.0849356,9.08355317 L91.0849356,7.50837054 L94.8391208,6.98330966 L94.9047534,6.98330966 L95.5348265,7.49524401 L95.5348265,8.32221489 L95.5085735,10.0286627 L95.5348265,10.0286627 C95.6923448,9.73987926 95.9964425,9.35264686 96.4471198,8.86696555 C96.897797,8.38128424 97.4797395,7.93717025 98.1929472,7.53462358 C98.9061549,7.13207691 99.6828074,6.93080357 100.522905,6.93080357 C100.864194,6.93080357 101.152978,6.97893415 101.389255,7.07519531 L101.389255,10.3043197 C101.222986,10.2080585 101.002023,10.1271117 100.726366,10.061479 C100.450709,9.99584644 100.155362,9.96303013 99.8403257,9.96303013 C98.9564732,9.96303013 98.1929472,10.0702301 97.5497476,10.2846299 C96.906548,10.4990298 96.3705484,10.7681235 95.9417487,11.091911 L95.9417487,20.6217659 L99.3940239,20.8580433 L99.3940239,22.2625812 L90.8880377,22.2625812 L90.8880377,20.8449168 L92.9489017,20.6348925 Z" id="Path"></path>
            <path d="M105.195947,20.6086394 L105.195947,9.60861404 L103.292601,9.07042664 L103.292601,7.52149706 L107.466835,6.98330966 L107.532468,6.98330966 L108.20192,7.49524401 L108.20192,20.6086394 L110.302164,20.8317903 L110.302164,22.2625812 L103.06945,22.2625812 L103.06945,20.8317903 L105.195947,20.6086394 Z M104.657759,2.71719004 C104.657759,2.12212104 104.830592,1.6189377 105.176257,1.20764002 C105.521922,0.79634233 106.005415,0.590693486 106.626738,0.590693486 L106.639864,0.590693486 C107.007407,0.590693486 107.326819,0.676015879 107.5981,0.846660664 C107.869382,1.01730545 108.077218,1.24264407 108.22161,1.52267654 C108.366002,1.80270901 108.438198,2.10024351 108.438198,2.41528003 C108.438198,3.02785106 108.263177,3.5310344 107.913137,3.92483005 C107.563096,4.31862571 107.055537,4.51552354 106.39046,4.51552354 L106.377334,4.51552354 C105.869775,4.51552354 105.456289,4.34487875 105.136877,4.00358918 C104.817465,3.66229961 104.657759,3.2334999 104.657759,2.71719004 Z" id="Shape"></path>
            <path d="M114.450145,17.9964615 L114.975205,19.9916929 C115.080218,20.1754642 115.283679,20.3504845 115.585589,20.5167538 C115.887499,20.683023 116.244103,20.8186638 116.6554,20.9236759 C117.066698,21.0286881 117.486747,21.0811942 117.915546,21.0811942 C118.904411,21.0811942 119.608868,20.8952351 120.028916,20.523317 C120.448965,20.1513989 120.658989,19.6416523 120.658989,18.9940772 C120.658989,18.5390245 120.516785,18.1386655 120.232377,17.7930005 C119.94797,17.4473354 119.525733,17.1213601 118.965668,16.8150746 C118.405603,16.5087891 117.644265,16.163124 116.681653,15.7780793 C115.290242,15.2355164 114.275124,14.5945046 113.6363,13.8550439 C112.997476,13.1155831 112.678064,12.1595348 112.678064,10.9868988 C112.678064,10.1993075 112.916529,9.50578962 113.39346,8.90634512 C113.87039,8.30690062 114.524528,7.84090909 115.355875,7.50837054 C116.187221,7.17583198 117.12358,7.0095627 118.16495,7.0095627 C118.970044,7.0095627 119.678876,7.07300756 120.291447,7.19989727 C120.904018,7.32678698 121.520964,7.49086851 122.142286,7.69214184 L122.614841,7.83653358 L122.614841,11.1575436 L120.934646,11.1575436 L120.370206,9.31983056 C120.265194,9.09230418 119.982974,8.89540635 119.523545,8.72913707 C119.064117,8.5628678 118.549995,8.47973316 117.981179,8.47973316 C117.176086,8.47973316 116.554764,8.65037794 116.117213,8.99166751 C115.679662,9.33295708 115.460887,9.77925883 115.460887,10.3305727 C115.460887,10.8206296 115.589964,11.2319273 115.848119,11.5644658 C116.106274,11.8970044 116.427874,12.1682858 116.812919,12.3783102 C117.197963,12.5883345 117.736151,12.8377384 118.427481,13.1265219 L118.939415,13.3496728 C119.937031,13.7784725 120.7465,14.1810192 121.367822,14.5573128 C121.989144,14.9336064 122.505454,15.4149122 122.916751,16.0012302 C123.328049,16.5875482 123.533698,17.3051314 123.533698,18.1539798 C123.533698,19.0290813 123.303984,19.7991706 122.844555,20.4642477 C122.385127,21.1293248 121.72005,21.6456346 120.849324,22.0131773 C119.978598,22.3807199 118.948166,22.5644912 117.758028,22.5644912 C116.865425,22.5644912 115.929066,22.441977 114.948952,22.1969486 C113.968839,21.9519202 113.185623,21.6981407 112.599305,21.4356103 L112.599305,17.9964615 L114.450145,17.9964615 Z" id="Path"></path>
            <path d="M125.843966,14.7673372 C125.843966,13.2271586 126.145876,11.8620003 126.749696,10.6718623 C127.353516,9.48172433 128.189238,8.56068004 129.256861,7.90872945 C130.324485,7.25677887 131.536501,6.93080357 132.892908,6.93080357 C134.573103,6.93080357 135.872628,7.39023184 136.791485,8.30908837 C137.710341,9.22794491 138.200398,10.5537236 138.261655,12.2864245 L138.261655,12.7589793 C138.261655,13.6778358 138.209149,14.377917 138.104137,14.8592228 L129.007457,14.8592228 C129.042461,16.145622 129.261237,17.2132457 129.663783,18.0620942 C130.06633,18.9109426 130.595767,19.5366401 131.252093,19.9391868 C131.908419,20.3417335 132.647879,20.5430068 133.470475,20.5430068 C134.188058,20.5430068 134.925331,20.4183048 135.682294,20.1689009 C136.439257,19.919497 137.032138,19.6329013 137.460937,19.3091137 L138.012251,20.5692598 C137.679713,20.9105494 137.222472,21.234337 136.64053,21.5406225 C136.058587,21.846908 135.411012,22.0941241 134.697805,22.282271 C133.984597,22.4704178 133.277953,22.5644912 132.577871,22.5644912 C131.107701,22.5644912 129.867245,22.2385159 128.856502,21.5865653 C127.84576,20.9346147 127.090985,20.0245092 126.592177,18.8562487 C126.09337,17.6879883 125.843966,16.3250178 125.843966,14.7673372 Z M135.11129,13.3365463 C135.146294,13.0215097 135.163796,12.6452161 135.163796,12.2076654 C135.155045,11.0962865 134.923143,10.203683 134.468091,9.52985491 C134.013038,8.85602679 133.295455,8.51911272 132.315341,8.51911272 C131.335227,8.51911272 130.558575,8.88446758 129.985383,9.6151773 C129.412192,10.345887 129.086217,11.5863433 129.007457,13.3365463 L135.11129,13.3365463 Z" id="Shape"></path>
            <polygon id="Path" points="151.283165 20.5167538 151.283165 4.08234832 148.881012 3.74105875 148.881012 2.28401481 156.783178 2.28401481 156.783178 3.74105875 154.381024 4.06922179 154.381024 20.5167538 156.822557 20.8711698 156.822557 22.2625812 148.881012 22.2625812 148.881012 20.8317903"></polygon>
            <path d="M161.324954,20.6086394 L161.324954,9.60861404 L159.447862,9.08355317 L159.447862,7.50837054 L163.333312,6.98330966 L163.398945,6.98330966 L164.015891,7.49524401 L164.015891,8.55849229 L164.002765,9.1623123 C164.405311,8.8035207 164.910683,8.45785562 165.518878,8.12531707 C166.127074,7.79277851 166.779024,7.52149706 167.47473,7.31147271 C168.170436,7.10144836 168.828949,6.99643618 169.450271,6.99643618 C170.587903,6.99643618 171.46738,7.20864829 172.088702,7.63307249 C172.710024,8.0574967 173.1432,8.71163504 173.388228,9.59548752 C173.633256,10.47934 173.755771,11.678229 173.755771,13.1921545 L173.755771,20.6086394 L175.64599,20.8317903 L175.64599,22.2625812 L169.056476,22.2625812 L169.056476,20.8317903 L170.736671,20.6086394 L170.736671,13.179028 C170.736671,12.1639103 170.66885,11.3653802 170.533209,10.7834378 C170.397569,10.2014953 170.141602,9.76394455 169.765308,9.47078556 C169.389014,9.17762657 168.833325,9.03104708 168.09824,9.03104708 C167.468167,9.03104708 166.811841,9.1666878 166.129261,9.43796926 C165.446682,9.70925071 164.847238,10.0374138 164.330928,10.4224584 L164.330928,20.6086394 L166.142388,20.8317903 L166.142388,22.2625812 L159.60538,22.2625812 L159.60538,20.8317903 L161.324954,20.6086394 Z" id="Path"></path>
            <path d="M179.702085,20.5955129 L179.702085,9.25419795 L177.194919,9.25419795 L177.194919,7.95467228 L179.702085,7.36397879 L179.702085,6.11695921 C179.702085,5.00558036 180.003995,3.98171165 180.607815,3.04535308 C181.211635,2.10899452 181.997039,1.36734603 182.964026,0.82040762 C183.931013,0.273469207 184.930816,0 185.963436,0 C186.348481,0 186.652578,0.0196897829 186.875729,0.0590693486 C187.09888,0.0984489144 187.319843,0.148767248 187.538619,0.210024351 L187.538619,3.15036526 C187.354847,2.992847 187.026684,2.83970424 186.554129,2.69093699 C186.081575,2.54216974 185.560889,2.46778612 184.992073,2.46778612 C184.405755,2.46778612 183.948515,2.54216974 183.620352,2.69093699 C183.292189,2.83970424 183.055911,3.10223468 182.91152,3.47852831 C182.767128,3.85482194 182.694932,4.39300933 182.694932,5.0930905 L182.708059,7.36397879 L186.317852,7.36397879 L186.317852,9.25419795 L182.708059,9.25419795 L182.708059,20.6086394 L185.556514,20.8449168 L185.556514,22.2625812 L177.483703,22.2625812 L177.483703,20.8449168 L179.702085,20.5955129 Z" id="Path"></path>
            <path d="M190.465833,20.6348925 L190.465833,9.60861404 L188.601867,9.08355317 L188.601867,7.50837054 L192.356052,6.98330966 L192.421685,6.98330966 L193.051758,7.49524401 L193.051758,8.32221489 L193.025505,10.0286627 L193.051758,10.0286627 C193.209276,9.73987926 193.513374,9.35264686 193.964051,8.86696555 C194.414728,8.38128424 194.996671,7.93717025 195.709879,7.53462358 C196.423086,7.13207691 197.199739,6.93080357 198.039836,6.93080357 C198.381126,6.93080357 198.669909,6.97893415 198.906187,7.07519531 L198.906187,10.3043197 C198.739917,10.2080585 198.518954,10.1271117 198.243297,10.061479 C197.96764,9.99584644 197.672294,9.96303013 197.357257,9.96303013 C196.473405,9.96303013 195.709879,10.0702301 195.066679,10.2846299 C194.423479,10.4990298 193.88748,10.7681235 193.45868,11.091911 L193.45868,20.6217659 L196.910955,20.8580433 L196.910955,22.2625812 L188.404969,22.2625812 L188.404969,20.8449168 L190.465833,20.6348925 Z" id="Path"></path>
            <path d="M209.473037,12.5095754 C209.473037,11.68698 209.387714,11.0394049 209.21707,10.5668501 C209.046425,10.0942954 208.751078,9.74863028 208.331029,9.52985491 C207.910981,9.31107955 207.315912,9.20169186 206.545822,9.20169186 C205.066901,9.20169186 203.50922,9.61736506 201.872781,10.4487114 L201.859654,10.4487114 L201.203328,9.08355317 C201.439605,8.87352881 201.89247,8.60224736 202.561923,8.26970881 C203.231376,7.93717025 203.992714,7.64619902 204.845938,7.3967951 C205.699162,7.14739118 206.510818,7.02268922 207.280908,7.02268922 C208.558556,7.02268922 209.562735,7.19552176 210.293444,7.54118684 C211.024154,7.88685192 211.551403,8.44035359 211.87519,9.20169186 C212.198978,9.96303013 212.360872,10.9912744 212.360872,12.2864245 L212.360872,20.8186638 L213.962307,20.8186638 L213.962307,22.1050629 C212.684659,22.4113484 211.722047,22.5644912 211.074472,22.5644912 C210.70693,22.5644912 210.426897,22.5338626 210.234375,22.4726055 C210.041853,22.4113484 209.899649,22.2866465 209.807763,22.0984996 C209.715877,21.9103528 209.669935,21.6193816 209.669935,21.2255859 L209.669935,20.5955129 C209.19738,21.0593167 208.576058,21.5034307 207.805968,21.9278549 C207.035879,22.3522791 206.173904,22.5644912 205.220044,22.5644912 C204.379946,22.5644912 203.61642,22.4113484 202.929466,22.1050629 C202.242511,21.7987774 201.695572,21.3262226 201.28865,20.6873985 C200.881728,20.0485745 200.678267,19.2522321 200.678267,18.2983716 C200.678267,17.1344866 201.083001,16.1762505 201.89247,15.4236633 C202.701939,14.671076 203.765187,14.1175743 205.082215,13.7631582 C206.399243,13.4087421 207.86285,13.2184076 209.473037,13.1921545 L209.473037,12.5095754 Z M209.473037,14.6754515 C208.186638,14.6754515 207.129953,14.822031 206.302982,15.11519 C205.476011,15.408349 204.876566,15.7955814 204.504648,16.2768872 C204.13273,16.758193 203.946771,17.3051314 203.946771,17.9177024 C203.946771,18.8365589 204.174297,19.5103871 204.62935,19.9391868 C205.084403,20.3679865 205.696974,20.5823864 206.467063,20.5823864 C206.878361,20.5823864 207.374981,20.4664354 207.956923,20.2345335 C208.538866,20.0026316 209.044237,19.7204114 209.473037,19.3878729 L209.473037,14.6754515 Z" id="Shape"></path>
            <path d="M218.044656,17.9964615 L218.569716,19.9916929 C218.674729,20.1754642 218.87819,20.3504845 219.1801,20.5167538 C219.48201,20.683023 219.838614,20.8186638 220.249911,20.9236759 C220.661209,21.0286881 221.081258,21.0811942 221.510057,21.0811942 C222.498922,21.0811942 223.203379,20.8952351 223.623427,20.523317 C224.043476,20.1513989 224.2535,19.6416523 224.2535,18.9940772 C224.2535,18.5390245 224.111296,18.1386655 223.826888,17.7930005 C223.54248,17.4473354 223.120244,17.1213601 222.560179,16.8150746 C222.000114,16.5087891 221.238776,16.163124 220.276164,15.7780793 C218.884753,15.2355164 217.869635,14.5945046 217.230811,13.8550439 C216.591987,13.1155831 216.272575,12.1595348 216.272575,10.9868988 C216.272575,10.1993075 216.51104,9.50578962 216.987971,8.90634512 C217.464901,8.30690062 218.119039,7.84090909 218.950386,7.50837054 C219.781732,7.17583198 220.718091,7.0095627 221.759461,7.0095627 C222.564555,7.0095627 223.273387,7.07300756 223.885958,7.19989727 C224.498529,7.32678698 225.115475,7.49086851 225.736797,7.69214184 L226.209352,7.83653358 L226.209352,11.1575436 L224.529157,11.1575436 L223.964717,9.31983056 C223.859705,9.09230418 223.577485,8.89540635 223.118056,8.72913707 C222.658628,8.5628678 222.144506,8.47973316 221.57569,8.47973316 C220.770597,8.47973316 220.149275,8.65037794 219.711724,8.99166751 C219.274173,9.33295708 219.055398,9.77925883 219.055398,10.3305727 C219.055398,10.8206296 219.184475,11.2319273 219.44263,11.5644658 C219.700785,11.8970044 220.022385,12.1682858 220.407429,12.3783102 C220.792474,12.5883345 221.330662,12.8377384 222.021992,13.1265219 L222.533926,13.3496728 C223.531542,13.7784725 224.341011,14.1810192 224.962333,14.5573128 C225.583655,14.9336064 226.099964,15.4149122 226.511262,16.0012302 C226.92256,16.5875482 227.128209,17.3051314 227.128209,18.1539798 C227.128209,19.0290813 226.898495,19.7991706 226.439066,20.4642477 C225.979638,21.1293248 225.314561,21.6456346 224.443835,22.0131773 C223.573109,22.3807199 222.542677,22.5644912 221.352539,22.5644912 C220.459936,22.5644912 219.523577,22.441977 218.543463,22.1969486 C217.56335,21.9519202 216.780134,21.6981407 216.193816,21.4356103 L216.193816,17.9964615 L218.044656,17.9964615 Z" id="Path"></path>
            <path d="M229.202199,9.21481838 L229.202199,7.9677988 C229.447228,7.9065417 229.729448,7.81903155 230.04886,7.70526836 C230.368272,7.59150517 230.576108,7.50399503 230.67237,7.44273793 C230.961153,7.23271358 231.19743,6.89142401 231.381202,6.41886922 C231.512467,6.12133472 231.6853,5.64659218 231.899699,4.99464159 C232.114099,4.342691 232.260679,3.85044643 232.339438,3.51790787 L234.045886,3.51790787 L234.072139,7.33772575 L238.48265,7.33772575 L238.48265,9.21481838 L234.085265,9.21481838 L234.085265,17.1563641 C234.085265,18.2239879 234.115894,18.9656364 234.177151,19.3813096 C234.238408,19.7969828 234.36311,20.0638887 234.551257,20.1820274 C234.739404,20.3001661 235.082881,20.3592355 235.581689,20.3592355 L235.594815,20.3592355 C236.049868,20.3592355 236.56399,20.3023539 237.137182,20.1885907 C237.710373,20.0748275 238.154487,19.9566888 238.469524,19.8341746 L238.48265,19.8341746 L238.928952,21.1074472 C238.666421,21.3262226 238.272626,21.5471857 237.747565,21.7703366 C237.222504,21.9934875 236.658064,22.1794465 236.054244,22.3282138 C235.450424,22.476981 234.894734,22.5513647 234.387175,22.5513647 L234.360922,22.5513647 C233.275796,22.5513647 232.457577,22.3128995 231.906263,21.8359692 C231.354949,21.3590389 231.079292,20.5605088 231.079292,19.440379 L231.079292,9.21481838 L229.202199,9.21481838 Z" id="Path"></path>
            <path d="M242.551872,20.6348925 L242.551872,9.60861404 L240.687906,9.08355317 L240.687906,7.50837054 L244.442091,6.98330966 L244.507724,6.98330966 L245.137797,7.49524401 L245.137797,8.32221489 L245.111544,10.0286627 L245.137797,10.0286627 C245.295315,9.73987926 245.599413,9.35264686 246.05009,8.86696555 C246.500767,8.38128424 247.08271,7.93717025 247.795917,7.53462358 C248.509125,7.13207691 249.285778,6.93080357 250.125875,6.93080357 C250.467165,6.93080357 250.755948,6.97893415 250.992226,7.07519531 L250.992226,10.3043197 C250.825956,10.2080585 250.604993,10.1271117 250.329336,10.061479 C250.053679,9.99584644 249.758332,9.96303013 249.443296,9.96303013 C248.559443,9.96303013 247.795917,10.0702301 247.152718,10.2846299 C246.509518,10.4990298 245.973519,10.7681235 245.544719,11.091911 L245.544719,20.6217659 L248.996994,20.8580433 L248.996994,22.2625812 L240.491008,22.2625812 L240.491008,20.8449168 L242.551872,20.6348925 Z" id="Path"></path>
            <path d="M263.567434,20.4773742 C263.007369,21.0199371 262.298536,21.5034307 261.440937,21.9278549 C260.583338,22.3522791 259.716987,22.5644912 258.841886,22.5644912 C257.748009,22.5644912 256.859781,22.3697811 256.177202,21.9803609 C255.494623,21.5909408 254.991439,20.9718065 254.667652,20.1229581 C254.343864,19.2741097 254.18197,18.1539798 254.18197,16.7625685 L254.18197,9.14918578 L252.724926,8.66350446 L252.724926,7.39023184 L256.610377,6.99643618 L256.623503,6.99643618 L257.174817,7.35085227 L257.174817,16.6181767 C257.174817,17.6157924 257.249201,18.3946327 257.397968,18.9546976 C257.546735,19.5147626 257.809266,19.9238725 258.18556,20.1820274 C258.561853,20.4401824 259.104416,20.5692598 259.813248,20.5692598 C260.495827,20.5692598 261.130276,20.4379946 261.716594,20.1754642 C262.302912,19.9129337 262.810471,19.6110237 263.23927,19.2697342 L263.23927,9.1623123 L261.362178,8.65037794 L261.362178,7.37710532 L265.510159,6.99643618 L265.536412,6.99643618 L266.232117,7.35085227 L266.232117,20.7792842 L267.8073,20.7792842 L267.8073,22.0919364 C267.299741,22.2407036 266.860003,22.3566546 266.488085,22.4397892 C266.116167,22.5229239 265.689555,22.5644912 265.208249,22.5644912 C264.648184,22.5644912 264.234698,22.4572912 263.967792,22.2428914 C263.700887,22.0284915 263.567434,21.6675122 263.567434,21.1599533 L263.567434,20.4773742 Z" id="Path"></path>
            <path d="M277.376535,6.93080357 C278.636681,6.93080357 279.984337,7.20208502 281.419503,7.74464793 L281.288238,11.7876167 L279.463652,11.7876167 L278.859832,9.33295708 C278.737317,9.0441736 278.494477,8.82977374 278.13131,8.68975751 C277.768143,8.54974127 277.33278,8.47973316 276.825221,8.47973316 C276.055131,8.47973316 275.385679,8.69194526 274.816863,9.11636947 C274.248047,9.54079368 273.806121,10.1752422 273.491084,11.0197151 C273.176048,11.8641881 273.018529,12.9077466 273.018529,14.1503906 C273.018529,15.594308 273.206676,16.793197 273.58297,17.7470576 C273.959263,18.7009182 274.471198,19.4053749 275.118773,19.8604277 C275.766348,20.3154804 276.497058,20.5430068 277.310902,20.5430068 C278.07224,20.5430068 278.774509,20.4314314 279.417709,20.2082805 C280.060908,19.9851296 280.610034,19.7116604 281.065087,19.3878729 L281.629528,20.5955129 C281.314491,20.9193004 280.894442,21.2321492 280.369382,21.5340592 C279.844321,21.8359692 279.255815,22.0831854 278.603864,22.2757077 C277.951914,22.46823 277.297775,22.5644912 276.641449,22.5644912 C275.162528,22.5644912 273.911133,22.2363281 272.887264,21.580002 C271.863395,20.9236759 271.095494,20.0245092 270.58356,18.8825018 C270.071625,17.7404944 269.815658,16.4431565 269.815658,14.990488 C269.815658,13.4940645 270.104441,12.1354695 270.682008,10.914703 C271.259575,9.69393643 272.117175,8.72476157 273.254807,8.00717837 C274.392439,7.28959517 275.766348,6.93080357 277.376535,6.93080357 Z" id="Path"></path>
            <path d="M283.427861,9.21481838 L283.427861,7.9677988 C283.67289,7.9065417 283.95511,7.81903155 284.274522,7.70526836 C284.593934,7.59150517 284.80177,7.50399503 284.898032,7.44273793 C285.186815,7.23271358 285.423093,6.89142401 285.606864,6.41886922 C285.738129,6.12133472 285.910962,5.64659218 286.125361,4.99464159 C286.339761,4.342691 286.486341,3.85044643 286.5651,3.51790787 L288.271548,3.51790787 L288.297801,7.33772575 L292.708312,7.33772575 L292.708312,9.21481838 L288.310927,9.21481838 L288.310927,17.1563641 C288.310927,18.2239879 288.341556,18.9656364 288.402813,19.3813096 C288.46407,19.7969828 288.588772,20.0638887 288.776919,20.1820274 C288.965066,20.3001661 289.308543,20.3592355 289.807351,20.3592355 L289.820477,20.3592355 C290.27553,20.3592355 290.789652,20.3023539 291.362844,20.1885907 C291.936035,20.0748275 292.380149,19.9566888 292.695186,19.8341746 L292.708312,19.8341746 L293.154614,21.1074472 C292.892084,21.3262226 292.498288,21.5471857 291.973227,21.7703366 C291.448166,21.9934875 290.883726,22.1794465 290.279906,22.3282138 C289.676086,22.476981 289.120396,22.5513647 288.612837,22.5513647 L288.586584,22.5513647 C287.501459,22.5513647 286.683239,22.3128995 286.131925,21.8359692 C285.580611,21.3590389 285.304954,20.5605088 285.304954,19.440379 L285.304954,9.21481838 L283.427861,9.21481838 Z" id="Path"></path>
            <path d="M305.414785,20.4773742 C304.85472,21.0199371 304.145888,21.5034307 303.288289,21.9278549 C302.430689,22.3522791 301.564339,22.5644912 300.689238,22.5644912 C299.595361,22.5644912 298.707133,22.3697811 298.024554,21.9803609 C297.341974,21.5909408 296.838791,20.9718065 296.515004,20.1229581 C296.191216,19.2741097 296.029322,18.1539798 296.029322,16.7625685 L296.029322,9.14918578 L294.572278,8.66350446 L294.572278,7.39023184 L298.457729,6.99643618 L298.470855,6.99643618 L299.022169,7.35085227 L299.022169,16.6181767 C299.022169,17.6157924 299.096553,18.3946327 299.24532,18.9546976 C299.394087,19.5147626 299.656618,19.9238725 300.032911,20.1820274 C300.409205,20.4401824 300.951768,20.5692598 301.6606,20.5692598 C302.343179,20.5692598 302.977628,20.4379946 303.563946,20.1754642 C304.150264,19.9129337 304.657823,19.6110237 305.086622,19.2697342 L305.086622,9.1623123 L303.20953,8.65037794 L303.20953,7.37710532 L307.357511,6.99643618 L307.383764,6.99643618 L308.079469,7.35085227 L308.079469,20.7792842 L309.654652,20.7792842 L309.654652,22.0919364 C309.147093,22.2407036 308.707355,22.3566546 308.335437,22.4397892 C307.963518,22.5229239 307.536906,22.5644912 307.055601,22.5644912 C306.495536,22.5644912 306.08205,22.4572912 305.815144,22.2428914 C305.548238,22.0284915 305.414785,21.6675122 305.414785,21.1599533 L305.414785,20.4773742 Z" id="Path"></path>
            <path d="M313.933898,20.6348925 L313.933898,9.60861404 L312.069932,9.08355317 L312.069932,7.50837054 L315.824117,6.98330966 L315.88975,6.98330966 L316.519823,7.49524401 L316.519823,8.32221489 L316.49357,10.0286627 L316.519823,10.0286627 C316.677341,9.73987926 316.981439,9.35264686 317.432116,8.86696555 C317.882793,8.38128424 318.464736,7.93717025 319.177944,7.53462358 C319.891151,7.13207691 320.667804,6.93080357 321.507901,6.93080357 C321.849191,6.93080357 322.137974,6.97893415 322.374252,7.07519531 L322.374252,10.3043197 C322.207982,10.2080585 321.987019,10.1271117 321.711362,10.061479 C321.435705,9.99584644 321.140359,9.96303013 320.825322,9.96303013 C319.94147,9.96303013 319.177944,10.0702301 318.534744,10.2846299 C317.891544,10.4990298 317.355545,10.7681235 316.926745,11.091911 L316.926745,20.6217659 L320.37902,20.8580433 L320.37902,22.2625812 L311.873034,22.2625812 L311.873034,20.8449168 L313.933898,20.6348925 Z" id="Path"></path>
            <path d="M324.146332,14.7673372 C324.146332,13.2271586 324.448242,11.8620003 325.052062,10.6718623 C325.655882,9.48172433 326.491604,8.56068004 327.559228,7.90872945 C328.626852,7.25677887 329.838867,6.93080357 331.195274,6.93080357 C332.875469,6.93080357 334.174995,7.39023184 335.093851,8.30908837 C336.012708,9.22794491 336.502765,10.5537236 336.564022,12.2864245 L336.564022,12.7589793 C336.564022,13.6778358 336.511516,14.377917 336.406504,14.8592228 L327.309824,14.8592228 C327.344828,16.145622 327.563603,17.2132457 327.96615,18.0620942 C328.368697,18.9109426 328.898133,19.5366401 329.554459,19.9391868 C330.210785,20.3417335 330.950246,20.5430068 331.772841,20.5430068 C332.490425,20.5430068 333.227698,20.4183048 333.98466,20.1689009 C334.741623,19.919497 335.334504,19.6329013 335.763304,19.3091137 L336.314618,20.5692598 C335.982079,20.9105494 335.524839,21.234337 334.942896,21.5406225 C334.360954,21.846908 333.713379,22.0941241 333.000171,22.282271 C332.286964,22.4704178 331.580319,22.5644912 330.880238,22.5644912 C329.410067,22.5644912 328.169611,22.2385159 327.158869,21.5865653 C326.148127,20.9346147 325.393352,20.0245092 324.894544,18.8562487 C324.395736,17.6879883 324.146332,16.3250178 324.146332,14.7673372 Z M333.413657,13.3365463 C333.448661,13.0215097 333.466163,12.6452161 333.466163,12.2076654 C333.457412,11.0962865 333.22551,10.203683 332.770457,9.52985491 C332.315404,8.85602679 331.597821,8.51911272 330.617707,8.51911272 C329.637594,8.51911272 328.860941,8.88446758 328.28775,9.6151773 C327.714558,10.345887 327.388583,11.5863433 327.309824,13.3365463 L333.413657,13.3365463 Z" id="Shape"></path>
            <path d="M0,43.2601715 C0,41.194932 0.426611962,39.392223 1.27983589,37.8520444 C2.13305981,36.3118659 3.29913251,35.1304789 4.77805398,34.3078835 C6.25697545,33.4852881 7.91091721,33.0739905 9.73987926,33.0739905 C10.5799767,33.0739905 11.3916333,33.1352476 12.1748491,33.2577618 C12.9580649,33.380276 13.8441051,33.5421697 14.8329698,33.7434431 L15.5418019,33.8878348 L15.292398,38.797154 L13.3365463,38.797154 L12.601461,35.4498909 C12.4176897,35.2048625 12.0457716,35.0101524 11.4857067,34.8657607 C10.9256417,34.721369 10.1905565,34.6491731 9.28045099,34.6491731 C8.16032112,34.6491731 7.16926872,34.9685851 6.30729378,35.6074092 C5.44531884,36.2462333 4.77149072,37.1891551 4.28580941,38.4361747 C3.80012809,39.6831942 3.55728744,41.186181 3.55728744,42.9451349 C3.55728744,44.5728237 3.77387505,46.0714349 4.20705027,47.4409687 C4.6402255,48.8105025 5.30967811,49.9131303 6.21540813,50.7488522 C7.12113814,51.5845741 8.25220678,52.0024351 9.60861404,52.0024351 C11.0175274,52.0024351 12.0282696,51.6786475 12.6408406,51.0310724 L13.782848,48.2613763 L15.6468141,48.5107802 L15.0692472,52.5274959 C14.8329698,52.544998 14.6054434,52.5821898 14.386668,52.6390714 C14.1678927,52.695953 13.8834847,52.7856509 13.5334441,52.9081651 C12.9383751,53.1181894 12.3695592,53.2800832 11.8269962,53.3938464 C11.2844333,53.5076096 10.6149807,53.5644912 9.81863839,53.5644912 C7.73589692,53.5644912 5.95944095,53.1553812 4.4892705,52.3371614 C3.01910004,51.5189415 1.90334568,50.3397423 1.14200741,48.7995637 C0.380669136,47.2593851 0,45.4129211 0,43.2601715 Z" id="Path"></path>
            <path d="M18.5740285,57.2792969 C18.6790407,57.340554 18.8934405,57.3952478 19.2172281,57.4433784 C19.5410156,57.491509 19.8473011,57.5155743 20.1360846,57.5155743 C20.6611455,57.5155743 21.1446391,57.4083743 21.5865653,57.1939745 C22.0284915,56.9795746 22.476981,56.5617137 22.9320338,55.9403916 C23.3870865,55.3190696 23.8290128,54.4264661 24.2578125,53.2625812 L22.7745155,53.2625812 L17.8651963,40.0704266 L16.6181767,39.7291371 L16.6181767,38.3377258 L23.2995764,38.3377258 L23.2995764,39.7291371 L21.2387125,40.0704266 L23.7721312,47.9988459 L24.9403916,51.8055372 L25.9905134,47.9857194 L28.3664139,40.0573001 L26.6074599,39.7291371 L26.6074599,38.3377258 L32.1205991,38.3377258 L32.1205991,39.7291371 L30.7816939,40.0573001 C29.5215478,43.9777547 28.4954913,47.1084301 27.7035245,49.4493266 C26.9115577,51.790223 26.4061866,53.2100751 26.1874112,53.7088829 C25.5923422,55.2140574 25.0300895,56.4041954 24.5006532,57.2792969 C23.9712168,58.1543983 23.3586457,58.8194754 22.6629401,59.2745282 C21.9672344,59.729581 21.1161983,59.9571073 20.1098316,59.9571073 C19.8385501,59.9571073 19.5453911,59.9374176 19.2303546,59.898038 C18.9153181,59.8586584 18.6965427,59.8127156 18.5740285,59.7602095 L18.5740285,57.2792969 Z" id="Path"></path>
            <path d="M32.0812196,33.0214844 L32.0812196,31.7875913 L36.5048574,31.2231509 L36.5704901,31.2231509 L37.2268162,31.6694526 L37.2268162,39.6897575 C37.743126,39.1821987 38.3600725,38.76215 39.0776557,38.4296114 C39.7952389,38.0970728 40.5915813,37.9308036 41.4666827,37.9308036 C42.5343065,37.9308036 43.5100446,38.1889585 44.3938971,38.7052684 C45.2777496,39.2215782 45.9865818,40.0288593 46.5203937,41.1271117 C47.0542056,42.225364 47.3211115,43.6058365 47.3211115,45.2685293 C47.3211115,46.8087079 47.006075,48.211058 46.3760019,49.4755796 C45.7459289,50.7401012 44.8423866,51.7377169 43.6653752,52.4684266 C42.4883637,53.1991363 41.1166421,53.5644912 39.5502105,53.5644912 C38.7013621,53.5644912 37.894081,53.5054218 37.1283672,53.3872831 C36.3626535,53.2691444 35.7216416,53.1269404 35.2053318,52.9606712 C34.6890219,52.7944019 34.3696099,52.6500101 34.2470957,52.5274959 L34.2470957,33.2840148 L32.0812196,33.0214844 Z M37.2268162,51.2017172 C37.3405793,51.4642477 37.6337383,51.6720843 38.1062931,51.825227 C38.5788479,51.9783698 39.1257863,52.0549412 39.7471084,52.0549412 C40.6047078,52.0549412 41.3594828,51.8142883 42.0114334,51.3329824 C42.663384,50.8516766 43.1731306,50.1275302 43.5406732,49.1605431 C43.9082158,48.193556 44.0919871,47.0012302 44.0919871,45.5835658 C44.0919871,44.3234197 43.9279056,43.273298 43.5997425,42.4332006 C43.2715795,41.5931032 42.8187145,40.9717811 42.2411475,40.5692345 C41.6635806,40.1666878 41.002879,39.9654145 40.2590427,39.9654145 C39.6289697,39.9654145 39.0470272,40.1076185 38.5132153,40.3920264 C37.9794034,40.6764344 37.5506037,40.9980342 37.2268162,41.3568258 L37.2268162,51.2017172 Z" id="Shape"></path>
            <path d="M49.5526202,45.7673372 C49.5526202,44.2271586 49.8545302,42.8620003 50.4583502,41.6718623 C51.0621703,40.4817243 51.8978921,39.56068 52.9655159,38.9087295 C54.0331397,38.2567789 55.2451552,37.9308036 56.6015625,37.9308036 C58.2817573,37.9308036 59.581283,38.3902318 60.5001395,39.3090884 C61.418996,40.2279449 61.9090529,41.5537236 61.97031,43.2864245 L61.97031,43.7589793 C61.97031,44.6778358 61.9178039,45.377917 61.8127917,45.8592228 L52.716112,45.8592228 C52.7511161,47.145622 52.9698914,48.2132457 53.3724381,49.0620942 C53.7749848,49.9109426 54.3044212,50.5366401 54.9607473,50.9391868 C55.6170734,51.3417335 56.3565341,51.5430068 57.1791295,51.5430068 C57.8967127,51.5430068 58.6339856,51.4183048 59.3909484,51.1689009 C60.1479112,50.919497 60.7407924,50.6329013 61.1695921,50.3091137 L61.720906,51.5692598 C61.3883675,51.9105494 60.931127,52.234337 60.3491845,52.5406225 C59.767242,52.846908 59.119667,53.0941241 58.4064593,53.282271 C57.6932516,53.4704178 56.9866071,53.5644912 56.286526,53.5644912 C54.8163555,53.5644912 53.5758992,53.2385159 52.565157,52.5865653 C51.5544148,51.9346147 50.7996398,51.0245092 50.300832,49.8562487 C49.8020241,48.6879883 49.5526202,47.3250178 49.5526202,45.7673372 Z M58.8199447,44.3365463 C58.8549488,44.0215097 58.8724508,43.6452161 58.8724508,43.2076654 C58.8636998,42.0962865 58.6317979,41.203683 58.1767451,40.5298549 C57.7216924,39.8560268 57.0041092,39.5191127 56.0239955,39.5191127 C55.0438819,39.5191127 54.2672294,39.8844676 53.6940379,40.6151773 C53.1208464,41.345887 52.7948711,42.5863433 52.716112,44.3365463 L58.8199447,44.3365463 Z" id="Shape"></path>
            <path d="M66.3151887,51.6348925 L66.3151887,40.608614 L64.4512226,40.0835532 L64.4512226,38.5083705 L68.2054079,37.9833097 L68.2710405,37.9833097 L68.9011135,38.495244 L68.9011135,39.3222149 L68.8748605,41.0286627 L68.9011135,41.0286627 C69.0586318,40.7398793 69.3627296,40.3526469 69.8134068,39.8669656 C70.2640841,39.3812842 70.8460265,38.9371703 71.5592342,38.5346236 C72.2724419,38.1320769 73.0490945,37.9308036 73.8891919,37.9308036 C74.2304814,37.9308036 74.5192649,37.9789342 74.7555423,38.0751953 L74.7555423,41.3043197 C74.589273,41.2080585 74.3683099,41.1271117 74.092653,41.061479 C73.816996,40.9958464 73.5216492,40.9630301 73.2066127,40.9630301 C72.3227602,40.9630301 71.5592342,41.0702301 70.9160346,41.2846299 C70.2728351,41.4990298 69.7368354,41.7681235 69.3080357,42.091911 L69.3080357,51.6217659 L72.760311,51.8580433 L72.760311,53.2625812 L64.2543248,53.2625812 L64.2543248,51.8449168 L66.3151887,51.6348925 Z" id="Path"></path>
            <path d="M78.8247641,48.9964615 L79.349825,50.9916929 C79.4548372,51.1754642 79.6582982,51.3504845 79.9602082,51.5167538 C80.2621183,51.683023 80.6187221,51.8186638 81.0300198,51.9236759 C81.4413175,52.0286881 81.8613662,52.0811942 82.2901659,52.0811942 C83.2790305,52.0811942 83.9834872,51.8952351 84.4035359,51.523317 C84.8235846,51.1513989 85.033609,50.6416523 85.033609,49.9940772 C85.033609,49.5390245 84.891405,49.1386655 84.606997,48.7930005 C84.322589,48.4473354 83.9003526,48.1213601 83.3402876,47.8150746 C82.7802227,47.5087891 82.0188844,47.163124 81.0562728,46.7780793 C79.6648615,46.2355164 78.6497438,45.5945046 78.0109197,44.8550439 C77.3720957,44.1155831 77.0526836,43.1595348 77.0526836,41.9868988 C77.0526836,41.1993075 77.2911488,40.5057896 77.7680791,39.9063451 C78.2450094,39.3069006 78.8991477,38.8409091 79.7304941,38.5083705 C80.5618405,38.175832 81.4981991,38.0095627 82.5395698,38.0095627 C83.3446631,38.0095627 84.0534953,38.0730076 84.6660664,38.1998973 C85.2786374,38.326787 85.8955839,38.4908685 86.5169059,38.6921418 L86.9894607,38.8365336 L86.9894607,42.1575436 L85.3092659,42.1575436 L84.7448255,40.3198306 C84.6398133,40.0923042 84.3575931,39.8954064 83.8981648,39.7291371 C83.4387366,39.5628678 82.9246144,39.4797332 82.3557985,39.4797332 C81.5507052,39.4797332 80.9293831,39.6503779 80.4918324,39.9916675 C80.0542817,40.3329571 79.8355063,40.7792588 79.8355063,41.3305727 C79.8355063,41.8206296 79.9645838,42.2319273 80.2227387,42.5644658 C80.4808936,42.8970044 80.8024934,43.1682858 81.187538,43.3783102 C81.5725827,43.5883345 82.1107701,43.8377384 82.8021002,44.1265219 L83.3140346,44.3496728 C84.3116503,44.7784725 85.1211191,45.1810192 85.7424412,45.5573128 C86.3637632,45.9336064 86.8800731,46.4149122 87.2913707,47.0012302 C87.7026684,47.5875482 87.9083173,48.3051314 87.9083173,49.1539798 C87.9083173,50.0290813 87.6786031,50.7991706 87.2191749,51.4642477 C86.7597466,52.1293248 86.0946695,52.6456346 85.2239435,53.0131773 C84.3532176,53.3807199 83.3227856,53.5644912 82.1326476,53.5644912 C81.2400441,53.5644912 80.3036856,53.441977 79.3235719,53.1969486 C78.3434583,52.9519202 77.5602425,52.6981407 76.9739245,52.4356103 L76.9739245,48.9964615 L78.8247641,48.9964615 Z" id="Path"></path>
            <path d="M90.2185851,45.7673372 C90.2185851,44.2271586 90.5204951,42.8620003 91.1243151,41.6718623 C91.7281351,40.4817243 92.563857,39.56068 93.6314808,38.9087295 C94.6991046,38.2567789 95.9111201,37.9308036 97.2675274,37.9308036 C98.9477222,37.9308036 100.247248,38.3902318 101.166104,39.3090884 C102.084961,40.2279449 102.575018,41.5537236 102.636275,43.2864245 L102.636275,43.7589793 C102.636275,44.6778358 102.583769,45.377917 102.478757,45.8592228 L93.3820769,45.8592228 C93.417081,47.145622 93.6358563,48.2132457 94.038403,49.0620942 C94.4409497,49.9109426 94.9703861,50.5366401 95.6267122,50.9391868 C96.2830383,51.3417335 97.022499,51.5430068 97.8450944,51.5430068 C98.5626776,51.5430068 99.2999505,51.4183048 100.056913,51.1689009 C100.813876,50.919497 101.406757,50.6329013 101.835557,50.3091137 L102.386871,51.5692598 C102.054332,51.9105494 101.597092,52.234337 101.015149,52.5406225 C100.433207,52.846908 99.7856318,53.0941241 99.0724242,53.282271 C98.3592165,53.4704178 97.652572,53.5644912 96.9524909,53.5644912 C95.4823204,53.5644912 94.2418641,53.2385159 93.2311219,52.5865653 C92.2203797,51.9346147 91.4656047,51.0245092 90.9667969,49.8562487 C90.467989,48.6879883 90.2185851,47.3250178 90.2185851,45.7673372 Z M99.4859096,44.3365463 C99.5209137,44.0215097 99.5384157,43.6452161 99.5384157,43.2076654 C99.5296647,42.0962865 99.2977628,41.203683 98.84271,40.5298549 C98.3876573,39.8560268 97.6700741,39.5191127 96.6899604,39.5191127 C95.7098468,39.5191127 94.9331942,39.8844676 94.3600028,40.6151773 C93.7868113,41.345887 93.460836,42.5863433 93.3820769,44.3365463 L99.4859096,44.3365463 Z" id="Shape"></path>
            <path d="M112.271142,37.9308036 C113.531288,37.9308036 114.878944,38.202085 116.314111,38.7446479 L116.182845,42.7876167 L114.358259,42.7876167 L113.754439,40.3329571 C113.631925,40.0441736 113.389084,39.8297737 113.025917,39.6897575 C112.66275,39.5497413 112.227387,39.4797332 111.719828,39.4797332 C110.949739,39.4797332 110.280286,39.6919453 109.71147,40.1163695 C109.142654,40.5407937 108.700728,41.1752422 108.385691,42.0197151 C108.070655,42.8641881 107.913137,43.9077466 107.913137,45.1503906 C107.913137,46.594308 108.101283,47.793197 108.477577,48.7470576 C108.853871,49.7009182 109.365805,50.4053749 110.01338,50.8604277 C110.660955,51.3154804 111.391665,51.5430068 112.205509,51.5430068 C112.966848,51.5430068 113.669117,51.4314314 114.312316,51.2082805 C114.955516,50.9851296 115.504642,50.7116604 115.959695,50.3878729 L116.524135,51.5955129 C116.209099,51.9193004 115.78905,52.2321492 115.263989,52.5340592 C114.738928,52.8359692 114.150422,53.0831854 113.498472,53.2757077 C112.846521,53.46823 112.192383,53.5644912 111.536057,53.5644912 C110.057135,53.5644912 108.80574,53.2363281 107.781871,52.580002 C106.758003,51.9236759 105.990101,51.0245092 105.478167,49.8825018 C104.966232,48.7404944 104.710265,47.4431565 104.710265,45.990488 C104.710265,44.4940645 104.999049,43.1354695 105.576616,41.914703 C106.154183,40.6939364 107.011782,39.7247616 108.149414,39.0071784 C109.287046,38.2895952 110.660955,37.9308036 112.271142,37.9308036 Z" id="Path"></path>
            <path d="M129.361873,51.4773742 C128.801809,52.0199371 128.092976,52.5034307 127.235377,52.9278549 C126.377777,53.3522791 125.511427,53.5644912 124.636326,53.5644912 C123.542449,53.5644912 122.654221,53.3697811 121.971642,52.9803609 C121.289062,52.5909408 120.785879,51.9718065 120.462092,51.1229581 C120.138304,50.2741097 119.97641,49.1539798 119.97641,47.7625685 L119.97641,40.1491858 L118.519366,39.6635045 L118.519366,38.3902318 L122.404817,37.9964362 L122.417943,37.9964362 L122.969257,38.3508523 L122.969257,47.6181767 C122.969257,48.6157924 123.043641,49.3946327 123.192408,49.9546976 C123.341175,50.5147626 123.603706,50.9238725 123.979999,51.1820274 C124.356293,51.4401824 124.898856,51.5692598 125.607688,51.5692598 C126.290267,51.5692598 126.924716,51.4379946 127.511034,51.1754642 C128.097352,50.9129337 128.604911,50.6110237 129.03371,50.2697342 L129.03371,40.1623123 L127.156618,39.6503779 L127.156618,38.3771053 L131.304599,37.9964362 L131.330852,37.9964362 L132.026557,38.3508523 L132.026557,51.7792842 L133.60174,51.7792842 L133.60174,53.0919364 C133.094181,53.2407036 132.654443,53.3566546 132.282525,53.4397892 C131.910606,53.5229239 131.483995,53.5644912 131.002689,53.5644912 C130.442624,53.5644912 130.029138,53.4572912 129.762232,53.2428914 C129.495326,53.0284915 129.361873,52.6675122 129.361873,52.1599533 L129.361873,51.4773742 Z" id="Path"></path>
            <path d="M137.880986,51.6348925 L137.880986,40.608614 L136.01702,40.0835532 L136.01702,38.5083705 L139.771205,37.9833097 L139.836838,37.9833097 L140.466911,38.495244 L140.466911,39.3222149 L140.440658,41.0286627 L140.466911,41.0286627 C140.624429,40.7398793 140.928527,40.3526469 141.379204,39.8669656 C141.829882,39.3812842 142.411824,38.9371703 143.125032,38.5346236 C143.838239,38.1320769 144.614892,37.9308036 145.454989,37.9308036 C145.796279,37.9308036 146.085062,37.9789342 146.32134,38.0751953 L146.32134,41.3043197 C146.155071,41.2080585 145.934107,41.1271117 145.65845,41.061479 C145.382793,40.9958464 145.087447,40.9630301 144.77241,40.9630301 C143.888558,40.9630301 143.125032,41.0702301 142.481832,41.2846299 C141.838633,41.4990298 141.302633,41.7681235 140.873833,42.091911 L140.873833,51.6217659 L144.326108,51.8580433 L144.326108,53.2625812 L135.820122,53.2625812 L135.820122,51.8449168 L137.880986,51.6348925 Z" id="Path"></path>
            <path d="M150.128031,51.6086394 L150.128031,40.608614 L148.224685,40.0704266 L148.224685,38.5214971 L152.398919,37.9833097 L152.464552,37.9833097 L153.134005,38.495244 L153.134005,51.6086394 L155.234248,51.8317903 L155.234248,53.2625812 L148.001535,53.2625812 L148.001535,51.8317903 L150.128031,51.6086394 Z M149.589844,33.71719 C149.589844,33.122121 149.762676,32.6189377 150.108341,32.20764 C150.454006,31.7963423 150.9375,31.5906935 151.558822,31.5906935 L151.571949,31.5906935 C151.939491,31.5906935 152.258903,31.6760159 152.530185,31.8466607 C152.801466,32.0173054 153.009303,32.2426441 153.153694,32.5226765 C153.298086,32.802709 153.370282,33.1002435 153.370282,33.41528 C153.370282,34.0278511 153.195262,34.5310344 152.845221,34.9248301 C152.495181,35.3186257 151.987622,35.5155235 151.322545,35.5155235 L151.309418,35.5155235 C150.801859,35.5155235 150.388374,35.3448788 150.068962,35.0035892 C149.74955,34.6622996 149.589844,34.2334999 149.589844,33.71719 Z" id="Shape"></path>
            <path d="M156.84881,40.2148184 L156.84881,38.9677988 C157.093839,38.9065417 157.376059,38.8190316 157.695471,38.7052684 C158.014883,38.5915052 158.22272,38.503995 158.318981,38.4427379 C158.607764,38.2327136 158.844042,37.891424 159.027813,37.4188692 C159.159078,37.1213347 159.331911,36.6465922 159.546311,35.9946416 C159.76071,35.342691 159.90729,34.8504464 159.986049,34.5179079 L161.692497,34.5179079 L161.71875,38.3377258 L166.129261,38.3377258 L166.129261,40.2148184 L161.731877,40.2148184 L161.731877,48.1563641 C161.731877,49.2239879 161.762505,49.9656364 161.823762,50.3813096 C161.885019,50.7969828 162.009721,51.0638887 162.197868,51.1820274 C162.386015,51.3001661 162.729492,51.3592355 163.2283,51.3592355 L163.241427,51.3592355 C163.696479,51.3592355 164.210601,51.3023539 164.783793,51.1885907 C165.356984,51.0748275 165.801098,50.9566888 166.116135,50.8341746 L166.129261,50.8341746 L166.575563,52.1074472 C166.313033,52.3262226 165.919237,52.5471857 165.394176,52.7703366 C164.869115,52.9934875 164.304675,53.1794465 163.700855,53.3282138 C163.097035,53.476981 162.541345,53.5513647 162.033787,53.5513647 L162.007533,53.5513647 C160.922408,53.5513647 160.104188,53.3128995 159.552874,52.8359692 C159.00156,52.3590389 158.725903,51.5605088 158.725903,50.440379 L158.725903,40.2148184 L156.84881,40.2148184 Z" id="Path"></path>
            <path d="M168.833325,57.2792969 C168.938337,57.340554 169.152737,57.3952478 169.476524,57.4433784 C169.800312,57.491509 170.106598,57.5155743 170.395381,57.5155743 C170.920442,57.5155743 171.403935,57.4083743 171.845862,57.1939745 C172.287788,56.9795746 172.736277,56.5617137 173.19133,55.9403916 C173.646383,55.3190696 174.088309,54.4264661 174.517109,53.2625812 L173.033812,53.2625812 L168.124493,40.0704266 L166.877473,39.7291371 L166.877473,38.3377258 L173.558873,38.3377258 L173.558873,39.7291371 L171.498009,40.0704266 L174.031428,47.9988459 L175.199688,51.8055372 L176.24981,47.9857194 L178.62571,40.0573001 L176.866756,39.7291371 L176.866756,38.3377258 L182.379895,38.3377258 L182.379895,39.7291371 L181.04099,40.0573001 C179.780844,43.9777547 178.754788,47.1084301 177.962821,49.4493266 C177.170854,51.790223 176.665483,53.2100751 176.446708,53.7088829 C175.851639,55.2140574 175.289386,56.4041954 174.75995,57.2792969 C174.230513,58.1543983 173.617942,58.8194754 172.922236,59.2745282 C172.226531,59.729581 171.375495,59.9571073 170.369128,59.9571073 C170.097846,59.9571073 169.804687,59.9374176 169.489651,59.898038 C169.174614,59.8586584 168.955839,59.8127156 168.833325,59.7602095 L168.833325,57.2792969 Z" id="Path"></path>
        </g>
    </g>
</svg>