<?xml version="1.0" encoding="UTF-8"?>
<svg width="186px" height="64px" viewBox="0 0 186 64" version="1.1" xmlns="http://www.w3.org/2000/svg" xmlns:xlink="http://www.w3.org/1999/xlink">
    <title>logo/hrc/color-dark/stacked/hrc-logo-color-dark-stacked</title>
    <g id="logo/hrc/color-dark/stacked/hrc-logo-color-dark-stacked" stroke="none" stroke-width="1" fill="none" fill-rule="evenodd">
        <g id="Group">
            <path d="M64,31.9998 C64,49.6738 49.673,63.9998 32,63.9998 C14.327,63.9998 0,49.6738 0,31.9998 C0,14.3268 14.327,-0.0002 32,-0.0002 C49.673,-0.0002 64,14.3268 64,31.9998" id="circle" fill="#083C6F"></path>
            <path d="M25.7686,36.8547 L29.9686,41.0547 L22.6436,48.3797 C21.2506,49.7727 19.3626,50.5547 17.3936,50.5547 L17.3936,50.5547 L13.2636,50.5547 C12.8226,50.5547 12.6016,50.0217 12.9136,49.7097 L12.9136,49.7097 L25.7686,36.8547 Z M38.2315,36.8547 L51.0855,49.7097 C51.3985,50.0217 51.1775,50.5547 50.7365,50.5547 L46.6065,50.5547 C44.6375,50.5547 42.7495,49.7727 41.3565,48.3797 L34.0315,41.0547 L38.2315,36.8547 Z M16.5734,19.0827 C18.9589652,19.0827 21.2521221,19.9893994 22.9899142,21.6120147 L23.2234,21.8377 L32.0004,30.6137 L40.7764,21.8377 C42.4637043,20.1503957 44.7255871,19.1703352 47.1017173,19.0883021 L47.4264,19.0827 L50.7364,19.0827 C51.148,19.0827 51.3679556,19.5470022 51.1417861,19.8625767 L51.0864,19.9277 L32.0004,39.0147 L12.9134,19.9277 C12.6222,19.6365 12.7953022,19.1527844 13.1782261,19.0895833 L13.2634,19.0827 L16.5734,19.0827 Z M32.0004,10.6583 C35.0754,10.6583 37.5684,13.1513 37.5684,16.2263 C37.5684,19.3013 35.0754,21.7943 32.0004,21.7943 C28.9244,21.7943 26.4314,19.3013 26.4314,16.2263 C26.4314,13.1513 28.9244,10.6583 32.0004,10.6583 Z" id="icon" fill="#F5EA14"></path>
        </g>
        <g id="HR-Connect" transform="translate(72.866350, 5.824536)" fill="#000000">
            <polygon id="Path" points="2.61217786 18.4296368 2.61217786 1.99523133 0.525060877 1.65394176 0.525060877 0.196897829 7.95467228 0.196897829 7.95467228 1.65394176 5.69691051 1.98210481 5.69691051 9.07042664 14.8854759 9.07042664 14.8854759 1.98210481 12.7327263 1.65394176 12.7327263 0.196897829 20.070452 0.196897829 20.070452 1.65394176 17.9702085 1.98210481 17.9702085 18.4427633 20.070452 18.7446733 20.070452 20.1754642 12.7458528 20.1754642 12.7458528 18.7446733 14.8854759 18.4427633 14.8854759 10.8031275 5.69691051 10.8031275 5.69691051 18.4296368 7.95467228 18.7446733 7.95467228 20.1754642 0.446301745 20.1754642 0.446301745 18.7446733"></polygon>
            <path d="M24.9141386,18.4558898 L24.9141386,1.96897829 L22.8401481,1.62768872 L22.8401481,0.196897829 L26.4499417,0.196897829 C26.8349863,0.196897829 27.237533,0.183771307 27.6575817,0.157518263 C28.0776304,0.131265219 28.3489118,0.11376319 28.471426,0.105012175 C29.3640295,0.0350040584 30.0684862,0 30.5847961,0 C32.352501,0 33.7701654,0.192522321 34.8377892,0.577566964 C35.9054129,0.962611607 36.67769,1.54017857 37.1546203,2.31026786 C37.6315506,3.08035714 37.8700157,4.06922179 37.8700157,5.27686181 C37.8700157,6.09070617 37.7146852,6.88048524 37.4040242,7.64619902 C37.0933632,8.41191279 36.6426859,9.08136541 36.0519924,9.65455687 C35.461299,10.2277483 34.75903,10.6412338 33.9451857,10.8950132 C34.3214793,11.1137886 34.6933974,11.4528904 35.06094,11.9123186 C35.4284827,12.3717469 35.7653967,12.8618037 36.0716822,13.3824891 C36.3779677,13.9031745 36.7542614,14.5748148 37.2005631,15.3974102 C37.725624,16.3862749 38.1478604,17.1235478 38.4672725,17.6092291 C38.7866845,18.0949105 39.0864068,18.3727552 39.3664392,18.4427633 L40.3903079,18.7577998 L40.3903079,20.1754642 L36.5048574,20.1754642 C36.207323,20.1754642 35.8813477,19.8648032 35.5269316,19.2434811 C35.1725155,18.6221591 34.6977729,17.655172 34.1027039,16.3425198 C33.4813819,14.9511085 32.94757,13.8528561 32.5012683,13.0477628 C32.0549665,12.2426694 31.6086648,11.704482 31.162363,11.4332006 C29.4209111,11.4332006 28.3620384,11.4200741 27.9857447,11.393821 L27.9857447,18.4558898 L30.5716695,18.7446733 L30.5716695,20.1754642 L22.7088829,20.1754642 L22.7088829,18.7446733 L24.9141386,18.4558898 Z M30.9523387,9.884271 C32.0812196,9.884271 32.9585088,9.51672839 33.5842063,8.78164316 C34.2099039,8.04655793 34.5227526,6.9483056 34.5227526,5.48688616 C34.5227526,4.23549107 34.2011529,3.26412845 33.5579533,2.5727983 C32.9147537,1.88146814 31.8099381,1.53580306 30.2435065,1.53580306 C29.5784294,1.53580306 28.9614829,1.57518263 28.3926669,1.65394176 L27.9857447,1.69332133 L27.9857447,9.85801796 C28.2657772,9.884271 28.7077034,9.89739752 29.3115234,9.89739752 L30.9523387,9.884271 Z" id="Shape"></path>
            <path d="M0,41.1730545 C0,39.107815 0.426611962,37.305106 1.27983589,35.7649275 C2.13305981,34.2247489 3.29913251,33.0433619 4.77805398,32.2207665 C6.25697545,31.3981712 7.91091721,30.9868735 9.73987926,30.9868735 C10.5799767,30.9868735 11.3916333,31.0481306 12.1748491,31.1706448 C12.9580649,31.293159 13.8441051,31.4550528 14.8329698,31.6563261 L15.5418019,31.8007178 L15.292398,36.710037 L13.3365463,36.710037 L12.601461,33.3627739 C12.4176897,33.1177455 12.0457716,32.9230355 11.4857067,32.7786437 C10.9256417,32.634252 10.1905565,32.5620561 9.28045099,32.5620561 C8.16032112,32.5620561 7.16926872,32.8814681 6.30729378,33.5202922 C5.44531884,34.1591163 4.77149072,35.1020381 4.28580941,36.3490577 C3.80012809,37.5960773 3.55728744,39.099064 3.55728744,40.858018 C3.55728744,42.4857067 3.77387505,43.9843179 4.20705027,45.3538517 C4.6402255,46.7233855 5.30967811,47.8260133 6.21540813,48.6617352 C7.12113814,49.4974571 8.25220678,49.9153181 9.60861404,49.9153181 C11.0175274,49.9153181 12.0282696,49.5915305 12.6408406,48.9439555 L13.782848,46.1742593 L15.6468141,46.4236633 L15.0692472,50.440379 C14.8329698,50.457881 14.6054434,50.4950728 14.386668,50.5519544 C14.1678927,50.608836 13.8834847,50.6985339 13.5334441,50.8210481 C12.9383751,51.0310724 12.3695592,51.1929662 11.8269962,51.3067294 C11.2844333,51.4204926 10.6149807,51.4773742 9.81863839,51.4773742 C7.73589692,51.4773742 5.95944095,51.0682643 4.4892705,50.2500444 C3.01910004,49.4318245 1.90334568,48.2526253 1.14200741,46.7124467 C0.380669136,45.1722682 0,43.3258041 0,41.1730545 Z" id="Path"></path>
            <path d="M24.8091264,35.8436866 C26.331803,35.8436866 27.6007001,36.1806006 28.6158178,36.8544288 C29.6309355,37.5282569 30.3835227,38.4536767 30.8735795,39.6306882 C31.3636364,40.8076996 31.6086648,42.1531681 31.6086648,43.6670936 C31.6086648,45.2860314 31.2739385,46.6861937 30.6044858,47.8675807 C29.9350332,49.0489676 29.0555563,49.9459466 27.9660549,50.5585177 C26.8765536,51.1710887 25.7148564,51.4773742 24.4809634,51.4773742 C22.9582868,51.4773742 21.6915775,51.1404601 20.6808353,50.466632 C19.6700931,49.7928039 18.9196936,48.8673841 18.4296368,47.6903726 C17.93958,46.5133612 17.6945515,45.1678927 17.6945515,43.6539671 C17.6945515,42.0525315 18.0292779,40.6611201 18.6987305,39.4797332 C19.3681831,38.2983462 20.2476601,37.3969917 21.3371614,36.7756696 C22.4266627,36.1543476 23.5839844,35.8436866 24.8091264,35.8436866 Z M28.2876547,43.903371 C28.2876547,41.9343928 27.9966835,40.3701489 27.414741,39.2106395 C26.8327985,38.05113 25.9117543,37.4713753 24.6516082,37.4713753 C23.4439681,37.4713753 22.5338626,37.9679954 21.9212916,38.9612355 C21.3087206,39.9544757 21.0024351,41.4399604 21.0024351,43.4176897 C21.0024351,45.386668 21.2977818,46.9509119 21.8884753,48.1104213 C22.4791688,49.2699308 23.4002131,49.8496855 24.6516082,49.8496855 C27.0756392,49.8496855 28.2876547,47.8675807 28.2876547,43.903371 Z" id="Shape"></path>
            <path d="M35.7041396,49.5215224 L35.7041396,38.5214971 L33.827047,37.9964362 L33.827047,36.4212536 L37.7124975,35.8961927 L37.7781301,35.8961927 L38.3950766,36.408127 L38.3950766,37.4713753 L38.3819501,38.0751953 C38.7844968,37.7164037 39.2898678,37.3707386 39.8980634,37.0382001 C40.5062589,36.7056615 41.1582095,36.4343801 41.8539151,36.2243557 C42.5496208,36.0143314 43.2081346,35.9093192 43.8294567,35.9093192 C44.9670886,35.9093192 45.8465655,36.1215313 46.4678876,36.5459555 C47.0892096,36.9703797 47.5223848,37.6245181 47.7674133,38.5083705 C48.0124417,39.392223 48.1349559,40.591112 48.1349559,42.1050375 L48.1349559,49.5215224 L50.025175,49.7446733 L50.025175,51.1754642 L43.435661,51.1754642 L43.435661,49.7446733 L45.1158558,49.5215224 L45.1158558,42.091911 C45.1158558,41.0767933 45.0480355,40.2782632 44.9123947,39.6963208 C44.776754,39.1143783 44.5207868,38.6768276 44.1444932,38.3836686 C43.7681996,38.0905096 43.2125101,37.9439301 42.4774249,37.9439301 C41.8473519,37.9439301 41.1910258,38.0795708 40.5084466,38.3508523 C39.8258675,38.6221337 39.226423,38.9502968 38.7101131,39.3353414 L38.7101131,49.5215224 L40.5215732,49.7446733 L40.5215732,51.1754642 L33.9845652,51.1754642 L33.9845652,49.7446733 L35.7041396,49.5215224 Z" id="Path"></path>
            <path d="M53.7531072,49.5215224 L53.7531072,38.5214971 L51.8760146,37.9964362 L51.8760146,36.4212536 L55.7614651,35.8961927 L55.8270977,35.8961927 L56.4440442,36.408127 L56.4440442,37.4713753 L56.4309177,38.0751953 C56.8334644,37.7164037 57.3388355,37.3707386 57.947031,37.0382001 C58.5552265,36.7056615 59.2071771,36.4343801 59.9028828,36.2243557 C60.5985884,36.0143314 61.2571023,35.9093192 61.8784243,35.9093192 C63.0160562,35.9093192 63.8955332,36.1215313 64.5168552,36.5459555 C65.1381773,36.9703797 65.5713525,37.6245181 65.8163809,38.5083705 C66.0614093,39.392223 66.1839235,40.591112 66.1839235,42.1050375 L66.1839235,49.5215224 L68.0741427,49.7446733 L68.0741427,51.1754642 L61.4846287,51.1754642 L61.4846287,49.7446733 L63.1648235,49.5215224 L63.1648235,42.091911 C63.1648235,41.0767933 63.0970031,40.2782632 62.9613624,39.6963208 C62.8257216,39.1143783 62.5697545,38.6768276 62.1934608,38.3836686 C61.8171672,38.0905096 61.2614778,37.9439301 60.5263926,37.9439301 C59.8963195,37.9439301 59.2399934,38.0795708 58.5574143,38.3508523 C57.8748351,38.6221337 57.2753906,38.9502968 56.7590808,39.3353414 L56.7590808,49.5215224 L58.5705408,49.7446733 L58.5705408,51.1754642 L52.0335329,51.1754642 L52.0335329,49.7446733 L53.7531072,49.5215224 Z" id="Path"></path>
            <path d="M69.8593496,43.6802202 C69.8593496,42.1400416 70.1612596,40.7748833 70.7650796,39.5847453 C71.3688997,38.3946073 72.2046216,37.4735631 73.2722453,36.8216125 C74.3398691,36.1696619 75.5518846,35.8436866 76.9082919,35.8436866 C78.5884867,35.8436866 79.8880124,36.3031149 80.8068689,37.2219714 C81.7257254,38.1408279 82.2157823,39.4666066 82.2770394,41.1993075 L82.2770394,41.6718623 C82.2770394,42.5907189 82.2245333,43.2908 82.1195211,43.7721058 L73.0228414,43.7721058 C73.0578455,45.058505 73.2766208,46.1261288 73.6791675,46.9749772 C74.0817142,47.8238256 74.6111506,48.4495231 75.2674767,48.8520698 C75.9238028,49.2546165 76.6632635,49.4558898 77.4858589,49.4558898 C78.2034421,49.4558898 78.940715,49.3311879 79.6976778,49.0817839 C80.4546406,48.83238 81.0475218,48.5457843 81.4763215,48.2219968 L82.0276355,49.4821429 C81.6950969,49.8234324 81.2378564,50.14722 80.6559139,50.4535055 C80.0739714,50.759791 79.4263964,51.0070072 78.7131887,51.195154 C77.999981,51.3833008 77.2933365,51.4773742 76.5932554,51.4773742 C75.1230849,51.4773742 73.8826286,51.1513989 72.8718864,50.4994483 C71.8611442,49.8474977 71.1063692,48.9373922 70.6075614,47.7691317 C70.1087536,46.6008713 69.8593496,45.2379008 69.8593496,43.6802202 Z M79.1266741,42.2494293 C79.1616782,41.9343928 79.1791802,41.5580991 79.1791802,41.1205484 C79.1704292,40.0091695 78.9385273,39.1165661 78.4834745,38.4427379 C78.0284218,37.7689098 77.3108386,37.4319957 76.3307249,37.4319957 C75.3506113,37.4319957 74.5739588,37.7973506 74.0007673,38.5280603 C73.4275758,39.25877 73.1016005,40.4992264 73.0228414,42.2494293 L79.1266741,42.2494293 Z" id="Shape"></path>
            <path d="M91.9119065,35.8436866 C93.1720526,35.8436866 94.5197088,36.114968 95.9548752,36.6575309 L95.82361,40.7004997 L93.9990234,40.7004997 L93.3952034,38.2458401 C93.2726892,37.9570566 93.0298486,37.7426568 92.6666815,37.6026405 C92.3035144,37.4626243 91.8681514,37.3926162 91.3605925,37.3926162 C90.5905032,37.3926162 89.9210506,37.6048283 89.3522347,38.0292525 C88.7834187,38.4536767 88.3414925,39.0881253 88.026456,39.9325982 C87.7114194,40.7770711 87.5539012,41.8206296 87.5539012,43.0632736 C87.5539012,44.5071911 87.742048,45.7060801 88.1183416,46.6599406 C88.4946352,47.6138012 89.0065696,48.3182579 89.6541447,48.7733107 C90.3017198,49.2283634 91.0324295,49.4558898 91.8462738,49.4558898 C92.6076121,49.4558898 93.309881,49.3443144 93.9530806,49.1211635 C94.5962802,48.8980126 95.1454064,48.6245434 95.6004591,48.3007559 L96.1648996,49.5083959 C95.849863,49.8321834 95.4298143,50.1450322 94.9047534,50.4469422 C94.3796926,50.7488522 93.7911868,50.9960684 93.1392363,51.1885907 C92.4872857,51.381113 91.8331473,51.4773742 91.1768212,51.4773742 C89.6978998,51.4773742 88.4465047,51.1492111 87.422636,50.492885 C86.3987672,49.8365589 85.6308657,48.9373922 85.1189314,47.7953848 C84.606997,46.6533774 84.3510298,45.3560395 84.3510298,43.903371 C84.3510298,42.4069475 84.6398133,41.0483525 85.2173803,39.827586 C85.7949472,38.6068195 86.6525467,37.6376446 87.7901786,36.9200614 C88.9278105,36.2024782 90.3017198,35.8436866 91.9119065,35.8436866 Z" id="Path"></path>
            <path d="M97.9632331,38.1277014 L97.9632331,36.8806818 C98.2082615,36.8194247 98.4904817,36.7319146 98.8098937,36.6181514 C99.1293058,36.5043882 99.3371423,36.416878 99.4334035,36.3556209 C99.722187,36.1455966 99.9584644,35.804307 100.142236,35.3317522 C100.273501,35.0342177 100.446333,34.5594752 100.660733,33.9075246 C100.875133,33.255574 101.021713,32.7633294 101.100472,32.4307909 L102.80692,32.4307909 L102.833173,36.2506088 L107.243684,36.2506088 L107.243684,38.1277014 L102.846299,38.1277014 L102.846299,46.0692472 C102.846299,47.1368709 102.876928,47.8785194 102.938185,48.2941926 C102.999442,48.7098658 103.124144,48.9767718 103.312291,49.0949105 C103.500438,49.2130492 103.843915,49.2721185 104.342723,49.2721185 L104.355849,49.2721185 C104.810902,49.2721185 105.325024,49.2152369 105.898216,49.1014737 C106.471407,48.9877105 106.915521,48.8695718 107.230558,48.7470576 L107.243684,48.7470576 L107.689986,50.0203303 C107.427455,50.2391056 107.03366,50.4600687 106.508599,50.6832196 C105.983538,50.9063705 105.419098,51.0923295 104.815277,51.2410968 C104.211457,51.389864 103.655768,51.4642477 103.148209,51.4642477 L103.121956,51.4642477 C102.03683,51.4642477 101.21861,51.2257825 100.667297,50.7488522 C100.115983,50.2719219 99.8403257,49.4733918 99.8403257,48.353262 L99.8403257,38.1277014 L97.9632331,38.1277014 Z" id="Path"></path>
        </g>
    </g>
</svg>