<?xml version="1.0" encoding="UTF-8"?>
<svg width="352px" height="64px" viewBox="0 0 352 64" version="1.1" xmlns="http://www.w3.org/2000/svg" xmlns:xlink="http://www.w3.org/1999/xlink">
    <title>logo/tms/white/stacked/tms-logo-white-stacked</title>
    <g id="logo/tms/white/stacked/tms-logo-white-stacked" stroke="none" stroke-width="1" fill="none" fill-rule="evenodd">
        <g id="Talent-Management-So" transform="translate(72.420049, 3.960570)" fill="#FFFFFF" fill-rule="nonzero">
            <polygon id="Path" points="7.25896662 20.2936029 7.25896662 3.62292005 2.88783482 3.75418527 1.90334568 9.24107143 0 9.24107143 0.459428267 2.06086394 17.077605 2.06086394 17.4976537 9.24107143 15.6205611 9.24107143 14.6229454 3.75418527 10.4224584 3.62292005 10.4224584 20.2936029 14.1372641 20.6086394 14.1372641 22.0394303 3.8329444 22.0394303 3.8329444 20.6086394"></polygon>
            <path d="M28.0119978,12.2864245 C28.0119978,11.4638291 27.9266754,10.8162541 27.7560306,10.3436993 C27.5853858,9.87114448 27.2900391,9.5254794 26.8699904,9.30670404 C26.4499417,9.08792867 25.8548727,8.97854099 25.0847834,8.97854099 C23.6058619,8.97854099 22.0481813,9.39421418 20.4117416,10.2255606 L20.3986151,10.2255606 L19.742289,8.86040229 C19.9785664,8.65037794 20.4314314,8.37909649 21.100884,8.04655793 C21.7703366,7.71401938 22.5316749,7.42304814 23.3848988,7.17364423 C24.2381227,6.92424031 25.0497793,6.79953835 25.8198686,6.79953835 C27.0975167,6.79953835 28.1016957,6.97237089 28.8324054,7.31803597 C29.5631151,7.66370105 30.0903637,8.21720272 30.4141513,8.97854099 C30.7379388,9.73987926 30.8998326,10.7681235 30.8998326,12.0632736 L30.8998326,20.5955129 L32.5012683,20.5955129 L32.5012683,21.881912 C31.2236201,22.1881975 30.2610085,22.3413403 29.6134334,22.3413403 C29.2458908,22.3413403 28.9658584,22.3107117 28.773336,22.2494546 C28.5808137,22.1881975 28.4386097,22.0634956 28.3467241,21.8753488 C28.2548384,21.687202 28.2088956,21.3962307 28.2088956,21.0024351 L28.2088956,20.372362 C27.7363408,20.8361658 27.1150188,21.2802798 26.3449295,21.704704 C25.5748402,22.1291282 24.7128653,22.3413403 23.7590047,22.3413403 C22.9189073,22.3413403 22.1553812,22.1881975 21.4684266,21.881912 C20.7814719,21.5756265 20.2345335,21.1030717 19.8276114,20.4642477 C19.4206892,19.8254236 19.2172281,19.0290813 19.2172281,18.0752207 C19.2172281,16.9113357 19.6219625,15.9530996 20.4314314,15.2005124 C21.2409002,14.4479251 22.3041485,13.8944234 23.6211762,13.5400074 C24.9382039,13.1855913 26.4018111,12.9952567 28.0119978,12.9690037 L28.0119978,12.2864245 Z M28.0119978,14.4523006 C26.7255986,14.4523006 25.6689136,14.5988801 24.8419427,14.8920391 C24.0149718,15.1851981 23.4155273,15.5724305 23.0436092,16.0537363 C22.6716911,16.5350421 22.485732,17.0819805 22.485732,17.6945515 C22.485732,18.6134081 22.7132584,19.2872362 23.1683112,19.7160359 C23.6233639,20.1448356 24.235935,20.3592355 25.0060242,20.3592355 C25.4173219,20.3592355 25.913942,20.2432845 26.4958845,20.0113827 C27.077827,19.7794808 27.5831981,19.4972606 28.0119978,19.164722 L28.0119978,14.4523006 Z" id="Shape"></path>
            <polygon id="Path" points="36.2554535 20.3854885 36.2554535 2.07399046 34.1027039 1.81146002 34.1027039 0.564440442 38.5788479 0 38.605101 0 39.2483005 0.446301745 39.2483005 20.3854885 41.4798093 20.6086394 41.4798093 22.0394303 34.128957 22.0394303 34.128957 20.6086394"></polygon>
            <path d="M43.3175223,14.5441863 C43.3175223,13.0040077 43.6194323,11.6388494 44.2232523,10.4487114 C44.8270723,9.25857346 45.6627942,8.33752917 46.730418,7.68557858 C47.7980418,7.03362799 49.0100573,6.7076527 50.3664646,6.7076527 C52.0466594,6.7076527 53.3461851,7.16708097 54.2650416,8.0859375 C55.1838981,9.00479403 55.673955,10.3305727 55.7352121,12.0632736 L55.7352121,12.5358284 C55.7352121,13.454685 55.682706,14.1547661 55.5776938,14.6360719 L46.4810141,14.6360719 C46.5160182,15.9224711 46.7347935,16.9900949 47.1373402,17.8389433 C47.5398869,18.6877917 48.0693233,19.3134892 48.7256494,19.7160359 C49.3819754,20.1185826 50.1214362,20.3198559 50.9440316,20.3198559 C51.6616148,20.3198559 52.3988877,20.195154 53.1558505,19.9457501 C53.9128133,19.6963461 54.5056945,19.4097504 54.9344942,19.0859629 L55.4858081,20.346109 C55.1532696,20.6873985 54.6960291,21.0111861 54.1140866,21.3174716 C53.5321441,21.6237571 52.884569,21.8709733 52.1713614,22.0591201 C51.4581537,22.2472669 50.7515092,22.3413403 50.0514281,22.3413403 C48.5812576,22.3413403 47.3408013,22.015365 46.3300591,21.3634144 C45.3193169,20.7114638 44.5645419,19.8013583 44.0657341,18.6330979 C43.5669262,17.4648374 43.3175223,16.1018669 43.3175223,14.5441863 Z M52.5848468,13.1133954 C52.6198509,12.7983589 52.6373529,12.4220652 52.6373529,11.9845145 C52.6286019,10.8731357 52.3967,9.98053216 51.9416472,9.30670404 C51.4865945,8.63287591 50.7690113,8.29596185 49.7888976,8.29596185 C48.808784,8.29596185 48.0321314,8.66131671 47.45894,9.39202643 C46.8857485,10.1227362 46.5597732,11.3631925 46.4810141,13.1133954 L52.5848468,13.1133954 Z" id="Shape"></path>
            <path d="M59.8569399,20.3854885 L59.8569399,9.38546317 L57.9798473,8.86040229 L57.9798473,7.28521966 L61.8652978,6.76015879 L61.9309304,6.76015879 L62.5478769,7.27209314 L62.5478769,8.33534142 L62.5347504,8.93916142 C62.9372971,8.58036983 63.4426682,8.23470475 64.0508637,7.90216619 C64.6590592,7.56962764 65.3110098,7.29834619 66.0067155,7.08832183 C66.7024211,6.87829748 67.360935,6.77328531 67.982257,6.77328531 C69.1198889,6.77328531 69.9993659,6.98549741 70.6206879,7.40992162 C71.2420099,7.83434583 71.6751852,8.48848417 71.9202136,9.37233665 C72.165242,10.2561891 72.2877562,11.4550781 72.2877562,12.9690037 L72.2877562,20.3854885 L74.1779753,20.6086394 L74.1779753,22.0394303 L67.5884613,22.0394303 L67.5884613,20.6086394 L69.2686561,20.3854885 L69.2686561,12.9558771 C69.2686561,11.9407594 69.2008358,11.1422294 69.0651951,10.5602869 C68.9295543,9.97834441 68.6735872,9.54079368 68.2972935,9.24763469 C67.9209999,8.9544757 67.3653105,8.80789621 66.6302252,8.80789621 C66.0001522,8.80789621 65.3438261,8.94353693 64.661247,9.21481838 C63.9786678,9.48609984 63.3792233,9.81426289 62.8629135,10.1993075 L62.8629135,20.3854885 L64.6743735,20.6086394 L64.6743735,22.0394303 L58.1373656,22.0394303 L58.1373656,20.6086394 L59.8569399,20.3854885 Z" id="Path"></path>
            <path d="M75.7269049,8.99166751 L75.7269049,7.74464793 C75.9719333,7.68339083 76.2541536,7.59588068 76.5735656,7.48211749 C76.8929776,7.3683543 77.1008142,7.28084416 77.1970754,7.21958705 C77.4858589,7.0095627 77.7221363,6.66827313 77.9059076,6.19571834 C78.0371728,5.89818385 78.2100053,5.4234413 78.4244052,4.77149072 C78.638805,4.11954013 78.7853845,3.62729556 78.8641437,3.294757 L80.5705915,3.294757 L80.5968446,7.11457488 L85.0073559,7.11457488 L85.0073559,8.99166751 L80.6099711,8.99166751 L80.6099711,16.9332133 C80.6099711,18.0008371 80.6405996,18.7424855 80.7018567,19.1581587 C80.7631138,19.5738319 80.8878158,19.8407379 81.0759626,19.9588766 C81.2641094,20.0770153 81.6075867,20.1360846 82.1063946,20.1360846 L82.1195211,20.1360846 C82.5745739,20.1360846 83.088696,20.079203 83.6618874,19.9654398 C84.2350789,19.8516766 84.6791929,19.7335379 84.9942294,19.6110237 L85.0073559,19.6110237 L85.4536577,20.8842964 C85.1911272,21.1030717 84.7973316,21.3240349 84.2722707,21.5471857 C83.7472098,21.7703366 83.1827694,21.9562957 82.5789494,22.1050629 C81.9751294,22.2538302 81.4194399,22.3282138 80.9118811,22.3282138 L80.885628,22.3282138 C79.8005022,22.3282138 78.9822824,22.0897486 78.4309684,21.6128183 C77.8796545,21.135888 77.6039976,20.337358 77.6039976,19.2172281 L77.6039976,8.99166751 L75.7269049,8.99166751 Z" id="Path"></path>
            <polygon id="Path" points="96.2305322 20.3067294 98.1995105 3.84607092 95.3904348 3.51790787 95.3904348 2.06086394 102.557516 2.06086394 106.679244 14.0978845 107.361823 17.1169846 107.952516 14.0978845 111.588563 2.06086394 118.755644 2.06086394 118.755644 3.51790787 115.841556 3.85919744 118.388101 20.2936029 120.737749 20.6086394 120.737749 22.0394303 112.940595 22.0394303 112.940595 20.6086394 115.263989 20.3067294 113.610047 8.3878475 113.03248 3.15036526 112.12675 6.74703226 107.847504 21.1468268 106.154183 21.1468268 101.415508 8.21720272 99.9584644 3.16349178 99.5384157 8.37472098 98.4751674 20.2936029 101.061092 20.6086394 101.061092 22.0394303 93.8940113 22.0394303 93.8940113 20.6086394"></polygon>
            <path d="M130.648273,12.2864245 C130.648273,11.4638291 130.56295,10.8162541 130.392305,10.3436993 C130.221661,9.87114448 129.926314,9.5254794 129.506265,9.30670404 C129.086217,9.08792867 128.491148,8.97854099 127.721058,8.97854099 C126.242137,8.97854099 124.684456,9.39421418 123.048016,10.2255606 L123.03489,10.2255606 L122.378564,8.86040229 C122.614841,8.65037794 123.067706,8.37909649 123.737159,8.04655793 C124.406611,7.71401938 125.16795,7.42304814 126.021174,7.17364423 C126.874398,6.92424031 127.686054,6.79953835 128.456143,6.79953835 C129.733792,6.79953835 130.737971,6.97237089 131.46868,7.31803597 C132.19939,7.66370105 132.726639,8.21720272 133.050426,8.97854099 C133.374214,9.73987926 133.536107,10.7681235 133.536107,12.0632736 L133.536107,20.5955129 L135.137543,20.5955129 L135.137543,21.881912 C133.859895,22.1881975 132.897283,22.3413403 132.249708,22.3413403 C131.882166,22.3413403 131.602133,22.3107117 131.409611,22.2494546 C131.217089,22.1881975 131.074885,22.0634956 130.982999,21.8753488 C130.891113,21.687202 130.84517,21.3962307 130.84517,21.0024351 L130.84517,20.372362 C130.372616,20.8361658 129.751294,21.2802798 128.981204,21.704704 C128.211115,22.1291282 127.34914,22.3413403 126.39528,22.3413403 C125.555182,22.3413403 124.791656,22.1881975 124.104701,21.881912 C123.417747,21.5756265 122.870808,21.1030717 122.463886,20.4642477 C122.056964,19.8254236 121.853503,19.0290813 121.853503,18.0752207 C121.853503,16.9113357 122.258237,15.9530996 123.067706,15.2005124 C123.877175,14.4479251 124.940423,13.8944234 126.257451,13.5400074 C127.574479,13.1855913 129.038086,12.9952567 130.648273,12.9690037 L130.648273,12.2864245 Z M130.648273,14.4523006 C129.361873,14.4523006 128.305188,14.5988801 127.478218,14.8920391 C126.651247,15.1851981 126.051802,15.5724305 125.679884,16.0537363 C125.307966,16.5350421 125.122007,17.0819805 125.122007,17.6945515 C125.122007,18.6134081 125.349533,19.2872362 125.804586,19.7160359 C126.259639,20.1448356 126.87221,20.3592355 127.642299,20.3592355 C128.053597,20.3592355 128.550217,20.2432845 129.132159,20.0113827 C129.714102,19.7794808 130.219473,19.4972606 130.648273,19.164722 L130.648273,14.4523006 Z" id="Shape"></path>
            <path d="M138.865475,20.3854885 L138.865475,9.38546317 L136.988383,8.86040229 L136.988383,7.28521966 L140.873833,6.76015879 L140.939466,6.76015879 L141.556412,7.27209314 L141.556412,8.33534142 L141.543286,8.93916142 C141.945832,8.58036983 142.451204,8.23470475 143.059399,7.90216619 C143.667595,7.56962764 144.319545,7.29834619 145.015251,7.08832183 C145.710957,6.87829748 146.36947,6.77328531 146.990792,6.77328531 C148.128424,6.77328531 149.007901,6.98549741 149.629223,7.40992162 C150.250545,7.83434583 150.683721,8.48848417 150.928749,9.37233665 C151.173777,10.2561891 151.296292,11.4550781 151.296292,12.9690037 L151.296292,20.3854885 L153.186511,20.6086394 L153.186511,22.0394303 L146.596997,22.0394303 L146.596997,20.6086394 L148.277192,20.3854885 L148.277192,12.9558771 C148.277192,11.9407594 148.209371,11.1422294 148.07373,10.5602869 C147.93809,9.97834441 147.682123,9.54079368 147.305829,9.24763469 C146.929535,8.9544757 146.373846,8.80789621 145.638761,8.80789621 C145.008688,8.80789621 144.352362,8.94353693 143.669782,9.21481838 C142.987203,9.48609984 142.387759,9.81426289 141.871449,10.1993075 L141.871449,20.3854885 L143.682909,20.6086394 L143.682909,22.0394303 L137.145901,22.0394303 L137.145901,20.6086394 L138.865475,20.3854885 Z" id="Path"></path>
            <path d="M163.766487,12.2864245 C163.766487,11.4638291 163.681165,10.8162541 163.51052,10.3436993 C163.339875,9.87114448 163.044529,9.5254794 162.62448,9.30670404 C162.204431,9.08792867 161.609362,8.97854099 160.839273,8.97854099 C159.360352,8.97854099 157.802671,9.39421418 156.166231,10.2255606 L156.153105,10.2255606 L155.496779,8.86040229 C155.733056,8.65037794 156.185921,8.37909649 156.855374,8.04655793 C157.524826,7.71401938 158.286165,7.42304814 159.139388,7.17364423 C159.992612,6.92424031 160.804269,6.79953835 161.574358,6.79953835 C162.852006,6.79953835 163.856185,6.97237089 164.586895,7.31803597 C165.317605,7.66370105 165.844853,8.21720272 166.168641,8.97854099 C166.492428,9.73987926 166.654322,10.7681235 166.654322,12.0632736 L166.654322,20.5955129 L168.255758,20.5955129 L168.255758,21.881912 C166.97811,22.1881975 166.015498,22.3413403 165.367923,22.3413403 C165.00038,22.3413403 164.720348,22.3107117 164.527826,22.2494546 C164.335303,22.1881975 164.193099,22.0634956 164.101214,21.8753488 C164.009328,21.687202 163.963385,21.3962307 163.963385,21.0024351 L163.963385,20.372362 C163.49083,20.8361658 162.869508,21.2802798 162.099419,21.704704 C161.32933,22.1291282 160.467355,22.3413403 159.513494,22.3413403 C158.673397,22.3413403 157.909871,22.1881975 157.222916,21.881912 C156.535962,21.5756265 155.989023,21.1030717 155.582101,20.4642477 C155.175179,19.8254236 154.971718,19.0290813 154.971718,18.0752207 C154.971718,16.9113357 155.376452,15.9530996 156.185921,15.2005124 C156.99539,14.4479251 158.058638,13.8944234 159.375666,13.5400074 C160.692694,13.1855913 162.156301,12.9952567 163.766487,12.9690037 L163.766487,12.2864245 Z M163.766487,14.4523006 C162.480088,14.4523006 161.423403,14.5988801 160.596432,14.8920391 C159.769461,15.1851981 159.170017,15.5724305 158.798099,16.0537363 C158.426181,16.5350421 158.240222,17.0819805 158.240222,17.6945515 C158.240222,18.6134081 158.467748,19.2872362 158.922801,19.7160359 C159.377854,20.1448356 159.990425,20.3592355 160.760514,20.3592355 C161.171812,20.3592355 161.668432,20.2432845 162.250374,20.0113827 C162.832317,19.7794808 163.337688,19.4972606 163.766487,19.164722 L163.766487,14.4523006 Z" id="Shape"></path>
            <path d="M176.55172,16.7231889 C175.834137,16.7231889 175.164684,16.6488053 174.543362,16.500038 C174.298334,16.7188134 174.105811,16.9704051 173.965795,17.2548131 C173.825779,17.539221 173.755771,17.8301923 173.755771,18.1277268 C173.755771,18.5652775 173.858595,18.9000038 174.064244,19.1319057 C174.269893,19.3638076 174.580554,19.5235136 174.996227,19.6110237 C175.4119,19.6985339 175.982904,19.742289 176.709238,19.742289 L179.57082,19.742289 C182.992467,19.742289 184.70329,21.0549412 184.70329,23.6802455 C184.70329,24.6953632 184.342311,25.6317218 183.620352,26.4893212 C182.898393,27.3469207 181.933594,28.027312 180.725954,28.5304954 C179.518314,29.0336787 178.223164,29.2852704 176.840503,29.2852704 L176.827377,29.2852704 C174.482105,29.2852704 172.780032,28.9286665 171.72116,28.2154589 C170.662287,27.5022512 170.132851,26.4936967 170.132851,25.1897956 C170.132851,24.3759512 170.371316,23.6386782 170.848246,22.9779766 C171.325176,22.317275 171.900555,21.8162794 172.574384,21.4749899 C171.725535,20.9936841 171.301111,20.2585988 171.301111,19.2697342 C171.301111,18.6134081 171.489258,18.0074003 171.865551,17.4517109 C172.241845,16.8960215 172.736277,16.447532 173.348848,16.1062424 C172.473747,15.7036957 171.802107,15.132692 171.333927,14.3932313 C170.865748,13.6537705 170.631658,12.7896079 170.631658,11.8007432 C170.631658,10.7681235 170.924817,9.86676897 171.511135,9.09667969 C172.097453,8.3265904 172.867543,7.73808467 173.821403,7.33116249 C174.775264,6.92424031 175.794757,6.71640371 176.879883,6.7076527 L176.893009,6.7076527 C177.838119,6.7076527 178.686967,6.81485263 179.439555,7.02925249 C180.192142,7.24365234 180.82659,7.56087662 181.3429,7.98092532 C181.605431,7.67463981 181.999226,7.38148082 182.524287,7.10144836 C183.049348,6.82141589 183.666295,6.68139966 184.375127,6.68139966 L185.083959,6.68139966 L185.083959,9.22794491 L182.327389,9.22794491 C182.633675,9.86676897 182.786818,10.5712256 182.786818,11.3413149 C182.786818,12.3914367 182.515536,13.3256075 181.972973,14.1438274 C181.43041,14.9620472 180.686574,15.5964958 179.741465,16.047173 C178.796355,16.4978503 177.737482,16.7231889 176.564846,16.7231889 L176.55172,16.7231889 Z M176.709238,8.24345576 C175.764128,8.24345576 175.031231,8.49942294 174.510546,9.0113573 C173.98986,9.52329165 173.729518,10.3612013 173.729518,11.5250862 C173.729518,12.6277141 173.976734,13.5093788 174.471166,14.1700804 C174.965598,14.830782 175.755377,15.1611328 176.840503,15.1611328 L176.85363,15.1611328 C177.851245,15.1611328 178.575392,14.8635983 179.026069,14.2685293 C179.476746,13.6734603 179.702085,12.8027344 179.702085,11.6563515 C179.702085,10.4837155 179.459244,9.62174056 178.973563,9.07042664 C178.487882,8.51911272 177.737482,8.24345576 176.722365,8.24345576 L176.709238,8.24345576 Z M173.913289,21.9344181 C173.353224,22.6257483 173.073191,23.4527192 173.073191,24.4153308 C173.073191,25.4654525 173.383852,26.2617948 174.005175,26.8043578 C174.626497,27.3469207 175.64599,27.6182021 177.063654,27.6182021 L177.089907,27.6182021 C177.877498,27.6182021 178.630086,27.4956879 179.347669,27.2506595 C180.065252,27.0056311 180.647195,26.642464 181.093496,26.1611582 C181.539798,25.6798524 181.762949,25.1066609 181.762949,24.4415838 C181.762949,23.8727679 181.677627,23.4242784 181.506982,23.0961153 C181.336337,22.7679523 181.023488,22.5207361 180.568435,22.3544668 C180.113383,22.1881975 179.452681,22.1050629 178.586331,22.1050629 L175.9479,22.1050629 C175.230317,22.1050629 174.552113,22.0481813 173.913289,21.9344181 Z" id="Shape"></path>
            <path d="M186.488497,14.5441863 C186.488497,13.0040077 186.790407,11.6388494 187.394227,10.4487114 C187.998047,9.25857346 188.833769,8.33752917 189.901393,7.68557858 C190.969016,7.03362799 192.181032,6.7076527 193.537439,6.7076527 C195.217634,6.7076527 196.51716,7.16708097 197.436016,8.0859375 C198.354873,9.00479403 198.844929,10.3305727 198.906187,12.0632736 L198.906187,12.5358284 C198.906187,13.454685 198.85368,14.1547661 198.748668,14.6360719 L189.651989,14.6360719 C189.686993,15.9224711 189.905768,16.9900949 190.308315,17.8389433 C190.710861,18.6877917 191.240298,19.3134892 191.896624,19.7160359 C192.55295,20.1185826 193.292411,20.3198559 194.115006,20.3198559 C194.832589,20.3198559 195.569862,20.195154 196.326825,19.9457501 C197.083788,19.6963461 197.676669,19.4097504 198.105469,19.0859629 L198.656783,20.346109 C198.324244,20.6873985 197.867004,21.0111861 197.285061,21.3174716 C196.703119,21.6237571 196.055544,21.8709733 195.342336,22.0591201 C194.629128,22.2472669 193.922484,22.3413403 193.222403,22.3413403 C191.752232,22.3413403 190.511776,22.015365 189.501034,21.3634144 C188.490291,20.7114638 187.735516,19.8013583 187.236709,18.6330979 C186.737901,17.4648374 186.488497,16.1018669 186.488497,14.5441863 Z M195.755821,13.1133954 C195.790825,12.7983589 195.808327,12.4220652 195.808327,11.9845145 C195.799576,10.8731357 195.567675,9.98053216 195.112622,9.30670404 C194.657569,8.63287591 193.939986,8.29596185 192.959872,8.29596185 C191.979759,8.29596185 191.203106,8.66131671 190.629915,9.39202643 C190.056723,10.1227362 189.730748,11.3631925 189.651989,13.1133954 L195.755821,13.1133954 Z" id="Shape"></path>
            <path d="M203.027914,20.3986151 L203.027914,9.38546317 L201.150822,8.86040229 L201.150822,7.28521966 L205.023146,6.76015879 L205.088778,6.76015879 L205.718851,7.27209314 L205.718851,8.33534142 L205.692598,8.93916142 C206.086394,8.58036983 206.596141,8.23470475 207.221838,7.90216619 C207.847536,7.56962764 208.508237,7.29834619 209.203943,7.08832183 C209.899649,6.87829748 210.531909,6.77328531 211.100725,6.77328531 C212.063337,6.77328531 212.837802,6.93517908 213.42412,7.25896662 C214.010438,7.58275416 214.45674,8.0859375 214.763025,8.76851664 C215.104315,8.47098214 215.574682,8.16688439 216.174126,7.85622337 C216.773571,7.54556235 217.414582,7.28740742 218.097162,7.08175857 C218.779741,6.87610973 219.414189,6.77328531 220.000507,6.77328531 C221.138139,6.77328531 222.021992,6.98549741 222.652065,7.40992162 C223.282138,7.83434583 223.724064,8.48629642 223.977843,9.36577339 C224.231623,10.2452504 224.358513,11.4332006 224.358513,12.9296241 L224.358513,20.3986151 L226.235605,20.6217659 L226.235605,22.0394303 L219.803609,22.0394303 L219.803609,20.6217659 L221.352539,20.3854885 L221.352539,13.0215097 C221.352539,11.997641 221.278155,11.1881722 221.129388,10.5931032 C220.980621,9.99803419 220.700588,9.54954469 220.289291,9.24763469 C219.877993,8.94572469 219.2873,8.79476968 218.51721,8.79476968 C217.983398,8.79476968 217.401456,8.91728389 216.771383,9.1623123 C216.14131,9.40734071 215.598747,9.69174868 215.143694,10.0155362 C215.301212,10.7681235 215.379972,11.7526126 215.379972,12.9690037 L215.379972,20.3854885 L217.296444,20.6217659 L217.296444,22.0394303 L210.628171,22.0394303 L210.628171,20.6217659 L212.373998,20.3854885 L212.373998,12.9558771 C212.373998,11.9320084 212.308365,11.1312906 212.1771,10.5537236 C212.045835,9.97615666 211.789868,9.54079368 211.409199,9.24763469 C211.02853,8.9544757 210.470652,8.80789621 209.735567,8.80789621 C209.122996,8.80789621 208.479797,8.93916142 207.805968,9.20169186 C207.13214,9.4642223 206.541447,9.78800984 206.033888,10.1730545 L206.033888,20.3854885 L207.792842,20.6217659 L207.792842,22.0394303 L201.387099,22.0394303 L201.387099,20.6217659 L203.027914,20.3986151 Z" id="Path"></path>
            <path d="M228.047065,14.5441863 C228.047065,13.0040077 228.348975,11.6388494 228.952795,10.4487114 C229.556615,9.25857346 230.392337,8.33752917 231.459961,7.68557858 C232.527585,7.03362799 233.7396,6.7076527 235.096008,6.7076527 C236.776202,6.7076527 238.075728,7.16708097 238.994585,8.0859375 C239.913441,9.00479403 240.403498,10.3305727 240.464755,12.0632736 L240.464755,12.5358284 C240.464755,13.454685 240.412249,14.1547661 240.307237,14.6360719 L231.210557,14.6360719 C231.245561,15.9224711 231.464336,16.9900949 231.866883,17.8389433 C232.26943,18.6877917 232.798866,19.3134892 233.455192,19.7160359 C234.111518,20.1185826 234.850979,20.3198559 235.673574,20.3198559 C236.391158,20.3198559 237.128431,20.195154 237.885393,19.9457501 C238.642356,19.6963461 239.235237,19.4097504 239.664037,19.0859629 L240.215351,20.346109 C239.882813,20.6873985 239.425572,21.0111861 238.84363,21.3174716 C238.261687,21.6237571 237.614112,21.8709733 236.900904,22.0591201 C236.187697,22.2472669 235.481052,22.3413403 234.780971,22.3413403 C233.310801,22.3413403 232.070344,22.015365 231.059602,21.3634144 C230.04886,20.7114638 229.294085,19.8013583 228.795277,18.6330979 C228.296469,17.4648374 228.047065,16.1018669 228.047065,14.5441863 Z M237.31439,13.1133954 C237.349394,12.7983589 237.366896,12.4220652 237.366896,11.9845145 C237.358145,10.8731357 237.126243,9.98053216 236.67119,9.30670404 C236.216137,8.63287591 235.498554,8.29596185 234.518441,8.29596185 C233.538327,8.29596185 232.761674,8.66131671 232.188483,9.39202643 C231.615291,10.1227362 231.289316,11.3631925 231.210557,13.1133954 L237.31439,13.1133954 Z" id="Shape"></path>
            <path d="M244.586483,20.3854885 L244.586483,9.38546317 L242.70939,8.86040229 L242.70939,7.28521966 L246.594841,6.76015879 L246.660473,6.76015879 L247.27742,7.27209314 L247.27742,8.33534142 L247.264293,8.93916142 C247.66684,8.58036983 248.172211,8.23470475 248.780407,7.90216619 C249.388602,7.56962764 250.040553,7.29834619 250.736258,7.08832183 C251.431964,6.87829748 252.090478,6.77328531 252.7118,6.77328531 C253.849432,6.77328531 254.728909,6.98549741 255.350231,7.40992162 C255.971553,7.83434583 256.404728,8.48848417 256.649756,9.37233665 C256.894785,10.2561891 257.017299,11.4550781 257.017299,12.9690037 L257.017299,20.3854885 L258.907518,20.6086394 L258.907518,22.0394303 L252.318004,22.0394303 L252.318004,20.6086394 L253.998199,20.3854885 L253.998199,12.9558771 C253.998199,11.9407594 253.930379,11.1422294 253.794738,10.5602869 C253.659097,9.97834441 253.40313,9.54079368 253.026836,9.24763469 C252.650543,8.9544757 252.094853,8.80789621 251.359768,8.80789621 C250.729695,8.80789621 250.073369,8.94353693 249.39079,9.21481838 C248.708211,9.48609984 248.108766,9.81426289 247.592456,10.1993075 L247.592456,20.3854885 L249.403916,20.6086394 L249.403916,22.0394303 L242.866908,22.0394303 L242.866908,20.6086394 L244.586483,20.3854885 Z" id="Path"></path>
            <path d="M260.456448,8.99166751 L260.456448,7.74464793 C260.701476,7.68339083 260.983696,7.59588068 261.303109,7.48211749 C261.622521,7.3683543 261.830357,7.28084416 261.926618,7.21958705 C262.215402,7.0095627 262.451679,6.66827313 262.63545,6.19571834 C262.766716,5.89818385 262.939548,5.4234413 263.153948,4.77149072 C263.368348,4.11954013 263.514927,3.62729556 263.593687,3.294757 L265.300134,3.294757 L265.326387,7.11457488 L269.736899,7.11457488 L269.736899,8.99166751 L265.339514,8.99166751 L265.339514,16.9332133 C265.339514,18.0008371 265.370143,18.7424855 265.4314,19.1581587 C265.492657,19.5738319 265.617359,19.8407379 265.805506,19.9588766 C265.993652,20.0770153 266.33713,20.1360846 266.835938,20.1360846 L266.849064,20.1360846 C267.304117,20.1360846 267.818239,20.079203 268.39143,19.9654398 C268.964622,19.8516766 269.408736,19.7335379 269.723772,19.6110237 L269.736899,19.6110237 L270.183201,20.8842964 C269.92067,21.1030717 269.526874,21.3240349 269.001814,21.5471857 C268.476753,21.7703366 267.912312,21.9562957 267.308492,22.1050629 C266.704672,22.2538302 266.148983,22.3282138 265.641424,22.3282138 L265.615171,22.3282138 C264.530045,22.3282138 263.711825,22.0897486 263.160511,21.6128183 C262.609197,21.135888 262.33354,20.337358 262.33354,19.2172281 L262.33354,8.99166751 L260.456448,8.99166751 Z" id="Path"></path>
            <path d="M1.33890524,47.2637607 L3.16349178,47.2637607 L3.68855266,50.6241503 C3.98608716,50.9391868 4.46739296,51.2082805 5.13247007,51.4314314 C5.79754718,51.6545822 6.51950588,51.7661577 7.29834619,51.7661577 C8.60224736,51.7661577 9.58454875,51.4751864 10.2452504,50.893244 C10.905952,50.3113015 11.2363028,49.5040204 11.2363028,48.4714007 C11.2363028,47.7975725 11.0547192,47.2178178 10.6915521,46.7321365 C10.328385,46.2464552 9.83614042,45.8198432 9.21481838,45.4523006 C8.59349635,45.084758 7.74027242,44.6559583 6.65514661,44.1659015 C5.71003703,43.7371018 4.86118862,43.273298 4.10860136,42.7744902 C3.3560141,42.2756823 2.70843902,41.6281072 2.16587612,40.8317649 C1.62331321,40.0354226 1.35203176,39.0946885 1.35203176,38.0095627 C1.35203176,37.011947 1.6189377,36.1215313 2.15274959,35.3383155 C2.68656149,34.5550997 3.44789976,33.9425287 4.43676441,33.5006024 C5.42562906,33.0586762 6.57638748,32.8377131 7.88903967,32.8377131 C8.69413302,32.8377131 9.43796926,32.9055334 10.1205484,33.0411742 C10.8031275,33.1768149 11.5119597,33.3496474 12.2470449,33.5596718 C12.6320896,33.673435 12.9427506,33.7521941 13.179028,33.7959492 L13.0083832,38.2983462 L11.2494293,38.2983462 L10.6456093,35.1086014 C10.47934,34.9248301 10.1292994,34.756373 9.59548752,34.6032303 C9.06167563,34.4500875 8.48410866,34.3735161 7.86278663,34.3735161 C5.50001268,34.3735161 4.31862571,35.3273767 4.31862571,37.2350979 C4.31862571,37.900175 4.49802151,38.468991 4.85681311,38.9415458 C5.21560471,39.4141005 5.692535,39.8319615 6.287604,40.1951286 C6.88267299,40.5582957 7.76214996,41.0242872 8.9260349,41.5931032 C10.0811688,42.1619191 11.0262784,42.6826045 11.7613636,43.1551593 C12.4964489,43.6277141 13.1265219,44.2293463 13.6515828,44.9600561 C14.1766437,45.6907658 14.4391741,46.5549285 14.4391741,47.5525441 C14.4391741,48.5151557 14.1700804,49.4405755 13.631893,50.3288035 C13.0937056,51.2170315 12.2842368,51.941178 11.2034865,52.5012429 C10.1227362,53.0613078 8.81227171,53.3413403 7.27209314,53.3413403 C6.32698356,53.3413403 5.46500862,53.2560179 4.68616832,53.0853731 C3.90732802,52.9147283 3.09785917,52.6937652 2.25776177,52.4224838 C1.68019481,52.2387125 1.29952567,52.1380758 1.11575436,52.1205738 L1.33890524,47.2637607 Z" id="Path"></path>
            <path d="M23.6802455,37.7076527 C25.2029221,37.7076527 26.4718192,38.0445668 27.4869369,38.7183949 C28.5020546,39.392223 29.2546418,40.3176428 29.7446987,41.4946543 C30.2347555,42.6716657 30.4797839,44.0171342 30.4797839,45.5310598 C30.4797839,47.1499975 30.1450576,48.5501598 29.475605,49.7315468 C28.8061523,50.9129337 27.9266754,51.8099127 26.8371741,52.4224838 C25.7476727,53.0350548 24.5859755,53.3413403 23.3520825,53.3413403 C21.8294059,53.3413403 20.5626966,53.0044262 19.5519544,52.3305981 C18.5412122,51.65677 17.7908127,50.7313502 17.3007559,49.5543387 C16.8106991,48.3773273 16.5656707,47.0318588 16.5656707,45.5179332 C16.5656707,43.9164976 16.900397,42.5250862 17.5698496,41.3436993 C18.2393022,40.1623123 19.1187792,39.2609578 20.2082805,38.6396358 C21.2977818,38.0183137 22.4551035,37.7076527 23.6802455,37.7076527 Z M27.1587738,45.7673372 C27.1587738,43.7983589 26.8678026,42.234115 26.2858601,41.0746056 C25.7039177,39.9150961 24.7828734,39.3353414 23.5227273,39.3353414 C22.3150873,39.3353414 21.4049817,39.8319615 20.7924107,40.8252017 C20.1798397,41.8184418 19.8735542,43.3039265 19.8735542,45.2816558 C19.8735542,47.2506341 20.1689009,48.814878 20.7595944,49.9743874 C21.3502879,51.1338969 22.2713322,51.7136516 23.5227273,51.7136516 C25.9467583,51.7136516 27.1587738,49.7315468 27.1587738,45.7673372 Z" id="Shape"></path>
            <polygon id="Path" points="34.6015118 51.3854885 34.6015118 33.0739905 32.4487622 32.81146 32.4487622 31.5644404 36.9249061 31 36.9511592 31 37.5943588 31.4463017 37.5943588 51.3854885 39.8258675 51.6086394 39.8258675 53.0394303 32.4750152 53.0394303 32.4750152 51.6086394"></polygon>
            <path d="M52.4667081,51.2542233 C51.9066432,51.7967862 51.197811,52.2802798 50.3402115,52.704704 C49.4826121,53.1291282 48.6162617,53.3413403 47.7411602,53.3413403 C46.6472834,53.3413403 45.7590554,53.1466302 45.0764763,52.7572101 C44.3938971,52.3677899 43.8907138,51.7486556 43.5669262,50.8998072 C43.2431387,50.0509588 43.0812449,48.9308289 43.0812449,47.5394176 L43.0812449,39.9260349 L41.624201,39.4403536 L41.624201,38.167081 L45.5096515,37.7732853 L45.522778,37.7732853 L46.0740919,38.1277014 L46.0740919,47.3950259 C46.0740919,48.3926415 46.1484755,49.1714818 46.2972428,49.7315468 C46.44601,50.2916117 46.7085405,50.7007216 47.0848341,50.9588766 C47.4611277,51.2170315 48.0036906,51.346109 48.7125228,51.346109 C49.395102,51.346109 50.0295505,51.2148438 50.6158685,50.9523133 C51.2021865,50.6897829 51.7097453,50.3878729 52.138545,50.0465833 L52.138545,39.9391614 L50.2614524,39.4272271 L50.2614524,38.1539544 L54.4094333,37.7732853 L54.4356864,37.7732853 L55.131392,38.1277014 L55.131392,51.5561333 L56.7065747,51.5561333 L56.7065747,52.8687855 C56.1990158,53.0175528 55.7592773,53.1335037 55.3873592,53.2166383 C55.0154411,53.299773 54.5888291,53.3413403 54.1075233,53.3413403 C53.5474584,53.3413403 53.133973,53.2341404 52.867067,53.0197405 C52.6001611,52.8053407 52.4667081,52.4443613 52.4667081,51.9368025 L52.4667081,51.2542233 Z" id="Path"></path>
            <path d="M58.5836673,39.9916675 L58.5836673,38.7446479 C58.8286957,38.6833908 59.1109159,38.5958807 59.430328,38.4821175 C59.74974,38.3683543 59.9575766,38.2808442 60.0538378,38.2195871 C60.3426212,38.0095627 60.5788986,37.6682731 60.7626699,37.1957183 C60.8939352,36.8981838 61.0667677,36.4234413 61.2811676,35.7714907 C61.4955674,35.1195401 61.6421469,34.6272956 61.720906,34.294757 L63.4273539,34.294757 L63.4536069,38.1145749 L67.8641183,38.1145749 L67.8641183,39.9916675 L63.4667335,39.9916675 L63.4667335,47.9332133 C63.4667335,49.0008371 63.497362,49.7424855 63.5586191,50.1581587 C63.6198762,50.5738319 63.7445782,50.8407379 63.932725,50.9588766 C64.1208718,51.0770153 64.4643491,51.1360846 64.963157,51.1360846 L64.9762835,51.1360846 C65.4313362,51.1360846 65.9454584,51.079203 66.5186498,50.9654398 C67.0918413,50.8516766 67.5359553,50.7335379 67.8509918,50.6110237 L67.8641183,50.6110237 L68.31042,51.8842964 C68.0478896,52.1030717 67.654094,52.3240349 67.1290331,52.5471857 C66.6039722,52.7703366 66.0395318,52.9562957 65.4357117,53.1050629 C64.8318917,53.2538302 64.2762023,53.3282138 63.7686435,53.3282138 L63.7423904,53.3282138 C62.6572646,53.3282138 61.8390447,53.0897486 61.2877308,52.6128183 C60.7364169,52.135888 60.4607599,51.337358 60.4607599,50.2172281 L60.4607599,39.9916675 L58.5836673,39.9916675 Z" id="Path"></path>
            <path d="M71.8020749,51.3854885 L71.8020749,40.3854632 L69.8987292,39.8472758 L69.8987292,38.2983462 L74.0729632,37.7601588 L74.1385958,37.7601588 L74.8080484,38.2720931 L74.8080484,51.3854885 L76.9082919,51.6086394 L76.9082919,53.0394303 L69.6755783,53.0394303 L69.6755783,51.6086394 L71.8020749,51.3854885 Z M71.2638875,33.4940392 C71.2638875,32.8989702 71.43672,32.3957868 71.7823851,31.9844891 C72.1280502,31.5731915 72.6115437,31.3675426 73.2328658,31.3675426 L73.2459923,31.3675426 C73.6135349,31.3675426 73.9329469,31.452865 74.2042284,31.6235098 C74.4755098,31.7941546 74.6833464,32.0194932 74.8277382,32.2995257 C74.9721299,32.5795581 75.0443258,32.8770926 75.0443258,33.1921292 C75.0443258,33.8047002 74.8693055,34.3078835 74.5192649,34.7016792 C74.1692243,35.0954748 73.6616655,35.2923727 72.9965884,35.2923727 L72.9834619,35.2923727 C72.475903,35.2923727 72.0624176,35.1217279 71.7430055,34.7804383 C71.4235935,34.4391487 71.2638875,34.010349 71.2638875,33.4940392 Z" id="Shape"></path>
            <path d="M85.7949472,37.7076527 C87.3176238,37.7076527 88.5865209,38.0445668 89.6016386,38.7183949 C90.6167563,39.392223 91.3693435,40.3176428 91.8594004,41.4946543 C92.3494572,42.6716657 92.5944856,44.0171342 92.5944856,45.5310598 C92.5944856,47.1499975 92.2597593,48.5501598 91.5903067,49.7315468 C90.920854,50.9129337 90.0413771,51.8099127 88.9518758,52.4224838 C87.8623744,53.0350548 86.7006773,53.3413403 85.4667842,53.3413403 C83.9441077,53.3413403 82.6773983,53.0044262 81.6666561,52.3305981 C80.6559139,51.65677 79.9055144,50.7313502 79.4154576,49.5543387 C78.9254008,48.3773273 78.6803724,47.0318588 78.6803724,45.5179332 C78.6803724,43.9164976 79.0150987,42.5250862 79.6845513,41.3436993 C80.3540039,40.1623123 81.2334809,39.2609578 82.3229822,38.6396358 C83.4124835,38.0183137 84.5698052,37.7076527 85.7949472,37.7076527 Z M89.2734755,45.7673372 C89.2734755,43.7983589 88.9825043,42.234115 88.4005618,41.0746056 C87.8186194,39.9150961 86.8975751,39.3353414 85.637429,39.3353414 C84.429789,39.3353414 83.5196834,39.8319615 82.9071124,40.8252017 C82.2945414,41.8184418 81.9882559,43.3039265 81.9882559,45.2816558 C81.9882559,47.2506341 82.2836026,48.814878 82.8742961,49.9743874 C83.4649896,51.1338969 84.3860339,51.7136516 85.637429,51.7136516 C88.06146,51.7136516 89.2734755,49.7315468 89.2734755,45.7673372 Z" id="Shape"></path>
            <path d="M96.6899604,51.3854885 L96.6899604,40.3854632 L94.8128678,39.8604023 L94.8128678,38.2852197 L98.6983183,37.7601588 L98.7639509,37.7601588 L99.3808974,38.2720931 L99.3808974,39.3353414 L99.3677709,39.9391614 C99.7703176,39.5803698 100.275689,39.2347047 100.883884,38.9021662 C101.49208,38.5696276 102.14403,38.2983462 102.839736,38.0883218 C103.535442,37.8782975 104.193955,37.7732853 104.815277,37.7732853 C105.952909,37.7732853 106.832386,37.9854974 107.453708,38.4099216 C108.07503,38.8343458 108.508206,39.4884842 108.753234,40.3723366 C108.998262,41.2561891 109.120777,42.4550781 109.120777,43.9690037 L109.120777,51.3854885 L111.010996,51.6086394 L111.010996,53.0394303 L104.421482,53.0394303 L104.421482,51.6086394 L106.101677,51.3854885 L106.101677,43.9558771 C106.101677,42.9407594 106.033856,42.1422294 105.898216,41.5602869 C105.762575,40.9783444 105.506608,40.5407937 105.130314,40.2476347 C104.75402,39.9544757 104.198331,39.8078962 103.463246,39.8078962 C102.833173,39.8078962 102.176847,39.9435369 101.494267,40.2148184 C100.811688,40.4860998 100.212244,40.8142629 99.6959339,41.1993075 L99.6959339,51.3854885 L101.507394,51.6086394 L101.507394,53.0394303 L94.9703861,53.0394303 L94.9703861,51.6086394 L96.6899604,51.3854885 Z" id="Path"></path>
            <path d="M115.093344,48.7733107 L115.618405,50.768542 C115.723417,50.9523133 115.926878,51.1273336 116.228788,51.2936029 C116.530698,51.4598722 116.887302,51.5955129 117.2986,51.7005251 C117.709898,51.8055372 118.129946,51.8580433 118.558746,51.8580433 C119.547611,51.8580433 120.252067,51.6720843 120.672116,51.3001661 C121.092165,50.928248 121.302189,50.4185014 121.302189,49.7709263 C121.302189,49.3158736 121.159985,48.9155147 120.875577,48.5698496 C120.591169,48.2241845 120.168933,47.8982092 119.608868,47.5919237 C119.048803,47.2856382 118.287464,46.9399731 117.324853,46.5549285 C115.933442,46.0123656 114.918324,45.3713537 114.2795,44.631893 C113.640676,43.8924323 113.321264,42.9363839 113.321264,41.763748 C113.321264,40.9761567 113.559729,40.2826387 114.036659,39.6831942 C114.513589,39.0837497 115.167728,38.6177582 115.999074,38.2852197 C116.830421,37.9526811 117.766779,37.7864118 118.80815,37.7864118 C119.613243,37.7864118 120.322075,37.8498567 120.934646,37.9767464 C121.547217,38.1036361 122.164164,38.2677176 122.785486,38.468991 L123.258041,38.6133827 L123.258041,41.9343928 L121.577846,41.9343928 L121.013406,40.0966797 C120.908393,39.8691533 120.626173,39.6722555 120.166745,39.5059862 C119.707317,39.3397169 119.193195,39.2565823 118.624379,39.2565823 C117.819285,39.2565823 117.197963,39.4272271 116.760412,39.7685166 C116.322862,40.1098062 116.104086,40.556108 116.104086,41.1074219 C116.104086,41.5974787 116.233164,42.0087764 116.491319,42.3413149 C116.749474,42.6738535 117.071073,42.9451349 117.456118,43.1551593 C117.841163,43.3651836 118.37935,43.6145876 119.07068,43.903371 L119.582615,44.1265219 C120.58023,44.5553216 121.389699,44.9578683 122.011021,45.3341619 C122.632343,45.7104556 123.148653,46.1917614 123.559951,46.7780793 C123.971248,47.3643973 124.176897,48.0819805 124.176897,48.9308289 C124.176897,49.8059304 123.947183,50.5760197 123.487755,51.2410968 C123.028327,51.9061739 122.36325,52.4224838 121.492524,52.7900264 C120.621798,53.157569 119.591366,53.3413403 118.401228,53.3413403 C117.508624,53.3413403 116.572266,53.2188261 115.592152,52.9737977 C114.612038,52.7287693 113.828823,52.4749899 113.242505,52.2124594 L113.242505,48.7733107 L115.093344,48.7733107 Z" id="Path"></path>
        </g>
        <path d="M32,0 C49.673,0 64,14.327 64,32 C64,49.673 49.673,64 32,64 C14.327,64 0,49.673 0,32 C0,14.327 14.327,0 32,0 Z M51.9662,37.05 C52.2472,36.674 51.8032,36.168 51.3932,36.397 C49.7652,37.312 47.2462,37.916 44.0532,37.721 C40.5212,37.362 37.7422,37.956 35.7432,38.727 C33.3072,39.667 30.6332,39.667 28.1962,38.727 C26.1972,37.956 23.4182,37.362 19.8862,37.721 C16.6932,37.916 14.1752,37.312 12.5462,36.397 C12.1372,36.168 11.6922,36.674 11.9742,37.05 C14.5862,40.538 18.6732,39.919 21.5282,40.293 C21.5983935,40.3022043 21.6692568,40.3104975 21.740713,40.3180316 L21.740713,40.3180316 L21.9567841,40.3385086 C22.0293498,40.3446765 22.1024318,40.3502372 22.1759535,40.3553429 L22.1759535,40.3553429 L22.3977611,40.3694463 L22.6217471,40.3817307 L22.8474516,40.3931081 C22.8851867,40.3949794 22.9229742,40.3968509 22.9608045,40.3987416 L22.9608045,40.3987416 L23.3021762,40.4167893 L23.3021762,40.4167893 L23.5302766,40.4309168 C26.3817317,40.6227399 29.2047806,41.456871 27.9572,50.948 C27.8172,52.344 27.3702,55.526 26.7272,57.318 C28.4322,57.651 30.1922,57.831 31.9952,57.831 C33.7812,57.831 35.5242,57.654 37.2152,57.327 C36.5712,55.536 36.1222,52.347 35.9822,50.948 C34.7346194,41.456871 37.5576683,40.6227399 40.4091234,40.4309168 L40.6372238,40.4167893 L40.6372238,40.4167893 L40.7511757,40.4104682 L41.0353077,40.3959176 L41.0919484,40.3931081 L41.3176529,40.3817307 L41.5416389,40.3694463 L41.7634465,40.3553429 C41.8369682,40.3502372 41.9100502,40.3446765 41.9826159,40.3385086 L41.9826159,40.3385086 L42.198687,40.3180316 C42.2701432,40.3104975 42.3410065,40.3022043 42.4112,40.293 C45.2652,39.919 49.3532,40.538 51.9662,37.05 Z M32.7553,29.0024 C29.9283,28.4654 27.4993,30.8964 28.0343,33.7224 C28.3333,35.3004 29.6063,36.5744 31.1843,36.8734 C34.0103,37.4084 36.4403,34.9774 35.9053,32.1524 C35.6063,30.5744 34.3333,29.3004 32.7553,29.0024 Z M52.8887,30.4478 C50.7127,28.8898 47.9157,28.2178 45.0977,28.8438 C42.2797,29.4688 40.0297,31.2598 38.7167,33.5928 C40.8927,35.1518 43.6897,35.8228 46.5077,35.1978 C49.3257,34.5718 51.5767,32.7808 52.8887,30.4478 Z M18.8418,28.8438 C16.0238,28.2178 13.2268,28.8898 11.0508,30.4478 C12.3628,32.7808 14.6138,34.5718 17.4318,35.1978 C20.2498,35.8228 23.0468,35.1518 25.2228,33.5928 C23.9098,31.2598 21.6588,29.4688 18.8418,28.8438 Z M24.168,20.3252 C21.803,18.1072 18.714,17.1542 15.72,17.4152 C15.652,20.4212 16.802,23.4412 19.167,25.6592 C21.533,27.8772 24.621,28.8302 27.616,28.5692 C27.684,25.5632 26.534,22.5432 24.168,20.3252 Z M48.2195,17.4152 C45.2245,17.1542 42.1365,18.1072 39.7715,20.3252 C37.4055,22.5432 36.2555,25.5632 36.3235,28.5692 C39.3185,28.8302 42.4065,27.8772 44.7725,25.6592 C47.1375,23.4412 48.2875,20.4212 48.2195,17.4152 Z M13.8692,23.211 C12.2792,22.576 10.5782,22.701 9.1562,23.406 C9.7012,24.897 10.8482,26.159 12.4362,26.795 C14.0262,27.43 15.7272,27.305 17.1492,26.6 C16.6042,25.109 15.4582,23.847 13.8692,23.211 Z M54.7834,23.406 C53.3614,22.701 51.6604,22.576 50.0704,23.211 C48.4814,23.847 47.3354,25.109 46.7904,26.6 C48.2124,27.305 49.9134,27.43 51.5034,26.795 C53.0914,26.159 54.2384,24.897 54.7834,23.406 Z M32.041,8.961 C29.695,11.063 28.211,14.107 28.211,17.503 C28.211,20.9 29.695,23.943 32.041,26.046 C34.386,23.943 35.87,20.9 35.87,17.503 C35.87,14.107 34.386,11.063 32.041,8.961 Z M22.1653,10.289 C21.5243,11.741 21.4743,13.446 22.1793,15.006 C22.8833,16.565 24.1973,17.654 25.7103,18.133 C26.3503,16.682 26.4013,14.977 25.6963,13.416 C24.9913,11.856 23.6783,10.768 22.1653,10.289 Z M41.7742,10.289 C40.2612,10.768 38.9482,11.856 38.2432,13.416 C37.5382,14.977 37.5892,16.682 38.2292,18.133 C39.7422,17.654 41.0552,16.565 41.7602,15.006 C42.4652,13.446 42.4152,11.741 41.7742,10.289 Z" id="icon" fill="#FFFFFF" fill-rule="nonzero"></path>
    </g>
</svg>