<?xml version="1.0" encoding="UTF-8"?>
<svg width="64px" height="64px" viewBox="0 0 64 64" version="1.1" xmlns="http://www.w3.org/2000/svg" xmlns:xlink="http://www.w3.org/1999/xlink">
    <title>logo/eas/black/icon/eas-logo-black-icon</title>
    <g id="logo/eas/black/icon/eas-logo-black-icon" stroke="none" stroke-width="1" fill="none" fill-rule="evenodd">
        <path d="M32,0 C49.673,0 64,14.327 64,32 C64,49.673 49.673,64 32,64 C14.327,64 0,49.673 0,32 C0,14.327 14.327,0 32,0 Z M49.1509,16.5796 L14.9019,16.5796 C13.9579,16.5796 13.2229,17.3136 13.2229,18.2586 L13.2229,18.2586 L13.2229,41.6615 C13.2229,42.5535 13.9579,43.2875 14.9019,43.2875 L14.9019,43.2875 L26.7559,43.2875 L25.8639,48.6375 L23.1359,48.6375 C22.2449,48.6375 22.2449,50.3685 23.1359,50.3685 L23.1359,50.3685 L40.8639,50.3685 C41.7559,50.3685 41.8079,48.6375 40.8639,48.6375 L40.8639,48.6375 L38.1359,48.6375 L37.2449,43.2875 L49.1509,43.2875 C50.0429,43.2875 50.7769,42.5535 50.7769,41.6615 L50.7769,41.6615 L50.7769,18.2586 C50.7769,17.3136 50.0429,16.5796 49.1509,16.5796 L49.1509,16.5796 Z M32,29.5998 L39.2396559,36.8549486 L39.0340613,37.0737761 C37.2895613,38.8708585 34.7714632,39.9998 31.9821218,39.9998 C29.0852233,39.9998 26.4918306,38.7821158 24.7525764,36.8629354 L24.7525764,36.8629354 L32,29.5998 Z M41.5,19.9998 L41.5,31.1108317 L41.492064,31.4763579 C41.4656967,32.082519 41.3740556,32.6730392 41.223587,33.2420056 L41.223587,33.2420056 L32,23.9998 L22.7747763,33.2440068 L22.6920821,32.8997789 C22.5913253,32.4374783 22.5288468,31.962111 22.5078857,31.4767133 L22.5078857,31.4767133 L22.5,31.1108317 L22.5,19.9998 L41.5,19.9998 Z" id="icon" fill="#000000"></path>
    </g>
</svg>