<?xml version="1.0" encoding="UTF-8"?>
<svg width="202px" height="64px" viewBox="0 0 202 64" version="1.1" xmlns="http://www.w3.org/2000/svg" xmlns:xlink="http://www.w3.org/1999/xlink">
    <title>logo/teic/white/stacked/teic-logo-white-stacked</title>
    <g id="logo/teic/white/stacked/teic-logo-white-stacked" stroke="none" stroke-width="1" fill="none" fill-rule="evenodd">
        <g id="TEI-Coaching" transform="translate(72.420049, 6.021434)" fill="#FFFFFF" fill-rule="nonzero">
            <polygon id="Path" points="7.25896662 18.2327389 7.25896662 1.56205611 2.88783482 1.69332133 1.90334568 7.18020749 0 7.18020749 0.459428267 0 17.077605 0 17.4976537 7.18020749 15.6205611 7.18020749 14.6229454 1.69332133 10.4224584 1.56205611 10.4224584 18.2327389 14.1372641 18.5477755 14.1372641 19.9785664 3.8329444 19.9785664 3.8329444 18.5477755"></polygon>
            <polygon id="Path" points="21.5668755 18.2327389 21.5668755 1.78520698 19.4009994 1.45704393 19.4009994 0 33.0788352 0 33.4463778 4.16110745 31.7530565 4.16110745 30.9392122 1.66706828 24.6516082 1.4964235 24.6516082 8.91290838 28.9177278 8.83414925 29.3115234 6.65514661 31.0048448 6.65514661 31.0048448 12.877118 29.3115234 12.877118 28.9308543 10.5668501 24.6516082 10.5012175 24.6516082 18.3508776 31.8711952 18.0620942 33.3544922 14.7673372 35.034687 15.266145 34.2602222 19.9785664 19.3616198 19.9785664 19.3616198 18.5477755"></polygon>
            <polygon id="Path" points="39.5502105 18.2327389 39.5502105 1.7983335 37.148057 1.45704393 37.148057 0 45.0502232 0 45.0502232 1.45704393 42.6480697 1.78520698 42.6480697 18.2327389 45.0896028 18.587155 45.0896028 19.9785664 37.148057 19.9785664 37.148057 18.5477755"></polygon>
            <path d="M0.446301745,40.9761567 C0.446301745,38.9109172 0.872913707,37.1082082 1.72613763,35.5680296 C2.57936156,34.0278511 3.74543425,32.8464641 5.22435572,32.0238687 C6.70327719,31.2012733 8.35721895,30.7899756 10.186181,30.7899756 C11.0262784,30.7899756 11.837935,30.8512328 12.6211508,30.973747 C13.4043666,31.0962612 14.2904069,31.2581549 15.2792715,31.4594283 L15.9881037,31.60382 L15.7386998,36.5131392 L13.782848,36.5131392 L13.0477628,33.1658761 C12.8639915,32.9208477 12.4920734,32.7261376 11.9320084,32.5817459 C11.3719435,32.4373541 10.6368583,32.3651583 9.72675274,32.3651583 C8.60662287,32.3651583 7.61557046,32.6845703 6.75359553,33.3233944 C5.89162059,33.9622184 5.21779246,34.9051403 4.73211115,36.1521599 C4.24642984,37.3991794 4.00358918,38.9021662 4.00358918,40.6611201 C4.00358918,42.2888088 4.2201768,43.7874201 4.65335202,45.1569539 C5.08652724,46.5264877 5.75597986,47.6291155 6.66170987,48.4648374 C7.56743988,49.3005593 8.69850852,49.7184203 10.0549158,49.7184203 C11.4638291,49.7184203 12.4745713,49.3946327 13.0871423,48.7470576 L14.2291498,45.9773615 L16.0931159,46.2267654 L15.5155489,50.2434811 C15.2792715,50.2609832 15.0517451,50.298175 14.8329698,50.3550566 C14.6141944,50.4119382 14.3297864,50.5016361 13.9797458,50.6241503 C13.3846768,50.8341746 12.8158609,50.9960684 12.273298,51.1098316 C11.7307351,51.2235948 11.0612825,51.2804764 10.2649401,51.2804764 C8.18219866,51.2804764 6.40574269,50.8713664 4.93557224,50.0531466 C3.46540179,49.2349267 2.34964742,48.0557275 1.58830915,46.5155489 C0.826970881,44.9753703 0.446301745,43.1289062 0.446301745,40.9761567 Z" id="Path"></path>
            <path d="M25.2554282,35.6467888 C26.7781047,35.6467888 28.0470018,35.9837028 29.0621195,36.6575309 C30.0772372,37.3313591 30.8298245,38.2567789 31.3198813,39.4337903 C31.8099381,40.6108018 32.0549665,41.9562703 32.0549665,43.4701958 C32.0549665,45.0891335 31.7202402,46.4892959 31.0507876,47.6706828 C30.381335,48.8520698 29.501858,49.7490488 28.4123567,50.3616198 C27.3228554,50.9741908 26.1611582,51.2804764 24.9272651,51.2804764 C23.4045886,51.2804764 22.1378792,50.9435623 21.127137,50.2697342 C20.1163948,49.595906 19.3659953,48.6704863 18.8759385,47.4934748 C18.3858817,46.3164633 18.1408533,44.9709948 18.1408533,43.4570693 C18.1408533,41.8556336 18.4755796,40.4642223 19.1450322,39.2828353 C19.8144848,38.1014484 20.6939618,37.2000939 21.7834631,36.5787718 C22.8729644,35.9574498 24.0302861,35.6467888 25.2554282,35.6467888 Z M28.7339565,43.7064732 C28.7339565,41.7374949 28.4429852,40.1732511 27.8610428,39.0137416 C27.2791003,37.8542322 26.358056,37.2744775 25.0979099,37.2744775 C23.8902699,37.2744775 22.9801644,37.7710976 22.3675933,38.7643377 C21.7550223,39.7575779 21.4487368,41.2430626 21.4487368,43.2207919 C21.4487368,45.1897702 21.7440836,46.7540141 22.334777,47.9135235 C22.9254705,49.0730329 23.8465148,49.6527876 25.0979099,49.6527876 C27.5219409,49.6527876 28.7339565,47.6706828 28.7339565,43.7064732 Z" id="Shape"></path>
            <path d="M43.0024858,41.2255606 C43.0024858,40.4029652 42.9171634,39.7553901 42.7465186,39.2828353 C42.5758738,38.8102805 42.2805271,38.4646155 41.8604784,38.2458401 C41.4404297,38.0270647 40.8453607,37.917677 40.0752714,37.917677 C38.5963499,37.917677 37.0386693,38.3333502 35.4022296,39.1646966 L35.3891031,39.1646966 L34.732777,37.7995384 C34.9690544,37.589514 35.4219194,37.3182325 36.091372,36.985694 C36.7608246,36.6531554 37.5221629,36.3621842 38.3753868,36.1127803 C39.2286107,35.8633764 40.0402673,35.7386744 40.8103566,35.7386744 C42.0880048,35.7386744 43.0921837,35.911507 43.8228934,36.257172 C44.5536031,36.6028371 45.0808518,37.1563388 45.4046393,37.917677 C45.7284268,38.6790153 45.8903206,39.7072595 45.8903206,41.0024097 L45.8903206,49.5346489 L47.4917563,49.5346489 L47.4917563,50.8210481 C46.2141082,51.1273336 45.2514966,51.2804764 44.6039215,51.2804764 C44.2363789,51.2804764 43.9563464,51.2498478 43.7638241,51.1885907 C43.5713017,51.1273336 43.4290978,51.0026316 43.3372121,50.8144848 C43.2453265,50.626338 43.1993836,50.3353668 43.1993836,49.9415711 L43.1993836,49.3114981 C42.7268288,49.7753018 42.1055068,50.2194158 41.3354175,50.64384 C40.5653282,51.0682643 39.7033533,51.2804764 38.7494927,51.2804764 C37.9093953,51.2804764 37.1458693,51.1273336 36.4589146,50.8210481 C35.77196,50.5147626 35.2250216,50.0422078 34.8180994,49.4033837 C34.4111772,48.7645597 34.2077161,47.9682173 34.2077161,47.0143567 C34.2077161,45.8504718 34.6124505,44.8922357 35.4219194,44.1396484 C36.2313882,43.3870612 37.2946365,42.8335595 38.6116642,42.4791434 C39.9286919,42.1247273 41.3922991,41.9343928 43.0024858,41.9081397 L43.0024858,41.2255606 Z M43.0024858,43.3914367 C41.7160866,43.3914367 40.6594016,43.5380162 39.8324308,43.8311752 C39.0054599,44.1243342 38.4060154,44.5115666 38.0340973,44.9928724 C37.6621791,45.4741782 37.4762201,46.0211166 37.4762201,46.6336876 C37.4762201,47.5525441 37.7037464,48.2263723 38.1587992,48.655172 C38.613852,49.0839717 39.226423,49.2983716 39.9965123,49.2983716 C40.40781,49.2983716 40.90443,49.1824206 41.4863725,48.9505187 C42.068315,48.7186168 42.5736861,48.4363966 43.0024858,48.1038581 L43.0024858,43.3914367 Z" id="Shape"></path>
            <path d="M56.7328277,35.6467888 C57.9929738,35.6467888 59.3406301,35.9180702 60.7757965,36.4606331 L60.6445313,40.5036019 L58.8199447,40.5036019 L58.2161247,38.0489423 C58.0936105,37.7601588 57.8507698,37.5457589 57.4876027,37.4057427 C57.1244356,37.2657265 56.6890726,37.1957183 56.1815138,37.1957183 C55.4114245,37.1957183 54.7419719,37.4079304 54.1731559,37.8323547 C53.60434,38.2567789 53.1624138,38.8912274 52.8473772,39.7357003 C52.5323407,40.5801732 52.3748224,41.6237317 52.3748224,42.8663758 C52.3748224,44.3102932 52.5629693,45.5091822 52.9392629,46.4630428 C53.3155565,47.4169034 53.8274909,48.1213601 54.4750659,48.5764128 C55.122641,49.0314656 55.8533508,49.258992 56.6671951,49.258992 C57.4285334,49.258992 58.1308023,49.1474165 58.7740019,48.9242657 C59.4172015,48.7011148 59.9663276,48.4276456 60.4213804,48.1038581 L60.9858208,49.3114981 C60.6707843,49.6352856 60.2507356,49.9481344 59.7256747,50.2500444 C59.2006138,50.5519544 58.6121081,50.7991706 57.9601575,50.9916929 C57.3082069,51.1842152 56.6540686,51.2804764 55.9977425,51.2804764 C54.518821,51.2804764 53.2674259,50.9523133 52.2435572,50.2959872 C51.2196885,49.6396611 50.451787,48.7404944 49.9398526,47.598487 C49.4279183,46.4564796 49.1719511,45.1591416 49.1719511,43.7064732 C49.1719511,42.2100497 49.4607346,40.8514547 50.0383015,39.6306882 C50.6158685,38.4099216 51.4734679,37.4407468 52.6110998,36.7231636 C53.7487317,36.0055804 55.122641,35.6467888 56.7328277,35.6467888 Z" id="Path"></path>
            <path d="M64.6481204,49.3377511 L64.6481204,31.0131265 L62.4822443,30.7505961 L62.4822443,29.5035765 L66.9321352,28.9391361 L66.9977679,28.9391361 L67.6278409,29.3854378 L67.6409674,35.476144 L67.5228287,37.8257914 C68.1178977,37.3007305 68.896738,36.817237 69.8593496,36.3753107 C70.8219612,35.9333845 71.8108259,35.7124214 72.8259436,35.7124214 C73.9460735,35.7124214 74.8189872,35.9268212 75.4446847,36.3556209 C76.0703823,36.7844207 76.507933,37.4429345 76.7573369,38.3311625 C77.0067408,39.2193905 77.1314428,40.4117162 77.1314428,41.9081397 L77.1314428,49.3246246 L79.0216619,49.5477755 L79.0216619,50.9785664 L72.4190214,50.9785664 L72.4190214,49.560902 L74.1385958,49.3377511 L74.1385958,41.8950132 C74.1385958,40.8798955 74.0707754,40.0813654 73.9351347,39.4994229 C73.799494,38.9174805 73.5391513,38.4799297 73.1541066,38.1867707 C72.769062,37.8936118 72.2046216,37.7470323 71.4607853,37.7470323 C70.8307123,37.7470323 70.1700107,37.8761097 69.4786805,38.1342647 C68.7873503,38.3924196 68.1791548,38.7183949 67.654094,39.1121905 L67.654094,49.3246246 L69.5180601,49.5477755 L69.5180601,50.9785664 L63.0729378,50.9785664 L63.0729378,49.5477755 L64.6481204,49.3377511 Z" id="Path"></path>
            <path d="M82.8546063,49.3246246 L82.8546063,38.3245992 L80.9512607,37.7864118 L80.9512607,36.2374822 L85.1254946,35.6992948 L85.1911272,35.6992948 L85.8605798,36.2112292 L85.8605798,49.3246246 L87.9608234,49.5477755 L87.9608234,50.9785664 L80.7281098,50.9785664 L80.7281098,49.5477755 L82.8546063,49.3246246 Z M82.3164189,31.4331752 C82.3164189,30.8381062 82.4892515,30.3349229 82.8349165,29.9236252 C83.1805816,29.5123275 83.6640752,29.3066787 84.2853972,29.3066787 L84.2985237,29.3066787 C84.6660664,29.3066787 84.9854784,29.3920011 85.2567598,29.5626459 C85.5280413,29.7332906 85.7358779,29.9586293 85.8802696,30.2386617 C86.0246614,30.5186942 86.0968572,30.8162287 86.0968572,31.1312652 C86.0968572,31.7438362 85.921837,32.2470196 85.5717964,32.6408152 C85.2217558,33.0346109 84.7141969,33.2315087 84.0491198,33.2315087 L84.0359933,33.2315087 C83.5284345,33.2315087 83.114949,33.0608639 82.795537,32.7195744 C82.4761249,32.3782848 82.3164189,31.9494851 82.3164189,31.4331752 Z" id="Shape"></path>
            <path d="M91.7543882,49.3246246 L91.7543882,38.3245992 L89.8772956,37.7995384 L89.8772956,36.2243557 L93.762746,35.6992948 L93.8283787,35.6992948 L94.4453252,36.2112292 L94.4453252,37.2744775 L94.4321987,37.8782975 C94.8347453,37.5195059 95.3401164,37.1738408 95.9483119,36.8413023 C96.5565075,36.5087637 97.208458,36.2374822 97.9041637,36.0274579 C98.5998694,35.8174335 99.2583832,35.7124214 99.8797053,35.7124214 C101.017337,35.7124214 101.896814,35.9246335 102.518136,36.3490577 C103.139458,36.7734819 103.572633,37.4276202 103.817662,38.3114727 C104.06269,39.1953252 104.185204,40.3942142 104.185204,41.9081397 L104.185204,49.3246246 L106.075424,49.5477755 L106.075424,50.9785664 L99.4859096,50.9785664 L99.4859096,49.5477755 L101.166104,49.3246246 L101.166104,41.8950132 C101.166104,40.8798955 101.098284,40.0813654 100.962643,39.4994229 C100.827003,38.9174805 100.571035,38.4799297 100.194742,38.1867707 C99.8184482,37.8936118 99.2627587,37.7470323 98.5276735,37.7470323 C97.8976004,37.7470323 97.2412744,37.882673 96.5586952,38.1539544 C95.8761161,38.4252359 95.2766716,38.7533989 94.7603617,39.1384436 L94.7603617,49.3246246 L96.5718217,49.5477755 L96.5718217,50.9785664 L90.0348138,50.9785664 L90.0348138,49.5477755 L91.7543882,49.3246246 Z" id="Path"></path>
            <path d="M114.371385,45.662325 C113.653802,45.662325 112.98435,45.5879414 112.363028,45.4391741 C112.117999,45.6579495 111.925477,45.9095411 111.785461,46.1939491 C111.645444,46.4783571 111.575436,46.7693283 111.575436,47.0668628 C111.575436,47.5044136 111.678261,47.8391399 111.88391,48.0710418 C112.089558,48.3029436 112.400219,48.4626497 112.815893,48.5501598 C113.231566,48.6376699 113.80257,48.681425 114.528904,48.681425 L117.390485,48.681425 C120.812132,48.681425 122.522956,49.9940772 122.522956,52.6193816 C122.522956,53.6344993 122.161976,54.5708579 121.440018,55.4284573 C120.718059,56.2860567 119.753259,56.9664481 118.545619,57.4696314 C117.337979,57.9728148 116.042829,58.2244065 114.660169,58.2244065 L114.647042,58.2244065 C112.30177,58.2244065 110.599698,57.8678026 109.540825,57.1545949 C108.481953,56.4413872 107.952516,55.4328328 107.952516,54.1289316 C107.952516,53.3150873 108.190981,52.5778143 108.667912,51.9171127 C109.144842,51.2564111 109.720221,50.7554155 110.394049,50.4141259 C109.545201,49.9328201 109.120777,49.1977349 109.120777,48.2088702 C109.120777,47.5525441 109.308923,46.9465364 109.685217,46.3908469 C110.061511,45.8351575 110.555943,45.386668 111.168514,45.0453784 C110.293413,44.6428318 109.621772,44.0718281 109.153593,43.3323673 C108.685414,42.5929066 108.451324,41.7287439 108.451324,40.7398793 C108.451324,39.7072595 108.744483,38.805905 109.330801,38.0358157 C109.917119,37.2657265 110.687208,36.6772207 111.641069,36.2702985 C112.594929,35.8633764 113.614423,35.6555398 114.699548,35.6467888 L114.712675,35.6467888 C115.657785,35.6467888 116.506633,35.7539887 117.25922,35.9683885 C118.011808,36.1827884 118.646256,36.5000127 119.162566,36.9200614 C119.425096,36.6137759 119.818892,36.3206169 120.343953,36.0405844 C120.869014,35.7605519 121.48596,35.6205357 122.194793,35.6205357 L122.903625,35.6205357 L122.903625,38.167081 L120.147055,38.167081 C120.453341,38.805905 120.606483,39.5103617 120.606483,40.280451 C120.606483,41.3305727 120.335202,42.2647436 119.792639,43.0829634 C119.250076,43.9011833 118.50624,44.5356318 117.56113,44.9863091 C116.616021,45.4369864 115.557148,45.662325 114.384512,45.662325 L114.371385,45.662325 Z M114.528904,37.1825918 C113.583794,37.1825918 112.850897,37.438559 112.330211,37.9504934 C111.809526,38.4624277 111.549183,39.3003374 111.549183,40.4642223 C111.549183,41.5668501 111.796399,42.4485149 112.290832,43.1092165 C112.785264,43.7699181 113.575043,44.1002689 114.660169,44.1002689 L114.673295,44.1002689 C115.670911,44.1002689 116.395058,43.8027344 116.845735,43.2076654 C117.296412,42.6125964 117.521751,41.7418704 117.521751,40.5954875 C117.521751,39.4228516 117.27891,38.5608766 116.793229,38.0095627 C116.307547,37.4582488 115.557148,37.1825918 114.54203,37.1825918 L114.528904,37.1825918 Z M111.732955,50.8735542 C111.17289,51.5648843 110.892857,52.3918552 110.892857,53.3544668 C110.892857,54.4045886 111.203518,55.2009309 111.82484,55.7434938 C112.446162,56.2860567 113.465655,56.5573382 114.88332,56.5573382 L114.909573,56.5573382 C115.697164,56.5573382 116.449751,56.434824 117.167335,56.1897956 C117.884918,55.9447671 118.46686,55.5816 118.913162,55.1002942 C119.359464,54.6189884 119.582615,54.045797 119.582615,53.3807199 C119.582615,52.8119039 119.497292,52.3634144 119.326647,52.0352514 C119.156003,51.7070883 118.843154,51.4598722 118.388101,51.2936029 C117.933048,51.1273336 117.272347,51.044199 116.405996,51.044199 L113.767565,51.044199 C113.049982,51.044199 112.371779,50.9873174 111.732955,50.8735542 Z" id="Shape"></path>
        </g>
        <path d="M32,0 C49.673,0 64,14.327 64,32 C64,49.673 49.673,64 32,64 C14.327,64 0,49.673 0,32 C0,14.327 14.327,0 32,0 Z M48,15.9998 L16,15.9998 L16,35.9996571 L16.0039082,36.3572004 C16.1391574,42.5382353 19.7725709,47.8550794 24.9994483,50.3994242 L24.9994483,50.3994242 L24.9998,27.9994 L27.9998,27.9994 L27.999086,51.5013411 C28.8098651,51.7091785 29.645491,51.8548516 30.5006061,51.9329926 L30.5006061,51.9329926 L30.5,27.9998 L33.5,27.9998 L33.5006727,51.9273098 C34.3545898,51.8460517 35.1894556,51.6975352 35.9998126,51.4871108 L35.9998126,51.4871108 L35.9998,27.9994 L38.9998,27.9994 L38.9991611,50.3764932 L39.2695573,50.2410268 C44.4430835,47.5877326 48,42.2065531 48,35.9996571 L48,35.9996571 L48,15.9998 Z M40.145448,23.9994 C42.8224652,23.9994 44.9998,26.2418242 44.9998,28.9988684 C44.9998,31.7569758 42.8224652,33.9994 40.145448,33.9994 L40.145448,33.9994 L40.145448,31.0605377 L40.294471,31.054871 C41.3278507,30.976006 42.1462422,30.0838328 42.1462422,28.9988684 C42.1462422,27.8633022 41.2480529,26.937199 40.145448,26.937199 L40.145448,26.937199 L23.8551844,26.937199 L23.7058924,26.942872 C22.6707169,27.021823 21.8523254,27.9149188 21.8523254,28.9988684 C21.8523254,30.1354978 22.7505147,31.0605377 23.8551844,31.0605377 L23.8551844,31.0605377 L23.8551844,33.9994 L23.6448302,33.9947727 C21.0640461,33.8810206 18.9998,31.684394 18.9998,28.9988684 C18.9998,26.2418242 21.1771348,23.9994 23.8551844,23.9994 L23.8551844,23.9994 Z" id="icon" fill="#FFFFFF" fill-rule="nonzero"></path>
    </g>
</svg>