<?xml version="1.0" encoding="UTF-8"?>
<svg width="489px" height="64px" viewBox="0 0 489 64" version="1.1" xmlns="http://www.w3.org/2000/svg" xmlns:xlink="http://www.w3.org/1999/xlink">
    <title>logo/eih/color-dark/long/eih-logo-color-dark-long</title>
    <g id="logo/eih/color-dark/long/eih-logo-color-dark-long" stroke="none" stroke-width="1" fill="none" fill-rule="evenodd">
        <g id="Group">
            <path d="M64,32 C64,49.672429 49.672429,64 32,64 C14.3262845,64 0,49.672429 0,32 C0,14.3262845 14.3262845,0 32,0 C49.672429,0 64,14.3262845 64,32 Z" id="circle" fill="#083C6F"></path>
            <path d="M48,16 L48,35.9998571 C48,44.8367938 40.790117,52 31.9698894,52 C23.1496618,52 16,44.8367938 16,35.9998571 L16,35.9998571 L16,16 L48,16 Z M25.686,21 C21.987,23.168 19.5,27.186 19.5,31.778 C19.5,36.792 22.449,41.118 26.713,43.101 L27.751,39.094 C25.234,37.912 23.487,35.241 23.487,32.148 C23.487,30.515 23.97,29.004 24.802,27.771 L30.289,35.95 L33.608,35.95 L39.094,27.771 C39.926,29.004 40.409,30.525 40.409,32.148 C40.409,35.036 38.889,37.543 36.649,38.837 L37.707,42.885 C41.735,40.81 44.478,36.618 44.478,31.778 C44.478,27.206 42.022,23.22 38.365,21.041 L31.994,30.874 L25.686,21 Z" id="icon" fill="#F5EA14"></path>
        </g>
        <g id="Enterprise-Integrati" transform="translate(76.406250, 18.405273)" fill="#000000">
            <polygon id="Path" points="2.4609375 22.6464844 2.4609375 4.29199219 0.0439453125 3.92578125 0.0439453125 2.29980469 15.3076172 2.29980469 15.7177734 6.94335938 13.828125 6.94335938 12.9199219 4.16015625 5.90332031 3.96972656 5.90332031 12.2460938 10.6640625 12.1582031 11.1035156 9.7265625 12.9931641 9.7265625 12.9931641 16.6699219 11.1035156 16.6699219 10.6787109 14.0917969 5.90332031 14.0185547 5.90332031 22.7783203 13.9599609 22.4560547 15.6152344 18.7792969 17.4902344 19.3359375 16.6259766 24.5947266 0 24.5947266 0 22.9980469"></polygon>
            <path d="M21.6210938,22.7490234 L21.6210938,10.4736328 L19.5263672,9.88769531 L19.5263672,8.12988281 L23.8623047,7.54394531 L23.9355469,7.54394531 L24.6240234,8.11523438 L24.6240234,9.30175781 L24.609375,9.97558594 C25.0585938,9.57519531 25.6225586,9.18945312 26.3012695,8.81835938 C26.9799805,8.44726562 27.7075195,8.14453125 28.4838867,7.91015625 C29.2602539,7.67578125 29.9951172,7.55859375 30.6884766,7.55859375 C31.9580078,7.55859375 32.9394531,7.79541016 33.6328125,8.26904297 C34.3261719,8.74267578 34.8095703,9.47265625 35.0830078,10.4589844 C35.3564453,11.4453125 35.4931641,12.7832031 35.4931641,14.4726562 L35.4931641,22.7490234 L37.6025391,22.9980469 L37.6025391,24.5947266 L30.2490234,24.5947266 L30.2490234,22.9980469 L32.1240234,22.7490234 L32.1240234,14.4580078 C32.1240234,13.3251953 32.0483398,12.434082 31.8969727,11.784668 C31.7456055,11.1352539 31.4599609,10.6469727 31.0400391,10.3198242 C30.6201172,9.99267578 30,9.82910156 29.1796875,9.82910156 C28.4765625,9.82910156 27.7441406,9.98046875 26.9824219,10.2832031 C26.2207031,10.5859375 25.5517578,10.9521484 24.9755859,11.3818359 L24.9755859,22.7490234 L26.9970703,22.9980469 L26.9970703,24.5947266 L19.7021484,24.5947266 L19.7021484,22.9980469 L21.6210938,22.7490234 Z" id="Path"></path>
            <path d="M39.3310547,10.0341797 L39.3310547,8.64257812 C39.6044922,8.57421875 39.9194336,8.4765625 40.2758789,8.34960938 C40.6323242,8.22265625 40.8642578,8.125 40.9716797,8.05664062 C41.2939453,7.82226562 41.5576172,7.44140625 41.7626953,6.9140625 C41.9091797,6.58203125 42.1020508,6.05224609 42.3413086,5.32470703 C42.5805664,4.59716797 42.7441406,4.04785156 42.8320312,3.67675781 L44.7363281,3.67675781 L44.765625,7.93945312 L49.6875,7.93945312 L49.6875,10.0341797 L44.7802734,10.0341797 L44.7802734,18.8964844 C44.7802734,20.0878906 44.8144531,20.9155273 44.8828125,21.3793945 C44.9511719,21.8432617 45.090332,22.1411133 45.300293,22.2729492 C45.5102539,22.4047852 45.8935547,22.4707031 46.4501953,22.4707031 L46.4648438,22.4707031 C46.9726562,22.4707031 47.5463867,22.4072266 48.1860352,22.2802734 C48.8256836,22.1533203 49.3212891,22.0214844 49.6728516,21.8847656 L49.6875,21.8847656 L50.1855469,23.3056641 C49.8925781,23.5498047 49.453125,23.7963867 48.8671875,24.0454102 C48.28125,24.2944336 47.6513672,24.5019531 46.9775391,24.6679688 C46.3037109,24.8339844 45.6835938,24.9169922 45.1171875,24.9169922 L45.0878906,24.9169922 C43.8769531,24.9169922 42.9638672,24.6508789 42.3486328,24.1186523 C41.7333984,23.5864258 41.4257812,22.6953125 41.4257812,21.4453125 L41.4257812,10.0341797 L39.3310547,10.0341797 Z" id="Path"></path>
            <path d="M51.8115234,16.2304688 C51.8115234,14.5117188 52.1484375,12.9882812 52.8222656,11.6601562 C53.4960938,10.3320312 54.4287109,9.30419922 55.6201172,8.57666016 C56.8115234,7.84912109 58.1640625,7.48535156 59.6777344,7.48535156 C61.5527344,7.48535156 63.0029297,7.99804688 64.0283203,9.0234375 C65.0537109,10.0488281 65.6005859,11.5283203 65.6689453,13.4619141 L65.6689453,13.9892578 C65.6689453,15.0146484 65.6103516,15.7958984 65.4931641,16.3330078 L55.3417969,16.3330078 C55.3808594,17.7685547 55.625,18.9599609 56.0742188,19.9072266 C56.5234375,20.8544922 57.1142578,21.5527344 57.8466797,22.0019531 C58.5791016,22.4511719 59.4042969,22.6757812 60.3222656,22.6757812 C61.1230469,22.6757812 61.9458008,22.5366211 62.7905273,22.2583008 C63.6352539,21.9799805 64.296875,21.6601562 64.7753906,21.2988281 L65.390625,22.7050781 C65.0195312,23.0859375 64.5092773,23.4472656 63.8598633,23.7890625 C63.2104492,24.1308594 62.487793,24.4067383 61.6918945,24.6166992 C60.8959961,24.8266602 60.1074219,24.9316406 59.3261719,24.9316406 C57.6855469,24.9316406 56.3012695,24.5678711 55.1733398,23.840332 C54.0454102,23.112793 53.203125,22.097168 52.6464844,20.793457 C52.0898438,19.4897461 51.8115234,17.96875 51.8115234,16.2304688 Z M62.1533203,14.6337891 C62.1923828,14.2822266 62.2119141,13.8623047 62.2119141,13.3740234 C62.2021484,12.1337891 61.9433594,11.1376953 61.4355469,10.3857422 C60.9277344,9.63378906 60.1269531,9.2578125 59.0332031,9.2578125 C57.9394531,9.2578125 57.0727539,9.66552734 56.4331055,10.480957 C55.793457,11.2963867 55.4296875,12.6806641 55.3417969,14.6337891 L62.1533203,14.6337891 Z" id="Shape"></path>
            <path d="M70.5175781,22.7783203 L70.5175781,10.4736328 L68.4375,9.88769531 L68.4375,8.12988281 L72.6269531,7.54394531 L72.7001953,7.54394531 L73.4033203,8.11523438 L73.4033203,9.03808594 L73.3740234,10.9423828 L73.4033203,10.9423828 C73.5791016,10.6201172 73.918457,10.1879883 74.4213867,9.64599609 C74.9243164,9.10400391 75.5737305,8.60839844 76.3696289,8.15917969 C77.1655273,7.70996094 78.0322266,7.48535156 78.9697266,7.48535156 C79.3505859,7.48535156 79.6728516,7.5390625 79.9365234,7.64648438 L79.9365234,11.25 C79.7509766,11.1425781 79.5043945,11.0522461 79.1967773,10.9790039 C78.8891602,10.9057617 78.5595703,10.8691406 78.2080078,10.8691406 C77.2216797,10.8691406 76.3696289,10.9887695 75.6518555,11.2280273 C74.934082,11.4672852 74.3359375,11.7675781 73.8574219,12.1289062 L73.8574219,22.7636719 L77.7099609,23.0273438 L77.7099609,24.5947266 L68.2177734,24.5947266 L68.2177734,23.0126953 L70.5175781,22.7783203 Z" id="Path"></path>
            <path d="M89.8388672,24.9316406 C89.3994141,24.9316406 88.9160156,24.8950195 88.3886719,24.8217773 C87.8613281,24.7485352 87.4169922,24.6630859 87.0556641,24.5654297 L87.1435547,27.0556641 L87.1435547,29.9560547 L90.1464844,30.2783203 L90.1464844,31.8603516 L81.6357422,31.8603516 L81.6357422,30.2783203 L83.8183594,29.9414062 L83.8183594,10.4736328 L81.7236328,9.88769531 L81.7236328,8.12988281 L86.0449219,7.54394531 L86.1181641,7.54394531 L86.7773438,8.11523438 L86.7773438,9.78515625 C87.3632812,9.140625 88.0859375,8.59619141 88.9453125,8.15185547 C89.8046875,7.70751953 90.7763672,7.48535156 91.8603516,7.48535156 C93.0517578,7.48535156 94.140625,7.77587891 95.1269531,8.35693359 C96.1132812,8.93798828 96.9042969,9.84130859 97.5,11.0668945 C98.0957031,12.2924805 98.3935547,13.828125 98.3935547,15.6738281 C98.3935547,17.3828125 98.0444336,18.9404297 97.3461914,20.3466797 C96.6479492,21.7529297 95.6518555,22.8686523 94.3579102,23.6938477 C93.0639648,24.519043 91.5576172,24.9316406 89.8388672,24.9316406 Z M87.1435547,22.3388672 C87.2802734,22.5830078 87.6147461,22.7978516 88.1469727,22.9833984 C88.6791992,23.1689453 89.2773438,23.2617188 89.9414062,23.2617188 C90.8886719,23.2617188 91.7260742,23.0102539 92.4536133,22.5073242 C93.1811523,22.0043945 93.7548828,21.2084961 94.1748047,20.1196289 C94.5947266,19.0307617 94.8046875,17.6464844 94.8046875,15.9667969 C94.8046875,14.5507812 94.6166992,13.3789062 94.2407227,12.4511719 C93.8647461,11.5234375 93.3544922,10.8374023 92.7099609,10.3930664 C92.0654297,9.94873047 91.328125,9.7265625 90.4980469,9.7265625 C89.8046875,9.7265625 89.1601562,9.86816406 88.5644531,10.1513672 C87.96875,10.4345703 87.4951172,10.7666016 87.1435547,11.1474609 L87.1435547,22.3388672 Z" id="Shape"></path>
            <path d="M103.286133,22.7783203 L103.286133,10.4736328 L101.206055,9.88769531 L101.206055,8.12988281 L105.395508,7.54394531 L105.46875,7.54394531 L106.171875,8.11523438 L106.171875,9.03808594 L106.142578,10.9423828 L106.171875,10.9423828 C106.347656,10.6201172 106.687012,10.1879883 107.189941,9.64599609 C107.692871,9.10400391 108.342285,8.60839844 109.138184,8.15917969 C109.934082,7.70996094 110.800781,7.48535156 111.738281,7.48535156 C112.119141,7.48535156 112.441406,7.5390625 112.705078,7.64648438 L112.705078,11.25 C112.519531,11.1425781 112.272949,11.0522461 111.965332,10.9790039 C111.657715,10.9057617 111.328125,10.8691406 110.976562,10.8691406 C109.990234,10.8691406 109.138184,10.9887695 108.42041,11.2280273 C107.702637,11.4672852 107.104492,11.7675781 106.625977,12.1289062 L106.625977,22.7636719 L110.478516,23.0273438 L110.478516,24.5947266 L100.986328,24.5947266 L100.986328,23.0126953 L103.286133,22.7783203 Z" id="Path"></path>
            <path d="M116.953125,22.7490234 L116.953125,10.4736328 L114.829102,9.87304688 L114.829102,8.14453125 L119.487305,7.54394531 L119.560547,7.54394531 L120.307617,8.11523438 L120.307617,22.7490234 L122.651367,22.9980469 L122.651367,24.5947266 L114.580078,24.5947266 L114.580078,22.9980469 L116.953125,22.7490234 Z M116.352539,2.78320312 C116.352539,2.11914062 116.54541,1.55761719 116.931152,1.09863281 C117.316895,0.639648438 117.856445,0.41015625 118.549805,0.41015625 L118.564453,0.41015625 C118.974609,0.41015625 119.331055,0.505371094 119.633789,0.695800781 C119.936523,0.886230469 120.168457,1.13769531 120.32959,1.45019531 C120.490723,1.76269531 120.571289,2.09472656 120.571289,2.44628906 C120.571289,3.12988281 120.375977,3.69140625 119.985352,4.13085938 C119.594727,4.5703125 119.02832,4.79003906 118.286133,4.79003906 L118.271484,4.79003906 C117.705078,4.79003906 117.243652,4.59960938 116.887207,4.21875 C116.530762,3.83789062 116.352539,3.359375 116.352539,2.78320312 Z" id="Shape"></path>
            <path d="M127.280273,19.8339844 L127.866211,22.0605469 C127.983398,22.265625 128.210449,22.4609375 128.547363,22.6464844 C128.884277,22.8320312 129.282227,22.9833984 129.741211,23.1005859 C130.200195,23.2177734 130.668945,23.2763672 131.147461,23.2763672 C132.250977,23.2763672 133.037109,23.0688477 133.505859,22.6538086 C133.974609,22.2387695 134.208984,21.6699219 134.208984,20.9472656 C134.208984,20.4394531 134.050293,19.9926758 133.73291,19.6069336 C133.415527,19.2211914 132.944336,18.8574219 132.319336,18.515625 C131.694336,18.1738281 130.844727,17.7880859 129.770508,17.3583984 C128.217773,16.7529297 127.084961,16.0375977 126.37207,15.2124023 C125.65918,14.387207 125.302734,13.3203125 125.302734,12.0117188 C125.302734,11.1328125 125.568848,10.3588867 126.101074,9.68994141 C126.633301,9.02099609 127.363281,8.50097656 128.291016,8.12988281 C129.21875,7.75878906 130.263672,7.57324219 131.425781,7.57324219 C132.324219,7.57324219 133.115234,7.64404297 133.798828,7.78564453 C134.482422,7.92724609 135.170898,8.11035156 135.864258,8.33496094 L136.391602,8.49609375 L136.391602,12.2021484 L134.516602,12.2021484 L133.886719,10.1513672 C133.769531,9.89746094 133.45459,9.67773438 132.941895,9.4921875 C132.429199,9.30664062 131.855469,9.21386719 131.220703,9.21386719 C130.322266,9.21386719 129.628906,9.40429688 129.140625,9.78515625 C128.652344,10.1660156 128.408203,10.6640625 128.408203,11.2792969 C128.408203,11.8261719 128.552246,12.2851562 128.840332,12.65625 C129.128418,13.0273438 129.487305,13.3300781 129.916992,13.5644531 C130.34668,13.7988281 130.947266,14.0771484 131.71875,14.3994141 L132.290039,14.6484375 C133.40332,15.1269531 134.306641,15.5761719 135,15.9960938 C135.693359,16.4160156 136.269531,16.953125 136.728516,17.6074219 C137.1875,18.2617188 137.416992,19.0625 137.416992,20.0097656 C137.416992,20.9863281 137.160645,21.8457031 136.647949,22.5878906 C136.135254,23.3300781 135.393066,23.90625 134.421387,24.3164062 C133.449707,24.7265625 132.299805,24.9316406 130.97168,24.9316406 C129.975586,24.9316406 128.930664,24.7949219 127.836914,24.5214844 C126.743164,24.2480469 125.869141,23.9648438 125.214844,23.671875 L125.214844,19.8339844 L127.280273,19.8339844 Z" id="Path"></path>
            <path d="M139.995117,16.2304688 C139.995117,14.5117188 140.332031,12.9882812 141.005859,11.6601562 C141.679688,10.3320312 142.612305,9.30419922 143.803711,8.57666016 C144.995117,7.84912109 146.347656,7.48535156 147.861328,7.48535156 C149.736328,7.48535156 151.186523,7.99804688 152.211914,9.0234375 C153.237305,10.0488281 153.78418,11.5283203 153.852539,13.4619141 L153.852539,13.9892578 C153.852539,15.0146484 153.793945,15.7958984 153.676758,16.3330078 L143.525391,16.3330078 C143.564453,17.7685547 143.808594,18.9599609 144.257812,19.9072266 C144.707031,20.8544922 145.297852,21.5527344 146.030273,22.0019531 C146.762695,22.4511719 147.587891,22.6757812 148.505859,22.6757812 C149.306641,22.6757812 150.129395,22.5366211 150.974121,22.2583008 C151.818848,21.9799805 152.480469,21.6601562 152.958984,21.2988281 L153.574219,22.7050781 C153.203125,23.0859375 152.692871,23.4472656 152.043457,23.7890625 C151.394043,24.1308594 150.671387,24.4067383 149.875488,24.6166992 C149.07959,24.8266602 148.291016,24.9316406 147.509766,24.9316406 C145.869141,24.9316406 144.484863,24.5678711 143.356934,23.840332 C142.229004,23.112793 141.386719,22.097168 140.830078,20.793457 C140.273438,19.4897461 139.995117,17.96875 139.995117,16.2304688 Z M150.336914,14.6337891 C150.375977,14.2822266 150.395508,13.8623047 150.395508,13.3740234 C150.385742,12.1337891 150.126953,11.1376953 149.619141,10.3857422 C149.111328,9.63378906 148.310547,9.2578125 147.216797,9.2578125 C146.123047,9.2578125 145.256348,9.66552734 144.616699,10.480957 C143.977051,11.2963867 143.613281,12.6806641 143.525391,14.6337891 L150.336914,14.6337891 Z" id="Shape"></path>
            <polygon id="Path" points="168.383789 22.6464844 168.383789 4.30664062 165.703125 3.92578125 165.703125 2.29980469 174.521484 2.29980469 174.521484 3.92578125 171.84082 4.29199219 171.84082 22.6464844 174.56543 23.0419922 174.56543 24.5947266 165.703125 24.5947266 165.703125 22.9980469"></polygon>
            <path d="M179.589844,22.7490234 L179.589844,10.4736328 L177.495117,9.88769531 L177.495117,8.12988281 L181.831055,7.54394531 L181.904297,7.54394531 L182.592773,8.11523438 L182.592773,9.30175781 L182.578125,9.97558594 C183.027344,9.57519531 183.591309,9.18945312 184.27002,8.81835938 C184.94873,8.44726562 185.67627,8.14453125 186.452637,7.91015625 C187.229004,7.67578125 187.963867,7.55859375 188.657227,7.55859375 C189.926758,7.55859375 190.908203,7.79541016 191.601562,8.26904297 C192.294922,8.74267578 192.77832,9.47265625 193.051758,10.4589844 C193.325195,11.4453125 193.461914,12.7832031 193.461914,14.4726562 L193.461914,22.7490234 L195.571289,22.9980469 L195.571289,24.5947266 L188.217773,24.5947266 L188.217773,22.9980469 L190.092773,22.7490234 L190.092773,14.4580078 C190.092773,13.3251953 190.01709,12.434082 189.865723,11.784668 C189.714355,11.1352539 189.428711,10.6469727 189.008789,10.3198242 C188.588867,9.99267578 187.96875,9.82910156 187.148438,9.82910156 C186.445312,9.82910156 185.712891,9.98046875 184.951172,10.2832031 C184.189453,10.5859375 183.520508,10.9521484 182.944336,11.3818359 L182.944336,22.7490234 L184.96582,22.9980469 L184.96582,24.5947266 L177.670898,24.5947266 L177.670898,22.9980469 L179.589844,22.7490234 Z" id="Path"></path>
            <path d="M197.299805,10.0341797 L197.299805,8.64257812 C197.573242,8.57421875 197.888184,8.4765625 198.244629,8.34960938 C198.601074,8.22265625 198.833008,8.125 198.94043,8.05664062 C199.262695,7.82226562 199.526367,7.44140625 199.731445,6.9140625 C199.87793,6.58203125 200.070801,6.05224609 200.310059,5.32470703 C200.549316,4.59716797 200.712891,4.04785156 200.800781,3.67675781 L202.705078,3.67675781 L202.734375,7.93945312 L207.65625,7.93945312 L207.65625,10.0341797 L202.749023,10.0341797 L202.749023,18.8964844 C202.749023,20.0878906 202.783203,20.9155273 202.851562,21.3793945 C202.919922,21.8432617 203.059082,22.1411133 203.269043,22.2729492 C203.479004,22.4047852 203.862305,22.4707031 204.418945,22.4707031 L204.433594,22.4707031 C204.941406,22.4707031 205.515137,22.4072266 206.154785,22.2802734 C206.794434,22.1533203 207.290039,22.0214844 207.641602,21.8847656 L207.65625,21.8847656 L208.154297,23.3056641 C207.861328,23.5498047 207.421875,23.7963867 206.835938,24.0454102 C206.25,24.2944336 205.620117,24.5019531 204.946289,24.6679688 C204.272461,24.8339844 203.652344,24.9169922 203.085938,24.9169922 L203.056641,24.9169922 C201.845703,24.9169922 200.932617,24.6508789 200.317383,24.1186523 C199.702148,23.5864258 199.394531,22.6953125 199.394531,21.4453125 L199.394531,10.0341797 L197.299805,10.0341797 Z" id="Path"></path>
            <path d="M209.780273,16.2304688 C209.780273,14.5117188 210.117188,12.9882812 210.791016,11.6601562 C211.464844,10.3320312 212.397461,9.30419922 213.588867,8.57666016 C214.780273,7.84912109 216.132812,7.48535156 217.646484,7.48535156 C219.521484,7.48535156 220.97168,7.99804688 221.99707,9.0234375 C223.022461,10.0488281 223.569336,11.5283203 223.637695,13.4619141 L223.637695,13.9892578 C223.637695,15.0146484 223.579102,15.7958984 223.461914,16.3330078 L213.310547,16.3330078 C213.349609,17.7685547 213.59375,18.9599609 214.042969,19.9072266 C214.492188,20.8544922 215.083008,21.5527344 215.81543,22.0019531 C216.547852,22.4511719 217.373047,22.6757812 218.291016,22.6757812 C219.091797,22.6757812 219.914551,22.5366211 220.759277,22.2583008 C221.604004,21.9799805 222.265625,21.6601562 222.744141,21.2988281 L223.359375,22.7050781 C222.988281,23.0859375 222.478027,23.4472656 221.828613,23.7890625 C221.179199,24.1308594 220.456543,24.4067383 219.660645,24.6166992 C218.864746,24.8266602 218.076172,24.9316406 217.294922,24.9316406 C215.654297,24.9316406 214.27002,24.5678711 213.14209,23.840332 C212.01416,23.112793 211.171875,22.097168 210.615234,20.793457 C210.058594,19.4897461 209.780273,17.96875 209.780273,16.2304688 Z M220.12207,14.6337891 C220.161133,14.2822266 220.180664,13.8623047 220.180664,13.3740234 C220.170898,12.1337891 219.912109,11.1376953 219.404297,10.3857422 C218.896484,9.63378906 218.095703,9.2578125 217.001953,9.2578125 C215.908203,9.2578125 215.041504,9.66552734 214.401855,10.480957 C213.762207,11.2963867 213.398438,12.6806641 213.310547,14.6337891 L220.12207,14.6337891 Z" id="Shape"></path>
            <path d="M233.334961,18.6621094 C232.53418,18.6621094 231.787109,18.5791016 231.09375,18.4130859 C230.820312,18.6572266 230.605469,18.9379883 230.449219,19.2553711 C230.292969,19.5727539 230.214844,19.8974609 230.214844,20.2294922 C230.214844,20.7177734 230.32959,21.0913086 230.559082,21.3500977 C230.788574,21.6088867 231.135254,21.7871094 231.599121,21.8847656 C232.062988,21.9824219 232.700195,22.03125 233.510742,22.03125 L236.704102,22.03125 C240.522461,22.03125 242.431641,23.4960938 242.431641,26.4257812 C242.431641,27.5585938 242.028809,28.6035156 241.223145,29.5605469 C240.41748,30.5175781 239.34082,31.2768555 237.993164,31.8383789 C236.645508,32.3999023 235.200195,32.6806641 233.657227,32.6806641 L233.642578,32.6806641 C231.025391,32.6806641 229.125977,32.2827148 227.944336,31.4868164 C226.762695,30.690918 226.171875,29.5654297 226.171875,28.1103516 C226.171875,27.2021484 226.437988,26.3793945 226.970215,25.6420898 C227.502441,24.9047852 228.144531,24.3457031 228.896484,23.9648438 C227.949219,23.4277344 227.475586,22.6074219 227.475586,21.5039062 C227.475586,20.7714844 227.685547,20.0952148 228.105469,19.4750977 C228.525391,18.8549805 229.077148,18.3544922 229.760742,17.9736328 C228.78418,17.5244141 228.034668,16.887207 227.512207,16.0620117 C226.989746,15.2368164 226.728516,14.2724609 226.728516,13.1689453 C226.728516,12.0166016 227.055664,11.0107422 227.709961,10.1513672 C228.364258,9.29199219 229.223633,8.63525391 230.288086,8.18115234 C231.352539,7.72705078 232.490234,7.49511719 233.701172,7.48535156 L233.71582,7.48535156 C234.770508,7.48535156 235.717773,7.60498047 236.557617,7.84423828 C237.397461,8.08349609 238.105469,8.4375 238.681641,8.90625 C238.974609,8.56445312 239.414062,8.23730469 240,7.92480469 C240.585938,7.61230469 241.274414,7.45605469 242.06543,7.45605469 L242.856445,7.45605469 L242.856445,10.2978516 L239.780273,10.2978516 C240.12207,11.0107422 240.292969,11.796875 240.292969,12.65625 C240.292969,13.828125 239.990234,14.8706055 239.384766,15.7836914 C238.779297,16.6967773 237.949219,17.4047852 236.894531,17.9077148 C235.839844,18.4106445 234.658203,18.6621094 233.349609,18.6621094 L233.334961,18.6621094 Z M233.510742,9.19921875 C232.456055,9.19921875 231.638184,9.48486328 231.057129,10.0561523 C230.476074,10.6274414 230.185547,11.5625 230.185547,12.8613281 C230.185547,14.0917969 230.461426,15.0756836 231.013184,15.8129883 C231.564941,16.550293 232.446289,16.9189453 233.657227,16.9189453 L233.671875,16.9189453 C234.785156,16.9189453 235.593262,16.5869141 236.096191,15.9228516 C236.599121,15.2587891 236.850586,14.2871094 236.850586,13.0078125 C236.850586,11.6992188 236.57959,10.7373047 236.037598,10.1220703 C235.495605,9.50683594 234.658203,9.19921875 233.525391,9.19921875 L233.510742,9.19921875 Z M230.390625,24.4775391 C229.765625,25.2490234 229.453125,26.171875 229.453125,27.2460938 C229.453125,28.4179688 229.799805,29.3066406 230.493164,29.9121094 C231.186523,30.5175781 232.324219,30.8203125 233.90625,30.8203125 L233.935547,30.8203125 C234.814453,30.8203125 235.654297,30.6835938 236.455078,30.4101562 C237.255859,30.1367188 237.905273,29.7314453 238.40332,29.1943359 C238.901367,28.6572266 239.150391,28.0175781 239.150391,27.2753906 C239.150391,26.640625 239.055176,26.1401367 238.864746,25.7739258 C238.674316,25.4077148 238.325195,25.1318359 237.817383,24.9462891 C237.30957,24.7607422 236.572266,24.6679688 235.605469,24.6679688 L232.661133,24.6679688 C231.860352,24.6679688 231.103516,24.6044922 230.390625,24.4775391 Z" id="Shape"></path>
            <path d="M246.84082,22.7783203 L246.84082,10.4736328 L244.760742,9.88769531 L244.760742,8.12988281 L248.950195,7.54394531 L249.023438,7.54394531 L249.726562,8.11523438 L249.726562,9.03808594 L249.697266,10.9423828 L249.726562,10.9423828 C249.902344,10.6201172 250.241699,10.1879883 250.744629,9.64599609 C251.247559,9.10400391 251.896973,8.60839844 252.692871,8.15917969 C253.48877,7.70996094 254.355469,7.48535156 255.292969,7.48535156 C255.673828,7.48535156 255.996094,7.5390625 256.259766,7.64648438 L256.259766,11.25 C256.074219,11.1425781 255.827637,11.0522461 255.52002,10.9790039 C255.212402,10.9057617 254.882812,10.8691406 254.53125,10.8691406 C253.544922,10.8691406 252.692871,10.9887695 251.975098,11.2280273 C251.257324,11.4672852 250.65918,11.7675781 250.180664,12.1289062 L250.180664,22.7636719 L254.033203,23.0273438 L254.033203,24.5947266 L244.541016,24.5947266 L244.541016,23.0126953 L246.84082,22.7783203 Z" id="Path"></path>
            <path d="M268.051758,13.7109375 C268.051758,12.7929688 267.956543,12.0703125 267.766113,11.5429688 C267.575684,11.015625 267.246094,10.6298828 266.777344,10.3857422 C266.308594,10.1416016 265.644531,10.0195312 264.785156,10.0195312 C263.134766,10.0195312 261.396484,10.4833984 259.570312,11.4111328 L259.555664,11.4111328 L258.823242,9.88769531 C259.086914,9.65332031 259.592285,9.35058594 260.339355,8.97949219 C261.086426,8.60839844 261.936035,8.28369141 262.888184,8.00537109 C263.840332,7.72705078 264.746094,7.58789062 265.605469,7.58789062 C267.03125,7.58789062 268.151855,7.78076172 268.967285,8.16650391 C269.782715,8.55224609 270.371094,9.16992188 270.732422,10.0195312 C271.09375,10.8691406 271.274414,12.0166016 271.274414,13.4619141 L271.274414,22.9833984 L273.061523,22.9833984 L273.061523,24.4189453 C271.635742,24.7607422 270.561523,24.9316406 269.838867,24.9316406 C269.428711,24.9316406 269.116211,24.8974609 268.901367,24.8291016 C268.686523,24.7607422 268.527832,24.621582 268.425293,24.4116211 C268.322754,24.2016602 268.271484,23.8769531 268.271484,23.4375 L268.271484,22.734375 C267.744141,23.2519531 267.050781,23.7475586 266.191406,24.2211914 C265.332031,24.6948242 264.370117,24.9316406 263.305664,24.9316406 C262.368164,24.9316406 261.516113,24.7607422 260.749512,24.4189453 C259.98291,24.0771484 259.372559,23.5498047 258.918457,22.8369141 C258.464355,22.1240234 258.237305,21.2353516 258.237305,20.1708984 C258.237305,18.8720703 258.688965,17.8027344 259.592285,16.9628906 C260.495605,16.1230469 261.682129,15.5053711 263.151855,15.1098633 C264.621582,14.7143555 266.254883,14.5019531 268.051758,14.4726562 L268.051758,13.7109375 Z M268.051758,16.1279297 C266.616211,16.1279297 265.437012,16.2915039 264.51416,16.6186523 C263.591309,16.9458008 262.922363,17.3779297 262.507324,17.9150391 C262.092285,18.4521484 261.884766,19.0625 261.884766,19.7460938 C261.884766,20.7714844 262.138672,21.5234375 262.646484,22.0019531 C263.154297,22.4804688 263.837891,22.7197266 264.697266,22.7197266 C265.15625,22.7197266 265.710449,22.590332 266.359863,22.331543 C267.009277,22.0727539 267.573242,21.7578125 268.051758,21.3867188 L268.051758,16.1279297 Z" id="Shape"></path>
            <path d="M274.790039,10.0341797 L274.790039,8.64257812 C275.063477,8.57421875 275.378418,8.4765625 275.734863,8.34960938 C276.091309,8.22265625 276.323242,8.125 276.430664,8.05664062 C276.75293,7.82226562 277.016602,7.44140625 277.22168,6.9140625 C277.368164,6.58203125 277.561035,6.05224609 277.800293,5.32470703 C278.039551,4.59716797 278.203125,4.04785156 278.291016,3.67675781 L280.195312,3.67675781 L280.224609,7.93945312 L285.146484,7.93945312 L285.146484,10.0341797 L280.239258,10.0341797 L280.239258,18.8964844 C280.239258,20.0878906 280.273438,20.9155273 280.341797,21.3793945 C280.410156,21.8432617 280.549316,22.1411133 280.759277,22.2729492 C280.969238,22.4047852 281.352539,22.4707031 281.90918,22.4707031 L281.923828,22.4707031 C282.431641,22.4707031 283.005371,22.4072266 283.64502,22.2802734 C284.284668,22.1533203 284.780273,22.0214844 285.131836,21.8847656 L285.146484,21.8847656 L285.644531,23.3056641 C285.351562,23.5498047 284.912109,23.7963867 284.326172,24.0454102 C283.740234,24.2944336 283.110352,24.5019531 282.436523,24.6679688 C281.762695,24.8339844 281.142578,24.9169922 280.576172,24.9169922 L280.546875,24.9169922 C279.335938,24.9169922 278.422852,24.6508789 277.807617,24.1186523 C277.192383,23.5864258 276.884766,22.6953125 276.884766,21.4453125 L276.884766,10.0341797 L274.790039,10.0341797 Z" id="Path"></path>
            <path d="M289.541016,22.7490234 L289.541016,10.4736328 L287.416992,9.87304688 L287.416992,8.14453125 L292.075195,7.54394531 L292.148438,7.54394531 L292.895508,8.11523438 L292.895508,22.7490234 L295.239258,22.9980469 L295.239258,24.5947266 L287.167969,24.5947266 L287.167969,22.9980469 L289.541016,22.7490234 Z M288.94043,2.78320312 C288.94043,2.11914062 289.133301,1.55761719 289.519043,1.09863281 C289.904785,0.639648438 290.444336,0.41015625 291.137695,0.41015625 L291.152344,0.41015625 C291.5625,0.41015625 291.918945,0.505371094 292.22168,0.695800781 C292.524414,0.886230469 292.756348,1.13769531 292.91748,1.45019531 C293.078613,1.76269531 293.15918,2.09472656 293.15918,2.44628906 C293.15918,3.12988281 292.963867,3.69140625 292.573242,4.13085938 C292.182617,4.5703125 291.616211,4.79003906 290.874023,4.79003906 L290.859375,4.79003906 C290.292969,4.79003906 289.831543,4.59960938 289.475098,4.21875 C289.118652,3.83789062 288.94043,3.359375 288.94043,2.78320312 Z" id="Shape"></path>
            <path d="M305.15625,7.48535156 C306.855469,7.48535156 308.271484,7.86132812 309.404297,8.61328125 C310.537109,9.36523438 311.376953,10.3979492 311.923828,11.7114258 C312.470703,13.0249023 312.744141,14.5263672 312.744141,16.2158203 C312.744141,18.0224609 312.370605,19.5849609 311.623535,20.9033203 C310.876465,22.2216797 309.89502,23.2226562 308.679199,23.90625 C307.463379,24.5898438 306.166992,24.9316406 304.790039,24.9316406 C303.09082,24.9316406 301.677246,24.5556641 300.549316,23.8037109 C299.421387,23.0517578 298.583984,22.019043 298.037109,20.7055664 C297.490234,19.3920898 297.216797,17.890625 297.216797,16.2011719 C297.216797,14.4140625 297.590332,12.8613281 298.337402,11.5429688 C299.084473,10.2246094 300.065918,9.21875 301.281738,8.52539062 C302.497559,7.83203125 303.789062,7.48535156 305.15625,7.48535156 Z M309.038086,16.4794922 C309.038086,14.2822266 308.713379,12.5366211 308.063965,11.2426758 C307.414551,9.94873047 306.386719,9.30175781 304.980469,9.30175781 C303.632812,9.30175781 302.617188,9.85595703 301.933594,10.9643555 C301.25,12.0727539 300.908203,13.7304688 300.908203,15.9375 C300.908203,18.1347656 301.237793,19.8803711 301.896973,21.1743164 C302.556152,22.4682617 303.583984,23.1152344 304.980469,23.1152344 C307.685547,23.1152344 309.038086,20.9033203 309.038086,16.4794922 Z" id="Shape"></path>
            <path d="M317.314453,22.7490234 L317.314453,10.4736328 L315.219727,9.88769531 L315.219727,8.12988281 L319.555664,7.54394531 L319.628906,7.54394531 L320.317383,8.11523438 L320.317383,9.30175781 L320.302734,9.97558594 C320.751953,9.57519531 321.315918,9.18945312 321.994629,8.81835938 C322.67334,8.44726562 323.400879,8.14453125 324.177246,7.91015625 C324.953613,7.67578125 325.688477,7.55859375 326.381836,7.55859375 C327.651367,7.55859375 328.632812,7.79541016 329.326172,8.26904297 C330.019531,8.74267578 330.50293,9.47265625 330.776367,10.4589844 C331.049805,11.4453125 331.186523,12.7832031 331.186523,14.4726562 L331.186523,22.7490234 L333.295898,22.9980469 L333.295898,24.5947266 L325.942383,24.5947266 L325.942383,22.9980469 L327.817383,22.7490234 L327.817383,14.4580078 C327.817383,13.3251953 327.741699,12.434082 327.590332,11.784668 C327.438965,11.1352539 327.15332,10.6469727 326.733398,10.3198242 C326.313477,9.99267578 325.693359,9.82910156 324.873047,9.82910156 C324.169922,9.82910156 323.4375,9.98046875 322.675781,10.2832031 C321.914062,10.5859375 321.245117,10.9521484 320.668945,11.3818359 L320.668945,22.7490234 L322.69043,22.9980469 L322.69043,24.5947266 L315.395508,24.5947266 L315.395508,22.9980469 L317.314453,22.7490234 Z" id="Path"></path>
            <polygon id="Path" points="346.948242 22.6464844 346.948242 4.30664062 344.619141 3.92578125 344.619141 2.29980469 352.910156 2.29980469 352.910156 3.92578125 350.390625 4.29199219 350.390625 12.2021484 360.644531 12.2021484 360.644531 4.29199219 358.242188 3.92578125 358.242188 2.29980469 366.430664 2.29980469 366.430664 3.92578125 364.086914 4.29199219 364.086914 22.6611328 366.430664 22.9980469 366.430664 24.5947266 358.256836 24.5947266 358.256836 22.9980469 360.644531 22.6611328 360.644531 14.1357422 350.390625 14.1357422 350.390625 22.6464844 352.910156 22.9980469 352.910156 24.5947266 344.53125 24.5947266 344.53125 22.9980469"></polygon>
            <path d="M381.269531,22.6025391 C380.644531,23.2080078 379.853516,23.7475586 378.896484,24.2211914 C377.939453,24.6948242 376.972656,24.9316406 375.996094,24.9316406 C374.775391,24.9316406 373.78418,24.7143555 373.022461,24.2797852 C372.260742,23.8452148 371.699219,23.1542969 371.337891,22.2070312 C370.976562,21.2597656 370.795898,20.0097656 370.795898,18.4570312 L370.795898,9.9609375 L369.169922,9.41894531 L369.169922,7.99804688 L373.505859,7.55859375 L373.520508,7.55859375 L374.135742,7.95410156 L374.135742,18.2958984 C374.135742,19.4091797 374.21875,20.2783203 374.384766,20.9033203 C374.550781,21.5283203 374.84375,21.9848633 375.263672,22.2729492 C375.683594,22.5610352 376.289062,22.7050781 377.080078,22.7050781 C377.841797,22.7050781 378.549805,22.5585938 379.204102,22.265625 C379.858398,21.9726562 380.424805,21.6357422 380.90332,21.2548828 L380.90332,9.97558594 L378.808594,9.40429688 L378.808594,7.98339844 L383.4375,7.55859375 L383.466797,7.55859375 L384.243164,7.95410156 L384.243164,22.9394531 L386.000977,22.9394531 L386.000977,24.4042969 C385.43457,24.5703125 384.943848,24.699707 384.528809,24.7924805 C384.11377,24.8852539 383.637695,24.9316406 383.100586,24.9316406 C382.475586,24.9316406 382.01416,24.8120117 381.716309,24.5727539 C381.418457,24.3334961 381.269531,23.9306641 381.269531,23.3642578 L381.269531,22.6025391 Z" id="Path"></path>
            <path d="M387.041016,2.00683594 L387.041016,0.629882812 L391.977539,0 L392.050781,0 L392.783203,0.498046875 L392.783203,9.44824219 C393.359375,8.88183594 394.047852,8.41308594 394.848633,8.04199219 C395.649414,7.67089844 396.538086,7.48535156 397.514648,7.48535156 C398.706055,7.48535156 399.794922,7.7734375 400.78125,8.34960938 C401.767578,8.92578125 402.558594,9.82666016 403.154297,11.0522461 C403.75,12.277832 404.047852,13.8183594 404.047852,15.6738281 C404.047852,17.3925781 403.696289,18.9575195 402.993164,20.3686523 C402.290039,21.7797852 401.281738,22.8930664 399.968262,23.7084961 C398.654785,24.5239258 397.124023,24.9316406 395.375977,24.9316406 C394.428711,24.9316406 393.527832,24.8657227 392.67334,24.7338867 C391.818848,24.6020508 391.103516,24.4433594 390.527344,24.2578125 C389.951172,24.0722656 389.594727,23.9111328 389.458008,23.7744141 L389.458008,2.29980469 L387.041016,2.00683594 Z M392.783203,22.2949219 C392.910156,22.5878906 393.237305,22.8198242 393.764648,22.9907227 C394.291992,23.1616211 394.902344,23.2470703 395.595703,23.2470703 C396.552734,23.2470703 397.39502,22.9785156 398.122559,22.4414062 C398.850098,21.9042969 399.418945,21.0961914 399.829102,20.0170898 C400.239258,18.9379883 400.444336,17.6074219 400.444336,16.0253906 C400.444336,14.6191406 400.26123,13.4472656 399.89502,12.5097656 C399.528809,11.5722656 399.023438,10.8789062 398.378906,10.4296875 C397.734375,9.98046875 396.99707,9.75585938 396.166992,9.75585938 C395.463867,9.75585938 394.814453,9.91455078 394.21875,10.2319336 C393.623047,10.5493164 393.144531,10.9082031 392.783203,11.3085938 L392.783203,22.2949219 Z" id="Shape"></path>
        </g>
    </g>
</svg>