<?xml version="1.0" encoding="UTF-8"?>
<svg width="522px" height="64px" viewBox="0 0 522 64" version="1.1" xmlns="http://www.w3.org/2000/svg" xmlns:xlink="http://www.w3.org/1999/xlink">
    <title>logo/edm/color-dark/long/edm-logo-color-dark-long</title>
    <g id="logo/edm/color-dark/long/edm-logo-color-dark-long" stroke="none" stroke-width="1" fill="none" fill-rule="evenodd">
        <g id="Group">
            <path d="M64,32.0002 C64,49.6732 49.673,64.0002 32,64.0002 C14.327,64.0002 0,49.6732 0,32.0002 C0,14.3272 14.327,0.0002 32,0.0002 C49.673,0.0002 64,14.3272 64,32.0002" id="circle" fill="#083C6F"></path>
            <path d="M15.5816,40.8266 C18.9546,43.5226 25.4926,44.7736 32.0006,44.7736 C38.34395,44.7736 44.7167694,43.5843681 48.1586693,41.0288742 L48.4176,40.8296 L48.4186,46.0516 C47.5096,48.9256 40.4506,51.1606 32.0006,51.1606 C23.6914333,51.1606 16.7263194,48.9994792 15.6321538,46.1947601 L15.5816,46.0516 L15.5816,40.8266 Z M15.5816,31.8852 C18.9546,34.5812 25.4926,35.8322 32.0006,35.8322 C38.5066,35.8322 45.0436,34.5812 48.4176,31.8872 L48.4175982,31.8910464 L48.4174071,36.4275144 L48.4176,36.4642 L48.4176,36.4792 C48.4036,39.6442 41.0456,42.2192 32.0006,42.2192 C23.0817343,42.2192 15.8027974,39.7166106 15.5875025,36.6126946 L15.5826,36.4712 L15.5816,31.8852 Z M15.5816,22.9428 C18.9546,25.6398 25.4926,26.8898 32.0006,26.8898 C38.5066,26.8898 45.0436,25.6398 48.4176,22.9458 L48.4175982,22.9496464 L48.4174071,27.4861144 L48.4176,27.5228 L48.4176,27.5368 C48.4036,30.7028 41.0456,33.2778 32.0006,33.2778 C23.0817343,33.2778 15.8027974,30.7752106 15.5875025,27.6703387 L15.5826,27.5288 L15.5816,22.9428 Z M32.0006,12.8393 C41.0676,12.8393 48.4186,15.4123 48.4186,18.5873 C48.4186,21.7623 41.0676,24.3353 32.0006,24.3353 C22.9336,24.3353 15.5826,21.7623 15.5826,18.5873 C15.5826,15.4123 22.9336,12.8393 32.0006,12.8393 Z" id="icon" fill="#F5EA14"></path>
        </g>
        <g id="Enterprise-Data-Mana" transform="translate(76.406250, 18.815430)" fill="#000000">
            <polygon id="Path" points="2.4609375 22.2363281 2.4609375 3.88183594 0.0439453125 3.515625 0.0439453125 1.88964844 15.3076172 1.88964844 15.7177734 6.53320312 13.828125 6.53320312 12.9199219 3.75 5.90332031 3.55957031 5.90332031 11.8359375 10.6640625 11.7480469 11.1035156 9.31640625 12.9931641 9.31640625 12.9931641 16.2597656 11.1035156 16.2597656 10.6787109 13.6816406 5.90332031 13.6083984 5.90332031 22.3681641 13.9599609 22.0458984 15.6152344 18.3691406 17.4902344 18.9257812 16.6259766 24.1845703 0 24.1845703 0 22.5878906"></polygon>
            <path d="M21.6210938,22.3388672 L21.6210938,10.0634766 L19.5263672,9.47753906 L19.5263672,7.71972656 L23.8623047,7.13378906 L23.9355469,7.13378906 L24.6240234,7.70507812 L24.6240234,8.89160156 L24.609375,9.56542969 C25.0585938,9.16503906 25.6225586,8.77929688 26.3012695,8.40820312 C26.9799805,8.03710938 27.7075195,7.734375 28.4838867,7.5 C29.2602539,7.265625 29.9951172,7.1484375 30.6884766,7.1484375 C31.9580078,7.1484375 32.9394531,7.38525391 33.6328125,7.85888672 C34.3261719,8.33251953 34.8095703,9.0625 35.0830078,10.0488281 C35.3564453,11.0351562 35.4931641,12.3730469 35.4931641,14.0625 L35.4931641,22.3388672 L37.6025391,22.5878906 L37.6025391,24.1845703 L30.2490234,24.1845703 L30.2490234,22.5878906 L32.1240234,22.3388672 L32.1240234,14.0478516 C32.1240234,12.9150391 32.0483398,12.0239258 31.8969727,11.3745117 C31.7456055,10.7250977 31.4599609,10.2368164 31.0400391,9.90966797 C30.6201172,9.58251953 30,9.41894531 29.1796875,9.41894531 C28.4765625,9.41894531 27.7441406,9.5703125 26.9824219,9.87304688 C26.2207031,10.1757812 25.5517578,10.5419922 24.9755859,10.9716797 L24.9755859,22.3388672 L26.9970703,22.5878906 L26.9970703,24.1845703 L19.7021484,24.1845703 L19.7021484,22.5878906 L21.6210938,22.3388672 Z" id="Path"></path>
            <path d="M39.3310547,9.62402344 L39.3310547,8.23242188 C39.6044922,8.1640625 39.9194336,8.06640625 40.2758789,7.93945312 C40.6323242,7.8125 40.8642578,7.71484375 40.9716797,7.64648438 C41.2939453,7.41210938 41.5576172,7.03125 41.7626953,6.50390625 C41.9091797,6.171875 42.1020508,5.64208984 42.3413086,4.91455078 C42.5805664,4.18701172 42.7441406,3.63769531 42.8320312,3.26660156 L44.7363281,3.26660156 L44.765625,7.52929688 L49.6875,7.52929688 L49.6875,9.62402344 L44.7802734,9.62402344 L44.7802734,18.4863281 C44.7802734,19.6777344 44.8144531,20.5053711 44.8828125,20.9692383 C44.9511719,21.4331055 45.090332,21.730957 45.300293,21.862793 C45.5102539,21.9946289 45.8935547,22.0605469 46.4501953,22.0605469 L46.4648438,22.0605469 C46.9726562,22.0605469 47.5463867,21.9970703 48.1860352,21.8701172 C48.8256836,21.7431641 49.3212891,21.6113281 49.6728516,21.4746094 L49.6875,21.4746094 L50.1855469,22.8955078 C49.8925781,23.1396484 49.453125,23.3862305 48.8671875,23.6352539 C48.28125,23.8842773 47.6513672,24.0917969 46.9775391,24.2578125 C46.3037109,24.4238281 45.6835938,24.5068359 45.1171875,24.5068359 L45.0878906,24.5068359 C43.8769531,24.5068359 42.9638672,24.2407227 42.3486328,23.7084961 C41.7333984,23.1762695 41.4257812,22.2851562 41.4257812,21.0351562 L41.4257812,9.62402344 L39.3310547,9.62402344 Z" id="Path"></path>
            <path d="M51.8115234,15.8203125 C51.8115234,14.1015625 52.1484375,12.578125 52.8222656,11.25 C53.4960938,9.921875 54.4287109,8.89404297 55.6201172,8.16650391 C56.8115234,7.43896484 58.1640625,7.07519531 59.6777344,7.07519531 C61.5527344,7.07519531 63.0029297,7.58789062 64.0283203,8.61328125 C65.0537109,9.63867188 65.6005859,11.1181641 65.6689453,13.0517578 L65.6689453,13.5791016 C65.6689453,14.6044922 65.6103516,15.3857422 65.4931641,15.9228516 L55.3417969,15.9228516 C55.3808594,17.3583984 55.625,18.5498047 56.0742188,19.4970703 C56.5234375,20.4443359 57.1142578,21.1425781 57.8466797,21.5917969 C58.5791016,22.0410156 59.4042969,22.265625 60.3222656,22.265625 C61.1230469,22.265625 61.9458008,22.1264648 62.7905273,21.8481445 C63.6352539,21.5698242 64.296875,21.25 64.7753906,20.8886719 L65.390625,22.2949219 C65.0195312,22.6757812 64.5092773,23.0371094 63.8598633,23.3789062 C63.2104492,23.7207031 62.487793,23.996582 61.6918945,24.206543 C60.8959961,24.4165039 60.1074219,24.5214844 59.3261719,24.5214844 C57.6855469,24.5214844 56.3012695,24.1577148 55.1733398,23.4301758 C54.0454102,22.7026367 53.203125,21.6870117 52.6464844,20.3833008 C52.0898438,19.0795898 51.8115234,17.5585938 51.8115234,15.8203125 Z M62.1533203,14.2236328 C62.1923828,13.8720703 62.2119141,13.4521484 62.2119141,12.9638672 C62.2021484,11.7236328 61.9433594,10.7275391 61.4355469,9.97558594 C60.9277344,9.22363281 60.1269531,8.84765625 59.0332031,8.84765625 C57.9394531,8.84765625 57.0727539,9.25537109 56.4331055,10.0708008 C55.793457,10.8862305 55.4296875,12.2705078 55.3417969,14.2236328 L62.1533203,14.2236328 Z" id="Shape"></path>
            <path d="M70.5175781,22.3681641 L70.5175781,10.0634766 L68.4375,9.47753906 L68.4375,7.71972656 L72.6269531,7.13378906 L72.7001953,7.13378906 L73.4033203,7.70507812 L73.4033203,8.62792969 L73.3740234,10.5322266 L73.4033203,10.5322266 C73.5791016,10.2099609 73.918457,9.77783203 74.4213867,9.23583984 C74.9243164,8.69384766 75.5737305,8.19824219 76.3696289,7.74902344 C77.1655273,7.29980469 78.0322266,7.07519531 78.9697266,7.07519531 C79.3505859,7.07519531 79.6728516,7.12890625 79.9365234,7.23632812 L79.9365234,10.8398438 C79.7509766,10.7324219 79.5043945,10.6420898 79.1967773,10.5688477 C78.8891602,10.4956055 78.5595703,10.4589844 78.2080078,10.4589844 C77.2216797,10.4589844 76.3696289,10.5786133 75.6518555,10.8178711 C74.934082,11.0571289 74.3359375,11.3574219 73.8574219,11.71875 L73.8574219,22.3535156 L77.7099609,22.6171875 L77.7099609,24.1845703 L68.2177734,24.1845703 L68.2177734,22.6025391 L70.5175781,22.3681641 Z" id="Path"></path>
            <path d="M89.8388672,24.5214844 C89.3994141,24.5214844 88.9160156,24.4848633 88.3886719,24.4116211 C87.8613281,24.3383789 87.4169922,24.2529297 87.0556641,24.1552734 L87.1435547,26.6455078 L87.1435547,29.5458984 L90.1464844,29.8681641 L90.1464844,31.4501953 L81.6357422,31.4501953 L81.6357422,29.8681641 L83.8183594,29.53125 L83.8183594,10.0634766 L81.7236328,9.47753906 L81.7236328,7.71972656 L86.0449219,7.13378906 L86.1181641,7.13378906 L86.7773438,7.70507812 L86.7773438,9.375 C87.3632812,8.73046875 88.0859375,8.18603516 88.9453125,7.74169922 C89.8046875,7.29736328 90.7763672,7.07519531 91.8603516,7.07519531 C93.0517578,7.07519531 94.140625,7.36572266 95.1269531,7.94677734 C96.1132812,8.52783203 96.9042969,9.43115234 97.5,10.6567383 C98.0957031,11.8823242 98.3935547,13.4179688 98.3935547,15.2636719 C98.3935547,16.9726562 98.0444336,18.5302734 97.3461914,19.9365234 C96.6479492,21.3427734 95.6518555,22.4584961 94.3579102,23.2836914 C93.0639648,24.1088867 91.5576172,24.5214844 89.8388672,24.5214844 Z M87.1435547,21.9287109 C87.2802734,22.1728516 87.6147461,22.3876953 88.1469727,22.5732422 C88.6791992,22.7587891 89.2773438,22.8515625 89.9414062,22.8515625 C90.8886719,22.8515625 91.7260742,22.6000977 92.4536133,22.097168 C93.1811523,21.5942383 93.7548828,20.7983398 94.1748047,19.7094727 C94.5947266,18.6206055 94.8046875,17.2363281 94.8046875,15.5566406 C94.8046875,14.140625 94.6166992,12.96875 94.2407227,12.0410156 C93.8647461,11.1132812 93.3544922,10.4272461 92.7099609,9.98291016 C92.0654297,9.53857422 91.328125,9.31640625 90.4980469,9.31640625 C89.8046875,9.31640625 89.1601562,9.45800781 88.5644531,9.74121094 C87.96875,10.0244141 87.4951172,10.3564453 87.1435547,10.7373047 L87.1435547,21.9287109 Z" id="Shape"></path>
            <path d="M103.286133,22.3681641 L103.286133,10.0634766 L101.206055,9.47753906 L101.206055,7.71972656 L105.395508,7.13378906 L105.46875,7.13378906 L106.171875,7.70507812 L106.171875,8.62792969 L106.142578,10.5322266 L106.171875,10.5322266 C106.347656,10.2099609 106.687012,9.77783203 107.189941,9.23583984 C107.692871,8.69384766 108.342285,8.19824219 109.138184,7.74902344 C109.934082,7.29980469 110.800781,7.07519531 111.738281,7.07519531 C112.119141,7.07519531 112.441406,7.12890625 112.705078,7.23632812 L112.705078,10.8398438 C112.519531,10.7324219 112.272949,10.6420898 111.965332,10.5688477 C111.657715,10.4956055 111.328125,10.4589844 110.976562,10.4589844 C109.990234,10.4589844 109.138184,10.5786133 108.42041,10.8178711 C107.702637,11.0571289 107.104492,11.3574219 106.625977,11.71875 L106.625977,22.3535156 L110.478516,22.6171875 L110.478516,24.1845703 L100.986328,24.1845703 L100.986328,22.6025391 L103.286133,22.3681641 Z" id="Path"></path>
            <path d="M116.953125,22.3388672 L116.953125,10.0634766 L114.829102,9.46289062 L114.829102,7.734375 L119.487305,7.13378906 L119.560547,7.13378906 L120.307617,7.70507812 L120.307617,22.3388672 L122.651367,22.5878906 L122.651367,24.1845703 L114.580078,24.1845703 L114.580078,22.5878906 L116.953125,22.3388672 Z M116.352539,2.37304688 C116.352539,1.70898438 116.54541,1.14746094 116.931152,0.688476562 C117.316895,0.229492188 117.856445,0 118.549805,0 L118.564453,0 C118.974609,0 119.331055,0.0952148438 119.633789,0.285644531 C119.936523,0.476074219 120.168457,0.727539062 120.32959,1.04003906 C120.490723,1.35253906 120.571289,1.68457031 120.571289,2.03613281 C120.571289,2.71972656 120.375977,3.28125 119.985352,3.72070312 C119.594727,4.16015625 119.02832,4.37988281 118.286133,4.37988281 L118.271484,4.37988281 C117.705078,4.37988281 117.243652,4.18945312 116.887207,3.80859375 C116.530762,3.42773438 116.352539,2.94921875 116.352539,2.37304688 Z" id="Shape"></path>
            <path d="M127.280273,19.4238281 L127.866211,21.6503906 C127.983398,21.8554688 128.210449,22.0507812 128.547363,22.2363281 C128.884277,22.421875 129.282227,22.5732422 129.741211,22.6904297 C130.200195,22.8076172 130.668945,22.8662109 131.147461,22.8662109 C132.250977,22.8662109 133.037109,22.6586914 133.505859,22.2436523 C133.974609,21.8286133 134.208984,21.2597656 134.208984,20.5371094 C134.208984,20.0292969 134.050293,19.5825195 133.73291,19.1967773 C133.415527,18.8110352 132.944336,18.4472656 132.319336,18.1054688 C131.694336,17.7636719 130.844727,17.3779297 129.770508,16.9482422 C128.217773,16.3427734 127.084961,15.6274414 126.37207,14.8022461 C125.65918,13.9770508 125.302734,12.9101562 125.302734,11.6015625 C125.302734,10.7226562 125.568848,9.94873047 126.101074,9.27978516 C126.633301,8.61083984 127.363281,8.09082031 128.291016,7.71972656 C129.21875,7.34863281 130.263672,7.16308594 131.425781,7.16308594 C132.324219,7.16308594 133.115234,7.23388672 133.798828,7.37548828 C134.482422,7.51708984 135.170898,7.70019531 135.864258,7.92480469 L136.391602,8.0859375 L136.391602,11.7919922 L134.516602,11.7919922 L133.886719,9.74121094 C133.769531,9.48730469 133.45459,9.26757812 132.941895,9.08203125 C132.429199,8.89648438 131.855469,8.80371094 131.220703,8.80371094 C130.322266,8.80371094 129.628906,8.99414062 129.140625,9.375 C128.652344,9.75585938 128.408203,10.2539062 128.408203,10.8691406 C128.408203,11.4160156 128.552246,11.875 128.840332,12.2460938 C129.128418,12.6171875 129.487305,12.9199219 129.916992,13.1542969 C130.34668,13.3886719 130.947266,13.6669922 131.71875,13.9892578 L132.290039,14.2382812 C133.40332,14.7167969 134.306641,15.1660156 135,15.5859375 C135.693359,16.0058594 136.269531,16.5429688 136.728516,17.1972656 C137.1875,17.8515625 137.416992,18.6523438 137.416992,19.5996094 C137.416992,20.5761719 137.160645,21.4355469 136.647949,22.1777344 C136.135254,22.9199219 135.393066,23.4960938 134.421387,23.90625 C133.449707,24.3164062 132.299805,24.5214844 130.97168,24.5214844 C129.975586,24.5214844 128.930664,24.3847656 127.836914,24.1113281 C126.743164,23.8378906 125.869141,23.5546875 125.214844,23.2617188 L125.214844,19.4238281 L127.280273,19.4238281 Z" id="Path"></path>
            <path d="M139.995117,15.8203125 C139.995117,14.1015625 140.332031,12.578125 141.005859,11.25 C141.679688,9.921875 142.612305,8.89404297 143.803711,8.16650391 C144.995117,7.43896484 146.347656,7.07519531 147.861328,7.07519531 C149.736328,7.07519531 151.186523,7.58789062 152.211914,8.61328125 C153.237305,9.63867188 153.78418,11.1181641 153.852539,13.0517578 L153.852539,13.5791016 C153.852539,14.6044922 153.793945,15.3857422 153.676758,15.9228516 L143.525391,15.9228516 C143.564453,17.3583984 143.808594,18.5498047 144.257812,19.4970703 C144.707031,20.4443359 145.297852,21.1425781 146.030273,21.5917969 C146.762695,22.0410156 147.587891,22.265625 148.505859,22.265625 C149.306641,22.265625 150.129395,22.1264648 150.974121,21.8481445 C151.818848,21.5698242 152.480469,21.25 152.958984,20.8886719 L153.574219,22.2949219 C153.203125,22.6757812 152.692871,23.0371094 152.043457,23.3789062 C151.394043,23.7207031 150.671387,23.996582 149.875488,24.206543 C149.07959,24.4165039 148.291016,24.5214844 147.509766,24.5214844 C145.869141,24.5214844 144.484863,24.1577148 143.356934,23.4301758 C142.229004,22.7026367 141.386719,21.6870117 140.830078,20.3833008 C140.273438,19.0795898 139.995117,17.5585938 139.995117,15.8203125 Z M150.336914,14.2236328 C150.375977,13.8720703 150.395508,13.4521484 150.395508,12.9638672 C150.385742,11.7236328 150.126953,10.7275391 149.619141,9.97558594 C149.111328,9.22363281 148.310547,8.84765625 147.216797,8.84765625 C146.123047,8.84765625 145.256348,9.25537109 144.616699,10.0708008 C143.977051,10.8862305 143.613281,12.2705078 143.525391,14.2236328 L150.336914,14.2236328 Z" id="Shape"></path>
            <path d="M167.929688,22.2363281 L167.929688,3.89648438 L165.615234,3.515625 L165.615234,1.88964844 L169.526367,1.88964844 C170.014648,1.88964844 170.529785,1.875 171.071777,1.84570312 C171.61377,1.81640625 171.967773,1.796875 172.133789,1.78710938 C173.286133,1.70898438 174.174805,1.66992188 174.799805,1.66992188 C178.540039,1.66992188 181.320801,2.60253906 183.14209,4.46777344 C184.963379,6.33300781 185.874023,8.95507812 185.874023,12.3339844 C185.874023,14.7070313 185.410156,16.8066406 184.482422,18.6328125 C183.554688,20.4589844 182.253418,21.8798828 180.578613,22.8955078 C178.903809,23.9111328 176.977539,24.4189453 174.799805,24.4189453 C174.301758,24.4189453 173.466797,24.3798828 172.294922,24.3017578 C171.083984,24.2236328 170.209961,24.1845703 169.672852,24.1845703 L165.454102,24.1845703 L165.454102,22.5878906 L167.929688,22.2363281 Z M171.357422,22.3828125 C171.767578,22.4902344 172.194824,22.5634766 172.63916,22.6025391 C173.083496,22.6416016 173.583984,22.6611328 174.140625,22.6611328 L174.814453,22.6611328 C176.259766,22.6318359 177.531738,22.2485352 178.630371,21.5112305 C179.729004,20.7739258 180.588379,19.6850586 181.208496,18.2446289 C181.828613,16.8041992 182.138672,15.0439453 182.138672,12.9638672 C182.138672,9.80957031 181.464844,7.42675781 180.117188,5.81542969 C178.769531,4.20410156 176.738281,3.3984375 174.023438,3.3984375 C173.427734,3.3984375 172.69043,3.44726562 171.811523,3.54492188 L171.357422,3.58886719 L171.357422,22.3828125 Z" id="Shape"></path>
            <path d="M197.988281,13.3007812 C197.988281,12.3828125 197.893066,11.6601562 197.702637,11.1328125 C197.512207,10.6054688 197.182617,10.2197266 196.713867,9.97558594 C196.245117,9.73144531 195.581055,9.609375 194.72168,9.609375 C193.071289,9.609375 191.333008,10.0732422 189.506836,11.0009766 L189.492188,11.0009766 L188.759766,9.47753906 C189.023438,9.24316406 189.528809,8.94042969 190.275879,8.56933594 C191.022949,8.19824219 191.872559,7.87353516 192.824707,7.59521484 C193.776855,7.31689453 194.682617,7.17773438 195.541992,7.17773438 C196.967773,7.17773438 198.088379,7.37060547 198.903809,7.75634766 C199.719238,8.14208984 200.307617,8.75976562 200.668945,9.609375 C201.030273,10.4589844 201.210938,11.6064453 201.210938,13.0517578 L201.210938,22.5732422 L202.998047,22.5732422 L202.998047,24.0087891 C201.572266,24.3505859 200.498047,24.5214844 199.775391,24.5214844 C199.365234,24.5214844 199.052734,24.4873047 198.837891,24.4189453 C198.623047,24.3505859 198.464355,24.2114258 198.361816,24.0014648 C198.259277,23.7915039 198.208008,23.4667969 198.208008,23.0273438 L198.208008,22.3242188 C197.680664,22.8417969 196.987305,23.3374023 196.12793,23.8110352 C195.268555,24.284668 194.306641,24.5214844 193.242188,24.5214844 C192.304688,24.5214844 191.452637,24.3505859 190.686035,24.0087891 C189.919434,23.6669922 189.309082,23.1396484 188.85498,22.4267578 C188.400879,21.7138672 188.173828,20.8251953 188.173828,19.7607422 C188.173828,18.4619141 188.625488,17.3925781 189.528809,16.5527344 C190.432129,15.7128906 191.618652,15.0952148 193.088379,14.699707 C194.558105,14.3041992 196.191406,14.0917969 197.988281,14.0625 L197.988281,13.3007812 Z M197.988281,15.7177734 C196.552734,15.7177734 195.373535,15.8813477 194.450684,16.2084961 C193.527832,16.5356445 192.858887,16.9677734 192.443848,17.5048828 C192.028809,18.0419922 191.821289,18.6523438 191.821289,19.3359375 C191.821289,20.3613281 192.075195,21.1132812 192.583008,21.5917969 C193.09082,22.0703125 193.774414,22.3095703 194.633789,22.3095703 C195.092773,22.3095703 195.646973,22.1801758 196.296387,21.9213867 C196.945801,21.6625977 197.509766,21.3476562 197.988281,20.9765625 L197.988281,15.7177734 Z" id="Shape"></path>
            <path d="M204.726562,9.62402344 L204.726562,8.23242188 C205,8.1640625 205.314941,8.06640625 205.671387,7.93945312 C206.027832,7.8125 206.259766,7.71484375 206.367188,7.64648438 C206.689453,7.41210938 206.953125,7.03125 207.158203,6.50390625 C207.304688,6.171875 207.497559,5.64208984 207.736816,4.91455078 C207.976074,4.18701172 208.139648,3.63769531 208.227539,3.26660156 L210.131836,3.26660156 L210.161133,7.52929688 L215.083008,7.52929688 L215.083008,9.62402344 L210.175781,9.62402344 L210.175781,18.4863281 C210.175781,19.6777344 210.209961,20.5053711 210.27832,20.9692383 C210.34668,21.4331055 210.48584,21.730957 210.695801,21.862793 C210.905762,21.9946289 211.289062,22.0605469 211.845703,22.0605469 L211.860352,22.0605469 C212.368164,22.0605469 212.941895,21.9970703 213.581543,21.8701172 C214.221191,21.7431641 214.716797,21.6113281 215.068359,21.4746094 L215.083008,21.4746094 L215.581055,22.8955078 C215.288086,23.1396484 214.848633,23.3862305 214.262695,23.6352539 C213.676758,23.8842773 213.046875,24.0917969 212.373047,24.2578125 C211.699219,24.4238281 211.079102,24.5068359 210.512695,24.5068359 L210.483398,24.5068359 C209.272461,24.5068359 208.359375,24.2407227 207.744141,23.7084961 C207.128906,23.1762695 206.821289,22.2851562 206.821289,21.0351562 L206.821289,9.62402344 L204.726562,9.62402344 Z" id="Path"></path>
            <path d="M227.021484,13.3007812 C227.021484,12.3828125 226.92627,11.6601562 226.73584,11.1328125 C226.54541,10.6054688 226.21582,10.2197266 225.74707,9.97558594 C225.27832,9.73144531 224.614258,9.609375 223.754883,9.609375 C222.104492,9.609375 220.366211,10.0732422 218.540039,11.0009766 L218.525391,11.0009766 L217.792969,9.47753906 C218.056641,9.24316406 218.562012,8.94042969 219.309082,8.56933594 C220.056152,8.19824219 220.905762,7.87353516 221.85791,7.59521484 C222.810059,7.31689453 223.71582,7.17773438 224.575195,7.17773438 C226.000977,7.17773438 227.121582,7.37060547 227.937012,7.75634766 C228.752441,8.14208984 229.34082,8.75976562 229.702148,9.609375 C230.063477,10.4589844 230.244141,11.6064453 230.244141,13.0517578 L230.244141,22.5732422 L232.03125,22.5732422 L232.03125,24.0087891 C230.605469,24.3505859 229.53125,24.5214844 228.808594,24.5214844 C228.398438,24.5214844 228.085938,24.4873047 227.871094,24.4189453 C227.65625,24.3505859 227.497559,24.2114258 227.39502,24.0014648 C227.29248,23.7915039 227.241211,23.4667969 227.241211,23.0273438 L227.241211,22.3242188 C226.713867,22.8417969 226.020508,23.3374023 225.161133,23.8110352 C224.301758,24.284668 223.339844,24.5214844 222.275391,24.5214844 C221.337891,24.5214844 220.48584,24.3505859 219.719238,24.0087891 C218.952637,23.6669922 218.342285,23.1396484 217.888184,22.4267578 C217.434082,21.7138672 217.207031,20.8251953 217.207031,19.7607422 C217.207031,18.4619141 217.658691,17.3925781 218.562012,16.5527344 C219.465332,15.7128906 220.651855,15.0952148 222.121582,14.699707 C223.591309,14.3041992 225.224609,14.0917969 227.021484,14.0625 L227.021484,13.3007812 Z M227.021484,15.7177734 C225.585938,15.7177734 224.406738,15.8813477 223.483887,16.2084961 C222.561035,16.5356445 221.89209,16.9677734 221.477051,17.5048828 C221.062012,18.0419922 220.854492,18.6523438 220.854492,19.3359375 C220.854492,20.3613281 221.108398,21.1132812 221.616211,21.5917969 C222.124023,22.0703125 222.807617,22.3095703 223.666992,22.3095703 C224.125977,22.3095703 224.680176,22.1801758 225.32959,21.9213867 C225.979004,21.6625977 226.542969,21.3476562 227.021484,20.9765625 L227.021484,15.7177734 Z" id="Shape"></path>
            <polygon id="Path" points="244.423828 22.2509766 246.621094 3.88183594 243.486328 3.515625 243.486328 1.88964844 251.484375 1.88964844 256.083984 15.3222656 256.845703 18.6914062 257.504883 15.3222656 261.5625 1.88964844 269.560547 1.88964844 269.560547 3.515625 266.308594 3.89648438 269.150391 22.2363281 271.772461 22.5878906 271.772461 24.1845703 263.071289 24.1845703 263.071289 22.5878906 265.664062 22.2509766 263.818359 8.95019531 263.173828 3.10546875 262.163086 7.11914062 257.387695 23.1884766 255.498047 23.1884766 250.209961 8.75976562 248.583984 3.12011719 248.115234 8.93554688 246.928711 22.2363281 249.814453 22.5878906 249.814453 24.1845703 241.816406 24.1845703 241.816406 22.5878906"></polygon>
            <path d="M282.832031,13.3007812 C282.832031,12.3828125 282.736816,11.6601562 282.546387,11.1328125 C282.355957,10.6054688 282.026367,10.2197266 281.557617,9.97558594 C281.088867,9.73144531 280.424805,9.609375 279.56543,9.609375 C277.915039,9.609375 276.176758,10.0732422 274.350586,11.0009766 L274.335938,11.0009766 L273.603516,9.47753906 C273.867188,9.24316406 274.372559,8.94042969 275.119629,8.56933594 C275.866699,8.19824219 276.716309,7.87353516 277.668457,7.59521484 C278.620605,7.31689453 279.526367,7.17773438 280.385742,7.17773438 C281.811523,7.17773438 282.932129,7.37060547 283.747559,7.75634766 C284.562988,8.14208984 285.151367,8.75976562 285.512695,9.609375 C285.874023,10.4589844 286.054688,11.6064453 286.054688,13.0517578 L286.054688,22.5732422 L287.841797,22.5732422 L287.841797,24.0087891 C286.416016,24.3505859 285.341797,24.5214844 284.619141,24.5214844 C284.208984,24.5214844 283.896484,24.4873047 283.681641,24.4189453 C283.466797,24.3505859 283.308105,24.2114258 283.205566,24.0014648 C283.103027,23.7915039 283.051758,23.4667969 283.051758,23.0273438 L283.051758,22.3242188 C282.524414,22.8417969 281.831055,23.3374023 280.97168,23.8110352 C280.112305,24.284668 279.150391,24.5214844 278.085938,24.5214844 C277.148438,24.5214844 276.296387,24.3505859 275.529785,24.0087891 C274.763184,23.6669922 274.152832,23.1396484 273.69873,22.4267578 C273.244629,21.7138672 273.017578,20.8251953 273.017578,19.7607422 C273.017578,18.4619141 273.469238,17.3925781 274.372559,16.5527344 C275.275879,15.7128906 276.462402,15.0952148 277.932129,14.699707 C279.401855,14.3041992 281.035156,14.0917969 282.832031,14.0625 L282.832031,13.3007812 Z M282.832031,15.7177734 C281.396484,15.7177734 280.217285,15.8813477 279.294434,16.2084961 C278.371582,16.5356445 277.702637,16.9677734 277.287598,17.5048828 C276.872559,18.0419922 276.665039,18.6523438 276.665039,19.3359375 C276.665039,20.3613281 276.918945,21.1132812 277.426758,21.5917969 C277.93457,22.0703125 278.618164,22.3095703 279.477539,22.3095703 C279.936523,22.3095703 280.490723,22.1801758 281.140137,21.9213867 C281.789551,21.6625977 282.353516,21.3476562 282.832031,20.9765625 L282.832031,15.7177734 Z" id="Shape"></path>
            <path d="M292.001953,22.3388672 L292.001953,10.0634766 L289.907227,9.47753906 L289.907227,7.71972656 L294.243164,7.13378906 L294.316406,7.13378906 L295.004883,7.70507812 L295.004883,8.89160156 L294.990234,9.56542969 C295.439453,9.16503906 296.003418,8.77929688 296.682129,8.40820312 C297.36084,8.03710938 298.088379,7.734375 298.864746,7.5 C299.641113,7.265625 300.375977,7.1484375 301.069336,7.1484375 C302.338867,7.1484375 303.320312,7.38525391 304.013672,7.85888672 C304.707031,8.33251953 305.19043,9.0625 305.463867,10.0488281 C305.737305,11.0351562 305.874023,12.3730469 305.874023,14.0625 L305.874023,22.3388672 L307.983398,22.5878906 L307.983398,24.1845703 L300.629883,24.1845703 L300.629883,22.5878906 L302.504883,22.3388672 L302.504883,14.0478516 C302.504883,12.9150391 302.429199,12.0239258 302.277832,11.3745117 C302.126465,10.7250977 301.84082,10.2368164 301.420898,9.90966797 C301.000977,9.58251953 300.380859,9.41894531 299.560547,9.41894531 C298.857422,9.41894531 298.125,9.5703125 297.363281,9.87304688 C296.601562,10.1757812 295.932617,10.5419922 295.356445,10.9716797 L295.356445,22.3388672 L297.37793,22.5878906 L297.37793,24.1845703 L290.083008,24.1845703 L290.083008,22.5878906 L292.001953,22.3388672 Z" id="Path"></path>
            <path d="M319.790039,13.3007812 C319.790039,12.3828125 319.694824,11.6601562 319.504395,11.1328125 C319.313965,10.6054688 318.984375,10.2197266 318.515625,9.97558594 C318.046875,9.73144531 317.382812,9.609375 316.523438,9.609375 C314.873047,9.609375 313.134766,10.0732422 311.308594,11.0009766 L311.293945,11.0009766 L310.561523,9.47753906 C310.825195,9.24316406 311.330566,8.94042969 312.077637,8.56933594 C312.824707,8.19824219 313.674316,7.87353516 314.626465,7.59521484 C315.578613,7.31689453 316.484375,7.17773438 317.34375,7.17773438 C318.769531,7.17773438 319.890137,7.37060547 320.705566,7.75634766 C321.520996,8.14208984 322.109375,8.75976562 322.470703,9.609375 C322.832031,10.4589844 323.012695,11.6064453 323.012695,13.0517578 L323.012695,22.5732422 L324.799805,22.5732422 L324.799805,24.0087891 C323.374023,24.3505859 322.299805,24.5214844 321.577148,24.5214844 C321.166992,24.5214844 320.854492,24.4873047 320.639648,24.4189453 C320.424805,24.3505859 320.266113,24.2114258 320.163574,24.0014648 C320.061035,23.7915039 320.009766,23.4667969 320.009766,23.0273438 L320.009766,22.3242188 C319.482422,22.8417969 318.789062,23.3374023 317.929688,23.8110352 C317.070312,24.284668 316.108398,24.5214844 315.043945,24.5214844 C314.106445,24.5214844 313.254395,24.3505859 312.487793,24.0087891 C311.721191,23.6669922 311.11084,23.1396484 310.656738,22.4267578 C310.202637,21.7138672 309.975586,20.8251953 309.975586,19.7607422 C309.975586,18.4619141 310.427246,17.3925781 311.330566,16.5527344 C312.233887,15.7128906 313.42041,15.0952148 314.890137,14.699707 C316.359863,14.3041992 317.993164,14.0917969 319.790039,14.0625 L319.790039,13.3007812 Z M319.790039,15.7177734 C318.354492,15.7177734 317.175293,15.8813477 316.252441,16.2084961 C315.32959,16.5356445 314.660645,16.9677734 314.245605,17.5048828 C313.830566,18.0419922 313.623047,18.6523438 313.623047,19.3359375 C313.623047,20.3613281 313.876953,21.1132812 314.384766,21.5917969 C314.892578,22.0703125 315.576172,22.3095703 316.435547,22.3095703 C316.894531,22.3095703 317.44873,22.1801758 318.098145,21.9213867 C318.747559,21.6625977 319.311523,21.3476562 319.790039,20.9765625 L319.790039,15.7177734 Z" id="Shape"></path>
            <path d="M334.057617,18.2519531 C333.256836,18.2519531 332.509766,18.1689453 331.816406,18.0029297 C331.542969,18.2470703 331.328125,18.527832 331.171875,18.8452148 C331.015625,19.1625977 330.9375,19.4873047 330.9375,19.8193359 C330.9375,20.3076172 331.052246,20.6811523 331.281738,20.9399414 C331.51123,21.1987305 331.85791,21.3769531 332.321777,21.4746094 C332.785645,21.5722656 333.422852,21.6210938 334.233398,21.6210938 L337.426758,21.6210938 C341.245117,21.6210938 343.154297,23.0859375 343.154297,26.015625 C343.154297,27.1484375 342.751465,28.1933594 341.945801,29.1503906 C341.140137,30.1074219 340.063477,30.8666992 338.71582,31.4282227 C337.368164,31.9897461 335.922852,32.2705078 334.379883,32.2705078 L334.365234,32.2705078 C331.748047,32.2705078 329.848633,31.8725586 328.666992,31.0766602 C327.485352,30.2807617 326.894531,29.1552734 326.894531,27.7001953 C326.894531,26.7919922 327.160645,25.9692383 327.692871,25.2319336 C328.225098,24.4946289 328.867188,23.9355469 329.619141,23.5546875 C328.671875,23.0175781 328.198242,22.1972656 328.198242,21.09375 C328.198242,20.3613281 328.408203,19.6850586 328.828125,19.0649414 C329.248047,18.4448242 329.799805,17.9443359 330.483398,17.5634766 C329.506836,17.1142578 328.757324,16.4770508 328.234863,15.6518555 C327.712402,14.8266602 327.451172,13.8623047 327.451172,12.7587891 C327.451172,11.6064453 327.77832,10.6005859 328.432617,9.74121094 C329.086914,8.88183594 329.946289,8.22509766 331.010742,7.77099609 C332.075195,7.31689453 333.212891,7.08496094 334.423828,7.07519531 L334.438477,7.07519531 C335.493164,7.07519531 336.44043,7.19482422 337.280273,7.43408203 C338.120117,7.67333984 338.828125,8.02734375 339.404297,8.49609375 C339.697266,8.15429688 340.136719,7.82714844 340.722656,7.51464844 C341.308594,7.20214844 341.99707,7.04589844 342.788086,7.04589844 L343.579102,7.04589844 L343.579102,9.88769531 L340.50293,9.88769531 C340.844727,10.6005859 341.015625,11.3867188 341.015625,12.2460938 C341.015625,13.4179688 340.712891,14.4604492 340.107422,15.3735352 C339.501953,16.2866211 338.671875,16.9946289 337.617188,17.4975586 C336.5625,18.0004883 335.380859,18.2519531 334.072266,18.2519531 L334.057617,18.2519531 Z M334.233398,8.7890625 C333.178711,8.7890625 332.36084,9.07470703 331.779785,9.64599609 C331.19873,10.2172852 330.908203,11.1523438 330.908203,12.4511719 C330.908203,13.6816406 331.184082,14.6655273 331.73584,15.402832 C332.287598,16.1401367 333.168945,16.5087891 334.379883,16.5087891 L334.394531,16.5087891 C335.507812,16.5087891 336.315918,16.1767578 336.818848,15.5126953 C337.321777,14.8486328 337.573242,13.8769531 337.573242,12.5976562 C337.573242,11.2890625 337.302246,10.3271484 336.760254,9.71191406 C336.218262,9.09667969 335.380859,8.7890625 334.248047,8.7890625 L334.233398,8.7890625 Z M331.113281,24.0673828 C330.488281,24.8388672 330.175781,25.7617188 330.175781,26.8359375 C330.175781,28.0078125 330.522461,28.8964844 331.21582,29.5019531 C331.90918,30.1074219 333.046875,30.4101562 334.628906,30.4101562 L334.658203,30.4101562 C335.537109,30.4101562 336.376953,30.2734375 337.177734,30 C337.978516,29.7265625 338.62793,29.3212891 339.125977,28.7841797 C339.624023,28.2470703 339.873047,27.6074219 339.873047,26.8652344 C339.873047,26.2304688 339.777832,25.7299805 339.587402,25.3637695 C339.396973,24.9975586 339.047852,24.7216797 338.540039,24.5361328 C338.032227,24.3505859 337.294922,24.2578125 336.328125,24.2578125 L333.383789,24.2578125 C332.583008,24.2578125 331.826172,24.1943359 331.113281,24.0673828 Z" id="Shape"></path>
            <path d="M345.146484,15.8203125 C345.146484,14.1015625 345.483398,12.578125 346.157227,11.25 C346.831055,9.921875 347.763672,8.89404297 348.955078,8.16650391 C350.146484,7.43896484 351.499023,7.07519531 353.012695,7.07519531 C354.887695,7.07519531 356.337891,7.58789062 357.363281,8.61328125 C358.388672,9.63867188 358.935547,11.1181641 359.003906,13.0517578 L359.003906,13.5791016 C359.003906,14.6044922 358.945312,15.3857422 358.828125,15.9228516 L348.676758,15.9228516 C348.71582,17.3583984 348.959961,18.5498047 349.40918,19.4970703 C349.858398,20.4443359 350.449219,21.1425781 351.181641,21.5917969 C351.914062,22.0410156 352.739258,22.265625 353.657227,22.265625 C354.458008,22.265625 355.280762,22.1264648 356.125488,21.8481445 C356.970215,21.5698242 357.631836,21.25 358.110352,20.8886719 L358.725586,22.2949219 C358.354492,22.6757812 357.844238,23.0371094 357.194824,23.3789062 C356.54541,23.7207031 355.822754,23.996582 355.026855,24.206543 C354.230957,24.4165039 353.442383,24.5214844 352.661133,24.5214844 C351.020508,24.5214844 349.63623,24.1577148 348.508301,23.4301758 C347.380371,22.7026367 346.538086,21.6870117 345.981445,20.3833008 C345.424805,19.0795898 345.146484,17.5585938 345.146484,15.8203125 Z M355.488281,14.2236328 C355.527344,13.8720703 355.546875,13.4521484 355.546875,12.9638672 C355.537109,11.7236328 355.27832,10.7275391 354.770508,9.97558594 C354.262695,9.22363281 353.461914,8.84765625 352.368164,8.84765625 C351.274414,8.84765625 350.407715,9.25537109 349.768066,10.0708008 C349.128418,10.8862305 348.764648,12.2705078 348.676758,14.2236328 L355.488281,14.2236328 Z" id="Shape"></path>
            <path d="M363.603516,22.3535156 L363.603516,10.0634766 L361.508789,9.47753906 L361.508789,7.71972656 L365.830078,7.13378906 L365.90332,7.13378906 L366.606445,7.70507812 L366.606445,8.89160156 L366.577148,9.56542969 C367.016602,9.16503906 367.585449,8.77929688 368.283691,8.40820312 C368.981934,8.03710938 369.719238,7.734375 370.495605,7.5 C371.271973,7.265625 371.977539,7.1484375 372.612305,7.1484375 C373.686523,7.1484375 374.550781,7.32910156 375.205078,7.69042969 C375.859375,8.05175781 376.357422,8.61328125 376.699219,9.375 C377.080078,9.04296875 377.60498,8.70361328 378.273926,8.35693359 C378.942871,8.01025391 379.658203,7.72216797 380.419922,7.49267578 C381.181641,7.26318359 381.889648,7.1484375 382.543945,7.1484375 C383.813477,7.1484375 384.799805,7.38525391 385.50293,7.85888672 C386.206055,8.33251953 386.699219,9.06005859 386.982422,10.0415039 C387.265625,11.0229492 387.407227,12.3486328 387.407227,14.0185547 L387.407227,22.3535156 L389.501953,22.6025391 L389.501953,24.1845703 L382.324219,24.1845703 L382.324219,22.6025391 L384.052734,22.3388672 L384.052734,14.1210938 C384.052734,12.9785156 383.969727,12.0751953 383.803711,11.4111328 C383.637695,10.7470703 383.325195,10.246582 382.866211,9.90966797 C382.407227,9.57275391 381.748047,9.40429688 380.888672,9.40429688 C380.292969,9.40429688 379.643555,9.54101562 378.94043,9.81445312 C378.237305,10.0878906 377.631836,10.4052734 377.124023,10.7666016 C377.299805,11.6064453 377.387695,12.7050781 377.387695,14.0625 L377.387695,22.3388672 L379.526367,22.6025391 L379.526367,24.1845703 L372.084961,24.1845703 L372.084961,22.6025391 L374.033203,22.3388672 L374.033203,14.0478516 C374.033203,12.9052734 373.959961,12.0117188 373.813477,11.3671875 C373.666992,10.7226562 373.381348,10.2368164 372.956543,9.90966797 C372.531738,9.58251953 371.90918,9.41894531 371.088867,9.41894531 C370.405273,9.41894531 369.6875,9.56542969 368.935547,9.85839844 C368.183594,10.1513672 367.524414,10.5126953 366.958008,10.9423828 L366.958008,22.3388672 L368.920898,22.6025391 L368.920898,24.1845703 L361.772461,24.1845703 L361.772461,22.6025391 L363.603516,22.3535156 Z" id="Path"></path>
            <path d="M391.523438,15.8203125 C391.523438,14.1015625 391.860352,12.578125 392.53418,11.25 C393.208008,9.921875 394.140625,8.89404297 395.332031,8.16650391 C396.523438,7.43896484 397.875977,7.07519531 399.389648,7.07519531 C401.264648,7.07519531 402.714844,7.58789062 403.740234,8.61328125 C404.765625,9.63867188 405.3125,11.1181641 405.380859,13.0517578 L405.380859,13.5791016 C405.380859,14.6044922 405.322266,15.3857422 405.205078,15.9228516 L395.053711,15.9228516 C395.092773,17.3583984 395.336914,18.5498047 395.786133,19.4970703 C396.235352,20.4443359 396.826172,21.1425781 397.558594,21.5917969 C398.291016,22.0410156 399.116211,22.265625 400.03418,22.265625 C400.834961,22.265625 401.657715,22.1264648 402.502441,21.8481445 C403.347168,21.5698242 404.008789,21.25 404.487305,20.8886719 L405.102539,22.2949219 C404.731445,22.6757812 404.221191,23.0371094 403.571777,23.3789062 C402.922363,23.7207031 402.199707,23.996582 401.403809,24.206543 C400.60791,24.4165039 399.819336,24.5214844 399.038086,24.5214844 C397.397461,24.5214844 396.013184,24.1577148 394.885254,23.4301758 C393.757324,22.7026367 392.915039,21.6870117 392.358398,20.3833008 C391.801758,19.0795898 391.523438,17.5585938 391.523438,15.8203125 Z M401.865234,14.2236328 C401.904297,13.8720703 401.923828,13.4521484 401.923828,12.9638672 C401.914062,11.7236328 401.655273,10.7275391 401.147461,9.97558594 C400.639648,9.22363281 399.838867,8.84765625 398.745117,8.84765625 C397.651367,8.84765625 396.784668,9.25537109 396.14502,10.0708008 C395.505371,10.8862305 395.141602,12.2705078 395.053711,14.2236328 L401.865234,14.2236328 Z" id="Shape"></path>
            <path d="M409.980469,22.3388672 L409.980469,10.0634766 L407.885742,9.47753906 L407.885742,7.71972656 L412.22168,7.13378906 L412.294922,7.13378906 L412.983398,7.70507812 L412.983398,8.89160156 L412.96875,9.56542969 C413.417969,9.16503906 413.981934,8.77929688 414.660645,8.40820312 C415.339355,8.03710938 416.066895,7.734375 416.843262,7.5 C417.619629,7.265625 418.354492,7.1484375 419.047852,7.1484375 C420.317383,7.1484375 421.298828,7.38525391 421.992188,7.85888672 C422.685547,8.33251953 423.168945,9.0625 423.442383,10.0488281 C423.71582,11.0351562 423.852539,12.3730469 423.852539,14.0625 L423.852539,22.3388672 L425.961914,22.5878906 L425.961914,24.1845703 L418.608398,24.1845703 L418.608398,22.5878906 L420.483398,22.3388672 L420.483398,14.0478516 C420.483398,12.9150391 420.407715,12.0239258 420.256348,11.3745117 C420.10498,10.7250977 419.819336,10.2368164 419.399414,9.90966797 C418.979492,9.58251953 418.359375,9.41894531 417.539062,9.41894531 C416.835938,9.41894531 416.103516,9.5703125 415.341797,9.87304688 C414.580078,10.1757812 413.911133,10.5419922 413.334961,10.9716797 L413.334961,22.3388672 L415.356445,22.5878906 L415.356445,24.1845703 L408.061523,24.1845703 L408.061523,22.5878906 L409.980469,22.3388672 Z" id="Path"></path>
            <path d="M427.69043,9.62402344 L427.69043,8.23242188 C427.963867,8.1640625 428.278809,8.06640625 428.635254,7.93945312 C428.991699,7.8125 429.223633,7.71484375 429.331055,7.64648438 C429.65332,7.41210938 429.916992,7.03125 430.12207,6.50390625 C430.268555,6.171875 430.461426,5.64208984 430.700684,4.91455078 C430.939941,4.18701172 431.103516,3.63769531 431.191406,3.26660156 L433.095703,3.26660156 L433.125,7.52929688 L438.046875,7.52929688 L438.046875,9.62402344 L433.139648,9.62402344 L433.139648,18.4863281 C433.139648,19.6777344 433.173828,20.5053711 433.242188,20.9692383 C433.310547,21.4331055 433.449707,21.730957 433.659668,21.862793 C433.869629,21.9946289 434.25293,22.0605469 434.80957,22.0605469 L434.824219,22.0605469 C435.332031,22.0605469 435.905762,21.9970703 436.54541,21.8701172 C437.185059,21.7431641 437.680664,21.6113281 438.032227,21.4746094 L438.046875,21.4746094 L438.544922,22.8955078 C438.251953,23.1396484 437.8125,23.3862305 437.226562,23.6352539 C436.640625,23.8842773 436.010742,24.0917969 435.336914,24.2578125 C434.663086,24.4238281 434.042969,24.5068359 433.476562,24.5068359 L433.447266,24.5068359 C432.236328,24.5068359 431.323242,24.2407227 430.708008,23.7084961 C430.092773,23.1762695 429.785156,22.2851562 429.785156,21.0351562 L429.785156,9.62402344 L427.69043,9.62402344 Z" id="Path"></path>
        </g>
    </g>
</svg>