<?xml version="1.0" encoding="UTF-8"?>
<svg width="185px" height="64px" viewBox="0 0 185 64" version="1.1" xmlns="http://www.w3.org/2000/svg" xmlns:xlink="http://www.w3.org/1999/xlink">
    <title>logo/tms/color-light/short/tms-logo-color-light-short</title>
    <g id="logo/tms/color-light/short/tms-logo-color-light-short" stroke="none" stroke-width="1" fill="none" fill-rule="evenodd">
        <g id="TMS" transform="translate(72.750000, 13.929688)" fill="#FFFFFF" fill-rule="nonzero">
            <polygon id="Path" points="12.9609375 32.953125 12.9609375 3.1875 5.15625 3.421875 3.3984375 13.21875 0 13.21875 0.8203125 0.3984375 30.4921875 0.3984375 31.2421875 13.21875 27.890625 13.21875 26.109375 3.421875 18.609375 3.1875 18.609375 32.953125 25.2421875 33.515625 25.2421875 36.0703125 6.84375 36.0703125 6.84375 33.515625"></polygon>
            <polygon id="Path" points="36.515625 32.9765625 40.03125 3.5859375 35.015625 3 35.015625 0.3984375 47.8125 0.3984375 55.171875 21.890625 56.390625 27.28125 57.4453125 21.890625 63.9375 0.3984375 76.734375 0.3984375 76.734375 3 71.53125 3.609375 76.078125 32.953125 80.2734375 33.515625 80.2734375 36.0703125 66.3515625 36.0703125 66.3515625 33.515625 70.5 32.9765625 67.546875 11.6953125 66.515625 2.34375 64.8984375 8.765625 57.2578125 34.4765625 54.234375 34.4765625 45.7734375 11.390625 43.171875 2.3671875 42.421875 11.671875 40.5234375 32.953125 45.140625 33.515625 45.140625 36.0703125 32.34375 36.0703125 32.34375 33.515625"></polygon>
            <path d="M83.4140625,25.7578125 L86.671875,25.7578125 L87.609375,31.7578125 C88.140625,32.3203125 89,32.8007812 90.1875,33.1992188 C91.375,33.5976562 92.6640625,33.796875 94.0546875,33.796875 C96.3828125,33.796875 98.1367188,33.2773438 99.3164062,32.2382812 C100.496094,31.1992188 101.085938,29.7578125 101.085938,27.9140625 C101.085938,26.7109375 100.761719,25.6757812 100.113281,24.8085938 C99.4648438,23.9414062 98.5859375,23.1796875 97.4765625,22.5234375 C96.3671875,21.8671875 94.84375,21.1015625 92.90625,20.2265625 C91.21875,19.4609375 89.703125,18.6328125 88.359375,17.7421875 C87.015625,16.8515625 85.859375,15.6953125 84.890625,14.2734375 C83.921875,12.8515625 83.4375,11.171875 83.4375,9.234375 C83.4375,7.453125 83.9140625,5.86328125 84.8671875,4.46484375 C85.8203125,3.06640625 87.1796875,1.97265625 88.9453125,1.18359375 C90.7109375,0.39453125 92.765625,0 95.109375,0 C96.546875,0 97.875,0.12109375 99.09375,0.36328125 C100.3125,0.60546875 101.578125,0.9140625 102.890625,1.2890625 C103.578125,1.4921875 104.132812,1.6328125 104.554688,1.7109375 L104.25,9.75 L101.109375,9.75 L100.03125,4.0546875 C99.734375,3.7265625 99.109375,3.42578125 98.15625,3.15234375 C97.203125,2.87890625 96.171875,2.7421875 95.0625,2.7421875 C90.84375,2.7421875 88.734375,4.4453125 88.734375,7.8515625 C88.734375,9.0390625 89.0546875,10.0546875 89.6953125,10.8984375 C90.3359375,11.7421875 91.1875,12.4882812 92.25,13.1367188 C93.3125,13.7851562 94.8828125,14.6171875 96.9609375,15.6328125 C99.0234375,16.6484375 100.710938,17.578125 102.023438,18.421875 C103.335938,19.265625 104.460938,20.3398438 105.398438,21.6445312 C106.335938,22.9492188 106.804688,24.4921875 106.804688,26.2734375 C106.804688,27.9921875 106.324219,29.6445312 105.363281,31.2304688 C104.402344,32.8164062 102.957031,34.109375 101.027344,35.109375 C99.0976562,36.109375 96.7578125,36.609375 94.0078125,36.609375 C92.3203125,36.609375 90.78125,36.4570312 89.390625,36.1523438 C88,35.8476562 86.5546875,35.453125 85.0546875,34.96875 C84.0234375,34.640625 83.34375,34.4609375 83.015625,34.4296875 L83.4140625,25.7578125 Z" id="Path"></path>
        </g>
        <g id="mark/tms">
            <path d="M64,31.9998 C64,49.6728 49.673,63.9998 32,63.9998 C14.327,63.9998 0,49.6728 0,31.9998 C0,14.3268 14.327,-0.0002 32,-0.0002 C49.673,-0.0002 64,14.3268 64,31.9998" id="circle" fill="#0053A2" fill-rule="nonzero"></path>
            <path d="M51.9662,37.0498 C49.3532,40.5378 45.2652,39.9188 42.4112,40.2928 C42.3410065,40.3020043 42.2701432,40.3102975 42.198687,40.3178316 L41.9826159,40.3383086 C41.9100502,40.3444765 41.8369682,40.3500372 41.7634465,40.3551429 L41.5416389,40.3692463 L41.3176529,40.3815307 L41.0919484,40.3929081 L41.0353077,40.3957176 L41.0353077,40.3957176 L40.7511757,40.4102682 C37.7900252,40.5696606 34.6847161,41.0770258 35.9822,50.9478 C36.1222,52.3468 36.5712,55.5358 37.2152,57.3268 C35.5242,57.6538 33.7812,57.8308 31.9952,57.8308 C30.1922,57.8308 28.4322,57.6508 26.7272,57.3178 C27.3702,55.5258 27.8172,52.3438 27.9572,50.9478 C29.2546839,41.0770258 26.1493748,40.5696606 23.1882243,40.4102682 L22.9608045,40.3985416 C22.9229742,40.3966509 22.8851867,40.3947794 22.8474516,40.3929081 L22.6217471,40.3815307 L22.3977611,40.3692463 L22.1759535,40.3551429 C22.1024318,40.3500372 22.0293498,40.3444765 21.9567841,40.3383086 L21.740713,40.3178316 C21.6692568,40.3102975 21.5983935,40.3020043 21.5282,40.2928 C18.6732,39.9188 14.5862,40.5378 11.9742,37.0498 C11.6922,36.6738 12.1372,36.1678 12.5462,36.3968 C14.1752,37.3118 16.6932,37.9158 19.8862,37.7208 C23.4182,37.3618 26.1972,37.9558 28.1962,38.7268 C30.6332,39.6668 33.3072,39.6668 35.7432,38.7268 C37.7422,37.9558 40.5212,37.3618 44.0532,37.7208 C47.2462,37.9158 49.7652,37.3118 51.3932,36.3968 C51.8032,36.1678 52.2472,36.6738 51.9662,37.0498 Z M32.7553,29.0022 C34.3333,29.3002 35.6063,30.5742 35.9053,32.1522 C36.4403,34.9772 34.0103,37.4082 31.1843,36.8732 C29.6063,36.5742 28.3333,35.3002 28.0343,33.7222 C27.4993,30.8962 29.9283,28.4652 32.7553,29.0022 Z M45.0977,28.8436 C47.9157,28.2176 50.7127,28.8896 52.8887,30.4476 C51.5767,32.7806 49.3257,34.5716 46.5077,35.1976 C43.6897,35.8226 40.8927,35.1516 38.7167,33.5926 C40.0297,31.2596 42.2797,29.4686 45.0977,28.8436 Z M18.8418,28.8436 C21.6588,29.4686 23.9098,31.2596 25.2228,33.5926 C23.0468,35.1516 20.2498,35.8226 17.4318,35.1976 C14.6138,34.5716 12.3628,32.7806 11.0508,30.4476 C13.2268,28.8896 16.0238,28.2176 18.8418,28.8436 Z M24.168,20.325 C26.534,22.543 27.684,25.563 27.616,28.569 C24.621,28.83 21.533,27.877 19.167,25.659 C16.802,23.441 15.652,20.421 15.72,17.415 C18.714,17.154 21.803,18.107 24.168,20.325 Z M13.8692,23.2108 C15.4582,23.8468 16.6042,25.1088 17.1492,26.5998 C15.7272,27.3048 14.0262,27.4298 12.4362,26.7948 C10.8482,26.1588 9.7012,24.8968 9.1562,23.4058 C10.5782,22.7008 12.2792,22.5758 13.8692,23.2108 Z M22.1653,10.2888 C23.6783,10.7678 24.9913,11.8558 25.6963,13.4158 C26.4013,14.9768 26.3503,16.6818 25.7103,18.1328 C24.1973,17.6538 22.8833,16.5648 22.1793,15.0058 C21.4743,13.4458 21.5243,11.7408 22.1653,10.2888 Z M28.211,17.5028 C28.211,20.8998 29.695,23.9428 32.041,26.0458 C34.386,23.9428 35.87,20.8998 35.87,17.5028 C35.87,14.1068 34.386,11.0628 32.041,8.9608 C29.695,11.0628 28.211,14.1068 28.211,17.5028 M48.2195,17.415 C48.2875,20.421 47.1375,23.441 44.7725,25.659 C42.4065,27.877 39.3185,28.83 36.3235,28.569 C36.2555,25.563 37.4055,22.543 39.7715,20.325 C42.1365,18.107 45.2245,17.154 48.2195,17.415 Z M50.0704,23.2108 C51.6604,22.5758 53.3614,22.7008 54.7834,23.4058 C54.2384,24.8968 53.0914,26.1588 51.5034,26.7948 C49.9134,27.4298 48.2124,27.3048 46.7904,26.5998 C47.3354,25.1088 48.4814,23.8468 50.0704,23.2108 Z M41.7742,10.2888 C42.4152,11.7408 42.4652,13.4458 41.7602,15.0058 C41.0552,16.5648 39.7422,17.6538 38.2292,18.1328 C37.5892,16.6818 37.5382,14.9768 38.2432,13.4158 C38.9482,11.8558 40.2612,10.7678 41.7742,10.2888 Z" id="icon" fill="#F5EA14"></path>
        </g>
    </g>
</svg>