<?xml version="1.0" encoding="UTF-8"?>
<svg width="187px" height="64px" viewBox="0 0 187 64" version="1.1" xmlns="http://www.w3.org/2000/svg" xmlns:xlink="http://www.w3.org/1999/xlink">
    <title>logo/ecm/black/short/ecm-logo-black-short</title>
    <g id="logo/ecm/black/short/ecm-logo-black-short" stroke="none" stroke-width="1" fill="none" fill-rule="evenodd">
        <g id="ECM" transform="translate(74.250000, 13.953125)" fill="#000000">
            <polygon id="Path" points="3.9375 32.9296875 3.9375 3.5625 0.0703125 2.9765625 0.0703125 0.375 24.4921875 0.375 25.1484375 7.8046875 22.125 7.8046875 20.671875 3.3515625 9.4453125 3.046875 9.4453125 16.2890625 17.0625 16.1484375 17.765625 12.2578125 20.7890625 12.2578125 20.7890625 23.3671875 17.765625 23.3671875 17.0859375 19.2421875 9.4453125 19.125 9.4453125 33.140625 22.3359375 32.625 24.984375 26.7421875 27.984375 27.6328125 26.6015625 36.046875 0 36.046875 0 33.4921875"></polygon>
            <path d="M30.6796875,18.1875 C30.6796875,14.5 31.4414062,11.28125 32.9648438,8.53125 C34.4882812,5.78125 36.5703125,3.671875 39.2109375,2.203125 C41.8515625,0.734375 44.8046875,0 48.0703125,0 C49.5703125,0 51.0195312,0.109375 52.4179688,0.328125 C53.8164062,0.546875 55.3984375,0.8359375 57.1640625,1.1953125 L58.4296875,1.453125 L57.984375,10.21875 L54.4921875,10.21875 L53.1796875,4.2421875 C52.8515625,3.8046875 52.1875,3.45703125 51.1875,3.19921875 C50.1875,2.94140625 48.875,2.8125 47.25,2.8125 C45.25,2.8125 43.4804688,3.3828125 41.9414062,4.5234375 C40.4023438,5.6640625 39.1992188,7.34765625 38.3320312,9.57421875 C37.4648438,11.8007813 37.03125,14.484375 37.03125,17.625 C37.03125,20.53125 37.4179688,23.2070312 38.1914062,25.6523438 C38.9648438,28.0976563 40.1601562,30.0664062 41.7773438,31.5585938 C43.3945312,33.0507812 45.4140625,33.796875 47.8359375,33.796875 C50.3515625,33.796875 52.15625,33.21875 53.25,32.0625 L55.2890625,27.1171875 L58.6171875,27.5625 L57.5859375,34.734375 C57.1640625,34.765625 56.7578125,34.8320312 56.3671875,34.9335938 C55.9765625,35.0351562 55.46875,35.1953125 54.84375,35.4140625 C53.78125,35.7890625 52.765625,36.078125 51.796875,36.28125 C50.828125,36.484375 49.6328125,36.5859375 48.2109375,36.5859375 C44.4921875,36.5859375 41.3203125,35.8554688 38.6953125,34.3945312 C36.0703125,32.9335938 34.078125,30.828125 32.71875,28.078125 C31.359375,25.328125 30.6796875,22.03125 30.6796875,18.1875 Z" id="Path"></path>
            <polygon id="Path" points="64.6171875 32.953125 68.1328125 3.5625 63.1171875 2.9765625 63.1171875 0.375 75.9140625 0.375 83.2734375 21.8671875 84.4921875 27.2578125 85.546875 21.8671875 92.0390625 0.375 104.835938 0.375 104.835938 2.9765625 99.6328125 3.5859375 104.179688 32.9296875 108.375 33.4921875 108.375 36.046875 94.453125 36.046875 94.453125 33.4921875 98.6015625 32.953125 95.6484375 11.671875 94.6171875 2.3203125 93 8.7421875 85.359375 34.453125 82.3359375 34.453125 73.875 11.3671875 71.2734375 2.34375 70.5234375 11.6484375 68.625 32.9296875 73.2421875 33.4921875 73.2421875 36.046875 60.4453125 36.046875 60.4453125 33.4921875"></polygon>
        </g>
        <path d="M32,0 C49.673,0 64,14.327 64,32 C64,49.673 49.673,64 32,64 C14.327,64 0,49.673 0,32 C0,14.327 14.327,0 32,0 Z M31.9999861,5.9998 L26.5774533,22.8457902 L34.0295682,33.1994155 L21.9716594,37.1540912 L16.5491267,53.9998 L31.9999861,42.6686903 L47.4508454,53.9998 L41.5491406,35.6653549 L57,24.3342451 L37.9016908,24.3342451 L31.9999861,5.9998 Z M24.5476203,24.334217 L7,24.334217 L21.1964823,34.7458048 L29.9704318,31.8679376 L24.5476203,24.334217 Z" id="icon" fill="#000000"></path>
    </g>
</svg>