<?xml version="1.0" encoding="UTF-8"?>
<svg width="574px" height="64px" viewBox="0 0 574 64" version="1.1" xmlns="http://www.w3.org/2000/svg" xmlns:xlink="http://www.w3.org/1999/xlink">
    <title>logo/ecm/color-light/long/ecm-logo-color-light-long</title>
    <g id="logo/ecm/color-light/long/ecm-logo-color-light-long" stroke="none" stroke-width="1" fill="none" fill-rule="evenodd">
        <g id="Enterprise-Content-M" transform="translate(76.406250, 18.815430)" fill="#FFFFFF" fill-rule="nonzero">
            <polygon id="Path" points="2.4609375 22.2363281 2.4609375 3.88183594 0.0439453125 3.515625 0.0439453125 1.88964844 15.3076172 1.88964844 15.7177734 6.53320312 13.828125 6.53320312 12.9199219 3.75 5.90332031 3.55957031 5.90332031 11.8359375 10.6640625 11.7480469 11.1035156 9.31640625 12.9931641 9.31640625 12.9931641 16.2597656 11.1035156 16.2597656 10.6787109 13.6816406 5.90332031 13.6083984 5.90332031 22.3681641 13.9599609 22.0458984 15.6152344 18.3691406 17.4902344 18.9257812 16.6259766 24.1845703 0 24.1845703 0 22.5878906"></polygon>
            <path d="M21.6210938,22.3388672 L21.6210938,10.0634766 L19.5263672,9.47753906 L19.5263672,7.71972656 L23.8623047,7.13378906 L23.9355469,7.13378906 L24.6240234,7.70507812 L24.6240234,8.89160156 L24.609375,9.56542969 C25.0585938,9.16503906 25.6225586,8.77929688 26.3012695,8.40820312 C26.9799805,8.03710938 27.7075195,7.734375 28.4838867,7.5 C29.2602539,7.265625 29.9951172,7.1484375 30.6884766,7.1484375 C31.9580078,7.1484375 32.9394531,7.38525391 33.6328125,7.85888672 C34.3261719,8.33251953 34.8095703,9.0625 35.0830078,10.0488281 C35.3564453,11.0351562 35.4931641,12.3730469 35.4931641,14.0625 L35.4931641,22.3388672 L37.6025391,22.5878906 L37.6025391,24.1845703 L30.2490234,24.1845703 L30.2490234,22.5878906 L32.1240234,22.3388672 L32.1240234,14.0478516 C32.1240234,12.9150391 32.0483398,12.0239258 31.8969727,11.3745117 C31.7456055,10.7250977 31.4599609,10.2368164 31.0400391,9.90966797 C30.6201172,9.58251953 30,9.41894531 29.1796875,9.41894531 C28.4765625,9.41894531 27.7441406,9.5703125 26.9824219,9.87304688 C26.2207031,10.1757812 25.5517578,10.5419922 24.9755859,10.9716797 L24.9755859,22.3388672 L26.9970703,22.5878906 L26.9970703,24.1845703 L19.7021484,24.1845703 L19.7021484,22.5878906 L21.6210938,22.3388672 Z" id="Path"></path>
            <path d="M39.3310547,9.62402344 L39.3310547,8.23242188 C39.6044922,8.1640625 39.9194336,8.06640625 40.2758789,7.93945312 C40.6323242,7.8125 40.8642578,7.71484375 40.9716797,7.64648438 C41.2939453,7.41210938 41.5576172,7.03125 41.7626953,6.50390625 C41.9091797,6.171875 42.1020508,5.64208984 42.3413086,4.91455078 C42.5805664,4.18701172 42.7441406,3.63769531 42.8320312,3.26660156 L44.7363281,3.26660156 L44.765625,7.52929688 L49.6875,7.52929688 L49.6875,9.62402344 L44.7802734,9.62402344 L44.7802734,18.4863281 C44.7802734,19.6777344 44.8144531,20.5053711 44.8828125,20.9692383 C44.9511719,21.4331055 45.090332,21.730957 45.300293,21.862793 C45.5102539,21.9946289 45.8935547,22.0605469 46.4501953,22.0605469 L46.4648438,22.0605469 C46.9726562,22.0605469 47.5463867,21.9970703 48.1860352,21.8701172 C48.8256836,21.7431641 49.3212891,21.6113281 49.6728516,21.4746094 L49.6875,21.4746094 L50.1855469,22.8955078 C49.8925781,23.1396484 49.453125,23.3862305 48.8671875,23.6352539 C48.28125,23.8842773 47.6513672,24.0917969 46.9775391,24.2578125 C46.3037109,24.4238281 45.6835938,24.5068359 45.1171875,24.5068359 L45.0878906,24.5068359 C43.8769531,24.5068359 42.9638672,24.2407227 42.3486328,23.7084961 C41.7333984,23.1762695 41.4257812,22.2851562 41.4257812,21.0351562 L41.4257812,9.62402344 L39.3310547,9.62402344 Z" id="Path"></path>
            <path d="M51.8115234,15.8203125 C51.8115234,14.1015625 52.1484375,12.578125 52.8222656,11.25 C53.4960938,9.921875 54.4287109,8.89404297 55.6201172,8.16650391 C56.8115234,7.43896484 58.1640625,7.07519531 59.6777344,7.07519531 C61.5527344,7.07519531 63.0029297,7.58789062 64.0283203,8.61328125 C65.0537109,9.63867188 65.6005859,11.1181641 65.6689453,13.0517578 L65.6689453,13.5791016 C65.6689453,14.6044922 65.6103516,15.3857422 65.4931641,15.9228516 L55.3417969,15.9228516 C55.3808594,17.3583984 55.625,18.5498047 56.0742188,19.4970703 C56.5234375,20.4443359 57.1142578,21.1425781 57.8466797,21.5917969 C58.5791016,22.0410156 59.4042969,22.265625 60.3222656,22.265625 C61.1230469,22.265625 61.9458008,22.1264648 62.7905273,21.8481445 C63.6352539,21.5698242 64.296875,21.25 64.7753906,20.8886719 L65.390625,22.2949219 C65.0195312,22.6757812 64.5092773,23.0371094 63.8598633,23.3789062 C63.2104492,23.7207031 62.487793,23.996582 61.6918945,24.206543 C60.8959961,24.4165039 60.1074219,24.5214844 59.3261719,24.5214844 C57.6855469,24.5214844 56.3012695,24.1577148 55.1733398,23.4301758 C54.0454102,22.7026367 53.203125,21.6870117 52.6464844,20.3833008 C52.0898438,19.0795898 51.8115234,17.5585938 51.8115234,15.8203125 Z M62.1533203,14.2236328 C62.1923828,13.8720703 62.2119141,13.4521484 62.2119141,12.9638672 C62.2021484,11.7236328 61.9433594,10.7275391 61.4355469,9.97558594 C60.9277344,9.22363281 60.1269531,8.84765625 59.0332031,8.84765625 C57.9394531,8.84765625 57.0727539,9.25537109 56.4331055,10.0708008 C55.793457,10.8862305 55.4296875,12.2705078 55.3417969,14.2236328 L62.1533203,14.2236328 Z" id="Shape"></path>
            <path d="M70.5175781,22.3681641 L70.5175781,10.0634766 L68.4375,9.47753906 L68.4375,7.71972656 L72.6269531,7.13378906 L72.7001953,7.13378906 L73.4033203,7.70507812 L73.4033203,8.62792969 L73.3740234,10.5322266 L73.4033203,10.5322266 C73.5791016,10.2099609 73.918457,9.77783203 74.4213867,9.23583984 C74.9243164,8.69384766 75.5737305,8.19824219 76.3696289,7.74902344 C77.1655273,7.29980469 78.0322266,7.07519531 78.9697266,7.07519531 C79.3505859,7.07519531 79.6728516,7.12890625 79.9365234,7.23632812 L79.9365234,10.8398438 C79.7509766,10.7324219 79.5043945,10.6420898 79.1967773,10.5688477 C78.8891602,10.4956055 78.5595703,10.4589844 78.2080078,10.4589844 C77.2216797,10.4589844 76.3696289,10.5786133 75.6518555,10.8178711 C74.934082,11.0571289 74.3359375,11.3574219 73.8574219,11.71875 L73.8574219,22.3535156 L77.7099609,22.6171875 L77.7099609,24.1845703 L68.2177734,24.1845703 L68.2177734,22.6025391 L70.5175781,22.3681641 Z" id="Path"></path>
            <path d="M89.8388672,24.5214844 C89.3994141,24.5214844 88.9160156,24.4848633 88.3886719,24.4116211 C87.8613281,24.3383789 87.4169922,24.2529297 87.0556641,24.1552734 L87.1435547,26.6455078 L87.1435547,29.5458984 L90.1464844,29.8681641 L90.1464844,31.4501953 L81.6357422,31.4501953 L81.6357422,29.8681641 L83.8183594,29.53125 L83.8183594,10.0634766 L81.7236328,9.47753906 L81.7236328,7.71972656 L86.0449219,7.13378906 L86.1181641,7.13378906 L86.7773438,7.70507812 L86.7773438,9.375 C87.3632812,8.73046875 88.0859375,8.18603516 88.9453125,7.74169922 C89.8046875,7.29736328 90.7763672,7.07519531 91.8603516,7.07519531 C93.0517578,7.07519531 94.140625,7.36572266 95.1269531,7.94677734 C96.1132812,8.52783203 96.9042969,9.43115234 97.5,10.6567383 C98.0957031,11.8823242 98.3935547,13.4179688 98.3935547,15.2636719 C98.3935547,16.9726562 98.0444336,18.5302734 97.3461914,19.9365234 C96.6479492,21.3427734 95.6518555,22.4584961 94.3579102,23.2836914 C93.0639648,24.1088867 91.5576172,24.5214844 89.8388672,24.5214844 Z M87.1435547,21.9287109 C87.2802734,22.1728516 87.6147461,22.3876953 88.1469727,22.5732422 C88.6791992,22.7587891 89.2773438,22.8515625 89.9414062,22.8515625 C90.8886719,22.8515625 91.7260742,22.6000977 92.4536133,22.097168 C93.1811523,21.5942383 93.7548828,20.7983398 94.1748047,19.7094727 C94.5947266,18.6206055 94.8046875,17.2363281 94.8046875,15.5566406 C94.8046875,14.140625 94.6166992,12.96875 94.2407227,12.0410156 C93.8647461,11.1132812 93.3544922,10.4272461 92.7099609,9.98291016 C92.0654297,9.53857422 91.328125,9.31640625 90.4980469,9.31640625 C89.8046875,9.31640625 89.1601562,9.45800781 88.5644531,9.74121094 C87.96875,10.0244141 87.4951172,10.3564453 87.1435547,10.7373047 L87.1435547,21.9287109 Z" id="Shape"></path>
            <path d="M103.286133,22.3681641 L103.286133,10.0634766 L101.206055,9.47753906 L101.206055,7.71972656 L105.395508,7.13378906 L105.46875,7.13378906 L106.171875,7.70507812 L106.171875,8.62792969 L106.142578,10.5322266 L106.171875,10.5322266 C106.347656,10.2099609 106.687012,9.77783203 107.189941,9.23583984 C107.692871,8.69384766 108.342285,8.19824219 109.138184,7.74902344 C109.934082,7.29980469 110.800781,7.07519531 111.738281,7.07519531 C112.119141,7.07519531 112.441406,7.12890625 112.705078,7.23632812 L112.705078,10.8398438 C112.519531,10.7324219 112.272949,10.6420898 111.965332,10.5688477 C111.657715,10.4956055 111.328125,10.4589844 110.976562,10.4589844 C109.990234,10.4589844 109.138184,10.5786133 108.42041,10.8178711 C107.702637,11.0571289 107.104492,11.3574219 106.625977,11.71875 L106.625977,22.3535156 L110.478516,22.6171875 L110.478516,24.1845703 L100.986328,24.1845703 L100.986328,22.6025391 L103.286133,22.3681641 Z" id="Path"></path>
            <path d="M116.953125,22.3388672 L116.953125,10.0634766 L114.829102,9.46289062 L114.829102,7.734375 L119.487305,7.13378906 L119.560547,7.13378906 L120.307617,7.70507812 L120.307617,22.3388672 L122.651367,22.5878906 L122.651367,24.1845703 L114.580078,24.1845703 L114.580078,22.5878906 L116.953125,22.3388672 Z M116.352539,2.37304688 C116.352539,1.70898438 116.54541,1.14746094 116.931152,0.688476562 C117.316895,0.229492188 117.856445,0 118.549805,0 L118.564453,0 C118.974609,0 119.331055,0.0952148438 119.633789,0.285644531 C119.936523,0.476074219 120.168457,0.727539062 120.32959,1.04003906 C120.490723,1.35253906 120.571289,1.68457031 120.571289,2.03613281 C120.571289,2.71972656 120.375977,3.28125 119.985352,3.72070312 C119.594727,4.16015625 119.02832,4.37988281 118.286133,4.37988281 L118.271484,4.37988281 C117.705078,4.37988281 117.243652,4.18945312 116.887207,3.80859375 C116.530762,3.42773438 116.352539,2.94921875 116.352539,2.37304688 Z" id="Shape"></path>
            <path d="M127.280273,19.4238281 L127.866211,21.6503906 C127.983398,21.8554688 128.210449,22.0507812 128.547363,22.2363281 C128.884277,22.421875 129.282227,22.5732422 129.741211,22.6904297 C130.200195,22.8076172 130.668945,22.8662109 131.147461,22.8662109 C132.250977,22.8662109 133.037109,22.6586914 133.505859,22.2436523 C133.974609,21.8286133 134.208984,21.2597656 134.208984,20.5371094 C134.208984,20.0292969 134.050293,19.5825195 133.73291,19.1967773 C133.415527,18.8110352 132.944336,18.4472656 132.319336,18.1054688 C131.694336,17.7636719 130.844727,17.3779297 129.770508,16.9482422 C128.217773,16.3427734 127.084961,15.6274414 126.37207,14.8022461 C125.65918,13.9770508 125.302734,12.9101562 125.302734,11.6015625 C125.302734,10.7226562 125.568848,9.94873047 126.101074,9.27978516 C126.633301,8.61083984 127.363281,8.09082031 128.291016,7.71972656 C129.21875,7.34863281 130.263672,7.16308594 131.425781,7.16308594 C132.324219,7.16308594 133.115234,7.23388672 133.798828,7.37548828 C134.482422,7.51708984 135.170898,7.70019531 135.864258,7.92480469 L136.391602,8.0859375 L136.391602,11.7919922 L134.516602,11.7919922 L133.886719,9.74121094 C133.769531,9.48730469 133.45459,9.26757812 132.941895,9.08203125 C132.429199,8.89648438 131.855469,8.80371094 131.220703,8.80371094 C130.322266,8.80371094 129.628906,8.99414062 129.140625,9.375 C128.652344,9.75585938 128.408203,10.2539062 128.408203,10.8691406 C128.408203,11.4160156 128.552246,11.875 128.840332,12.2460938 C129.128418,12.6171875 129.487305,12.9199219 129.916992,13.1542969 C130.34668,13.3886719 130.947266,13.6669922 131.71875,13.9892578 L132.290039,14.2382812 C133.40332,14.7167969 134.306641,15.1660156 135,15.5859375 C135.693359,16.0058594 136.269531,16.5429688 136.728516,17.1972656 C137.1875,17.8515625 137.416992,18.6523438 137.416992,19.5996094 C137.416992,20.5761719 137.160645,21.4355469 136.647949,22.1777344 C136.135254,22.9199219 135.393066,23.4960938 134.421387,23.90625 C133.449707,24.3164062 132.299805,24.5214844 130.97168,24.5214844 C129.975586,24.5214844 128.930664,24.3847656 127.836914,24.1113281 C126.743164,23.8378906 125.869141,23.5546875 125.214844,23.2617188 L125.214844,19.4238281 L127.280273,19.4238281 Z" id="Path"></path>
            <path d="M139.995117,15.8203125 C139.995117,14.1015625 140.332031,12.578125 141.005859,11.25 C141.679688,9.921875 142.612305,8.89404297 143.803711,8.16650391 C144.995117,7.43896484 146.347656,7.07519531 147.861328,7.07519531 C149.736328,7.07519531 151.186523,7.58789062 152.211914,8.61328125 C153.237305,9.63867188 153.78418,11.1181641 153.852539,13.0517578 L153.852539,13.5791016 C153.852539,14.6044922 153.793945,15.3857422 153.676758,15.9228516 L143.525391,15.9228516 C143.564453,17.3583984 143.808594,18.5498047 144.257812,19.4970703 C144.707031,20.4443359 145.297852,21.1425781 146.030273,21.5917969 C146.762695,22.0410156 147.587891,22.265625 148.505859,22.265625 C149.306641,22.265625 150.129395,22.1264648 150.974121,21.8481445 C151.818848,21.5698242 152.480469,21.25 152.958984,20.8886719 L153.574219,22.2949219 C153.203125,22.6757812 152.692871,23.0371094 152.043457,23.3789062 C151.394043,23.7207031 150.671387,23.996582 149.875488,24.206543 C149.07959,24.4165039 148.291016,24.5214844 147.509766,24.5214844 C145.869141,24.5214844 144.484863,24.1577148 143.356934,23.4301758 C142.229004,22.7026367 141.386719,21.6870117 140.830078,20.3833008 C140.273438,19.0795898 139.995117,17.5585938 139.995117,15.8203125 Z M150.336914,14.2236328 C150.375977,13.8720703 150.395508,13.4521484 150.395508,12.9638672 C150.385742,11.7236328 150.126953,10.7275391 149.619141,9.97558594 C149.111328,9.22363281 148.310547,8.84765625 147.216797,8.84765625 C146.123047,8.84765625 145.256348,9.25537109 144.616699,10.0708008 C143.977051,10.8862305 143.613281,12.2705078 143.525391,14.2236328 L150.336914,14.2236328 Z" id="Shape"></path>
            <path d="M165.029297,13.0224609 C165.029297,10.7177734 165.505371,8.70605469 166.45752,6.98730469 C167.409668,5.26855469 168.710938,3.95019531 170.361328,3.03222656 C172.011719,2.11425781 173.857422,1.65527344 175.898438,1.65527344 C176.835938,1.65527344 177.741699,1.72363281 178.615723,1.86035156 C179.489746,1.99707031 180.478516,2.17773438 181.582031,2.40234375 L182.373047,2.56347656 L182.094727,8.04199219 L179.912109,8.04199219 L179.091797,4.30664062 C178.886719,4.03320312 178.47168,3.81591797 177.84668,3.65478516 C177.22168,3.49365234 176.401367,3.41308594 175.385742,3.41308594 C174.135742,3.41308594 173.029785,3.76953125 172.067871,4.48242188 C171.105957,5.1953125 170.354004,6.24755859 169.812012,7.63916016 C169.27002,9.03076172 168.999023,10.7080078 168.999023,12.6708984 C168.999023,14.4873047 169.240723,16.159668 169.724121,17.6879883 C170.20752,19.2163086 170.95459,20.4467773 171.965332,21.3793945 C172.976074,22.3120117 174.238281,22.7783203 175.751953,22.7783203 C177.324219,22.7783203 178.452148,22.4169922 179.135742,21.6943359 L180.410156,18.6035156 L182.490234,18.8818359 L181.845703,23.3642578 C181.582031,23.3837891 181.328125,23.425293 181.083984,23.4887695 C180.839844,23.5522461 180.522461,23.6523438 180.131836,23.7890625 C179.467773,24.0234375 178.833008,24.2041016 178.227539,24.3310547 C177.62207,24.4580078 176.875,24.5214844 175.986328,24.5214844 C173.662109,24.5214844 171.679688,24.0649414 170.039062,23.1518555 C168.398438,22.2387695 167.15332,20.9228516 166.303711,19.2041016 C165.454102,17.4853516 165.029297,15.4248047 165.029297,13.0224609 Z" id="Path"></path>
            <path d="M192.714844,7.07519531 C194.414062,7.07519531 195.830078,7.45117188 196.962891,8.203125 C198.095703,8.95507812 198.935547,9.98779297 199.482422,11.3012695 C200.029297,12.6147461 200.302734,14.1162109 200.302734,15.8056641 C200.302734,17.6123047 199.929199,19.1748047 199.182129,20.4931641 C198.435059,21.8115234 197.453613,22.8125 196.237793,23.4960938 C195.021973,24.1796875 193.725586,24.5214844 192.348633,24.5214844 C190.649414,24.5214844 189.23584,24.1455078 188.10791,23.3935547 C186.97998,22.6416016 186.142578,21.6088867 185.595703,20.2954102 C185.048828,18.9819336 184.775391,17.4804688 184.775391,15.7910156 C184.775391,14.0039062 185.148926,12.4511719 185.895996,11.1328125 C186.643066,9.81445312 187.624512,8.80859375 188.840332,8.11523438 C190.056152,7.421875 191.347656,7.07519531 192.714844,7.07519531 Z M196.59668,16.0693359 C196.59668,13.8720703 196.271973,12.1264648 195.622559,10.8325195 C194.973145,9.53857422 193.945312,8.89160156 192.539062,8.89160156 C191.191406,8.89160156 190.175781,9.44580078 189.492188,10.5541992 C188.808594,11.6625977 188.466797,13.3203125 188.466797,15.5273438 C188.466797,17.7246094 188.796387,19.4702148 189.455566,20.7641602 C190.114746,22.0581055 191.142578,22.7050781 192.539062,22.7050781 C195.244141,22.7050781 196.59668,20.4931641 196.59668,16.0693359 Z" id="Shape"></path>
            <path d="M204.873047,22.3388672 L204.873047,10.0634766 L202.77832,9.47753906 L202.77832,7.71972656 L207.114258,7.13378906 L207.1875,7.13378906 L207.875977,7.70507812 L207.875977,8.89160156 L207.861328,9.56542969 C208.310547,9.16503906 208.874512,8.77929688 209.553223,8.40820312 C210.231934,8.03710938 210.959473,7.734375 211.73584,7.5 C212.512207,7.265625 213.24707,7.1484375 213.94043,7.1484375 C215.209961,7.1484375 216.191406,7.38525391 216.884766,7.85888672 C217.578125,8.33251953 218.061523,9.0625 218.334961,10.0488281 C218.608398,11.0351562 218.745117,12.3730469 218.745117,14.0625 L218.745117,22.3388672 L220.854492,22.5878906 L220.854492,24.1845703 L213.500977,24.1845703 L213.500977,22.5878906 L215.375977,22.3388672 L215.375977,14.0478516 C215.375977,12.9150391 215.300293,12.0239258 215.148926,11.3745117 C214.997559,10.7250977 214.711914,10.2368164 214.291992,9.90966797 C213.87207,9.58251953 213.251953,9.41894531 212.431641,9.41894531 C211.728516,9.41894531 210.996094,9.5703125 210.234375,9.87304688 C209.472656,10.1757812 208.803711,10.5419922 208.227539,10.9716797 L208.227539,22.3388672 L210.249023,22.5878906 L210.249023,24.1845703 L202.954102,24.1845703 L202.954102,22.5878906 L204.873047,22.3388672 Z" id="Path"></path>
            <path d="M222.583008,9.62402344 L222.583008,8.23242188 C222.856445,8.1640625 223.171387,8.06640625 223.527832,7.93945312 C223.884277,7.8125 224.116211,7.71484375 224.223633,7.64648438 C224.545898,7.41210938 224.80957,7.03125 225.014648,6.50390625 C225.161133,6.171875 225.354004,5.64208984 225.593262,4.91455078 C225.83252,4.18701172 225.996094,3.63769531 226.083984,3.26660156 L227.988281,3.26660156 L228.017578,7.52929688 L232.939453,7.52929688 L232.939453,9.62402344 L228.032227,9.62402344 L228.032227,18.4863281 C228.032227,19.6777344 228.066406,20.5053711 228.134766,20.9692383 C228.203125,21.4331055 228.342285,21.730957 228.552246,21.862793 C228.762207,21.9946289 229.145508,22.0605469 229.702148,22.0605469 L229.716797,22.0605469 C230.224609,22.0605469 230.79834,21.9970703 231.437988,21.8701172 C232.077637,21.7431641 232.573242,21.6113281 232.924805,21.4746094 L232.939453,21.4746094 L233.4375,22.8955078 C233.144531,23.1396484 232.705078,23.3862305 232.119141,23.6352539 C231.533203,23.8842773 230.90332,24.0917969 230.229492,24.2578125 C229.555664,24.4238281 228.935547,24.5068359 228.369141,24.5068359 L228.339844,24.5068359 C227.128906,24.5068359 226.21582,24.2407227 225.600586,23.7084961 C224.985352,23.1762695 224.677734,22.2851562 224.677734,21.0351562 L224.677734,9.62402344 L222.583008,9.62402344 Z" id="Path"></path>
            <path d="M235.063477,15.8203125 C235.063477,14.1015625 235.400391,12.578125 236.074219,11.25 C236.748047,9.921875 237.680664,8.89404297 238.87207,8.16650391 C240.063477,7.43896484 241.416016,7.07519531 242.929688,7.07519531 C244.804688,7.07519531 246.254883,7.58789062 247.280273,8.61328125 C248.305664,9.63867188 248.852539,11.1181641 248.920898,13.0517578 L248.920898,13.5791016 C248.920898,14.6044922 248.862305,15.3857422 248.745117,15.9228516 L238.59375,15.9228516 C238.632812,17.3583984 238.876953,18.5498047 239.326172,19.4970703 C239.775391,20.4443359 240.366211,21.1425781 241.098633,21.5917969 C241.831055,22.0410156 242.65625,22.265625 243.574219,22.265625 C244.375,22.265625 245.197754,22.1264648 246.04248,21.8481445 C246.887207,21.5698242 247.548828,21.25 248.027344,20.8886719 L248.642578,22.2949219 C248.271484,22.6757812 247.76123,23.0371094 247.111816,23.3789062 C246.462402,23.7207031 245.739746,23.996582 244.943848,24.206543 C244.147949,24.4165039 243.359375,24.5214844 242.578125,24.5214844 C240.9375,24.5214844 239.553223,24.1577148 238.425293,23.4301758 C237.297363,22.7026367 236.455078,21.6870117 235.898438,20.3833008 C235.341797,19.0795898 235.063477,17.5585938 235.063477,15.8203125 Z M245.405273,14.2236328 C245.444336,13.8720703 245.463867,13.4521484 245.463867,12.9638672 C245.454102,11.7236328 245.195312,10.7275391 244.6875,9.97558594 C244.179688,9.22363281 243.378906,8.84765625 242.285156,8.84765625 C241.191406,8.84765625 240.324707,9.25537109 239.685059,10.0708008 C239.04541,10.8862305 238.681641,12.2705078 238.59375,14.2236328 L245.405273,14.2236328 Z" id="Shape"></path>
            <path d="M253.520508,22.3388672 L253.520508,10.0634766 L251.425781,9.47753906 L251.425781,7.71972656 L255.761719,7.13378906 L255.834961,7.13378906 L256.523438,7.70507812 L256.523438,8.89160156 L256.508789,9.56542969 C256.958008,9.16503906 257.521973,8.77929688 258.200684,8.40820312 C258.879395,8.03710938 259.606934,7.734375 260.383301,7.5 C261.159668,7.265625 261.894531,7.1484375 262.587891,7.1484375 C263.857422,7.1484375 264.838867,7.38525391 265.532227,7.85888672 C266.225586,8.33251953 266.708984,9.0625 266.982422,10.0488281 C267.255859,11.0351562 267.392578,12.3730469 267.392578,14.0625 L267.392578,22.3388672 L269.501953,22.5878906 L269.501953,24.1845703 L262.148438,24.1845703 L262.148438,22.5878906 L264.023438,22.3388672 L264.023438,14.0478516 C264.023438,12.9150391 263.947754,12.0239258 263.796387,11.3745117 C263.64502,10.7250977 263.359375,10.2368164 262.939453,9.90966797 C262.519531,9.58251953 261.899414,9.41894531 261.079102,9.41894531 C260.375977,9.41894531 259.643555,9.5703125 258.881836,9.87304688 C258.120117,10.1757812 257.451172,10.5419922 256.875,10.9716797 L256.875,22.3388672 L258.896484,22.5878906 L258.896484,24.1845703 L251.601562,24.1845703 L251.601562,22.5878906 L253.520508,22.3388672 Z" id="Path"></path>
            <path d="M271.230469,9.62402344 L271.230469,8.23242188 C271.503906,8.1640625 271.818848,8.06640625 272.175293,7.93945312 C272.531738,7.8125 272.763672,7.71484375 272.871094,7.64648438 C273.193359,7.41210938 273.457031,7.03125 273.662109,6.50390625 C273.808594,6.171875 274.001465,5.64208984 274.240723,4.91455078 C274.47998,4.18701172 274.643555,3.63769531 274.731445,3.26660156 L276.635742,3.26660156 L276.665039,7.52929688 L281.586914,7.52929688 L281.586914,9.62402344 L276.679688,9.62402344 L276.679688,18.4863281 C276.679688,19.6777344 276.713867,20.5053711 276.782227,20.9692383 C276.850586,21.4331055 276.989746,21.730957 277.199707,21.862793 C277.409668,21.9946289 277.792969,22.0605469 278.349609,22.0605469 L278.364258,22.0605469 C278.87207,22.0605469 279.445801,21.9970703 280.085449,21.8701172 C280.725098,21.7431641 281.220703,21.6113281 281.572266,21.4746094 L281.586914,21.4746094 L282.084961,22.8955078 C281.791992,23.1396484 281.352539,23.3862305 280.766602,23.6352539 C280.180664,23.8842773 279.550781,24.0917969 278.876953,24.2578125 C278.203125,24.4238281 277.583008,24.5068359 277.016602,24.5068359 L276.987305,24.5068359 C275.776367,24.5068359 274.863281,24.2407227 274.248047,23.7084961 C273.632812,23.1762695 273.325195,22.2851562 273.325195,21.0351562 L273.325195,9.62402344 L271.230469,9.62402344 Z" id="Path"></path>
            <polygon id="Path" points="294.111328 22.2509766 296.308594 3.88183594 293.173828 3.515625 293.173828 1.88964844 301.171875 1.88964844 305.771484 15.3222656 306.533203 18.6914062 307.192383 15.3222656 311.25 1.88964844 319.248047 1.88964844 319.248047 3.515625 315.996094 3.89648438 318.837891 22.2363281 321.459961 22.5878906 321.459961 24.1845703 312.758789 24.1845703 312.758789 22.5878906 315.351562 22.2509766 313.505859 8.95019531 312.861328 3.10546875 311.850586 7.11914062 307.075195 23.1884766 305.185547 23.1884766 299.897461 8.75976562 298.271484 3.12011719 297.802734 8.93554688 296.616211 22.2363281 299.501953 22.5878906 299.501953 24.1845703 291.503906 24.1845703 291.503906 22.5878906"></polygon>
            <path d="M332.519531,13.3007812 C332.519531,12.3828125 332.424316,11.6601562 332.233887,11.1328125 C332.043457,10.6054688 331.713867,10.2197266 331.245117,9.97558594 C330.776367,9.73144531 330.112305,9.609375 329.25293,9.609375 C327.602539,9.609375 325.864258,10.0732422 324.038086,11.0009766 L324.023438,11.0009766 L323.291016,9.47753906 C323.554688,9.24316406 324.060059,8.94042969 324.807129,8.56933594 C325.554199,8.19824219 326.403809,7.87353516 327.355957,7.59521484 C328.308105,7.31689453 329.213867,7.17773438 330.073242,7.17773438 C331.499023,7.17773438 332.619629,7.37060547 333.435059,7.75634766 C334.250488,8.14208984 334.838867,8.75976562 335.200195,9.609375 C335.561523,10.4589844 335.742188,11.6064453 335.742188,13.0517578 L335.742188,22.5732422 L337.529297,22.5732422 L337.529297,24.0087891 C336.103516,24.3505859 335.029297,24.5214844 334.306641,24.5214844 C333.896484,24.5214844 333.583984,24.4873047 333.369141,24.4189453 C333.154297,24.3505859 332.995605,24.2114258 332.893066,24.0014648 C332.790527,23.7915039 332.739258,23.4667969 332.739258,23.0273438 L332.739258,22.3242188 C332.211914,22.8417969 331.518555,23.3374023 330.65918,23.8110352 C329.799805,24.284668 328.837891,24.5214844 327.773438,24.5214844 C326.835938,24.5214844 325.983887,24.3505859 325.217285,24.0087891 C324.450684,23.6669922 323.840332,23.1396484 323.38623,22.4267578 C322.932129,21.7138672 322.705078,20.8251953 322.705078,19.7607422 C322.705078,18.4619141 323.156738,17.3925781 324.060059,16.5527344 C324.963379,15.7128906 326.149902,15.0952148 327.619629,14.699707 C329.089355,14.3041992 330.722656,14.0917969 332.519531,14.0625 L332.519531,13.3007812 Z M332.519531,15.7177734 C331.083984,15.7177734 329.904785,15.8813477 328.981934,16.2084961 C328.059082,16.5356445 327.390137,16.9677734 326.975098,17.5048828 C326.560059,18.0419922 326.352539,18.6523438 326.352539,19.3359375 C326.352539,20.3613281 326.606445,21.1132812 327.114258,21.5917969 C327.62207,22.0703125 328.305664,22.3095703 329.165039,22.3095703 C329.624023,22.3095703 330.178223,22.1801758 330.827637,21.9213867 C331.477051,21.6625977 332.041016,21.3476562 332.519531,20.9765625 L332.519531,15.7177734 Z" id="Shape"></path>
            <path d="M341.689453,22.3388672 L341.689453,10.0634766 L339.594727,9.47753906 L339.594727,7.71972656 L343.930664,7.13378906 L344.003906,7.13378906 L344.692383,7.70507812 L344.692383,8.89160156 L344.677734,9.56542969 C345.126953,9.16503906 345.690918,8.77929688 346.369629,8.40820312 C347.04834,8.03710938 347.775879,7.734375 348.552246,7.5 C349.328613,7.265625 350.063477,7.1484375 350.756836,7.1484375 C352.026367,7.1484375 353.007812,7.38525391 353.701172,7.85888672 C354.394531,8.33251953 354.87793,9.0625 355.151367,10.0488281 C355.424805,11.0351562 355.561523,12.3730469 355.561523,14.0625 L355.561523,22.3388672 L357.670898,22.5878906 L357.670898,24.1845703 L350.317383,24.1845703 L350.317383,22.5878906 L352.192383,22.3388672 L352.192383,14.0478516 C352.192383,12.9150391 352.116699,12.0239258 351.965332,11.3745117 C351.813965,10.7250977 351.52832,10.2368164 351.108398,9.90966797 C350.688477,9.58251953 350.068359,9.41894531 349.248047,9.41894531 C348.544922,9.41894531 347.8125,9.5703125 347.050781,9.87304688 C346.289062,10.1757812 345.620117,10.5419922 345.043945,10.9716797 L345.043945,22.3388672 L347.06543,22.5878906 L347.06543,24.1845703 L339.770508,24.1845703 L339.770508,22.5878906 L341.689453,22.3388672 Z" id="Path"></path>
            <path d="M369.477539,13.3007812 C369.477539,12.3828125 369.382324,11.6601562 369.191895,11.1328125 C369.001465,10.6054688 368.671875,10.2197266 368.203125,9.97558594 C367.734375,9.73144531 367.070312,9.609375 366.210938,9.609375 C364.560547,9.609375 362.822266,10.0732422 360.996094,11.0009766 L360.981445,11.0009766 L360.249023,9.47753906 C360.512695,9.24316406 361.018066,8.94042969 361.765137,8.56933594 C362.512207,8.19824219 363.361816,7.87353516 364.313965,7.59521484 C365.266113,7.31689453 366.171875,7.17773438 367.03125,7.17773438 C368.457031,7.17773438 369.577637,7.37060547 370.393066,7.75634766 C371.208496,8.14208984 371.796875,8.75976562 372.158203,9.609375 C372.519531,10.4589844 372.700195,11.6064453 372.700195,13.0517578 L372.700195,22.5732422 L374.487305,22.5732422 L374.487305,24.0087891 C373.061523,24.3505859 371.987305,24.5214844 371.264648,24.5214844 C370.854492,24.5214844 370.541992,24.4873047 370.327148,24.4189453 C370.112305,24.3505859 369.953613,24.2114258 369.851074,24.0014648 C369.748535,23.7915039 369.697266,23.4667969 369.697266,23.0273438 L369.697266,22.3242188 C369.169922,22.8417969 368.476562,23.3374023 367.617188,23.8110352 C366.757812,24.284668 365.795898,24.5214844 364.731445,24.5214844 C363.793945,24.5214844 362.941895,24.3505859 362.175293,24.0087891 C361.408691,23.6669922 360.79834,23.1396484 360.344238,22.4267578 C359.890137,21.7138672 359.663086,20.8251953 359.663086,19.7607422 C359.663086,18.4619141 360.114746,17.3925781 361.018066,16.5527344 C361.921387,15.7128906 363.10791,15.0952148 364.577637,14.699707 C366.047363,14.3041992 367.680664,14.0917969 369.477539,14.0625 L369.477539,13.3007812 Z M369.477539,15.7177734 C368.041992,15.7177734 366.862793,15.8813477 365.939941,16.2084961 C365.01709,16.5356445 364.348145,16.9677734 363.933105,17.5048828 C363.518066,18.0419922 363.310547,18.6523438 363.310547,19.3359375 C363.310547,20.3613281 363.564453,21.1132812 364.072266,21.5917969 C364.580078,22.0703125 365.263672,22.3095703 366.123047,22.3095703 C366.582031,22.3095703 367.13623,22.1801758 367.785645,21.9213867 C368.435059,21.6625977 368.999023,21.3476562 369.477539,20.9765625 L369.477539,15.7177734 Z" id="Shape"></path>
            <path d="M383.745117,18.2519531 C382.944336,18.2519531 382.197266,18.1689453 381.503906,18.0029297 C381.230469,18.2470703 381.015625,18.527832 380.859375,18.8452148 C380.703125,19.1625977 380.625,19.4873047 380.625,19.8193359 C380.625,20.3076172 380.739746,20.6811523 380.969238,20.9399414 C381.19873,21.1987305 381.54541,21.3769531 382.009277,21.4746094 C382.473145,21.5722656 383.110352,21.6210938 383.920898,21.6210938 L387.114258,21.6210938 C390.932617,21.6210938 392.841797,23.0859375 392.841797,26.015625 C392.841797,27.1484375 392.438965,28.1933594 391.633301,29.1503906 C390.827637,30.1074219 389.750977,30.8666992 388.40332,31.4282227 C387.055664,31.9897461 385.610352,32.2705078 384.067383,32.2705078 L384.052734,32.2705078 C381.435547,32.2705078 379.536133,31.8725586 378.354492,31.0766602 C377.172852,30.2807617 376.582031,29.1552734 376.582031,27.7001953 C376.582031,26.7919922 376.848145,25.9692383 377.380371,25.2319336 C377.912598,24.4946289 378.554688,23.9355469 379.306641,23.5546875 C378.359375,23.0175781 377.885742,22.1972656 377.885742,21.09375 C377.885742,20.3613281 378.095703,19.6850586 378.515625,19.0649414 C378.935547,18.4448242 379.487305,17.9443359 380.170898,17.5634766 C379.194336,17.1142578 378.444824,16.4770508 377.922363,15.6518555 C377.399902,14.8266602 377.138672,13.8623047 377.138672,12.7587891 C377.138672,11.6064453 377.46582,10.6005859 378.120117,9.74121094 C378.774414,8.88183594 379.633789,8.22509766 380.698242,7.77099609 C381.762695,7.31689453 382.900391,7.08496094 384.111328,7.07519531 L384.125977,7.07519531 C385.180664,7.07519531 386.12793,7.19482422 386.967773,7.43408203 C387.807617,7.67333984 388.515625,8.02734375 389.091797,8.49609375 C389.384766,8.15429688 389.824219,7.82714844 390.410156,7.51464844 C390.996094,7.20214844 391.68457,7.04589844 392.475586,7.04589844 L393.266602,7.04589844 L393.266602,9.88769531 L390.19043,9.88769531 C390.532227,10.6005859 390.703125,11.3867188 390.703125,12.2460938 C390.703125,13.4179688 390.400391,14.4604492 389.794922,15.3735352 C389.189453,16.2866211 388.359375,16.9946289 387.304688,17.4975586 C386.25,18.0004883 385.068359,18.2519531 383.759766,18.2519531 L383.745117,18.2519531 Z M383.920898,8.7890625 C382.866211,8.7890625 382.04834,9.07470703 381.467285,9.64599609 C380.88623,10.2172852 380.595703,11.1523438 380.595703,12.4511719 C380.595703,13.6816406 380.871582,14.6655273 381.42334,15.402832 C381.975098,16.1401367 382.856445,16.5087891 384.067383,16.5087891 L384.082031,16.5087891 C385.195312,16.5087891 386.003418,16.1767578 386.506348,15.5126953 C387.009277,14.8486328 387.260742,13.8769531 387.260742,12.5976562 C387.260742,11.2890625 386.989746,10.3271484 386.447754,9.71191406 C385.905762,9.09667969 385.068359,8.7890625 383.935547,8.7890625 L383.920898,8.7890625 Z M380.800781,24.0673828 C380.175781,24.8388672 379.863281,25.7617188 379.863281,26.8359375 C379.863281,28.0078125 380.209961,28.8964844 380.90332,29.5019531 C381.59668,30.1074219 382.734375,30.4101562 384.316406,30.4101562 L384.345703,30.4101562 C385.224609,30.4101562 386.064453,30.2734375 386.865234,30 C387.666016,29.7265625 388.31543,29.3212891 388.813477,28.7841797 C389.311523,28.2470703 389.560547,27.6074219 389.560547,26.8652344 C389.560547,26.2304688 389.465332,25.7299805 389.274902,25.3637695 C389.084473,24.9975586 388.735352,24.7216797 388.227539,24.5361328 C387.719727,24.3505859 386.982422,24.2578125 386.015625,24.2578125 L383.071289,24.2578125 C382.270508,24.2578125 381.513672,24.1943359 380.800781,24.0673828 Z" id="Shape"></path>
            <path d="M394.833984,15.8203125 C394.833984,14.1015625 395.170898,12.578125 395.844727,11.25 C396.518555,9.921875 397.451172,8.89404297 398.642578,8.16650391 C399.833984,7.43896484 401.186523,7.07519531 402.700195,7.07519531 C404.575195,7.07519531 406.025391,7.58789062 407.050781,8.61328125 C408.076172,9.63867188 408.623047,11.1181641 408.691406,13.0517578 L408.691406,13.5791016 C408.691406,14.6044922 408.632812,15.3857422 408.515625,15.9228516 L398.364258,15.9228516 C398.40332,17.3583984 398.647461,18.5498047 399.09668,19.4970703 C399.545898,20.4443359 400.136719,21.1425781 400.869141,21.5917969 C401.601562,22.0410156 402.426758,22.265625 403.344727,22.265625 C404.145508,22.265625 404.968262,22.1264648 405.812988,21.8481445 C406.657715,21.5698242 407.319336,21.25 407.797852,20.8886719 L408.413086,22.2949219 C408.041992,22.6757812 407.531738,23.0371094 406.882324,23.3789062 C406.23291,23.7207031 405.510254,23.996582 404.714355,24.206543 C403.918457,24.4165039 403.129883,24.5214844 402.348633,24.5214844 C400.708008,24.5214844 399.32373,24.1577148 398.195801,23.4301758 C397.067871,22.7026367 396.225586,21.6870117 395.668945,20.3833008 C395.112305,19.0795898 394.833984,17.5585938 394.833984,15.8203125 Z M405.175781,14.2236328 C405.214844,13.8720703 405.234375,13.4521484 405.234375,12.9638672 C405.224609,11.7236328 404.96582,10.7275391 404.458008,9.97558594 C403.950195,9.22363281 403.149414,8.84765625 402.055664,8.84765625 C400.961914,8.84765625 400.095215,9.25537109 399.455566,10.0708008 C398.815918,10.8862305 398.452148,12.2705078 398.364258,14.2236328 L405.175781,14.2236328 Z" id="Shape"></path>
            <path d="M413.291016,22.3535156 L413.291016,10.0634766 L411.196289,9.47753906 L411.196289,7.71972656 L415.517578,7.13378906 L415.59082,7.13378906 L416.293945,7.70507812 L416.293945,8.89160156 L416.264648,9.56542969 C416.704102,9.16503906 417.272949,8.77929688 417.971191,8.40820312 C418.669434,8.03710938 419.406738,7.734375 420.183105,7.5 C420.959473,7.265625 421.665039,7.1484375 422.299805,7.1484375 C423.374023,7.1484375 424.238281,7.32910156 424.892578,7.69042969 C425.546875,8.05175781 426.044922,8.61328125 426.386719,9.375 C426.767578,9.04296875 427.29248,8.70361328 427.961426,8.35693359 C428.630371,8.01025391 429.345703,7.72216797 430.107422,7.49267578 C430.869141,7.26318359 431.577148,7.1484375 432.231445,7.1484375 C433.500977,7.1484375 434.487305,7.38525391 435.19043,7.85888672 C435.893555,8.33251953 436.386719,9.06005859 436.669922,10.0415039 C436.953125,11.0229492 437.094727,12.3486328 437.094727,14.0185547 L437.094727,22.3535156 L439.189453,22.6025391 L439.189453,24.1845703 L432.011719,24.1845703 L432.011719,22.6025391 L433.740234,22.3388672 L433.740234,14.1210938 C433.740234,12.9785156 433.657227,12.0751953 433.491211,11.4111328 C433.325195,10.7470703 433.012695,10.246582 432.553711,9.90966797 C432.094727,9.57275391 431.435547,9.40429688 430.576172,9.40429688 C429.980469,9.40429688 429.331055,9.54101562 428.62793,9.81445312 C427.924805,10.0878906 427.319336,10.4052734 426.811523,10.7666016 C426.987305,11.6064453 427.075195,12.7050781 427.075195,14.0625 L427.075195,22.3388672 L429.213867,22.6025391 L429.213867,24.1845703 L421.772461,24.1845703 L421.772461,22.6025391 L423.720703,22.3388672 L423.720703,14.0478516 C423.720703,12.9052734 423.647461,12.0117188 423.500977,11.3671875 C423.354492,10.7226562 423.068848,10.2368164 422.644043,9.90966797 C422.219238,9.58251953 421.59668,9.41894531 420.776367,9.41894531 C420.092773,9.41894531 419.375,9.56542969 418.623047,9.85839844 C417.871094,10.1513672 417.211914,10.5126953 416.645508,10.9423828 L416.645508,22.3388672 L418.608398,22.6025391 L418.608398,24.1845703 L411.459961,24.1845703 L411.459961,22.6025391 L413.291016,22.3535156 Z" id="Path"></path>
            <path d="M441.210938,15.8203125 C441.210938,14.1015625 441.547852,12.578125 442.22168,11.25 C442.895508,9.921875 443.828125,8.89404297 445.019531,8.16650391 C446.210938,7.43896484 447.563477,7.07519531 449.077148,7.07519531 C450.952148,7.07519531 452.402344,7.58789062 453.427734,8.61328125 C454.453125,9.63867188 455,11.1181641 455.068359,13.0517578 L455.068359,13.5791016 C455.068359,14.6044922 455.009766,15.3857422 454.892578,15.9228516 L444.741211,15.9228516 C444.780273,17.3583984 445.024414,18.5498047 445.473633,19.4970703 C445.922852,20.4443359 446.513672,21.1425781 447.246094,21.5917969 C447.978516,22.0410156 448.803711,22.265625 449.72168,22.265625 C450.522461,22.265625 451.345215,22.1264648 452.189941,21.8481445 C453.034668,21.5698242 453.696289,21.25 454.174805,20.8886719 L454.790039,22.2949219 C454.418945,22.6757812 453.908691,23.0371094 453.259277,23.3789062 C452.609863,23.7207031 451.887207,23.996582 451.091309,24.206543 C450.29541,24.4165039 449.506836,24.5214844 448.725586,24.5214844 C447.084961,24.5214844 445.700684,24.1577148 444.572754,23.4301758 C443.444824,22.7026367 442.602539,21.6870117 442.045898,20.3833008 C441.489258,19.0795898 441.210938,17.5585938 441.210938,15.8203125 Z M451.552734,14.2236328 C451.591797,13.8720703 451.611328,13.4521484 451.611328,12.9638672 C451.601562,11.7236328 451.342773,10.7275391 450.834961,9.97558594 C450.327148,9.22363281 449.526367,8.84765625 448.432617,8.84765625 C447.338867,8.84765625 446.472168,9.25537109 445.83252,10.0708008 C445.192871,10.8862305 444.829102,12.2705078 444.741211,14.2236328 L451.552734,14.2236328 Z" id="Shape"></path>
            <path d="M459.667969,22.3388672 L459.667969,10.0634766 L457.573242,9.47753906 L457.573242,7.71972656 L461.90918,7.13378906 L461.982422,7.13378906 L462.670898,7.70507812 L462.670898,8.89160156 L462.65625,9.56542969 C463.105469,9.16503906 463.669434,8.77929688 464.348145,8.40820312 C465.026855,8.03710938 465.754395,7.734375 466.530762,7.5 C467.307129,7.265625 468.041992,7.1484375 468.735352,7.1484375 C470.004883,7.1484375 470.986328,7.38525391 471.679688,7.85888672 C472.373047,8.33251953 472.856445,9.0625 473.129883,10.0488281 C473.40332,11.0351562 473.540039,12.3730469 473.540039,14.0625 L473.540039,22.3388672 L475.649414,22.5878906 L475.649414,24.1845703 L468.295898,24.1845703 L468.295898,22.5878906 L470.170898,22.3388672 L470.170898,14.0478516 C470.170898,12.9150391 470.095215,12.0239258 469.943848,11.3745117 C469.79248,10.7250977 469.506836,10.2368164 469.086914,9.90966797 C468.666992,9.58251953 468.046875,9.41894531 467.226562,9.41894531 C466.523438,9.41894531 465.791016,9.5703125 465.029297,9.87304688 C464.267578,10.1757812 463.598633,10.5419922 463.022461,10.9716797 L463.022461,22.3388672 L465.043945,22.5878906 L465.043945,24.1845703 L457.749023,24.1845703 L457.749023,22.5878906 L459.667969,22.3388672 Z" id="Path"></path>
            <path d="M477.37793,9.62402344 L477.37793,8.23242188 C477.651367,8.1640625 477.966309,8.06640625 478.322754,7.93945312 C478.679199,7.8125 478.911133,7.71484375 479.018555,7.64648438 C479.34082,7.41210938 479.604492,7.03125 479.80957,6.50390625 C479.956055,6.171875 480.148926,5.64208984 480.388184,4.91455078 C480.627441,4.18701172 480.791016,3.63769531 480.878906,3.26660156 L482.783203,3.26660156 L482.8125,7.52929688 L487.734375,7.52929688 L487.734375,9.62402344 L482.827148,9.62402344 L482.827148,18.4863281 C482.827148,19.6777344 482.861328,20.5053711 482.929688,20.9692383 C482.998047,21.4331055 483.137207,21.730957 483.347168,21.862793 C483.557129,21.9946289 483.94043,22.0605469 484.49707,22.0605469 L484.511719,22.0605469 C485.019531,22.0605469 485.593262,21.9970703 486.23291,21.8701172 C486.872559,21.7431641 487.368164,21.6113281 487.719727,21.4746094 L487.734375,21.4746094 L488.232422,22.8955078 C487.939453,23.1396484 487.5,23.3862305 486.914062,23.6352539 C486.328125,23.8842773 485.698242,24.0917969 485.024414,24.2578125 C484.350586,24.4238281 483.730469,24.5068359 483.164062,24.5068359 L483.134766,24.5068359 C481.923828,24.5068359 481.010742,24.2407227 480.395508,23.7084961 C479.780273,23.1762695 479.472656,22.2851562 479.472656,21.0351562 L479.472656,9.62402344 L477.37793,9.62402344 Z" id="Path"></path>
        </g>
        <g id="mark/ecm">
            <path d="M32,64.0002 C14.327,64.0002 0,49.6732 0,32.0002 C0,14.3272 14.327,0.0002 32,0.0002 C49.673,0.0002 64,14.3272 64,32.0002 C64,49.6732 49.673,64.0002 32,64.0002 Z" id="circle" fill="#0053A2" fill-rule="nonzero"></path>
            <path d="M31.9999861,6 L37.9016908,24.3344451 L57,24.3344451 L41.5491406,35.6655549 L47.4508454,54 L31.9999861,42.6688903 L16.5491267,54 L21.9716594,37.1542912 L34.0295682,33.1996155 L26.5774533,22.8459902 L31.9999861,6 Z M24.5476203,24.334417 L29.9704318,31.8681376 L21.1964823,34.7460048 L7,24.334417 L24.5476203,24.334417 Z" id="icon" fill="#F5EA14"></path>
        </g>
    </g>
</svg>