<?xml version="1.0" encoding="UTF-8"?>
<svg width="173px" height="64px" viewBox="0 0 173 64" version="1.1" xmlns="http://www.w3.org/2000/svg" xmlns:xlink="http://www.w3.org/1999/xlink">
    <title>logo/eac/color-light/short/eac-logo-color-light-short</title>
    <g id="logo/eac/color-light/short/eac-logo-color-light-short" stroke="none" stroke-width="1" fill="none" fill-rule="evenodd">
        <g id="EAC" transform="translate(74.250000, 13.953125)" fill="#FFFFFF" fill-rule="nonzero">
            <polygon id="Path" points="3.9375 32.9296875 3.9375 3.5625 0.0703125 2.9765625 0.0703125 0.375 24.4921875 0.375 25.1484375 7.8046875 22.125 7.8046875 20.671875 3.3515625 9.4453125 3.046875 9.4453125 16.2890625 17.0625 16.1484375 17.765625 12.2578125 20.7890625 12.2578125 20.7890625 23.3671875 17.765625 23.3671875 17.0859375 19.2421875 9.4453125 19.125 9.4453125 33.140625 22.3359375 32.625 24.984375 26.7421875 27.984375 27.6328125 26.6015625 36.046875 0 36.046875 0 33.4921875"></polygon>
            <path d="M31.3125,32.9296875 L42.8671875,0.09375 L48.4453125,0.09375 L60.09375,32.9296875 L63.0703125,33.4921875 L63.0703125,36.046875 L50.203125,36.046875 L50.203125,33.4921875 L54.0234375,32.9296875 L51.796875,26.0859375 L38.015625,26.0859375 L35.8828125,32.9296875 L39.890625,33.4921875 L39.890625,36.046875 L28.359375,36.046875 L28.3359375,33.4921875 L31.3125,32.9296875 Z M50.8359375,23.109375 L45.8203125,7.7109375 L44.7890625,3.7734375 L43.7578125,7.7578125 L38.953125,23.109375 L50.8359375,23.109375 Z" id="Shape"></path>
            <path d="M63.890625,18.1875 C63.890625,14.5 64.6523438,11.28125 66.1757812,8.53125 C67.6992188,5.78125 69.78125,3.671875 72.421875,2.203125 C75.0625,0.734375 78.015625,0 81.28125,0 C82.78125,0 84.2304688,0.109375 85.6289062,0.328125 C87.0273438,0.546875 88.609375,0.8359375 90.375,1.1953125 L91.640625,1.453125 L91.1953125,10.21875 L87.703125,10.21875 L86.390625,4.2421875 C86.0625,3.8046875 85.3984375,3.45703125 84.3984375,3.19921875 C83.3984375,2.94140625 82.0859375,2.8125 80.4609375,2.8125 C78.4609375,2.8125 76.6914062,3.3828125 75.1523438,4.5234375 C73.6132812,5.6640625 72.4101562,7.34765625 71.5429688,9.57421875 C70.6757812,11.8007813 70.2421875,14.484375 70.2421875,17.625 C70.2421875,20.53125 70.6289062,23.2070312 71.4023438,25.6523438 C72.1757812,28.0976563 73.3710938,30.0664062 74.9882812,31.5585938 C76.6054688,33.0507812 78.625,33.796875 81.046875,33.796875 C83.5625,33.796875 85.3671875,33.21875 86.4609375,32.0625 L88.5,27.1171875 L91.828125,27.5625 L90.796875,34.734375 C90.375,34.765625 89.96875,34.8320312 89.578125,34.9335938 C89.1875,35.0351562 88.6796875,35.1953125 88.0546875,35.4140625 C86.9921875,35.7890625 85.9765625,36.078125 85.0078125,36.28125 C84.0390625,36.484375 82.84375,36.5859375 81.421875,36.5859375 C77.703125,36.5859375 74.53125,35.8554688 71.90625,34.3945312 C69.28125,32.9335938 67.2890625,30.828125 65.9296875,28.078125 C64.5703125,25.328125 63.890625,22.03125 63.890625,18.1875 Z" id="Path"></path>
        </g>
        <g id="mark/eac">
            <path d="M32,64.0002 C14.327,64.0002 0,49.6732 0,32.0002 C0,14.3272 14.327,0.0002 32,0.0002 C49.673,0.0002 64,14.3272 64,32.0002 C64,49.6732 49.673,64.0002 32,64.0002 Z" id="circle" fill="#0053A2" fill-rule="nonzero"></path>
            <path d="M50.7769,41.0042 L50.7769,41.6622 C50.7769,42.5542 50.0429,43.2872 49.1509,43.2872 L37.2449,43.2872 L38.1359,48.6382 L40.8639,48.6382 C41.8079,48.6382 41.7559,50.3682 40.8639,50.3682 L23.1359,50.3682 C22.2449,50.3682 22.2449,48.6382 23.1359,48.6382 L25.8639,48.6382 L26.7559,43.2872 L14.9019,43.2872 C13.9579,43.2872 13.2229,42.5542 13.2229,41.6622 L13.2229,41.0042 L50.7769,41.0042 Z M49.1509,16.5804 C50.0429,16.5804 50.7769,17.3134 50.7769,18.2584 L50.7769,38.6044 L13.2229,38.6044 L13.2229,18.2584 C13.2229,17.3134 13.9579,16.5804 14.9019,16.5804 L49.1509,16.5804 Z M32.2229,18.5804 C29.2314,18.5804 26.7979,21.0524014 26.7979,24.0907233 L26.7979,25.9598347 L25.6599,25.9598347 C24.8659,25.9598347 24.2229,26.6135158 24.2229,27.4195701 L24.2229,34.5804 C24.2229,35.3869622 24.8659,36.0401354 25.6599,36.0401354 L38.7859,36.0401354 C39.5789,36.0401354 40.2229,35.3869622 40.2229,34.5804 L40.2229,27.4195701 C40.2229,26.6135158 39.5789,25.9598347 38.7859,25.9598347 L37.6469,25.9598347 L37.6469,24.0907233 C37.6469,21.0524014 35.2139,18.5804 32.2229,18.5804 Z M32.2234055,21.5804 C33.8773229,21.5804 35.2229,22.9652154 35.2229,24.6667235 L35.2229,26.0804 L29.2229,26.0804 L29.2229,24.6667235 C29.2229,22.9652154 30.5689826,21.5804 32.2234055,21.5804 Z" id="icon" fill="#F5EA14"></path>
        </g>
    </g>
</svg>