<?xml version="1.0" encoding="UTF-8"?>
<svg width="64px" height="64px" viewBox="0 0 64 64" version="1.1" xmlns="http://www.w3.org/2000/svg" xmlns:xlink="http://www.w3.org/1999/xlink">
    <title>logo/eih/white/icon/eih-logo-white-icon</title>
    <g id="logo/eih/white/icon/eih-logo-white-icon" stroke="none" stroke-width="1" fill="none" fill-rule="evenodd">
        <path d="M32,0 C49.672429,0 64,14.3262845 64,32 C64,49.672429 49.672429,64 32,64 C14.3262845,64 0,49.672429 0,32 C0,14.3262845 14.3262845,0 32,0 Z M48,16 L16,16 L16,35.9998571 L16.0030306,36.3147411 C16.1704668,45.0063311 23.2546646,52 31.9698894,52 C40.790117,52 48,44.8367938 48,35.9998571 L48,35.9998571 L48,16 Z M25.686,21 L31.994,30.874 L38.365,21.041 C42.022,23.22 44.478,27.206 44.478,31.778 C44.478,36.618 41.735,40.81 37.707,42.885 L37.707,42.885 L36.649,38.837 C38.889,37.543 40.409,35.036 40.409,32.148 C40.409,30.525 39.926,29.004 39.094,27.771 L39.094,27.771 L33.608,35.95 L30.289,35.95 L24.802,27.771 C23.97,29.004 23.487,30.515 23.487,32.148 C23.487,35.241 25.234,37.912 27.751,39.094 L27.751,39.094 L26.713,43.101 C22.449,41.118 19.5,36.792 19.5,31.778 C19.5,27.186 21.987,23.168 25.686,21 L25.686,21 Z" id="icon" fill="#FFFFFF" fill-rule="nonzero"></path>
    </g>
</svg>