<?xml version="1.0" encoding="UTF-8"?>
<svg width="570px" height="64px" viewBox="0 0 570 64" version="1.1" xmlns="http://www.w3.org/2000/svg" xmlns:xlink="http://www.w3.org/1999/xlink">
    <title>logo/cfius/white/long/cfius-logo-white-long</title>
    <g id="logo/cfius/white/long/cfius-logo-white-long" stroke="none" stroke-width="1" fill="none" fill-rule="evenodd">
        <g id="CFIUS-Case-Managemen" transform="translate(75.966797, 20.456055)" fill="#FFFFFF" fill-rule="nonzero">
            <path d="M0,11.3818359 C0,9.07714844 0.476074219,7.06542969 1.42822266,5.34667969 C2.38037109,3.62792969 3.68164062,2.30957031 5.33203125,1.39160156 C6.98242188,0.473632812 8.828125,0.0146484375 10.8691406,0.0146484375 C11.8066406,0.0146484375 12.7124023,0.0830078125 13.5864258,0.219726562 C14.4604492,0.356445312 15.4492188,0.537109375 16.5527344,0.76171875 L17.34375,0.922851562 L17.0654297,6.40136719 L14.8828125,6.40136719 L14.0625,2.66601562 C13.8574219,2.39257812 13.4423828,2.17529297 12.8173828,2.01416016 C12.1923828,1.85302734 11.3720703,1.77246094 10.3564453,1.77246094 C9.10644531,1.77246094 8.00048828,2.12890625 7.03857422,2.84179688 C6.07666016,3.5546875 5.32470703,4.60693359 4.78271484,5.99853516 C4.24072266,7.39013672 3.96972656,9.06738281 3.96972656,11.0302734 C3.96972656,12.8466797 4.21142578,14.519043 4.69482422,16.0473633 C5.17822266,17.5756836 5.92529297,18.8061523 6.93603516,19.7387695 C7.94677734,20.6713867 9.20898438,21.1376953 10.7226562,21.1376953 C12.2949219,21.1376953 13.4228516,20.7763672 14.1064453,20.0537109 L15.3808594,16.9628906 L17.4609375,17.2412109 L16.8164062,21.7236328 C16.5527344,21.7431641 16.2988281,21.784668 16.0546875,21.8481445 C15.8105469,21.9116211 15.4931641,22.0117188 15.1025391,22.1484375 C14.4384766,22.3828125 13.8037109,22.5634766 13.1982422,22.6904297 C12.5927734,22.8173828 11.8457031,22.8808594 10.9570312,22.8808594 C8.6328125,22.8808594 6.65039062,22.4243164 5.00976562,21.5112305 C3.36914062,20.5981445 2.12402344,19.2822266 1.27441406,17.5634766 C0.424804688,15.8447266 0,13.7841797 0,11.3818359 Z" id="Path"></path>
            <polygon id="Path" points="22.4560547 20.5957031 22.4560547 2.24121094 19.9951172 1.875 19.9951172 0.249023438 35.9912109 0.249023438 36.2988281 5.37597656 34.1748047 5.37597656 33.2080078 2.12402344 25.8984375 1.91894531 25.8984375 10.4589844 30.9960938 10.4003906 31.5820312 7.93945312 33.3837891 7.93945312 33.3837891 14.9267578 31.5820312 14.9267578 30.9960938 12.421875 25.8984375 12.2900391 25.8984375 20.5957031 30.3515625 20.9472656 30.3515625 22.5439453 20.0390625 22.5439453 20.0390625 20.9472656"></polygon>
            <polygon id="Path" points="41.5136719 20.5957031 41.5136719 2.25585938 38.8330078 1.875 38.8330078 0.249023438 47.6513672 0.249023438 47.6513672 1.875 44.9707031 2.24121094 44.9707031 20.5957031 47.6953125 20.9912109 47.6953125 22.5439453 38.8330078 22.5439453 38.8330078 20.9472656"></polygon>
            <path d="M52.0019531,2.25585938 L49.8925781,1.875 L49.8925781,0.249023438 L58.0664062,0.249023438 L58.0664062,1.875 L55.5761719,2.25585938 L55.5761719,13.4619141 C55.5761719,16.1572266 56.0546875,18.0932617 57.0117188,19.2700195 C57.96875,20.4467773 59.3212891,21.0351562 61.0693359,21.0351562 C62.7978516,21.0351562 64.1064453,20.3930664 64.9951172,19.1088867 C65.8837891,17.824707 66.328125,15.9960937 66.328125,13.6230469 L66.328125,2.25585938 L63.9111328,1.875 L63.9111328,0.249023438 L70.9277344,0.249023438 L70.9277344,1.875 L68.7597656,2.25585938 L68.7597656,13.4765625 C68.7597656,15.5566406 68.4130859,17.2924805 67.7197266,18.684082 C67.0263672,20.0756836 66.0742188,21.105957 64.8632812,21.7749023 C63.6523438,22.4438477 62.2558594,22.7783203 60.6738281,22.7783203 C58.6425781,22.7783203 56.9921875,22.4389648 55.7226562,21.7602539 C54.453125,21.081543 53.515625,20.0341797 52.9101562,18.6181641 C52.3046875,17.2021484 52.0019531,15.3710938 52.0019531,13.125 L52.0019531,2.25585938 Z" id="Path"></path>
            <path d="M73.359375,16.0986328 L75.3955078,16.0986328 L75.9814453,19.8486328 C76.3134766,20.2001953 76.8505859,20.5004883 77.5927734,20.7495117 C78.3349609,20.9985352 79.140625,21.1230469 80.0097656,21.1230469 C81.4648438,21.1230469 82.5610352,20.7983398 83.2983398,20.1489258 C84.0356445,19.4995117 84.4042969,18.5986328 84.4042969,17.4462891 C84.4042969,16.6943359 84.2016602,16.0473633 83.7963867,15.5053711 C83.3911133,14.9633789 82.8417969,14.4873047 82.1484375,14.0771484 C81.4550781,13.6669922 80.5029297,13.1884766 79.2919922,12.6416016 C78.2373047,12.1630859 77.2900391,11.6455078 76.4501953,11.0888672 C75.6103516,10.5322266 74.8876953,9.80957031 74.2822266,8.92089844 C73.6767578,8.03222656 73.3740234,6.98242188 73.3740234,5.77148438 C73.3740234,4.65820312 73.671875,3.66455078 74.2675781,2.79052734 C74.8632812,1.91650391 75.7128906,1.23291016 76.8164062,0.739746094 C77.9199219,0.246582031 79.2041016,0 80.6689453,0 C81.5673828,0 82.3974609,0.0756835938 83.1591797,0.227050781 C83.9208984,0.378417969 84.7119141,0.571289062 85.5322266,0.805664062 C85.9619141,0.932617188 86.3085938,1.02050781 86.5722656,1.06933594 L86.3818359,6.09375 L84.4189453,6.09375 L83.7451172,2.53417969 C83.5595703,2.32910156 83.1689453,2.14111328 82.5732422,1.97021484 C81.9775391,1.79931641 81.3330078,1.71386719 80.6396484,1.71386719 C78.0029297,1.71386719 76.6845703,2.77832031 76.6845703,4.90722656 C76.6845703,5.64941406 76.8847656,6.28417969 77.2851562,6.81152344 C77.6855469,7.33886719 78.2177734,7.80517578 78.8818359,8.21044922 C79.5458984,8.61572266 80.5273438,9.13574219 81.8261719,9.77050781 C83.1152344,10.4052734 84.1699219,10.9863281 84.9902344,11.5136719 C85.8105469,12.0410156 86.5136719,12.7124023 87.0996094,13.527832 C87.6855469,14.3432617 87.9785156,15.3076172 87.9785156,16.4208984 C87.9785156,17.4951172 87.6782227,18.527832 87.0776367,19.519043 C86.4770508,20.5102539 85.5737305,21.3183594 84.3676758,21.9433594 C83.1616211,22.5683594 81.6992188,22.8808594 79.9804688,22.8808594 C78.9257812,22.8808594 77.9638672,22.7856445 77.0947266,22.5952148 C76.2255859,22.4047852 75.3222656,22.1582031 74.3847656,21.8554688 C73.7402344,21.6503906 73.3154297,21.5380859 73.1103516,21.5185547 L73.359375,16.0986328 Z" id="Path"></path>
            <path d="M99.1845703,11.3818359 C99.1845703,9.07714844 99.6606445,7.06542969 100.612793,5.34667969 C101.564941,3.62792969 102.866211,2.30957031 104.516602,1.39160156 C106.166992,0.473632812 108.012695,0.0146484375 110.053711,0.0146484375 C110.991211,0.0146484375 111.896973,0.0830078125 112.770996,0.219726562 C113.64502,0.356445312 114.633789,0.537109375 115.737305,0.76171875 L116.52832,0.922851562 L116.25,6.40136719 L114.067383,6.40136719 L113.24707,2.66601562 C113.041992,2.39257812 112.626953,2.17529297 112.001953,2.01416016 C111.376953,1.85302734 110.556641,1.77246094 109.541016,1.77246094 C108.291016,1.77246094 107.185059,2.12890625 106.223145,2.84179688 C105.26123,3.5546875 104.509277,4.60693359 103.967285,5.99853516 C103.425293,7.39013672 103.154297,9.06738281 103.154297,11.0302734 C103.154297,12.8466797 103.395996,14.519043 103.879395,16.0473633 C104.362793,17.5756836 105.109863,18.8061523 106.120605,19.7387695 C107.131348,20.6713867 108.393555,21.1376953 109.907227,21.1376953 C111.479492,21.1376953 112.607422,20.7763672 113.291016,20.0537109 L114.56543,16.9628906 L116.645508,17.2412109 L116.000977,21.7236328 C115.737305,21.7431641 115.483398,21.784668 115.239258,21.8481445 C114.995117,21.9116211 114.677734,22.0117188 114.287109,22.1484375 C113.623047,22.3828125 112.988281,22.5634766 112.382812,22.6904297 C111.777344,22.8173828 111.030273,22.8808594 110.141602,22.8808594 C107.817383,22.8808594 105.834961,22.4243164 104.194336,21.5112305 C102.553711,20.5981445 101.308594,19.2822266 100.458984,17.5634766 C99.609375,15.8447266 99.1845703,13.7841797 99.1845703,11.3818359 Z" id="Path"></path>
            <path d="M128.833008,11.6601562 C128.833008,10.7421875 128.737793,10.0195312 128.547363,9.4921875 C128.356934,8.96484375 128.027344,8.57910156 127.558594,8.33496094 C127.089844,8.09082031 126.425781,7.96875 125.566406,7.96875 C123.916016,7.96875 122.177734,8.43261719 120.351562,9.36035156 L120.336914,9.36035156 L119.604492,7.83691406 C119.868164,7.60253906 120.373535,7.29980469 121.120605,6.92871094 C121.867676,6.55761719 122.717285,6.23291016 123.669434,5.95458984 C124.621582,5.67626953 125.527344,5.53710938 126.386719,5.53710938 C127.8125,5.53710938 128.933105,5.72998047 129.748535,6.11572266 C130.563965,6.50146484 131.152344,7.11914062 131.513672,7.96875 C131.875,8.81835938 132.055664,9.96582031 132.055664,11.4111328 L132.055664,20.9326172 L133.842773,20.9326172 L133.842773,22.3681641 C132.416992,22.7099609 131.342773,22.8808594 130.620117,22.8808594 C130.209961,22.8808594 129.897461,22.8466797 129.682617,22.7783203 C129.467773,22.7099609 129.309082,22.5708008 129.206543,22.3608398 C129.104004,22.1508789 129.052734,21.8261719 129.052734,21.3867188 L129.052734,20.6835938 C128.525391,21.2011719 127.832031,21.6967773 126.972656,22.1704102 C126.113281,22.644043 125.151367,22.8808594 124.086914,22.8808594 C123.149414,22.8808594 122.297363,22.7099609 121.530762,22.3681641 C120.76416,22.0263672 120.153809,21.4990234 119.699707,20.7861328 C119.245605,20.0732422 119.018555,19.1845703 119.018555,18.1201172 C119.018555,16.8212891 119.470215,15.7519531 120.373535,14.9121094 C121.276855,14.0722656 122.463379,13.4545898 123.933105,13.059082 C125.402832,12.6635742 127.036133,12.4511719 128.833008,12.421875 L128.833008,11.6601562 Z M128.833008,14.0771484 C127.397461,14.0771484 126.218262,14.2407227 125.29541,14.5678711 C124.372559,14.8950195 123.703613,15.3271484 123.288574,15.8642578 C122.873535,16.4013672 122.666016,17.0117188 122.666016,17.6953125 C122.666016,18.7207031 122.919922,19.4726562 123.427734,19.9511719 C123.935547,20.4296875 124.619141,20.6689453 125.478516,20.6689453 C125.9375,20.6689453 126.491699,20.5395508 127.141113,20.2807617 C127.790527,20.0219727 128.354492,19.7070312 128.833008,19.3359375 L128.833008,14.0771484 Z" id="Shape"></path>
            <path d="M138.398438,17.7832031 L138.984375,20.0097656 C139.101562,20.2148438 139.328613,20.4101562 139.665527,20.5957031 C140.002441,20.78125 140.400391,20.9326172 140.859375,21.0498047 C141.318359,21.1669922 141.787109,21.2255859 142.265625,21.2255859 C143.369141,21.2255859 144.155273,21.0180664 144.624023,20.6030273 C145.092773,20.1879883 145.327148,19.6191406 145.327148,18.8964844 C145.327148,18.3886719 145.168457,17.9418945 144.851074,17.5561523 C144.533691,17.1704102 144.0625,16.8066406 143.4375,16.4648438 C142.8125,16.1230469 141.962891,15.7373047 140.888672,15.3076172 C139.335938,14.7021484 138.203125,13.9868164 137.490234,13.1616211 C136.777344,12.3364258 136.420898,11.2695312 136.420898,9.9609375 C136.420898,9.08203125 136.687012,8.30810547 137.219238,7.63916016 C137.751465,6.97021484 138.481445,6.45019531 139.40918,6.07910156 C140.336914,5.70800781 141.381836,5.52246094 142.543945,5.52246094 C143.442383,5.52246094 144.233398,5.59326172 144.916992,5.73486328 C145.600586,5.87646484 146.289062,6.05957031 146.982422,6.28417969 L147.509766,6.4453125 L147.509766,10.1513672 L145.634766,10.1513672 L145.004883,8.10058594 C144.887695,7.84667969 144.572754,7.62695312 144.060059,7.44140625 C143.547363,7.25585938 142.973633,7.16308594 142.338867,7.16308594 C141.44043,7.16308594 140.74707,7.35351562 140.258789,7.734375 C139.770508,8.11523438 139.526367,8.61328125 139.526367,9.22851562 C139.526367,9.77539062 139.67041,10.234375 139.958496,10.6054688 C140.246582,10.9765625 140.605469,11.2792969 141.035156,11.5136719 C141.464844,11.7480469 142.06543,12.0263672 142.836914,12.3486328 L143.408203,12.5976562 C144.521484,13.0761719 145.424805,13.5253906 146.118164,13.9453125 C146.811523,14.3652344 147.387695,14.9023438 147.84668,15.5566406 C148.305664,16.2109375 148.535156,17.0117188 148.535156,17.9589844 C148.535156,18.9355469 148.278809,19.7949219 147.766113,20.5371094 C147.253418,21.2792969 146.51123,21.8554688 145.539551,22.265625 C144.567871,22.6757812 143.417969,22.8808594 142.089844,22.8808594 C141.09375,22.8808594 140.048828,22.7441406 138.955078,22.4707031 C137.861328,22.1972656 136.987305,21.9140625 136.333008,21.6210938 L136.333008,17.7832031 L138.398438,17.7832031 Z" id="Path"></path>
            <path d="M151.113281,14.1796875 C151.113281,12.4609375 151.450195,10.9375 152.124023,9.609375 C152.797852,8.28125 153.730469,7.25341797 154.921875,6.52587891 C156.113281,5.79833984 157.46582,5.43457031 158.979492,5.43457031 C160.854492,5.43457031 162.304688,5.94726562 163.330078,6.97265625 C164.355469,7.99804688 164.902344,9.47753906 164.970703,11.4111328 L164.970703,11.9384766 C164.970703,12.9638672 164.912109,13.7451172 164.794922,14.2822266 L154.643555,14.2822266 C154.682617,15.7177734 154.926758,16.9091797 155.375977,17.8564453 C155.825195,18.8037109 156.416016,19.5019531 157.148438,19.9511719 C157.880859,20.4003906 158.706055,20.625 159.624023,20.625 C160.424805,20.625 161.247559,20.4858398 162.092285,20.2075195 C162.937012,19.9291992 163.598633,19.609375 164.077148,19.2480469 L164.692383,20.6542969 C164.321289,21.0351562 163.811035,21.3964844 163.161621,21.7382812 C162.512207,22.0800781 161.789551,22.355957 160.993652,22.565918 C160.197754,22.7758789 159.40918,22.8808594 158.62793,22.8808594 C156.987305,22.8808594 155.603027,22.5170898 154.475098,21.7895508 C153.347168,21.0620117 152.504883,20.0463867 151.948242,18.7426758 C151.391602,17.4389648 151.113281,15.9179688 151.113281,14.1796875 Z M161.455078,12.5830078 C161.494141,12.2314453 161.513672,11.8115234 161.513672,11.3232422 C161.503906,10.0830078 161.245117,9.08691406 160.737305,8.33496094 C160.229492,7.58300781 159.428711,7.20703125 158.334961,7.20703125 C157.241211,7.20703125 156.374512,7.61474609 155.734863,8.43017578 C155.095215,9.24560547 154.731445,10.6298828 154.643555,12.5830078 L161.455078,12.5830078 Z" id="Shape"></path>
            <polygon id="Path" points="177.802734 20.6103516 180 2.24121094 176.865234 1.875 176.865234 0.249023438 184.863281 0.249023438 189.462891 13.6816406 190.224609 17.0507812 190.883789 13.6816406 194.941406 0.249023438 202.939453 0.249023438 202.939453 1.875 199.6875 2.25585938 202.529297 20.5957031 205.151367 20.9472656 205.151367 22.5439453 196.450195 22.5439453 196.450195 20.9472656 199.042969 20.6103516 197.197266 7.30957031 196.552734 1.46484375 195.541992 5.47851562 190.766602 21.5478516 188.876953 21.5478516 183.588867 7.11914063 181.962891 1.47949219 181.494141 7.29492187 180.307617 20.5957031 183.193359 20.9472656 183.193359 22.5439453 175.195312 22.5439453 175.195312 20.9472656"></polygon>
            <path d="M216.210938,11.6601562 C216.210938,10.7421875 216.115723,10.0195312 215.925293,9.4921875 C215.734863,8.96484375 215.405273,8.57910156 214.936523,8.33496094 C214.467773,8.09082031 213.803711,7.96875 212.944336,7.96875 C211.293945,7.96875 209.555664,8.43261719 207.729492,9.36035156 L207.714844,9.36035156 L206.982422,7.83691406 C207.246094,7.60253906 207.751465,7.29980469 208.498535,6.92871094 C209.245605,6.55761719 210.095215,6.23291016 211.047363,5.95458984 C211.999512,5.67626953 212.905273,5.53710938 213.764648,5.53710938 C215.19043,5.53710938 216.311035,5.72998047 217.126465,6.11572266 C217.941895,6.50146484 218.530273,7.11914062 218.891602,7.96875 C219.25293,8.81835938 219.433594,9.96582031 219.433594,11.4111328 L219.433594,20.9326172 L221.220703,20.9326172 L221.220703,22.3681641 C219.794922,22.7099609 218.720703,22.8808594 217.998047,22.8808594 C217.587891,22.8808594 217.275391,22.8466797 217.060547,22.7783203 C216.845703,22.7099609 216.687012,22.5708008 216.584473,22.3608398 C216.481934,22.1508789 216.430664,21.8261719 216.430664,21.3867188 L216.430664,20.6835938 C215.90332,21.2011719 215.209961,21.6967773 214.350586,22.1704102 C213.491211,22.644043 212.529297,22.8808594 211.464844,22.8808594 C210.527344,22.8808594 209.675293,22.7099609 208.908691,22.3681641 C208.14209,22.0263672 207.531738,21.4990234 207.077637,20.7861328 C206.623535,20.0732422 206.396484,19.1845703 206.396484,18.1201172 C206.396484,16.8212891 206.848145,15.7519531 207.751465,14.9121094 C208.654785,14.0722656 209.841309,13.4545898 211.311035,13.059082 C212.780762,12.6635742 214.414062,12.4511719 216.210938,12.421875 L216.210938,11.6601562 Z M216.210938,14.0771484 C214.775391,14.0771484 213.596191,14.2407227 212.67334,14.5678711 C211.750488,14.8950195 211.081543,15.3271484 210.666504,15.8642578 C210.251465,16.4013672 210.043945,17.0117188 210.043945,17.6953125 C210.043945,18.7207031 210.297852,19.4726562 210.805664,19.9511719 C211.313477,20.4296875 211.99707,20.6689453 212.856445,20.6689453 C213.31543,20.6689453 213.869629,20.5395508 214.519043,20.2807617 C215.168457,20.0219727 215.732422,19.7070312 216.210938,19.3359375 L216.210938,14.0771484 Z" id="Shape"></path>
            <path d="M225.380859,20.6982422 L225.380859,8.42285156 L223.286133,7.83691406 L223.286133,6.07910156 L227.62207,5.49316406 L227.695312,5.49316406 L228.383789,6.06445312 L228.383789,7.25097656 L228.369141,7.92480469 C228.818359,7.52441406 229.382324,7.13867188 230.061035,6.76757812 C230.739746,6.39648438 231.467285,6.09375 232.243652,5.859375 C233.02002,5.625 233.754883,5.5078125 234.448242,5.5078125 C235.717773,5.5078125 236.699219,5.74462891 237.392578,6.21826172 C238.085938,6.69189453 238.569336,7.421875 238.842773,8.40820312 C239.116211,9.39453125 239.25293,10.7324219 239.25293,12.421875 L239.25293,20.6982422 L241.362305,20.9472656 L241.362305,22.5439453 L234.008789,22.5439453 L234.008789,20.9472656 L235.883789,20.6982422 L235.883789,12.4072266 C235.883789,11.2744141 235.808105,10.3833008 235.656738,9.73388672 C235.505371,9.08447266 235.219727,8.59619141 234.799805,8.26904297 C234.379883,7.94189453 233.759766,7.77832031 232.939453,7.77832031 C232.236328,7.77832031 231.503906,7.9296875 230.742188,8.23242188 C229.980469,8.53515625 229.311523,8.90136719 228.735352,9.33105469 L228.735352,20.6982422 L230.756836,20.9472656 L230.756836,22.5439453 L223.461914,22.5439453 L223.461914,20.9472656 L225.380859,20.6982422 Z" id="Path"></path>
            <path d="M253.168945,11.6601562 C253.168945,10.7421875 253.07373,10.0195312 252.883301,9.4921875 C252.692871,8.96484375 252.363281,8.57910156 251.894531,8.33496094 C251.425781,8.09082031 250.761719,7.96875 249.902344,7.96875 C248.251953,7.96875 246.513672,8.43261719 244.6875,9.36035156 L244.672852,9.36035156 L243.94043,7.83691406 C244.204102,7.60253906 244.709473,7.29980469 245.456543,6.92871094 C246.203613,6.55761719 247.053223,6.23291016 248.005371,5.95458984 C248.95752,5.67626953 249.863281,5.53710938 250.722656,5.53710938 C252.148438,5.53710938 253.269043,5.72998047 254.084473,6.11572266 C254.899902,6.50146484 255.488281,7.11914062 255.849609,7.96875 C256.210938,8.81835938 256.391602,9.96582031 256.391602,11.4111328 L256.391602,20.9326172 L258.178711,20.9326172 L258.178711,22.3681641 C256.75293,22.7099609 255.678711,22.8808594 254.956055,22.8808594 C254.545898,22.8808594 254.233398,22.8466797 254.018555,22.7783203 C253.803711,22.7099609 253.64502,22.5708008 253.54248,22.3608398 C253.439941,22.1508789 253.388672,21.8261719 253.388672,21.3867188 L253.388672,20.6835938 C252.861328,21.2011719 252.167969,21.6967773 251.308594,22.1704102 C250.449219,22.644043 249.487305,22.8808594 248.422852,22.8808594 C247.485352,22.8808594 246.633301,22.7099609 245.866699,22.3681641 C245.100098,22.0263672 244.489746,21.4990234 244.035645,20.7861328 C243.581543,20.0732422 243.354492,19.1845703 243.354492,18.1201172 C243.354492,16.8212891 243.806152,15.7519531 244.709473,14.9121094 C245.612793,14.0722656 246.799316,13.4545898 248.269043,13.059082 C249.73877,12.6635742 251.37207,12.4511719 253.168945,12.421875 L253.168945,11.6601562 Z M253.168945,14.0771484 C251.733398,14.0771484 250.554199,14.2407227 249.631348,14.5678711 C248.708496,14.8950195 248.039551,15.3271484 247.624512,15.8642578 C247.209473,16.4013672 247.001953,17.0117188 247.001953,17.6953125 C247.001953,18.7207031 247.255859,19.4726562 247.763672,19.9511719 C248.271484,20.4296875 248.955078,20.6689453 249.814453,20.6689453 C250.273438,20.6689453 250.827637,20.5395508 251.477051,20.2807617 C252.126465,20.0219727 252.69043,19.7070312 253.168945,19.3359375 L253.168945,14.0771484 Z" id="Shape"></path>
            <path d="M267.436523,16.6113281 C266.635742,16.6113281 265.888672,16.5283203 265.195312,16.3623047 C264.921875,16.6064453 264.707031,16.887207 264.550781,17.2045898 C264.394531,17.5219727 264.316406,17.8466797 264.316406,18.1787109 C264.316406,18.6669922 264.431152,19.0405273 264.660645,19.2993164 C264.890137,19.5581055 265.236816,19.7363281 265.700684,19.8339844 C266.164551,19.9316406 266.801758,19.9804688 267.612305,19.9804688 L270.805664,19.9804688 C274.624023,19.9804688 276.533203,21.4453125 276.533203,24.375 C276.533203,25.5078125 276.130371,26.5527344 275.324707,27.5097656 C274.519043,28.4667969 273.442383,29.2260742 272.094727,29.7875977 C270.74707,30.3491211 269.301758,30.6298828 267.758789,30.6298828 L267.744141,30.6298828 C265.126953,30.6298828 263.227539,30.2319336 262.045898,29.4360352 C260.864258,28.6401367 260.273438,27.5146484 260.273438,26.0595703 C260.273438,25.1513672 260.539551,24.3286133 261.071777,23.5913086 C261.604004,22.8540039 262.246094,22.2949219 262.998047,21.9140625 C262.050781,21.3769531 261.577148,20.5566406 261.577148,19.453125 C261.577148,18.7207031 261.787109,18.0444336 262.207031,17.4243164 C262.626953,16.8041992 263.178711,16.3037109 263.862305,15.9228516 C262.885742,15.4736328 262.13623,14.8364258 261.61377,14.0112305 C261.091309,13.1860352 260.830078,12.2216797 260.830078,11.1181641 C260.830078,9.96582031 261.157227,8.95996094 261.811523,8.10058594 C262.46582,7.24121094 263.325195,6.58447266 264.389648,6.13037109 C265.454102,5.67626953 266.591797,5.44433594 267.802734,5.43457031 L267.817383,5.43457031 C268.87207,5.43457031 269.819336,5.55419922 270.65918,5.79345703 C271.499023,6.03271484 272.207031,6.38671875 272.783203,6.85546875 C273.076172,6.51367188 273.515625,6.18652344 274.101562,5.87402344 C274.6875,5.56152344 275.375977,5.40527344 276.166992,5.40527344 L276.958008,5.40527344 L276.958008,8.24707031 L273.881836,8.24707031 C274.223633,8.95996094 274.394531,9.74609375 274.394531,10.6054688 C274.394531,11.7773438 274.091797,12.8198242 273.486328,13.7329102 C272.880859,14.6459961 272.050781,15.3540039 270.996094,15.8569336 C269.941406,16.3598633 268.759766,16.6113281 267.451172,16.6113281 L267.436523,16.6113281 Z M267.612305,7.1484375 C266.557617,7.1484375 265.739746,7.43408203 265.158691,8.00537109 C264.577637,8.57666016 264.287109,9.51171875 264.287109,10.8105469 C264.287109,12.0410156 264.562988,13.0249023 265.114746,13.762207 C265.666504,14.4995117 266.547852,14.8681641 267.758789,14.8681641 L267.773438,14.8681641 C268.886719,14.8681641 269.694824,14.5361328 270.197754,13.8720703 C270.700684,13.2080078 270.952148,12.2363281 270.952148,10.9570312 C270.952148,9.6484375 270.681152,8.68652344 270.13916,8.07128906 C269.597168,7.45605469 268.759766,7.1484375 267.626953,7.1484375 L267.612305,7.1484375 Z M264.492188,22.4267578 C263.867188,23.1982422 263.554688,24.1210938 263.554688,25.1953125 C263.554688,26.3671875 263.901367,27.2558594 264.594727,27.8613281 C265.288086,28.4667969 266.425781,28.7695312 268.007812,28.7695312 L268.037109,28.7695312 C268.916016,28.7695312 269.755859,28.6328125 270.556641,28.359375 C271.357422,28.0859375 272.006836,27.6806641 272.504883,27.1435547 C273.00293,26.6064453 273.251953,25.9667969 273.251953,25.2246094 C273.251953,24.5898438 273.156738,24.0893555 272.966309,23.7231445 C272.775879,23.3569336 272.426758,23.0810547 271.918945,22.8955078 C271.411133,22.7099609 270.673828,22.6171875 269.707031,22.6171875 L266.762695,22.6171875 C265.961914,22.6171875 265.205078,22.5537109 264.492188,22.4267578 Z" id="Shape"></path>
            <path d="M278.525391,14.1796875 C278.525391,12.4609375 278.862305,10.9375 279.536133,9.609375 C280.209961,8.28125 281.142578,7.25341797 282.333984,6.52587891 C283.525391,5.79833984 284.87793,5.43457031 286.391602,5.43457031 C288.266602,5.43457031 289.716797,5.94726562 290.742188,6.97265625 C291.767578,7.99804688 292.314453,9.47753906 292.382812,11.4111328 L292.382812,11.9384766 C292.382812,12.9638672 292.324219,13.7451172 292.207031,14.2822266 L282.055664,14.2822266 C282.094727,15.7177734 282.338867,16.9091797 282.788086,17.8564453 C283.237305,18.8037109 283.828125,19.5019531 284.560547,19.9511719 C285.292969,20.4003906 286.118164,20.625 287.036133,20.625 C287.836914,20.625 288.659668,20.4858398 289.504395,20.2075195 C290.349121,19.9291992 291.010742,19.609375 291.489258,19.2480469 L292.104492,20.6542969 C291.733398,21.0351562 291.223145,21.3964844 290.57373,21.7382812 C289.924316,22.0800781 289.20166,22.355957 288.405762,22.565918 C287.609863,22.7758789 286.821289,22.8808594 286.040039,22.8808594 C284.399414,22.8808594 283.015137,22.5170898 281.887207,21.7895508 C280.759277,21.0620117 279.916992,20.0463867 279.360352,18.7426758 C278.803711,17.4389648 278.525391,15.9179688 278.525391,14.1796875 Z M288.867188,12.5830078 C288.90625,12.2314453 288.925781,11.8115234 288.925781,11.3232422 C288.916016,10.0830078 288.657227,9.08691406 288.149414,8.33496094 C287.641602,7.58300781 286.84082,7.20703125 285.74707,7.20703125 C284.65332,7.20703125 283.786621,7.61474609 283.146973,8.43017578 C282.507324,9.24560547 282.143555,10.6298828 282.055664,12.5830078 L288.867188,12.5830078 Z" id="Shape"></path>
            <path d="M296.982422,20.7128906 L296.982422,8.42285156 L294.887695,7.83691406 L294.887695,6.07910156 L299.208984,5.49316406 L299.282227,5.49316406 L299.985352,6.06445312 L299.985352,7.25097656 L299.956055,7.92480469 C300.395508,7.52441406 300.964355,7.13867188 301.662598,6.76757812 C302.36084,6.39648438 303.098145,6.09375 303.874512,5.859375 C304.650879,5.625 305.356445,5.5078125 305.991211,5.5078125 C307.06543,5.5078125 307.929688,5.68847656 308.583984,6.04980469 C309.238281,6.41113281 309.736328,6.97265625 310.078125,7.734375 C310.458984,7.40234375 310.983887,7.06298828 311.652832,6.71630859 C312.321777,6.36962891 313.037109,6.08154297 313.798828,5.85205078 C314.560547,5.62255859 315.268555,5.5078125 315.922852,5.5078125 C317.192383,5.5078125 318.178711,5.74462891 318.881836,6.21826172 C319.584961,6.69189453 320.078125,7.41943359 320.361328,8.40087891 C320.644531,9.38232422 320.786133,10.7080078 320.786133,12.3779297 L320.786133,20.7128906 L322.880859,20.9619141 L322.880859,22.5439453 L315.703125,22.5439453 L315.703125,20.9619141 L317.431641,20.6982422 L317.431641,12.4804688 C317.431641,11.3378906 317.348633,10.4345703 317.182617,9.77050781 C317.016602,9.10644531 316.704102,8.60595703 316.245117,8.26904297 C315.786133,7.93212891 315.126953,7.76367188 314.267578,7.76367188 C313.671875,7.76367188 313.022461,7.90039062 312.319336,8.17382812 C311.616211,8.44726562 311.010742,8.76464844 310.50293,9.12597656 C310.678711,9.96582031 310.766602,11.0644531 310.766602,12.421875 L310.766602,20.6982422 L312.905273,20.9619141 L312.905273,22.5439453 L305.463867,22.5439453 L305.463867,20.9619141 L307.412109,20.6982422 L307.412109,12.4072266 C307.412109,11.2646484 307.338867,10.3710938 307.192383,9.7265625 C307.045898,9.08203125 306.760254,8.59619141 306.335449,8.26904297 C305.910645,7.94189453 305.288086,7.77832031 304.467773,7.77832031 C303.78418,7.77832031 303.066406,7.92480469 302.314453,8.21777344 C301.5625,8.51074219 300.90332,8.87207031 300.336914,9.30175781 L300.336914,20.6982422 L302.299805,20.9619141 L302.299805,22.5439453 L295.151367,22.5439453 L295.151367,20.9619141 L296.982422,20.7128906 Z" id="Path"></path>
            <path d="M324.902344,14.1796875 C324.902344,12.4609375 325.239258,10.9375 325.913086,9.609375 C326.586914,8.28125 327.519531,7.25341797 328.710938,6.52587891 C329.902344,5.79833984 331.254883,5.43457031 332.768555,5.43457031 C334.643555,5.43457031 336.09375,5.94726562 337.119141,6.97265625 C338.144531,7.99804688 338.691406,9.47753906 338.759766,11.4111328 L338.759766,11.9384766 C338.759766,12.9638672 338.701172,13.7451172 338.583984,14.2822266 L328.432617,14.2822266 C328.47168,15.7177734 328.71582,16.9091797 329.165039,17.8564453 C329.614258,18.8037109 330.205078,19.5019531 330.9375,19.9511719 C331.669922,20.4003906 332.495117,20.625 333.413086,20.625 C334.213867,20.625 335.036621,20.4858398 335.881348,20.2075195 C336.726074,19.9291992 337.387695,19.609375 337.866211,19.2480469 L338.481445,20.6542969 C338.110352,21.0351562 337.600098,21.3964844 336.950684,21.7382812 C336.30127,22.0800781 335.578613,22.355957 334.782715,22.565918 C333.986816,22.7758789 333.198242,22.8808594 332.416992,22.8808594 C330.776367,22.8808594 329.39209,22.5170898 328.26416,21.7895508 C327.13623,21.0620117 326.293945,20.0463867 325.737305,18.7426758 C325.180664,17.4389648 324.902344,15.9179688 324.902344,14.1796875 Z M335.244141,12.5830078 C335.283203,12.2314453 335.302734,11.8115234 335.302734,11.3232422 C335.292969,10.0830078 335.03418,9.08691406 334.526367,8.33496094 C334.018555,7.58300781 333.217773,7.20703125 332.124023,7.20703125 C331.030273,7.20703125 330.163574,7.61474609 329.523926,8.43017578 C328.884277,9.24560547 328.520508,10.6298828 328.432617,12.5830078 L335.244141,12.5830078 Z" id="Shape"></path>
            <path d="M343.359375,20.6982422 L343.359375,8.42285156 L341.264648,7.83691406 L341.264648,6.07910156 L345.600586,5.49316406 L345.673828,5.49316406 L346.362305,6.06445312 L346.362305,7.25097656 L346.347656,7.92480469 C346.796875,7.52441406 347.36084,7.13867188 348.039551,6.76757812 C348.718262,6.39648438 349.445801,6.09375 350.222168,5.859375 C350.998535,5.625 351.733398,5.5078125 352.426758,5.5078125 C353.696289,5.5078125 354.677734,5.74462891 355.371094,6.21826172 C356.064453,6.69189453 356.547852,7.421875 356.821289,8.40820312 C357.094727,9.39453125 357.231445,10.7324219 357.231445,12.421875 L357.231445,20.6982422 L359.34082,20.9472656 L359.34082,22.5439453 L351.987305,22.5439453 L351.987305,20.9472656 L353.862305,20.6982422 L353.862305,12.4072266 C353.862305,11.2744141 353.786621,10.3833008 353.635254,9.73388672 C353.483887,9.08447266 353.198242,8.59619141 352.77832,8.26904297 C352.358398,7.94189453 351.738281,7.77832031 350.917969,7.77832031 C350.214844,7.77832031 349.482422,7.9296875 348.720703,8.23242188 C347.958984,8.53515625 347.290039,8.90136719 346.713867,9.33105469 L346.713867,20.6982422 L348.735352,20.9472656 L348.735352,22.5439453 L341.44043,22.5439453 L341.44043,20.9472656 L343.359375,20.6982422 Z" id="Path"></path>
            <path d="M361.069336,7.98339844 L361.069336,6.59179688 C361.342773,6.5234375 361.657715,6.42578125 362.01416,6.29882812 C362.370605,6.171875 362.602539,6.07421875 362.709961,6.00585938 C363.032227,5.77148438 363.295898,5.390625 363.500977,4.86328125 C363.647461,4.53125 363.840332,4.00146484 364.07959,3.27392578 C364.318848,2.54638672 364.482422,1.99707031 364.570312,1.62597656 L366.474609,1.62597656 L366.503906,5.88867188 L371.425781,5.88867188 L371.425781,7.98339844 L366.518555,7.98339844 L366.518555,16.8457031 C366.518555,18.0371094 366.552734,18.8647461 366.621094,19.3286133 C366.689453,19.7924805 366.828613,20.090332 367.038574,20.222168 C367.248535,20.3540039 367.631836,20.4199219 368.188477,20.4199219 L368.203125,20.4199219 C368.710938,20.4199219 369.284668,20.3564453 369.924316,20.2294922 C370.563965,20.1025391 371.05957,19.9707031 371.411133,19.8339844 L371.425781,19.8339844 L371.923828,21.2548828 C371.630859,21.4990234 371.191406,21.7456055 370.605469,21.9946289 C370.019531,22.2436523 369.389648,22.4511719 368.71582,22.6171875 C368.041992,22.7832031 367.421875,22.8662109 366.855469,22.8662109 L366.826172,22.8662109 C365.615234,22.8662109 364.702148,22.6000977 364.086914,22.0678711 C363.47168,21.5356445 363.164062,20.6445312 363.164062,19.3945312 L363.164062,7.98339844 L361.069336,7.98339844 Z" id="Path"></path>
            <path d="M383.291016,16.0986328 L385.327148,16.0986328 L385.913086,19.8486328 C386.245117,20.2001953 386.782227,20.5004883 387.524414,20.7495117 C388.266602,20.9985352 389.072266,21.1230469 389.941406,21.1230469 C391.396484,21.1230469 392.492676,20.7983398 393.22998,20.1489258 C393.967285,19.4995117 394.335938,18.5986328 394.335938,17.4462891 C394.335938,16.6943359 394.133301,16.0473633 393.728027,15.5053711 C393.322754,14.9633789 392.773438,14.4873047 392.080078,14.0771484 C391.386719,13.6669922 390.43457,13.1884766 389.223633,12.6416016 C388.168945,12.1630859 387.22168,11.6455078 386.381836,11.0888672 C385.541992,10.5322266 384.819336,9.80957031 384.213867,8.92089844 C383.608398,8.03222656 383.305664,6.98242188 383.305664,5.77148438 C383.305664,4.65820312 383.603516,3.66455078 384.199219,2.79052734 C384.794922,1.91650391 385.644531,1.23291016 386.748047,0.739746094 C387.851562,0.246582031 389.135742,0 390.600586,0 C391.499023,0 392.329102,0.0756835938 393.09082,0.227050781 C393.852539,0.378417969 394.643555,0.571289062 395.463867,0.805664062 C395.893555,0.932617188 396.240234,1.02050781 396.503906,1.06933594 L396.313477,6.09375 L394.350586,6.09375 L393.676758,2.53417969 C393.491211,2.32910156 393.100586,2.14111328 392.504883,1.97021484 C391.90918,1.79931641 391.264648,1.71386719 390.571289,1.71386719 C387.93457,1.71386719 386.616211,2.77832031 386.616211,4.90722656 C386.616211,5.64941406 386.816406,6.28417969 387.216797,6.81152344 C387.617188,7.33886719 388.149414,7.80517578 388.813477,8.21044922 C389.477539,8.61572266 390.458984,9.13574219 391.757812,9.77050781 C393.046875,10.4052734 394.101562,10.9863281 394.921875,11.5136719 C395.742188,12.0410156 396.445312,12.7124023 397.03125,13.527832 C397.617188,14.3432617 397.910156,15.3076172 397.910156,16.4208984 C397.910156,17.4951172 397.609863,18.527832 397.009277,19.519043 C396.408691,20.5102539 395.505371,21.3183594 394.299316,21.9433594 C393.093262,22.5683594 391.630859,22.8808594 389.912109,22.8808594 C388.857422,22.8808594 387.895508,22.7856445 387.026367,22.5952148 C386.157227,22.4047852 385.253906,22.1582031 384.316406,21.8554688 C383.671875,21.6503906 383.24707,21.5380859 383.041992,21.5185547 L383.291016,16.0986328 Z" id="Path"></path>
            <path d="M401.264648,27.0263672 C401.381836,27.0947266 401.621094,27.1557617 401.982422,27.2094727 C402.34375,27.2631836 402.685547,27.2900391 403.007812,27.2900391 C403.59375,27.2900391 404.133301,27.1704102 404.626465,26.9311523 C405.119629,26.6918945 405.620117,26.2255859 406.12793,25.5322266 C406.635742,24.8388672 407.128906,23.8427734 407.607422,22.5439453 L405.952148,22.5439453 L400.473633,7.82226562 L399.082031,7.44140625 L399.082031,5.88867188 L406.538086,5.88867188 L406.538086,7.44140625 L404.238281,7.82226562 L407.06543,16.6699219 L408.369141,20.9179688 L409.541016,16.6552734 L412.192383,7.80761719 L410.229492,7.44140625 L410.229492,5.88867188 L416.381836,5.88867188 L416.381836,7.44140625 L414.887695,7.80761719 C413.481445,12.1826172 412.336426,15.6762695 411.452637,18.2885742 C410.568848,20.9008789 410.004883,22.4853516 409.760742,23.0419922 C409.09668,24.7216797 408.469238,26.0498047 407.878418,27.0263672 C407.287598,28.0029297 406.604004,28.7451172 405.827637,29.2529297 C405.05127,29.7607422 404.101562,30.0146484 402.978516,30.0146484 C402.675781,30.0146484 402.348633,29.9926758 401.99707,29.9487305 C401.645508,29.9047852 401.401367,29.8535156 401.264648,29.7949219 L401.264648,27.0263672 Z" id="Path"></path>
            <path d="M420.219727,17.7832031 L420.805664,20.0097656 C420.922852,20.2148438 421.149902,20.4101562 421.486816,20.5957031 C421.82373,20.78125 422.22168,20.9326172 422.680664,21.0498047 C423.139648,21.1669922 423.608398,21.2255859 424.086914,21.2255859 C425.19043,21.2255859 425.976562,21.0180664 426.445312,20.6030273 C426.914062,20.1879883 427.148438,19.6191406 427.148438,18.8964844 C427.148438,18.3886719 426.989746,17.9418945 426.672363,17.5561523 C426.35498,17.1704102 425.883789,16.8066406 425.258789,16.4648438 C424.633789,16.1230469 423.78418,15.7373047 422.709961,15.3076172 C421.157227,14.7021484 420.024414,13.9868164 419.311523,13.1616211 C418.598633,12.3364258 418.242188,11.2695312 418.242188,9.9609375 C418.242188,9.08203125 418.508301,8.30810547 419.040527,7.63916016 C419.572754,6.97021484 420.302734,6.45019531 421.230469,6.07910156 C422.158203,5.70800781 423.203125,5.52246094 424.365234,5.52246094 C425.263672,5.52246094 426.054688,5.59326172 426.738281,5.73486328 C427.421875,5.87646484 428.110352,6.05957031 428.803711,6.28417969 L429.331055,6.4453125 L429.331055,10.1513672 L427.456055,10.1513672 L426.826172,8.10058594 C426.708984,7.84667969 426.394043,7.62695312 425.881348,7.44140625 C425.368652,7.25585938 424.794922,7.16308594 424.160156,7.16308594 C423.261719,7.16308594 422.568359,7.35351562 422.080078,7.734375 C421.591797,8.11523438 421.347656,8.61328125 421.347656,9.22851562 C421.347656,9.77539062 421.491699,10.234375 421.779785,10.6054688 C422.067871,10.9765625 422.426758,11.2792969 422.856445,11.5136719 C423.286133,11.7480469 423.886719,12.0263672 424.658203,12.3486328 L425.229492,12.5976562 C426.342773,13.0761719 427.246094,13.5253906 427.939453,13.9453125 C428.632812,14.3652344 429.208984,14.9023438 429.667969,15.5566406 C430.126953,16.2109375 430.356445,17.0117188 430.356445,17.9589844 C430.356445,18.9355469 430.100098,19.7949219 429.587402,20.5371094 C429.074707,21.2792969 428.33252,21.8554688 427.36084,22.265625 C426.38916,22.6757812 425.239258,22.8808594 423.911133,22.8808594 C422.915039,22.8808594 421.870117,22.7441406 420.776367,22.4707031 C419.682617,22.1972656 418.808594,21.9140625 418.154297,21.6210938 L418.154297,17.7832031 L420.219727,17.7832031 Z" id="Path"></path>
            <path d="M432.670898,7.98339844 L432.670898,6.59179688 C432.944336,6.5234375 433.259277,6.42578125 433.615723,6.29882812 C433.972168,6.171875 434.204102,6.07421875 434.311523,6.00585938 C434.633789,5.77148438 434.897461,5.390625 435.102539,4.86328125 C435.249023,4.53125 435.441895,4.00146484 435.681152,3.27392578 C435.92041,2.54638672 436.083984,1.99707031 436.171875,1.62597656 L438.076172,1.62597656 L438.105469,5.88867188 L443.027344,5.88867188 L443.027344,7.98339844 L438.120117,7.98339844 L438.120117,16.8457031 C438.120117,18.0371094 438.154297,18.8647461 438.222656,19.3286133 C438.291016,19.7924805 438.430176,20.090332 438.640137,20.222168 C438.850098,20.3540039 439.233398,20.4199219 439.790039,20.4199219 L439.804688,20.4199219 C440.3125,20.4199219 440.88623,20.3564453 441.525879,20.2294922 C442.165527,20.1025391 442.661133,19.9707031 443.012695,19.8339844 L443.027344,19.8339844 L443.525391,21.2548828 C443.232422,21.4990234 442.792969,21.7456055 442.207031,21.9946289 C441.621094,22.2436523 440.991211,22.4511719 440.317383,22.6171875 C439.643555,22.7832031 439.023438,22.8662109 438.457031,22.8662109 L438.427734,22.8662109 C437.216797,22.8662109 436.303711,22.6000977 435.688477,22.0678711 C435.073242,21.5356445 434.765625,20.6445312 434.765625,19.3945312 L434.765625,7.98339844 L432.670898,7.98339844 Z" id="Path"></path>
            <path d="M445.151367,14.1796875 C445.151367,12.4609375 445.488281,10.9375 446.162109,9.609375 C446.835938,8.28125 447.768555,7.25341797 448.959961,6.52587891 C450.151367,5.79833984 451.503906,5.43457031 453.017578,5.43457031 C454.892578,5.43457031 456.342773,5.94726562 457.368164,6.97265625 C458.393555,7.99804688 458.94043,9.47753906 459.008789,11.4111328 L459.008789,11.9384766 C459.008789,12.9638672 458.950195,13.7451172 458.833008,14.2822266 L448.681641,14.2822266 C448.720703,15.7177734 448.964844,16.9091797 449.414062,17.8564453 C449.863281,18.8037109 450.454102,19.5019531 451.186523,19.9511719 C451.918945,20.4003906 452.744141,20.625 453.662109,20.625 C454.462891,20.625 455.285645,20.4858398 456.130371,20.2075195 C456.975098,19.9291992 457.636719,19.609375 458.115234,19.2480469 L458.730469,20.6542969 C458.359375,21.0351562 457.849121,21.3964844 457.199707,21.7382812 C456.550293,22.0800781 455.827637,22.355957 455.031738,22.565918 C454.23584,22.7758789 453.447266,22.8808594 452.666016,22.8808594 C451.025391,22.8808594 449.641113,22.5170898 448.513184,21.7895508 C447.385254,21.0620117 446.542969,20.0463867 445.986328,18.7426758 C445.429688,17.4389648 445.151367,15.9179688 445.151367,14.1796875 Z M455.493164,12.5830078 C455.532227,12.2314453 455.551758,11.8115234 455.551758,11.3232422 C455.541992,10.0830078 455.283203,9.08691406 454.775391,8.33496094 C454.267578,7.58300781 453.466797,7.20703125 452.373047,7.20703125 C451.279297,7.20703125 450.412598,7.61474609 449.772949,8.43017578 C449.133301,9.24560547 448.769531,10.6298828 448.681641,12.5830078 L455.493164,12.5830078 Z" id="Shape"></path>
            <path d="M463.608398,20.7128906 L463.608398,8.42285156 L461.513672,7.83691406 L461.513672,6.07910156 L465.834961,5.49316406 L465.908203,5.49316406 L466.611328,6.06445312 L466.611328,7.25097656 L466.582031,7.92480469 C467.021484,7.52441406 467.590332,7.13867188 468.288574,6.76757812 C468.986816,6.39648438 469.724121,6.09375 470.500488,5.859375 C471.276855,5.625 471.982422,5.5078125 472.617188,5.5078125 C473.691406,5.5078125 474.555664,5.68847656 475.209961,6.04980469 C475.864258,6.41113281 476.362305,6.97265625 476.704102,7.734375 C477.084961,7.40234375 477.609863,7.06298828 478.278809,6.71630859 C478.947754,6.36962891 479.663086,6.08154297 480.424805,5.85205078 C481.186523,5.62255859 481.894531,5.5078125 482.548828,5.5078125 C483.818359,5.5078125 484.804688,5.74462891 485.507812,6.21826172 C486.210938,6.69189453 486.704102,7.41943359 486.987305,8.40087891 C487.270508,9.38232422 487.412109,10.7080078 487.412109,12.3779297 L487.412109,20.7128906 L489.506836,20.9619141 L489.506836,22.5439453 L482.329102,22.5439453 L482.329102,20.9619141 L484.057617,20.6982422 L484.057617,12.4804688 C484.057617,11.3378906 483.974609,10.4345703 483.808594,9.77050781 C483.642578,9.10644531 483.330078,8.60595703 482.871094,8.26904297 C482.412109,7.93212891 481.75293,7.76367188 480.893555,7.76367188 C480.297852,7.76367188 479.648438,7.90039062 478.945312,8.17382812 C478.242188,8.44726562 477.636719,8.76464844 477.128906,9.12597656 C477.304688,9.96582031 477.392578,11.0644531 477.392578,12.421875 L477.392578,20.6982422 L479.53125,20.9619141 L479.53125,22.5439453 L472.089844,22.5439453 L472.089844,20.9619141 L474.038086,20.6982422 L474.038086,12.4072266 C474.038086,11.2646484 473.964844,10.3710938 473.818359,9.7265625 C473.671875,9.08203125 473.38623,8.59619141 472.961426,8.26904297 C472.536621,7.94189453 471.914062,7.77832031 471.09375,7.77832031 C470.410156,7.77832031 469.692383,7.92480469 468.94043,8.21777344 C468.188477,8.51074219 467.529297,8.87207031 466.962891,9.30175781 L466.962891,20.6982422 L468.925781,20.9619141 L468.925781,22.5439453 L461.777344,22.5439453 L461.777344,20.9619141 L463.608398,20.7128906 Z" id="Path"></path>
        </g>
        <path d="M32,0 C49.673,0 64,14.327 64,32 C64,49.673 49.673,64 32,64 C14.327,64 0,49.673 0,32 C0,14.327 14.327,0 32,0 Z M50.7767,23.6618 L13.2227,23.6618 L13.2227,44.0078 C13.2227,44.9518 13.9567,45.6858 14.8487,45.6858 L14.8487,45.6858 L49.0987,45.6858 C50.0417,45.6858 50.7767,44.9518 50.7767,44.0078 L50.7767,44.0078 L50.7767,23.6618 Z M35.3737,14.612 L28.6257,14.612 C27.5807,14.612 26.6707,15.325 26.4207,16.339 L26.4207,16.339 L25.7727,18.978 L14.8487,18.978 C13.9547,18.978 13.2227,19.71 13.2227,20.604 L13.2227,20.604 L13.2227,21.262 L50.7767,21.262 L50.7767,20.604 C50.7767,19.712 50.0417,18.978 49.0987,18.978 L49.0987,18.978 L38.2277,18.978 L37.5787,16.339 C37.3287,15.325 36.4187,14.612 35.3737,14.612 L35.3737,14.612 Z M34.7833,16.3049 C35.1853,16.3049 35.5323,16.5899 35.6113,16.9849 L35.6113,16.9849 L35.9873,18.8749 L28.0133,18.8749 L28.3883,16.9859 C28.4683,16.5899 28.8143,16.3049 29.2173,16.3049 L29.2173,16.3049 Z" id="icon" fill="#FFFFFF" fill-rule="nonzero"></path>
    </g>
</svg>