<?xml version="1.0" encoding="UTF-8"?>
<svg width="358px" height="64px" viewBox="0 0 358 64" version="1.1" xmlns="http://www.w3.org/2000/svg" xmlns:xlink="http://www.w3.org/1999/xlink">
    <title>logo/cfius/color-dark/stacked/cfius-logo-color-dark-stacked</title>
    <g id="logo/cfius/color-dark/stacked/cfius-logo-color-dark-stacked" stroke="none" stroke-width="1" fill="none" fill-rule="evenodd">
        <g id="CFIUS-Case-Managemen" transform="translate(72.013127, 5.798283)" fill="#000000">
            <path d="M0.853223925,10.1993075 C0.853223925,8.13406808 1.27983589,6.33135907 2.13305981,4.7911805 C2.98628374,3.25100193 4.15235643,2.06961496 5.6312779,1.24701958 C7.11019937,0.424424209 8.76414113,0.0131265219 10.5931032,0.0131265219 C11.4332006,0.0131265219 12.2448572,0.0743836242 13.028073,0.196897829 C13.8112888,0.319412033 14.697329,0.481305804 15.6861937,0.68257914 L16.3950259,0.826970881 L16.145622,5.73629008 L14.1897702,5.73629008 L13.454685,2.38902699 C13.2709137,2.14399858 12.8989955,1.9492885 12.3389306,1.80489676 C11.7788657,1.66050502 11.0437804,1.58830915 10.1336749,1.58830915 C9.01354505,1.58830915 8.02249264,1.90772119 7.1605177,2.54654525 C6.29854277,3.18536932 5.62471464,4.12829114 5.13903333,5.37531072 C4.65335202,6.62233031 4.41051136,8.12531707 4.41051136,9.884271 C4.41051136,11.5119597 4.62709898,13.010571 5.0602742,14.3801048 C5.49344942,15.7496385 6.16290204,16.8522664 7.06863205,17.6879883 C7.97436206,18.5237102 9.1054307,18.9415711 10.461838,18.9415711 C11.8707513,18.9415711 12.8814935,18.6177836 13.4940645,17.9702085 L14.6360719,15.2005124 L16.500038,15.4499163 L15.9224711,19.466632 C15.6861937,19.484134 15.4586673,19.5213258 15.2398919,19.5782074 C15.0211166,19.635089 14.7367086,19.7247869 14.386668,19.8473011 C13.791599,20.0573255 13.2227831,20.2192193 12.6802202,20.3329824 C12.1376573,20.4467456 11.4682046,20.5036272 10.6718623,20.5036272 C8.58912084,20.5036272 6.81266487,20.0945173 5.34249442,19.2762974 C3.87232397,18.4580776 2.7565696,17.2788783 1.99523133,15.7386998 C1.23389306,14.1985212 0.853223925,12.3520571 0.853223925,10.1993075 Z" id="Path"></path>
            <polygon id="Path" points="20.976182 18.4558898 20.976182 2.00835785 18.7709263 1.68019481 18.7709263 0.223150873 33.1050883 0.223150873 33.3807452 4.81743354 31.4773996 4.81743354 30.6110491 1.90334568 24.0609147 1.71957437 24.0609147 9.37233665 28.6289443 9.31983056 29.1540052 7.11457488 30.7685674 7.11457488 30.7685674 13.3759258 29.1540052 13.3759258 28.6289443 11.1312906 24.0609147 11.0131519 24.0609147 18.4558898 28.0513773 18.7709263 28.0513773 20.2017172 18.8103059 20.2017172 18.8103059 18.7709263"></polygon>
            <polygon id="Path" points="38.053787 18.4558898 38.053787 2.02148437 35.6516335 1.68019481 35.6516335 0.223150873 43.5537997 0.223150873 43.5537997 1.68019481 41.1516462 2.00835785 41.1516462 18.4558898 43.5931793 18.8103059 43.5931793 20.2017172 35.6516335 20.2017172 35.6516335 18.7709263"></polygon>
            <path d="M47.4523767,2.02148437 L45.5621576,1.68019481 L45.5621576,0.223150873 L52.8867568,0.223150873 L52.8867568,1.68019481 L50.6552481,2.02148437 L50.6552481,12.0632736 C50.6552481,14.4785537 51.0840478,16.2134423 51.9416472,17.2679396 C52.7992467,18.3224368 54.0112622,18.8496855 55.5776938,18.8496855 C57.1266234,18.8496855 58.2992593,18.2743063 59.0956017,17.1235478 C59.891944,15.9727894 60.2901152,14.3341619 60.2901152,12.2076654 L60.2901152,2.02148437 L58.124239,1.68019481 L58.124239,0.223150873 L64.411843,0.223150873 L64.411843,1.68019481 L62.4691178,2.02148437 L62.4691178,12.0764002 C62.4691178,13.9403663 62.1584568,15.4958591 61.5371347,16.7428787 C60.9158127,17.9898983 60.0625888,18.9131303 58.977463,19.5125748 C57.8923372,20.1120193 56.6409421,20.4117416 55.2232777,20.4117416 C53.4030667,20.4117416 51.9241452,20.1076438 50.7865133,19.4994483 C49.6488814,18.8912528 48.808784,17.9527065 48.2662211,16.6838094 C47.7236582,15.4149122 47.4523767,13.774097 47.4523767,11.7613636 L47.4523767,2.02148437 Z" id="Path"></path>
            <path d="M66.5908457,14.4260476 L68.4154322,14.4260476 L68.9404931,17.7864372 C69.2380276,18.1014737 69.7193334,18.3705674 70.3844105,18.5937183 C71.0494876,18.8168692 71.7714463,18.9284446 72.5502866,18.9284446 C73.8541878,18.9284446 74.8364892,18.6374734 75.4971908,18.0555309 C76.1578924,17.4735884 76.4882432,16.6663073 76.4882432,15.6336876 C76.4882432,14.9598595 76.3066596,14.3801048 75.9434925,13.8944234 C75.5803254,13.4087421 75.0880809,12.9821302 74.4667588,12.6145876 C73.8454368,12.2470449 72.9922129,11.8182452 71.9070871,11.3281884 C70.9619775,10.8993887 70.1131291,10.4355849 69.3605418,9.93677709 C68.6079545,9.43796926 67.9603795,8.79039418 67.4178166,7.99405185 C66.8752537,7.19770952 66.6039722,6.25697545 66.6039722,5.17184963 C66.6039722,4.17423397 66.8708781,3.28381823 67.40469,2.50060242 C67.9385019,1.71738662 68.6998402,1.10481559 69.6887048,0.662889357 C70.6775695,0.220963119 71.8283279,0 73.1409801,0 C73.9460735,0 74.6899097,0.0678203632 75.3724888,0.20346109 C76.055068,0.339101816 76.7639002,0.511934355 77.4989854,0.721958705 C77.88403,0.835721895 78.1946911,0.914481027 78.4309684,0.9582361 L78.2603237,5.46063312 L76.5013697,5.46063312 L75.8975497,2.27088829 C75.7312804,2.08711698 75.3812399,1.91865995 74.847428,1.7655172 C74.3136161,1.61237444 73.7360491,1.53580306 73.1147271,1.53580306 C70.7519531,1.53580306 69.5705662,2.48966366 69.5705662,4.39738484 C69.5705662,5.06246195 69.749962,5.6312779 70.1087536,6.10383269 C70.4675452,6.57638748 70.9444754,6.99424843 71.5395444,7.35741553 C72.1346134,7.72058264 73.0140904,8.18657417 74.1779753,8.75539012 C75.3331093,9.32420607 76.2782189,9.84489144 77.0133041,10.3174462 C77.7483893,10.790001 78.3784624,11.3916333 78.9035232,12.122343 C79.4285841,12.8530527 79.6911145,13.7172154 79.6911145,14.7148311 C79.6911145,15.6774427 79.4220209,16.6028625 78.8838335,17.4910905 C78.3456461,18.3793184 77.5361772,19.1034649 76.4554269,19.6635298 C75.3746766,20.2235948 74.0642122,20.5036272 72.5240336,20.5036272 C71.578924,20.5036272 70.7169491,20.4183048 69.9381088,20.2476601 C69.1592685,20.0770153 68.3497996,19.8560522 67.5097022,19.5847707 C66.9321352,19.4009994 66.5514661,19.3003627 66.3676948,19.2828607 L66.5908457,14.4260476 Z" id="Path"></path>
            <path d="M89.7329038,10.1993075 C89.7329038,8.13406808 90.1595158,6.33135907 91.0127397,4.7911805 C91.8659636,3.25100193 93.0320363,2.06961496 94.5109578,1.24701958 C95.9898793,0.424424209 97.643821,0.0131265219 99.4727831,0.0131265219 C100.31288,0.0131265219 101.124537,0.0743836242 101.907753,0.196897829 C102.690969,0.319412033 103.577009,0.481305804 104.565874,0.68257914 L105.274706,0.826970881 L105.025302,5.73629008 L103.06945,5.73629008 L102.334365,2.38902699 C102.150594,2.14399858 101.778675,1.9492885 101.21861,1.80489676 C100.658546,1.66050502 99.9234603,1.58830915 99.0133548,1.58830915 C97.8932249,1.58830915 96.9021725,1.90772119 96.0401976,2.54654525 C95.1782227,3.18536932 94.5043945,4.12829114 94.0187132,5.37531072 C93.5330319,6.62233031 93.2901913,8.12531707 93.2901913,9.884271 C93.2901913,11.5119597 93.5067789,13.010571 93.9399541,14.3801048 C94.3731293,15.7496385 95.0425819,16.8522664 95.9483119,17.6879883 C96.854042,18.5237102 97.9851106,18.9415711 99.3415179,18.9415711 C100.750431,18.9415711 101.761173,18.6177836 102.373744,17.9702085 L103.515752,15.2005124 L105.379718,15.4499163 L104.802151,19.466632 C104.565874,19.484134 104.338347,19.5213258 104.119572,19.5782074 C103.900796,19.635089 103.616388,19.7247869 103.266348,19.8473011 C102.671279,20.0573255 102.102463,20.2192193 101.5599,20.3329824 C101.017337,20.4467456 100.347885,20.5036272 99.5515422,20.5036272 C97.4688007,20.5036272 95.6923448,20.0945173 94.2221743,19.2762974 C92.7520039,18.4580776 91.6362495,17.2788783 90.8749112,15.7386998 C90.113573,14.1985212 89.7329038,12.3520571 89.7329038,10.1993075 Z" id="Path"></path>
            <path d="M116.300984,10.4487114 C116.300984,9.62611607 116.215662,8.97854099 116.045017,8.5059862 C115.874372,8.03343141 115.579025,7.68776634 115.158977,7.46899097 C114.738928,7.2502156 114.143859,7.14082792 113.37377,7.14082792 C111.894848,7.14082792 110.337168,7.55650112 108.700728,8.3878475 L108.687601,8.3878475 L108.031275,7.02268922 C108.267553,6.81266487 108.720418,6.54138342 109.38987,6.20884487 C110.059323,5.87630631 110.820661,5.58533508 111.673885,5.33593116 C112.527109,5.08652724 113.338766,4.96182528 114.108855,4.96182528 C115.386503,4.96182528 116.390682,5.13465782 117.121392,5.4803229 C117.852102,5.82598798 118.37935,6.37948965 118.703138,7.14082792 C119.026925,7.90216619 119.188819,8.93041041 119.188819,10.2255606 L119.188819,18.7577998 L120.790255,18.7577998 L120.790255,20.044199 C119.512607,20.3504845 118.549995,20.5036272 117.90242,20.5036272 C117.534877,20.5036272 117.254845,20.4729987 117.062322,20.4117416 C116.8698,20.3504845 116.727596,20.2257825 116.63571,20.0376357 C116.543825,19.8494889 116.497882,19.5585177 116.497882,19.164722 L116.497882,18.5346489 C116.025327,18.9984527 115.404005,19.4425667 114.633916,19.8669909 C113.863827,20.2914151 113.001852,20.5036272 112.047991,20.5036272 C111.207894,20.5036272 110.444368,20.3504845 109.757413,20.044199 C109.070458,19.7379135 108.52352,19.2653587 108.116598,18.6265346 C107.709676,17.9877105 107.506214,17.1913682 107.506214,16.2375076 C107.506214,15.0736227 107.910949,14.1153866 108.720418,13.3627993 C109.529887,12.6102121 110.593135,12.0567104 111.910163,11.7022943 C113.22719,11.3478782 114.690797,11.1575436 116.300984,11.1312906 L116.300984,10.4487114 Z M116.300984,12.6145876 C115.014585,12.6145876 113.9579,12.7611671 113.130929,13.054326 C112.303958,13.347485 111.704514,13.7347174 111.332596,14.2160232 C110.960678,14.697329 110.774718,15.2442675 110.774718,15.8568385 C110.774718,16.775695 111.002245,17.4495231 111.457298,17.8783228 C111.91235,18.3071226 112.524921,18.5215224 113.295011,18.5215224 C113.706308,18.5215224 114.202928,18.4055715 114.784871,18.1736696 C115.366813,17.9417677 115.872184,17.6595475 116.300984,17.3270089 L116.300984,12.6145876 Z" id="Shape"></path>
            <path d="M124.872603,15.9355976 L125.397664,17.9308289 C125.502676,18.1146002 125.706137,18.2896205 126.008047,18.4558898 C126.309957,18.6221591 126.666561,18.7577998 127.077859,18.862812 C127.489156,18.9678242 127.909205,19.0203303 128.338005,19.0203303 C129.326869,19.0203303 130.031326,18.8343712 130.451375,18.4624531 C130.871423,18.090535 131.081448,17.5807884 131.081448,16.9332133 C131.081448,16.4781605 130.939244,16.0778016 130.654836,15.7321365 C130.370428,15.3864714 129.948191,15.0604961 129.388127,14.7542106 C128.828062,14.4479251 128.066723,14.10226 127.104112,13.7172154 C125.7127,13.1746525 124.697583,12.5336407 124.058759,11.7941799 C123.419935,11.0547192 123.100523,10.0986709 123.100523,8.9260349 C123.100523,8.13844359 123.338988,7.44492568 123.815918,6.84548118 C124.292848,6.24603668 124.946987,5.78004515 125.778333,5.44750659 C126.609679,5.11496804 127.546038,4.94869876 128.587409,4.94869876 C129.392502,4.94869876 130.101334,5.01214362 130.713905,5.13903333 C131.326476,5.26592304 131.943423,5.43000457 132.564745,5.6312779 L133.0373,5.77566964 L133.0373,9.09667969 L131.357105,9.09667969 L130.792664,7.25896662 C130.687652,7.03144024 130.405432,6.83454241 129.946004,6.66827313 C129.486575,6.50200386 128.972453,6.41886922 128.403637,6.41886922 C127.598544,6.41886922 126.977222,6.589514 126.539671,6.93080357 C126.102121,7.27209314 125.883345,7.71839489 125.883345,8.26970881 C125.883345,8.75976563 126.012423,9.17106331 126.270578,9.50360187 C126.528732,9.83614042 126.850332,10.1074219 127.235377,10.3174462 C127.620422,10.5274706 128.158609,10.7768745 128.849939,11.065658 L129.361873,11.2888088 C130.359489,11.7176086 131.168958,12.1201552 131.79028,12.4964489 C132.411602,12.8727425 132.927912,13.3540483 133.33921,13.9403663 C133.750507,14.5266843 133.956156,15.2442675 133.956156,16.0931159 C133.956156,16.9682173 133.726442,17.7383066 133.267014,18.4033837 C132.807585,19.0684608 132.142508,19.5847707 131.271782,19.9523133 C130.401056,20.3198559 129.370624,20.5036272 128.180487,20.5036272 C127.287883,20.5036272 126.351524,20.381113 125.371411,20.1360846 C124.391297,19.8910562 123.608081,19.6372768 123.021763,19.3747463 L123.021763,15.9355976 L124.872603,15.9355976 Z" id="Path"></path>
            <path d="M136.266424,12.7064732 C136.266424,11.1662946 136.568334,9.80113636 137.172154,8.61099838 C137.775974,7.42086039 138.611696,6.4998161 139.67932,5.84786551 C140.746943,5.19591492 141.958959,4.86993963 143.315366,4.86993963 C144.995561,4.86993963 146.295087,5.3293679 147.213943,6.24822443 C148.1328,7.16708097 148.622857,8.49285968 148.684114,10.2255606 L148.684114,10.6981154 C148.684114,11.6169719 148.631608,12.3170531 148.526595,12.7983589 L139.429916,12.7983589 C139.46492,14.084758 139.683695,15.1523818 140.086242,16.0012302 C140.488789,16.8500786 141.018225,17.4757762 141.674551,17.8783228 C142.330877,18.2808695 143.070338,18.4821429 143.892933,18.4821429 C144.610516,18.4821429 145.347789,18.3574409 146.104752,18.108037 C146.861715,17.8586331 147.454596,17.5720373 147.883396,17.2482498 L148.43471,18.5083959 C148.102171,18.8496855 147.644931,19.173473 147.062988,19.4797585 C146.481046,19.786044 145.833471,20.0332602 145.120263,20.221407 C144.407055,20.4095538 143.700411,20.5036272 143.00033,20.5036272 C141.530159,20.5036272 140.289703,20.1776519 139.278961,19.5257013 C138.268219,18.8737508 137.513444,17.9636452 137.014636,16.7953848 C136.515828,15.6271243 136.266424,14.2641538 136.266424,12.7064732 Z M145.533748,11.2756823 C145.568753,10.9606458 145.586255,10.5843522 145.586255,10.1468014 C145.577504,9.03542259 145.345602,8.14281909 144.890549,7.46899097 C144.435496,6.79516284 143.717913,6.45824878 142.737799,6.45824878 C141.757686,6.45824878 140.981033,6.82360364 140.407842,7.55431336 C139.83465,8.28502308 139.508675,9.5254794 139.429916,11.2756823 L145.533748,11.2756823 Z" id="Shape"></path>
            <polygon id="Path" points="2.3365209 49.4690163 4.30549919 33.0083579 1.4964235 32.6801948 1.4964235 31.2231509 8.66350446 31.2231509 12.7852323 43.2601715 13.4678115 46.2792715 14.058505 43.2601715 17.6945515 31.2231509 24.8616325 31.2231509 24.8616325 32.6801948 21.9475446 33.0214844 24.4940899 49.4558898 26.8437373 49.7709263 26.8437373 51.2017172 19.0465833 51.2017172 19.0465833 49.7709263 21.3699777 49.4690163 19.7160359 37.5501344 19.138469 32.3126522 18.2327389 35.9093192 13.9534928 50.3091137 12.2601715 50.3091137 7.52149706 37.3794897 6.06445313 32.3257787 5.64440442 37.5370079 4.58115615 49.4558898 7.16708097 49.7709263 7.16708097 51.2017172 0 51.2017172 0 49.7709263"></polygon>
            <path d="M36.7542614,41.4487114 C36.7542614,40.6261161 36.668939,39.978541 36.4982942,39.5059862 C36.3276494,39.0334314 36.0323027,38.6877663 35.612254,38.468991 C35.1922053,38.2502156 34.5971363,38.1408279 33.827047,38.1408279 C32.3481255,38.1408279 30.7904449,38.5565011 29.1540052,39.3878475 L29.1408787,39.3878475 L28.4845526,38.0226892 C28.72083,37.8126649 29.173695,37.5413834 29.8431476,37.2088449 C30.5126002,36.8763063 31.2739385,36.5853351 32.1271624,36.3359312 C32.9803863,36.0865272 33.7920429,35.9618253 34.5621322,35.9618253 C35.8397803,35.9618253 36.8439593,36.1346578 37.574669,36.4803229 C38.3053787,36.825988 38.8326273,37.3794897 39.1564149,38.1408279 C39.4802024,38.9021662 39.6420962,39.9304104 39.6420962,41.2255606 L39.6420962,49.7577998 L41.2435319,49.7577998 L41.2435319,51.044199 C39.9658837,51.3504845 39.0032721,51.5036272 38.355697,51.5036272 C37.9881544,51.5036272 37.708122,51.4729987 37.5155996,51.4117416 C37.3230773,51.3504845 37.1808733,51.2257825 37.0889877,51.0376357 C36.997102,50.8494889 36.9511592,50.5585177 36.9511592,50.164722 L36.9511592,49.5346489 C36.4786044,49.9984527 35.8572824,50.4425667 35.0871931,50.8669909 C34.3171038,51.2914151 33.4551289,51.5036272 32.5012683,51.5036272 C31.6611709,51.5036272 30.8976448,51.3504845 30.2106902,51.044199 C29.5237355,50.7379135 28.9767971,50.2653587 28.5698749,49.6265346 C28.1629528,48.9877105 27.9594917,48.1913682 27.9594917,47.2375076 C27.9594917,46.0736227 28.3642261,45.1153866 29.173695,44.3627993 C29.9831638,43.6102121 31.0464121,43.0567104 32.3634398,42.7022943 C33.6804675,42.3478782 35.1440747,42.1575436 36.7542614,42.1312906 L36.7542614,41.4487114 Z M36.7542614,43.6145876 C35.4678622,43.6145876 34.4111772,43.7611671 33.5842063,44.054326 C32.7572354,44.347485 32.1577909,44.7347174 31.7858728,45.2160232 C31.4139547,45.697329 31.2279956,46.2442675 31.2279956,46.8568385 C31.2279956,47.775695 31.455522,48.4495231 31.9105748,48.8783228 C32.3656275,49.3071226 32.9781986,49.5215224 33.7482878,49.5215224 C34.1595855,49.5215224 34.6562056,49.4055715 35.2381481,49.1736696 C35.8200906,48.9417677 36.3254616,48.6595475 36.7542614,48.3270089 L36.7542614,43.6145876 Z" id="Shape"></path>
            <path d="M44.9714641,49.5477755 L44.9714641,38.5477501 L43.0943714,38.0226892 L43.0943714,36.4475066 L46.9798219,35.9224457 L47.0454545,35.9224457 L47.6624011,36.4343801 L47.6624011,37.4976283 L47.6492746,38.1014484 C48.0518212,37.7426568 48.5571923,37.3969917 49.1653878,37.0644531 C49.7735834,36.7319146 50.4255339,36.4606331 51.1212396,36.2506088 C51.8169453,36.0405844 52.4754591,35.9355722 53.0967811,35.9355722 C54.234413,35.9355722 55.11389,36.1477843 55.7352121,36.5722086 C56.3565341,36.9966328 56.7897093,37.6507711 57.0347377,38.5346236 C57.2797661,39.4184761 57.4022803,40.6173651 57.4022803,42.1312906 L57.4022803,49.5477755 L59.2924995,49.7709263 L59.2924995,51.2017172 L52.7029855,51.2017172 L52.7029855,49.7709263 L54.3831803,49.5477755 L54.3831803,42.1181641 C54.3831803,41.1030464 54.3153599,40.3045163 54.1797192,39.7225738 C54.0440785,39.1406313 53.7881113,38.7030806 53.4118177,38.4099216 C53.035524,38.1167626 52.4798346,37.9701831 51.7447494,37.9701831 C51.1146763,37.9701831 50.4583502,38.1058239 49.7757711,38.3771053 C49.093192,38.6483868 48.4937475,38.9765498 47.9774376,39.3615945 L47.9774376,49.5477755 L49.7888976,49.7709263 L49.7888976,51.2017172 L43.2518897,51.2017172 L43.2518897,49.7709263 L44.9714641,49.5477755 Z" id="Path"></path>
            <path d="M69.8724762,41.4487114 C69.8724762,40.6261161 69.7871538,39.978541 69.616509,39.5059862 C69.4458642,39.0334314 69.1505175,38.6877663 68.7304688,38.468991 C68.31042,38.2502156 67.7153511,38.1408279 66.9452618,38.1408279 C65.4663403,38.1408279 63.9086597,38.5565011 62.27222,39.3878475 L62.2590934,39.3878475 L61.6027673,38.0226892 C61.8390447,37.8126649 62.2919098,37.5413834 62.9613624,37.2088449 C63.630815,36.8763063 64.3921533,36.5853351 65.2453772,36.3359312 C66.0986011,36.0865272 66.9102577,35.9618253 67.680347,35.9618253 C68.9579951,35.9618253 69.9621741,36.1346578 70.6928838,36.4803229 C71.4235935,36.825988 71.9508421,37.3794897 72.2746297,38.1408279 C72.5984172,38.9021662 72.760311,39.9304104 72.760311,41.2255606 L72.760311,49.7577998 L74.3617467,49.7577998 L74.3617467,51.044199 C73.0840985,51.3504845 72.1214869,51.5036272 71.4739118,51.5036272 C71.1063692,51.5036272 70.8263367,51.4729987 70.6338144,51.4117416 C70.4412921,51.3504845 70.2990881,51.2257825 70.2072025,51.0376357 C70.1153168,50.8494889 70.069374,50.5585177 70.069374,50.164722 L70.069374,49.5346489 C69.5968192,49.9984527 68.9754972,50.4425667 68.2054079,50.8669909 C67.4353186,51.2914151 66.5733436,51.5036272 65.6194831,51.5036272 C64.7793857,51.5036272 64.0158596,51.3504845 63.328905,51.044199 C62.6419503,50.7379135 62.0950119,50.2653587 61.6880897,49.6265346 C61.2811676,48.9877105 61.0777065,48.1913682 61.0777065,47.2375076 C61.0777065,46.0736227 61.4824409,45.1153866 62.2919098,44.3627993 C63.1013786,43.6102121 64.1646269,43.0567104 65.4816546,42.7022943 C66.7986823,42.3478782 68.2622895,42.1575436 69.8724762,42.1312906 L69.8724762,41.4487114 Z M69.8724762,43.6145876 C68.586077,43.6145876 67.529392,43.7611671 66.7024211,44.054326 C65.8754502,44.347485 65.2760057,44.7347174 64.9040876,45.2160232 C64.5321695,45.697329 64.3462104,46.2442675 64.3462104,46.8568385 C64.3462104,47.775695 64.5737368,48.4495231 65.0287896,48.8783228 C65.4838423,49.3071226 66.0964134,49.5215224 66.8665026,49.5215224 C67.2778003,49.5215224 67.7744204,49.4055715 68.3563629,49.1736696 C68.9383053,48.9417677 69.4436764,48.6595475 69.8724762,48.3270089 L69.8724762,43.6145876 Z" id="Shape"></path>
            <path d="M82.6577085,45.8854759 C81.9401253,45.8854759 81.2706727,45.8110922 80.6493506,45.662325 C80.4043222,45.8811003 80.2117999,46.132692 80.0717837,46.4171 C79.9317675,46.701508 79.8617593,46.9924792 79.8617593,47.2900137 C79.8617593,47.7275644 79.9645838,48.0622907 80.1702326,48.2941926 C80.3758814,48.5260945 80.6865425,48.6858005 81.1022157,48.7733107 C81.5178888,48.8608208 82.0888926,48.9045759 82.8152268,48.9045759 L85.6768085,48.9045759 C89.0984553,48.9045759 90.8092786,50.2172281 90.8092786,52.8425325 C90.8092786,53.8576502 90.4482993,54.7940087 89.7263406,55.6516082 C89.0043818,56.5092076 88.0395825,57.189599 86.8319425,57.6927823 C85.6243025,58.1959657 84.3291523,58.4475573 82.946492,58.4475573 L82.9333655,58.4475573 C80.5880935,58.4475573 78.8860212,58.0909535 77.8271484,57.3777458 C76.7682757,56.6645381 76.2388393,55.6559837 76.2388393,54.3520825 C76.2388393,53.5382381 76.4773044,52.8009651 76.9542347,52.1402635 C77.431165,51.4795619 78.0065442,50.9785664 78.6803724,50.6372768 C77.8315239,50.155971 77.4070997,49.4208858 77.4070997,48.4320211 C77.4070997,47.775695 77.5952466,47.1696872 77.9715402,46.6139978 C78.3478338,46.0583084 78.8422661,45.6098189 79.4548372,45.2685293 C78.5797357,44.8659827 77.9080953,44.2949789 77.439916,43.5555182 C76.9717368,42.8160575 76.7376471,41.9518948 76.7376471,40.9630301 C76.7376471,39.9304104 77.0308061,39.0290559 77.6171241,38.2589666 C78.2034421,37.4888773 78.9735314,36.9003716 79.9273919,36.4934494 C80.8812525,36.0865272 81.9007457,35.8786906 82.9858716,35.8699396 L82.9989981,35.8699396 C83.9441077,35.8699396 84.7929561,35.9771396 85.5455433,36.1915394 C86.2981306,36.4059393 86.9325791,36.7231636 87.448889,37.1432123 C87.7114194,36.8369267 88.1052151,36.5437678 88.630276,36.2637353 C89.1553369,35.9837028 89.7722834,35.8436866 90.4811156,35.8436866 L91.1899477,35.8436866 L91.1899477,38.3902318 L88.4333781,38.3902318 C88.7396637,39.0290559 88.8928064,39.7335126 88.8928064,40.5036019 C88.8928064,41.5537236 88.621525,42.4878944 88.0789621,43.3061143 C87.5363991,44.1243342 86.7925629,44.7587827 85.8474533,45.20946 C84.9023438,45.6601372 83.843471,45.8854759 82.670835,45.8854759 L82.6577085,45.8854759 Z M82.8152268,37.4057427 C81.8701172,37.4057427 81.1372197,37.6617099 80.6165343,38.1736442 C80.095849,38.6855786 79.8355063,39.5234882 79.8355063,40.6873732 C79.8355063,41.790001 80.0827225,42.6716657 80.5771548,43.3323673 C81.0715871,43.9930689 81.8613662,44.3234197 82.946492,44.3234197 L82.9596185,44.3234197 C83.9572342,44.3234197 84.6813806,44.0258852 85.1320579,43.4308163 C85.5827351,42.8357473 85.8080738,41.9650213 85.8080738,40.8186384 C85.8080738,39.6460024 85.5652331,38.7840275 85.0795518,38.2327136 C84.5938705,37.6813997 83.843471,37.4057427 82.8283533,37.4057427 L82.8152268,37.4057427 Z M80.0192776,51.0967051 C79.4592127,51.7880352 79.1791802,52.6150061 79.1791802,53.5776177 C79.1791802,54.6277394 79.4898412,55.4240818 80.1111633,55.9666447 C80.7324853,56.5092076 81.7519785,56.780489 83.1696429,56.780489 L83.1958959,56.780489 C83.9834872,56.780489 84.7360745,56.6579748 85.4536577,56.4129464 C86.1712409,56.167918 86.7531833,55.8047509 87.1994851,55.3234451 C87.6457868,54.8421393 87.8689377,54.2689478 87.8689377,53.6038707 C87.8689377,53.0350548 87.7836153,52.5865653 87.6129705,52.2584022 C87.4423257,51.9302392 87.129477,51.683023 86.6744242,51.5167538 C86.2193714,51.3504845 85.5586698,51.2673498 84.6923194,51.2673498 L82.0538885,51.2673498 C81.3363053,51.2673498 80.6581017,51.2104682 80.0192776,51.0967051 Z" id="Shape"></path>
            <path d="M92.5944856,43.7064732 C92.5944856,42.1662946 92.8963956,40.8011364 93.5002156,39.6109984 C94.1040356,38.4208604 94.9397575,37.4998161 96.0073813,36.8478655 C97.0750051,36.1959149 98.2870206,35.8699396 99.6434279,35.8699396 C101.323623,35.8699396 102.623148,36.3293679 103.542005,37.2482244 C104.460861,38.167081 104.950918,39.4928597 105.012175,41.2255606 L105.012175,41.6981154 C105.012175,42.6169719 104.959669,43.3170531 104.854657,43.7983589 L95.7579774,43.7983589 C95.7929814,45.084758 96.0117568,46.1523818 96.4143035,47.0012302 C96.8168501,47.8500786 97.3462865,48.4757762 98.0026126,48.8783228 C98.6589387,49.2808695 99.3983995,49.4821429 100.220995,49.4821429 C100.938578,49.4821429 101.675851,49.3574409 102.432814,49.108037 C103.189777,48.8586331 103.782658,48.5720373 104.211457,48.2482498 L104.762771,49.5083959 C104.430233,49.8496855 103.972992,50.173473 103.39105,50.4797585 C102.809107,50.786044 102.161532,51.0332602 101.448325,51.221407 C100.735117,51.4095538 100.028473,51.5036272 99.3283913,51.5036272 C97.8582209,51.5036272 96.6177646,51.1776519 95.6070224,50.5257013 C94.5962802,49.8737508 93.8415052,48.9636452 93.3426973,47.7953848 C92.8438895,46.6271243 92.5944856,45.2641538 92.5944856,43.7064732 Z M101.86181,42.2756823 C101.896814,41.9606458 101.914316,41.5843522 101.914316,41.1468014 C101.905565,40.0354226 101.673663,39.1428191 101.21861,38.468991 C100.763558,37.7951628 100.045975,37.4582488 99.0658609,37.4582488 C98.0857473,37.4582488 97.3090947,37.8236036 96.7359033,38.5543134 C96.1627118,39.2850231 95.8367365,40.5254794 95.7579774,42.2756823 L101.86181,42.2756823 Z" id="Shape"></path>
            <path d="M109.133903,49.560902 L109.133903,38.5477501 L107.256811,38.0226892 L107.256811,36.4475066 L111.129135,35.9224457 L111.194767,35.9224457 L111.82484,36.4343801 L111.82484,37.4976283 L111.798587,38.1014484 C112.192383,37.7426568 112.702129,37.3969917 113.327827,37.0644531 C113.953525,36.7319146 114.614226,36.4606331 115.309932,36.2506088 C116.005637,36.0405844 116.637898,35.9355722 117.206714,35.9355722 C118.169326,35.9355722 118.943791,36.097466 119.530109,36.4212536 C120.116427,36.7450411 120.562728,37.2482244 120.869014,37.9308036 C121.210303,37.6332691 121.68067,37.3291713 122.280115,37.0185103 C122.879559,36.7078493 123.520571,36.4496943 124.20315,36.2440455 C124.88573,36.0383967 125.520178,35.9355722 126.106496,35.9355722 C127.244128,35.9355722 128.12798,36.1477843 128.758053,36.5722086 C129.388127,36.9966328 129.830053,37.6485834 130.083832,38.5280603 C130.337612,39.4075373 130.464501,40.5954875 130.464501,42.091911 L130.464501,49.560902 L132.341594,49.7840529 L132.341594,51.2017172 L125.909598,51.2017172 L125.909598,49.7840529 L127.458528,49.5477755 L127.458528,42.1837967 C127.458528,41.159928 127.384144,40.3504591 127.235377,39.7553901 C127.08661,39.1603211 126.806577,38.7118316 126.39528,38.4099216 C125.983982,38.1080116 125.393288,37.9570566 124.623199,37.9570566 C124.089387,37.9570566 123.507445,38.0795708 122.877372,38.3245992 C122.247299,38.5696276 121.704736,38.8540356 121.249683,39.1778232 C121.407201,39.9304104 121.48596,40.9148996 121.48596,42.1312906 L121.48596,49.5477755 L123.402433,49.7840529 L123.402433,51.2017172 L116.734159,51.2017172 L116.734159,49.7840529 L118.479987,49.5477755 L118.479987,42.1181641 C118.479987,41.0942954 118.414354,40.2935775 118.283089,39.7160106 C118.151824,39.1384436 117.895857,38.7030806 117.515187,38.4099216 C117.134518,38.1167626 116.576641,37.9701831 115.841556,37.9701831 C115.228985,37.9701831 114.585785,38.1014484 113.911957,38.3639788 C113.238129,38.6265092 112.647436,38.9502968 112.139877,39.3353414 L112.139877,49.5477755 L113.898831,49.7840529 L113.898831,51.2017172 L107.493088,51.2017172 L107.493088,49.7840529 L109.133903,49.560902 Z" id="Path"></path>
            <path d="M134.153054,43.7064732 C134.153054,42.1662946 134.454964,40.8011364 135.058784,39.6109984 C135.662604,38.4208604 136.498326,37.4998161 137.56595,36.8478655 C138.633573,36.1959149 139.845589,35.8699396 141.201996,35.8699396 C142.882191,35.8699396 144.181717,36.3293679 145.100573,37.2482244 C146.01943,38.167081 146.509487,39.4928597 146.570744,41.2255606 L146.570744,41.6981154 C146.570744,42.6169719 146.518238,43.3170531 146.413225,43.7983589 L137.316546,43.7983589 C137.35155,45.084758 137.570325,46.1523818 137.972872,47.0012302 C138.375419,47.8500786 138.904855,48.4757762 139.561181,48.8783228 C140.217507,49.2808695 140.956968,49.4821429 141.779563,49.4821429 C142.497146,49.4821429 143.234419,49.3574409 143.991382,49.108037 C144.748345,48.8586331 145.341226,48.5720373 145.770026,48.2482498 L146.32134,49.5083959 C145.988801,49.8496855 145.531561,50.173473 144.949618,50.4797585 C144.367676,50.786044 143.720101,51.0332602 143.006893,51.221407 C142.293685,51.4095538 141.587041,51.5036272 140.88696,51.5036272 C139.416789,51.5036272 138.176333,51.1776519 137.165591,50.5257013 C136.154849,49.8737508 135.400074,48.9636452 134.901266,47.7953848 C134.402458,46.6271243 134.153054,45.2641538 134.153054,43.7064732 Z M143.420378,42.2756823 C143.455383,41.9606458 143.472885,41.5843522 143.472885,41.1468014 C143.464134,40.0354226 143.232232,39.1428191 142.777179,38.468991 C142.322126,37.7951628 141.604543,37.4582488 140.624429,37.4582488 C139.644316,37.4582488 138.867663,37.8236036 138.294472,38.5543134 C137.72128,39.2850231 137.395305,40.5254794 137.316546,42.2756823 L143.420378,42.2756823 Z" id="Shape"></path>
            <path d="M150.692472,49.5477755 L150.692472,38.5477501 L148.815379,38.0226892 L148.815379,36.4475066 L152.700829,35.9224457 L152.766462,35.9224457 L153.383409,36.4343801 L153.383409,37.4976283 L153.370282,38.1014484 C153.772829,37.7426568 154.2782,37.3969917 154.886395,37.0644531 C155.494591,36.7319146 156.146541,36.4606331 156.842247,36.2506088 C157.537953,36.0405844 158.196467,35.9355722 158.817789,35.9355722 C159.955421,35.9355722 160.834898,36.1477843 161.45622,36.5722086 C162.077542,36.9966328 162.510717,37.6507711 162.755745,38.5346236 C163.000774,39.4184761 163.123288,40.6173651 163.123288,42.1312906 L163.123288,49.5477755 L165.013507,49.7709263 L165.013507,51.2017172 L158.423993,51.2017172 L158.423993,49.7709263 L160.104188,49.5477755 L160.104188,42.1181641 C160.104188,41.1030464 160.036367,40.3045163 159.900727,39.7225738 C159.765086,39.1406313 159.509119,38.7030806 159.132825,38.4099216 C158.756532,38.1167626 158.200842,37.9701831 157.465757,37.9701831 C156.835684,37.9701831 156.179358,38.1058239 155.496779,38.3771053 C154.814199,38.6483868 154.214755,38.9765498 153.698445,39.3615945 L153.698445,49.5477755 L155.509905,49.7709263 L155.509905,51.2017172 L148.972897,51.2017172 L148.972897,49.7709263 L150.692472,49.5477755 Z" id="Path"></path>
            <path d="M166.562437,38.1539544 L166.562437,36.9069349 C166.807465,36.8456778 167.089685,36.7581676 167.409097,36.6444044 C167.728509,36.5306412 167.936346,36.4431311 168.032607,36.381874 C168.321391,36.1718496 168.557668,35.8305601 168.741439,35.3580053 C168.872704,35.0604708 169.045537,34.5857282 169.259937,33.9337776 C169.474337,33.2818271 169.620916,32.7895825 169.699675,32.4570439 L171.406123,32.4570439 L171.432376,36.2768618 L175.842888,36.2768618 L175.842888,38.1539544 L171.445503,38.1539544 L171.445503,46.0955002 C171.445503,47.163124 171.476131,47.9047725 171.537388,48.3204457 C171.598645,48.7361189 171.723347,49.0030248 171.911494,49.1211635 C172.099641,49.2393022 172.443118,49.2983716 172.941926,49.2983716 L172.955053,49.2983716 C173.410106,49.2983716 173.924228,49.24149 174.497419,49.1277268 C175.070611,49.0139636 175.514725,48.8958249 175.829761,48.7733107 L175.842888,48.7733107 L176.289189,50.0465833 C176.026659,50.2653587 175.632863,50.4863218 175.107802,50.7094727 C174.582741,50.9326235 174.018301,51.1185826 173.414481,51.2673498 C172.810661,51.4161171 172.254972,51.4905007 171.747413,51.4905007 L171.72116,51.4905007 C170.636034,51.4905007 169.817814,51.2520356 169.2665,50.7751053 C168.715186,50.298175 168.439529,49.4996449 168.439529,48.379515 L168.439529,38.1539544 L166.562437,38.1539544 Z" id="Path"></path>
            <path d="M186.47537,45.4260476 L188.299957,45.4260476 L188.825018,48.7864372 C189.122552,49.1014737 189.603858,49.3705674 190.268935,49.5937183 C190.934012,49.8168692 191.655971,49.9284446 192.434811,49.9284446 C193.738712,49.9284446 194.721014,49.6374734 195.381715,49.0555309 C196.042417,48.4735884 196.372768,47.6663073 196.372768,46.6336876 C196.372768,45.9598595 196.191184,45.3801048 195.828017,44.8944234 C195.46485,44.4087421 194.972606,43.9821302 194.351283,43.6145876 C193.729961,43.2470449 192.876738,42.8182452 191.791612,42.3281884 C190.846502,41.8993887 189.997654,41.4355849 189.245066,40.9367771 C188.492479,40.4379693 187.844904,39.7903942 187.302341,38.9940518 C186.759778,38.1977095 186.488497,37.2569754 186.488497,36.1718496 C186.488497,35.174234 186.755403,34.2838182 187.289215,33.5006024 C187.823027,32.7173866 188.584365,32.1048156 189.57323,31.6628894 C190.562094,31.2209631 191.712853,31 193.025505,31 C193.830598,31 194.574434,31.0678204 195.257013,31.2034611 C195.939593,31.3391018 196.648425,31.5119344 197.38351,31.7219587 C197.768555,31.8357219 198.079216,31.914481 198.315493,31.9582361 L198.144848,36.4606331 L196.385894,36.4606331 L195.782074,33.2708883 C195.615805,33.087117 195.265765,32.91866 194.731953,32.7655172 C194.198141,32.6123744 193.620574,32.5358031 192.999252,32.5358031 C190.636478,32.5358031 189.455091,33.4896637 189.455091,35.3973848 C189.455091,36.062462 189.634487,36.6312779 189.993278,37.1038327 C190.35207,37.5763875 190.829,37.9942484 191.424069,38.3574155 C192.019138,38.7205826 192.898615,39.1865742 194.0625,39.7553901 C195.217634,40.3242061 196.162744,40.8448914 196.897829,41.3174462 C197.632914,41.790001 198.262987,42.3916333 198.788048,43.122343 C199.313109,43.8530527 199.575639,44.7172154 199.575639,45.7148311 C199.575639,46.6774427 199.306546,47.6028625 198.768358,48.4910905 C198.230171,49.3793184 197.420702,50.1034649 196.339952,50.6635298 C195.259201,51.2235948 193.948737,51.5036272 192.408558,51.5036272 C191.463449,51.5036272 190.601474,51.4183048 189.822633,51.2476601 C189.043793,51.0770153 188.234324,50.8560522 187.394227,50.5847707 C186.81666,50.4009994 186.435991,50.3003627 186.252219,50.2828607 L186.47537,45.4260476 Z" id="Path"></path>
            <path d="M202.581613,55.2184329 C202.686625,55.27969 202.901025,55.3343839 203.224812,55.3825145 C203.5486,55.430645 203.854885,55.4547103 204.143669,55.4547103 C204.66873,55.4547103 205.152223,55.3475104 205.59415,55.1331105 C206.036076,54.9187107 206.484565,54.5008497 206.939618,53.8795277 C207.394671,53.2582057 207.836597,52.3656022 208.265397,51.2017172 L206.7821,51.2017172 L201.872781,38.0095627 L200.625761,37.6682731 L200.625761,36.2768618 L207.307161,36.2768618 L207.307161,37.6682731 L205.246297,38.0095627 L207.779715,45.9379819 L208.947976,49.7446733 L209.998098,45.9248554 L212.373998,37.9964362 L210.615044,37.6682731 L210.615044,36.2768618 L216.128183,36.2768618 L216.128183,37.6682731 L214.789278,37.9964362 C213.529132,41.9168907 212.503076,45.0475662 211.711109,47.3884626 C210.919142,49.729359 210.413771,51.1492111 210.194995,51.648019 C209.599926,53.1531935 209.037674,54.3433315 208.508237,55.2184329 C207.978801,56.0935344 207.36623,56.7586115 206.670524,57.2136643 C205.974819,57.668717 205.123782,57.8962434 204.117416,57.8962434 C203.846134,57.8962434 203.552975,57.8765536 203.237939,57.8371741 C202.922902,57.7977945 202.704127,57.7518517 202.581613,57.6993456 L202.581613,55.2184329 Z" id="Path"></path>
            <path d="M219.567332,46.9355976 L220.092393,48.9308289 C220.197405,49.1146002 220.400866,49.2896205 220.702776,49.4558898 C221.004686,49.6221591 221.36129,49.7577998 221.772588,49.862812 C222.183885,49.9678242 222.603934,50.0203303 223.032734,50.0203303 C224.021599,50.0203303 224.726055,49.8343712 225.146104,49.4624531 C225.566153,49.090535 225.776177,48.5807884 225.776177,47.9332133 C225.776177,47.4781605 225.633973,47.0778016 225.349565,46.7321365 C225.065157,46.3864714 224.642921,46.0604961 224.082856,45.7542106 C223.522791,45.4479251 222.761452,45.10226 221.798841,44.7172154 C220.407429,44.1746525 219.392312,43.5336407 218.753488,42.7941799 C218.114664,42.0547192 217.795252,41.0986709 217.795252,39.9260349 C217.795252,39.1384436 218.033717,38.4449257 218.510647,37.8454812 C218.987577,37.2460367 219.641716,36.7800452 220.473062,36.4475066 C221.304408,36.114968 222.240767,35.9486988 223.282138,35.9486988 C224.087231,35.9486988 224.796063,36.0121436 225.408634,36.1390333 C226.021205,36.265923 226.638152,36.4300046 227.259474,36.6312779 L227.732029,36.7756696 L227.732029,40.0966797 L226.051834,40.0966797 L225.487393,38.2589666 C225.382381,38.0314402 225.100161,37.8345424 224.640733,37.6682731 C224.181305,37.5020039 223.667182,37.4188692 223.098366,37.4188692 C222.293273,37.4188692 221.671951,37.589514 221.2344,37.9308036 C220.79685,38.2720931 220.578074,38.7183949 220.578074,39.2697088 C220.578074,39.7597656 220.707152,40.1710633 220.965307,40.5036019 C221.223462,40.8361404 221.545061,41.1074219 221.930106,41.3174462 C222.315151,41.5274706 222.853338,41.7768745 223.544668,42.065658 L224.056603,42.2888088 C225.054218,42.7176086 225.863687,43.1201552 226.485009,43.4964489 C227.106331,43.8727425 227.622641,44.3540483 228.033939,44.9403663 C228.445236,45.5266843 228.650885,46.2442675 228.650885,47.0931159 C228.650885,47.9682173 228.421171,48.7383066 227.961743,49.4033837 C227.502315,50.0684608 226.837237,50.5847707 225.966512,50.9523133 C225.095786,51.3198559 224.065354,51.5036272 222.875216,51.5036272 C221.982612,51.5036272 221.046254,51.381113 220.06614,51.1360846 C219.086026,50.8910562 218.30281,50.6372768 217.716492,50.3747463 L217.716492,46.9355976 L219.567332,46.9355976 Z" id="Path"></path>
            <path d="M230.724876,38.1539544 L230.724876,36.9069349 C230.969904,36.8456778 231.252124,36.7581676 231.571536,36.6444044 C231.890948,36.5306412 232.098785,36.4431311 232.195046,36.381874 C232.48383,36.1718496 232.720107,35.8305601 232.903878,35.3580053 C233.035144,35.0604708 233.207976,34.5857282 233.422376,33.9337776 C233.636776,33.2818271 233.783355,32.7895825 233.862114,32.4570439 L235.568562,32.4570439 L235.594815,36.2768618 L240.005327,36.2768618 L240.005327,38.1539544 L235.607942,38.1539544 L235.607942,46.0955002 C235.607942,47.163124 235.63857,47.9047725 235.699828,48.3204457 C235.761085,48.7361189 235.885787,49.0030248 236.073933,49.1211635 C236.26208,49.2393022 236.605558,49.2983716 237.104365,49.2983716 L237.117492,49.2983716 C237.572545,49.2983716 238.086667,49.24149 238.659858,49.1277268 C239.23305,49.0139636 239.677164,48.8958249 239.9922,48.7733107 L240.005327,48.7733107 L240.451628,50.0465833 C240.189098,50.2653587 239.795302,50.4863218 239.270241,50.7094727 C238.745181,50.9326235 238.18074,51.1185826 237.57692,51.2673498 C236.9731,51.4161171 236.417411,51.4905007 235.909852,51.4905007 L235.883599,51.4905007 C234.798473,51.4905007 233.980253,51.2520356 233.428939,50.7751053 C232.877625,50.298175 232.601968,49.4996449 232.601968,48.379515 L232.601968,38.1539544 L230.724876,38.1539544 Z" id="Path"></path>
            <path d="M241.908672,43.7064732 C241.908672,42.1662946 242.210582,40.8011364 242.814402,39.6109984 C243.418222,38.4208604 244.253944,37.4998161 245.321568,36.8478655 C246.389192,36.1959149 247.601207,35.8699396 248.957615,35.8699396 C250.637809,35.8699396 251.937335,36.3293679 252.856192,37.2482244 C253.775048,38.167081 254.265105,39.4928597 254.326362,41.2255606 L254.326362,41.6981154 C254.326362,42.6169719 254.273856,43.3170531 254.168844,43.7983589 L245.072164,43.7983589 C245.107168,45.084758 245.325944,46.1523818 245.72849,47.0012302 C246.131037,47.8500786 246.660473,48.4757762 247.316799,48.8783228 C247.973126,49.2808695 248.712586,49.4821429 249.535182,49.4821429 C250.252765,49.4821429 250.990038,49.3574409 251.747001,49.108037 C252.503963,48.8586331 253.096845,48.5720373 253.525644,48.2482498 L254.076958,49.5083959 C253.74442,49.8496855 253.287179,50.173473 252.705237,50.4797585 C252.123294,50.786044 251.475719,51.0332602 250.762511,51.221407 C250.049304,51.4095538 249.342659,51.5036272 248.642578,51.5036272 C247.172408,51.5036272 245.931951,51.1776519 244.921209,50.5257013 C243.910467,49.8737508 243.155692,48.9636452 242.656884,47.7953848 C242.158076,46.6271243 241.908672,45.2641538 241.908672,43.7064732 Z M251.175997,42.2756823 C251.211001,41.9606458 251.228503,41.5843522 251.228503,41.1468014 C251.219752,40.0354226 250.98785,39.1428191 250.532797,38.468991 C250.077745,37.7951628 249.360161,37.4582488 248.380048,37.4582488 C247.399934,37.4582488 246.623282,37.8236036 246.05009,38.5543134 C245.476899,39.2850231 245.150923,40.5254794 245.072164,42.2756823 L251.175997,42.2756823 Z" id="Shape"></path>
            <path d="M258.44809,49.560902 L258.44809,38.5477501 L256.570997,38.0226892 L256.570997,36.4475066 L260.443321,35.9224457 L260.508954,35.9224457 L261.139027,36.4343801 L261.139027,37.4976283 L261.112774,38.1014484 C261.50657,37.7426568 262.016316,37.3969917 262.642014,37.0644531 C263.267711,36.7319146 263.928413,36.4606331 264.624119,36.2506088 C265.319824,36.0405844 265.952085,35.9355722 266.520901,35.9355722 C267.483513,35.9355722 268.257977,36.097466 268.844295,36.4212536 C269.430613,36.7450411 269.876915,37.2482244 270.183201,37.9308036 C270.52449,37.6332691 270.994857,37.3291713 271.594302,37.0185103 C272.193746,36.7078493 272.834758,36.4496943 273.517337,36.2440455 C274.199916,36.0383967 274.834365,35.9355722 275.420683,35.9355722 C276.558315,35.9355722 277.442167,36.1477843 278.07224,36.5722086 C278.702313,36.9966328 279.14424,37.6485834 279.398019,38.5280603 C279.651798,39.4075373 279.778688,40.5954875 279.778688,42.091911 L279.778688,49.560902 L281.655781,49.7840529 L281.655781,51.2017172 L275.223785,51.2017172 L275.223785,49.7840529 L276.772715,49.5477755 L276.772715,42.1837967 C276.772715,41.159928 276.698331,40.3504591 276.549564,39.7553901 C276.400796,39.1603211 276.120764,38.7118316 275.709466,38.4099216 C275.298169,38.1080116 274.707475,37.9570566 273.937386,37.9570566 C273.403574,37.9570566 272.821631,38.0795708 272.191558,38.3245992 C271.561485,38.5696276 271.018922,38.8540356 270.56387,39.1778232 C270.721388,39.9304104 270.800147,40.9148996 270.800147,42.1312906 L270.800147,49.5477755 L272.716619,49.7840529 L272.716619,51.2017172 L266.048346,51.2017172 L266.048346,49.7840529 L267.794174,49.5477755 L267.794174,42.1181641 C267.794174,41.0942954 267.728541,40.2935775 267.597276,39.7160106 C267.466011,39.1384436 267.210043,38.7030806 266.829374,38.4099216 C266.448705,38.1167626 265.890828,37.9701831 265.155743,37.9701831 C264.543172,37.9701831 263.899972,38.1014484 263.226144,38.3639788 C262.552316,38.6265092 261.961622,38.9502968 261.454064,39.3353414 L261.454064,49.5477755 L263.213017,49.7840529 L263.213017,51.2017172 L256.807275,51.2017172 L256.807275,49.7840529 L258.44809,49.560902 Z" id="Path"></path>
        </g>
        <g id="Group">
            <path d="M32,64.0002 C14.327,64.0002 0,49.6732 0,32.0002 C0,14.3272 14.327,0.0002 32,0.0002 C49.673,0.0002 64,14.3272 64,32.0002 C64,49.6732 49.673,64.0002 32,64.0002 Z" id="circle" fill="#083C6F"></path>
            <path d="M50.7767,23.662 L50.7767,44.008 C50.7767,44.952 50.0417,45.686 49.0987,45.686 L14.8487,45.686 C13.9567,45.686 13.2227,44.952 13.2227,44.008 L13.2227,23.662 L50.7767,23.662 Z M35.3737,14.6122 C36.4187,14.6122 37.3287,15.3252 37.5787,16.3392 L38.2277,18.9782 L49.0987,18.9782 C50.0417,18.9782 50.7767,19.7122 50.7767,20.6042 L50.7767,21.2622 L13.2227,21.2622 L13.2227,20.6042 C13.2227,19.7102 13.9547,18.9782 14.8487,18.9782 L25.7727,18.9782 L26.4207,16.3392 C26.6707,15.3252 27.5807,14.6122 28.6257,14.6122 L35.3737,14.6122 Z M34.7833,16.3051 L29.2173,16.3051 C28.8143,16.3051 28.4683,16.5901 28.3883,16.9861 L28.0133,18.8751 L35.9873,18.8751 L35.6113,16.9851 C35.5323,16.5901 35.1853,16.3051 34.7833,16.3051 Z" id="icon" fill="#F5EA14"></path>
        </g>
    </g>
</svg>