<?xml version="1.0" encoding="UTF-8"?>
<svg width="183px" height="64px" viewBox="0 0 183 64" version="1.1" xmlns="http://www.w3.org/2000/svg" xmlns:xlink="http://www.w3.org/1999/xlink">
    <title>logo/hrc/color-light/short/hrc-logo-color-light-short</title>
    <g id="logo/hrc/color-light/short/hrc-logo-color-light-short" stroke="none" stroke-width="1" fill="none" fill-rule="evenodd">
        <g id="mark/hrconnect">
            <path d="M64,31.9998 C64,49.6738 49.673,63.9998 32,63.9998 C14.327,63.9998 0,49.6738 0,31.9998 C0,14.3268 14.327,-0.0002 32,-0.0002 C49.673,-0.0002 64,14.3268 64,31.9998" id="circle" fill="#0053A2" fill-rule="nonzero"></path>
            <path d="M25.7686,36.8547 L29.9686,41.0547 L22.6436,48.3797 C21.2506,49.7727 19.3626,50.5547 17.3936,50.5547 L17.3936,50.5547 L13.2636,50.5547 C12.8226,50.5547 12.6016,50.0217 12.9136,49.7097 L12.9136,49.7097 L25.7686,36.8547 Z M38.2315,36.8547 L51.0855,49.7097 C51.3985,50.0217 51.1775,50.5547 50.7365,50.5547 L46.6065,50.5547 C44.6375,50.5547 42.7495,49.7727 41.3565,48.3797 L34.0315,41.0547 L38.2315,36.8547 Z M16.5734,19.0827 C18.9589652,19.0827 21.2521221,19.9893994 22.9899142,21.6120147 L23.2234,21.8377 L32.0004,30.6137 L40.7764,21.8377 C42.4637043,20.1503957 44.7255871,19.1703352 47.1017173,19.0883021 L47.4264,19.0827 L50.7364,19.0827 C51.148,19.0827 51.3679556,19.5470022 51.1417861,19.8625767 L51.0864,19.9277 L32.0004,39.0147 L12.9134,19.9277 C12.6222,19.6365 12.7953022,19.1527844 13.1782261,19.0895833 L13.2634,19.0827 L16.5734,19.0827 Z M32.0004,10.6583 C35.0754,10.6583 37.5684,13.1513 37.5684,16.2263 C37.5684,19.3013 35.0754,21.7943 32.0004,21.7943 C28.9244,21.7943 26.4314,19.3013 26.4314,16.2263 C26.4314,13.1513 28.9244,10.6583 32.0004,10.6583 Z" id="icon" fill="#F5EA14"></path>
        </g>
        <g id="HRC" transform="translate(74.343750, 13.953125)" fill="#FFFFFF" fill-rule="nonzero">
            <polygon id="Path" points="3.8671875 32.9296875 3.8671875 3.5859375 0.140625 2.9765625 0.140625 0.375 13.40625 0.375 13.40625 2.9765625 9.375 3.5625 9.375 16.21875 25.78125 16.21875 25.78125 3.5625 21.9375 2.9765625 21.9375 0.375 35.0390625 0.375 35.0390625 2.9765625 31.2890625 3.5625 31.2890625 32.953125 35.0390625 33.4921875 35.0390625 36.046875 21.9609375 36.046875 21.9609375 33.4921875 25.78125 32.953125 25.78125 19.3125 9.375 19.3125 9.375 32.9296875 13.40625 33.4921875 13.40625 36.046875 0 36.046875 0 33.4921875"></polygon>
            <path d="M43.6875,32.9765625 L43.6875,3.5390625 L39.984375,2.9296875 L39.984375,0.375 L46.4296875,0.375 C47.1171875,0.375 47.8359375,0.3515625 48.5859375,0.3046875 C49.3359375,0.2578125 49.8203125,0.2265625 50.0390625,0.2109375 C51.6328125,0.0859375 52.890625,0.0234375 53.8125,0.0234375 C56.96875,0.0234375 59.5,0.3671875 61.40625,1.0546875 C63.3125,1.7421875 64.6914062,2.7734375 65.5429688,4.1484375 C66.3945312,5.5234375 66.8203125,7.2890625 66.8203125,9.4453125 C66.8203125,10.8984375 66.5429688,12.3085938 65.9882812,13.6757812 C65.4335938,15.0429688 64.6289062,16.2382812 63.5742188,17.2617188 C62.5195312,18.2851562 61.265625,19.0234375 59.8125,19.4765625 C60.484375,19.8671875 61.1484375,20.4726562 61.8046875,21.2929688 C62.4609375,22.1132812 63.0625,22.9882812 63.609375,23.9179688 C64.15625,24.8476562 64.828125,26.046875 65.625,27.515625 C66.5625,29.28125 67.3164062,30.5976562 67.8867188,31.4648438 C68.4570312,32.3320312 68.9921875,32.828125 69.4921875,32.953125 L71.3203125,33.515625 L71.3203125,36.046875 L64.3828125,36.046875 C63.8515625,36.046875 63.2695312,35.4921875 62.6367188,34.3828125 C62.0039062,33.2734375 61.15625,31.546875 60.09375,29.203125 C58.984375,26.71875 58.03125,24.7578125 57.234375,23.3203125 C56.4375,21.8828125 55.640625,20.921875 54.84375,20.4375 C51.734375,20.4375 49.84375,20.4140625 49.171875,20.3671875 L49.171875,32.9765625 L53.7890625,33.4921875 L53.7890625,36.046875 L39.75,36.046875 L39.75,33.4921875 L43.6875,32.9765625 Z M54.46875,17.671875 C56.484375,17.671875 58.0507812,17.015625 59.1679688,15.703125 C60.2851562,14.390625 60.84375,12.4296875 60.84375,9.8203125 C60.84375,7.5859375 60.2695312,5.8515625 59.1210938,4.6171875 C57.9726562,3.3828125 56,2.765625 53.203125,2.765625 C52.015625,2.765625 50.9140625,2.8359375 49.8984375,2.9765625 L49.171875,3.046875 L49.171875,17.625 C49.671875,17.671875 50.4609375,17.6953125 51.5390625,17.6953125 L54.46875,17.671875 Z" id="Shape"></path>
            <path d="M72.796875,18.1875 C72.796875,14.5 73.5585938,11.28125 75.0820312,8.53125 C76.6054688,5.78125 78.6875,3.671875 81.328125,2.203125 C83.96875,0.734375 86.921875,0 90.1875,0 C91.6875,0 93.1367188,0.109375 94.5351562,0.328125 C95.9335938,0.546875 97.515625,0.8359375 99.28125,1.1953125 L100.546875,1.453125 L100.101562,10.21875 L96.609375,10.21875 L95.296875,4.2421875 C94.96875,3.8046875 94.3046875,3.45703125 93.3046875,3.19921875 C92.3046875,2.94140625 90.9921875,2.8125 89.3671875,2.8125 C87.3671875,2.8125 85.5976562,3.3828125 84.0585938,4.5234375 C82.5195312,5.6640625 81.3164062,7.34765625 80.4492188,9.57421875 C79.5820312,11.8007813 79.1484375,14.484375 79.1484375,17.625 C79.1484375,20.53125 79.5351562,23.2070312 80.3085938,25.6523438 C81.0820312,28.0976563 82.2773438,30.0664062 83.8945312,31.5585938 C85.5117188,33.0507812 87.53125,33.796875 89.953125,33.796875 C92.46875,33.796875 94.2734375,33.21875 95.3671875,32.0625 L97.40625,27.1171875 L100.734375,27.5625 L99.703125,34.734375 C99.28125,34.765625 98.875,34.8320312 98.484375,34.9335938 C98.09375,35.0351562 97.5859375,35.1953125 96.9609375,35.4140625 C95.8984375,35.7890625 94.8828125,36.078125 93.9140625,36.28125 C92.9453125,36.484375 91.75,36.5859375 90.328125,36.5859375 C86.609375,36.5859375 83.4375,35.8554688 80.8125,34.3945312 C78.1875,32.9335938 76.1953125,30.828125 74.8359375,28.078125 C73.4765625,25.328125 72.796875,22.03125 72.796875,18.1875 Z" id="Path"></path>
        </g>
    </g>
</svg>