<?xml version="1.0" encoding="UTF-8"?>
<svg width="219px" height="64px" viewBox="0 0 219 64" version="1.1" xmlns="http://www.w3.org/2000/svg" xmlns:xlink="http://www.w3.org/1999/xlink">
    <title>logo/cfius/black/short/cfius-logo-black-short</title>
    <g id="logo/cfius/black/short/cfius-logo-black-short" stroke="none" stroke-width="1" fill="none" fill-rule="evenodd">
        <g id="CFIUS" transform="translate(73.546875, 13.929688)" fill="#000000">
            <path d="M0,18.2109375 C0,14.5234375 0.76171875,11.3046875 2.28515625,8.5546875 C3.80859375,5.8046875 5.890625,3.6953125 8.53125,2.2265625 C11.171875,0.7578125 14.125,0.0234375 17.390625,0.0234375 C18.890625,0.0234375 20.3398438,0.1328125 21.7382812,0.3515625 C23.1367188,0.5703125 24.71875,0.859375 26.484375,1.21875 L27.75,1.4765625 L27.3046875,10.2421875 L23.8125,10.2421875 L22.5,4.265625 C22.171875,3.828125 21.5078125,3.48046875 20.5078125,3.22265625 C19.5078125,2.96484375 18.1953125,2.8359375 16.5703125,2.8359375 C14.5703125,2.8359375 12.8007812,3.40625 11.2617188,4.546875 C9.72265625,5.6875 8.51953125,7.37109375 7.65234375,9.59765625 C6.78515625,11.8242188 6.3515625,14.5078125 6.3515625,17.6484375 C6.3515625,20.5546875 6.73828125,23.2304688 7.51171875,25.6757812 C8.28515625,28.1210938 9.48046875,30.0898438 11.0976562,31.5820312 C12.7148438,33.0742188 14.734375,33.8203125 17.15625,33.8203125 C19.671875,33.8203125 21.4765625,33.2421875 22.5703125,32.0859375 L24.609375,27.140625 L27.9375,27.5859375 L26.90625,34.7578125 C26.484375,34.7890625 26.078125,34.8554688 25.6875,34.9570312 C25.296875,35.0585938 24.7890625,35.21875 24.1640625,35.4375 C23.1015625,35.8125 22.0859375,36.1015625 21.1171875,36.3046875 C20.1484375,36.5078125 18.953125,36.609375 17.53125,36.609375 C13.8125,36.609375 10.640625,35.8789062 8.015625,34.4179688 C5.390625,32.9570312 3.3984375,30.8515625 2.0390625,28.1015625 C0.6796875,25.3515625 0,22.0546875 0,18.2109375 Z" id="Path"></path>
            <polygon id="Path" points="35.9296875 32.953125 35.9296875 3.5859375 31.9921875 3 31.9921875 0.3984375 57.5859375 0.3984375 58.078125 8.6015625 54.6796875 8.6015625 53.1328125 3.3984375 41.4375 3.0703125 41.4375 16.734375 49.59375 16.640625 50.53125 12.703125 53.4140625 12.703125 53.4140625 23.8828125 50.53125 23.8828125 49.59375 19.875 41.4375 19.6640625 41.4375 32.953125 48.5625 33.515625 48.5625 36.0703125 32.0625 36.0703125 32.0625 33.515625"></polygon>
            <polygon id="Path" points="66.421875 32.953125 66.421875 3.609375 62.1328125 3 62.1328125 0.3984375 76.2421875 0.3984375 76.2421875 3 71.953125 3.5859375 71.953125 32.953125 76.3125 33.5859375 76.3125 36.0703125 62.1328125 36.0703125 62.1328125 33.515625"></polygon>
            <path d="M83.203125,3.609375 L79.828125,3 L79.828125,0.3984375 L92.90625,0.3984375 L92.90625,3 L88.921875,3.609375 L88.921875,21.5390625 C88.921875,25.8515625 89.6875,28.9492188 91.21875,30.8320312 C92.75,32.7148438 94.9140625,33.65625 97.7109375,33.65625 C100.476562,33.65625 102.570312,32.6289062 103.992188,30.5742188 C105.414062,28.5195312 106.125,25.59375 106.125,21.796875 L106.125,3.609375 L102.257812,3 L102.257812,0.3984375 L113.484375,0.3984375 L113.484375,3 L110.015625,3.609375 L110.015625,21.5625 C110.015625,24.890625 109.460938,27.6679688 108.351562,29.8945312 C107.242188,32.1210938 105.71875,33.7695312 103.78125,34.8398438 C101.84375,35.9101562 99.609375,36.4453125 97.078125,36.4453125 C93.828125,36.4453125 91.1875,35.9023438 89.15625,34.8164062 C87.125,33.7304688 85.625,32.0546875 84.65625,29.7890625 C83.6875,27.5234375 83.203125,24.59375 83.203125,21 L83.203125,3.609375 Z" id="Path"></path>
            <path d="M117.375,25.7578125 L120.632812,25.7578125 L121.570312,31.7578125 C122.101562,32.3203125 122.960938,32.8007812 124.148438,33.1992188 C125.335938,33.5976562 126.625,33.796875 128.015625,33.796875 C130.34375,33.796875 132.097656,33.2773438 133.277344,32.2382812 C134.457031,31.1992188 135.046875,29.7578125 135.046875,27.9140625 C135.046875,26.7109375 134.722656,25.6757812 134.074219,24.8085938 C133.425781,23.9414062 132.546875,23.1796875 131.4375,22.5234375 C130.328125,21.8671875 128.804688,21.1015625 126.867188,20.2265625 C125.179688,19.4609375 123.664062,18.6328125 122.320312,17.7421875 C120.976562,16.8515625 119.820312,15.6953125 118.851562,14.2734375 C117.882812,12.8515625 117.398438,11.171875 117.398438,9.234375 C117.398438,7.453125 117.875,5.86328125 118.828125,4.46484375 C119.78125,3.06640625 121.140625,1.97265625 122.90625,1.18359375 C124.671875,0.39453125 126.726562,0 129.070312,0 C130.507812,0 131.835938,0.12109375 133.054688,0.36328125 C134.273438,0.60546875 135.539062,0.9140625 136.851562,1.2890625 C137.539062,1.4921875 138.09375,1.6328125 138.515625,1.7109375 L138.210938,9.75 L135.070312,9.75 L133.992188,4.0546875 C133.695312,3.7265625 133.070312,3.42578125 132.117188,3.15234375 C131.164062,2.87890625 130.132812,2.7421875 129.023438,2.7421875 C124.804688,2.7421875 122.695312,4.4453125 122.695312,7.8515625 C122.695312,9.0390625 123.015625,10.0546875 123.65625,10.8984375 C124.296875,11.7421875 125.148438,12.4882812 126.210938,13.1367188 C127.273438,13.7851562 128.84375,14.6171875 130.921875,15.6328125 C132.984375,16.6484375 134.671875,17.578125 135.984375,18.421875 C137.296875,19.265625 138.421875,20.3398438 139.359375,21.6445312 C140.296875,22.9492188 140.765625,24.4921875 140.765625,26.2734375 C140.765625,27.9921875 140.285156,29.6445312 139.324219,31.2304688 C138.363281,32.8164062 136.917969,34.109375 134.988281,35.109375 C133.058594,36.109375 130.71875,36.609375 127.96875,36.609375 C126.28125,36.609375 124.742188,36.4570312 123.351562,36.1523438 C121.960938,35.8476562 120.515625,35.453125 119.015625,34.96875 C117.984375,34.640625 117.304688,34.4609375 116.976562,34.4296875 L117.375,25.7578125 Z" id="Path"></path>
        </g>
        <path d="M32,0 C49.673,0 64,14.327 64,32 C64,49.673 49.673,64 32,64 C14.327,64 0,49.673 0,32 C0,14.327 14.327,0 32,0 Z M50.7767,23.6618 L13.2227,23.6618 L13.2227,44.0078 C13.2227,44.9518 13.9567,45.6858 14.8487,45.6858 L14.8487,45.6858 L49.0987,45.6858 C50.0417,45.6858 50.7767,44.9518 50.7767,44.0078 L50.7767,44.0078 L50.7767,23.6618 Z M35.3737,14.612 L28.6257,14.612 C27.5807,14.612 26.6707,15.325 26.4207,16.339 L26.4207,16.339 L25.7727,18.978 L14.8487,18.978 C13.9547,18.978 13.2227,19.71 13.2227,20.604 L13.2227,20.604 L13.2227,21.262 L50.7767,21.262 L50.7767,20.604 C50.7767,19.712 50.0417,18.978 49.0987,18.978 L49.0987,18.978 L38.2277,18.978 L37.5787,16.339 C37.3287,15.325 36.4187,14.612 35.3737,14.612 L35.3737,14.612 Z M34.7833,16.3049 C35.1853,16.3049 35.5323,16.5899 35.6113,16.9849 L35.6113,16.9849 L35.9873,18.8749 L28.0133,18.8749 L28.3883,16.9859 C28.4683,16.5899 28.8143,16.3049 29.2173,16.3049 L29.2173,16.3049 Z" id="icon" fill="#000000"></path>
    </g>
</svg>