<?xml version="1.0" encoding="UTF-8"?>
<svg width="185px" height="64px" viewBox="0 0 185 64" version="1.1" xmlns="http://www.w3.org/2000/svg" xmlns:xlink="http://www.w3.org/1999/xlink">
    <title>logo/tms/black/short/tms-logo-black-short</title>
    <g id="logo/tms/black/short/tms-logo-black-short" stroke="none" stroke-width="1" fill="none" fill-rule="evenodd">
        <g id="TMS" transform="translate(72.750000, 13.929688)" fill="#000000">
            <polygon id="Path" points="12.9609375 32.953125 12.9609375 3.1875 5.15625 3.421875 3.3984375 13.21875 0 13.21875 0.8203125 0.3984375 30.4921875 0.3984375 31.2421875 13.21875 27.890625 13.21875 26.109375 3.421875 18.609375 3.1875 18.609375 32.953125 25.2421875 33.515625 25.2421875 36.0703125 6.84375 36.0703125 6.84375 33.515625"></polygon>
            <polygon id="Path" points="36.515625 32.9765625 40.03125 3.5859375 35.015625 3 35.015625 0.3984375 47.8125 0.3984375 55.171875 21.890625 56.390625 27.28125 57.4453125 21.890625 63.9375 0.3984375 76.734375 0.3984375 76.734375 3 71.53125 3.609375 76.078125 32.953125 80.2734375 33.515625 80.2734375 36.0703125 66.3515625 36.0703125 66.3515625 33.515625 70.5 32.9765625 67.546875 11.6953125 66.515625 2.34375 64.8984375 8.765625 57.2578125 34.4765625 54.234375 34.4765625 45.7734375 11.390625 43.171875 2.3671875 42.421875 11.671875 40.5234375 32.953125 45.140625 33.515625 45.140625 36.0703125 32.34375 36.0703125 32.34375 33.515625"></polygon>
            <path d="M83.4140625,25.7578125 L86.671875,25.7578125 L87.609375,31.7578125 C88.140625,32.3203125 89,32.8007812 90.1875,33.1992188 C91.375,33.5976562 92.6640625,33.796875 94.0546875,33.796875 C96.3828125,33.796875 98.1367188,33.2773438 99.3164062,32.2382812 C100.496094,31.1992188 101.085938,29.7578125 101.085938,27.9140625 C101.085938,26.7109375 100.761719,25.6757812 100.113281,24.8085938 C99.4648438,23.9414062 98.5859375,23.1796875 97.4765625,22.5234375 C96.3671875,21.8671875 94.84375,21.1015625 92.90625,20.2265625 C91.21875,19.4609375 89.703125,18.6328125 88.359375,17.7421875 C87.015625,16.8515625 85.859375,15.6953125 84.890625,14.2734375 C83.921875,12.8515625 83.4375,11.171875 83.4375,9.234375 C83.4375,7.453125 83.9140625,5.86328125 84.8671875,4.46484375 C85.8203125,3.06640625 87.1796875,1.97265625 88.9453125,1.18359375 C90.7109375,0.39453125 92.765625,0 95.109375,0 C96.546875,0 97.875,0.12109375 99.09375,0.36328125 C100.3125,0.60546875 101.578125,0.9140625 102.890625,1.2890625 C103.578125,1.4921875 104.132812,1.6328125 104.554688,1.7109375 L104.25,9.75 L101.109375,9.75 L100.03125,4.0546875 C99.734375,3.7265625 99.109375,3.42578125 98.15625,3.15234375 C97.203125,2.87890625 96.171875,2.7421875 95.0625,2.7421875 C90.84375,2.7421875 88.734375,4.4453125 88.734375,7.8515625 C88.734375,9.0390625 89.0546875,10.0546875 89.6953125,10.8984375 C90.3359375,11.7421875 91.1875,12.4882812 92.25,13.1367188 C93.3125,13.7851562 94.8828125,14.6171875 96.9609375,15.6328125 C99.0234375,16.6484375 100.710938,17.578125 102.023438,18.421875 C103.335938,19.265625 104.460938,20.3398438 105.398438,21.6445312 C106.335938,22.9492188 106.804688,24.4921875 106.804688,26.2734375 C106.804688,27.9921875 106.324219,29.6445312 105.363281,31.2304688 C104.402344,32.8164062 102.957031,34.109375 101.027344,35.109375 C99.0976562,36.109375 96.7578125,36.609375 94.0078125,36.609375 C92.3203125,36.609375 90.78125,36.4570312 89.390625,36.1523438 C88,35.8476562 86.5546875,35.453125 85.0546875,34.96875 C84.0234375,34.640625 83.34375,34.4609375 83.015625,34.4296875 L83.4140625,25.7578125 Z" id="Path"></path>
        </g>
        <path d="M32,0 C49.673,0 64,14.327 64,32 C64,49.673 49.673,64 32,64 C14.327,64 0,49.673 0,32 C0,14.327 14.327,0 32,0 Z M51.9662,37.05 C52.2472,36.674 51.8032,36.168 51.3932,36.397 C49.7652,37.312 47.2462,37.916 44.0532,37.721 C40.5212,37.362 37.7422,37.956 35.7432,38.727 C33.3072,39.667 30.6332,39.667 28.1962,38.727 C26.1972,37.956 23.4182,37.362 19.8862,37.721 C16.6932,37.916 14.1752,37.312 12.5462,36.397 C12.1372,36.168 11.6922,36.674 11.9742,37.05 C14.5862,40.538 18.6732,39.919 21.5282,40.293 C21.5983935,40.3022043 21.6692568,40.3104975 21.740713,40.3180316 L21.740713,40.3180316 L21.9567841,40.3385086 C22.0293498,40.3446765 22.1024318,40.3502372 22.1759535,40.3553429 L22.1759535,40.3553429 L22.3977611,40.3694463 L22.6217471,40.3817307 L22.8474516,40.3931081 C22.8851867,40.3949794 22.9229742,40.3968509 22.9608045,40.3987416 L22.9608045,40.3987416 L23.3021762,40.4167893 L23.3021762,40.4167893 L23.5302766,40.4309168 C26.3817317,40.6227399 29.2047806,41.456871 27.9572,50.948 C27.8172,52.344 27.3702,55.526 26.7272,57.318 C28.4322,57.651 30.1922,57.831 31.9952,57.831 C33.7812,57.831 35.5242,57.654 37.2152,57.327 C36.5712,55.536 36.1222,52.347 35.9822,50.948 C34.7346194,41.456871 37.5576683,40.6227399 40.4091234,40.4309168 L40.6372238,40.4167893 L40.6372238,40.4167893 L40.7511757,40.4104682 L41.0353077,40.3959176 L41.0919484,40.3931081 L41.3176529,40.3817307 L41.5416389,40.3694463 L41.7634465,40.3553429 C41.8369682,40.3502372 41.9100502,40.3446765 41.9826159,40.3385086 L41.9826159,40.3385086 L42.198687,40.3180316 C42.2701432,40.3104975 42.3410065,40.3022043 42.4112,40.293 C45.2652,39.919 49.3532,40.538 51.9662,37.05 Z M32.7553,29.0024 C29.9283,28.4654 27.4993,30.8964 28.0343,33.7224 C28.3333,35.3004 29.6063,36.5744 31.1843,36.8734 C34.0103,37.4084 36.4403,34.9774 35.9053,32.1524 C35.6063,30.5744 34.3333,29.3004 32.7553,29.0024 Z M52.8887,30.4478 C50.7127,28.8898 47.9157,28.2178 45.0977,28.8438 C42.2797,29.4688 40.0297,31.2598 38.7167,33.5928 C40.8927,35.1518 43.6897,35.8228 46.5077,35.1978 C49.3257,34.5718 51.5767,32.7808 52.8887,30.4478 Z M18.8418,28.8438 C16.0238,28.2178 13.2268,28.8898 11.0508,30.4478 C12.3628,32.7808 14.6138,34.5718 17.4318,35.1978 C20.2498,35.8228 23.0468,35.1518 25.2228,33.5928 C23.9098,31.2598 21.6588,29.4688 18.8418,28.8438 Z M24.168,20.3252 C21.803,18.1072 18.714,17.1542 15.72,17.4152 C15.652,20.4212 16.802,23.4412 19.167,25.6592 C21.533,27.8772 24.621,28.8302 27.616,28.5692 C27.684,25.5632 26.534,22.5432 24.168,20.3252 Z M48.2195,17.4152 C45.2245,17.1542 42.1365,18.1072 39.7715,20.3252 C37.4055,22.5432 36.2555,25.5632 36.3235,28.5692 C39.3185,28.8302 42.4065,27.8772 44.7725,25.6592 C47.1375,23.4412 48.2875,20.4212 48.2195,17.4152 Z M13.8692,23.211 C12.2792,22.576 10.5782,22.701 9.1562,23.406 C9.7012,24.897 10.8482,26.159 12.4362,26.795 C14.0262,27.43 15.7272,27.305 17.1492,26.6 C16.6042,25.109 15.4582,23.847 13.8692,23.211 Z M54.7834,23.406 C53.3614,22.701 51.6604,22.576 50.0704,23.211 C48.4814,23.847 47.3354,25.109 46.7904,26.6 C48.2124,27.305 49.9134,27.43 51.5034,26.795 C53.0914,26.159 54.2384,24.897 54.7834,23.406 Z M32.041,8.961 C29.695,11.063 28.211,14.107 28.211,17.503 C28.211,20.9 29.695,23.943 32.041,26.046 C34.386,23.943 35.87,20.9 35.87,17.503 C35.87,14.107 34.386,11.063 32.041,8.961 Z M22.1653,10.289 C21.5243,11.741 21.4743,13.446 22.1793,15.006 C22.8833,16.565 24.1973,17.654 25.7103,18.133 C26.3503,16.682 26.4013,14.977 25.6963,13.416 C24.9913,11.856 23.6783,10.768 22.1653,10.289 Z M41.7742,10.289 C40.2612,10.768 38.9482,11.856 38.2432,13.416 C37.5382,14.977 37.5892,16.682 38.2292,18.133 C39.7422,17.654 41.0552,16.565 41.7602,15.006 C42.4652,13.446 42.4152,11.741 41.7742,10.289 Z" id="icon" fill="#000000"></path>
    </g>
</svg>