<?xml version="1.0" encoding="UTF-8"?>
<svg width="64px" height="64px" viewBox="0 0 64 64" version="1.1" xmlns="http://www.w3.org/2000/svg" xmlns:xlink="http://www.w3.org/1999/xlink">
    <title>logo/eac/white/icon/eac-logo-white-icon</title>
    <g id="logo/eac/white/icon/eac-logo-white-icon" stroke="none" stroke-width="1" fill="none" fill-rule="evenodd">
        <path d="M32,0 C49.673,0 64,14.327 64,32 C64,49.673 49.673,64 32,64 C14.327,64 0,49.673 0,32 C0,14.327 14.327,0 32,0 Z M50.7769,41.004 L13.2229,41.004 L13.2229,41.662 C13.2229,42.554 13.9579,43.287 14.9019,43.287 L14.9019,43.287 L26.7559,43.287 L25.8639,48.638 L23.1359,48.638 C22.2449,48.638 22.2449,50.368 23.1359,50.368 L23.1359,50.368 L40.8639,50.368 C41.7559,50.368 41.8079,48.638 40.8639,48.638 L40.8639,48.638 L38.1359,48.638 L37.2449,43.287 L49.1509,43.287 C50.0429,43.287 50.7769,42.554 50.7769,41.662 L50.7769,41.662 L50.7769,41.004 Z M49.1509,16.5802 L14.9019,16.5802 C13.9579,16.5802 13.2229,17.3132 13.2229,18.2582 L13.2229,18.2582 L13.2229,38.6042 L50.7769,38.6042 L50.7769,18.2582 C50.7769,17.3132 50.0429,16.5802 49.1509,16.5802 L49.1509,16.5802 Z M32.2229,18.5802 C35.2139,18.5802 37.6469,21.0522014 37.6469,24.0905233 L37.6469,24.0905233 L37.6469,25.9596347 L38.7859,25.9596347 C39.5789,25.9596347 40.2229,26.6133158 40.2229,27.4193701 L40.2229,27.4193701 L40.2229,34.5802 C40.2229,35.3867622 39.5789,36.0399354 38.7859,36.0399354 L38.7859,36.0399354 L25.6599,36.0399354 C24.8659,36.0399354 24.2229,35.3867622 24.2229,34.5802 L24.2229,34.5802 L24.2229,27.4193701 C24.2229,26.6133158 24.8659,25.9596347 25.6599,25.9596347 L25.6599,25.9596347 L26.7979,25.9596347 L26.7979,24.0905233 C26.7979,21.0522014 29.2314,18.5802 32.2229,18.5802 Z M32.2234055,21.5802 C30.5689826,21.5802 29.2229,22.9650154 29.2229,24.6665235 L29.2229,24.6665235 L29.2229,26.0802 L35.2229,26.0802 L35.2229,24.6665235 C35.2229,22.9650154 33.8773229,21.5802 32.2234055,21.5802 Z" id="icon" fill="#FFFFFF" fill-rule="nonzero"></path>
    </g>
</svg>