<?xml version="1.0" encoding="UTF-8"?>
<svg width="173px" height="64px" viewBox="0 0 173 64" version="1.1" xmlns="http://www.w3.org/2000/svg" xmlns:xlink="http://www.w3.org/1999/xlink">
    <title>logo/eih/white/short/eih-logo-white-short</title>
    <g id="logo/eih/white/short/eih-logo-white-short" stroke="none" stroke-width="1" fill="none" fill-rule="evenodd">
        <g id="EIH" transform="translate(74.250000, 14.328125)" fill="#FFFFFF" fill-rule="nonzero">
            <polygon id="Path" points="3.9375 32.5546875 3.9375 3.1875 0.0703125 2.6015625 0.0703125 0 24.4921875 0 25.1484375 7.4296875 22.125 7.4296875 20.671875 2.9765625 9.4453125 2.671875 9.4453125 15.9140625 17.0625 15.7734375 17.765625 11.8828125 20.7890625 11.8828125 20.7890625 22.9921875 17.765625 22.9921875 17.0859375 18.8671875 9.4453125 18.75 9.4453125 32.765625 22.3359375 32.25 24.984375 26.3671875 27.984375 27.2578125 26.6015625 35.671875 0 35.671875 0 33.1171875"></polygon>
            <polygon id="Path" points="36.046875 32.5546875 36.046875 3.2109375 31.7578125 2.6015625 31.7578125 0 45.8671875 0 45.8671875 2.6015625 41.578125 3.1875 41.578125 32.5546875 45.9375 33.1875 45.9375 35.671875 31.7578125 35.671875 31.7578125 33.1171875"></polygon>
            <polygon id="Path" points="54.7265625 32.5546875 54.7265625 3.2109375 51 2.6015625 51 0 64.265625 0 64.265625 2.6015625 60.234375 3.1875 60.234375 15.84375 76.640625 15.84375 76.640625 3.1875 72.796875 2.6015625 72.796875 0 85.8984375 0 85.8984375 2.6015625 82.1484375 3.1875 82.1484375 32.578125 85.8984375 33.1171875 85.8984375 35.671875 72.8203125 35.671875 72.8203125 33.1171875 76.640625 32.578125 76.640625 18.9375 60.234375 18.9375 60.234375 32.5546875 64.265625 33.1171875 64.265625 35.671875 50.859375 35.671875 50.859375 33.1171875"></polygon>
        </g>
        <path d="M32,0 C49.672429,0 64,14.3262845 64,32 C64,49.672429 49.672429,64 32,64 C14.3262845,64 0,49.672429 0,32 C0,14.3262845 14.3262845,0 32,0 Z M48,16 L16,16 L16,35.9998571 L16.0030306,36.3147411 C16.1704668,45.0063311 23.2546646,52 31.9698894,52 C40.790117,52 48,44.8367938 48,35.9998571 L48,35.9998571 L48,16 Z M25.686,21 L31.994,30.874 L38.365,21.041 C42.022,23.22 44.478,27.206 44.478,31.778 C44.478,36.618 41.735,40.81 37.707,42.885 L37.707,42.885 L36.649,38.837 C38.889,37.543 40.409,35.036 40.409,32.148 C40.409,30.525 39.926,29.004 39.094,27.771 L39.094,27.771 L33.608,35.95 L30.289,35.95 L24.802,27.771 C23.97,29.004 23.487,30.515 23.487,32.148 C23.487,35.241 25.234,37.912 27.751,39.094 L27.751,39.094 L26.713,43.101 C22.449,41.118 19.5,36.792 19.5,31.778 C19.5,27.186 21.987,23.168 25.686,21 L25.686,21 Z" id="icon" fill="#FFFFFF" fill-rule="nonzero"></path>
    </g>
</svg>