<?xml version="1.0" encoding="UTF-8"?>
<svg width="652px" height="64px" viewBox="0 0 652 64" version="1.1" xmlns="http://www.w3.org/2000/svg" xmlns:xlink="http://www.w3.org/1999/xlink">
    <title>logo/eac/color-dark/long/eac-logo-color-dark-long</title>
    <g id="logo/eac/color-dark/long/eac-logo-color-dark-long" stroke="none" stroke-width="1" fill="none" fill-rule="evenodd">
        <g id="Group">
            <path d="M32,64.0002 C14.327,64.0002 0,49.6732 0,32.0002 C0,14.3272 14.327,0.0002 32,0.0002 C49.673,0.0002 64,14.3272 64,32.0002 C64,49.6732 49.673,64.0002 32,64.0002 Z" id="circle" fill="#083C6F"></path>
            <path d="M50.7769,41.0042 L50.7769,41.6622 C50.7769,42.5542 50.0429,43.2872 49.1509,43.2872 L37.2449,43.2872 L38.1359,48.6382 L40.8639,48.6382 C41.8079,48.6382 41.7559,50.3682 40.8639,50.3682 L23.1359,50.3682 C22.2449,50.3682 22.2449,48.6382 23.1359,48.6382 L25.8639,48.6382 L26.7559,43.2872 L14.9019,43.2872 C13.9579,43.2872 13.2229,42.5542 13.2229,41.6622 L13.2229,41.0042 L50.7769,41.0042 Z M49.1509,16.5804 C50.0429,16.5804 50.7769,17.3134 50.7769,18.2584 L50.7769,38.6044 L13.2229,38.6044 L13.2229,18.2584 C13.2229,17.3134 13.9579,16.5804 14.9019,16.5804 L49.1509,16.5804 Z M32.2229,18.5804 C29.2314,18.5804 26.7979,21.0524014 26.7979,24.0907233 L26.7979,25.9598347 L25.6599,25.9598347 C24.8659,25.9598347 24.2229,26.6135158 24.2229,27.4195701 L24.2229,34.5804 C24.2229,35.3869622 24.8659,36.0401354 25.6599,36.0401354 L38.7859,36.0401354 C39.5789,36.0401354 40.2229,35.3869622 40.2229,34.5804 L40.2229,27.4195701 C40.2229,26.6135158 39.5789,25.9598347 38.7859,25.9598347 L37.6469,25.9598347 L37.6469,24.0907233 C37.6469,21.0524014 35.2139,18.5804 32.2229,18.5804 Z M32.2234055,21.5804 C33.8773229,21.5804 35.2229,22.9652154 35.2229,24.6667235 L35.2229,26.0804 L29.2229,26.0804 L29.2229,24.6667235 C29.2229,22.9652154 30.5689826,21.5804 32.2234055,21.5804 Z" id="icon" fill="#F5EA14"></path>
        </g>
        <g id="Enterprise-Applicati" transform="translate(76.406250, 18.405273)" fill="#000000">
            <polygon id="Path" points="2.4609375 22.6464844 2.4609375 4.29199219 0.0439453125 3.92578125 0.0439453125 2.29980469 15.3076172 2.29980469 15.7177734 6.94335938 13.828125 6.94335938 12.9199219 4.16015625 5.90332031 3.96972656 5.90332031 12.2460938 10.6640625 12.1582031 11.1035156 9.7265625 12.9931641 9.7265625 12.9931641 16.6699219 11.1035156 16.6699219 10.6787109 14.0917969 5.90332031 14.0185547 5.90332031 22.7783203 13.9599609 22.4560547 15.6152344 18.7792969 17.4902344 19.3359375 16.6259766 24.5947266 0 24.5947266 0 22.9980469"></polygon>
            <path d="M21.6210938,22.7490234 L21.6210938,10.4736328 L19.5263672,9.88769531 L19.5263672,8.12988281 L23.8623047,7.54394531 L23.9355469,7.54394531 L24.6240234,8.11523438 L24.6240234,9.30175781 L24.609375,9.97558594 C25.0585938,9.57519531 25.6225586,9.18945312 26.3012695,8.81835938 C26.9799805,8.44726562 27.7075195,8.14453125 28.4838867,7.91015625 C29.2602539,7.67578125 29.9951172,7.55859375 30.6884766,7.55859375 C31.9580078,7.55859375 32.9394531,7.79541016 33.6328125,8.26904297 C34.3261719,8.74267578 34.8095703,9.47265625 35.0830078,10.4589844 C35.3564453,11.4453125 35.4931641,12.7832031 35.4931641,14.4726562 L35.4931641,22.7490234 L37.6025391,22.9980469 L37.6025391,24.5947266 L30.2490234,24.5947266 L30.2490234,22.9980469 L32.1240234,22.7490234 L32.1240234,14.4580078 C32.1240234,13.3251953 32.0483398,12.434082 31.8969727,11.784668 C31.7456055,11.1352539 31.4599609,10.6469727 31.0400391,10.3198242 C30.6201172,9.99267578 30,9.82910156 29.1796875,9.82910156 C28.4765625,9.82910156 27.7441406,9.98046875 26.9824219,10.2832031 C26.2207031,10.5859375 25.5517578,10.9521484 24.9755859,11.3818359 L24.9755859,22.7490234 L26.9970703,22.9980469 L26.9970703,24.5947266 L19.7021484,24.5947266 L19.7021484,22.9980469 L21.6210938,22.7490234 Z" id="Path"></path>
            <path d="M39.3310547,10.0341797 L39.3310547,8.64257812 C39.6044922,8.57421875 39.9194336,8.4765625 40.2758789,8.34960938 C40.6323242,8.22265625 40.8642578,8.125 40.9716797,8.05664062 C41.2939453,7.82226562 41.5576172,7.44140625 41.7626953,6.9140625 C41.9091797,6.58203125 42.1020508,6.05224609 42.3413086,5.32470703 C42.5805664,4.59716797 42.7441406,4.04785156 42.8320312,3.67675781 L44.7363281,3.67675781 L44.765625,7.93945312 L49.6875,7.93945312 L49.6875,10.0341797 L44.7802734,10.0341797 L44.7802734,18.8964844 C44.7802734,20.0878906 44.8144531,20.9155273 44.8828125,21.3793945 C44.9511719,21.8432617 45.090332,22.1411133 45.300293,22.2729492 C45.5102539,22.4047852 45.8935547,22.4707031 46.4501953,22.4707031 L46.4648438,22.4707031 C46.9726562,22.4707031 47.5463867,22.4072266 48.1860352,22.2802734 C48.8256836,22.1533203 49.3212891,22.0214844 49.6728516,21.8847656 L49.6875,21.8847656 L50.1855469,23.3056641 C49.8925781,23.5498047 49.453125,23.7963867 48.8671875,24.0454102 C48.28125,24.2944336 47.6513672,24.5019531 46.9775391,24.6679688 C46.3037109,24.8339844 45.6835938,24.9169922 45.1171875,24.9169922 L45.0878906,24.9169922 C43.8769531,24.9169922 42.9638672,24.6508789 42.3486328,24.1186523 C41.7333984,23.5864258 41.4257812,22.6953125 41.4257812,21.4453125 L41.4257812,10.0341797 L39.3310547,10.0341797 Z" id="Path"></path>
            <path d="M51.8115234,16.2304688 C51.8115234,14.5117188 52.1484375,12.9882812 52.8222656,11.6601562 C53.4960938,10.3320312 54.4287109,9.30419922 55.6201172,8.57666016 C56.8115234,7.84912109 58.1640625,7.48535156 59.6777344,7.48535156 C61.5527344,7.48535156 63.0029297,7.99804688 64.0283203,9.0234375 C65.0537109,10.0488281 65.6005859,11.5283203 65.6689453,13.4619141 L65.6689453,13.9892578 C65.6689453,15.0146484 65.6103516,15.7958984 65.4931641,16.3330078 L55.3417969,16.3330078 C55.3808594,17.7685547 55.625,18.9599609 56.0742188,19.9072266 C56.5234375,20.8544922 57.1142578,21.5527344 57.8466797,22.0019531 C58.5791016,22.4511719 59.4042969,22.6757812 60.3222656,22.6757812 C61.1230469,22.6757812 61.9458008,22.5366211 62.7905273,22.2583008 C63.6352539,21.9799805 64.296875,21.6601562 64.7753906,21.2988281 L65.390625,22.7050781 C65.0195312,23.0859375 64.5092773,23.4472656 63.8598633,23.7890625 C63.2104492,24.1308594 62.487793,24.4067383 61.6918945,24.6166992 C60.8959961,24.8266602 60.1074219,24.9316406 59.3261719,24.9316406 C57.6855469,24.9316406 56.3012695,24.5678711 55.1733398,23.840332 C54.0454102,23.112793 53.203125,22.097168 52.6464844,20.793457 C52.0898438,19.4897461 51.8115234,17.96875 51.8115234,16.2304688 Z M62.1533203,14.6337891 C62.1923828,14.2822266 62.2119141,13.8623047 62.2119141,13.3740234 C62.2021484,12.1337891 61.9433594,11.1376953 61.4355469,10.3857422 C60.9277344,9.63378906 60.1269531,9.2578125 59.0332031,9.2578125 C57.9394531,9.2578125 57.0727539,9.66552734 56.4331055,10.480957 C55.793457,11.2963867 55.4296875,12.6806641 55.3417969,14.6337891 L62.1533203,14.6337891 Z" id="Shape"></path>
            <path d="M70.5175781,22.7783203 L70.5175781,10.4736328 L68.4375,9.88769531 L68.4375,8.12988281 L72.6269531,7.54394531 L72.7001953,7.54394531 L73.4033203,8.11523438 L73.4033203,9.03808594 L73.3740234,10.9423828 L73.4033203,10.9423828 C73.5791016,10.6201172 73.918457,10.1879883 74.4213867,9.64599609 C74.9243164,9.10400391 75.5737305,8.60839844 76.3696289,8.15917969 C77.1655273,7.70996094 78.0322266,7.48535156 78.9697266,7.48535156 C79.3505859,7.48535156 79.6728516,7.5390625 79.9365234,7.64648438 L79.9365234,11.25 C79.7509766,11.1425781 79.5043945,11.0522461 79.1967773,10.9790039 C78.8891602,10.9057617 78.5595703,10.8691406 78.2080078,10.8691406 C77.2216797,10.8691406 76.3696289,10.9887695 75.6518555,11.2280273 C74.934082,11.4672852 74.3359375,11.7675781 73.8574219,12.1289062 L73.8574219,22.7636719 L77.7099609,23.0273438 L77.7099609,24.5947266 L68.2177734,24.5947266 L68.2177734,23.0126953 L70.5175781,22.7783203 Z" id="Path"></path>
            <path d="M89.8388672,24.9316406 C89.3994141,24.9316406 88.9160156,24.8950195 88.3886719,24.8217773 C87.8613281,24.7485352 87.4169922,24.6630859 87.0556641,24.5654297 L87.1435547,27.0556641 L87.1435547,29.9560547 L90.1464844,30.2783203 L90.1464844,31.8603516 L81.6357422,31.8603516 L81.6357422,30.2783203 L83.8183594,29.9414062 L83.8183594,10.4736328 L81.7236328,9.88769531 L81.7236328,8.12988281 L86.0449219,7.54394531 L86.1181641,7.54394531 L86.7773438,8.11523438 L86.7773438,9.78515625 C87.3632812,9.140625 88.0859375,8.59619141 88.9453125,8.15185547 C89.8046875,7.70751953 90.7763672,7.48535156 91.8603516,7.48535156 C93.0517578,7.48535156 94.140625,7.77587891 95.1269531,8.35693359 C96.1132812,8.93798828 96.9042969,9.84130859 97.5,11.0668945 C98.0957031,12.2924805 98.3935547,13.828125 98.3935547,15.6738281 C98.3935547,17.3828125 98.0444336,18.9404297 97.3461914,20.3466797 C96.6479492,21.7529297 95.6518555,22.8686523 94.3579102,23.6938477 C93.0639648,24.519043 91.5576172,24.9316406 89.8388672,24.9316406 Z M87.1435547,22.3388672 C87.2802734,22.5830078 87.6147461,22.7978516 88.1469727,22.9833984 C88.6791992,23.1689453 89.2773438,23.2617188 89.9414062,23.2617188 C90.8886719,23.2617188 91.7260742,23.0102539 92.4536133,22.5073242 C93.1811523,22.0043945 93.7548828,21.2084961 94.1748047,20.1196289 C94.5947266,19.0307617 94.8046875,17.6464844 94.8046875,15.9667969 C94.8046875,14.5507812 94.6166992,13.3789062 94.2407227,12.4511719 C93.8647461,11.5234375 93.3544922,10.8374023 92.7099609,10.3930664 C92.0654297,9.94873047 91.328125,9.7265625 90.4980469,9.7265625 C89.8046875,9.7265625 89.1601562,9.86816406 88.5644531,10.1513672 C87.96875,10.4345703 87.4951172,10.7666016 87.1435547,11.1474609 L87.1435547,22.3388672 Z" id="Shape"></path>
            <path d="M103.286133,22.7783203 L103.286133,10.4736328 L101.206055,9.88769531 L101.206055,8.12988281 L105.395508,7.54394531 L105.46875,7.54394531 L106.171875,8.11523438 L106.171875,9.03808594 L106.142578,10.9423828 L106.171875,10.9423828 C106.347656,10.6201172 106.687012,10.1879883 107.189941,9.64599609 C107.692871,9.10400391 108.342285,8.60839844 109.138184,8.15917969 C109.934082,7.70996094 110.800781,7.48535156 111.738281,7.48535156 C112.119141,7.48535156 112.441406,7.5390625 112.705078,7.64648438 L112.705078,11.25 C112.519531,11.1425781 112.272949,11.0522461 111.965332,10.9790039 C111.657715,10.9057617 111.328125,10.8691406 110.976562,10.8691406 C109.990234,10.8691406 109.138184,10.9887695 108.42041,11.2280273 C107.702637,11.4672852 107.104492,11.7675781 106.625977,12.1289062 L106.625977,22.7636719 L110.478516,23.0273438 L110.478516,24.5947266 L100.986328,24.5947266 L100.986328,23.0126953 L103.286133,22.7783203 Z" id="Path"></path>
            <path d="M116.953125,22.7490234 L116.953125,10.4736328 L114.829102,9.87304688 L114.829102,8.14453125 L119.487305,7.54394531 L119.560547,7.54394531 L120.307617,8.11523438 L120.307617,22.7490234 L122.651367,22.9980469 L122.651367,24.5947266 L114.580078,24.5947266 L114.580078,22.9980469 L116.953125,22.7490234 Z M116.352539,2.78320312 C116.352539,2.11914062 116.54541,1.55761719 116.931152,1.09863281 C117.316895,0.639648438 117.856445,0.41015625 118.549805,0.41015625 L118.564453,0.41015625 C118.974609,0.41015625 119.331055,0.505371094 119.633789,0.695800781 C119.936523,0.886230469 120.168457,1.13769531 120.32959,1.45019531 C120.490723,1.76269531 120.571289,2.09472656 120.571289,2.44628906 C120.571289,3.12988281 120.375977,3.69140625 119.985352,4.13085938 C119.594727,4.5703125 119.02832,4.79003906 118.286133,4.79003906 L118.271484,4.79003906 C117.705078,4.79003906 117.243652,4.59960938 116.887207,4.21875 C116.530762,3.83789062 116.352539,3.359375 116.352539,2.78320312 Z" id="Shape"></path>
            <path d="M127.280273,19.8339844 L127.866211,22.0605469 C127.983398,22.265625 128.210449,22.4609375 128.547363,22.6464844 C128.884277,22.8320312 129.282227,22.9833984 129.741211,23.1005859 C130.200195,23.2177734 130.668945,23.2763672 131.147461,23.2763672 C132.250977,23.2763672 133.037109,23.0688477 133.505859,22.6538086 C133.974609,22.2387695 134.208984,21.6699219 134.208984,20.9472656 C134.208984,20.4394531 134.050293,19.9926758 133.73291,19.6069336 C133.415527,19.2211914 132.944336,18.8574219 132.319336,18.515625 C131.694336,18.1738281 130.844727,17.7880859 129.770508,17.3583984 C128.217773,16.7529297 127.084961,16.0375977 126.37207,15.2124023 C125.65918,14.387207 125.302734,13.3203125 125.302734,12.0117188 C125.302734,11.1328125 125.568848,10.3588867 126.101074,9.68994141 C126.633301,9.02099609 127.363281,8.50097656 128.291016,8.12988281 C129.21875,7.75878906 130.263672,7.57324219 131.425781,7.57324219 C132.324219,7.57324219 133.115234,7.64404297 133.798828,7.78564453 C134.482422,7.92724609 135.170898,8.11035156 135.864258,8.33496094 L136.391602,8.49609375 L136.391602,12.2021484 L134.516602,12.2021484 L133.886719,10.1513672 C133.769531,9.89746094 133.45459,9.67773438 132.941895,9.4921875 C132.429199,9.30664062 131.855469,9.21386719 131.220703,9.21386719 C130.322266,9.21386719 129.628906,9.40429688 129.140625,9.78515625 C128.652344,10.1660156 128.408203,10.6640625 128.408203,11.2792969 C128.408203,11.8261719 128.552246,12.2851562 128.840332,12.65625 C129.128418,13.0273438 129.487305,13.3300781 129.916992,13.5644531 C130.34668,13.7988281 130.947266,14.0771484 131.71875,14.3994141 L132.290039,14.6484375 C133.40332,15.1269531 134.306641,15.5761719 135,15.9960938 C135.693359,16.4160156 136.269531,16.953125 136.728516,17.6074219 C137.1875,18.2617188 137.416992,19.0625 137.416992,20.0097656 C137.416992,20.9863281 137.160645,21.8457031 136.647949,22.5878906 C136.135254,23.3300781 135.393066,23.90625 134.421387,24.3164062 C133.449707,24.7265625 132.299805,24.9316406 130.97168,24.9316406 C129.975586,24.9316406 128.930664,24.7949219 127.836914,24.5214844 C126.743164,24.2480469 125.869141,23.9648438 125.214844,23.671875 L125.214844,19.8339844 L127.280273,19.8339844 Z" id="Path"></path>
            <path d="M139.995117,16.2304688 C139.995117,14.5117188 140.332031,12.9882812 141.005859,11.6601562 C141.679688,10.3320312 142.612305,9.30419922 143.803711,8.57666016 C144.995117,7.84912109 146.347656,7.48535156 147.861328,7.48535156 C149.736328,7.48535156 151.186523,7.99804688 152.211914,9.0234375 C153.237305,10.0488281 153.78418,11.5283203 153.852539,13.4619141 L153.852539,13.9892578 C153.852539,15.0146484 153.793945,15.7958984 153.676758,16.3330078 L143.525391,16.3330078 C143.564453,17.7685547 143.808594,18.9599609 144.257812,19.9072266 C144.707031,20.8544922 145.297852,21.5527344 146.030273,22.0019531 C146.762695,22.4511719 147.587891,22.6757812 148.505859,22.6757812 C149.306641,22.6757812 150.129395,22.5366211 150.974121,22.2583008 C151.818848,21.9799805 152.480469,21.6601562 152.958984,21.2988281 L153.574219,22.7050781 C153.203125,23.0859375 152.692871,23.4472656 152.043457,23.7890625 C151.394043,24.1308594 150.671387,24.4067383 149.875488,24.6166992 C149.07959,24.8266602 148.291016,24.9316406 147.509766,24.9316406 C145.869141,24.9316406 144.484863,24.5678711 143.356934,23.840332 C142.229004,23.112793 141.386719,22.097168 140.830078,20.793457 C140.273438,19.4897461 139.995117,17.96875 139.995117,16.2304688 Z M150.336914,14.6337891 C150.375977,14.2822266 150.395508,13.8623047 150.395508,13.3740234 C150.385742,12.1337891 150.126953,11.1376953 149.619141,10.3857422 C149.111328,9.63378906 148.310547,9.2578125 147.216797,9.2578125 C146.123047,9.2578125 145.256348,9.66552734 144.616699,10.480957 C143.977051,11.2963867 143.613281,12.6806641 143.525391,14.6337891 L150.336914,14.6337891 Z" id="Shape"></path>
            <path d="M165.424805,22.6464844 L172.646484,2.12402344 L176.132812,2.12402344 L183.413086,22.6464844 L185.273438,22.9980469 L185.273438,24.5947266 L177.231445,24.5947266 L177.231445,22.9980469 L179.619141,22.6464844 L178.227539,18.3691406 L169.614258,18.3691406 L168.28125,22.6464844 L170.786133,22.9980469 L170.786133,24.5947266 L163.579102,24.5947266 L163.564453,22.9980469 L165.424805,22.6464844 Z M177.626953,16.5087891 L174.492188,6.88476562 L173.847656,4.42382812 L173.203125,6.9140625 L170.200195,16.5087891 L177.626953,16.5087891 Z" id="Shape"></path>
            <path d="M193.989258,24.9316406 C193.549805,24.9316406 193.066406,24.8950195 192.539062,24.8217773 C192.011719,24.7485352 191.567383,24.6630859 191.206055,24.5654297 L191.293945,27.0556641 L191.293945,29.9560547 L194.296875,30.2783203 L194.296875,31.8603516 L185.786133,31.8603516 L185.786133,30.2783203 L187.96875,29.9414062 L187.96875,10.4736328 L185.874023,9.88769531 L185.874023,8.12988281 L190.195312,7.54394531 L190.268555,7.54394531 L190.927734,8.11523438 L190.927734,9.78515625 C191.513672,9.140625 192.236328,8.59619141 193.095703,8.15185547 C193.955078,7.70751953 194.926758,7.48535156 196.010742,7.48535156 C197.202148,7.48535156 198.291016,7.77587891 199.277344,8.35693359 C200.263672,8.93798828 201.054688,9.84130859 201.650391,11.0668945 C202.246094,12.2924805 202.543945,13.828125 202.543945,15.6738281 C202.543945,17.3828125 202.194824,18.9404297 201.496582,20.3466797 C200.79834,21.7529297 199.802246,22.8686523 198.508301,23.6938477 C197.214355,24.519043 195.708008,24.9316406 193.989258,24.9316406 Z M191.293945,22.3388672 C191.430664,22.5830078 191.765137,22.7978516 192.297363,22.9833984 C192.82959,23.1689453 193.427734,23.2617188 194.091797,23.2617188 C195.039062,23.2617188 195.876465,23.0102539 196.604004,22.5073242 C197.331543,22.0043945 197.905273,21.2084961 198.325195,20.1196289 C198.745117,19.0307617 198.955078,17.6464844 198.955078,15.9667969 C198.955078,14.5507812 198.76709,13.3789062 198.391113,12.4511719 C198.015137,11.5234375 197.504883,10.8374023 196.860352,10.3930664 C196.21582,9.94873047 195.478516,9.7265625 194.648438,9.7265625 C193.955078,9.7265625 193.310547,9.86816406 192.714844,10.1513672 C192.119141,10.4345703 191.645508,10.7666016 191.293945,11.1474609 L191.293945,22.3388672 Z" id="Shape"></path>
            <path d="M212.944336,24.9316406 C212.504883,24.9316406 212.021484,24.8950195 211.494141,24.8217773 C210.966797,24.7485352 210.522461,24.6630859 210.161133,24.5654297 L210.249023,27.0556641 L210.249023,29.9560547 L213.251953,30.2783203 L213.251953,31.8603516 L204.741211,31.8603516 L204.741211,30.2783203 L206.923828,29.9414062 L206.923828,10.4736328 L204.829102,9.88769531 L204.829102,8.12988281 L209.150391,7.54394531 L209.223633,7.54394531 L209.882812,8.11523438 L209.882812,9.78515625 C210.46875,9.140625 211.191406,8.59619141 212.050781,8.15185547 C212.910156,7.70751953 213.881836,7.48535156 214.96582,7.48535156 C216.157227,7.48535156 217.246094,7.77587891 218.232422,8.35693359 C219.21875,8.93798828 220.009766,9.84130859 220.605469,11.0668945 C221.201172,12.2924805 221.499023,13.828125 221.499023,15.6738281 C221.499023,17.3828125 221.149902,18.9404297 220.45166,20.3466797 C219.753418,21.7529297 218.757324,22.8686523 217.463379,23.6938477 C216.169434,24.519043 214.663086,24.9316406 212.944336,24.9316406 Z M210.249023,22.3388672 C210.385742,22.5830078 210.720215,22.7978516 211.252441,22.9833984 C211.784668,23.1689453 212.382812,23.2617188 213.046875,23.2617188 C213.994141,23.2617188 214.831543,23.0102539 215.559082,22.5073242 C216.286621,22.0043945 216.860352,21.2084961 217.280273,20.1196289 C217.700195,19.0307617 217.910156,17.6464844 217.910156,15.9667969 C217.910156,14.5507812 217.722168,13.3789062 217.346191,12.4511719 C216.970215,11.5234375 216.459961,10.8374023 215.81543,10.3930664 C215.170898,9.94873047 214.433594,9.7265625 213.603516,9.7265625 C212.910156,9.7265625 212.265625,9.86816406 211.669922,10.1513672 C211.074219,10.4345703 210.600586,10.7666016 210.249023,11.1474609 L210.249023,22.3388672 Z" id="Shape"></path>
            <polygon id="Path" points="226.171875 22.7490234 226.171875 2.31445312 223.769531 2.02148438 223.769531 0.629882812 228.764648 0 228.793945 0 229.511719 0.498046875 229.511719 22.7490234 232.001953 22.9980469 232.001953 24.5947266 223.798828 24.5947266 223.798828 22.9980469"></polygon>
            <path d="M236.323242,22.7490234 L236.323242,10.4736328 L234.199219,9.87304688 L234.199219,8.14453125 L238.857422,7.54394531 L238.930664,7.54394531 L239.677734,8.11523438 L239.677734,22.7490234 L242.021484,22.9980469 L242.021484,24.5947266 L233.950195,24.5947266 L233.950195,22.9980469 L236.323242,22.7490234 Z M235.722656,2.78320312 C235.722656,2.11914062 235.915527,1.55761719 236.30127,1.09863281 C236.687012,0.639648438 237.226562,0.41015625 237.919922,0.41015625 L237.93457,0.41015625 C238.344727,0.41015625 238.701172,0.505371094 239.003906,0.695800781 C239.306641,0.886230469 239.538574,1.13769531 239.699707,1.45019531 C239.86084,1.76269531 239.941406,2.09472656 239.941406,2.44628906 C239.941406,3.12988281 239.746094,3.69140625 239.355469,4.13085938 C238.964844,4.5703125 238.398438,4.79003906 237.65625,4.79003906 L237.641602,4.79003906 C237.075195,4.79003906 236.61377,4.59960938 236.257324,4.21875 C235.900879,3.83789062 235.722656,3.359375 235.722656,2.78320312 Z" id="Shape"></path>
            <path d="M252.407227,7.48535156 C253.813477,7.48535156 255.317383,7.78808594 256.918945,8.39355469 L256.772461,12.9052734 L254.736328,12.9052734 L254.0625,10.1660156 C253.925781,9.84375 253.654785,9.60449219 253.249512,9.44824219 C252.844238,9.29199219 252.358398,9.21386719 251.791992,9.21386719 C250.932617,9.21386719 250.185547,9.45068359 249.550781,9.92431641 C248.916016,10.3979492 248.422852,11.105957 248.071289,12.0483398 C247.719727,12.9907227 247.543945,14.1552734 247.543945,15.5419922 C247.543945,17.1533203 247.753906,18.4912109 248.173828,19.5556641 C248.59375,20.6201172 249.165039,21.40625 249.887695,21.9140625 C250.610352,22.421875 251.425781,22.6757812 252.333984,22.6757812 C253.183594,22.6757812 253.967285,22.5512695 254.685059,22.3022461 C255.402832,22.0532227 256.015625,21.7480469 256.523438,21.3867188 L257.15332,22.734375 C256.801758,23.0957031 256.333008,23.4448242 255.74707,23.7817383 C255.161133,24.1186523 254.504395,24.3945312 253.776855,24.609375 C253.049316,24.8242188 252.319336,24.9316406 251.586914,24.9316406 C249.936523,24.9316406 248.540039,24.5654297 247.397461,23.8330078 C246.254883,23.1005859 245.397949,22.097168 244.82666,20.8227539 C244.255371,19.5483398 243.969727,18.1005859 243.969727,16.4794922 C243.969727,14.8095703 244.291992,13.293457 244.936523,11.9311523 C245.581055,10.5688477 246.538086,9.48730469 247.807617,8.68652344 C249.077148,7.88574219 250.610352,7.48535156 252.407227,7.48535156 Z" id="Path"></path>
            <path d="M269.238281,13.7109375 C269.238281,12.7929688 269.143066,12.0703125 268.952637,11.5429688 C268.762207,11.015625 268.432617,10.6298828 267.963867,10.3857422 C267.495117,10.1416016 266.831055,10.0195312 265.97168,10.0195312 C264.321289,10.0195312 262.583008,10.4833984 260.756836,11.4111328 L260.742188,11.4111328 L260.009766,9.88769531 C260.273438,9.65332031 260.778809,9.35058594 261.525879,8.97949219 C262.272949,8.60839844 263.122559,8.28369141 264.074707,8.00537109 C265.026855,7.72705078 265.932617,7.58789062 266.791992,7.58789062 C268.217773,7.58789062 269.338379,7.78076172 270.153809,8.16650391 C270.969238,8.55224609 271.557617,9.16992188 271.918945,10.0195312 C272.280273,10.8691406 272.460938,12.0166016 272.460938,13.4619141 L272.460938,22.9833984 L274.248047,22.9833984 L274.248047,24.4189453 C272.822266,24.7607422 271.748047,24.9316406 271.025391,24.9316406 C270.615234,24.9316406 270.302734,24.8974609 270.087891,24.8291016 C269.873047,24.7607422 269.714355,24.621582 269.611816,24.4116211 C269.509277,24.2016602 269.458008,23.8769531 269.458008,23.4375 L269.458008,22.734375 C268.930664,23.2519531 268.237305,23.7475586 267.37793,24.2211914 C266.518555,24.6948242 265.556641,24.9316406 264.492188,24.9316406 C263.554688,24.9316406 262.702637,24.7607422 261.936035,24.4189453 C261.169434,24.0771484 260.559082,23.5498047 260.10498,22.8369141 C259.650879,22.1240234 259.423828,21.2353516 259.423828,20.1708984 C259.423828,18.8720703 259.875488,17.8027344 260.778809,16.9628906 C261.682129,16.1230469 262.868652,15.5053711 264.338379,15.1098633 C265.808105,14.7143555 267.441406,14.5019531 269.238281,14.4726562 L269.238281,13.7109375 Z M269.238281,16.1279297 C267.802734,16.1279297 266.623535,16.2915039 265.700684,16.6186523 C264.777832,16.9458008 264.108887,17.3779297 263.693848,17.9150391 C263.278809,18.4521484 263.071289,19.0625 263.071289,19.7460938 C263.071289,20.7714844 263.325195,21.5234375 263.833008,22.0019531 C264.34082,22.4804688 265.024414,22.7197266 265.883789,22.7197266 C266.342773,22.7197266 266.896973,22.590332 267.546387,22.331543 C268.195801,22.0727539 268.759766,21.7578125 269.238281,21.3867188 L269.238281,16.1279297 Z" id="Shape"></path>
            <path d="M275.976562,10.0341797 L275.976562,8.64257812 C276.25,8.57421875 276.564941,8.4765625 276.921387,8.34960938 C277.277832,8.22265625 277.509766,8.125 277.617188,8.05664062 C277.939453,7.82226562 278.203125,7.44140625 278.408203,6.9140625 C278.554688,6.58203125 278.747559,6.05224609 278.986816,5.32470703 C279.226074,4.59716797 279.389648,4.04785156 279.477539,3.67675781 L281.381836,3.67675781 L281.411133,7.93945312 L286.333008,7.93945312 L286.333008,10.0341797 L281.425781,10.0341797 L281.425781,18.8964844 C281.425781,20.0878906 281.459961,20.9155273 281.52832,21.3793945 C281.59668,21.8432617 281.73584,22.1411133 281.945801,22.2729492 C282.155762,22.4047852 282.539062,22.4707031 283.095703,22.4707031 L283.110352,22.4707031 C283.618164,22.4707031 284.191895,22.4072266 284.831543,22.2802734 C285.471191,22.1533203 285.966797,22.0214844 286.318359,21.8847656 L286.333008,21.8847656 L286.831055,23.3056641 C286.538086,23.5498047 286.098633,23.7963867 285.512695,24.0454102 C284.926758,24.2944336 284.296875,24.5019531 283.623047,24.6679688 C282.949219,24.8339844 282.329102,24.9169922 281.762695,24.9169922 L281.733398,24.9169922 C280.522461,24.9169922 279.609375,24.6508789 278.994141,24.1186523 C278.378906,23.5864258 278.071289,22.6953125 278.071289,21.4453125 L278.071289,10.0341797 L275.976562,10.0341797 Z" id="Path"></path>
            <path d="M290.727539,22.7490234 L290.727539,10.4736328 L288.603516,9.87304688 L288.603516,8.14453125 L293.261719,7.54394531 L293.334961,7.54394531 L294.082031,8.11523438 L294.082031,22.7490234 L296.425781,22.9980469 L296.425781,24.5947266 L288.354492,24.5947266 L288.354492,22.9980469 L290.727539,22.7490234 Z M290.126953,2.78320312 C290.126953,2.11914062 290.319824,1.55761719 290.705566,1.09863281 C291.091309,0.639648438 291.630859,0.41015625 292.324219,0.41015625 L292.338867,0.41015625 C292.749023,0.41015625 293.105469,0.505371094 293.408203,0.695800781 C293.710938,0.886230469 293.942871,1.13769531 294.104004,1.45019531 C294.265137,1.76269531 294.345703,2.09472656 294.345703,2.44628906 C294.345703,3.12988281 294.150391,3.69140625 293.759766,4.13085938 C293.369141,4.5703125 292.802734,4.79003906 292.060547,4.79003906 L292.045898,4.79003906 C291.479492,4.79003906 291.018066,4.59960938 290.661621,4.21875 C290.305176,3.83789062 290.126953,3.359375 290.126953,2.78320312 Z" id="Shape"></path>
            <path d="M306.342773,7.48535156 C308.041992,7.48535156 309.458008,7.86132812 310.59082,8.61328125 C311.723633,9.36523438 312.563477,10.3979492 313.110352,11.7114258 C313.657227,13.0249023 313.930664,14.5263672 313.930664,16.2158203 C313.930664,18.0224609 313.557129,19.5849609 312.810059,20.9033203 C312.062988,22.2216797 311.081543,23.2226562 309.865723,23.90625 C308.649902,24.5898438 307.353516,24.9316406 305.976562,24.9316406 C304.277344,24.9316406 302.86377,24.5556641 301.73584,23.8037109 C300.60791,23.0517578 299.770508,22.019043 299.223633,20.7055664 C298.676758,19.3920898 298.40332,17.890625 298.40332,16.2011719 C298.40332,14.4140625 298.776855,12.8613281 299.523926,11.5429688 C300.270996,10.2246094 301.252441,9.21875 302.468262,8.52539062 C303.684082,7.83203125 304.975586,7.48535156 306.342773,7.48535156 Z M310.224609,16.4794922 C310.224609,14.2822266 309.899902,12.5366211 309.250488,11.2426758 C308.601074,9.94873047 307.573242,9.30175781 306.166992,9.30175781 C304.819336,9.30175781 303.803711,9.85595703 303.120117,10.9643555 C302.436523,12.0727539 302.094727,13.7304688 302.094727,15.9375 C302.094727,18.1347656 302.424316,19.8803711 303.083496,21.1743164 C303.742676,22.4682617 304.770508,23.1152344 306.166992,23.1152344 C308.87207,23.1152344 310.224609,20.9033203 310.224609,16.4794922 Z" id="Shape"></path>
            <path d="M318.500977,22.7490234 L318.500977,10.4736328 L316.40625,9.88769531 L316.40625,8.12988281 L320.742188,7.54394531 L320.81543,7.54394531 L321.503906,8.11523438 L321.503906,9.30175781 L321.489258,9.97558594 C321.938477,9.57519531 322.502441,9.18945312 323.181152,8.81835938 C323.859863,8.44726562 324.587402,8.14453125 325.36377,7.91015625 C326.140137,7.67578125 326.875,7.55859375 327.568359,7.55859375 C328.837891,7.55859375 329.819336,7.79541016 330.512695,8.26904297 C331.206055,8.74267578 331.689453,9.47265625 331.962891,10.4589844 C332.236328,11.4453125 332.373047,12.7832031 332.373047,14.4726562 L332.373047,22.7490234 L334.482422,22.9980469 L334.482422,24.5947266 L327.128906,24.5947266 L327.128906,22.9980469 L329.003906,22.7490234 L329.003906,14.4580078 C329.003906,13.3251953 328.928223,12.434082 328.776855,11.784668 C328.625488,11.1352539 328.339844,10.6469727 327.919922,10.3198242 C327.5,9.99267578 326.879883,9.82910156 326.05957,9.82910156 C325.356445,9.82910156 324.624023,9.98046875 323.862305,10.2832031 C323.100586,10.5859375 322.431641,10.9521484 321.855469,11.3818359 L321.855469,22.7490234 L323.876953,22.9980469 L323.876953,24.5947266 L316.582031,24.5947266 L316.582031,22.9980469 L318.500977,22.7490234 Z" id="Path"></path>
            <path d="M339.038086,19.8339844 L339.624023,22.0605469 C339.741211,22.265625 339.968262,22.4609375 340.305176,22.6464844 C340.64209,22.8320312 341.040039,22.9833984 341.499023,23.1005859 C341.958008,23.2177734 342.426758,23.2763672 342.905273,23.2763672 C344.008789,23.2763672 344.794922,23.0688477 345.263672,22.6538086 C345.732422,22.2387695 345.966797,21.6699219 345.966797,20.9472656 C345.966797,20.4394531 345.808105,19.9926758 345.490723,19.6069336 C345.17334,19.2211914 344.702148,18.8574219 344.077148,18.515625 C343.452148,18.1738281 342.602539,17.7880859 341.52832,17.3583984 C339.975586,16.7529297 338.842773,16.0375977 338.129883,15.2124023 C337.416992,14.387207 337.060547,13.3203125 337.060547,12.0117188 C337.060547,11.1328125 337.32666,10.3588867 337.858887,9.68994141 C338.391113,9.02099609 339.121094,8.50097656 340.048828,8.12988281 C340.976562,7.75878906 342.021484,7.57324219 343.183594,7.57324219 C344.082031,7.57324219 344.873047,7.64404297 345.556641,7.78564453 C346.240234,7.92724609 346.928711,8.11035156 347.62207,8.33496094 L348.149414,8.49609375 L348.149414,12.2021484 L346.274414,12.2021484 L345.644531,10.1513672 C345.527344,9.89746094 345.212402,9.67773438 344.699707,9.4921875 C344.187012,9.30664062 343.613281,9.21386719 342.978516,9.21386719 C342.080078,9.21386719 341.386719,9.40429688 340.898438,9.78515625 C340.410156,10.1660156 340.166016,10.6640625 340.166016,11.2792969 C340.166016,11.8261719 340.310059,12.2851562 340.598145,12.65625 C340.88623,13.0273438 341.245117,13.3300781 341.674805,13.5644531 C342.104492,13.7988281 342.705078,14.0771484 343.476562,14.3994141 L344.047852,14.6484375 C345.161133,15.1269531 346.064453,15.5761719 346.757812,15.9960938 C347.451172,16.4160156 348.027344,16.953125 348.486328,17.6074219 C348.945312,18.2617188 349.174805,19.0625 349.174805,20.0097656 C349.174805,20.9863281 348.918457,21.8457031 348.405762,22.5878906 C347.893066,23.3300781 347.150879,23.90625 346.179199,24.3164062 C345.20752,24.7265625 344.057617,24.9316406 342.729492,24.9316406 C341.733398,24.9316406 340.688477,24.7949219 339.594727,24.5214844 C338.500977,24.2480469 337.626953,23.9648438 336.972656,23.671875 L336.972656,19.8339844 L339.038086,19.8339844 Z" id="Path"></path>
            <path d="M360.498047,13.4326172 C360.498047,11.1279297 360.974121,9.11621094 361.92627,7.39746094 C362.878418,5.67871094 364.179688,4.36035156 365.830078,3.44238281 C367.480469,2.52441406 369.326172,2.06542969 371.367188,2.06542969 C372.304688,2.06542969 373.210449,2.13378906 374.084473,2.27050781 C374.958496,2.40722656 375.947266,2.58789062 377.050781,2.8125 L377.841797,2.97363281 L377.563477,8.45214844 L375.380859,8.45214844 L374.560547,4.71679688 C374.355469,4.44335938 373.94043,4.22607422 373.31543,4.06494141 C372.69043,3.90380859 371.870117,3.82324219 370.854492,3.82324219 C369.604492,3.82324219 368.498535,4.1796875 367.536621,4.89257812 C366.574707,5.60546875 365.822754,6.65771484 365.280762,8.04931641 C364.73877,9.44091797 364.467773,11.1181641 364.467773,13.0810547 C364.467773,14.8974609 364.709473,16.5698242 365.192871,18.0981445 C365.67627,19.6264648 366.42334,20.8569336 367.434082,21.7895508 C368.444824,22.722168 369.707031,23.1884766 371.220703,23.1884766 C372.792969,23.1884766 373.920898,22.8271484 374.604492,22.1044922 L375.878906,19.0136719 L377.958984,19.2919922 L377.314453,23.7744141 C377.050781,23.7939453 376.796875,23.8354492 376.552734,23.8989258 C376.308594,23.9624023 375.991211,24.0625 375.600586,24.1992188 C374.936523,24.4335938 374.301758,24.6142578 373.696289,24.7412109 C373.09082,24.8681641 372.34375,24.9316406 371.455078,24.9316406 C369.130859,24.9316406 367.148438,24.4750977 365.507812,23.5620117 C363.867188,22.6489258 362.62207,21.3330078 361.772461,19.6142578 C360.922852,17.8955078 360.498047,15.8349609 360.498047,13.4326172 Z" id="Path"></path>
            <path d="M381.225586,29.0771484 C381.342773,29.1455078 381.582031,29.206543 381.943359,29.2602539 C382.304688,29.3139648 382.646484,29.3408203 382.96875,29.3408203 C383.554688,29.3408203 384.094238,29.2211914 384.587402,28.9819336 C385.080566,28.7426758 385.581055,28.2763672 386.088867,27.5830078 C386.59668,26.8896484 387.089844,25.8935547 387.568359,24.5947266 L385.913086,24.5947266 L380.43457,9.87304688 L379.042969,9.4921875 L379.042969,7.93945312 L386.499023,7.93945312 L386.499023,9.4921875 L384.199219,9.87304688 L387.026367,18.7207031 L388.330078,22.96875 L389.501953,18.7060547 L392.15332,9.85839844 L390.19043,9.4921875 L390.19043,7.93945312 L396.342773,7.93945312 L396.342773,9.4921875 L394.848633,9.85839844 C393.442383,14.2333984 392.297363,17.7270508 391.413574,20.3393555 C390.529785,22.9516602 389.96582,24.5361328 389.72168,25.0927734 C389.057617,26.7724609 388.430176,28.1005859 387.839355,29.0771484 C387.248535,30.0537109 386.564941,30.7958984 385.788574,31.3037109 C385.012207,31.8115234 384.0625,32.0654297 382.939453,32.0654297 C382.636719,32.0654297 382.30957,32.043457 381.958008,31.9995117 C381.606445,31.9555664 381.362305,31.9042969 381.225586,31.8457031 L381.225586,29.0771484 Z" id="Path"></path>
            <path d="M396.298828,2.00683594 L396.298828,0.629882812 L401.235352,0 L401.308594,0 L402.041016,0.498046875 L402.041016,9.44824219 C402.617188,8.88183594 403.305664,8.41308594 404.106445,8.04199219 C404.907227,7.67089844 405.795898,7.48535156 406.772461,7.48535156 C407.963867,7.48535156 409.052734,7.7734375 410.039062,8.34960938 C411.025391,8.92578125 411.816406,9.82666016 412.412109,11.0522461 C413.007812,12.277832 413.305664,13.8183594 413.305664,15.6738281 C413.305664,17.3925781 412.954102,18.9575195 412.250977,20.3686523 C411.547852,21.7797852 410.539551,22.8930664 409.226074,23.7084961 C407.912598,24.5239258 406.381836,24.9316406 404.633789,24.9316406 C403.686523,24.9316406 402.785645,24.8657227 401.931152,24.7338867 C401.07666,24.6020508 400.361328,24.4433594 399.785156,24.2578125 C399.208984,24.0722656 398.852539,23.9111328 398.71582,23.7744141 L398.71582,2.29980469 L396.298828,2.00683594 Z M402.041016,22.2949219 C402.167969,22.5878906 402.495117,22.8198242 403.022461,22.9907227 C403.549805,23.1616211 404.160156,23.2470703 404.853516,23.2470703 C405.810547,23.2470703 406.652832,22.9785156 407.380371,22.4414062 C408.10791,21.9042969 408.676758,21.0961914 409.086914,20.0170898 C409.49707,18.9379883 409.702148,17.6074219 409.702148,16.0253906 C409.702148,14.6191406 409.519043,13.4472656 409.152832,12.5097656 C408.786621,11.5722656 408.28125,10.8789062 407.636719,10.4296875 C406.992188,9.98046875 406.254883,9.75585938 405.424805,9.75585938 C404.72168,9.75585938 404.072266,9.91455078 403.476562,10.2319336 C402.880859,10.5493164 402.402344,10.9082031 402.041016,11.3085938 L402.041016,22.2949219 Z" id="Shape"></path>
            <path d="M415.795898,16.2304688 C415.795898,14.5117188 416.132812,12.9882812 416.806641,11.6601562 C417.480469,10.3320312 418.413086,9.30419922 419.604492,8.57666016 C420.795898,7.84912109 422.148438,7.48535156 423.662109,7.48535156 C425.537109,7.48535156 426.987305,7.99804688 428.012695,9.0234375 C429.038086,10.0488281 429.584961,11.5283203 429.65332,13.4619141 L429.65332,13.9892578 C429.65332,15.0146484 429.594727,15.7958984 429.477539,16.3330078 L419.326172,16.3330078 C419.365234,17.7685547 419.609375,18.9599609 420.058594,19.9072266 C420.507812,20.8544922 421.098633,21.5527344 421.831055,22.0019531 C422.563477,22.4511719 423.388672,22.6757812 424.306641,22.6757812 C425.107422,22.6757812 425.930176,22.5366211 426.774902,22.2583008 C427.619629,21.9799805 428.28125,21.6601562 428.759766,21.2988281 L429.375,22.7050781 C429.003906,23.0859375 428.493652,23.4472656 427.844238,23.7890625 C427.194824,24.1308594 426.472168,24.4067383 425.67627,24.6166992 C424.880371,24.8266602 424.091797,24.9316406 423.310547,24.9316406 C421.669922,24.9316406 420.285645,24.5678711 419.157715,23.840332 C418.029785,23.112793 417.1875,22.097168 416.630859,20.793457 C416.074219,19.4897461 415.795898,17.96875 415.795898,16.2304688 Z M426.137695,14.6337891 C426.176758,14.2822266 426.196289,13.8623047 426.196289,13.3740234 C426.186523,12.1337891 425.927734,11.1376953 425.419922,10.3857422 C424.912109,9.63378906 424.111328,9.2578125 423.017578,9.2578125 C421.923828,9.2578125 421.057129,9.66552734 420.41748,10.480957 C419.777832,11.2963867 419.414062,12.6806641 419.326172,14.6337891 L426.137695,14.6337891 Z" id="Shape"></path>
            <path d="M434.501953,22.7783203 L434.501953,10.4736328 L432.421875,9.88769531 L432.421875,8.12988281 L436.611328,7.54394531 L436.68457,7.54394531 L437.387695,8.11523438 L437.387695,9.03808594 L437.358398,10.9423828 L437.387695,10.9423828 C437.563477,10.6201172 437.902832,10.1879883 438.405762,9.64599609 C438.908691,9.10400391 439.558105,8.60839844 440.354004,8.15917969 C441.149902,7.70996094 442.016602,7.48535156 442.954102,7.48535156 C443.334961,7.48535156 443.657227,7.5390625 443.920898,7.64648438 L443.920898,11.25 C443.735352,11.1425781 443.48877,11.0522461 443.181152,10.9790039 C442.873535,10.9057617 442.543945,10.8691406 442.192383,10.8691406 C441.206055,10.8691406 440.354004,10.9887695 439.63623,11.2280273 C438.918457,11.4672852 438.320312,11.7675781 437.841797,12.1289062 L437.841797,22.7636719 L441.694336,23.0273438 L441.694336,24.5947266 L432.202148,24.5947266 L432.202148,23.0126953 L434.501953,22.7783203 Z" id="Path"></path>
            <path d="M448.461914,19.8339844 L449.047852,22.0605469 C449.165039,22.265625 449.39209,22.4609375 449.729004,22.6464844 C450.065918,22.8320312 450.463867,22.9833984 450.922852,23.1005859 C451.381836,23.2177734 451.850586,23.2763672 452.329102,23.2763672 C453.432617,23.2763672 454.21875,23.0688477 454.6875,22.6538086 C455.15625,22.2387695 455.390625,21.6699219 455.390625,20.9472656 C455.390625,20.4394531 455.231934,19.9926758 454.914551,19.6069336 C454.597168,19.2211914 454.125977,18.8574219 453.500977,18.515625 C452.875977,18.1738281 452.026367,17.7880859 450.952148,17.3583984 C449.399414,16.7529297 448.266602,16.0375977 447.553711,15.2124023 C446.84082,14.387207 446.484375,13.3203125 446.484375,12.0117188 C446.484375,11.1328125 446.750488,10.3588867 447.282715,9.68994141 C447.814941,9.02099609 448.544922,8.50097656 449.472656,8.12988281 C450.400391,7.75878906 451.445312,7.57324219 452.607422,7.57324219 C453.505859,7.57324219 454.296875,7.64404297 454.980469,7.78564453 C455.664062,7.92724609 456.352539,8.11035156 457.045898,8.33496094 L457.573242,8.49609375 L457.573242,12.2021484 L455.698242,12.2021484 L455.068359,10.1513672 C454.951172,9.89746094 454.63623,9.67773438 454.123535,9.4921875 C453.61084,9.30664062 453.037109,9.21386719 452.402344,9.21386719 C451.503906,9.21386719 450.810547,9.40429688 450.322266,9.78515625 C449.833984,10.1660156 449.589844,10.6640625 449.589844,11.2792969 C449.589844,11.8261719 449.733887,12.2851562 450.021973,12.65625 C450.310059,13.0273438 450.668945,13.3300781 451.098633,13.5644531 C451.52832,13.7988281 452.128906,14.0771484 452.900391,14.3994141 L453.47168,14.6484375 C454.584961,15.1269531 455.488281,15.5761719 456.181641,15.9960938 C456.875,16.4160156 457.451172,16.953125 457.910156,17.6074219 C458.369141,18.2617188 458.598633,19.0625 458.598633,20.0097656 C458.598633,20.9863281 458.342285,21.8457031 457.82959,22.5878906 C457.316895,23.3300781 456.574707,23.90625 455.603027,24.3164062 C454.631348,24.7265625 453.481445,24.9316406 452.15332,24.9316406 C451.157227,24.9316406 450.112305,24.7949219 449.018555,24.5214844 C447.924805,24.2480469 447.050781,23.9648438 446.396484,23.671875 L446.396484,19.8339844 L448.461914,19.8339844 Z" id="Path"></path>
            <path d="M461.176758,16.2304688 C461.176758,14.5117188 461.513672,12.9882812 462.1875,11.6601562 C462.861328,10.3320312 463.793945,9.30419922 464.985352,8.57666016 C466.176758,7.84912109 467.529297,7.48535156 469.042969,7.48535156 C470.917969,7.48535156 472.368164,7.99804688 473.393555,9.0234375 C474.418945,10.0488281 474.96582,11.5283203 475.03418,13.4619141 L475.03418,13.9892578 C475.03418,15.0146484 474.975586,15.7958984 474.858398,16.3330078 L464.707031,16.3330078 C464.746094,17.7685547 464.990234,18.9599609 465.439453,19.9072266 C465.888672,20.8544922 466.479492,21.5527344 467.211914,22.0019531 C467.944336,22.4511719 468.769531,22.6757812 469.6875,22.6757812 C470.488281,22.6757812 471.311035,22.5366211 472.155762,22.2583008 C473.000488,21.9799805 473.662109,21.6601562 474.140625,21.2988281 L474.755859,22.7050781 C474.384766,23.0859375 473.874512,23.4472656 473.225098,23.7890625 C472.575684,24.1308594 471.853027,24.4067383 471.057129,24.6166992 C470.26123,24.8266602 469.472656,24.9316406 468.691406,24.9316406 C467.050781,24.9316406 465.666504,24.5678711 464.538574,23.840332 C463.410645,23.112793 462.568359,22.097168 462.011719,20.793457 C461.455078,19.4897461 461.176758,17.96875 461.176758,16.2304688 Z M471.518555,14.6337891 C471.557617,14.2822266 471.577148,13.8623047 471.577148,13.3740234 C471.567383,12.1337891 471.308594,11.1376953 470.800781,10.3857422 C470.292969,9.63378906 469.492188,9.2578125 468.398438,9.2578125 C467.304688,9.2578125 466.437988,9.66552734 465.79834,10.480957 C465.158691,11.2963867 464.794922,12.6806641 464.707031,14.6337891 L471.518555,14.6337891 Z" id="Shape"></path>
            <path d="M485.786133,7.48535156 C487.192383,7.48535156 488.696289,7.78808594 490.297852,8.39355469 L490.151367,12.9052734 L488.115234,12.9052734 L487.441406,10.1660156 C487.304688,9.84375 487.033691,9.60449219 486.628418,9.44824219 C486.223145,9.29199219 485.737305,9.21386719 485.170898,9.21386719 C484.311523,9.21386719 483.564453,9.45068359 482.929688,9.92431641 C482.294922,10.3979492 481.801758,11.105957 481.450195,12.0483398 C481.098633,12.9907227 480.922852,14.1552734 480.922852,15.5419922 C480.922852,17.1533203 481.132812,18.4912109 481.552734,19.5556641 C481.972656,20.6201172 482.543945,21.40625 483.266602,21.9140625 C483.989258,22.421875 484.804688,22.6757812 485.712891,22.6757812 C486.5625,22.6757812 487.346191,22.5512695 488.063965,22.3022461 C488.781738,22.0532227 489.394531,21.7480469 489.902344,21.3867188 L490.532227,22.734375 C490.180664,23.0957031 489.711914,23.4448242 489.125977,23.7817383 C488.540039,24.1186523 487.883301,24.3945312 487.155762,24.609375 C486.428223,24.8242188 485.698242,24.9316406 484.96582,24.9316406 C483.31543,24.9316406 481.918945,24.5654297 480.776367,23.8330078 C479.633789,23.1005859 478.776855,22.097168 478.205566,20.8227539 C477.634277,19.5483398 477.348633,18.1005859 477.348633,16.4794922 C477.348633,14.8095703 477.670898,13.293457 478.31543,11.9311523 C478.959961,10.5688477 479.916992,9.48730469 481.186523,8.68652344 C482.456055,7.88574219 483.989258,7.48535156 485.786133,7.48535156 Z" id="Path"></path>
            <path d="M504.858398,22.6025391 C504.233398,23.2080078 503.442383,23.7475586 502.485352,24.2211914 C501.52832,24.6948242 500.561523,24.9316406 499.584961,24.9316406 C498.364258,24.9316406 497.373047,24.7143555 496.611328,24.2797852 C495.849609,23.8452148 495.288086,23.1542969 494.926758,22.2070312 C494.56543,21.2597656 494.384766,20.0097656 494.384766,18.4570312 L494.384766,9.9609375 L492.758789,9.41894531 L492.758789,7.99804688 L497.094727,7.55859375 L497.109375,7.55859375 L497.724609,7.95410156 L497.724609,18.2958984 C497.724609,19.4091797 497.807617,20.2783203 497.973633,20.9033203 C498.139648,21.5283203 498.432617,21.9848633 498.852539,22.2729492 C499.272461,22.5610352 499.87793,22.7050781 500.668945,22.7050781 C501.430664,22.7050781 502.138672,22.5585938 502.792969,22.265625 C503.447266,21.9726562 504.013672,21.6357422 504.492188,21.2548828 L504.492188,9.97558594 L502.397461,9.40429688 L502.397461,7.98339844 L507.026367,7.55859375 L507.055664,7.55859375 L507.832031,7.95410156 L507.832031,22.9394531 L509.589844,22.9394531 L509.589844,24.4042969 C509.023438,24.5703125 508.532715,24.699707 508.117676,24.7924805 C507.702637,24.8852539 507.226562,24.9316406 506.689453,24.9316406 C506.064453,24.9316406 505.603027,24.8120117 505.305176,24.5727539 C505.007324,24.3334961 504.858398,23.9306641 504.858398,23.3642578 L504.858398,22.6025391 Z" id="Path"></path>
            <path d="M514.365234,22.7783203 L514.365234,10.4736328 L512.285156,9.88769531 L512.285156,8.12988281 L516.474609,7.54394531 L516.547852,7.54394531 L517.250977,8.11523438 L517.250977,9.03808594 L517.22168,10.9423828 L517.250977,10.9423828 C517.426758,10.6201172 517.766113,10.1879883 518.269043,9.64599609 C518.771973,9.10400391 519.421387,8.60839844 520.217285,8.15917969 C521.013184,7.70996094 521.879883,7.48535156 522.817383,7.48535156 C523.198242,7.48535156 523.520508,7.5390625 523.78418,7.64648438 L523.78418,11.25 C523.598633,11.1425781 523.352051,11.0522461 523.044434,10.9790039 C522.736816,10.9057617 522.407227,10.8691406 522.055664,10.8691406 C521.069336,10.8691406 520.217285,10.9887695 519.499512,11.2280273 C518.781738,11.4672852 518.183594,11.7675781 517.705078,12.1289062 L517.705078,22.7636719 L521.557617,23.0273438 L521.557617,24.5947266 L512.06543,24.5947266 L512.06543,23.0126953 L514.365234,22.7783203 Z" id="Path"></path>
            <path d="M528.032227,22.7490234 L528.032227,10.4736328 L525.908203,9.87304688 L525.908203,8.14453125 L530.566406,7.54394531 L530.639648,7.54394531 L531.386719,8.11523438 L531.386719,22.7490234 L533.730469,22.9980469 L533.730469,24.5947266 L525.65918,24.5947266 L525.65918,22.9980469 L528.032227,22.7490234 Z M527.431641,2.78320312 C527.431641,2.11914062 527.624512,1.55761719 528.010254,1.09863281 C528.395996,0.639648438 528.935547,0.41015625 529.628906,0.41015625 L529.643555,0.41015625 C530.053711,0.41015625 530.410156,0.505371094 530.712891,0.695800781 C531.015625,0.886230469 531.247559,1.13769531 531.408691,1.45019531 C531.569824,1.76269531 531.650391,2.09472656 531.650391,2.44628906 C531.650391,3.12988281 531.455078,3.69140625 531.064453,4.13085938 C530.673828,4.5703125 530.107422,4.79003906 529.365234,4.79003906 L529.350586,4.79003906 C528.78418,4.79003906 528.322754,4.59960938 527.966309,4.21875 C527.609863,3.83789062 527.431641,3.359375 527.431641,2.78320312 Z" id="Shape"></path>
            <path d="M535.532227,10.0341797 L535.532227,8.64257812 C535.805664,8.57421875 536.120605,8.4765625 536.477051,8.34960938 C536.833496,8.22265625 537.06543,8.125 537.172852,8.05664062 C537.495117,7.82226562 537.758789,7.44140625 537.963867,6.9140625 C538.110352,6.58203125 538.303223,6.05224609 538.54248,5.32470703 C538.781738,4.59716797 538.945312,4.04785156 539.033203,3.67675781 L540.9375,3.67675781 L540.966797,7.93945312 L545.888672,7.93945312 L545.888672,10.0341797 L540.981445,10.0341797 L540.981445,18.8964844 C540.981445,20.0878906 541.015625,20.9155273 541.083984,21.3793945 C541.152344,21.8432617 541.291504,22.1411133 541.501465,22.2729492 C541.711426,22.4047852 542.094727,22.4707031 542.651367,22.4707031 L542.666016,22.4707031 C543.173828,22.4707031 543.747559,22.4072266 544.387207,22.2802734 C545.026855,22.1533203 545.522461,22.0214844 545.874023,21.8847656 L545.888672,21.8847656 L546.386719,23.3056641 C546.09375,23.5498047 545.654297,23.7963867 545.068359,24.0454102 C544.482422,24.2944336 543.852539,24.5019531 543.178711,24.6679688 C542.504883,24.8339844 541.884766,24.9169922 541.318359,24.9169922 L541.289062,24.9169922 C540.078125,24.9169922 539.165039,24.6508789 538.549805,24.1186523 C537.93457,23.5864258 537.626953,22.6953125 537.626953,21.4453125 L537.626953,10.0341797 L535.532227,10.0341797 Z" id="Path"></path>
            <path d="M548.90625,29.0771484 C549.023438,29.1455078 549.262695,29.206543 549.624023,29.2602539 C549.985352,29.3139648 550.327148,29.3408203 550.649414,29.3408203 C551.235352,29.3408203 551.774902,29.2211914 552.268066,28.9819336 C552.76123,28.7426758 553.261719,28.2763672 553.769531,27.5830078 C554.277344,26.8896484 554.770508,25.8935547 555.249023,24.5947266 L553.59375,24.5947266 L548.115234,9.87304688 L546.723633,9.4921875 L546.723633,7.93945312 L554.179688,7.93945312 L554.179688,9.4921875 L551.879883,9.87304688 L554.707031,18.7207031 L556.010742,22.96875 L557.182617,18.7060547 L559.833984,9.85839844 L557.871094,9.4921875 L557.871094,7.93945312 L564.023438,7.93945312 L564.023438,9.4921875 L562.529297,9.85839844 C561.123047,14.2333984 559.978027,17.7270508 559.094238,20.3393555 C558.210449,22.9516602 557.646484,24.5361328 557.402344,25.0927734 C556.738281,26.7724609 556.11084,28.1005859 555.52002,29.0771484 C554.929199,30.0537109 554.245605,30.7958984 553.469238,31.3037109 C552.692871,31.8115234 551.743164,32.0654297 550.620117,32.0654297 C550.317383,32.0654297 549.990234,32.043457 549.638672,31.9995117 C549.287109,31.9555664 549.042969,31.9042969 548.90625,31.8457031 L548.90625,29.0771484 Z" id="Path"></path>
        </g>
    </g>
</svg>