<?xml version="1.0" encoding="UTF-8"?>
<svg width="195px" height="64px" viewBox="0 0 195 64" version="1.1" xmlns="http://www.w3.org/2000/svg" xmlns:xlink="http://www.w3.org/1999/xlink">
    <title>logo/edm/white/short/edm-logo-white-short</title>
    <g id="logo/edm/white/short/edm-logo-white-short" stroke="none" stroke-width="1" fill="none" fill-rule="evenodd">
        <g id="EDM" transform="translate(74.250000, 13.976562)" fill="#FFFFFF" fill-rule="nonzero">
            <polygon id="Path" points="3.9375 32.90625 3.9375 3.5390625 0.0703125 2.953125 0.0703125 0.3515625 24.4921875 0.3515625 25.1484375 7.78125 22.125 7.78125 20.671875 3.328125 9.4453125 3.0234375 9.4453125 16.265625 17.0625 16.125 17.765625 12.234375 20.7890625 12.234375 20.7890625 23.34375 17.765625 23.34375 17.0859375 19.21875 9.4453125 19.1015625 9.4453125 33.1171875 22.3359375 32.6015625 24.984375 26.71875 27.984375 27.609375 26.6015625 36.0234375 0 36.0234375 0 33.46875"></polygon>
            <path d="M35.3203125,32.90625 L35.3203125,3.5625 L31.6171875,2.953125 L31.6171875,0.3515625 L37.875,0.3515625 C38.65625,0.3515625 39.4804688,0.328125 40.3476562,0.28125 C41.2148438,0.234375 41.78125,0.203125 42.046875,0.1875 C43.890625,0.0625 45.3125,0 46.3125,0 C52.296875,0 56.7460938,1.4921875 59.6601562,4.4765625 C62.5742188,7.4609375 64.03125,11.65625 64.03125,17.0625 C64.03125,20.859375 63.2890625,24.21875 61.8046875,27.140625 C60.3203125,30.0625 58.2382812,32.3359375 55.5585938,33.9609375 C52.8789062,35.5859375 49.796875,36.3984375 46.3125,36.3984375 C45.515625,36.3984375 44.1796875,36.3359375 42.3046875,36.2109375 C40.3671875,36.0859375 38.96875,36.0234375 38.109375,36.0234375 L31.359375,36.0234375 L31.359375,33.46875 L35.3203125,32.90625 Z M40.8046875,33.140625 C41.4609375,33.3125 42.1445312,33.4296875 42.8554688,33.4921875 C43.5664062,33.5546875 44.3671875,33.5859375 45.2578125,33.5859375 L46.3359375,33.5859375 C48.6484375,33.5390625 50.6835938,32.9257812 52.4414062,31.7460938 C54.1992188,30.5664062 55.5742188,28.8242188 56.5664062,26.5195312 C57.5585938,24.2148438 58.0546875,21.3984375 58.0546875,18.0703125 C58.0546875,13.0234375 56.9765625,9.2109375 54.8203125,6.6328125 C52.6640625,4.0546875 49.4140625,2.765625 45.0703125,2.765625 C44.1171875,2.765625 42.9375,2.84375 41.53125,3 L40.8046875,3.0703125 L40.8046875,33.140625 Z" id="Shape"></path>
            <polygon id="Path" points="69.9140625 32.9296875 73.4296875 3.5390625 68.4140625 2.953125 68.4140625 0.3515625 81.2109375 0.3515625 88.5703125 21.84375 89.7890625 27.234375 90.84375 21.84375 97.3359375 0.3515625 110.132812 0.3515625 110.132812 2.953125 104.929688 3.5625 109.476562 32.90625 113.671875 33.46875 113.671875 36.0234375 99.75 36.0234375 99.75 33.46875 103.898438 32.9296875 100.945312 11.6484375 99.9140625 2.296875 98.296875 8.71875 90.65625 34.4296875 87.6328125 34.4296875 79.171875 11.34375 76.5703125 2.3203125 75.8203125 11.625 73.921875 32.90625 78.5390625 33.46875 78.5390625 36.0234375 65.7421875 36.0234375 65.7421875 33.46875"></polygon>
        </g>
        <path d="M32,0 C49.673,0 64,14.327 64,32 C64,49.673 49.673,64 32,64 C14.327,64 0,49.673 0,32 C0,14.327 14.327,0 32,0 Z M15.5816,40.8264 L15.5816,46.0514 L15.6321538,46.1945601 C16.7263194,48.9992792 23.6914333,51.1604 32.0006,51.1604 C40.4506,51.1604 47.5096,48.9254 48.4186,46.0514 L48.4186,46.0514 L48.4176,40.8294 L48.1586693,41.0286742 C44.7167694,43.5841681 38.34395,44.7734 32.0006,44.7734 C25.4926,44.7734 18.9546,43.5224 15.5816,40.8264 L15.5816,40.8264 Z M15.5816,31.885 L15.5826,36.471 L15.5875025,36.6124946 C15.8027974,39.7164106 23.0817343,42.219 32.0006,42.219 C41.0456,42.219 48.4036,39.644 48.4176,36.479 L48.4176,36.479 L48.4176,31.887 C45.0436,34.581 38.5066,35.832 32.0006,35.832 C25.4926,35.832 18.9546,34.581 15.5816,31.885 L15.5816,31.885 Z M15.5816,22.9426 L15.5826,27.5286 L15.5875025,27.6701387 C15.8027974,30.7750106 23.0817343,33.2776 32.0006,33.2776 C41.0456,33.2776 48.4036,30.7026 48.4176,27.5366 L48.4176,27.5366 L48.4176,22.9456 C45.0436,25.6396 38.5066,26.8896 32.0006,26.8896 C25.4926,26.8896 18.9546,25.6396 15.5816,22.9426 L15.5816,22.9426 Z M32.0006,12.8391 C22.9336,12.8391 15.5826,15.4121 15.5826,18.5871 C15.5826,21.7621 22.9336,24.3351 32.0006,24.3351 C41.0676,24.3351 48.4186,21.7621 48.4186,18.5871 C48.4186,15.4121 41.0676,12.8391 32.0006,12.8391 Z" id="icon" fill="#FFFFFF" fill-rule="nonzero"></path>
    </g>
</svg>