<?xml version="1.0" encoding="UTF-8"?>
<svg width="227px" height="64px" viewBox="0 0 227 64" version="1.1" xmlns="http://www.w3.org/2000/svg" xmlns:xlink="http://www.w3.org/1999/xlink">
    <title>logo/tssec/black/short/tssec-logo-black-short</title>
    <g id="logo/tssec/black/short/tssec-logo-black-short" stroke="none" stroke-width="1" fill="none" fill-rule="evenodd">
        <g id="TSSEC" transform="translate(72.750000, 13.929688)" fill="#000000">
            <polygon id="Path" points="12.9609375 32.953125 12.9609375 3.1875 5.15625 3.421875 3.3984375 13.21875 0 13.21875 0.8203125 0.3984375 30.4921875 0.3984375 31.2421875 13.21875 27.890625 13.21875 26.109375 3.421875 18.609375 3.1875 18.609375 32.953125 25.2421875 33.515625 25.2421875 36.0703125 6.84375 36.0703125 6.84375 33.515625"></polygon>
            <path d="M35.4609375,25.7578125 L38.71875,25.7578125 L39.65625,31.7578125 C40.1875,32.3203125 41.046875,32.8007812 42.234375,33.1992188 C43.421875,33.5976562 44.7109375,33.796875 46.1015625,33.796875 C48.4296875,33.796875 50.1835938,33.2773438 51.3632812,32.2382812 C52.5429688,31.1992188 53.1328125,29.7578125 53.1328125,27.9140625 C53.1328125,26.7109375 52.8085938,25.6757812 52.1601562,24.8085938 C51.5117188,23.9414062 50.6328125,23.1796875 49.5234375,22.5234375 C48.4140625,21.8671875 46.890625,21.1015625 44.953125,20.2265625 C43.265625,19.4609375 41.75,18.6328125 40.40625,17.7421875 C39.0625,16.8515625 37.90625,15.6953125 36.9375,14.2734375 C35.96875,12.8515625 35.484375,11.171875 35.484375,9.234375 C35.484375,7.453125 35.9609375,5.86328125 36.9140625,4.46484375 C37.8671875,3.06640625 39.2265625,1.97265625 40.9921875,1.18359375 C42.7578125,0.39453125 44.8125,0 47.15625,0 C48.59375,0 49.921875,0.12109375 51.140625,0.36328125 C52.359375,0.60546875 53.625,0.9140625 54.9375,1.2890625 C55.625,1.4921875 56.1796875,1.6328125 56.6015625,1.7109375 L56.296875,9.75 L53.15625,9.75 L52.078125,4.0546875 C51.78125,3.7265625 51.15625,3.42578125 50.203125,3.15234375 C49.25,2.87890625 48.21875,2.7421875 47.109375,2.7421875 C42.890625,2.7421875 40.78125,4.4453125 40.78125,7.8515625 C40.78125,9.0390625 41.1015625,10.0546875 41.7421875,10.8984375 C42.3828125,11.7421875 43.234375,12.4882812 44.296875,13.1367188 C45.359375,13.7851562 46.9296875,14.6171875 49.0078125,15.6328125 C51.0703125,16.6484375 52.7578125,17.578125 54.0703125,18.421875 C55.3828125,19.265625 56.5078125,20.3398438 57.4453125,21.6445312 C58.3828125,22.9492188 58.8515625,24.4921875 58.8515625,26.2734375 C58.8515625,27.9921875 58.3710938,29.6445312 57.4101562,31.2304688 C56.4492188,32.8164062 55.0039062,34.109375 53.0742188,35.109375 C51.1445312,36.109375 48.8046875,36.609375 46.0546875,36.609375 C44.3671875,36.609375 42.828125,36.4570312 41.4375,36.1523438 C40.046875,35.8476562 38.6015625,35.453125 37.1015625,34.96875 C36.0703125,34.640625 35.390625,34.4609375 35.0625,34.4296875 L35.4609375,25.7578125 Z" id="Path"></path>
            <path d="M63.9375,25.7578125 L67.1953125,25.7578125 L68.1328125,31.7578125 C68.6640625,32.3203125 69.5234375,32.8007812 70.7109375,33.1992188 C71.8984375,33.5976562 73.1875,33.796875 74.578125,33.796875 C76.90625,33.796875 78.6601562,33.2773438 79.8398438,32.2382812 C81.0195312,31.1992188 81.609375,29.7578125 81.609375,27.9140625 C81.609375,26.7109375 81.2851562,25.6757812 80.6367188,24.8085938 C79.9882812,23.9414062 79.109375,23.1796875 78,22.5234375 C76.890625,21.8671875 75.3671875,21.1015625 73.4296875,20.2265625 C71.7421875,19.4609375 70.2265625,18.6328125 68.8828125,17.7421875 C67.5390625,16.8515625 66.3828125,15.6953125 65.4140625,14.2734375 C64.4453125,12.8515625 63.9609375,11.171875 63.9609375,9.234375 C63.9609375,7.453125 64.4375,5.86328125 65.390625,4.46484375 C66.34375,3.06640625 67.703125,1.97265625 69.46875,1.18359375 C71.234375,0.39453125 73.2890625,0 75.6328125,0 C77.0703125,0 78.3984375,0.12109375 79.6171875,0.36328125 C80.8359375,0.60546875 82.1015625,0.9140625 83.4140625,1.2890625 C84.1015625,1.4921875 84.65625,1.6328125 85.078125,1.7109375 L84.7734375,9.75 L81.6328125,9.75 L80.5546875,4.0546875 C80.2578125,3.7265625 79.6328125,3.42578125 78.6796875,3.15234375 C77.7265625,2.87890625 76.6953125,2.7421875 75.5859375,2.7421875 C71.3671875,2.7421875 69.2578125,4.4453125 69.2578125,7.8515625 C69.2578125,9.0390625 69.578125,10.0546875 70.21875,10.8984375 C70.859375,11.7421875 71.7109375,12.4882812 72.7734375,13.1367188 C73.8359375,13.7851562 75.40625,14.6171875 77.484375,15.6328125 C79.546875,16.6484375 81.234375,17.578125 82.546875,18.421875 C83.859375,19.265625 84.984375,20.3398438 85.921875,21.6445312 C86.859375,22.9492188 87.328125,24.4921875 87.328125,26.2734375 C87.328125,27.9921875 86.8476562,29.6445312 85.8867188,31.2304688 C84.9257812,32.8164062 83.4804688,34.109375 81.5507812,35.109375 C79.6210938,36.109375 77.28125,36.609375 74.53125,36.609375 C72.84375,36.609375 71.3046875,36.4570312 69.9140625,36.1523438 C68.5234375,35.8476562 67.078125,35.453125 65.578125,34.96875 C64.546875,34.640625 63.8671875,34.4609375 63.5390625,34.4296875 L63.9375,25.7578125 Z" id="Path"></path>
            <polygon id="Path" points="95.4609375 32.953125 95.4609375 3.5859375 91.59375 3 91.59375 0.3984375 116.015625 0.3984375 116.671875 7.828125 113.648438 7.828125 112.195312 3.375 100.96875 3.0703125 100.96875 16.3125 108.585938 16.171875 109.289062 12.28125 112.3125 12.28125 112.3125 23.390625 109.289062 23.390625 108.609375 19.265625 100.96875 19.1484375 100.96875 33.1640625 113.859375 32.6484375 116.507812 26.765625 119.507812 27.65625 118.125 36.0703125 91.5234375 36.0703125 91.5234375 33.515625"></polygon>
            <path d="M122.203125,18.2109375 C122.203125,14.5234375 122.964844,11.3046875 124.488281,8.5546875 C126.011719,5.8046875 128.09375,3.6953125 130.734375,2.2265625 C133.375,0.7578125 136.328125,0.0234375 139.59375,0.0234375 C141.09375,0.0234375 142.542969,0.1328125 143.941406,0.3515625 C145.339844,0.5703125 146.921875,0.859375 148.6875,1.21875 L149.953125,1.4765625 L149.507812,10.2421875 L146.015625,10.2421875 L144.703125,4.265625 C144.375,3.828125 143.710938,3.48046875 142.710938,3.22265625 C141.710938,2.96484375 140.398438,2.8359375 138.773438,2.8359375 C136.773438,2.8359375 135.003906,3.40625 133.464844,4.546875 C131.925781,5.6875 130.722656,7.37109375 129.855469,9.59765625 C128.988281,11.8242188 128.554688,14.5078125 128.554688,17.6484375 C128.554688,20.5546875 128.941406,23.2304688 129.714844,25.6757812 C130.488281,28.1210938 131.683594,30.0898438 133.300781,31.5820312 C134.917969,33.0742188 136.9375,33.8203125 139.359375,33.8203125 C141.875,33.8203125 143.679688,33.2421875 144.773438,32.0859375 L146.8125,27.140625 L150.140625,27.5859375 L149.109375,34.7578125 C148.6875,34.7890625 148.28125,34.8554688 147.890625,34.9570312 C147.5,35.0585938 146.992188,35.21875 146.367188,35.4375 C145.304688,35.8125 144.289062,36.1015625 143.320312,36.3046875 C142.351562,36.5078125 141.15625,36.609375 139.734375,36.609375 C136.015625,36.609375 132.84375,35.8789062 130.21875,34.4179688 C127.59375,32.9570312 125.601562,30.8515625 124.242188,28.1015625 C122.882812,25.3515625 122.203125,22.0546875 122.203125,18.2109375 Z" id="Path"></path>
        </g>
        <path d="M32,0 C49.673,0 64,14.327 64,32 C64,49.673 49.673,64 32,64 C14.327,64 0,49.673 0,32 C0,14.327 14.327,0 32,0 Z M27,46.3077044 C27,46.9172182 26.3059799,47.2284455 25.8910366,46.8039858 L25.8910366,46.8039858 L21.1987505,41.9958146 C20.9337498,41.7247039 20.9337498,41.2756565 21.1987505,41.0038988 L21.1987505,41.0038988 L25.8910366,36.1957276 C26.3059799,35.7712679 27,36.0818482 27,36.6926561 L27,36.6926561 L27,38.999 L48,38.999 L48.0006,27.0767 C48.0006,25.4897 46.7126,24.2027 45.1266,24.2027 L42.8486,24.2027 L42.8486,20.5227 C42.8486,14.5407 37.9826,9.6737 32.0006,9.6737 C26.0176,9.6737 21.1506,14.5407 21.1506,20.5227 L21.1506,24.2027 L18.8746,24.2027 C17.2866,24.2027 16.0006,25.4897 16.0006,27.0767 L16,28.999 L38,28.999 L38,26.6920525 C38,26.1177648 38.6148349,25.8088581 39.0326343,26.1283896 L39.1084645,26.1957549 L43.8012292,31.0034352 C44.0662569,31.2752018 44.0662569,31.7242637 43.8012292,31.9960303 L43.8012292,31.9960303 L39.1084645,36.8037106 C38.6940909,37.2281841 38,36.9182408 38,36.307413 L38,36.307413 L38,33.999 L16,33.999 L16.0006,46.1767 C16.0006,47.7647 17.2866,49.0507 18.8746,49.0507 L45.1266,49.0507 C46.7126,49.0507 48.0006,47.7647 48.0006,46.1767 L48,43.999 L27,43.999 Z M32.0006,14.5877 C35.2726,14.5877 37.9346,17.2507 37.9346,20.5227 L37.9346,24.2027 L26.0646,24.2027 L26.0646,20.5227 C26.0646,17.2507 28.7276,14.5877 32.0006,14.5877 Z" id="icon" fill="#000000"></path>
    </g>
</svg>