<?xml version="1.0" encoding="UTF-8"?>
<svg width="64px" height="64px" viewBox="0 0 64 64" version="1.1" xmlns="http://www.w3.org/2000/svg" xmlns:xlink="http://www.w3.org/1999/xlink">
    <title>logo/tssec/color-light/icon/tssec-logo-color-light-icon</title>
    <g id="logo/tssec/color-light/icon/tssec-logo-color-light-icon" stroke="none" stroke-width="1" fill="none" fill-rule="evenodd">
        <g id="mark/tssec">
            <path d="M64,32.0002 C64,49.6732 49.673,64.0002 32,64.0002 C14.327,64.0002 0,49.6732 0,32.0002 C0,14.3272 14.327,0.0002 32,0.0002 C49.673,0.0002 64,14.3272 64,32.0002" id="circle" fill="#0053A2" fill-rule="nonzero"></path>
            <path d="M48,43.9999 L48.0006,46.1769 C48.0006,47.7649 46.7126,49.0509 45.1266,49.0509 L45.1266,49.0509 L18.8746,49.0509 C17.2866,49.0509 16.0006,47.7649 16.0006,46.1769 L16.0006,46.1769 L16,33.9999 L38,33.9999 L38,36.307613 C38,36.9184408 38.6940909,37.2283841 39.1084645,36.8039106 L43.8012292,31.9962303 C44.0662569,31.7244637 44.0662569,31.2754018 43.8012292,31.0036352 L39.1084645,26.1959549 C38.6940909,25.7714814 38,26.0820718 38,26.6922525 L38,28.9999 L16,28.9999 L16.0006,27.0769 C16.0006,25.5465786 17.1963832,24.2952112 18.7056576,24.2077798 L18.8746,24.2029 L21.1506,24.2029 L21.1506,20.5229 C21.1506,14.5409 26.0176,9.6739 32.0006,9.6739 C37.9826,9.6739 42.8486,14.5409 42.8486,20.5229 L42.8486,20.5229 L42.8486,24.2029 L45.1266,24.2029 C46.7126,24.2029 48.0006,25.4899 48.0006,27.0769 L48.0006,27.0769 L48,38.9999 L27,38.9999 L27,36.6928561 C27,36.0820482 26.3059799,35.7714679 25.8910366,36.1959276 L21.1987505,41.0040988 C20.9337498,41.2758565 20.9337498,41.7249039 21.1987505,41.9960146 L25.8910366,46.8041858 C26.3059799,47.2286455 27,46.9174182 27,46.3079044 L27,43.9999 L48,43.9999 Z M32.0006,14.5879 C28.7276,14.5879 26.0646,17.2509 26.0646,20.5229 L26.0646,20.5229 L26.0646,24.2029 L37.9346,24.2029 L37.9346,20.5229 C37.9346,17.2509 35.2726,14.5879 32.0006,14.5879 Z" id="icon" fill="#F5EA14"></path>
        </g>
    </g>
</svg>