<?xml version="1.0" encoding="UTF-8"?>
<svg width="64px" height="64px" viewBox="0 0 64 64" version="1.1" xmlns="http://www.w3.org/2000/svg" xmlns:xlink="http://www.w3.org/1999/xlink">
    <title>logo/tbm/black/icon/tbm-logo-black-icon</title>
    <g id="logo/tbm/black/icon/tbm-logo-black-icon" stroke="none" stroke-width="1" fill="none" fill-rule="evenodd">
        <path d="M32,0 C49.673,0 64,14.327 64,32 C64,49.673 49.673,64 32,64 C14.327,64 0,49.673 0,32 C0,14.327 14.327,0 32,0 Z M32,7.9998 C24.4569961,7.9998 18.3157895,14.2898324 18.3157895,22.015633 C18.3157895,29.2690984 22.8737574,36.9334479 26.630823,42.0000462 L23,41.9998 L16,49.9998 L48,49.9998 L41,41.9998 L37.33573,42.0000462 C41.0982249,36.9334479 45.6842105,29.2690984 45.6842105,22.015633 C45.6842105,14.2898324 39.5430039,7.9998 32,7.9998 Z M31.4835484,47.7730997 C31.631106,47.9242332 31.7786636,47.9998 32,47.9998 C32.2213364,47.9998 32.368894,47.9242332 32.5164516,47.7730997 C32.7007378,47.5843475 34.4301404,45.7846274 36.5785018,43.0002841 L39.3125,42.9998 L45,48.9998 L19,48.9998 L24.6875,42.9998 L27.3872712,43.0002841 C29.5343821,45.7846274 31.2716819,47.5843475 31.4835484,47.7730997 Z M31.9818182,23.7998 L37.4890759,29.2927224 C36.2021408,30.9415953 34.2115715,31.9998 31.9868266,31.9998 C29.7558174,31.9998 27.769111,30.9356276 26.4899599,29.2787798 L31.9818182,23.7998 Z M39,15.9998 L39,24.8886254 C39,25.2404685 38.9746857,25.5863419 38.9258183,25.9244913 L31.9818182,18.9998 L25.0692042,25.893456 C25.0387957,25.6746108 25.0181744,25.4525619 25.0078057,25.2277827 L25,24.8886254 L25,15.9998 L39,15.9998 Z" id="icon" fill="#000000"></path>
    </g>
</svg>