<?xml version="1.0" encoding="UTF-8"?>
<svg width="64px" height="64px" viewBox="0 0 64 64" version="1.1" xmlns="http://www.w3.org/2000/svg" xmlns:xlink="http://www.w3.org/1999/xlink">
    <title>logo/eic/color-dark/icon/eic-logo-color-dark-icon</title>
    <g id="logo/eic/color-dark/icon/eic-logo-color-dark-icon" stroke="none" stroke-width="1" fill="none" fill-rule="evenodd">
        <g id="Group">
            <path d="M32,64.0002 C14.327,64.0002 0,49.6732 0,32.0002 C0,14.3272 14.327,0.0002 32,0.0002 C49.673,0.0002 64,14.3272 64,32.0002 C64,49.6732 49.673,64.0002 32,64.0002 Z" id="circle" fill="#083C6F"></path>
            <path d="M33.556,11 C34.743,11.001 35.759,11.854 35.964,13.024 L35.964,13.024 L36.524,16.209 C37.901,16.583 39.222,17.134 40.455,17.849 L40.455,17.849 L43.099,15.992 C44.072,15.31 45.395,15.426 46.235,16.267 L46.235,16.267 L48.141,18.174 C48.982,19.013 49.098,20.336 48.416,21.309 L48.416,21.309 L46.559,23.953 C47.274,25.187 47.825,26.508 48.2,27.884 L48.2,27.884 L51.384,28.445 C52.554,28.65 53.407,29.665 53.409,30.852 L53.409,30.852 L53.409,33.555 C53.407,34.743 52.554,35.758 51.384,35.964 L51.384,35.964 L48.249,36.543 C47.874,37.919 47.322,39.24 46.608,40.474 L46.608,40.474 L48.465,43.118 C49.147,44.091 49.03,45.414 48.191,46.254 L48.191,46.254 L46.283,48.16 C45.444,49.001 44.121,49.117 43.149,48.435 L43.149,48.435 L40.475,46.627 C39.241,47.342 37.92,47.894 36.544,48.268 L36.544,48.268 L35.984,51.453 C35.779,52.622 34.763,53.476 33.575,53.477 L33.575,53.477 L30.843,53.477 C29.655,53.476 28.641,52.622 28.436,51.453 L28.436,51.453 L27.875,48.268 C26.499,47.893 25.178,47.341 23.944,46.627 L23.944,46.627 L21.31,48.484 C20.337,49.166 19.015,49.049 18.175,48.209 L18.175,48.209 L16.268,46.302 C15.428,45.463 15.312,44.14 15.993,43.168 L15.993,43.168 L17.851,40.523 C17.136,39.29 16.584,37.968 16.209,36.592 L16.209,36.592 L13.025,36.032 C11.855,35.827 11.001,34.811 11,33.624 L11,33.624 L11,30.892 C11.001,29.704 11.855,28.689 13.025,28.484 L13.025,28.484 L16.209,27.924 C16.584,26.548 17.136,25.226 17.851,23.993 L17.851,23.993 L15.993,21.348 C15.312,20.376 15.428,19.053 16.268,18.214 L16.268,18.214 L18.175,16.306 C19.004,15.454 20.327,15.321 21.31,15.992 L21.31,15.992 L23.954,17.849 C25.188,17.135 26.509,16.584 27.885,16.209 L27.885,16.209 L28.446,13.024 C28.651,11.854 29.665,11.001 30.854,11 L30.854,11 Z M32.2046,17.2383 C28.0912875,17.2383 24.745225,20.4519018 24.745225,24.4017203 L24.745225,26.8315651 L23.180475,26.8315651 C22.088725,26.8315651 21.2046,27.6813505 21.2046,28.7292211 L21.2046,41.340644 C21.2046,42.3891749 22.088725,43.2383 23.180475,43.2383 L41.228725,43.2383 C42.3191,43.2383 43.2046,42.3891749 43.2046,41.340644 L43.2046,28.7292211 C43.2046,27.6813505 42.3191,26.8315651 41.228725,26.8315651 L39.6626,26.8315651 L39.6626,24.4017203 C39.6626,20.4519018 36.317225,17.2383 32.2046,17.2383 Z M32.205274,21.2383 C34.4104972,21.2383 36.2046,22.9000785 36.2046,24.9418881 L36.2046,27.2383 L28.2046,27.2383 L28.2046,24.9418881 C28.2046,22.9000785 29.9993767,21.2383 32.205274,21.2383 Z" id="icon" fill="#F5EA14"></path>
        </g>
    </g>
</svg>