<?xml version="1.0" encoding="UTF-8"?>
<svg width="64px" height="64px" viewBox="0 0 64 64" version="1.1" xmlns="http://www.w3.org/2000/svg" xmlns:xlink="http://www.w3.org/1999/xlink">
    <title>logo/edm/color-light/icon/edm-logo-color-light-icon</title>
    <g id="logo/edm/color-light/icon/edm-logo-color-light-icon" stroke="none" stroke-width="1" fill="none" fill-rule="evenodd">
        <g id="mark/datamanagement">
            <path d="M64,32.0002 C64,49.6732 49.673,64.0002 32,64.0002 C14.327,64.0002 0,49.6732 0,32.0002 C0,14.3272 14.327,0.0002 32,0.0002 C49.673,0.0002 64,14.3272 64,32.0002" id="circle" fill="#0053A2" fill-rule="nonzero"></path>
            <path d="M15.5816,40.8266 C18.9546,43.5226 25.4926,44.7736 32.0006,44.7736 C38.34395,44.7736 44.7167694,43.5843681 48.1586693,41.0288742 L48.4176,40.8296 L48.4186,46.0516 C47.5096,48.9256 40.4506,51.1606 32.0006,51.1606 C23.6914333,51.1606 16.7263194,48.9994792 15.6321538,46.1947601 L15.5816,46.0516 L15.5816,40.8266 Z M15.5816,31.8852 C18.9546,34.5812 25.4926,35.8322 32.0006,35.8322 C38.5066,35.8322 45.0436,34.5812 48.4176,31.8872 L48.4175982,31.8910464 L48.4174071,36.4275144 L48.4176,36.4642 L48.4176,36.4792 C48.4036,39.6442 41.0456,42.2192 32.0006,42.2192 C23.0817343,42.2192 15.8027974,39.7166106 15.5875025,36.6126946 L15.5826,36.4712 L15.5816,31.8852 Z M15.5816,22.9428 C18.9546,25.6398 25.4926,26.8898 32.0006,26.8898 C38.5066,26.8898 45.0436,25.6398 48.4176,22.9458 L48.4175982,22.9496464 L48.4174071,27.4861144 L48.4176,27.5228 L48.4176,27.5368 C48.4036,30.7028 41.0456,33.2778 32.0006,33.2778 C23.0817343,33.2778 15.8027974,30.7752106 15.5875025,27.6703387 L15.5826,27.5288 L15.5816,22.9428 Z M32.0006,12.8393 C41.0676,12.8393 48.4186,15.4123 48.4186,18.5873 C48.4186,21.7623 41.0676,24.3353 32.0006,24.3353 C22.9336,24.3353 15.5826,21.7623 15.5826,18.5873 C15.5826,15.4123 22.9336,12.8393 32.0006,12.8393 Z" id="icon" fill="#F5EA14"></path>
        </g>
    </g>
</svg>