<?xml version="1.0" encoding="UTF-8"?>
<svg width="672px" height="64px" viewBox="0 0 672 64" version="1.1" xmlns="http://www.w3.org/2000/svg" xmlns:xlink="http://www.w3.org/1999/xlink">
    <title>logo/eic/color-light/long/eic-logo-color-light-long</title>
    <g id="logo/eic/color-light/long/eic-logo-color-light-long" stroke="none" stroke-width="1" fill="none" fill-rule="evenodd">
        <g id="mark/eic">
            <path d="M32,64.0002 C14.327,64.0002 0,49.6732 0,32.0002 C0,14.3272 14.327,0.0002 32,0.0002 C49.673,0.0002 64,14.3272 64,32.0002 C64,49.6732 49.673,64.0002 32,64.0002 Z" id="circle" fill="#0053A2" fill-rule="nonzero"></path>
            <path d="M33.556,11 C34.743,11.001 35.759,11.854 35.964,13.024 L35.964,13.024 L36.524,16.209 C37.901,16.583 39.222,17.134 40.455,17.849 L40.455,17.849 L43.099,15.992 C44.072,15.31 45.395,15.426 46.235,16.267 L46.235,16.267 L48.141,18.174 C48.982,19.013 49.098,20.336 48.416,21.309 L48.416,21.309 L46.559,23.953 C47.274,25.187 47.825,26.508 48.2,27.884 L48.2,27.884 L51.384,28.445 C52.554,28.65 53.407,29.665 53.409,30.852 L53.409,30.852 L53.409,33.555 C53.407,34.743 52.554,35.758 51.384,35.964 L51.384,35.964 L48.249,36.543 C47.874,37.919 47.322,39.24 46.608,40.474 L46.608,40.474 L48.465,43.118 C49.147,44.091 49.03,45.414 48.191,46.254 L48.191,46.254 L46.283,48.16 C45.444,49.001 44.121,49.117 43.149,48.435 L43.149,48.435 L40.475,46.627 C39.241,47.342 37.92,47.894 36.544,48.268 L36.544,48.268 L35.984,51.453 C35.779,52.622 34.763,53.476 33.575,53.477 L33.575,53.477 L30.843,53.477 C29.655,53.476 28.641,52.622 28.436,51.453 L28.436,51.453 L27.875,48.268 C26.499,47.893 25.178,47.341 23.944,46.627 L23.944,46.627 L21.31,48.484 C20.337,49.166 19.015,49.049 18.175,48.209 L18.175,48.209 L16.268,46.302 C15.428,45.463 15.312,44.14 15.993,43.168 L15.993,43.168 L17.851,40.523 C17.136,39.29 16.584,37.968 16.209,36.592 L16.209,36.592 L13.025,36.032 C11.855,35.827 11.001,34.811 11,33.624 L11,33.624 L11,30.892 C11.001,29.704 11.855,28.689 13.025,28.484 L13.025,28.484 L16.209,27.924 C16.584,26.548 17.136,25.226 17.851,23.993 L17.851,23.993 L15.993,21.348 C15.312,20.376 15.428,19.053 16.268,18.214 L16.268,18.214 L18.175,16.306 C19.004,15.454 20.327,15.321 21.31,15.992 L21.31,15.992 L23.954,17.849 C25.188,17.135 26.509,16.584 27.885,16.209 L27.885,16.209 L28.446,13.024 C28.651,11.854 29.665,11.001 30.854,11 L30.854,11 Z M32.2046,17.2383 C28.0912875,17.2383 24.745225,20.4519018 24.745225,24.4017203 L24.745225,26.8315651 L23.180475,26.8315651 C22.088725,26.8315651 21.2046,27.6813505 21.2046,28.7292211 L21.2046,41.340644 C21.2046,42.3891749 22.088725,43.2383 23.180475,43.2383 L41.228725,43.2383 C42.3191,43.2383 43.2046,42.3891749 43.2046,41.340644 L43.2046,28.7292211 C43.2046,27.6813505 42.3191,26.8315651 41.228725,26.8315651 L39.6626,26.8315651 L39.6626,24.4017203 C39.6626,20.4519018 36.317225,17.2383 32.2046,17.2383 Z M32.205274,21.2383 C34.4104972,21.2383 36.2046,22.9000785 36.2046,24.9418881 L36.2046,27.2383 L28.2046,27.2383 L28.2046,24.9418881 C28.2046,22.9000785 29.9993767,21.2383 32.205274,21.2383 Z" id="icon" fill="#F5EA14"></path>
        </g>
        <g id="Enterprise-Infrastru" transform="translate(76.406250, 18.156250)" fill="#FFFFFF" fill-rule="nonzero">
            <polygon id="Path" points="2.4609375 22.8955078 2.4609375 4.54101562 0.0439453125 4.17480469 0.0439453125 2.54882812 15.3076172 2.54882812 15.7177734 7.19238281 13.828125 7.19238281 12.9199219 4.40917969 5.90332031 4.21875 5.90332031 12.4951172 10.6640625 12.4072266 11.1035156 9.97558594 12.9931641 9.97558594 12.9931641 16.9189453 11.1035156 16.9189453 10.6787109 14.3408203 5.90332031 14.2675781 5.90332031 23.0273438 13.9599609 22.7050781 15.6152344 19.0283203 17.4902344 19.5849609 16.6259766 24.84375 0 24.84375 0 23.2470703"></polygon>
            <path d="M21.6210938,22.9980469 L21.6210938,10.7226562 L19.5263672,10.1367188 L19.5263672,8.37890625 L23.8623047,7.79296875 L23.9355469,7.79296875 L24.6240234,8.36425781 L24.6240234,9.55078125 L24.609375,10.2246094 C25.0585938,9.82421875 25.6225586,9.43847656 26.3012695,9.06738281 C26.9799805,8.69628906 27.7075195,8.39355469 28.4838867,8.15917969 C29.2602539,7.92480469 29.9951172,7.80761719 30.6884766,7.80761719 C31.9580078,7.80761719 32.9394531,8.04443359 33.6328125,8.51806641 C34.3261719,8.99169922 34.8095703,9.72167969 35.0830078,10.7080078 C35.3564453,11.6943359 35.4931641,13.0322266 35.4931641,14.7216797 L35.4931641,22.9980469 L37.6025391,23.2470703 L37.6025391,24.84375 L30.2490234,24.84375 L30.2490234,23.2470703 L32.1240234,22.9980469 L32.1240234,14.7070312 C32.1240234,13.5742188 32.0483398,12.6831055 31.8969727,12.0336914 C31.7456055,11.3842773 31.4599609,10.8959961 31.0400391,10.5688477 C30.6201172,10.2416992 30,10.078125 29.1796875,10.078125 C28.4765625,10.078125 27.7441406,10.2294922 26.9824219,10.5322266 C26.2207031,10.8349609 25.5517578,11.2011719 24.9755859,11.6308594 L24.9755859,22.9980469 L26.9970703,23.2470703 L26.9970703,24.84375 L19.7021484,24.84375 L19.7021484,23.2470703 L21.6210938,22.9980469 Z" id="Path"></path>
            <path d="M39.3310547,10.2832031 L39.3310547,8.89160156 C39.6044922,8.82324219 39.9194336,8.72558594 40.2758789,8.59863281 C40.6323242,8.47167969 40.8642578,8.37402344 40.9716797,8.30566406 C41.2939453,8.07128906 41.5576172,7.69042969 41.7626953,7.16308594 C41.9091797,6.83105469 42.1020508,6.30126953 42.3413086,5.57373047 C42.5805664,4.84619141 42.7441406,4.296875 42.8320312,3.92578125 L44.7363281,3.92578125 L44.765625,8.18847656 L49.6875,8.18847656 L49.6875,10.2832031 L44.7802734,10.2832031 L44.7802734,19.1455078 C44.7802734,20.3369141 44.8144531,21.1645508 44.8828125,21.628418 C44.9511719,22.0922852 45.090332,22.3901367 45.300293,22.5219727 C45.5102539,22.6538086 45.8935547,22.7197266 46.4501953,22.7197266 L46.4648438,22.7197266 C46.9726562,22.7197266 47.5463867,22.65625 48.1860352,22.5292969 C48.8256836,22.4023438 49.3212891,22.2705078 49.6728516,22.1337891 L49.6875,22.1337891 L50.1855469,23.5546875 C49.8925781,23.7988281 49.453125,24.0454102 48.8671875,24.2944336 C48.28125,24.543457 47.6513672,24.7509766 46.9775391,24.9169922 C46.3037109,25.0830078 45.6835938,25.1660156 45.1171875,25.1660156 L45.0878906,25.1660156 C43.8769531,25.1660156 42.9638672,24.8999023 42.3486328,24.3676758 C41.7333984,23.8354492 41.4257812,22.9443359 41.4257812,21.6943359 L41.4257812,10.2832031 L39.3310547,10.2832031 Z" id="Path"></path>
            <path d="M51.8115234,16.4794922 C51.8115234,14.7607422 52.1484375,13.2373047 52.8222656,11.9091797 C53.4960938,10.5810547 54.4287109,9.55322266 55.6201172,8.82568359 C56.8115234,8.09814453 58.1640625,7.734375 59.6777344,7.734375 C61.5527344,7.734375 63.0029297,8.24707031 64.0283203,9.27246094 C65.0537109,10.2978516 65.6005859,11.7773438 65.6689453,13.7109375 L65.6689453,14.2382812 C65.6689453,15.2636719 65.6103516,16.0449219 65.4931641,16.5820312 L55.3417969,16.5820312 C55.3808594,18.0175781 55.625,19.2089844 56.0742188,20.15625 C56.5234375,21.1035156 57.1142578,21.8017578 57.8466797,22.2509766 C58.5791016,22.7001953 59.4042969,22.9248047 60.3222656,22.9248047 C61.1230469,22.9248047 61.9458008,22.7856445 62.7905273,22.5073242 C63.6352539,22.2290039 64.296875,21.9091797 64.7753906,21.5478516 L65.390625,22.9541016 C65.0195312,23.3349609 64.5092773,23.6962891 63.8598633,24.0380859 C63.2104492,24.3798828 62.487793,24.6557617 61.6918945,24.8657227 C60.8959961,25.0756836 60.1074219,25.1806641 59.3261719,25.1806641 C57.6855469,25.1806641 56.3012695,24.8168945 55.1733398,24.0893555 C54.0454102,23.3618164 53.203125,22.3461914 52.6464844,21.0424805 C52.0898438,19.7387695 51.8115234,18.2177734 51.8115234,16.4794922 Z M62.1533203,14.8828125 C62.1923828,14.53125 62.2119141,14.1113281 62.2119141,13.6230469 C62.2021484,12.3828125 61.9433594,11.3867188 61.4355469,10.6347656 C60.9277344,9.8828125 60.1269531,9.50683594 59.0332031,9.50683594 C57.9394531,9.50683594 57.0727539,9.91455078 56.4331055,10.7299805 C55.793457,11.5454102 55.4296875,12.9296875 55.3417969,14.8828125 L62.1533203,14.8828125 Z" id="Shape"></path>
            <path d="M70.5175781,23.0273438 L70.5175781,10.7226562 L68.4375,10.1367188 L68.4375,8.37890625 L72.6269531,7.79296875 L72.7001953,7.79296875 L73.4033203,8.36425781 L73.4033203,9.28710938 L73.3740234,11.1914062 L73.4033203,11.1914062 C73.5791016,10.8691406 73.918457,10.4370117 74.4213867,9.89501953 C74.9243164,9.35302734 75.5737305,8.85742188 76.3696289,8.40820312 C77.1655273,7.95898438 78.0322266,7.734375 78.9697266,7.734375 C79.3505859,7.734375 79.6728516,7.78808594 79.9365234,7.89550781 L79.9365234,11.4990234 C79.7509766,11.3916016 79.5043945,11.3012695 79.1967773,11.2280273 C78.8891602,11.1547852 78.5595703,11.1181641 78.2080078,11.1181641 C77.2216797,11.1181641 76.3696289,11.237793 75.6518555,11.4770508 C74.934082,11.7163086 74.3359375,12.0166016 73.8574219,12.3779297 L73.8574219,23.0126953 L77.7099609,23.2763672 L77.7099609,24.84375 L68.2177734,24.84375 L68.2177734,23.2617188 L70.5175781,23.0273438 Z" id="Path"></path>
            <path d="M89.8388672,25.1806641 C89.3994141,25.1806641 88.9160156,25.144043 88.3886719,25.0708008 C87.8613281,24.9975586 87.4169922,24.9121094 87.0556641,24.8144531 L87.1435547,27.3046875 L87.1435547,30.2050781 L90.1464844,30.5273438 L90.1464844,32.109375 L81.6357422,32.109375 L81.6357422,30.5273438 L83.8183594,30.1904297 L83.8183594,10.7226562 L81.7236328,10.1367188 L81.7236328,8.37890625 L86.0449219,7.79296875 L86.1181641,7.79296875 L86.7773438,8.36425781 L86.7773438,10.0341797 C87.3632812,9.38964844 88.0859375,8.84521484 88.9453125,8.40087891 C89.8046875,7.95654297 90.7763672,7.734375 91.8603516,7.734375 C93.0517578,7.734375 94.140625,8.02490234 95.1269531,8.60595703 C96.1132812,9.18701172 96.9042969,10.090332 97.5,11.315918 C98.0957031,12.5415039 98.3935547,14.0771484 98.3935547,15.9228516 C98.3935547,17.6318359 98.0444336,19.1894531 97.3461914,20.5957031 C96.6479492,22.0019531 95.6518555,23.1176758 94.3579102,23.9428711 C93.0639648,24.7680664 91.5576172,25.1806641 89.8388672,25.1806641 Z M87.1435547,22.5878906 C87.2802734,22.8320312 87.6147461,23.046875 88.1469727,23.2324219 C88.6791992,23.4179688 89.2773438,23.5107422 89.9414062,23.5107422 C90.8886719,23.5107422 91.7260742,23.2592773 92.4536133,22.7563477 C93.1811523,22.253418 93.7548828,21.4575195 94.1748047,20.3686523 C94.5947266,19.2797852 94.8046875,17.8955078 94.8046875,16.2158203 C94.8046875,14.7998047 94.6166992,13.6279297 94.2407227,12.7001953 C93.8647461,11.7724609 93.3544922,11.0864258 92.7099609,10.6420898 C92.0654297,10.1977539 91.328125,9.97558594 90.4980469,9.97558594 C89.8046875,9.97558594 89.1601562,10.1171875 88.5644531,10.4003906 C87.96875,10.6835938 87.4951172,11.015625 87.1435547,11.3964844 L87.1435547,22.5878906 Z" id="Shape"></path>
            <path d="M103.286133,23.0273438 L103.286133,10.7226562 L101.206055,10.1367188 L101.206055,8.37890625 L105.395508,7.79296875 L105.46875,7.79296875 L106.171875,8.36425781 L106.171875,9.28710938 L106.142578,11.1914062 L106.171875,11.1914062 C106.347656,10.8691406 106.687012,10.4370117 107.189941,9.89501953 C107.692871,9.35302734 108.342285,8.85742188 109.138184,8.40820312 C109.934082,7.95898438 110.800781,7.734375 111.738281,7.734375 C112.119141,7.734375 112.441406,7.78808594 112.705078,7.89550781 L112.705078,11.4990234 C112.519531,11.3916016 112.272949,11.3012695 111.965332,11.2280273 C111.657715,11.1547852 111.328125,11.1181641 110.976562,11.1181641 C109.990234,11.1181641 109.138184,11.237793 108.42041,11.4770508 C107.702637,11.7163086 107.104492,12.0166016 106.625977,12.3779297 L106.625977,23.0126953 L110.478516,23.2763672 L110.478516,24.84375 L100.986328,24.84375 L100.986328,23.2617188 L103.286133,23.0273438 Z" id="Path"></path>
            <path d="M116.953125,22.9980469 L116.953125,10.7226562 L114.829102,10.1220703 L114.829102,8.39355469 L119.487305,7.79296875 L119.560547,7.79296875 L120.307617,8.36425781 L120.307617,22.9980469 L122.651367,23.2470703 L122.651367,24.84375 L114.580078,24.84375 L114.580078,23.2470703 L116.953125,22.9980469 Z M116.352539,3.03222656 C116.352539,2.36816406 116.54541,1.80664062 116.931152,1.34765625 C117.316895,0.888671875 117.856445,0.659179688 118.549805,0.659179688 L118.564453,0.659179688 C118.974609,0.659179688 119.331055,0.754394531 119.633789,0.944824219 C119.936523,1.13525391 120.168457,1.38671875 120.32959,1.69921875 C120.490723,2.01171875 120.571289,2.34375 120.571289,2.6953125 C120.571289,3.37890625 120.375977,3.94042969 119.985352,4.37988281 C119.594727,4.81933594 119.02832,5.0390625 118.286133,5.0390625 L118.271484,5.0390625 C117.705078,5.0390625 117.243652,4.84863281 116.887207,4.46777344 C116.530762,4.08691406 116.352539,3.60839844 116.352539,3.03222656 Z" id="Shape"></path>
            <path d="M127.280273,20.0830078 L127.866211,22.3095703 C127.983398,22.5146484 128.210449,22.7099609 128.547363,22.8955078 C128.884277,23.0810547 129.282227,23.2324219 129.741211,23.3496094 C130.200195,23.4667969 130.668945,23.5253906 131.147461,23.5253906 C132.250977,23.5253906 133.037109,23.3178711 133.505859,22.902832 C133.974609,22.487793 134.208984,21.9189453 134.208984,21.1962891 C134.208984,20.6884766 134.050293,20.2416992 133.73291,19.855957 C133.415527,19.4702148 132.944336,19.1064453 132.319336,18.7646484 C131.694336,18.4228516 130.844727,18.0371094 129.770508,17.6074219 C128.217773,17.0019531 127.084961,16.2866211 126.37207,15.4614258 C125.65918,14.6362305 125.302734,13.5693359 125.302734,12.2607422 C125.302734,11.3818359 125.568848,10.6079102 126.101074,9.93896484 C126.633301,9.27001953 127.363281,8.75 128.291016,8.37890625 C129.21875,8.0078125 130.263672,7.82226562 131.425781,7.82226562 C132.324219,7.82226562 133.115234,7.89306641 133.798828,8.03466797 C134.482422,8.17626953 135.170898,8.359375 135.864258,8.58398438 L136.391602,8.74511719 L136.391602,12.4511719 L134.516602,12.4511719 L133.886719,10.4003906 C133.769531,10.1464844 133.45459,9.92675781 132.941895,9.74121094 C132.429199,9.55566406 131.855469,9.46289062 131.220703,9.46289062 C130.322266,9.46289062 129.628906,9.65332031 129.140625,10.0341797 C128.652344,10.4150391 128.408203,10.9130859 128.408203,11.5283203 C128.408203,12.0751953 128.552246,12.5341797 128.840332,12.9052734 C129.128418,13.2763672 129.487305,13.5791016 129.916992,13.8134766 C130.34668,14.0478516 130.947266,14.3261719 131.71875,14.6484375 L132.290039,14.8974609 C133.40332,15.3759766 134.306641,15.8251953 135,16.2451172 C135.693359,16.6650391 136.269531,17.2021484 136.728516,17.8564453 C137.1875,18.5107422 137.416992,19.3115234 137.416992,20.2587891 C137.416992,21.2353516 137.160645,22.0947266 136.647949,22.8369141 C136.135254,23.5791016 135.393066,24.1552734 134.421387,24.5654297 C133.449707,24.9755859 132.299805,25.1806641 130.97168,25.1806641 C129.975586,25.1806641 128.930664,25.0439453 127.836914,24.7705078 C126.743164,24.4970703 125.869141,24.2138672 125.214844,23.9208984 L125.214844,20.0830078 L127.280273,20.0830078 Z" id="Path"></path>
            <path d="M139.995117,16.4794922 C139.995117,14.7607422 140.332031,13.2373047 141.005859,11.9091797 C141.679688,10.5810547 142.612305,9.55322266 143.803711,8.82568359 C144.995117,8.09814453 146.347656,7.734375 147.861328,7.734375 C149.736328,7.734375 151.186523,8.24707031 152.211914,9.27246094 C153.237305,10.2978516 153.78418,11.7773438 153.852539,13.7109375 L153.852539,14.2382812 C153.852539,15.2636719 153.793945,16.0449219 153.676758,16.5820312 L143.525391,16.5820312 C143.564453,18.0175781 143.808594,19.2089844 144.257812,20.15625 C144.707031,21.1035156 145.297852,21.8017578 146.030273,22.2509766 C146.762695,22.7001953 147.587891,22.9248047 148.505859,22.9248047 C149.306641,22.9248047 150.129395,22.7856445 150.974121,22.5073242 C151.818848,22.2290039 152.480469,21.9091797 152.958984,21.5478516 L153.574219,22.9541016 C153.203125,23.3349609 152.692871,23.6962891 152.043457,24.0380859 C151.394043,24.3798828 150.671387,24.6557617 149.875488,24.8657227 C149.07959,25.0756836 148.291016,25.1806641 147.509766,25.1806641 C145.869141,25.1806641 144.484863,24.8168945 143.356934,24.0893555 C142.229004,23.3618164 141.386719,22.3461914 140.830078,21.0424805 C140.273438,19.7387695 139.995117,18.2177734 139.995117,16.4794922 Z M150.336914,14.8828125 C150.375977,14.53125 150.395508,14.1113281 150.395508,13.6230469 C150.385742,12.3828125 150.126953,11.3867188 149.619141,10.6347656 C149.111328,9.8828125 148.310547,9.50683594 147.216797,9.50683594 C146.123047,9.50683594 145.256348,9.91455078 144.616699,10.7299805 C143.977051,11.5454102 143.613281,12.9296875 143.525391,14.8828125 L150.336914,14.8828125 Z" id="Shape"></path>
            <polygon id="Path" points="168.383789 22.8955078 168.383789 4.55566406 165.703125 4.17480469 165.703125 2.54882812 174.521484 2.54882812 174.521484 4.17480469 171.84082 4.54101562 171.84082 22.8955078 174.56543 23.2910156 174.56543 24.84375 165.703125 24.84375 165.703125 23.2470703"></polygon>
            <path d="M179.589844,22.9980469 L179.589844,10.7226562 L177.495117,10.1367188 L177.495117,8.37890625 L181.831055,7.79296875 L181.904297,7.79296875 L182.592773,8.36425781 L182.592773,9.55078125 L182.578125,10.2246094 C183.027344,9.82421875 183.591309,9.43847656 184.27002,9.06738281 C184.94873,8.69628906 185.67627,8.39355469 186.452637,8.15917969 C187.229004,7.92480469 187.963867,7.80761719 188.657227,7.80761719 C189.926758,7.80761719 190.908203,8.04443359 191.601562,8.51806641 C192.294922,8.99169922 192.77832,9.72167969 193.051758,10.7080078 C193.325195,11.6943359 193.461914,13.0322266 193.461914,14.7216797 L193.461914,22.9980469 L195.571289,23.2470703 L195.571289,24.84375 L188.217773,24.84375 L188.217773,23.2470703 L190.092773,22.9980469 L190.092773,14.7070312 C190.092773,13.5742188 190.01709,12.6831055 189.865723,12.0336914 C189.714355,11.3842773 189.428711,10.8959961 189.008789,10.5688477 C188.588867,10.2416992 187.96875,10.078125 187.148438,10.078125 C186.445312,10.078125 185.712891,10.2294922 184.951172,10.5322266 C184.189453,10.8349609 183.520508,11.2011719 182.944336,11.6308594 L182.944336,22.9980469 L184.96582,23.2470703 L184.96582,24.84375 L177.670898,24.84375 L177.670898,23.2470703 L179.589844,22.9980469 Z" id="Path"></path>
            <path d="M200.097656,22.9833984 L200.097656,10.3271484 L197.299805,10.3271484 L197.299805,8.87695312 L200.097656,8.21777344 L200.097656,6.82617188 C200.097656,5.5859375 200.43457,4.44335938 201.108398,3.3984375 C201.782227,2.35351562 202.658691,1.52587891 203.737793,0.915527344 C204.816895,0.305175781 205.932617,0 207.084961,0 C207.514648,0 207.854004,0.0219726562 208.103027,0.0659179688 C208.352051,0.109863281 208.598633,0.166015625 208.842773,0.234375 L208.842773,3.515625 C208.637695,3.33984375 208.271484,3.16894531 207.744141,3.00292969 C207.216797,2.83691406 206.635742,2.75390625 206.000977,2.75390625 C205.34668,2.75390625 204.836426,2.83691406 204.470215,3.00292969 C204.104004,3.16894531 203.840332,3.46191406 203.679199,3.88183594 C203.518066,4.30175781 203.4375,4.90234375 203.4375,5.68359375 L203.452148,8.21777344 L207.480469,8.21777344 L207.480469,10.3271484 L203.452148,10.3271484 L203.452148,22.9980469 L206.630859,23.2617188 L206.630859,24.84375 L197.62207,24.84375 L197.62207,23.2617188 L200.097656,22.9833984 Z" id="Path"></path>
            <path d="M212.109375,23.0273438 L212.109375,10.7226562 L210.029297,10.1367188 L210.029297,8.37890625 L214.21875,7.79296875 L214.291992,7.79296875 L214.995117,8.36425781 L214.995117,9.28710938 L214.96582,11.1914062 L214.995117,11.1914062 C215.170898,10.8691406 215.510254,10.4370117 216.013184,9.89501953 C216.516113,9.35302734 217.165527,8.85742188 217.961426,8.40820312 C218.757324,7.95898438 219.624023,7.734375 220.561523,7.734375 C220.942383,7.734375 221.264648,7.78808594 221.52832,7.89550781 L221.52832,11.4990234 C221.342773,11.3916016 221.096191,11.3012695 220.788574,11.2280273 C220.480957,11.1547852 220.151367,11.1181641 219.799805,11.1181641 C218.813477,11.1181641 217.961426,11.237793 217.243652,11.4770508 C216.525879,11.7163086 215.927734,12.0166016 215.449219,12.3779297 L215.449219,23.0126953 L219.301758,23.2763672 L219.301758,24.84375 L209.80957,24.84375 L209.80957,23.2617188 L212.109375,23.0273438 Z" id="Path"></path>
            <path d="M233.320312,13.9599609 C233.320312,13.0419922 233.225098,12.3193359 233.034668,11.7919922 C232.844238,11.2646484 232.514648,10.8789062 232.045898,10.6347656 C231.577148,10.390625 230.913086,10.2685547 230.053711,10.2685547 C228.40332,10.2685547 226.665039,10.7324219 224.838867,11.6601562 L224.824219,11.6601562 L224.091797,10.1367188 C224.355469,9.90234375 224.86084,9.59960938 225.60791,9.22851562 C226.35498,8.85742188 227.20459,8.53271484 228.156738,8.25439453 C229.108887,7.97607422 230.014648,7.83691406 230.874023,7.83691406 C232.299805,7.83691406 233.42041,8.02978516 234.23584,8.41552734 C235.05127,8.80126953 235.639648,9.41894531 236.000977,10.2685547 C236.362305,11.1181641 236.542969,12.265625 236.542969,13.7109375 L236.542969,23.2324219 L238.330078,23.2324219 L238.330078,24.6679688 C236.904297,25.0097656 235.830078,25.1806641 235.107422,25.1806641 C234.697266,25.1806641 234.384766,25.1464844 234.169922,25.078125 C233.955078,25.0097656 233.796387,24.8706055 233.693848,24.6606445 C233.591309,24.4506836 233.540039,24.1259766 233.540039,23.6865234 L233.540039,22.9833984 C233.012695,23.5009766 232.319336,23.996582 231.459961,24.4702148 C230.600586,24.9438477 229.638672,25.1806641 228.574219,25.1806641 C227.636719,25.1806641 226.784668,25.0097656 226.018066,24.6679688 C225.251465,24.3261719 224.641113,23.7988281 224.187012,23.0859375 C223.73291,22.3730469 223.505859,21.484375 223.505859,20.4199219 C223.505859,19.1210938 223.95752,18.0517578 224.86084,17.2119141 C225.76416,16.3720703 226.950684,15.7543945 228.42041,15.3588867 C229.890137,14.9633789 231.523438,14.7509766 233.320312,14.7216797 L233.320312,13.9599609 Z M233.320312,16.3769531 C231.884766,16.3769531 230.705566,16.5405273 229.782715,16.8676758 C228.859863,17.1948242 228.190918,17.6269531 227.775879,18.1640625 C227.36084,18.7011719 227.15332,19.3115234 227.15332,19.9951172 C227.15332,21.0205078 227.407227,21.7724609 227.915039,22.2509766 C228.422852,22.7294922 229.106445,22.96875 229.96582,22.96875 C230.424805,22.96875 230.979004,22.8393555 231.628418,22.5805664 C232.277832,22.3217773 232.841797,22.0068359 233.320312,21.6357422 L233.320312,16.3769531 Z" id="Shape"></path>
            <path d="M242.885742,20.0830078 L243.47168,22.3095703 C243.588867,22.5146484 243.815918,22.7099609 244.152832,22.8955078 C244.489746,23.0810547 244.887695,23.2324219 245.34668,23.3496094 C245.805664,23.4667969 246.274414,23.5253906 246.75293,23.5253906 C247.856445,23.5253906 248.642578,23.3178711 249.111328,22.902832 C249.580078,22.487793 249.814453,21.9189453 249.814453,21.1962891 C249.814453,20.6884766 249.655762,20.2416992 249.338379,19.855957 C249.020996,19.4702148 248.549805,19.1064453 247.924805,18.7646484 C247.299805,18.4228516 246.450195,18.0371094 245.375977,17.6074219 C243.823242,17.0019531 242.69043,16.2866211 241.977539,15.4614258 C241.264648,14.6362305 240.908203,13.5693359 240.908203,12.2607422 C240.908203,11.3818359 241.174316,10.6079102 241.706543,9.93896484 C242.23877,9.27001953 242.96875,8.75 243.896484,8.37890625 C244.824219,8.0078125 245.869141,7.82226562 247.03125,7.82226562 C247.929688,7.82226562 248.720703,7.89306641 249.404297,8.03466797 C250.087891,8.17626953 250.776367,8.359375 251.469727,8.58398438 L251.99707,8.74511719 L251.99707,12.4511719 L250.12207,12.4511719 L249.492188,10.4003906 C249.375,10.1464844 249.060059,9.92675781 248.547363,9.74121094 C248.034668,9.55566406 247.460938,9.46289062 246.826172,9.46289062 C245.927734,9.46289062 245.234375,9.65332031 244.746094,10.0341797 C244.257812,10.4150391 244.013672,10.9130859 244.013672,11.5283203 C244.013672,12.0751953 244.157715,12.5341797 244.445801,12.9052734 C244.733887,13.2763672 245.092773,13.5791016 245.522461,13.8134766 C245.952148,14.0478516 246.552734,14.3261719 247.324219,14.6484375 L247.895508,14.8974609 C249.008789,15.3759766 249.912109,15.8251953 250.605469,16.2451172 C251.298828,16.6650391 251.875,17.2021484 252.333984,17.8564453 C252.792969,18.5107422 253.022461,19.3115234 253.022461,20.2587891 C253.022461,21.2353516 252.766113,22.0947266 252.253418,22.8369141 C251.740723,23.5791016 250.998535,24.1552734 250.026855,24.5654297 C249.055176,24.9755859 247.905273,25.1806641 246.577148,25.1806641 C245.581055,25.1806641 244.536133,25.0439453 243.442383,24.7705078 C242.348633,24.4970703 241.474609,24.2138672 240.820312,23.9208984 L240.820312,20.0830078 L242.885742,20.0830078 Z" id="Path"></path>
            <path d="M255.336914,10.2832031 L255.336914,8.89160156 C255.610352,8.82324219 255.925293,8.72558594 256.281738,8.59863281 C256.638184,8.47167969 256.870117,8.37402344 256.977539,8.30566406 C257.299805,8.07128906 257.563477,7.69042969 257.768555,7.16308594 C257.915039,6.83105469 258.10791,6.30126953 258.347168,5.57373047 C258.586426,4.84619141 258.75,4.296875 258.837891,3.92578125 L260.742188,3.92578125 L260.771484,8.18847656 L265.693359,8.18847656 L265.693359,10.2832031 L260.786133,10.2832031 L260.786133,19.1455078 C260.786133,20.3369141 260.820312,21.1645508 260.888672,21.628418 C260.957031,22.0922852 261.096191,22.3901367 261.306152,22.5219727 C261.516113,22.6538086 261.899414,22.7197266 262.456055,22.7197266 L262.470703,22.7197266 C262.978516,22.7197266 263.552246,22.65625 264.191895,22.5292969 C264.831543,22.4023438 265.327148,22.2705078 265.678711,22.1337891 L265.693359,22.1337891 L266.191406,23.5546875 C265.898438,23.7988281 265.458984,24.0454102 264.873047,24.2944336 C264.287109,24.543457 263.657227,24.7509766 262.983398,24.9169922 C262.30957,25.0830078 261.689453,25.1660156 261.123047,25.1660156 L261.09375,25.1660156 C259.882812,25.1660156 258.969727,24.8999023 258.354492,24.3676758 C257.739258,23.8354492 257.431641,22.9443359 257.431641,21.6943359 L257.431641,10.2832031 L255.336914,10.2832031 Z" id="Path"></path>
            <path d="M270.234375,23.0273438 L270.234375,10.7226562 L268.154297,10.1367188 L268.154297,8.37890625 L272.34375,7.79296875 L272.416992,7.79296875 L273.120117,8.36425781 L273.120117,9.28710938 L273.09082,11.1914062 L273.120117,11.1914062 C273.295898,10.8691406 273.635254,10.4370117 274.138184,9.89501953 C274.641113,9.35302734 275.290527,8.85742188 276.086426,8.40820312 C276.882324,7.95898438 277.749023,7.734375 278.686523,7.734375 C279.067383,7.734375 279.389648,7.78808594 279.65332,7.89550781 L279.65332,11.4990234 C279.467773,11.3916016 279.221191,11.3012695 278.913574,11.2280273 C278.605957,11.1547852 278.276367,11.1181641 277.924805,11.1181641 C276.938477,11.1181641 276.086426,11.237793 275.368652,11.4770508 C274.650879,11.7163086 274.052734,12.0166016 273.574219,12.3779297 L273.574219,23.0126953 L277.426758,23.2763672 L277.426758,24.84375 L267.93457,24.84375 L267.93457,23.2617188 L270.234375,23.0273438 Z" id="Path"></path>
            <path d="M293.686523,22.8515625 C293.061523,23.4570312 292.270508,23.996582 291.313477,24.4702148 C290.356445,24.9438477 289.389648,25.1806641 288.413086,25.1806641 C287.192383,25.1806641 286.201172,24.9633789 285.439453,24.5288086 C284.677734,24.0942383 284.116211,23.4033203 283.754883,22.4560547 C283.393555,21.5087891 283.212891,20.2587891 283.212891,18.7060547 L283.212891,10.2099609 L281.586914,9.66796875 L281.586914,8.24707031 L285.922852,7.80761719 L285.9375,7.80761719 L286.552734,8.203125 L286.552734,18.5449219 C286.552734,19.6582031 286.635742,20.5273438 286.801758,21.1523438 C286.967773,21.7773438 287.260742,22.2338867 287.680664,22.5219727 C288.100586,22.8100586 288.706055,22.9541016 289.49707,22.9541016 C290.258789,22.9541016 290.966797,22.8076172 291.621094,22.5146484 C292.275391,22.2216797 292.841797,21.8847656 293.320312,21.5039062 L293.320312,10.2246094 L291.225586,9.65332031 L291.225586,8.23242188 L295.854492,7.80761719 L295.883789,7.80761719 L296.660156,8.203125 L296.660156,23.1884766 L298.417969,23.1884766 L298.417969,24.6533203 C297.851562,24.8193359 297.36084,24.9487305 296.945801,25.0415039 C296.530762,25.1342773 296.054688,25.1806641 295.517578,25.1806641 C294.892578,25.1806641 294.431152,25.0610352 294.133301,24.8217773 C293.835449,24.5825195 293.686523,24.1796875 293.686523,23.6132812 L293.686523,22.8515625 Z" id="Path"></path>
            <path d="M309.09668,7.734375 C310.50293,7.734375 312.006836,8.03710938 313.608398,8.64257812 L313.461914,13.1542969 L311.425781,13.1542969 L310.751953,10.4150391 C310.615234,10.0927734 310.344238,9.85351562 309.938965,9.69726562 C309.533691,9.54101562 309.047852,9.46289062 308.481445,9.46289062 C307.62207,9.46289062 306.875,9.69970703 306.240234,10.1733398 C305.605469,10.6469727 305.112305,11.3549805 304.760742,12.2973633 C304.40918,13.2397461 304.233398,14.4042969 304.233398,15.7910156 C304.233398,17.4023438 304.443359,18.7402344 304.863281,19.8046875 C305.283203,20.8691406 305.854492,21.6552734 306.577148,22.1630859 C307.299805,22.6708984 308.115234,22.9248047 309.023438,22.9248047 C309.873047,22.9248047 310.656738,22.800293 311.374512,22.5512695 C312.092285,22.3022461 312.705078,21.9970703 313.212891,21.6357422 L313.842773,22.9833984 C313.491211,23.3447266 313.022461,23.6938477 312.436523,24.0307617 C311.850586,24.3676758 311.193848,24.6435547 310.466309,24.8583984 C309.73877,25.0732422 309.008789,25.1806641 308.276367,25.1806641 C306.625977,25.1806641 305.229492,24.8144531 304.086914,24.0820312 C302.944336,23.3496094 302.087402,22.3461914 301.516113,21.0717773 C300.944824,19.7973633 300.65918,18.3496094 300.65918,16.7285156 C300.65918,15.0585938 300.981445,13.5424805 301.625977,12.1801758 C302.270508,10.8178711 303.227539,9.73632812 304.49707,8.93554688 C305.766602,8.13476562 307.299805,7.734375 309.09668,7.734375 Z" id="Path"></path>
            <path d="M315.849609,10.2832031 L315.849609,8.89160156 C316.123047,8.82324219 316.437988,8.72558594 316.794434,8.59863281 C317.150879,8.47167969 317.382812,8.37402344 317.490234,8.30566406 C317.8125,8.07128906 318.076172,7.69042969 318.28125,7.16308594 C318.427734,6.83105469 318.620605,6.30126953 318.859863,5.57373047 C319.099121,4.84619141 319.262695,4.296875 319.350586,3.92578125 L321.254883,3.92578125 L321.28418,8.18847656 L326.206055,8.18847656 L326.206055,10.2832031 L321.298828,10.2832031 L321.298828,19.1455078 C321.298828,20.3369141 321.333008,21.1645508 321.401367,21.628418 C321.469727,22.0922852 321.608887,22.3901367 321.818848,22.5219727 C322.028809,22.6538086 322.412109,22.7197266 322.96875,22.7197266 L322.983398,22.7197266 C323.491211,22.7197266 324.064941,22.65625 324.70459,22.5292969 C325.344238,22.4023438 325.839844,22.2705078 326.191406,22.1337891 L326.206055,22.1337891 L326.704102,23.5546875 C326.411133,23.7988281 325.97168,24.0454102 325.385742,24.2944336 C324.799805,24.543457 324.169922,24.7509766 323.496094,24.9169922 C322.822266,25.0830078 322.202148,25.1660156 321.635742,25.1660156 L321.606445,25.1660156 C320.395508,25.1660156 319.482422,24.8999023 318.867188,24.3676758 C318.251953,23.8354492 317.944336,22.9443359 317.944336,21.6943359 L317.944336,10.2832031 L315.849609,10.2832031 Z" id="Path"></path>
            <path d="M340.385742,22.8515625 C339.760742,23.4570312 338.969727,23.996582 338.012695,24.4702148 C337.055664,24.9438477 336.088867,25.1806641 335.112305,25.1806641 C333.891602,25.1806641 332.900391,24.9633789 332.138672,24.5288086 C331.376953,24.0942383 330.81543,23.4033203 330.454102,22.4560547 C330.092773,21.5087891 329.912109,20.2587891 329.912109,18.7060547 L329.912109,10.2099609 L328.286133,9.66796875 L328.286133,8.24707031 L332.62207,7.80761719 L332.636719,7.80761719 L333.251953,8.203125 L333.251953,18.5449219 C333.251953,19.6582031 333.334961,20.5273438 333.500977,21.1523438 C333.666992,21.7773438 333.959961,22.2338867 334.379883,22.5219727 C334.799805,22.8100586 335.405273,22.9541016 336.196289,22.9541016 C336.958008,22.9541016 337.666016,22.8076172 338.320312,22.5146484 C338.974609,22.2216797 339.541016,21.8847656 340.019531,21.5039062 L340.019531,10.2246094 L337.924805,9.65332031 L337.924805,8.23242188 L342.553711,7.80761719 L342.583008,7.80761719 L343.359375,8.203125 L343.359375,23.1884766 L345.117188,23.1884766 L345.117188,24.6533203 C344.550781,24.8193359 344.060059,24.9487305 343.64502,25.0415039 C343.22998,25.1342773 342.753906,25.1806641 342.216797,25.1806641 C341.591797,25.1806641 341.130371,25.0610352 340.83252,24.8217773 C340.534668,24.5825195 340.385742,24.1796875 340.385742,23.6132812 L340.385742,22.8515625 Z" id="Path"></path>
            <path d="M349.892578,23.0273438 L349.892578,10.7226562 L347.8125,10.1367188 L347.8125,8.37890625 L352.001953,7.79296875 L352.075195,7.79296875 L352.77832,8.36425781 L352.77832,9.28710938 L352.749023,11.1914062 L352.77832,11.1914062 C352.954102,10.8691406 353.293457,10.4370117 353.796387,9.89501953 C354.299316,9.35302734 354.94873,8.85742188 355.744629,8.40820312 C356.540527,7.95898438 357.407227,7.734375 358.344727,7.734375 C358.725586,7.734375 359.047852,7.78808594 359.311523,7.89550781 L359.311523,11.4990234 C359.125977,11.3916016 358.879395,11.3012695 358.571777,11.2280273 C358.26416,11.1547852 357.93457,11.1181641 357.583008,11.1181641 C356.59668,11.1181641 355.744629,11.237793 355.026855,11.4770508 C354.309082,11.7163086 353.710938,12.0166016 353.232422,12.3779297 L353.232422,23.0126953 L357.084961,23.2763672 L357.084961,24.84375 L347.592773,24.84375 L347.592773,23.2617188 L349.892578,23.0273438 Z" id="Path"></path>
            <path d="M361.289062,16.4794922 C361.289062,14.7607422 361.625977,13.2373047 362.299805,11.9091797 C362.973633,10.5810547 363.90625,9.55322266 365.097656,8.82568359 C366.289062,8.09814453 367.641602,7.734375 369.155273,7.734375 C371.030273,7.734375 372.480469,8.24707031 373.505859,9.27246094 C374.53125,10.2978516 375.078125,11.7773438 375.146484,13.7109375 L375.146484,14.2382812 C375.146484,15.2636719 375.087891,16.0449219 374.970703,16.5820312 L364.819336,16.5820312 C364.858398,18.0175781 365.102539,19.2089844 365.551758,20.15625 C366.000977,21.1035156 366.591797,21.8017578 367.324219,22.2509766 C368.056641,22.7001953 368.881836,22.9248047 369.799805,22.9248047 C370.600586,22.9248047 371.42334,22.7856445 372.268066,22.5073242 C373.112793,22.2290039 373.774414,21.9091797 374.25293,21.5478516 L374.868164,22.9541016 C374.49707,23.3349609 373.986816,23.6962891 373.337402,24.0380859 C372.687988,24.3798828 371.965332,24.6557617 371.169434,24.8657227 C370.373535,25.0756836 369.584961,25.1806641 368.803711,25.1806641 C367.163086,25.1806641 365.778809,24.8168945 364.650879,24.0893555 C363.522949,23.3618164 362.680664,22.3461914 362.124023,21.0424805 C361.567383,19.7387695 361.289062,18.2177734 361.289062,16.4794922 Z M371.630859,14.8828125 C371.669922,14.53125 371.689453,14.1113281 371.689453,13.6230469 C371.679688,12.3828125 371.420898,11.3867188 370.913086,10.6347656 C370.405273,9.8828125 369.604492,9.50683594 368.510742,9.50683594 C367.416992,9.50683594 366.550293,9.91455078 365.910645,10.7299805 C365.270996,11.5454102 364.907227,12.9296875 364.819336,14.8828125 L371.630859,14.8828125 Z" id="Shape"></path>
            <path d="M386.323242,13.6816406 C386.323242,11.3769531 386.799316,9.36523438 387.751465,7.64648438 C388.703613,5.92773438 390.004883,4.609375 391.655273,3.69140625 C393.305664,2.7734375 395.151367,2.31445312 397.192383,2.31445312 C398.129883,2.31445312 399.035645,2.3828125 399.909668,2.51953125 C400.783691,2.65625 401.772461,2.83691406 402.875977,3.06152344 L403.666992,3.22265625 L403.388672,8.70117188 L401.206055,8.70117188 L400.385742,4.96582031 C400.180664,4.69238281 399.765625,4.47509766 399.140625,4.31396484 C398.515625,4.15283203 397.695312,4.07226562 396.679688,4.07226562 C395.429688,4.07226562 394.32373,4.42871094 393.361816,5.14160156 C392.399902,5.85449219 391.647949,6.90673828 391.105957,8.29833984 C390.563965,9.68994141 390.292969,11.3671875 390.292969,13.3300781 C390.292969,15.1464844 390.534668,16.8188477 391.018066,18.347168 C391.501465,19.8754883 392.248535,21.105957 393.259277,22.0385742 C394.27002,22.9711914 395.532227,23.4375 397.045898,23.4375 C398.618164,23.4375 399.746094,23.0761719 400.429688,22.3535156 L401.704102,19.2626953 L403.78418,19.5410156 L403.139648,24.0234375 C402.875977,24.0429688 402.62207,24.0844727 402.37793,24.1479492 C402.133789,24.2114258 401.816406,24.3115234 401.425781,24.4482422 C400.761719,24.6826172 400.126953,24.8632812 399.521484,24.9902344 C398.916016,25.1171875 398.168945,25.1806641 397.280273,25.1806641 C394.956055,25.1806641 392.973633,24.7241211 391.333008,23.8110352 C389.692383,22.8979492 388.447266,21.5820312 387.597656,19.8632812 C386.748047,18.1445312 386.323242,16.0839844 386.323242,13.6816406 Z" id="Path"></path>
            <path d="M407.050781,29.3261719 C407.167969,29.3945312 407.407227,29.4555664 407.768555,29.5092773 C408.129883,29.5629883 408.47168,29.5898438 408.793945,29.5898438 C409.379883,29.5898438 409.919434,29.4702148 410.412598,29.230957 C410.905762,28.9916992 411.40625,28.5253906 411.914062,27.8320312 C412.421875,27.1386719 412.915039,26.1425781 413.393555,24.84375 L411.738281,24.84375 L406.259766,10.1220703 L404.868164,9.74121094 L404.868164,8.18847656 L412.324219,8.18847656 L412.324219,9.74121094 L410.024414,10.1220703 L412.851562,18.9697266 L414.155273,23.2177734 L415.327148,18.9550781 L417.978516,10.1074219 L416.015625,9.74121094 L416.015625,8.18847656 L422.167969,8.18847656 L422.167969,9.74121094 L420.673828,10.1074219 C419.267578,14.4824219 418.122559,17.9760742 417.23877,20.5883789 C416.35498,23.2006836 415.791016,24.7851562 415.546875,25.3417969 C414.882812,27.0214844 414.255371,28.3496094 413.664551,29.3261719 C413.07373,30.3027344 412.390137,31.0449219 411.61377,31.5527344 C410.837402,32.0605469 409.887695,32.3144531 408.764648,32.3144531 C408.461914,32.3144531 408.134766,32.2924805 407.783203,32.2485352 C407.431641,32.2045898 407.1875,32.1533203 407.050781,32.0947266 L407.050781,29.3261719 Z" id="Path"></path>
            <path d="M422.124023,2.25585938 L422.124023,0.87890625 L427.060547,0.249023438 L427.133789,0.249023438 L427.866211,0.747070312 L427.866211,9.69726562 C428.442383,9.13085938 429.130859,8.66210938 429.931641,8.29101562 C430.732422,7.91992188 431.621094,7.734375 432.597656,7.734375 C433.789062,7.734375 434.87793,8.02246094 435.864258,8.59863281 C436.850586,9.17480469 437.641602,10.0756836 438.237305,11.3012695 C438.833008,12.5268555 439.130859,14.0673828 439.130859,15.9228516 C439.130859,17.6416016 438.779297,19.206543 438.076172,20.6176758 C437.373047,22.0288086 436.364746,23.1420898 435.05127,23.9575195 C433.737793,24.7729492 432.207031,25.1806641 430.458984,25.1806641 C429.511719,25.1806641 428.61084,25.1147461 427.756348,24.9829102 C426.901855,24.8510742 426.186523,24.6923828 425.610352,24.5068359 C425.03418,24.3212891 424.677734,24.1601562 424.541016,24.0234375 L424.541016,2.54882812 L422.124023,2.25585938 Z M427.866211,22.5439453 C427.993164,22.8369141 428.320312,23.0688477 428.847656,23.2397461 C429.375,23.4106445 429.985352,23.4960938 430.678711,23.4960938 C431.635742,23.4960938 432.478027,23.2275391 433.205566,22.6904297 C433.933105,22.1533203 434.501953,21.3452148 434.912109,20.2661133 C435.322266,19.1870117 435.527344,17.8564453 435.527344,16.2744141 C435.527344,14.8681641 435.344238,13.6962891 434.978027,12.7587891 C434.611816,11.8212891 434.106445,11.1279297 433.461914,10.6787109 C432.817383,10.2294922 432.080078,10.0048828 431.25,10.0048828 C430.546875,10.0048828 429.897461,10.1635742 429.301758,10.480957 C428.706055,10.7983398 428.227539,11.1572266 427.866211,11.5576172 L427.866211,22.5439453 Z" id="Shape"></path>
            <path d="M441.621094,16.4794922 C441.621094,14.7607422 441.958008,13.2373047 442.631836,11.9091797 C443.305664,10.5810547 444.238281,9.55322266 445.429688,8.82568359 C446.621094,8.09814453 447.973633,7.734375 449.487305,7.734375 C451.362305,7.734375 452.8125,8.24707031 453.837891,9.27246094 C454.863281,10.2978516 455.410156,11.7773438 455.478516,13.7109375 L455.478516,14.2382812 C455.478516,15.2636719 455.419922,16.0449219 455.302734,16.5820312 L445.151367,16.5820312 C445.19043,18.0175781 445.43457,19.2089844 445.883789,20.15625 C446.333008,21.1035156 446.923828,21.8017578 447.65625,22.2509766 C448.388672,22.7001953 449.213867,22.9248047 450.131836,22.9248047 C450.932617,22.9248047 451.755371,22.7856445 452.600098,22.5073242 C453.444824,22.2290039 454.106445,21.9091797 454.584961,21.5478516 L455.200195,22.9541016 C454.829102,23.3349609 454.318848,23.6962891 453.669434,24.0380859 C453.02002,24.3798828 452.297363,24.6557617 451.501465,24.8657227 C450.705566,25.0756836 449.916992,25.1806641 449.135742,25.1806641 C447.495117,25.1806641 446.11084,24.8168945 444.98291,24.0893555 C443.85498,23.3618164 443.012695,22.3461914 442.456055,21.0424805 C441.899414,19.7387695 441.621094,18.2177734 441.621094,16.4794922 Z M451.962891,14.8828125 C452.001953,14.53125 452.021484,14.1113281 452.021484,13.6230469 C452.011719,12.3828125 451.75293,11.3867188 451.245117,10.6347656 C450.737305,9.8828125 449.936523,9.50683594 448.842773,9.50683594 C447.749023,9.50683594 446.882324,9.91455078 446.242676,10.7299805 C445.603027,11.5454102 445.239258,12.9296875 445.151367,14.8828125 L451.962891,14.8828125 Z" id="Shape"></path>
            <path d="M460.327148,23.0273438 L460.327148,10.7226562 L458.24707,10.1367188 L458.24707,8.37890625 L462.436523,7.79296875 L462.509766,7.79296875 L463.212891,8.36425781 L463.212891,9.28710938 L463.183594,11.1914062 L463.212891,11.1914062 C463.388672,10.8691406 463.728027,10.4370117 464.230957,9.89501953 C464.733887,9.35302734 465.383301,8.85742188 466.179199,8.40820312 C466.975098,7.95898438 467.841797,7.734375 468.779297,7.734375 C469.160156,7.734375 469.482422,7.78808594 469.746094,7.89550781 L469.746094,11.4990234 C469.560547,11.3916016 469.313965,11.3012695 469.006348,11.2280273 C468.69873,11.1547852 468.369141,11.1181641 468.017578,11.1181641 C467.03125,11.1181641 466.179199,11.237793 465.461426,11.4770508 C464.743652,11.7163086 464.145508,12.0166016 463.666992,12.3779297 L463.666992,23.0126953 L467.519531,23.2763672 L467.519531,24.84375 L458.027344,24.84375 L458.027344,23.2617188 L460.327148,23.0273438 Z" id="Path"></path>
            <path d="M474.287109,20.0830078 L474.873047,22.3095703 C474.990234,22.5146484 475.217285,22.7099609 475.554199,22.8955078 C475.891113,23.0810547 476.289062,23.2324219 476.748047,23.3496094 C477.207031,23.4667969 477.675781,23.5253906 478.154297,23.5253906 C479.257812,23.5253906 480.043945,23.3178711 480.512695,22.902832 C480.981445,22.487793 481.21582,21.9189453 481.21582,21.1962891 C481.21582,20.6884766 481.057129,20.2416992 480.739746,19.855957 C480.422363,19.4702148 479.951172,19.1064453 479.326172,18.7646484 C478.701172,18.4228516 477.851562,18.0371094 476.777344,17.6074219 C475.224609,17.0019531 474.091797,16.2866211 473.378906,15.4614258 C472.666016,14.6362305 472.30957,13.5693359 472.30957,12.2607422 C472.30957,11.3818359 472.575684,10.6079102 473.10791,9.93896484 C473.640137,9.27001953 474.370117,8.75 475.297852,8.37890625 C476.225586,8.0078125 477.270508,7.82226562 478.432617,7.82226562 C479.331055,7.82226562 480.12207,7.89306641 480.805664,8.03466797 C481.489258,8.17626953 482.177734,8.359375 482.871094,8.58398438 L483.398438,8.74511719 L483.398438,12.4511719 L481.523438,12.4511719 L480.893555,10.4003906 C480.776367,10.1464844 480.461426,9.92675781 479.94873,9.74121094 C479.436035,9.55566406 478.862305,9.46289062 478.227539,9.46289062 C477.329102,9.46289062 476.635742,9.65332031 476.147461,10.0341797 C475.65918,10.4150391 475.415039,10.9130859 475.415039,11.5283203 C475.415039,12.0751953 475.559082,12.5341797 475.847168,12.9052734 C476.135254,13.2763672 476.494141,13.5791016 476.923828,13.8134766 C477.353516,14.0478516 477.954102,14.3261719 478.725586,14.6484375 L479.296875,14.8974609 C480.410156,15.3759766 481.313477,15.8251953 482.006836,16.2451172 C482.700195,16.6650391 483.276367,17.2021484 483.735352,17.8564453 C484.194336,18.5107422 484.423828,19.3115234 484.423828,20.2587891 C484.423828,21.2353516 484.16748,22.0947266 483.654785,22.8369141 C483.14209,23.5791016 482.399902,24.1552734 481.428223,24.5654297 C480.456543,24.9755859 479.306641,25.1806641 477.978516,25.1806641 C476.982422,25.1806641 475.9375,25.0439453 474.84375,24.7705078 C473.75,24.4970703 472.875977,24.2138672 472.22168,23.9208984 L472.22168,20.0830078 L474.287109,20.0830078 Z" id="Path"></path>
            <path d="M487.001953,16.4794922 C487.001953,14.7607422 487.338867,13.2373047 488.012695,11.9091797 C488.686523,10.5810547 489.619141,9.55322266 490.810547,8.82568359 C492.001953,8.09814453 493.354492,7.734375 494.868164,7.734375 C496.743164,7.734375 498.193359,8.24707031 499.21875,9.27246094 C500.244141,10.2978516 500.791016,11.7773438 500.859375,13.7109375 L500.859375,14.2382812 C500.859375,15.2636719 500.800781,16.0449219 500.683594,16.5820312 L490.532227,16.5820312 C490.571289,18.0175781 490.81543,19.2089844 491.264648,20.15625 C491.713867,21.1035156 492.304688,21.8017578 493.037109,22.2509766 C493.769531,22.7001953 494.594727,22.9248047 495.512695,22.9248047 C496.313477,22.9248047 497.13623,22.7856445 497.980957,22.5073242 C498.825684,22.2290039 499.487305,21.9091797 499.96582,21.5478516 L500.581055,22.9541016 C500.209961,23.3349609 499.699707,23.6962891 499.050293,24.0380859 C498.400879,24.3798828 497.678223,24.6557617 496.882324,24.8657227 C496.086426,25.0756836 495.297852,25.1806641 494.516602,25.1806641 C492.875977,25.1806641 491.491699,24.8168945 490.36377,24.0893555 C489.23584,23.3618164 488.393555,22.3461914 487.836914,21.0424805 C487.280273,19.7387695 487.001953,18.2177734 487.001953,16.4794922 Z M497.34375,14.8828125 C497.382812,14.53125 497.402344,14.1113281 497.402344,13.6230469 C497.392578,12.3828125 497.133789,11.3867188 496.625977,10.6347656 C496.118164,9.8828125 495.317383,9.50683594 494.223633,9.50683594 C493.129883,9.50683594 492.263184,9.91455078 491.623535,10.7299805 C490.983887,11.5454102 490.620117,12.9296875 490.532227,14.8828125 L497.34375,14.8828125 Z" id="Shape"></path>
            <path d="M511.611328,7.734375 C513.017578,7.734375 514.521484,8.03710938 516.123047,8.64257812 L515.976562,13.1542969 L513.94043,13.1542969 L513.266602,10.4150391 C513.129883,10.0927734 512.858887,9.85351562 512.453613,9.69726562 C512.04834,9.54101562 511.5625,9.46289062 510.996094,9.46289062 C510.136719,9.46289062 509.389648,9.69970703 508.754883,10.1733398 C508.120117,10.6469727 507.626953,11.3549805 507.275391,12.2973633 C506.923828,13.2397461 506.748047,14.4042969 506.748047,15.7910156 C506.748047,17.4023438 506.958008,18.7402344 507.37793,19.8046875 C507.797852,20.8691406 508.369141,21.6552734 509.091797,22.1630859 C509.814453,22.6708984 510.629883,22.9248047 511.538086,22.9248047 C512.387695,22.9248047 513.171387,22.800293 513.88916,22.5512695 C514.606934,22.3022461 515.219727,21.9970703 515.727539,21.6357422 L516.357422,22.9833984 C516.005859,23.3447266 515.537109,23.6938477 514.951172,24.0307617 C514.365234,24.3676758 513.708496,24.6435547 512.980957,24.8583984 C512.253418,25.0732422 511.523438,25.1806641 510.791016,25.1806641 C509.140625,25.1806641 507.744141,24.8144531 506.601562,24.0820312 C505.458984,23.3496094 504.602051,22.3461914 504.030762,21.0717773 C503.459473,19.7973633 503.173828,18.3496094 503.173828,16.7285156 C503.173828,15.0585938 503.496094,13.5424805 504.140625,12.1801758 C504.785156,10.8178711 505.742188,9.73632812 507.011719,8.93554688 C508.28125,8.13476562 509.814453,7.734375 511.611328,7.734375 Z" id="Path"></path>
            <path d="M530.683594,22.8515625 C530.058594,23.4570312 529.267578,23.996582 528.310547,24.4702148 C527.353516,24.9438477 526.386719,25.1806641 525.410156,25.1806641 C524.189453,25.1806641 523.198242,24.9633789 522.436523,24.5288086 C521.674805,24.0942383 521.113281,23.4033203 520.751953,22.4560547 C520.390625,21.5087891 520.209961,20.2587891 520.209961,18.7060547 L520.209961,10.2099609 L518.583984,9.66796875 L518.583984,8.24707031 L522.919922,7.80761719 L522.93457,7.80761719 L523.549805,8.203125 L523.549805,18.5449219 C523.549805,19.6582031 523.632812,20.5273438 523.798828,21.1523438 C523.964844,21.7773438 524.257812,22.2338867 524.677734,22.5219727 C525.097656,22.8100586 525.703125,22.9541016 526.494141,22.9541016 C527.255859,22.9541016 527.963867,22.8076172 528.618164,22.5146484 C529.272461,22.2216797 529.838867,21.8847656 530.317383,21.5039062 L530.317383,10.2246094 L528.222656,9.65332031 L528.222656,8.23242188 L532.851562,7.80761719 L532.880859,7.80761719 L533.657227,8.203125 L533.657227,23.1884766 L535.415039,23.1884766 L535.415039,24.6533203 C534.848633,24.8193359 534.35791,24.9487305 533.942871,25.0415039 C533.527832,25.1342773 533.051758,25.1806641 532.514648,25.1806641 C531.889648,25.1806641 531.428223,25.0610352 531.130371,24.8217773 C530.83252,24.5825195 530.683594,24.1796875 530.683594,23.6132812 L530.683594,22.8515625 Z" id="Path"></path>
            <path d="M540.19043,23.0273438 L540.19043,10.7226562 L538.110352,10.1367188 L538.110352,8.37890625 L542.299805,7.79296875 L542.373047,7.79296875 L543.076172,8.36425781 L543.076172,9.28710938 L543.046875,11.1914062 L543.076172,11.1914062 C543.251953,10.8691406 543.591309,10.4370117 544.094238,9.89501953 C544.597168,9.35302734 545.246582,8.85742188 546.04248,8.40820312 C546.838379,7.95898438 547.705078,7.734375 548.642578,7.734375 C549.023438,7.734375 549.345703,7.78808594 549.609375,7.89550781 L549.609375,11.4990234 C549.423828,11.3916016 549.177246,11.3012695 548.869629,11.2280273 C548.562012,11.1547852 548.232422,11.1181641 547.880859,11.1181641 C546.894531,11.1181641 546.04248,11.237793 545.324707,11.4770508 C544.606934,11.7163086 544.008789,12.0166016 543.530273,12.3779297 L543.530273,23.0126953 L547.382812,23.2763672 L547.382812,24.84375 L537.890625,24.84375 L537.890625,23.2617188 L540.19043,23.0273438 Z" id="Path"></path>
            <path d="M553.857422,22.9980469 L553.857422,10.7226562 L551.733398,10.1220703 L551.733398,8.39355469 L556.391602,7.79296875 L556.464844,7.79296875 L557.211914,8.36425781 L557.211914,22.9980469 L559.555664,23.2470703 L559.555664,24.84375 L551.484375,24.84375 L551.484375,23.2470703 L553.857422,22.9980469 Z M553.256836,3.03222656 C553.256836,2.36816406 553.449707,1.80664062 553.835449,1.34765625 C554.221191,0.888671875 554.760742,0.659179688 555.454102,0.659179688 L555.46875,0.659179688 C555.878906,0.659179688 556.235352,0.754394531 556.538086,0.944824219 C556.84082,1.13525391 557.072754,1.38671875 557.233887,1.69921875 C557.39502,2.01171875 557.475586,2.34375 557.475586,2.6953125 C557.475586,3.37890625 557.280273,3.94042969 556.889648,4.37988281 C556.499023,4.81933594 555.932617,5.0390625 555.19043,5.0390625 L555.175781,5.0390625 C554.609375,5.0390625 554.147949,4.84863281 553.791504,4.46777344 C553.435059,4.08691406 553.256836,3.60839844 553.256836,3.03222656 Z" id="Shape"></path>
            <path d="M561.357422,10.2832031 L561.357422,8.89160156 C561.630859,8.82324219 561.945801,8.72558594 562.302246,8.59863281 C562.658691,8.47167969 562.890625,8.37402344 562.998047,8.30566406 C563.320312,8.07128906 563.583984,7.69042969 563.789062,7.16308594 C563.935547,6.83105469 564.128418,6.30126953 564.367676,5.57373047 C564.606934,4.84619141 564.770508,4.296875 564.858398,3.92578125 L566.762695,3.92578125 L566.791992,8.18847656 L571.713867,8.18847656 L571.713867,10.2832031 L566.806641,10.2832031 L566.806641,19.1455078 C566.806641,20.3369141 566.84082,21.1645508 566.90918,21.628418 C566.977539,22.0922852 567.116699,22.3901367 567.32666,22.5219727 C567.536621,22.6538086 567.919922,22.7197266 568.476562,22.7197266 L568.491211,22.7197266 C568.999023,22.7197266 569.572754,22.65625 570.212402,22.5292969 C570.852051,22.4023438 571.347656,22.2705078 571.699219,22.1337891 L571.713867,22.1337891 L572.211914,23.5546875 C571.918945,23.7988281 571.479492,24.0454102 570.893555,24.2944336 C570.307617,24.543457 569.677734,24.7509766 569.003906,24.9169922 C568.330078,25.0830078 567.709961,25.1660156 567.143555,25.1660156 L567.114258,25.1660156 C565.90332,25.1660156 564.990234,24.8999023 564.375,24.3676758 C563.759766,23.8354492 563.452148,22.9443359 563.452148,21.6943359 L563.452148,10.2832031 L561.357422,10.2832031 Z" id="Path"></path>
            <path d="M574.731445,29.3261719 C574.848633,29.3945312 575.087891,29.4555664 575.449219,29.5092773 C575.810547,29.5629883 576.152344,29.5898438 576.474609,29.5898438 C577.060547,29.5898438 577.600098,29.4702148 578.093262,29.230957 C578.586426,28.9916992 579.086914,28.5253906 579.594727,27.8320312 C580.102539,27.1386719 580.595703,26.1425781 581.074219,24.84375 L579.418945,24.84375 L573.94043,10.1220703 L572.548828,9.74121094 L572.548828,8.18847656 L580.004883,8.18847656 L580.004883,9.74121094 L577.705078,10.1220703 L580.532227,18.9697266 L581.835938,23.2177734 L583.007812,18.9550781 L585.65918,10.1074219 L583.696289,9.74121094 L583.696289,8.18847656 L589.848633,8.18847656 L589.848633,9.74121094 L588.354492,10.1074219 C586.948242,14.4824219 585.803223,17.9760742 584.919434,20.5883789 C584.035645,23.2006836 583.47168,24.7851562 583.227539,25.3417969 C582.563477,27.0214844 581.936035,28.3496094 581.345215,29.3261719 C580.754395,30.3027344 580.070801,31.0449219 579.294434,31.5527344 C578.518066,32.0605469 577.568359,32.3144531 576.445312,32.3144531 C576.142578,32.3144531 575.81543,32.2924805 575.463867,32.2485352 C575.112305,32.2045898 574.868164,32.1533203 574.731445,32.0947266 L574.731445,29.3261719 Z" id="Path"></path>
        </g>
    </g>
</svg>