<?xml version="1.0" encoding="UTF-8"?>
<svg width="382px" height="64px" viewBox="0 0 382 64" version="1.1" xmlns="http://www.w3.org/2000/svg" xmlns:xlink="http://www.w3.org/1999/xlink">
    <title>logo/tbm/color-light/stacked/tbm-logo-color-light-stacked</title>
    <g id="logo/tbm/color-light/stacked/tbm-logo-color-light-stacked" stroke="none" stroke-width="1" fill="none" fill-rule="evenodd">
        <g id="Technology-Business" transform="translate(72.420049, 3.960570)" fill="#FFFFFF" fill-rule="nonzero">
            <polygon id="Path" points="7.25896662 20.2936029 7.25896662 3.62292005 2.88783482 3.75418527 1.90334568 9.24107143 0 9.24107143 0.459428267 2.06086394 17.077605 2.06086394 17.4976537 9.24107143 15.6205611 9.24107143 14.6229454 3.75418527 10.4224584 3.62292005 10.4224584 20.2936029 14.1372641 20.6086394 14.1372641 22.0394303 3.8329444 22.0394303 3.8329444 20.6086394"></polygon>
            <path d="M19.2172281,14.5441863 C19.2172281,13.0040077 19.5191381,11.6388494 20.1229581,10.4487114 C20.7267781,9.25857346 21.5625,8.33752917 22.6301238,7.68557858 C23.6977476,7.03362799 24.9097631,6.7076527 26.2661704,6.7076527 C27.9463652,6.7076527 29.2458908,7.16708097 30.1647474,8.0859375 C31.0836039,9.00479403 31.5736607,10.3305727 31.6349178,12.0632736 L31.6349178,12.5358284 C31.6349178,13.454685 31.5824117,14.1547661 31.4773996,14.6360719 L22.3807199,14.6360719 C22.4157239,15.9224711 22.6344993,16.9900949 23.037046,17.8389433 C23.4395926,18.6877917 23.969029,19.3134892 24.6253551,19.7160359 C25.2816812,20.1185826 26.0211419,20.3198559 26.8437373,20.3198559 C27.5613205,20.3198559 28.2985935,20.195154 29.0555563,19.9457501 C29.812519,19.6963461 30.4054003,19.4097504 30.8342,19.0859629 L31.3855139,20.346109 C31.0529753,20.6873985 30.5957348,21.0111861 30.0137924,21.3174716 C29.4318499,21.6237571 28.7842748,21.8709733 28.0710671,22.0591201 C27.3578594,22.2472669 26.651215,22.3413403 25.9511338,22.3413403 C24.4809634,22.3413403 23.2405071,22.015365 22.2297649,21.3634144 C21.2190227,20.7114638 20.4642477,19.8013583 19.9654398,18.6330979 C19.466632,17.4648374 19.2172281,16.1018669 19.2172281,14.5441863 Z M28.4845526,13.1133954 C28.5195566,12.7983589 28.5370586,12.4220652 28.5370586,11.9845145 C28.5283076,10.8731357 28.2964057,9.98053216 27.841353,9.30670404 C27.3863002,8.63287591 26.668717,8.29596185 25.6886034,8.29596185 C24.7084898,8.29596185 23.9318372,8.66131671 23.3586457,9.39202643 C22.7854543,10.1227362 22.459479,11.3631925 22.3807199,13.1133954 L28.4845526,13.1133954 Z" id="Shape"></path>
            <path d="M41.2697849,6.7076527 C42.529931,6.7076527 43.8775873,6.97893415 45.3127537,7.52149706 L45.1814884,11.5644658 L43.3569019,11.5644658 L42.7530819,9.10980621 C42.6305677,8.82102273 42.387727,8.60662287 42.0245599,8.46660664 C41.6613928,8.3265904 41.2260298,8.25658228 40.718471,8.25658228 C39.9483817,8.25658228 39.2789291,8.46879439 38.7101131,8.8932186 C38.1412972,9.31764281 37.6993709,9.95209137 37.3843344,10.7965643 C37.0692979,11.6410372 36.9117796,12.6845957 36.9117796,13.9272398 C36.9117796,15.3711572 37.0999264,16.5700462 37.4762201,17.5239068 C37.8525137,18.4777673 38.3644481,19.182224 39.0120231,19.6372768 C39.6595982,20.0923295 40.3903079,20.3198559 41.2041523,20.3198559 C41.9654906,20.3198559 42.6677595,20.2082805 43.3109591,19.9851296 C43.9541586,19.7619787 44.5032848,19.4885095 44.9583376,19.164722 L45.522778,20.372362 C45.2077415,20.6961496 44.7876928,21.0089983 44.2626319,21.3109083 C43.737571,21.6128183 43.1490653,21.8600345 42.4971147,22.0525568 C41.8451641,22.2450791 41.1910258,22.3413403 40.5346997,22.3413403 C39.0557782,22.3413403 37.8043831,22.0131773 36.7805144,21.3568512 C35.7566457,20.7005251 34.9887442,19.8013583 34.4768098,18.6593509 C33.9648755,17.5173435 33.7089083,16.2200056 33.7089083,14.7673372 C33.7089083,13.2709137 33.9976918,11.9123186 34.5752587,10.6915521 C35.1528257,9.47078556 36.0104251,8.50161069 37.148057,7.7840275 C38.2856889,7.0664443 39.6595982,6.7076527 41.2697849,6.7076527 Z" id="Path"></path>
            <path d="M49.1850776,20.3986151 L49.1850776,2.07399046 L47.0192015,1.81146002 L47.0192015,0.564440442 L51.4690924,0 L51.534725,0 L52.1647981,0.446301745 L52.1779246,6.53700791 L52.0597859,8.88665534 C52.6548549,8.36159446 53.4336952,7.8781009 54.3963068,7.43617467 C55.3589184,6.99424843 56.3477831,6.77328531 57.3629008,6.77328531 C58.4830306,6.77328531 59.3559443,6.98768517 59.9816419,7.41648488 C60.6073394,7.8452846 61.0448902,8.50379845 61.2942941,9.39202643 C61.543698,10.2802544 61.6684,11.4725802 61.6684,12.9690037 L61.6684,20.3854885 L63.5586191,20.6086394 L63.5586191,22.0394303 L56.9559786,22.0394303 L56.9559786,20.6217659 L58.675553,20.3986151 L58.675553,12.9558771 C58.675553,11.9407594 58.6077326,11.1422294 58.4720919,10.5602869 C58.3364511,9.97834441 58.0761085,9.54079368 57.6910638,9.24763469 C57.3060192,8.9544757 56.7415787,8.80789621 55.9977425,8.80789621 C55.3676694,8.80789621 54.7069678,8.93697367 54.0156377,9.1951286 C53.3243075,9.45328353 52.716112,9.77925883 52.1910511,10.1730545 L52.1910511,20.3854885 L54.0550172,20.6086394 L54.0550172,22.0394303 L47.609895,22.0394303 L47.609895,20.6086394 L49.1850776,20.3986151 Z" id="Path"></path>
            <path d="M67.2996779,20.3854885 L67.2996779,9.38546317 L65.4225852,8.86040229 L65.4225852,7.28521966 L69.3080357,6.76015879 L69.3736683,6.76015879 L69.9906149,7.27209314 L69.9906149,8.33534142 L69.9774883,8.93916142 C70.380035,8.58036983 70.8854061,8.23470475 71.4936016,7.90216619 C72.1017971,7.56962764 72.7537477,7.29834619 73.4494534,7.08832183 C74.145159,6.87829748 74.8036729,6.77328531 75.4249949,6.77328531 C76.5626268,6.77328531 77.4421038,6.98549741 78.0634258,7.40992162 C78.6847479,7.83434583 79.1179231,8.48848417 79.3629515,9.37233665 C79.6079799,10.2561891 79.7304941,11.4550781 79.7304941,12.9690037 L79.7304941,20.3854885 L81.6207133,20.6086394 L81.6207133,22.0394303 L75.0311993,22.0394303 L75.0311993,20.6086394 L76.7113941,20.3854885 L76.7113941,12.9558771 C76.7113941,11.9407594 76.6435737,11.1422294 76.507933,10.5602869 C76.3722923,9.97834441 76.1163251,9.54079368 75.7400315,9.24763469 C75.3637378,8.9544757 74.8080484,8.80789621 74.0729632,8.80789621 C73.4428901,8.80789621 72.786564,8.94353693 72.1039849,9.21481838 C71.4214057,9.48609984 70.8219612,9.81426289 70.3056514,10.1993075 L70.3056514,20.3854885 L72.1171114,20.6086394 L72.1171114,22.0394303 L65.5801035,22.0394303 L65.5801035,20.6086394 L67.2996779,20.3854885 Z" id="Path"></path>
            <path d="M90.441736,6.7076527 C91.9644125,6.7076527 93.2333097,7.04456676 94.2484274,7.71839489 C95.263545,8.39222301 96.0161323,9.31764281 96.5061891,10.4946543 C96.9962459,11.6716657 97.2412744,13.0171342 97.2412744,14.5310598 C97.2412744,16.1499975 96.906548,17.5501598 96.2370954,18.7315468 C95.5676428,19.9129337 94.6881658,20.8099127 93.5986645,21.4224838 C92.5091632,22.0350548 91.347466,22.3413403 90.113573,22.3413403 C88.5908964,22.3413403 87.324187,22.0044262 86.3134449,21.3305981 C85.3027027,20.65677 84.5523032,19.7313502 84.0622463,18.5543387 C83.5721895,17.3773273 83.3271611,16.0318588 83.3271611,14.5179332 C83.3271611,12.9164976 83.6618874,11.5250862 84.33134,10.3436993 C85.0007927,9.1623123 85.8802696,8.26095779 86.969771,7.63963575 C88.0592723,7.01831372 89.216594,6.7076527 90.441736,6.7076527 Z M93.9202643,14.7673372 C93.9202643,12.7983589 93.6292931,11.234115 93.0473506,10.0746056 C92.4654081,8.91509613 91.5443638,8.33534142 90.2842177,8.33534142 C89.0765777,8.33534142 88.1664722,8.8319615 87.5539012,9.82520165 C86.9413302,10.8184418 86.6350446,12.3039265 86.6350446,14.2816558 C86.6350446,16.2506341 86.9303914,17.814878 87.5210849,18.9743874 C88.1117784,20.1338969 89.0328226,20.7136516 90.2842177,20.7136516 C92.7082488,20.7136516 93.9202643,18.7315468 93.9202643,14.7673372 Z" id="Shape"></path>
            <polygon id="Path" points="101.363002 20.3854885 101.363002 2.07399046 99.2102526 1.81146002 99.2102526 0.564440442 103.686397 0 103.71265 0 104.355849 0.446301745 104.355849 20.3854885 106.587358 20.6086394 106.587358 22.0394303 99.2365057 22.0394303 99.2365057 20.6086394"></polygon>
            <path d="M115.460887,6.7076527 C116.983563,6.7076527 118.25246,7.04456676 119.267578,7.71839489 C120.282696,8.39222301 121.035283,9.31764281 121.52534,10.4946543 C122.015397,11.6716657 122.260425,13.0171342 122.260425,14.5310598 C122.260425,16.1499975 121.925699,17.5501598 121.256246,18.7315468 C120.586794,19.9129337 119.707317,20.8099127 118.617815,21.4224838 C117.528314,22.0350548 116.366617,22.3413403 115.132724,22.3413403 C113.610047,22.3413403 112.343338,22.0044262 111.332596,21.3305981 C110.321853,20.65677 109.571454,19.7313502 109.081397,18.5543387 C108.59134,17.3773273 108.346312,16.0318588 108.346312,14.5179332 C108.346312,12.9164976 108.681038,11.5250862 109.350491,10.3436993 C110.019943,9.1623123 110.89942,8.26095779 111.988922,7.63963575 C113.078423,7.01831372 114.235745,6.7076527 115.460887,6.7076527 Z M118.939415,14.7673372 C118.939415,12.7983589 118.648444,11.234115 118.066501,10.0746056 C117.484559,8.91509613 116.563515,8.33534142 115.303369,8.33534142 C114.095728,8.33534142 113.185623,8.8319615 112.573052,9.82520165 C111.960481,10.8184418 111.654195,12.3039265 111.654195,14.2816558 C111.654195,16.2506341 111.949542,17.814878 112.540236,18.9743874 C113.130929,20.1338969 114.051973,20.7136516 115.303369,20.7136516 C117.7274,20.7136516 118.939415,18.7315468 118.939415,14.7673372 Z" id="Shape"></path>
            <path d="M130.92393,16.7231889 C130.206346,16.7231889 129.536894,16.6488053 128.915572,16.500038 C128.670543,16.7188134 128.478021,16.9704051 128.338005,17.2548131 C128.197989,17.539221 128.12798,17.8301923 128.12798,18.1277268 C128.12798,18.5652775 128.230805,18.9000038 128.436454,19.1319057 C128.642103,19.3638076 128.952764,19.5235136 129.368437,19.6110237 C129.78411,19.6985339 130.355114,19.742289 131.081448,19.742289 L133.94303,19.742289 C137.364676,19.742289 139.0755,21.0549412 139.0755,23.6802455 C139.0755,24.6953632 138.71452,25.6317218 137.992562,26.4893212 C137.270603,27.3469207 136.305804,28.027312 135.098164,28.5304954 C133.890524,29.0336787 132.595373,29.2852704 131.212713,29.2852704 L131.199587,29.2852704 C128.854315,29.2852704 127.152242,28.9286665 126.09337,28.2154589 C125.034497,27.5022512 124.50506,26.4936967 124.50506,25.1897956 C124.50506,24.3759512 124.743526,23.6386782 125.220456,22.9779766 C125.697386,22.317275 126.272765,21.8162794 126.946593,21.4749899 C126.097745,20.9936841 125.673321,20.2585988 125.673321,19.2697342 C125.673321,18.6134081 125.861468,18.0074003 126.237761,17.4517109 C126.614055,16.8960215 127.108487,16.447532 127.721058,16.1062424 C126.845957,15.7036957 126.174316,15.132692 125.706137,14.3932313 C125.237958,13.6537705 125.003868,12.7896079 125.003868,11.8007432 C125.003868,10.7681235 125.297027,9.86676897 125.883345,9.09667969 C126.469663,8.3265904 127.239752,7.73808467 128.193613,7.33116249 C129.147474,6.92424031 130.166967,6.71640371 131.252093,6.7076527 L131.265219,6.7076527 C132.210329,6.7076527 133.059177,6.81485263 133.811764,7.02925249 C134.564352,7.24365234 135.1988,7.56087662 135.71511,7.98092532 C135.977641,7.67463981 136.371436,7.38148082 136.896497,7.10144836 C137.421558,6.82141589 138.038504,6.68139966 138.747337,6.68139966 L139.456169,6.68139966 L139.456169,9.22794491 L136.699599,9.22794491 C137.005885,9.86676897 137.159027,10.5712256 137.159027,11.3413149 C137.159027,12.3914367 136.887746,13.3256075 136.345183,14.1438274 C135.80262,14.9620472 135.058784,15.5964958 134.113674,16.047173 C133.168565,16.4978503 132.109692,16.7231889 130.937056,16.7231889 L130.92393,16.7231889 Z M131.081448,8.24345576 C130.136338,8.24345576 129.403441,8.49942294 128.882755,9.0113573 C128.36207,9.52329165 128.101727,10.3612013 128.101727,11.5250862 C128.101727,12.6277141 128.348944,13.5093788 128.843376,14.1700804 C129.337808,14.830782 130.127587,15.1611328 131.212713,15.1611328 L131.22584,15.1611328 C132.223455,15.1611328 132.947602,14.8635983 133.398279,14.2685293 C133.848956,13.6734603 134.074295,12.8027344 134.074295,11.6563515 C134.074295,10.4837155 133.831454,9.62174056 133.345773,9.07042664 C132.860092,8.51911272 132.109692,8.24345576 131.094574,8.24345576 L131.081448,8.24345576 Z M128.285499,21.9344181 C127.725434,22.6257483 127.445401,23.4527192 127.445401,24.4153308 C127.445401,25.4654525 127.756062,26.2617948 128.377384,26.8043578 C128.998706,27.3469207 130.0182,27.6182021 131.435864,27.6182021 L131.462117,27.6182021 C132.249708,27.6182021 133.002296,27.4956879 133.719879,27.2506595 C134.437462,27.0056311 135.019404,26.642464 135.465706,26.1611582 C135.912008,25.6798524 136.135159,25.1066609 136.135159,24.4415838 C136.135159,23.8727679 136.049836,23.4242784 135.879192,23.0961153 C135.708547,22.7679523 135.395698,22.5207361 134.940645,22.3544668 C134.485593,22.1881975 133.824891,22.1050629 132.95854,22.1050629 L130.32011,22.1050629 C129.602526,22.1050629 128.924323,22.0481813 128.285499,21.9344181 Z" id="Shape"></path>
            <path d="M141.661425,26.056146 C141.766437,26.1174031 141.980837,26.1720969 142.304624,26.2202275 C142.628412,26.2683581 142.934697,26.2924234 143.223481,26.2924234 C143.748541,26.2924234 144.232035,26.1852235 144.673961,25.9708236 C145.115888,25.7564238 145.564377,25.3385628 146.01943,24.7172408 C146.474483,24.0959187 146.916409,23.2033152 147.345209,22.0394303 L145.861912,22.0394303 L140.952592,8.84727577 L139.705573,8.5059862 L139.705573,7.11457488 L146.386972,7.11457488 L146.386972,8.5059862 L144.326108,8.84727577 L146.859527,16.775695 L148.027788,20.5823864 L149.077909,16.7625685 L151.45381,8.83414925 L149.694856,8.5059862 L149.694856,7.11457488 L155.207995,7.11457488 L155.207995,8.5059862 L153.86909,8.83414925 C152.608944,12.7546038 151.582887,15.8852793 150.790921,18.2261757 C149.998954,20.5670721 149.493583,21.9869242 149.274807,22.485732 C148.679738,23.9909066 148.117486,25.1810445 147.588049,26.056146 C147.058613,26.9312475 146.446042,27.5963246 145.750336,28.0513773 C145.05463,28.5064301 144.203594,28.7339565 143.197228,28.7339565 C142.925946,28.7339565 142.632787,28.7142667 142.317751,28.6748871 C142.002714,28.6355076 141.783939,28.5895647 141.661425,28.5370586 L141.661425,26.056146 Z" id="Path"></path>
            <path d="M3.04535308,51.2936029 L3.04535308,34.8460709 L0.879476968,34.5179079 L0.879476968,33.0608639 L4.44989093,33.0608639 C5.04495992,33.0608639 5.80629819,33.0258599 6.73390574,32.9558518 C7.45148894,32.8945947 8.06843547,32.8639661 8.58474533,32.8639661 C11.0437804,32.8639661 12.8267997,33.246823 13.933803,34.0125368 C15.0408064,34.7782506 15.594308,35.9049437 15.594308,37.3926162 C15.594308,38.2239626 15.434602,38.9831131 15.11519,39.6700677 C14.795778,40.3570224 14.3341619,40.9302138 13.7303419,41.3896421 C13.1265219,41.8490704 12.4089387,42.1619191 11.5775923,42.3281884 C12.6714692,42.3019354 13.6275175,42.4813312 14.4457374,42.8663758 C15.2639572,43.2514205 15.896218,43.8071099 16.3425198,44.5334441 C16.7888215,45.2597783 17.0119724,46.1086267 17.0119724,47.0799893 C17.0119724,48.8826984 16.3753361,50.3528688 15.1020635,51.4905007 C13.8287908,52.6281326 11.7219841,53.1969486 8.78164316,53.1969486 C8.45785562,53.1969486 8.11656605,53.1881975 7.75777445,53.1706955 C7.39898285,53.1531935 7.14520343,53.140067 6.99643618,53.1313159 C5.93756341,53.0700588 5.09746601,53.0394303 4.47614397,53.0394303 L0.840097403,53.0394303 L0.840097403,51.6086394 L3.04535308,51.2936029 Z M6.11695921,41.7374949 C6.56326096,41.772499 7.46023996,41.790001 8.80789621,41.790001 C11.2844333,41.790001 12.5227019,40.5079774 12.5227019,37.9439301 C12.5227019,37.1213347 12.3914367,36.4496943 12.1289062,35.929009 C11.8663758,35.4083236 11.4375761,35.0189035 10.8425071,34.7607485 C10.2474381,34.5025936 9.44234476,34.3735161 8.42722707,34.3735161 C7.79715402,34.3735161 7.27209314,34.3975814 6.85204444,34.445712 C6.43199574,34.4938426 6.18696733,34.5222834 6.11695921,34.5310344 L6.11695921,41.7374949 Z M6.10383269,51.4248681 C6.31385704,51.5211293 6.6463956,51.5845741 7.10144836,51.6152027 C7.55650112,51.6458312 8.09031301,51.6611455 8.70288403,51.6611455 C10.453087,51.6611455 11.7197963,51.3067294 12.5030121,50.5978972 C13.2862279,49.889065 13.6778358,48.8608208 13.6778358,47.5131646 C13.6778358,46.5418019 13.5246931,45.7585861 13.2184076,45.1635171 C12.9121221,44.5684482 12.4286285,44.1330852 11.7679269,43.8574282 C11.1072253,43.5817713 10.2386871,43.4439428 9.1623123,43.4439428 L7.88903967,43.4439428 C6.97018314,43.4439428 6.37511414,43.4526938 6.10383269,43.4701958 L6.10383269,51.4248681 Z" id="Shape"></path>
            <path d="M29.8890904,51.2542233 C29.3290255,51.7967862 28.6201933,52.2802798 27.7625939,52.704704 C26.9049944,53.1291282 26.038644,53.3413403 25.1635425,53.3413403 C24.0696657,53.3413403 23.1814377,53.1466302 22.4988586,52.7572101 C21.8162794,52.3677899 21.3130961,51.7486556 20.9893085,50.8998072 C20.665521,50.0509588 20.5036272,48.9308289 20.5036272,47.5394176 L20.5036272,39.9260349 L19.0465833,39.4403536 L19.0465833,38.167081 L22.9320338,37.7732853 L22.9451603,37.7732853 L23.4964742,38.1277014 L23.4964742,47.3950259 C23.4964742,48.3926415 23.5708579,49.1714818 23.7196251,49.7315468 C23.8683923,50.2916117 24.1309228,50.7007216 24.5072164,50.9588766 C24.88351,51.2170315 25.426073,51.346109 26.1349051,51.346109 C26.8174843,51.346109 27.4519328,51.2148438 28.0382508,50.9523133 C28.6245688,50.6897829 29.1321276,50.3878729 29.5609274,50.0465833 L29.5609274,39.9391614 L27.6838347,39.4272271 L27.6838347,38.1539544 L31.8318156,37.7732853 L31.8580687,37.7732853 L32.5537744,38.1277014 L32.5537744,51.5561333 L34.128957,51.5561333 L34.128957,52.8687855 C33.6213981,53.0175528 33.1816596,53.1335037 32.8097415,53.2166383 C32.4378234,53.299773 32.0112114,53.3413403 31.5299056,53.3413403 C30.9698407,53.3413403 30.5563553,53.2341404 30.2894493,53.0197405 C30.0225434,52.8053407 29.8890904,52.4443613 29.8890904,51.9368025 L29.8890904,51.2542233 Z" id="Path"></path>
            <path d="M38.5394683,48.7733107 L39.0645292,50.768542 C39.1695414,50.9523133 39.3730025,51.1273336 39.6749125,51.2936029 C39.9768225,51.4598722 40.3334263,51.5955129 40.744724,51.7005251 C41.1560217,51.8055372 41.5760704,51.8580433 42.0048701,51.8580433 C42.9937348,51.8580433 43.6981915,51.6720843 44.1182402,51.3001661 C44.5382889,50.928248 44.7483132,50.4185014 44.7483132,49.7709263 C44.7483132,49.3158736 44.6061092,48.9155147 44.3217012,48.5698496 C44.0372933,48.2241845 43.6150568,47.8982092 43.0549919,47.5919237 C42.4949269,47.2856382 41.7335887,46.9399731 40.7709771,46.5549285 C39.3795657,46.0123656 38.3644481,45.3713537 37.725624,44.631893 C37.0867999,43.8924323 36.7673879,42.9363839 36.7673879,41.763748 C36.7673879,40.9761567 37.005853,40.2826387 37.4827833,39.6831942 C37.9597136,39.0837497 38.613852,38.6177582 39.4451984,38.2852197 C40.2765447,37.9526811 41.2129033,37.7864118 42.254274,37.7864118 C43.0593674,37.7864118 43.7681996,37.8498567 44.3807706,37.9767464 C44.9933416,38.1036361 45.6102881,38.2677176 46.2316102,38.468991 L46.704165,38.6133827 L46.704165,41.9343928 L45.0239702,41.9343928 L44.4595297,40.0966797 C44.3545176,39.8691533 44.0722973,39.6722555 43.6128691,39.5059862 C43.1534408,39.3397169 42.6393187,39.2565823 42.0705027,39.2565823 C41.2654094,39.2565823 40.6440874,39.4272271 40.2065366,39.7685166 C39.7689859,40.1098062 39.5502105,40.556108 39.5502105,41.1074219 C39.5502105,41.5974787 39.679288,42.0087764 39.9374429,42.3413149 C40.1955979,42.6738535 40.5171976,42.9451349 40.9022423,43.1551593 C41.2872869,43.3651836 41.8254743,43.6145876 42.5168045,43.903371 L43.0287388,44.1265219 C44.0263545,44.5553216 44.8358234,44.9578683 45.4571454,45.3341619 C46.0784674,45.7104556 46.5947773,46.1917614 47.006075,46.7780793 C47.4173727,47.3643973 47.6230215,48.0819805 47.6230215,48.9308289 C47.6230215,49.8059304 47.3933074,50.5760197 46.9338791,51.2410968 C46.4744508,51.9061739 45.8093737,52.4224838 44.9386478,52.7900264 C44.0679218,53.157569 43.0374899,53.3413403 41.8473519,53.3413403 C40.9547484,53.3413403 40.0183898,53.2188261 39.0382762,52.9737977 C38.0581625,52.7287693 37.2749467,52.4749899 36.6886288,52.2124594 L36.6886288,48.7733107 L38.5394683,48.7733107 Z" id="Path"></path>
            <path d="M51.9679003,51.3854885 L51.9679003,40.3854632 L50.0645546,39.8472758 L50.0645546,38.2983462 L54.2387886,37.7601588 L54.3044212,37.7601588 L54.9738738,38.2720931 L54.9738738,51.3854885 L57.0741173,51.6086394 L57.0741173,53.0394303 L49.8414037,53.0394303 L49.8414037,51.6086394 L51.9679003,51.3854885 Z M51.4297129,33.4940392 C51.4297129,32.8989702 51.6025454,32.3957868 51.9482105,31.9844891 C52.2938756,31.5731915 52.7773691,31.3675426 53.3986912,31.3675426 L53.4118177,31.3675426 C53.7793603,31.3675426 54.0987723,31.452865 54.3700538,31.6235098 C54.6413352,31.7941546 54.8491718,32.0194932 54.9935636,32.2995257 C55.1379553,32.5795581 55.2101512,32.8770926 55.2101512,33.1921292 C55.2101512,33.8047002 55.0351309,34.3078835 54.6850903,34.7016792 C54.3350497,35.0954748 53.8274909,35.2923727 53.1624138,35.2923727 L53.1492872,35.2923727 C52.6417284,35.2923727 52.2282429,35.1217279 51.9088309,34.7804383 C51.5894189,34.4391487 51.4297129,34.010349 51.4297129,33.4940392 Z" id="Shape"></path>
            <path d="M60.8676821,51.3854885 L60.8676821,40.3854632 L58.9905895,39.8604023 L58.9905895,38.2852197 L62.87604,37.7601588 L62.9416726,37.7601588 L63.5586191,38.2720931 L63.5586191,39.3353414 L63.5454926,39.9391614 C63.9480393,39.5803698 64.4534104,39.2347047 65.0616059,38.9021662 C65.6698014,38.5696276 66.321752,38.2983462 67.0174576,38.0883218 C67.7131633,37.8782975 68.3716772,37.7732853 68.9929992,37.7732853 C70.1306311,37.7732853 71.0101081,37.9854974 71.6314301,38.4099216 C72.2527521,38.8343458 72.6859274,39.4884842 72.9309558,40.3723366 C73.1759842,41.2561891 73.2984984,42.4550781 73.2984984,43.9690037 L73.2984984,51.3854885 L75.1887175,51.6086394 L75.1887175,53.0394303 L68.5992035,53.0394303 L68.5992035,51.6086394 L70.2793983,51.3854885 L70.2793983,43.9558771 C70.2793983,42.9407594 70.211578,42.1422294 70.0759372,41.5602869 C69.9402965,40.9783444 69.6843293,40.5407937 69.3080357,40.2476347 C68.9317421,39.9544757 68.3760527,39.8078962 67.6409674,39.8078962 C67.0108944,39.8078962 66.3545683,39.9435369 65.6719891,40.2148184 C64.98941,40.4860998 64.3899655,40.8142629 63.8736556,41.1993075 L63.8736556,51.3854885 L65.6851157,51.6086394 L65.6851157,53.0394303 L59.1481078,53.0394303 L59.1481078,51.6086394 L60.8676821,51.3854885 Z" id="Path"></path>
            <path d="M76.9739245,45.5441863 C76.9739245,44.0040077 77.2758345,42.6388494 77.8796545,41.4487114 C78.4834745,40.2585735 79.3191964,39.3375292 80.3868202,38.6855786 C81.454444,38.033628 82.6664595,37.7076527 84.0228668,37.7076527 C85.7030616,37.7076527 87.0025873,38.167081 87.9214438,39.0859375 C88.8403003,40.004794 89.3303571,41.3305727 89.3916142,43.0632736 L89.3916142,43.5358284 C89.3916142,44.454685 89.3391082,45.1547661 89.234096,45.6360719 L80.1374163,45.6360719 C80.1724204,46.9224711 80.3911957,47.9900949 80.7937424,48.8389433 C81.1962891,49.6877917 81.7257254,50.3134892 82.3820515,50.7160359 C83.0383776,51.1185826 83.7778384,51.3198559 84.6004337,51.3198559 C85.3180169,51.3198559 86.0552899,51.195154 86.8122527,50.9457501 C87.5692155,50.6963461 88.1620967,50.4097504 88.5908964,50.0859629 L89.1422103,51.346109 C88.8096718,51.6873985 88.3524313,52.0111861 87.7704888,52.3174716 C87.1885463,52.6237571 86.5409712,52.8709733 85.8277635,53.0591201 C85.1145559,53.2472669 84.4079114,53.3413403 83.7078303,53.3413403 C82.2376598,53.3413403 80.9972035,53.015365 79.9864613,52.3634144 C78.9757191,51.7114638 78.2209441,50.8013583 77.7221363,49.6330979 C77.2233284,48.4648374 76.9739245,47.1018669 76.9739245,45.5441863 Z M86.241249,44.1133954 C86.276253,43.7983589 86.2937551,43.4220652 86.2937551,42.9845145 C86.2850041,41.8731357 86.0531022,40.9805322 85.5980494,40.306704 C85.1429967,39.6328759 84.4254135,39.2959619 83.4452998,39.2959619 C82.4651862,39.2959619 81.6885336,39.6613167 81.1153422,40.3920264 C80.5421507,41.1227362 80.2161754,42.3631925 80.1374163,44.1133954 L86.241249,44.1133954 Z" id="Shape"></path>
            <path d="M93.8677582,48.7733107 L94.3928191,50.768542 C94.4978313,50.9523133 94.7012924,51.1273336 95.0032024,51.2936029 C95.3051124,51.4598722 95.6617162,51.5955129 96.0730139,51.7005251 C96.4843116,51.8055372 96.9043603,51.8580433 97.33316,51.8580433 C98.3220247,51.8580433 99.0264813,51.6720843 99.44653,51.3001661 C99.8665787,50.928248 100.076603,50.4185014 100.076603,49.7709263 C100.076603,49.3158736 99.9343991,48.9155147 99.6499911,48.5698496 C99.3655831,48.2241845 98.9433467,47.8982092 98.3832818,47.5919237 C97.8232168,47.2856382 97.0618786,46.9399731 96.0992669,46.5549285 C94.7078556,46.0123656 93.6927379,45.3713537 93.0539139,44.631893 C92.4150898,43.8924323 92.0956778,42.9363839 92.0956778,41.763748 C92.0956778,40.9761567 92.3341429,40.2826387 92.8110732,39.6831942 C93.2880035,39.0837497 93.9421418,38.6177582 94.7734882,38.2852197 C95.6048346,37.9526811 96.5411932,37.7864118 97.5825639,37.7864118 C98.3876573,37.7864118 99.0964894,37.8498567 99.7090605,37.9767464 C100.321631,38.1036361 100.938578,38.2677176 101.5599,38.468991 L102.032455,38.6133827 L102.032455,41.9343928 L100.35226,41.9343928 L99.7878196,40.0966797 C99.6828074,39.8691533 99.4005872,39.6722555 98.9411589,39.5059862 C98.4817307,39.3397169 97.9676086,39.2565823 97.3987926,39.2565823 C96.5936993,39.2565823 95.9723772,39.4272271 95.5348265,39.7685166 C95.0972758,40.1098062 94.8785004,40.556108 94.8785004,41.1074219 C94.8785004,41.5974787 95.0075779,42.0087764 95.2657328,42.3413149 C95.5238877,42.6738535 95.8454875,42.9451349 96.2305322,43.1551593 C96.6155768,43.3651836 97.1537642,43.6145876 97.8450944,43.903371 L98.3570287,44.1265219 C99.3546444,44.5553216 100.164113,44.9578683 100.785435,45.3341619 C101.406757,45.7104556 101.923067,46.1917614 102.334365,46.7780793 C102.745663,47.3643973 102.951311,48.0819805 102.951311,48.9308289 C102.951311,49.8059304 102.721597,50.5760197 102.262169,51.2410968 C101.802741,51.9061739 101.137664,52.4224838 100.266938,52.7900264 C99.3962117,53.157569 98.3657797,53.3413403 97.1756417,53.3413403 C96.2830383,53.3413403 95.3466797,53.2188261 94.3665661,52.9737977 C93.3864524,52.7287693 92.6032366,52.4749899 92.0169186,52.2124594 L92.0169186,48.7733107 L93.8677582,48.7733107 Z" id="Path"></path>
            <path d="M107.558721,48.7733107 L108.083781,50.768542 C108.188794,50.9523133 108.392255,51.1273336 108.694165,51.2936029 C108.996075,51.4598722 109.352679,51.5955129 109.763976,51.7005251 C110.175274,51.8055372 110.595323,51.8580433 111.024122,51.8580433 C112.012987,51.8580433 112.717444,51.6720843 113.137492,51.3001661 C113.557541,50.928248 113.767565,50.4185014 113.767565,49.7709263 C113.767565,49.3158736 113.625361,48.9155147 113.340953,48.5698496 C113.056546,48.2241845 112.634309,47.8982092 112.074244,47.5919237 C111.514179,47.2856382 110.752841,46.9399731 109.790229,46.5549285 C108.398818,46.0123656 107.3837,45.3713537 106.744876,44.631893 C106.106052,43.8924323 105.78664,42.9363839 105.78664,41.763748 C105.78664,40.9761567 106.025105,40.2826387 106.502036,39.6831942 C106.978966,39.0837497 107.633104,38.6177582 108.464451,38.2852197 C109.295797,37.9526811 110.232156,37.7864118 111.273526,37.7864118 C112.07862,37.7864118 112.787452,37.8498567 113.400023,37.9767464 C114.012594,38.1036361 114.62954,38.2677176 115.250862,38.468991 L115.723417,38.6133827 L115.723417,41.9343928 L114.043222,41.9343928 L113.478782,40.0966797 C113.37377,39.8691533 113.09155,39.6722555 112.632121,39.5059862 C112.172693,39.3397169 111.658571,39.2565823 111.089755,39.2565823 C110.284662,39.2565823 109.66334,39.4272271 109.225789,39.7685166 C108.788238,40.1098062 108.569463,40.556108 108.569463,41.1074219 C108.569463,41.5974787 108.69854,42.0087764 108.956695,42.3413149 C109.21485,42.6738535 109.53645,42.9451349 109.921495,43.1551593 C110.306539,43.3651836 110.844727,43.6145876 111.536057,43.903371 L112.047991,44.1265219 C113.045607,44.5553216 113.855076,44.9578683 114.476398,45.3341619 C115.09772,45.7104556 115.61403,46.1917614 116.025327,46.7780793 C116.436625,47.3643973 116.642274,48.0819805 116.642274,48.9308289 C116.642274,49.8059304 116.41256,50.5760197 115.953131,51.2410968 C115.493703,51.9061739 114.828626,52.4224838 113.9579,52.7900264 C113.087174,53.157569 112.056742,53.3413403 110.866604,53.3413403 C109.974001,53.3413403 109.037642,53.2188261 108.057528,52.9737977 C107.077415,52.7287693 106.294199,52.4749899 105.707881,52.2124594 L105.707881,48.7733107 L107.558721,48.7733107 Z" id="Path"></path>
            <polygon id="Path" points="128.272372 51.3067294 130.24135 34.8460709 127.432275 34.5179079 127.432275 33.0608639 134.599356 33.0608639 138.721084 45.0978845 139.403663 48.1169846 139.994356 45.0978845 143.630403 33.0608639 150.797484 33.0608639 150.797484 34.5179079 147.883396 34.8591974 150.429941 51.2936029 152.779589 51.6086394 152.779589 53.0394303 144.982435 53.0394303 144.982435 51.6086394 147.305829 51.3067294 145.651887 39.3878475 145.07432 34.1503653 144.16859 37.7470323 139.889344 52.1468268 138.196023 52.1468268 133.457348 39.2172027 132.000304 34.1634918 131.580256 39.374721 130.517007 51.2936029 133.102932 51.6086394 133.102932 53.0394303 125.935851 53.0394303 125.935851 51.6086394"></polygon>
            <path d="M162.690113,43.2864245 C162.690113,42.4638291 162.60479,41.8162541 162.434145,41.3436993 C162.263501,40.8711445 161.968154,40.5254794 161.548105,40.306704 C161.128057,40.0879287 160.532988,39.978541 159.762898,39.978541 C158.283977,39.978541 156.726296,40.3942142 155.089856,41.2255606 L155.07673,41.2255606 L154.420404,39.8604023 C154.656681,39.6503779 155.109546,39.3790965 155.778999,39.0465579 C156.448451,38.7140194 157.20979,38.4230481 158.063014,38.1736442 C158.916238,37.9242403 159.727894,37.7995384 160.497983,37.7995384 C161.775632,37.7995384 162.779811,37.9723709 163.51052,38.318036 C164.24123,38.663701 164.768479,39.2172027 165.092266,39.978541 C165.416054,40.7398793 165.577947,41.7681235 165.577947,43.0632736 L165.577947,51.5955129 L167.179383,51.5955129 L167.179383,52.881912 C165.901735,53.1881975 164.939123,53.3413403 164.291548,53.3413403 C163.924006,53.3413403 163.643973,53.3107117 163.451451,53.2494546 C163.258929,53.1881975 163.116725,53.0634956 163.024839,52.8753488 C162.932953,52.687202 162.88701,52.3962307 162.88701,52.0024351 L162.88701,51.372362 C162.414456,51.8361658 161.793134,52.2802798 161.023044,52.704704 C160.252955,53.1291282 159.39098,53.3413403 158.43712,53.3413403 C157.597022,53.3413403 156.833496,53.1881975 156.146541,52.881912 C155.459587,52.5756265 154.912648,52.1030717 154.505726,51.4642477 C154.098804,50.8254236 153.895343,50.0290813 153.895343,49.0752207 C153.895343,47.9113357 154.300077,46.9530996 155.109546,46.2005124 C155.919015,45.4479251 156.982263,44.8944234 158.299291,44.5400074 C159.616319,44.1855913 161.079926,43.9952567 162.690113,43.9690037 L162.690113,43.2864245 Z M162.690113,45.4523006 C161.403713,45.4523006 160.347028,45.5988801 159.520058,45.8920391 C158.693087,46.1851981 158.093642,46.5724305 157.721724,47.0537363 C157.349806,47.5350421 157.163847,48.0819805 157.163847,48.6945515 C157.163847,49.6134081 157.391373,50.2872362 157.846426,50.7160359 C158.301479,51.1448356 158.91405,51.3592355 159.684139,51.3592355 C160.095437,51.3592355 160.592057,51.2432845 161.173999,51.0113827 C161.755942,50.7794808 162.261313,50.4972606 162.690113,50.164722 L162.690113,45.4523006 Z" id="Shape"></path>
            <path d="M170.907315,51.3854885 L170.907315,40.3854632 L169.030223,39.8604023 L169.030223,38.2852197 L172.915673,37.7601588 L172.981306,37.7601588 L173.598252,38.2720931 L173.598252,39.3353414 L173.585126,39.9391614 C173.987672,39.5803698 174.493044,39.2347047 175.101239,38.9021662 C175.709435,38.5696276 176.361385,38.2983462 177.057091,38.0883218 C177.752797,37.8782975 178.41131,37.7732853 179.032632,37.7732853 C180.170264,37.7732853 181.049741,37.9854974 181.671063,38.4099216 C182.292385,38.8343458 182.725561,39.4884842 182.970589,40.3723366 C183.215617,41.2561891 183.338132,42.4550781 183.338132,43.9690037 L183.338132,51.3854885 L185.228351,51.6086394 L185.228351,53.0394303 L178.638837,53.0394303 L178.638837,51.6086394 L180.319032,51.3854885 L180.319032,43.9558771 C180.319032,42.9407594 180.251211,42.1422294 180.11557,41.5602869 C179.97993,40.9783444 179.723963,40.5407937 179.347669,40.2476347 C178.971375,39.9544757 178.415686,39.8078962 177.680601,39.8078962 C177.050528,39.8078962 176.394202,39.9435369 175.711622,40.2148184 C175.029043,40.4860998 174.429599,40.8142629 173.913289,41.1993075 L173.913289,51.3854885 L175.724749,51.6086394 L175.724749,53.0394303 L169.187741,53.0394303 L169.187741,51.6086394 L170.907315,51.3854885 Z" id="Path"></path>
            <path d="M195.808327,43.2864245 C195.808327,42.4638291 195.723005,41.8162541 195.55236,41.3436993 C195.381715,40.8711445 195.086369,40.5254794 194.66632,40.306704 C194.246271,40.0879287 193.651202,39.978541 192.881113,39.978541 C191.402192,39.978541 189.844511,40.3942142 188.208071,41.2255606 L188.194945,41.2255606 L187.538619,39.8604023 C187.774896,39.6503779 188.227761,39.3790965 188.897214,39.0465579 C189.566666,38.7140194 190.328005,38.4230481 191.181228,38.1736442 C192.034452,37.9242403 192.846109,37.7995384 193.616198,37.7995384 C194.893846,37.7995384 195.898025,37.9723709 196.628735,38.318036 C197.359445,38.663701 197.886693,39.2172027 198.210481,39.978541 C198.534268,40.7398793 198.696162,41.7681235 198.696162,43.0632736 L198.696162,51.5955129 L200.297598,51.5955129 L200.297598,52.881912 C199.01995,53.1881975 198.057338,53.3413403 197.409763,53.3413403 C197.04222,53.3413403 196.762188,53.3107117 196.569666,53.2494546 C196.377143,53.1881975 196.234939,53.0634956 196.143054,52.8753488 C196.051168,52.687202 196.005225,52.3962307 196.005225,52.0024351 L196.005225,51.372362 C195.53267,51.8361658 194.911348,52.2802798 194.141259,52.704704 C193.37117,53.1291282 192.509195,53.3413403 191.555334,53.3413403 C190.715237,53.3413403 189.951711,53.1881975 189.264756,52.881912 C188.577802,52.5756265 188.030863,52.1030717 187.623941,51.4642477 C187.217019,50.8254236 187.013558,50.0290813 187.013558,49.0752207 C187.013558,47.9113357 187.418292,46.9530996 188.227761,46.2005124 C189.03723,45.4479251 190.100478,44.8944234 191.417506,44.5400074 C192.734534,44.1855913 194.198141,43.9952567 195.808327,43.9690037 L195.808327,43.2864245 Z M195.808327,45.4523006 C194.521928,45.4523006 193.465243,45.5988801 192.638272,45.8920391 C191.811301,46.1851981 191.211857,46.5724305 190.839939,47.0537363 C190.468021,47.5350421 190.282062,48.0819805 190.282062,48.6945515 C190.282062,49.6134081 190.509588,50.2872362 190.964641,50.7160359 C191.419694,51.1448356 192.032265,51.3592355 192.802354,51.3592355 C193.213652,51.3592355 193.710272,51.2432845 194.292214,51.0113827 C194.874157,50.7794808 195.379528,50.4972606 195.808327,50.164722 L195.808327,45.4523006 Z" id="Shape"></path>
            <path d="M208.59356,47.7231889 C207.875977,47.7231889 207.206524,47.6488053 206.585202,47.500038 C206.340173,47.7188134 206.147651,47.9704051 206.007635,48.2548131 C205.867619,48.539221 205.797611,48.8301923 205.797611,49.1277268 C205.797611,49.5652775 205.900435,49.9000038 206.106084,50.1319057 C206.311733,50.3638076 206.622394,50.5235136 207.038067,50.6110237 C207.45374,50.6985339 208.024744,50.742289 208.751078,50.742289 L211.61266,50.742289 C215.034307,50.742289 216.74513,52.0549412 216.74513,54.6802455 C216.74513,55.6953632 216.384151,56.6317218 215.662192,57.4893212 C214.940233,58.3469207 213.975434,59.027312 212.767794,59.5304954 C211.560154,60.0336787 210.265004,60.2852704 208.882343,60.2852704 L208.869217,60.2852704 C206.523945,60.2852704 204.821872,59.9286665 203.763,59.2154589 C202.704127,58.5022512 202.174691,57.4936967 202.174691,56.1897956 C202.174691,55.3759512 202.413156,54.6386782 202.890086,53.9779766 C203.367016,53.317275 203.942395,52.8162794 204.616224,52.4749899 C203.767375,51.9936841 203.342951,51.2585988 203.342951,50.2697342 C203.342951,49.6134081 203.531098,49.0074003 203.907391,48.4517109 C204.283685,47.8960215 204.778117,47.447532 205.390688,47.1062424 C204.515587,46.7036957 203.843947,46.132692 203.375767,45.3932313 C202.907588,44.6537705 202.673498,43.7896079 202.673498,42.8007432 C202.673498,41.7681235 202.966657,40.866769 203.552975,40.0966797 C204.139293,39.3265904 204.909383,38.7380847 205.863243,38.3311625 C206.817104,37.9242403 207.836597,37.7164037 208.921723,37.7076527 L208.934849,37.7076527 C209.879959,37.7076527 210.728807,37.8148526 211.481395,38.0292525 C212.233982,38.2436523 212.86843,38.5608766 213.38474,38.9809253 C213.647271,38.6746398 214.041066,38.3814808 214.566127,38.1014484 C215.091188,37.8214159 215.708135,37.6813997 216.416967,37.6813997 L217.125799,37.6813997 L217.125799,40.2279449 L214.369229,40.2279449 C214.675515,40.866769 214.828658,41.5712256 214.828658,42.3413149 C214.828658,43.3914367 214.557376,44.3256075 214.014813,45.1438274 C213.47225,45.9620472 212.728414,46.5964958 211.783305,47.047173 C210.838195,47.4978503 209.779322,47.7231889 208.606686,47.7231889 L208.59356,47.7231889 Z M208.751078,39.2434558 C207.805968,39.2434558 207.073071,39.4994229 206.552386,40.0113573 C206.0317,40.5232916 205.771358,41.3612013 205.771358,42.5250862 C205.771358,43.6277141 206.018574,44.5093788 206.513006,45.1700804 C207.007438,45.830782 207.797217,46.1611328 208.882343,46.1611328 L208.89547,46.1611328 C209.893085,46.1611328 210.617232,45.8635983 211.067909,45.2685293 C211.518586,44.6734603 211.743925,43.8027344 211.743925,42.6563515 C211.743925,41.4837155 211.501084,40.6217406 211.015403,40.0704266 C210.529722,39.5191127 209.779322,39.2434558 208.764205,39.2434558 L208.751078,39.2434558 Z M205.955129,52.9344181 C205.395064,53.6257483 205.115031,54.4527192 205.115031,55.4153308 C205.115031,56.4654525 205.425692,57.2617948 206.047015,57.8043578 C206.668337,58.3469207 207.68783,58.6182021 209.105494,58.6182021 L209.131747,58.6182021 C209.919338,58.6182021 210.671926,58.4956879 211.389509,58.2506595 C212.107092,58.0056311 212.689035,57.642464 213.135336,57.1611582 C213.581638,56.6798524 213.804789,56.1066609 213.804789,55.4415838 C213.804789,54.8727679 213.719467,54.4242784 213.548822,54.0961153 C213.378177,53.7679523 213.065328,53.5207361 212.610275,53.3544668 C212.155223,53.1881975 211.494521,53.1050629 210.628171,53.1050629 L207.98974,53.1050629 C207.272157,53.1050629 206.593953,53.0481813 205.955129,52.9344181 Z" id="Shape"></path>
            <path d="M218.530337,45.5441863 C218.530337,44.0040077 218.832247,42.6388494 219.436067,41.4487114 C220.039887,40.2585735 220.875609,39.3375292 221.943233,38.6855786 C223.010856,38.033628 224.222872,37.7076527 225.579279,37.7076527 C227.259474,37.7076527 228.559,38.167081 229.477856,39.0859375 C230.396713,40.004794 230.886769,41.3305727 230.948027,43.0632736 L230.948027,43.5358284 C230.948027,44.454685 230.89552,45.1547661 230.790508,45.6360719 L221.693829,45.6360719 C221.728833,46.9224711 221.947608,47.9900949 222.350155,48.8389433 C222.752701,49.6877917 223.282138,50.3134892 223.938464,50.7160359 C224.59479,51.1185826 225.334251,51.3198559 226.156846,51.3198559 C226.874429,51.3198559 227.611702,51.195154 228.368665,50.9457501 C229.125628,50.6963461 229.718509,50.4097504 230.147309,50.0859629 L230.698623,51.346109 C230.366084,51.6873985 229.908844,52.0111861 229.326901,52.3174716 C228.744959,52.6237571 228.097384,52.8709733 227.384176,53.0591201 C226.670968,53.2472669 225.964324,53.3413403 225.264243,53.3413403 C223.794072,53.3413403 222.553616,53.015365 221.542874,52.3634144 C220.532131,51.7114638 219.777356,50.8013583 219.278549,49.6330979 C218.779741,48.4648374 218.530337,47.1018669 218.530337,45.5441863 Z M227.797661,44.1133954 C227.832665,43.7983589 227.850167,43.4220652 227.850167,42.9845145 C227.841416,41.8731357 227.609515,40.9805322 227.154462,40.306704 C226.699409,39.6328759 225.981826,39.2959619 225.001712,39.2959619 C224.021599,39.2959619 223.244946,39.6613167 222.671755,40.3920264 C222.098563,41.1227362 221.772588,42.3631925 221.693829,44.1133954 L227.797661,44.1133954 Z" id="Shape"></path>
            <path d="M235.069754,51.3986151 L235.069754,40.3854632 L233.192662,39.8604023 L233.192662,38.2852197 L237.064986,37.7601588 L237.130618,37.7601588 L237.760691,38.2720931 L237.760691,39.3353414 L237.734438,39.9391614 C238.128234,39.5803698 238.637981,39.2347047 239.263678,38.9021662 C239.889376,38.5696276 240.550077,38.2983462 241.245783,38.0883218 C241.941489,37.8782975 242.573749,37.7732853 243.142565,37.7732853 C244.105177,37.7732853 244.879642,37.9351791 245.46596,38.2589666 C246.052278,38.5827542 246.49858,39.0859375 246.804865,39.7685166 C247.146155,39.4709821 247.616522,39.1668844 248.215966,38.8562234 C248.815411,38.5455623 249.456422,38.2874074 250.139002,38.0817586 C250.821581,37.8761097 251.456029,37.7732853 252.042347,37.7732853 C253.179979,37.7732853 254.063832,37.9854974 254.693905,38.4099216 C255.323978,38.8343458 255.765904,39.4862964 256.019683,40.3657734 C256.273463,41.2452504 256.400353,42.4332006 256.400353,43.9296241 L256.400353,51.3986151 L258.277445,51.6217659 L258.277445,53.0394303 L251.845449,53.0394303 L251.845449,51.6217659 L253.394379,51.3854885 L253.394379,44.0215097 C253.394379,42.997641 253.319995,42.1881722 253.171228,41.5931032 C253.022461,40.9980342 252.742428,40.5495447 252.331131,40.2476347 C251.919833,39.9457247 251.32914,39.7947697 250.55905,39.7947697 C250.025238,39.7947697 249.443296,39.9172839 248.813223,40.1623123 C248.18315,40.4073407 247.640587,40.6917487 247.185534,41.0155362 C247.343052,41.7681235 247.421812,42.7526126 247.421812,43.9690037 L247.421812,51.3854885 L249.338284,51.6217659 L249.338284,53.0394303 L242.670011,53.0394303 L242.670011,51.6217659 L244.415838,51.3854885 L244.415838,43.9558771 C244.415838,42.9320084 244.350205,42.1312906 244.21894,41.5537236 C244.087675,40.9761567 243.831708,40.5407937 243.451039,40.2476347 C243.07037,39.9544757 242.512492,39.8078962 241.777407,39.8078962 C241.164836,39.8078962 240.521637,39.9391614 239.847808,40.2016919 C239.17398,40.4642223 238.583287,40.7880098 238.075728,41.1730545 L238.075728,51.3854885 L239.834682,51.6217659 L239.834682,53.0394303 L233.428939,53.0394303 L233.428939,51.6217659 L235.069754,51.3986151 Z" id="Path"></path>
            <path d="M260.088905,45.5441863 C260.088905,44.0040077 260.390815,42.6388494 260.994635,41.4487114 C261.598455,40.2585735 262.434177,39.3375292 263.501801,38.6855786 C264.569425,38.033628 265.78144,37.7076527 267.137848,37.7076527 C268.818042,37.7076527 270.117568,38.167081 271.036425,39.0859375 C271.955281,40.004794 272.445338,41.3305727 272.506595,43.0632736 L272.506595,43.5358284 C272.506595,44.454685 272.454089,45.1547661 272.349077,45.6360719 L263.252397,45.6360719 C263.287401,46.9224711 263.506176,47.9900949 263.908723,48.8389433 C264.31127,49.6877917 264.840706,50.3134892 265.497032,50.7160359 C266.153358,51.1185826 266.892819,51.3198559 267.715414,51.3198559 C268.432998,51.3198559 269.170271,51.195154 269.927233,50.9457501 C270.684196,50.6963461 271.277077,50.4097504 271.705877,50.0859629 L272.257191,51.346109 C271.924652,51.6873985 271.467412,52.0111861 270.88547,52.3174716 C270.303527,52.6237571 269.655952,52.8709733 268.942744,53.0591201 C268.229537,53.2472669 267.522892,53.3413403 266.822811,53.3413403 C265.352641,53.3413403 264.112184,53.015365 263.101442,52.3634144 C262.0907,51.7114638 261.335925,50.8013583 260.837117,49.6330979 C260.338309,48.4648374 260.088905,47.1018669 260.088905,45.5441863 Z M269.35623,44.1133954 C269.391234,43.7983589 269.408736,43.4220652 269.408736,42.9845145 C269.399985,41.8731357 269.168083,40.9805322 268.71303,40.306704 C268.257977,39.6328759 267.540394,39.2959619 266.560281,39.2959619 C265.580167,39.2959619 264.803514,39.6613167 264.230323,40.3920264 C263.657131,41.1227362 263.331156,42.3631925 263.252397,44.1133954 L269.35623,44.1133954 Z" id="Shape"></path>
            <path d="M276.628323,51.3854885 L276.628323,40.3854632 L274.75123,39.8604023 L274.75123,38.2852197 L278.636681,37.7601588 L278.702313,37.7601588 L279.31926,38.2720931 L279.31926,39.3353414 L279.306133,39.9391614 C279.70868,39.5803698 280.214051,39.2347047 280.822247,38.9021662 C281.430442,38.5696276 282.082393,38.2983462 282.778098,38.0883218 C283.473804,37.8782975 284.132318,37.7732853 284.75364,37.7732853 C285.891272,37.7732853 286.770749,37.9854974 287.392071,38.4099216 C288.013393,38.8343458 288.446568,39.4884842 288.691596,40.3723366 C288.936625,41.2561891 289.059139,42.4550781 289.059139,43.9690037 L289.059139,51.3854885 L290.949358,51.6086394 L290.949358,53.0394303 L284.359844,53.0394303 L284.359844,51.6086394 L286.040039,51.3854885 L286.040039,43.9558771 C286.040039,42.9407594 285.972219,42.1422294 285.836578,41.5602869 C285.700937,40.9783444 285.44497,40.5407937 285.068676,40.2476347 C284.692383,39.9544757 284.136693,39.8078962 283.401608,39.8078962 C282.771535,39.8078962 282.115209,39.9435369 281.43263,40.2148184 C280.750051,40.4860998 280.150606,40.8142629 279.634296,41.1993075 L279.634296,51.3854885 L281.445756,51.6086394 L281.445756,53.0394303 L274.908748,53.0394303 L274.908748,51.6086394 L276.628323,51.3854885 Z" id="Path"></path>
            <path d="M292.498288,39.9916675 L292.498288,38.7446479 C292.743316,38.6833908 293.025536,38.5958807 293.344949,38.4821175 C293.664361,38.3683543 293.872197,38.2808442 293.968458,38.2195871 C294.257242,38.0095627 294.493519,37.6682731 294.67729,37.1957183 C294.808556,36.8981838 294.981388,36.4234413 295.195788,35.7714907 C295.410188,35.1195401 295.556767,34.6272956 295.635527,34.294757 L297.341974,34.294757 L297.368227,38.1145749 L301.778739,38.1145749 L301.778739,39.9916675 L297.381354,39.9916675 L297.381354,47.9332133 C297.381354,49.0008371 297.411983,49.7424855 297.47324,50.1581587 C297.534497,50.5738319 297.659199,50.8407379 297.847346,50.9588766 C298.035492,51.0770153 298.37897,51.1360846 298.877777,51.1360846 L298.890904,51.1360846 C299.345957,51.1360846 299.860079,51.079203 300.43327,50.9654398 C301.006462,50.8516766 301.450576,50.7335379 301.765612,50.6110237 L301.778739,50.6110237 L302.225041,51.8842964 C301.96251,52.1030717 301.568714,52.3240349 301.043654,52.5471857 C300.518593,52.7703366 299.954152,52.9562957 299.350332,53.1050629 C298.746512,53.2538302 298.190823,53.3282138 297.683264,53.3282138 L297.657011,53.3282138 C296.571885,53.3282138 295.753665,53.0897486 295.202351,52.6128183 C294.651037,52.135888 294.37538,51.337358 294.37538,50.2172281 L294.37538,39.9916675 L292.498288,39.9916675 Z" id="Path"></path>
        </g>
        <g id="mark/tbm1">
            <path d="M32,64.0002 C14.327,64.0002 0,49.6732 0,32.0002 C0,14.3272 14.327,0.0002 32,0.0002 C49.673,0.0002 64,14.3272 64,32.0002 C64,49.6732 49.673,64.0002 32,64.0002 Z" id="circle" fill="#0053A2" fill-rule="nonzero"></path>
            <polygon id="Fill-46" stroke="#F5EA14" stroke-width="2" points="16 50 48 50 41 42 23 42"></polygon>
            <path d="M32,48 C32.2213364,48 32.368894,47.9244332 32.5164516,47.7732997 C33.0329032,47.2443325 45.6842105,34.0633321 45.6842105,22.015833 C45.6842105,14.2900324 39.5430039,8 32,8 C24.4569961,8 18.3157895,14.2900324 18.3157895,22.015833 C18.3157895,34.0633321 30.8898047,47.2443325 31.4835484,47.7732997 C31.631106,47.9244332 31.7786636,48 32,48" id="Path" fill="#F5EA14"></path>
            <path d="M31.9818182,23.8 L37.4890759,29.2929224 C36.2021408,30.9417953 34.2115715,32 31.9868266,32 C29.7558174,32 27.769111,30.9358276 26.4899599,29.2789798 L31.9818182,23.8 Z M39,16 L39,24.8888254 C39,25.2406685 38.9746857,25.5865419 38.9258183,25.9246913 L31.9818182,19 L25.0692042,25.893656 C25.0235914,25.5653882 25,25.229912 25,24.8888254 L25,24.8888254 L25,16 L39,16 Z" id="icon" fill="#083C6F"></path>
        </g>
    </g>
</svg>