<?xml version="1.0" encoding="UTF-8"?>
<svg width="833px" height="64px" viewBox="0 0 833 64" version="1.1" xmlns="http://www.w3.org/2000/svg" xmlns:xlink="http://www.w3.org/1999/xlink">
    <title>logo/tssec/color-dark/long/tssec-logo-color-dark-long</title>
    <g id="logo/tssec/color-dark/long/tssec-logo-color-dark-long" stroke="none" stroke-width="1" fill="none" fill-rule="evenodd">
        <g id="Group">
            <path d="M64,32.0002 C64,49.6732 49.673,64.0002 32,64.0002 C14.327,64.0002 0,49.6732 0,32.0002 C0,14.3272 14.327,0.0002 32,0.0002 C49.673,0.0002 64,14.3272 64,32.0002" id="circle" fill="#083C6F"></path>
            <path d="M48,43.9999 L48.0006,46.1769 C48.0006,47.7649 46.7126,49.0509 45.1266,49.0509 L45.1266,49.0509 L18.8746,49.0509 C17.2866,49.0509 16.0006,47.7649 16.0006,46.1769 L16.0006,46.1769 L16,33.9999 L38,33.9999 L38,36.307613 C38,36.9184408 38.6940909,37.2283841 39.1084645,36.8039106 L43.8012292,31.9962303 C44.0662569,31.7244637 44.0662569,31.2754018 43.8012292,31.0036352 L39.1084645,26.1959549 C38.6940909,25.7714814 38,26.0820718 38,26.6922525 L38,28.9999 L16,28.9999 L16.0006,27.0769 C16.0006,25.5465786 17.1963832,24.2952112 18.7056576,24.2077798 L18.8746,24.2029 L21.1506,24.2029 L21.1506,20.5229 C21.1506,14.5409 26.0176,9.6739 32.0006,9.6739 C37.9826,9.6739 42.8486,14.5409 42.8486,20.5229 L42.8486,20.5229 L42.8486,24.2029 L45.1266,24.2029 C46.7126,24.2029 48.0006,25.4899 48.0006,27.0769 L48.0006,27.0769 L48,38.9999 L27,38.9999 L27,36.6928561 C27,36.0820482 26.3059799,35.7714679 25.8910366,36.1959276 L21.1987505,41.0040988 C20.9337498,41.2758565 20.9337498,41.7249039 21.1987505,41.9960146 L25.8910366,46.8041858 C26.3059799,47.2286455 27,46.9174182 27,46.3079044 L27,43.9999 L48,43.9999 Z M32.0006,14.5879 C28.7276,14.5879 26.0646,17.2509 26.0646,20.5229 L26.0646,20.5229 L26.0646,24.2029 L37.9346,24.2029 L37.9346,20.5229 C37.9346,17.2509 35.2726,14.5879 32.0006,14.5879 Z" id="icon" fill="#F5EA14"></path>
        </g>
        <g id="Treasury-Shared-Serv" transform="translate(75.468750, 18.405273)" fill="#000000">
            <polygon id="Path" points="8.10058594 22.6464844 8.10058594 4.04296875 3.22265625 4.18945312 2.12402344 10.3125 0 10.3125 0.512695312 2.29980469 19.0576172 2.29980469 19.5263672 10.3125 17.4316406 10.3125 16.3183594 4.18945312 11.6308594 4.04296875 11.6308594 22.6464844 15.7763672 22.9980469 15.7763672 24.5947266 4.27734375 24.5947266 4.27734375 22.9980469"></polygon>
            <path d="M23.8623047,22.7783203 L23.8623047,10.4736328 L21.7822266,9.88769531 L21.7822266,8.12988281 L25.9716797,7.54394531 L26.0449219,7.54394531 L26.7480469,8.11523438 L26.7480469,9.03808594 L26.71875,10.9423828 L26.7480469,10.9423828 C26.9238281,10.6201172 27.2631836,10.1879883 27.7661133,9.64599609 C28.269043,9.10400391 28.918457,8.60839844 29.7143555,8.15917969 C30.5102539,7.70996094 31.3769531,7.48535156 32.3144531,7.48535156 C32.6953125,7.48535156 33.0175781,7.5390625 33.28125,7.64648438 L33.28125,11.25 C33.0957031,11.1425781 32.8491211,11.0522461 32.5415039,10.9790039 C32.2338867,10.9057617 31.9042969,10.8691406 31.5527344,10.8691406 C30.5664062,10.8691406 29.7143555,10.9887695 28.996582,11.2280273 C28.2788086,11.4672852 27.6806641,11.7675781 27.2021484,12.1289062 L27.2021484,22.7636719 L31.0546875,23.0273438 L31.0546875,24.5947266 L21.5625,24.5947266 L21.5625,23.0126953 L23.8623047,22.7783203 Z" id="Path"></path>
            <path d="M35.2587891,16.2304688 C35.2587891,14.5117188 35.5957031,12.9882812 36.2695312,11.6601562 C36.9433594,10.3320312 37.8759766,9.30419922 39.0673828,8.57666016 C40.2587891,7.84912109 41.6113281,7.48535156 43.125,7.48535156 C45,7.48535156 46.4501953,7.99804688 47.4755859,9.0234375 C48.5009766,10.0488281 49.0478516,11.5283203 49.1162109,13.4619141 L49.1162109,13.9892578 C49.1162109,15.0146484 49.0576172,15.7958984 48.9404297,16.3330078 L38.7890625,16.3330078 C38.828125,17.7685547 39.0722656,18.9599609 39.5214844,19.9072266 C39.9707031,20.8544922 40.5615234,21.5527344 41.2939453,22.0019531 C42.0263672,22.4511719 42.8515625,22.6757812 43.7695312,22.6757812 C44.5703125,22.6757812 45.3930664,22.5366211 46.237793,22.2583008 C47.0825195,21.9799805 47.7441406,21.6601562 48.2226562,21.2988281 L48.8378906,22.7050781 C48.4667969,23.0859375 47.956543,23.4472656 47.3071289,23.7890625 C46.6577148,24.1308594 45.9350586,24.4067383 45.1391602,24.6166992 C44.3432617,24.8266602 43.5546875,24.9316406 42.7734375,24.9316406 C41.1328125,24.9316406 39.7485352,24.5678711 38.6206055,23.840332 C37.4926758,23.112793 36.6503906,22.097168 36.09375,20.793457 C35.5371094,19.4897461 35.2587891,17.96875 35.2587891,16.2304688 Z M45.6005859,14.6337891 C45.6396484,14.2822266 45.6591797,13.8623047 45.6591797,13.3740234 C45.6494141,12.1337891 45.390625,11.1376953 44.8828125,10.3857422 C44.375,9.63378906 43.5742188,9.2578125 42.4804688,9.2578125 C41.3867188,9.2578125 40.5200195,9.66552734 39.8803711,10.480957 C39.2407227,11.2963867 38.8769531,12.6806641 38.7890625,14.6337891 L45.6005859,14.6337891 Z" id="Shape"></path>
            <path d="M61.3623047,13.7109375 C61.3623047,12.7929688 61.2670898,12.0703125 61.0766602,11.5429688 C60.8862305,11.015625 60.5566406,10.6298828 60.0878906,10.3857422 C59.6191406,10.1416016 58.9550781,10.0195312 58.0957031,10.0195312 C56.4453125,10.0195312 54.7070312,10.4833984 52.8808594,11.4111328 L52.8662109,11.4111328 L52.1337891,9.88769531 C52.3974609,9.65332031 52.902832,9.35058594 53.6499023,8.97949219 C54.3969727,8.60839844 55.246582,8.28369141 56.1987305,8.00537109 C57.1508789,7.72705078 58.0566406,7.58789062 58.9160156,7.58789062 C60.3417969,7.58789062 61.4624023,7.78076172 62.277832,8.16650391 C63.0932617,8.55224609 63.6816406,9.16992188 64.0429688,10.0195312 C64.4042969,10.8691406 64.5849609,12.0166016 64.5849609,13.4619141 L64.5849609,22.9833984 L66.3720703,22.9833984 L66.3720703,24.4189453 C64.9462891,24.7607422 63.8720703,24.9316406 63.1494141,24.9316406 C62.7392578,24.9316406 62.4267578,24.8974609 62.2119141,24.8291016 C61.9970703,24.7607422 61.8383789,24.621582 61.7358398,24.4116211 C61.6333008,24.2016602 61.5820312,23.8769531 61.5820312,23.4375 L61.5820312,22.734375 C61.0546875,23.2519531 60.3613281,23.7475586 59.5019531,24.2211914 C58.6425781,24.6948242 57.6806641,24.9316406 56.6162109,24.9316406 C55.6787109,24.9316406 54.8266602,24.7607422 54.0600586,24.4189453 C53.293457,24.0771484 52.6831055,23.5498047 52.2290039,22.8369141 C51.7749023,22.1240234 51.5478516,21.2353516 51.5478516,20.1708984 C51.5478516,18.8720703 51.9995117,17.8027344 52.902832,16.9628906 C53.8061523,16.1230469 54.9926758,15.5053711 56.4624023,15.1098633 C57.9321289,14.7143555 59.5654297,14.5019531 61.3623047,14.4726562 L61.3623047,13.7109375 Z M61.3623047,16.1279297 C59.9267578,16.1279297 58.7475586,16.2915039 57.824707,16.6186523 C56.9018555,16.9458008 56.2329102,17.3779297 55.8178711,17.9150391 C55.402832,18.4521484 55.1953125,19.0625 55.1953125,19.7460938 C55.1953125,20.7714844 55.4492188,21.5234375 55.9570312,22.0019531 C56.4648438,22.4804688 57.1484375,22.7197266 58.0078125,22.7197266 C58.4667969,22.7197266 59.0209961,22.590332 59.6704102,22.331543 C60.3198242,22.0727539 60.8837891,21.7578125 61.3623047,21.3867188 L61.3623047,16.1279297 Z" id="Shape"></path>
            <path d="M70.9277344,19.8339844 L71.5136719,22.0605469 C71.6308594,22.265625 71.8579102,22.4609375 72.1948242,22.6464844 C72.5317383,22.8320312 72.9296875,22.9833984 73.3886719,23.1005859 C73.8476562,23.2177734 74.3164062,23.2763672 74.7949219,23.2763672 C75.8984375,23.2763672 76.6845703,23.0688477 77.1533203,22.6538086 C77.6220703,22.2387695 77.8564453,21.6699219 77.8564453,20.9472656 C77.8564453,20.4394531 77.6977539,19.9926758 77.3803711,19.6069336 C77.0629883,19.2211914 76.5917969,18.8574219 75.9667969,18.515625 C75.3417969,18.1738281 74.4921875,17.7880859 73.4179688,17.3583984 C71.8652344,16.7529297 70.7324219,16.0375977 70.0195312,15.2124023 C69.3066406,14.387207 68.9501953,13.3203125 68.9501953,12.0117188 C68.9501953,11.1328125 69.2163086,10.3588867 69.7485352,9.68994141 C70.2807617,9.02099609 71.0107422,8.50097656 71.9384766,8.12988281 C72.8662109,7.75878906 73.9111328,7.57324219 75.0732422,7.57324219 C75.9716797,7.57324219 76.7626953,7.64404297 77.4462891,7.78564453 C78.1298828,7.92724609 78.8183594,8.11035156 79.5117188,8.33496094 L80.0390625,8.49609375 L80.0390625,12.2021484 L78.1640625,12.2021484 L77.5341797,10.1513672 C77.4169922,9.89746094 77.1020508,9.67773438 76.5893555,9.4921875 C76.0766602,9.30664062 75.5029297,9.21386719 74.8681641,9.21386719 C73.9697266,9.21386719 73.2763672,9.40429688 72.7880859,9.78515625 C72.2998047,10.1660156 72.0556641,10.6640625 72.0556641,11.2792969 C72.0556641,11.8261719 72.199707,12.2851562 72.487793,12.65625 C72.7758789,13.0273438 73.1347656,13.3300781 73.5644531,13.5644531 C73.9941406,13.7988281 74.5947266,14.0771484 75.3662109,14.3994141 L75.9375,14.6484375 C77.0507812,15.1269531 77.9541016,15.5761719 78.6474609,15.9960938 C79.3408203,16.4160156 79.9169922,16.953125 80.3759766,17.6074219 C80.8349609,18.2617188 81.0644531,19.0625 81.0644531,20.0097656 C81.0644531,20.9863281 80.8081055,21.8457031 80.2954102,22.5878906 C79.7827148,23.3300781 79.0405273,23.90625 78.0688477,24.3164062 C77.097168,24.7265625 75.9472656,24.9316406 74.6191406,24.9316406 C73.6230469,24.9316406 72.578125,24.7949219 71.484375,24.5214844 C70.390625,24.2480469 69.5166016,23.9648438 68.8623047,23.671875 L68.8623047,19.8339844 L70.9277344,19.8339844 Z" id="Path"></path>
            <path d="M95.6982422,22.6025391 C95.0732422,23.2080078 94.2822266,23.7475586 93.3251953,24.2211914 C92.3681641,24.6948242 91.4013672,24.9316406 90.4248047,24.9316406 C89.2041016,24.9316406 88.2128906,24.7143555 87.4511719,24.2797852 C86.6894531,23.8452148 86.1279297,23.1542969 85.7666016,22.2070312 C85.4052734,21.2597656 85.2246094,20.0097656 85.2246094,18.4570312 L85.2246094,9.9609375 L83.5986328,9.41894531 L83.5986328,7.99804688 L87.9345703,7.55859375 L87.9492188,7.55859375 L88.5644531,7.95410156 L88.5644531,18.2958984 C88.5644531,19.4091797 88.6474609,20.2783203 88.8134766,20.9033203 C88.9794922,21.5283203 89.2724609,21.9848633 89.6923828,22.2729492 C90.1123047,22.5610352 90.7177734,22.7050781 91.5087891,22.7050781 C92.2705078,22.7050781 92.9785156,22.5585938 93.6328125,22.265625 C94.2871094,21.9726562 94.8535156,21.6357422 95.3320312,21.2548828 L95.3320312,9.97558594 L93.2373047,9.40429688 L93.2373047,7.98339844 L97.8662109,7.55859375 L97.8955078,7.55859375 L98.671875,7.95410156 L98.671875,22.9394531 L100.429688,22.9394531 L100.429688,24.4042969 C99.8632812,24.5703125 99.3725586,24.699707 98.9575195,24.7924805 C98.5424805,24.8852539 98.0664062,24.9316406 97.5292969,24.9316406 C96.9042969,24.9316406 96.4428711,24.8120117 96.1450195,24.5727539 C95.847168,24.3334961 95.6982422,23.9306641 95.6982422,23.3642578 L95.6982422,22.6025391 Z" id="Path"></path>
            <path d="M105.205078,22.7783203 L105.205078,10.4736328 L103.125,9.88769531 L103.125,8.12988281 L107.314453,7.54394531 L107.387695,7.54394531 L108.09082,8.11523438 L108.09082,9.03808594 L108.061523,10.9423828 L108.09082,10.9423828 C108.266602,10.6201172 108.605957,10.1879883 109.108887,9.64599609 C109.611816,9.10400391 110.26123,8.60839844 111.057129,8.15917969 C111.853027,7.70996094 112.719727,7.48535156 113.657227,7.48535156 C114.038086,7.48535156 114.360352,7.5390625 114.624023,7.64648438 L114.624023,11.25 C114.438477,11.1425781 114.191895,11.0522461 113.884277,10.9790039 C113.57666,10.9057617 113.24707,10.8691406 112.895508,10.8691406 C111.90918,10.8691406 111.057129,10.9887695 110.339355,11.2280273 C109.621582,11.4672852 109.023438,11.7675781 108.544922,12.1289062 L108.544922,22.7636719 L112.397461,23.0273438 L112.397461,24.5947266 L102.905273,24.5947266 L102.905273,23.0126953 L105.205078,22.7783203 Z" id="Path"></path>
            <path d="M117.495117,29.0771484 C117.612305,29.1455078 117.851562,29.206543 118.212891,29.2602539 C118.574219,29.3139648 118.916016,29.3408203 119.238281,29.3408203 C119.824219,29.3408203 120.36377,29.2211914 120.856934,28.9819336 C121.350098,28.7426758 121.850586,28.2763672 122.358398,27.5830078 C122.866211,26.8896484 123.359375,25.8935547 123.837891,24.5947266 L122.182617,24.5947266 L116.704102,9.87304688 L115.3125,9.4921875 L115.3125,7.93945312 L122.768555,7.93945312 L122.768555,9.4921875 L120.46875,9.87304688 L123.295898,18.7207031 L124.599609,22.96875 L125.771484,18.7060547 L128.422852,9.85839844 L126.459961,9.4921875 L126.459961,7.93945312 L132.612305,7.93945312 L132.612305,9.4921875 L131.118164,9.85839844 C129.711914,14.2333984 128.566895,17.7270508 127.683105,20.3393555 C126.799316,22.9516602 126.235352,24.5361328 125.991211,25.0927734 C125.327148,26.7724609 124.699707,28.1005859 124.108887,29.0771484 C123.518066,30.0537109 122.834473,30.7958984 122.058105,31.3037109 C121.281738,31.8115234 120.332031,32.0654297 119.208984,32.0654297 C118.90625,32.0654297 118.579102,32.043457 118.227539,31.9995117 C117.875977,31.9555664 117.631836,31.9042969 117.495117,31.8457031 L117.495117,29.0771484 Z" id="Path"></path>
            <path d="M143.62793,18.1494141 L145.664062,18.1494141 L146.25,21.8994141 C146.582031,22.2509766 147.119141,22.5512695 147.861328,22.800293 C148.603516,23.0493164 149.40918,23.1738281 150.27832,23.1738281 C151.733398,23.1738281 152.82959,22.8491211 153.566895,22.199707 C154.304199,21.550293 154.672852,20.6494141 154.672852,19.4970703 C154.672852,18.7451172 154.470215,18.0981445 154.064941,17.5561523 C153.659668,17.0141602 153.110352,16.5380859 152.416992,16.1279297 C151.723633,15.7177734 150.771484,15.2392578 149.560547,14.6923828 C148.505859,14.2138672 147.558594,13.6962891 146.71875,13.1396484 C145.878906,12.5830078 145.15625,11.8603516 144.550781,10.9716797 C143.945312,10.0830078 143.642578,9.03320312 143.642578,7.82226563 C143.642578,6.70898438 143.94043,5.71533203 144.536133,4.84130859 C145.131836,3.96728516 145.981445,3.28369141 147.084961,2.79052734 C148.188477,2.29736328 149.472656,2.05078125 150.9375,2.05078125 C151.835938,2.05078125 152.666016,2.12646484 153.427734,2.27783203 C154.189453,2.42919922 154.980469,2.62207031 155.800781,2.85644531 C156.230469,2.98339844 156.577148,3.07128906 156.84082,3.12011719 L156.650391,8.14453125 L154.6875,8.14453125 L154.013672,4.58496094 C153.828125,4.37988281 153.4375,4.19189453 152.841797,4.02099609 C152.246094,3.85009766 151.601562,3.76464844 150.908203,3.76464844 C148.271484,3.76464844 146.953125,4.82910156 146.953125,6.95800781 C146.953125,7.70019531 147.15332,8.33496094 147.553711,8.86230469 C147.954102,9.38964844 148.486328,9.85595703 149.150391,10.2612305 C149.814453,10.6665039 150.795898,11.1865234 152.094727,11.8212891 C153.383789,12.4560547 154.438477,13.0371094 155.258789,13.5644531 C156.079102,14.0917969 156.782227,14.7631836 157.368164,15.5786133 C157.954102,16.394043 158.24707,17.3583984 158.24707,18.4716797 C158.24707,19.5458984 157.946777,20.5786133 157.346191,21.5698242 C156.745605,22.5610352 155.842285,23.3691406 154.63623,23.9941406 C153.430176,24.6191406 151.967773,24.9316406 150.249023,24.9316406 C149.194336,24.9316406 148.232422,24.8364258 147.363281,24.6459961 C146.494141,24.4555664 145.59082,24.2089844 144.65332,23.90625 C144.008789,23.7011719 143.583984,23.5888672 143.378906,23.5693359 L143.62793,18.1494141 Z" id="Path"></path>
            <path d="M162.524414,22.7636719 L162.524414,2.31445312 L160.107422,2.02148438 L160.107422,0.629882812 L165.073242,0 L165.146484,0 L165.849609,0.498046875 L165.864258,7.29492187 L165.732422,9.91699219 C166.396484,9.33105469 167.265625,8.79150391 168.339844,8.29833984 C169.414062,7.80517578 170.517578,7.55859375 171.650391,7.55859375 C172.900391,7.55859375 173.874512,7.79785156 174.572754,8.27636719 C175.270996,8.75488281 175.759277,9.48974609 176.037598,10.480957 C176.315918,11.472168 176.455078,12.8027344 176.455078,14.4726562 L176.455078,22.7490234 L178.564453,22.9980469 L178.564453,24.5947266 L171.196289,24.5947266 L171.196289,23.0126953 L173.115234,22.7636719 L173.115234,14.4580078 C173.115234,13.3251953 173.039551,12.434082 172.888184,11.784668 C172.736816,11.1352539 172.446289,10.6469727 172.016602,10.3198242 C171.586914,9.99267578 170.957031,9.82910156 170.126953,9.82910156 C169.423828,9.82910156 168.686523,9.97314453 167.915039,10.2612305 C167.143555,10.5493164 166.464844,10.9130859 165.878906,11.3525391 L165.878906,22.7490234 L167.958984,22.9980469 L167.958984,24.5947266 L160.766602,24.5947266 L160.766602,22.9980469 L162.524414,22.7636719 Z" id="Path"></path>
            <path d="M190.385742,13.7109375 C190.385742,12.7929688 190.290527,12.0703125 190.100098,11.5429688 C189.909668,11.015625 189.580078,10.6298828 189.111328,10.3857422 C188.642578,10.1416016 187.978516,10.0195312 187.119141,10.0195312 C185.46875,10.0195312 183.730469,10.4833984 181.904297,11.4111328 L181.889648,11.4111328 L181.157227,9.88769531 C181.420898,9.65332031 181.92627,9.35058594 182.67334,8.97949219 C183.42041,8.60839844 184.27002,8.28369141 185.222168,8.00537109 C186.174316,7.72705078 187.080078,7.58789062 187.939453,7.58789062 C189.365234,7.58789062 190.48584,7.78076172 191.30127,8.16650391 C192.116699,8.55224609 192.705078,9.16992188 193.066406,10.0195312 C193.427734,10.8691406 193.608398,12.0166016 193.608398,13.4619141 L193.608398,22.9833984 L195.395508,22.9833984 L195.395508,24.4189453 C193.969727,24.7607422 192.895508,24.9316406 192.172852,24.9316406 C191.762695,24.9316406 191.450195,24.8974609 191.235352,24.8291016 C191.020508,24.7607422 190.861816,24.621582 190.759277,24.4116211 C190.656738,24.2016602 190.605469,23.8769531 190.605469,23.4375 L190.605469,22.734375 C190.078125,23.2519531 189.384766,23.7475586 188.525391,24.2211914 C187.666016,24.6948242 186.704102,24.9316406 185.639648,24.9316406 C184.702148,24.9316406 183.850098,24.7607422 183.083496,24.4189453 C182.316895,24.0771484 181.706543,23.5498047 181.252441,22.8369141 C180.79834,22.1240234 180.571289,21.2353516 180.571289,20.1708984 C180.571289,18.8720703 181.022949,17.8027344 181.92627,16.9628906 C182.82959,16.1230469 184.016113,15.5053711 185.48584,15.1098633 C186.955566,14.7143555 188.588867,14.5019531 190.385742,14.4726562 L190.385742,13.7109375 Z M190.385742,16.1279297 C188.950195,16.1279297 187.770996,16.2915039 186.848145,16.6186523 C185.925293,16.9458008 185.256348,17.3779297 184.841309,17.9150391 C184.42627,18.4521484 184.21875,19.0625 184.21875,19.7460938 C184.21875,20.7714844 184.472656,21.5234375 184.980469,22.0019531 C185.488281,22.4804688 186.171875,22.7197266 187.03125,22.7197266 C187.490234,22.7197266 188.044434,22.590332 188.693848,22.331543 C189.343262,22.0727539 189.907227,21.7578125 190.385742,21.3867188 L190.385742,16.1279297 Z" id="Shape"></path>
            <path d="M199.804688,22.7783203 L199.804688,10.4736328 L197.724609,9.88769531 L197.724609,8.12988281 L201.914062,7.54394531 L201.987305,7.54394531 L202.69043,8.11523438 L202.69043,9.03808594 L202.661133,10.9423828 L202.69043,10.9423828 C202.866211,10.6201172 203.205566,10.1879883 203.708496,9.64599609 C204.211426,9.10400391 204.86084,8.60839844 205.656738,8.15917969 C206.452637,7.70996094 207.319336,7.48535156 208.256836,7.48535156 C208.637695,7.48535156 208.959961,7.5390625 209.223633,7.64648438 L209.223633,11.25 C209.038086,11.1425781 208.791504,11.0522461 208.483887,10.9790039 C208.17627,10.9057617 207.84668,10.8691406 207.495117,10.8691406 C206.508789,10.8691406 205.656738,10.9887695 204.938965,11.2280273 C204.221191,11.4672852 203.623047,11.7675781 203.144531,12.1289062 L203.144531,22.7636719 L206.99707,23.0273438 L206.99707,24.5947266 L197.504883,24.5947266 L197.504883,23.0126953 L199.804688,22.7783203 Z" id="Path"></path>
            <path d="M211.201172,16.2304688 C211.201172,14.5117188 211.538086,12.9882812 212.211914,11.6601562 C212.885742,10.3320312 213.818359,9.30419922 215.009766,8.57666016 C216.201172,7.84912109 217.553711,7.48535156 219.067383,7.48535156 C220.942383,7.48535156 222.392578,7.99804688 223.417969,9.0234375 C224.443359,10.0488281 224.990234,11.5283203 225.058594,13.4619141 L225.058594,13.9892578 C225.058594,15.0146484 225,15.7958984 224.882812,16.3330078 L214.731445,16.3330078 C214.770508,17.7685547 215.014648,18.9599609 215.463867,19.9072266 C215.913086,20.8544922 216.503906,21.5527344 217.236328,22.0019531 C217.96875,22.4511719 218.793945,22.6757812 219.711914,22.6757812 C220.512695,22.6757812 221.335449,22.5366211 222.180176,22.2583008 C223.024902,21.9799805 223.686523,21.6601562 224.165039,21.2988281 L224.780273,22.7050781 C224.40918,23.0859375 223.898926,23.4472656 223.249512,23.7890625 C222.600098,24.1308594 221.877441,24.4067383 221.081543,24.6166992 C220.285645,24.8266602 219.49707,24.9316406 218.71582,24.9316406 C217.075195,24.9316406 215.690918,24.5678711 214.562988,23.840332 C213.435059,23.112793 212.592773,22.097168 212.036133,20.793457 C211.479492,19.4897461 211.201172,17.96875 211.201172,16.2304688 Z M221.542969,14.6337891 C221.582031,14.2822266 221.601562,13.8623047 221.601562,13.3740234 C221.591797,12.1337891 221.333008,11.1376953 220.825195,10.3857422 C220.317383,9.63378906 219.516602,9.2578125 218.422852,9.2578125 C217.329102,9.2578125 216.462402,9.66552734 215.822754,10.480957 C215.183105,11.2963867 214.819336,12.6806641 214.731445,14.6337891 L221.542969,14.6337891 Z" id="Shape"></path>
            <path d="M227.490234,16.6552734 C227.490234,14.9462891 227.836914,13.3959961 228.530273,12.0043945 C229.223633,10.612793 230.224609,9.51171875 231.533203,8.70117188 C232.841797,7.890625 234.375,7.48535156 236.132812,7.48535156 C236.992188,7.48535156 237.875977,7.578125 238.78418,7.76367188 L238.78418,2.29980469 L235.839844,2.00683594 L235.839844,0.5859375 L241.303711,0 L241.391602,0 L242.109375,0.52734375 L242.109375,22.8955078 L243.837891,22.8955078 L243.837891,24.4189453 C243.203125,24.5751953 242.63916,24.699707 242.145996,24.7924805 C241.652832,24.8852539 241.142578,24.9316406 240.615234,24.9316406 C240.234375,24.9316406 239.934082,24.8950195 239.714355,24.8217773 C239.494629,24.7485352 239.328613,24.6020508 239.216309,24.3823242 C239.104004,24.1625977 239.047852,23.8427734 239.047852,23.4228516 L239.047852,22.6464844 C238.452148,23.3007812 237.727051,23.8452148 236.872559,24.2797852 C236.018066,24.7143555 235.068359,24.9316406 234.023438,24.9316406 C232.822266,24.9316406 231.728516,24.6264648 230.742188,24.0161133 C229.755859,23.4057617 228.967285,22.4780273 228.376465,21.2329102 C227.785645,19.987793 227.490234,18.4619141 227.490234,16.6552734 Z M238.78418,10.1074219 C238.637695,9.86328125 238.286133,9.65332031 237.729492,9.47753906 C237.172852,9.30175781 236.572266,9.21386719 235.927734,9.21386719 C234.462891,9.21386719 233.291016,9.79492188 232.412109,10.9570312 C231.533203,12.1191406 231.09375,13.9404297 231.09375,16.4208984 C231.09375,17.8369141 231.281738,19.0112305 231.657715,19.9438477 C232.033691,20.8764648 232.541504,21.5649414 233.181152,22.0092773 C233.820801,22.4536133 234.550781,22.6757812 235.371094,22.6757812 C236.083984,22.6757812 236.738281,22.5195312 237.333984,22.2070312 C237.929688,21.8945312 238.413086,21.5332031 238.78418,21.1230469 L238.78418,10.1074219 Z" id="Shape"></path>
            <path d="M255.864258,18.1494141 L257.900391,18.1494141 L258.486328,21.8994141 C258.818359,22.2509766 259.355469,22.5512695 260.097656,22.800293 C260.839844,23.0493164 261.645508,23.1738281 262.514648,23.1738281 C263.969727,23.1738281 265.065918,22.8491211 265.803223,22.199707 C266.540527,21.550293 266.90918,20.6494141 266.90918,19.4970703 C266.90918,18.7451172 266.706543,18.0981445 266.30127,17.5561523 C265.895996,17.0141602 265.34668,16.5380859 264.65332,16.1279297 C263.959961,15.7177734 263.007812,15.2392578 261.796875,14.6923828 C260.742188,14.2138672 259.794922,13.6962891 258.955078,13.1396484 C258.115234,12.5830078 257.392578,11.8603516 256.787109,10.9716797 C256.181641,10.0830078 255.878906,9.03320312 255.878906,7.82226563 C255.878906,6.70898438 256.176758,5.71533203 256.772461,4.84130859 C257.368164,3.96728516 258.217773,3.28369141 259.321289,2.79052734 C260.424805,2.29736328 261.708984,2.05078125 263.173828,2.05078125 C264.072266,2.05078125 264.902344,2.12646484 265.664062,2.27783203 C266.425781,2.42919922 267.216797,2.62207031 268.037109,2.85644531 C268.466797,2.98339844 268.813477,3.07128906 269.077148,3.12011719 L268.886719,8.14453125 L266.923828,8.14453125 L266.25,4.58496094 C266.064453,4.37988281 265.673828,4.19189453 265.078125,4.02099609 C264.482422,3.85009766 263.837891,3.76464844 263.144531,3.76464844 C260.507812,3.76464844 259.189453,4.82910156 259.189453,6.95800781 C259.189453,7.70019531 259.389648,8.33496094 259.790039,8.86230469 C260.19043,9.38964844 260.722656,9.85595703 261.386719,10.2612305 C262.050781,10.6665039 263.032227,11.1865234 264.331055,11.8212891 C265.620117,12.4560547 266.674805,13.0371094 267.495117,13.5644531 C268.31543,14.0917969 269.018555,14.7631836 269.604492,15.5786133 C270.19043,16.394043 270.483398,17.3583984 270.483398,18.4716797 C270.483398,19.5458984 270.183105,20.5786133 269.58252,21.5698242 C268.981934,22.5610352 268.078613,23.3691406 266.872559,23.9941406 C265.666504,24.6191406 264.204102,24.9316406 262.485352,24.9316406 C261.430664,24.9316406 260.46875,24.8364258 259.599609,24.6459961 C258.730469,24.4555664 257.827148,24.2089844 256.889648,23.90625 C256.245117,23.7011719 255.820312,23.5888672 255.615234,23.5693359 L255.864258,18.1494141 Z" id="Path"></path>
            <path d="M272.944336,16.2304688 C272.944336,14.5117188 273.28125,12.9882812 273.955078,11.6601562 C274.628906,10.3320312 275.561523,9.30419922 276.75293,8.57666016 C277.944336,7.84912109 279.296875,7.48535156 280.810547,7.48535156 C282.685547,7.48535156 284.135742,7.99804688 285.161133,9.0234375 C286.186523,10.0488281 286.733398,11.5283203 286.801758,13.4619141 L286.801758,13.9892578 C286.801758,15.0146484 286.743164,15.7958984 286.625977,16.3330078 L276.474609,16.3330078 C276.513672,17.7685547 276.757812,18.9599609 277.207031,19.9072266 C277.65625,20.8544922 278.24707,21.5527344 278.979492,22.0019531 C279.711914,22.4511719 280.537109,22.6757812 281.455078,22.6757812 C282.255859,22.6757812 283.078613,22.5366211 283.92334,22.2583008 C284.768066,21.9799805 285.429688,21.6601562 285.908203,21.2988281 L286.523438,22.7050781 C286.152344,23.0859375 285.64209,23.4472656 284.992676,23.7890625 C284.343262,24.1308594 283.620605,24.4067383 282.824707,24.6166992 C282.028809,24.8266602 281.240234,24.9316406 280.458984,24.9316406 C278.818359,24.9316406 277.434082,24.5678711 276.306152,23.840332 C275.178223,23.112793 274.335938,22.097168 273.779297,20.793457 C273.222656,19.4897461 272.944336,17.96875 272.944336,16.2304688 Z M283.286133,14.6337891 C283.325195,14.2822266 283.344727,13.8623047 283.344727,13.3740234 C283.334961,12.1337891 283.076172,11.1376953 282.568359,10.3857422 C282.060547,9.63378906 281.259766,9.2578125 280.166016,9.2578125 C279.072266,9.2578125 278.205566,9.66552734 277.565918,10.480957 C276.92627,11.2963867 276.5625,12.6806641 276.474609,14.6337891 L283.286133,14.6337891 Z" id="Shape"></path>
            <path d="M291.650391,22.7783203 L291.650391,10.4736328 L289.570312,9.88769531 L289.570312,8.12988281 L293.759766,7.54394531 L293.833008,7.54394531 L294.536133,8.11523438 L294.536133,9.03808594 L294.506836,10.9423828 L294.536133,10.9423828 C294.711914,10.6201172 295.05127,10.1879883 295.554199,9.64599609 C296.057129,9.10400391 296.706543,8.60839844 297.502441,8.15917969 C298.29834,7.70996094 299.165039,7.48535156 300.102539,7.48535156 C300.483398,7.48535156 300.805664,7.5390625 301.069336,7.64648438 L301.069336,11.25 C300.883789,11.1425781 300.637207,11.0522461 300.32959,10.9790039 C300.021973,10.9057617 299.692383,10.8691406 299.34082,10.8691406 C298.354492,10.8691406 297.502441,10.9887695 296.784668,11.2280273 C296.066895,11.4672852 295.46875,11.7675781 294.990234,12.1289062 L294.990234,22.7636719 L298.842773,23.0273438 L298.842773,24.5947266 L289.350586,24.5947266 L289.350586,23.0126953 L291.650391,22.7783203 Z" id="Path"></path>
            <polygon id="Path" points="301.757812 9.4921875 301.757812 7.93945312 309.082031 7.93945312 309.082031 9.4921875 306.884766 9.87304688 309.755859 18.1494141 311.044922 22.0898438 312.128906 18.2958984 314.897461 9.87304688 312.875977 9.4921875 312.875977 7.93945312 319.072266 7.93945312 319.072266 9.4921875 317.548828 9.88769531 311.894531 24.8291016 309.140625 24.8291016 303.134766 9.87304688"></polygon>
            <path d="M322.441406,22.7490234 L322.441406,10.4736328 L320.317383,9.87304688 L320.317383,8.14453125 L324.975586,7.54394531 L325.048828,7.54394531 L325.795898,8.11523438 L325.795898,22.7490234 L328.139648,22.9980469 L328.139648,24.5947266 L320.068359,24.5947266 L320.068359,22.9980469 L322.441406,22.7490234 Z M321.84082,2.78320312 C321.84082,2.11914062 322.033691,1.55761719 322.419434,1.09863281 C322.805176,0.639648438 323.344727,0.41015625 324.038086,0.41015625 L324.052734,0.41015625 C324.462891,0.41015625 324.819336,0.505371094 325.12207,0.695800781 C325.424805,0.886230469 325.656738,1.13769531 325.817871,1.45019531 C325.979004,1.76269531 326.05957,2.09472656 326.05957,2.44628906 C326.05957,3.12988281 325.864258,3.69140625 325.473633,4.13085938 C325.083008,4.5703125 324.516602,4.79003906 323.774414,4.79003906 L323.759766,4.79003906 C323.193359,4.79003906 322.731934,4.59960938 322.375488,4.21875 C322.019043,3.83789062 321.84082,3.359375 321.84082,2.78320312 Z" id="Shape"></path>
            <path d="M338.525391,7.48535156 C339.931641,7.48535156 341.435547,7.78808594 343.037109,8.39355469 L342.890625,12.9052734 L340.854492,12.9052734 L340.180664,10.1660156 C340.043945,9.84375 339.772949,9.60449219 339.367676,9.44824219 C338.962402,9.29199219 338.476562,9.21386719 337.910156,9.21386719 C337.050781,9.21386719 336.303711,9.45068359 335.668945,9.92431641 C335.03418,10.3979492 334.541016,11.105957 334.189453,12.0483398 C333.837891,12.9907227 333.662109,14.1552734 333.662109,15.5419922 C333.662109,17.1533203 333.87207,18.4912109 334.291992,19.5556641 C334.711914,20.6201172 335.283203,21.40625 336.005859,21.9140625 C336.728516,22.421875 337.543945,22.6757812 338.452148,22.6757812 C339.301758,22.6757812 340.085449,22.5512695 340.803223,22.3022461 C341.520996,22.0532227 342.133789,21.7480469 342.641602,21.3867188 L343.271484,22.734375 C342.919922,23.0957031 342.451172,23.4448242 341.865234,23.7817383 C341.279297,24.1186523 340.622559,24.3945312 339.89502,24.609375 C339.16748,24.8242188 338.4375,24.9316406 337.705078,24.9316406 C336.054688,24.9316406 334.658203,24.5654297 333.515625,23.8330078 C332.373047,23.1005859 331.516113,22.097168 330.944824,20.8227539 C330.373535,19.5483398 330.087891,18.1005859 330.087891,16.4794922 C330.087891,14.8095703 330.410156,13.293457 331.054688,11.9311523 C331.699219,10.5688477 332.65625,9.48730469 333.925781,8.68652344 C335.195312,7.88574219 336.728516,7.48535156 338.525391,7.48535156 Z" id="Path"></path>
            <path d="M345.541992,16.2304688 C345.541992,14.5117188 345.878906,12.9882812 346.552734,11.6601562 C347.226562,10.3320312 348.15918,9.30419922 349.350586,8.57666016 C350.541992,7.84912109 351.894531,7.48535156 353.408203,7.48535156 C355.283203,7.48535156 356.733398,7.99804688 357.758789,9.0234375 C358.78418,10.0488281 359.331055,11.5283203 359.399414,13.4619141 L359.399414,13.9892578 C359.399414,15.0146484 359.34082,15.7958984 359.223633,16.3330078 L349.072266,16.3330078 C349.111328,17.7685547 349.355469,18.9599609 349.804688,19.9072266 C350.253906,20.8544922 350.844727,21.5527344 351.577148,22.0019531 C352.30957,22.4511719 353.134766,22.6757812 354.052734,22.6757812 C354.853516,22.6757812 355.67627,22.5366211 356.520996,22.2583008 C357.365723,21.9799805 358.027344,21.6601562 358.505859,21.2988281 L359.121094,22.7050781 C358.75,23.0859375 358.239746,23.4472656 357.590332,23.7890625 C356.940918,24.1308594 356.218262,24.4067383 355.422363,24.6166992 C354.626465,24.8266602 353.837891,24.9316406 353.056641,24.9316406 C351.416016,24.9316406 350.031738,24.5678711 348.903809,23.840332 C347.775879,23.112793 346.933594,22.097168 346.376953,20.793457 C345.820312,19.4897461 345.541992,17.96875 345.541992,16.2304688 Z M355.883789,14.6337891 C355.922852,14.2822266 355.942383,13.8623047 355.942383,13.3740234 C355.932617,12.1337891 355.673828,11.1376953 355.166016,10.3857422 C354.658203,9.63378906 353.857422,9.2578125 352.763672,9.2578125 C351.669922,9.2578125 350.803223,9.66552734 350.163574,10.480957 C349.523926,11.2963867 349.160156,12.6806641 349.072266,14.6337891 L355.883789,14.6337891 Z" id="Shape"></path>
            <path d="M364.394531,19.8339844 L364.980469,22.0605469 C365.097656,22.265625 365.324707,22.4609375 365.661621,22.6464844 C365.998535,22.8320312 366.396484,22.9833984 366.855469,23.1005859 C367.314453,23.2177734 367.783203,23.2763672 368.261719,23.2763672 C369.365234,23.2763672 370.151367,23.0688477 370.620117,22.6538086 C371.088867,22.2387695 371.323242,21.6699219 371.323242,20.9472656 C371.323242,20.4394531 371.164551,19.9926758 370.847168,19.6069336 C370.529785,19.2211914 370.058594,18.8574219 369.433594,18.515625 C368.808594,18.1738281 367.958984,17.7880859 366.884766,17.3583984 C365.332031,16.7529297 364.199219,16.0375977 363.486328,15.2124023 C362.773438,14.387207 362.416992,13.3203125 362.416992,12.0117188 C362.416992,11.1328125 362.683105,10.3588867 363.215332,9.68994141 C363.747559,9.02099609 364.477539,8.50097656 365.405273,8.12988281 C366.333008,7.75878906 367.37793,7.57324219 368.540039,7.57324219 C369.438477,7.57324219 370.229492,7.64404297 370.913086,7.78564453 C371.59668,7.92724609 372.285156,8.11035156 372.978516,8.33496094 L373.505859,8.49609375 L373.505859,12.2021484 L371.630859,12.2021484 L371.000977,10.1513672 C370.883789,9.89746094 370.568848,9.67773438 370.056152,9.4921875 C369.543457,9.30664062 368.969727,9.21386719 368.334961,9.21386719 C367.436523,9.21386719 366.743164,9.40429688 366.254883,9.78515625 C365.766602,10.1660156 365.522461,10.6640625 365.522461,11.2792969 C365.522461,11.8261719 365.666504,12.2851562 365.95459,12.65625 C366.242676,13.0273438 366.601562,13.3300781 367.03125,13.5644531 C367.460938,13.7988281 368.061523,14.0771484 368.833008,14.3994141 L369.404297,14.6484375 C370.517578,15.1269531 371.420898,15.5761719 372.114258,15.9960938 C372.807617,16.4160156 373.383789,16.953125 373.842773,17.6074219 C374.301758,18.2617188 374.53125,19.0625 374.53125,20.0097656 C374.53125,20.9863281 374.274902,21.8457031 373.762207,22.5878906 C373.249512,23.3300781 372.507324,23.90625 371.535645,24.3164062 C370.563965,24.7265625 369.414062,24.9316406 368.085938,24.9316406 C367.089844,24.9316406 366.044922,24.7949219 364.951172,24.5214844 C363.857422,24.2480469 362.983398,23.9648438 362.329102,23.671875 L362.329102,19.8339844 L364.394531,19.8339844 Z" id="Path"></path>
            <polygon id="Path" points="388.754883 22.6464844 388.754883 4.29199219 386.337891 3.92578125 386.337891 2.29980469 401.601562 2.29980469 402.011719 6.94335938 400.12207 6.94335938 399.213867 4.16015625 392.197266 3.96972656 392.197266 12.2460938 396.958008 12.1582031 397.397461 9.7265625 399.287109 9.7265625 399.287109 16.6699219 397.397461 16.6699219 396.972656 14.0917969 392.197266 14.0185547 392.197266 22.7783203 400.253906 22.4560547 401.90918 18.7792969 403.78418 19.3359375 402.919922 24.5947266 386.293945 24.5947266 386.293945 22.9980469"></polygon>
            <path d="M407.915039,22.7490234 L407.915039,10.4736328 L405.820312,9.88769531 L405.820312,8.12988281 L410.15625,7.54394531 L410.229492,7.54394531 L410.917969,8.11523438 L410.917969,9.30175781 L410.90332,9.97558594 C411.352539,9.57519531 411.916504,9.18945312 412.595215,8.81835938 C413.273926,8.44726562 414.001465,8.14453125 414.777832,7.91015625 C415.554199,7.67578125 416.289062,7.55859375 416.982422,7.55859375 C418.251953,7.55859375 419.233398,7.79541016 419.926758,8.26904297 C420.620117,8.74267578 421.103516,9.47265625 421.376953,10.4589844 C421.650391,11.4453125 421.787109,12.7832031 421.787109,14.4726562 L421.787109,22.7490234 L423.896484,22.9980469 L423.896484,24.5947266 L416.542969,24.5947266 L416.542969,22.9980469 L418.417969,22.7490234 L418.417969,14.4580078 C418.417969,13.3251953 418.342285,12.434082 418.190918,11.784668 C418.039551,11.1352539 417.753906,10.6469727 417.333984,10.3198242 C416.914062,9.99267578 416.293945,9.82910156 415.473633,9.82910156 C414.770508,9.82910156 414.038086,9.98046875 413.276367,10.2832031 C412.514648,10.5859375 411.845703,10.9521484 411.269531,11.3818359 L411.269531,22.7490234 L413.291016,22.9980469 L413.291016,24.5947266 L405.996094,24.5947266 L405.996094,22.9980469 L407.915039,22.7490234 Z" id="Path"></path>
            <path d="M425.625,10.0341797 L425.625,8.64257812 C425.898438,8.57421875 426.213379,8.4765625 426.569824,8.34960938 C426.92627,8.22265625 427.158203,8.125 427.265625,8.05664062 C427.587891,7.82226562 427.851562,7.44140625 428.056641,6.9140625 C428.203125,6.58203125 428.395996,6.05224609 428.635254,5.32470703 C428.874512,4.59716797 429.038086,4.04785156 429.125977,3.67675781 L431.030273,3.67675781 L431.05957,7.93945312 L435.981445,7.93945312 L435.981445,10.0341797 L431.074219,10.0341797 L431.074219,18.8964844 C431.074219,20.0878906 431.108398,20.9155273 431.176758,21.3793945 C431.245117,21.8432617 431.384277,22.1411133 431.594238,22.2729492 C431.804199,22.4047852 432.1875,22.4707031 432.744141,22.4707031 L432.758789,22.4707031 C433.266602,22.4707031 433.840332,22.4072266 434.47998,22.2802734 C435.119629,22.1533203 435.615234,22.0214844 435.966797,21.8847656 L435.981445,21.8847656 L436.479492,23.3056641 C436.186523,23.5498047 435.74707,23.7963867 435.161133,24.0454102 C434.575195,24.2944336 433.945312,24.5019531 433.271484,24.6679688 C432.597656,24.8339844 431.977539,24.9169922 431.411133,24.9169922 L431.381836,24.9169922 C430.170898,24.9169922 429.257812,24.6508789 428.642578,24.1186523 C428.027344,23.5864258 427.719727,22.6953125 427.719727,21.4453125 L427.719727,10.0341797 L425.625,10.0341797 Z" id="Path"></path>
            <path d="M438.105469,16.2304688 C438.105469,14.5117188 438.442383,12.9882812 439.116211,11.6601562 C439.790039,10.3320312 440.722656,9.30419922 441.914062,8.57666016 C443.105469,7.84912109 444.458008,7.48535156 445.97168,7.48535156 C447.84668,7.48535156 449.296875,7.99804688 450.322266,9.0234375 C451.347656,10.0488281 451.894531,11.5283203 451.962891,13.4619141 L451.962891,13.9892578 C451.962891,15.0146484 451.904297,15.7958984 451.787109,16.3330078 L441.635742,16.3330078 C441.674805,17.7685547 441.918945,18.9599609 442.368164,19.9072266 C442.817383,20.8544922 443.408203,21.5527344 444.140625,22.0019531 C444.873047,22.4511719 445.698242,22.6757812 446.616211,22.6757812 C447.416992,22.6757812 448.239746,22.5366211 449.084473,22.2583008 C449.929199,21.9799805 450.59082,21.6601562 451.069336,21.2988281 L451.68457,22.7050781 C451.313477,23.0859375 450.803223,23.4472656 450.153809,23.7890625 C449.504395,24.1308594 448.781738,24.4067383 447.98584,24.6166992 C447.189941,24.8266602 446.401367,24.9316406 445.620117,24.9316406 C443.979492,24.9316406 442.595215,24.5678711 441.467285,23.840332 C440.339355,23.112793 439.49707,22.097168 438.94043,20.793457 C438.383789,19.4897461 438.105469,17.96875 438.105469,16.2304688 Z M448.447266,14.6337891 C448.486328,14.2822266 448.505859,13.8623047 448.505859,13.3740234 C448.496094,12.1337891 448.237305,11.1376953 447.729492,10.3857422 C447.22168,9.63378906 446.420898,9.2578125 445.327148,9.2578125 C444.233398,9.2578125 443.366699,9.66552734 442.727051,10.480957 C442.087402,11.2963867 441.723633,12.6806641 441.635742,14.6337891 L448.447266,14.6337891 Z" id="Shape"></path>
            <path d="M456.811523,22.7783203 L456.811523,10.4736328 L454.731445,9.88769531 L454.731445,8.12988281 L458.920898,7.54394531 L458.994141,7.54394531 L459.697266,8.11523438 L459.697266,9.03808594 L459.667969,10.9423828 L459.697266,10.9423828 C459.873047,10.6201172 460.212402,10.1879883 460.715332,9.64599609 C461.218262,9.10400391 461.867676,8.60839844 462.663574,8.15917969 C463.459473,7.70996094 464.326172,7.48535156 465.263672,7.48535156 C465.644531,7.48535156 465.966797,7.5390625 466.230469,7.64648438 L466.230469,11.25 C466.044922,11.1425781 465.79834,11.0522461 465.490723,10.9790039 C465.183105,10.9057617 464.853516,10.8691406 464.501953,10.8691406 C463.515625,10.8691406 462.663574,10.9887695 461.945801,11.2280273 C461.228027,11.4672852 460.629883,11.7675781 460.151367,12.1289062 L460.151367,22.7636719 L464.003906,23.0273438 L464.003906,24.5947266 L454.511719,24.5947266 L454.511719,23.0126953 L456.811523,22.7783203 Z" id="Path"></path>
            <path d="M476.132812,24.9316406 C475.693359,24.9316406 475.209961,24.8950195 474.682617,24.8217773 C474.155273,24.7485352 473.710938,24.6630859 473.349609,24.5654297 L473.4375,27.0556641 L473.4375,29.9560547 L476.44043,30.2783203 L476.44043,31.8603516 L467.929688,31.8603516 L467.929688,30.2783203 L470.112305,29.9414062 L470.112305,10.4736328 L468.017578,9.88769531 L468.017578,8.12988281 L472.338867,7.54394531 L472.412109,7.54394531 L473.071289,8.11523438 L473.071289,9.78515625 C473.657227,9.140625 474.379883,8.59619141 475.239258,8.15185547 C476.098633,7.70751953 477.070312,7.48535156 478.154297,7.48535156 C479.345703,7.48535156 480.43457,7.77587891 481.420898,8.35693359 C482.407227,8.93798828 483.198242,9.84130859 483.793945,11.0668945 C484.389648,12.2924805 484.6875,13.828125 484.6875,15.6738281 C484.6875,17.3828125 484.338379,18.9404297 483.640137,20.3466797 C482.941895,21.7529297 481.945801,22.8686523 480.651855,23.6938477 C479.35791,24.519043 477.851562,24.9316406 476.132812,24.9316406 Z M473.4375,22.3388672 C473.574219,22.5830078 473.908691,22.7978516 474.440918,22.9833984 C474.973145,23.1689453 475.571289,23.2617188 476.235352,23.2617188 C477.182617,23.2617188 478.02002,23.0102539 478.747559,22.5073242 C479.475098,22.0043945 480.048828,21.2084961 480.46875,20.1196289 C480.888672,19.0307617 481.098633,17.6464844 481.098633,15.9667969 C481.098633,14.5507812 480.910645,13.3789062 480.534668,12.4511719 C480.158691,11.5234375 479.648438,10.8374023 479.003906,10.3930664 C478.359375,9.94873047 477.62207,9.7265625 476.791992,9.7265625 C476.098633,9.7265625 475.454102,9.86816406 474.858398,10.1513672 C474.262695,10.4345703 473.789062,10.7666016 473.4375,11.1474609 L473.4375,22.3388672 Z" id="Shape"></path>
            <path d="M489.580078,22.7783203 L489.580078,10.4736328 L487.5,9.88769531 L487.5,8.12988281 L491.689453,7.54394531 L491.762695,7.54394531 L492.46582,8.11523438 L492.46582,9.03808594 L492.436523,10.9423828 L492.46582,10.9423828 C492.641602,10.6201172 492.980957,10.1879883 493.483887,9.64599609 C493.986816,9.10400391 494.63623,8.60839844 495.432129,8.15917969 C496.228027,7.70996094 497.094727,7.48535156 498.032227,7.48535156 C498.413086,7.48535156 498.735352,7.5390625 498.999023,7.64648438 L498.999023,11.25 C498.813477,11.1425781 498.566895,11.0522461 498.259277,10.9790039 C497.95166,10.9057617 497.62207,10.8691406 497.270508,10.8691406 C496.28418,10.8691406 495.432129,10.9887695 494.714355,11.2280273 C493.996582,11.4672852 493.398438,11.7675781 492.919922,12.1289062 L492.919922,22.7636719 L496.772461,23.0273438 L496.772461,24.5947266 L487.280273,24.5947266 L487.280273,23.0126953 L489.580078,22.7783203 Z" id="Path"></path>
            <path d="M503.24707,22.7490234 L503.24707,10.4736328 L501.123047,9.87304688 L501.123047,8.14453125 L505.78125,7.54394531 L505.854492,7.54394531 L506.601562,8.11523438 L506.601562,22.7490234 L508.945312,22.9980469 L508.945312,24.5947266 L500.874023,24.5947266 L500.874023,22.9980469 L503.24707,22.7490234 Z M502.646484,2.78320312 C502.646484,2.11914062 502.839355,1.55761719 503.225098,1.09863281 C503.61084,0.639648438 504.150391,0.41015625 504.84375,0.41015625 L504.858398,0.41015625 C505.268555,0.41015625 505.625,0.505371094 505.927734,0.695800781 C506.230469,0.886230469 506.462402,1.13769531 506.623535,1.45019531 C506.784668,1.76269531 506.865234,2.09472656 506.865234,2.44628906 C506.865234,3.12988281 506.669922,3.69140625 506.279297,4.13085938 C505.888672,4.5703125 505.322266,4.79003906 504.580078,4.79003906 L504.56543,4.79003906 C503.999023,4.79003906 503.537598,4.59960938 503.181152,4.21875 C502.824707,3.83789062 502.646484,3.359375 502.646484,2.78320312 Z" id="Shape"></path>
            <path d="M513.574219,19.8339844 L514.160156,22.0605469 C514.277344,22.265625 514.504395,22.4609375 514.841309,22.6464844 C515.178223,22.8320312 515.576172,22.9833984 516.035156,23.1005859 C516.494141,23.2177734 516.962891,23.2763672 517.441406,23.2763672 C518.544922,23.2763672 519.331055,23.0688477 519.799805,22.6538086 C520.268555,22.2387695 520.50293,21.6699219 520.50293,20.9472656 C520.50293,20.4394531 520.344238,19.9926758 520.026855,19.6069336 C519.709473,19.2211914 519.238281,18.8574219 518.613281,18.515625 C517.988281,18.1738281 517.138672,17.7880859 516.064453,17.3583984 C514.511719,16.7529297 513.378906,16.0375977 512.666016,15.2124023 C511.953125,14.387207 511.59668,13.3203125 511.59668,12.0117188 C511.59668,11.1328125 511.862793,10.3588867 512.39502,9.68994141 C512.927246,9.02099609 513.657227,8.50097656 514.584961,8.12988281 C515.512695,7.75878906 516.557617,7.57324219 517.719727,7.57324219 C518.618164,7.57324219 519.40918,7.64404297 520.092773,7.78564453 C520.776367,7.92724609 521.464844,8.11035156 522.158203,8.33496094 L522.685547,8.49609375 L522.685547,12.2021484 L520.810547,12.2021484 L520.180664,10.1513672 C520.063477,9.89746094 519.748535,9.67773438 519.23584,9.4921875 C518.723145,9.30664062 518.149414,9.21386719 517.514648,9.21386719 C516.616211,9.21386719 515.922852,9.40429688 515.43457,9.78515625 C514.946289,10.1660156 514.702148,10.6640625 514.702148,11.2792969 C514.702148,11.8261719 514.846191,12.2851562 515.134277,12.65625 C515.422363,13.0273438 515.78125,13.3300781 516.210938,13.5644531 C516.640625,13.7988281 517.241211,14.0771484 518.012695,14.3994141 L518.583984,14.6484375 C519.697266,15.1269531 520.600586,15.5761719 521.293945,15.9960938 C521.987305,16.4160156 522.563477,16.953125 523.022461,17.6074219 C523.481445,18.2617188 523.710938,19.0625 523.710938,20.0097656 C523.710938,20.9863281 523.45459,21.8457031 522.941895,22.5878906 C522.429199,23.3300781 521.687012,23.90625 520.715332,24.3164062 C519.743652,24.7265625 518.59375,24.9316406 517.265625,24.9316406 C516.269531,24.9316406 515.224609,24.7949219 514.130859,24.5214844 C513.037109,24.2480469 512.163086,23.9648438 511.508789,23.671875 L511.508789,19.8339844 L513.574219,19.8339844 Z" id="Path"></path>
            <path d="M526.289062,16.2304688 C526.289062,14.5117188 526.625977,12.9882812 527.299805,11.6601562 C527.973633,10.3320312 528.90625,9.30419922 530.097656,8.57666016 C531.289062,7.84912109 532.641602,7.48535156 534.155273,7.48535156 C536.030273,7.48535156 537.480469,7.99804688 538.505859,9.0234375 C539.53125,10.0488281 540.078125,11.5283203 540.146484,13.4619141 L540.146484,13.9892578 C540.146484,15.0146484 540.087891,15.7958984 539.970703,16.3330078 L529.819336,16.3330078 C529.858398,17.7685547 530.102539,18.9599609 530.551758,19.9072266 C531.000977,20.8544922 531.591797,21.5527344 532.324219,22.0019531 C533.056641,22.4511719 533.881836,22.6757812 534.799805,22.6757812 C535.600586,22.6757812 536.42334,22.5366211 537.268066,22.2583008 C538.112793,21.9799805 538.774414,21.6601562 539.25293,21.2988281 L539.868164,22.7050781 C539.49707,23.0859375 538.986816,23.4472656 538.337402,23.7890625 C537.687988,24.1308594 536.965332,24.4067383 536.169434,24.6166992 C535.373535,24.8266602 534.584961,24.9316406 533.803711,24.9316406 C532.163086,24.9316406 530.778809,24.5678711 529.650879,23.840332 C528.522949,23.112793 527.680664,22.097168 527.124023,20.793457 C526.567383,19.4897461 526.289062,17.96875 526.289062,16.2304688 Z M536.630859,14.6337891 C536.669922,14.2822266 536.689453,13.8623047 536.689453,13.3740234 C536.679688,12.1337891 536.420898,11.1376953 535.913086,10.3857422 C535.405273,9.63378906 534.604492,9.2578125 533.510742,9.2578125 C532.416992,9.2578125 531.550293,9.66552734 530.910645,10.480957 C530.270996,11.2963867 529.907227,12.6806641 529.819336,14.6337891 L536.630859,14.6337891 Z" id="Shape"></path>
            <path d="M551.323242,13.4326172 C551.323242,11.1279297 551.799316,9.11621094 552.751465,7.39746094 C553.703613,5.67871094 555.004883,4.36035156 556.655273,3.44238281 C558.305664,2.52441406 560.151367,2.06542969 562.192383,2.06542969 C563.129883,2.06542969 564.035645,2.13378906 564.909668,2.27050781 C565.783691,2.40722656 566.772461,2.58789062 567.875977,2.8125 L568.666992,2.97363281 L568.388672,8.45214844 L566.206055,8.45214844 L565.385742,4.71679688 C565.180664,4.44335938 564.765625,4.22607422 564.140625,4.06494141 C563.515625,3.90380859 562.695312,3.82324219 561.679688,3.82324219 C560.429688,3.82324219 559.32373,4.1796875 558.361816,4.89257812 C557.399902,5.60546875 556.647949,6.65771484 556.105957,8.04931641 C555.563965,9.44091797 555.292969,11.1181641 555.292969,13.0810547 C555.292969,14.8974609 555.534668,16.5698242 556.018066,18.0981445 C556.501465,19.6264648 557.248535,20.8569336 558.259277,21.7895508 C559.27002,22.722168 560.532227,23.1884766 562.045898,23.1884766 C563.618164,23.1884766 564.746094,22.8271484 565.429688,22.1044922 L566.704102,19.0136719 L568.78418,19.2919922 L568.139648,23.7744141 C567.875977,23.7939453 567.62207,23.8354492 567.37793,23.8989258 C567.133789,23.9624023 566.816406,24.0625 566.425781,24.1992188 C565.761719,24.4335938 565.126953,24.6142578 564.521484,24.7412109 C563.916016,24.8681641 563.168945,24.9316406 562.280273,24.9316406 C559.956055,24.9316406 557.973633,24.4750977 556.333008,23.5620117 C554.692383,22.6489258 553.447266,21.3330078 552.597656,19.6142578 C551.748047,17.8955078 551.323242,15.8349609 551.323242,13.4326172 Z" id="Path"></path>
            <path d="M572.050781,29.0771484 C572.167969,29.1455078 572.407227,29.206543 572.768555,29.2602539 C573.129883,29.3139648 573.47168,29.3408203 573.793945,29.3408203 C574.379883,29.3408203 574.919434,29.2211914 575.412598,28.9819336 C575.905762,28.7426758 576.40625,28.2763672 576.914062,27.5830078 C577.421875,26.8896484 577.915039,25.8935547 578.393555,24.5947266 L576.738281,24.5947266 L571.259766,9.87304688 L569.868164,9.4921875 L569.868164,7.93945312 L577.324219,7.93945312 L577.324219,9.4921875 L575.024414,9.87304688 L577.851562,18.7207031 L579.155273,22.96875 L580.327148,18.7060547 L582.978516,9.85839844 L581.015625,9.4921875 L581.015625,7.93945312 L587.167969,7.93945312 L587.167969,9.4921875 L585.673828,9.85839844 C584.267578,14.2333984 583.122559,17.7270508 582.23877,20.3393555 C581.35498,22.9516602 580.791016,24.5361328 580.546875,25.0927734 C579.882812,26.7724609 579.255371,28.1005859 578.664551,29.0771484 C578.07373,30.0537109 577.390137,30.7958984 576.61377,31.3037109 C575.837402,31.8115234 574.887695,32.0654297 573.764648,32.0654297 C573.461914,32.0654297 573.134766,32.043457 572.783203,31.9995117 C572.431641,31.9555664 572.1875,31.9042969 572.050781,31.8457031 L572.050781,29.0771484 Z" id="Path"></path>
            <path d="M587.124023,2.00683594 L587.124023,0.629882812 L592.060547,0 L592.133789,0 L592.866211,0.498046875 L592.866211,9.44824219 C593.442383,8.88183594 594.130859,8.41308594 594.931641,8.04199219 C595.732422,7.67089844 596.621094,7.48535156 597.597656,7.48535156 C598.789062,7.48535156 599.87793,7.7734375 600.864258,8.34960938 C601.850586,8.92578125 602.641602,9.82666016 603.237305,11.0522461 C603.833008,12.277832 604.130859,13.8183594 604.130859,15.6738281 C604.130859,17.3925781 603.779297,18.9575195 603.076172,20.3686523 C602.373047,21.7797852 601.364746,22.8930664 600.05127,23.7084961 C598.737793,24.5239258 597.207031,24.9316406 595.458984,24.9316406 C594.511719,24.9316406 593.61084,24.8657227 592.756348,24.7338867 C591.901855,24.6020508 591.186523,24.4433594 590.610352,24.2578125 C590.03418,24.0722656 589.677734,23.9111328 589.541016,23.7744141 L589.541016,2.29980469 L587.124023,2.00683594 Z M592.866211,22.2949219 C592.993164,22.5878906 593.320312,22.8198242 593.847656,22.9907227 C594.375,23.1616211 594.985352,23.2470703 595.678711,23.2470703 C596.635742,23.2470703 597.478027,22.9785156 598.205566,22.4414062 C598.933105,21.9042969 599.501953,21.0961914 599.912109,20.0170898 C600.322266,18.9379883 600.527344,17.6074219 600.527344,16.0253906 C600.527344,14.6191406 600.344238,13.4472656 599.978027,12.5097656 C599.611816,11.5722656 599.106445,10.8789062 598.461914,10.4296875 C597.817383,9.98046875 597.080078,9.75585938 596.25,9.75585938 C595.546875,9.75585938 594.897461,9.91455078 594.301758,10.2319336 C593.706055,10.5493164 593.227539,10.9082031 592.866211,11.3085938 L592.866211,22.2949219 Z" id="Shape"></path>
            <path d="M606.621094,16.2304688 C606.621094,14.5117188 606.958008,12.9882812 607.631836,11.6601562 C608.305664,10.3320312 609.238281,9.30419922 610.429688,8.57666016 C611.621094,7.84912109 612.973633,7.48535156 614.487305,7.48535156 C616.362305,7.48535156 617.8125,7.99804688 618.837891,9.0234375 C619.863281,10.0488281 620.410156,11.5283203 620.478516,13.4619141 L620.478516,13.9892578 C620.478516,15.0146484 620.419922,15.7958984 620.302734,16.3330078 L610.151367,16.3330078 C610.19043,17.7685547 610.43457,18.9599609 610.883789,19.9072266 C611.333008,20.8544922 611.923828,21.5527344 612.65625,22.0019531 C613.388672,22.4511719 614.213867,22.6757812 615.131836,22.6757812 C615.932617,22.6757812 616.755371,22.5366211 617.600098,22.2583008 C618.444824,21.9799805 619.106445,21.6601562 619.584961,21.2988281 L620.200195,22.7050781 C619.829102,23.0859375 619.318848,23.4472656 618.669434,23.7890625 C618.02002,24.1308594 617.297363,24.4067383 616.501465,24.6166992 C615.705566,24.8266602 614.916992,24.9316406 614.135742,24.9316406 C612.495117,24.9316406 611.11084,24.5678711 609.98291,23.840332 C608.85498,23.112793 608.012695,22.097168 607.456055,20.793457 C606.899414,19.4897461 606.621094,17.96875 606.621094,16.2304688 Z M616.962891,14.6337891 C617.001953,14.2822266 617.021484,13.8623047 617.021484,13.3740234 C617.011719,12.1337891 616.75293,11.1376953 616.245117,10.3857422 C615.737305,9.63378906 614.936523,9.2578125 613.842773,9.2578125 C612.749023,9.2578125 611.882324,9.66552734 611.242676,10.480957 C610.603027,11.2963867 610.239258,12.6806641 610.151367,14.6337891 L616.962891,14.6337891 Z" id="Shape"></path>
            <path d="M625.327148,22.7783203 L625.327148,10.4736328 L623.24707,9.88769531 L623.24707,8.12988281 L627.436523,7.54394531 L627.509766,7.54394531 L628.212891,8.11523438 L628.212891,9.03808594 L628.183594,10.9423828 L628.212891,10.9423828 C628.388672,10.6201172 628.728027,10.1879883 629.230957,9.64599609 C629.733887,9.10400391 630.383301,8.60839844 631.179199,8.15917969 C631.975098,7.70996094 632.841797,7.48535156 633.779297,7.48535156 C634.160156,7.48535156 634.482422,7.5390625 634.746094,7.64648438 L634.746094,11.25 C634.560547,11.1425781 634.313965,11.0522461 634.006348,10.9790039 C633.69873,10.9057617 633.369141,10.8691406 633.017578,10.8691406 C632.03125,10.8691406 631.179199,10.9887695 630.461426,11.2280273 C629.743652,11.4672852 629.145508,11.7675781 628.666992,12.1289062 L628.666992,22.7636719 L632.519531,23.0273438 L632.519531,24.5947266 L623.027344,24.5947266 L623.027344,23.0126953 L625.327148,22.7783203 Z" id="Path"></path>
            <path d="M639.287109,19.8339844 L639.873047,22.0605469 C639.990234,22.265625 640.217285,22.4609375 640.554199,22.6464844 C640.891113,22.8320312 641.289062,22.9833984 641.748047,23.1005859 C642.207031,23.2177734 642.675781,23.2763672 643.154297,23.2763672 C644.257812,23.2763672 645.043945,23.0688477 645.512695,22.6538086 C645.981445,22.2387695 646.21582,21.6699219 646.21582,20.9472656 C646.21582,20.4394531 646.057129,19.9926758 645.739746,19.6069336 C645.422363,19.2211914 644.951172,18.8574219 644.326172,18.515625 C643.701172,18.1738281 642.851562,17.7880859 641.777344,17.3583984 C640.224609,16.7529297 639.091797,16.0375977 638.378906,15.2124023 C637.666016,14.387207 637.30957,13.3203125 637.30957,12.0117188 C637.30957,11.1328125 637.575684,10.3588867 638.10791,9.68994141 C638.640137,9.02099609 639.370117,8.50097656 640.297852,8.12988281 C641.225586,7.75878906 642.270508,7.57324219 643.432617,7.57324219 C644.331055,7.57324219 645.12207,7.64404297 645.805664,7.78564453 C646.489258,7.92724609 647.177734,8.11035156 647.871094,8.33496094 L648.398438,8.49609375 L648.398438,12.2021484 L646.523438,12.2021484 L645.893555,10.1513672 C645.776367,9.89746094 645.461426,9.67773438 644.94873,9.4921875 C644.436035,9.30664062 643.862305,9.21386719 643.227539,9.21386719 C642.329102,9.21386719 641.635742,9.40429688 641.147461,9.78515625 C640.65918,10.1660156 640.415039,10.6640625 640.415039,11.2792969 C640.415039,11.8261719 640.559082,12.2851562 640.847168,12.65625 C641.135254,13.0273438 641.494141,13.3300781 641.923828,13.5644531 C642.353516,13.7988281 642.954102,14.0771484 643.725586,14.3994141 L644.296875,14.6484375 C645.410156,15.1269531 646.313477,15.5761719 647.006836,15.9960938 C647.700195,16.4160156 648.276367,16.953125 648.735352,17.6074219 C649.194336,18.2617188 649.423828,19.0625 649.423828,20.0097656 C649.423828,20.9863281 649.16748,21.8457031 648.654785,22.5878906 C648.14209,23.3300781 647.399902,23.90625 646.428223,24.3164062 C645.456543,24.7265625 644.306641,24.9316406 642.978516,24.9316406 C641.982422,24.9316406 640.9375,24.7949219 639.84375,24.5214844 C638.75,24.2480469 637.875977,23.9648438 637.22168,23.671875 L637.22168,19.8339844 L639.287109,19.8339844 Z" id="Path"></path>
            <path d="M652.001953,16.2304688 C652.001953,14.5117188 652.338867,12.9882812 653.012695,11.6601562 C653.686523,10.3320312 654.619141,9.30419922 655.810547,8.57666016 C657.001953,7.84912109 658.354492,7.48535156 659.868164,7.48535156 C661.743164,7.48535156 663.193359,7.99804688 664.21875,9.0234375 C665.244141,10.0488281 665.791016,11.5283203 665.859375,13.4619141 L665.859375,13.9892578 C665.859375,15.0146484 665.800781,15.7958984 665.683594,16.3330078 L655.532227,16.3330078 C655.571289,17.7685547 655.81543,18.9599609 656.264648,19.9072266 C656.713867,20.8544922 657.304688,21.5527344 658.037109,22.0019531 C658.769531,22.4511719 659.594727,22.6757812 660.512695,22.6757812 C661.313477,22.6757812 662.13623,22.5366211 662.980957,22.2583008 C663.825684,21.9799805 664.487305,21.6601562 664.96582,21.2988281 L665.581055,22.7050781 C665.209961,23.0859375 664.699707,23.4472656 664.050293,23.7890625 C663.400879,24.1308594 662.678223,24.4067383 661.882324,24.6166992 C661.086426,24.8266602 660.297852,24.9316406 659.516602,24.9316406 C657.875977,24.9316406 656.491699,24.5678711 655.36377,23.840332 C654.23584,23.112793 653.393555,22.097168 652.836914,20.793457 C652.280273,19.4897461 652.001953,17.96875 652.001953,16.2304688 Z M662.34375,14.6337891 C662.382812,14.2822266 662.402344,13.8623047 662.402344,13.3740234 C662.392578,12.1337891 662.133789,11.1376953 661.625977,10.3857422 C661.118164,9.63378906 660.317383,9.2578125 659.223633,9.2578125 C658.129883,9.2578125 657.263184,9.66552734 656.623535,10.480957 C655.983887,11.2963867 655.620117,12.6806641 655.532227,14.6337891 L662.34375,14.6337891 Z" id="Shape"></path>
            <path d="M676.611328,7.48535156 C678.017578,7.48535156 679.521484,7.78808594 681.123047,8.39355469 L680.976562,12.9052734 L678.94043,12.9052734 L678.266602,10.1660156 C678.129883,9.84375 677.858887,9.60449219 677.453613,9.44824219 C677.04834,9.29199219 676.5625,9.21386719 675.996094,9.21386719 C675.136719,9.21386719 674.389648,9.45068359 673.754883,9.92431641 C673.120117,10.3979492 672.626953,11.105957 672.275391,12.0483398 C671.923828,12.9907227 671.748047,14.1552734 671.748047,15.5419922 C671.748047,17.1533203 671.958008,18.4912109 672.37793,19.5556641 C672.797852,20.6201172 673.369141,21.40625 674.091797,21.9140625 C674.814453,22.421875 675.629883,22.6757812 676.538086,22.6757812 C677.387695,22.6757812 678.171387,22.5512695 678.88916,22.3022461 C679.606934,22.0532227 680.219727,21.7480469 680.727539,21.3867188 L681.357422,22.734375 C681.005859,23.0957031 680.537109,23.4448242 679.951172,23.7817383 C679.365234,24.1186523 678.708496,24.3945312 677.980957,24.609375 C677.253418,24.8242188 676.523438,24.9316406 675.791016,24.9316406 C674.140625,24.9316406 672.744141,24.5654297 671.601562,23.8330078 C670.458984,23.1005859 669.602051,22.097168 669.030762,20.8227539 C668.459473,19.5483398 668.173828,18.1005859 668.173828,16.4794922 C668.173828,14.8095703 668.496094,13.293457 669.140625,11.9311523 C669.785156,10.5688477 670.742188,9.48730469 672.011719,8.68652344 C673.28125,7.88574219 674.814453,7.48535156 676.611328,7.48535156 Z" id="Path"></path>
            <path d="M695.683594,22.6025391 C695.058594,23.2080078 694.267578,23.7475586 693.310547,24.2211914 C692.353516,24.6948242 691.386719,24.9316406 690.410156,24.9316406 C689.189453,24.9316406 688.198242,24.7143555 687.436523,24.2797852 C686.674805,23.8452148 686.113281,23.1542969 685.751953,22.2070312 C685.390625,21.2597656 685.209961,20.0097656 685.209961,18.4570312 L685.209961,9.9609375 L683.583984,9.41894531 L683.583984,7.99804688 L687.919922,7.55859375 L687.93457,7.55859375 L688.549805,7.95410156 L688.549805,18.2958984 C688.549805,19.4091797 688.632812,20.2783203 688.798828,20.9033203 C688.964844,21.5283203 689.257812,21.9848633 689.677734,22.2729492 C690.097656,22.5610352 690.703125,22.7050781 691.494141,22.7050781 C692.255859,22.7050781 692.963867,22.5585938 693.618164,22.265625 C694.272461,21.9726562 694.838867,21.6357422 695.317383,21.2548828 L695.317383,9.97558594 L693.222656,9.40429688 L693.222656,7.98339844 L697.851562,7.55859375 L697.880859,7.55859375 L698.657227,7.95410156 L698.657227,22.9394531 L700.415039,22.9394531 L700.415039,24.4042969 C699.848633,24.5703125 699.35791,24.699707 698.942871,24.7924805 C698.527832,24.8852539 698.051758,24.9316406 697.514648,24.9316406 C696.889648,24.9316406 696.428223,24.8120117 696.130371,24.5727539 C695.83252,24.3334961 695.683594,23.9306641 695.683594,23.3642578 L695.683594,22.6025391 Z" id="Path"></path>
            <path d="M705.19043,22.7783203 L705.19043,10.4736328 L703.110352,9.88769531 L703.110352,8.12988281 L707.299805,7.54394531 L707.373047,7.54394531 L708.076172,8.11523438 L708.076172,9.03808594 L708.046875,10.9423828 L708.076172,10.9423828 C708.251953,10.6201172 708.591309,10.1879883 709.094238,9.64599609 C709.597168,9.10400391 710.246582,8.60839844 711.04248,8.15917969 C711.838379,7.70996094 712.705078,7.48535156 713.642578,7.48535156 C714.023438,7.48535156 714.345703,7.5390625 714.609375,7.64648438 L714.609375,11.25 C714.423828,11.1425781 714.177246,11.0522461 713.869629,10.9790039 C713.562012,10.9057617 713.232422,10.8691406 712.880859,10.8691406 C711.894531,10.8691406 711.04248,10.9887695 710.324707,11.2280273 C709.606934,11.4672852 709.008789,11.7675781 708.530273,12.1289062 L708.530273,22.7636719 L712.382812,23.0273438 L712.382812,24.5947266 L702.890625,24.5947266 L702.890625,23.0126953 L705.19043,22.7783203 Z" id="Path"></path>
            <path d="M718.857422,22.7490234 L718.857422,10.4736328 L716.733398,9.87304688 L716.733398,8.14453125 L721.391602,7.54394531 L721.464844,7.54394531 L722.211914,8.11523438 L722.211914,22.7490234 L724.555664,22.9980469 L724.555664,24.5947266 L716.484375,24.5947266 L716.484375,22.9980469 L718.857422,22.7490234 Z M718.256836,2.78320312 C718.256836,2.11914062 718.449707,1.55761719 718.835449,1.09863281 C719.221191,0.639648438 719.760742,0.41015625 720.454102,0.41015625 L720.46875,0.41015625 C720.878906,0.41015625 721.235352,0.505371094 721.538086,0.695800781 C721.84082,0.886230469 722.072754,1.13769531 722.233887,1.45019531 C722.39502,1.76269531 722.475586,2.09472656 722.475586,2.44628906 C722.475586,3.12988281 722.280273,3.69140625 721.889648,4.13085938 C721.499023,4.5703125 720.932617,4.79003906 720.19043,4.79003906 L720.175781,4.79003906 C719.609375,4.79003906 719.147949,4.59960938 718.791504,4.21875 C718.435059,3.83789062 718.256836,3.359375 718.256836,2.78320312 Z" id="Shape"></path>
            <path d="M726.357422,10.0341797 L726.357422,8.64257812 C726.630859,8.57421875 726.945801,8.4765625 727.302246,8.34960938 C727.658691,8.22265625 727.890625,8.125 727.998047,8.05664062 C728.320312,7.82226562 728.583984,7.44140625 728.789062,6.9140625 C728.935547,6.58203125 729.128418,6.05224609 729.367676,5.32470703 C729.606934,4.59716797 729.770508,4.04785156 729.858398,3.67675781 L731.762695,3.67675781 L731.791992,7.93945312 L736.713867,7.93945312 L736.713867,10.0341797 L731.806641,10.0341797 L731.806641,18.8964844 C731.806641,20.0878906 731.84082,20.9155273 731.90918,21.3793945 C731.977539,21.8432617 732.116699,22.1411133 732.32666,22.2729492 C732.536621,22.4047852 732.919922,22.4707031 733.476562,22.4707031 L733.491211,22.4707031 C733.999023,22.4707031 734.572754,22.4072266 735.212402,22.2802734 C735.852051,22.1533203 736.347656,22.0214844 736.699219,21.8847656 L736.713867,21.8847656 L737.211914,23.3056641 C736.918945,23.5498047 736.479492,23.7963867 735.893555,24.0454102 C735.307617,24.2944336 734.677734,24.5019531 734.003906,24.6679688 C733.330078,24.8339844 732.709961,24.9169922 732.143555,24.9169922 L732.114258,24.9169922 C730.90332,24.9169922 729.990234,24.6508789 729.375,24.1186523 C728.759766,23.5864258 728.452148,22.6953125 728.452148,21.4453125 L728.452148,10.0341797 L726.357422,10.0341797 Z" id="Path"></path>
            <path d="M739.731445,29.0771484 C739.848633,29.1455078 740.087891,29.206543 740.449219,29.2602539 C740.810547,29.3139648 741.152344,29.3408203 741.474609,29.3408203 C742.060547,29.3408203 742.600098,29.2211914 743.093262,28.9819336 C743.586426,28.7426758 744.086914,28.2763672 744.594727,27.5830078 C745.102539,26.8896484 745.595703,25.8935547 746.074219,24.5947266 L744.418945,24.5947266 L738.94043,9.87304688 L737.548828,9.4921875 L737.548828,7.93945312 L745.004883,7.93945312 L745.004883,9.4921875 L742.705078,9.87304688 L745.532227,18.7207031 L746.835938,22.96875 L748.007812,18.7060547 L750.65918,9.85839844 L748.696289,9.4921875 L748.696289,7.93945312 L754.848633,7.93945312 L754.848633,9.4921875 L753.354492,9.85839844 C751.948242,14.2333984 750.803223,17.7270508 749.919434,20.3393555 C749.035645,22.9516602 748.47168,24.5361328 748.227539,25.0927734 C747.563477,26.7724609 746.936035,28.1005859 746.345215,29.0771484 C745.754395,30.0537109 745.070801,30.7958984 744.294434,31.3037109 C743.518066,31.8115234 742.568359,32.0654297 741.445312,32.0654297 C741.142578,32.0654297 740.81543,32.043457 740.463867,31.9995117 C740.112305,31.9555664 739.868164,31.9042969 739.731445,31.8457031 L739.731445,29.0771484 Z" id="Path"></path>
        </g>
    </g>
</svg>