<?xml version="1.0" encoding="UTF-8"?>
<svg width="164px" height="64px" viewBox="0 0 164 64" version="1.1" xmlns="http://www.w3.org/2000/svg" xmlns:xlink="http://www.w3.org/1999/xlink">
    <title>logo/eic/white/short/eic-logo-white-short</title>
    <g id="logo/eic/white/short/eic-logo-white-short" stroke="none" stroke-width="1" fill="none" fill-rule="evenodd">
        <path d="M32,0 C49.673,0 64,14.327 64,32 C64,49.673 49.673,64 32,64 C14.327,64 0,49.673 0,32 C0,14.327 14.327,0 32,0 Z M33.556,10.9998 L30.854,10.9998 C29.665,11.0008 28.651,11.8538 28.446,13.0238 L27.885,16.2088 C26.509,16.5838 25.188,17.1348 23.954,17.8488 L21.31,15.9918 C20.327,15.3208 19.004,15.4538 18.175,16.3058 L16.268,18.2138 C15.428,19.0528 15.312,20.3758 15.993,21.3478 L17.851,23.9928 C17.136,25.2258 16.584,26.5478 16.209,27.9238 L13.025,28.4838 C11.855,28.6888 11.001,29.7038 11,30.8918 L11,33.6238 C11.001,34.8108 11.855,35.8268 13.025,36.0318 L16.209,36.5918 C16.584,37.9678 17.136,39.2898 17.851,40.5228 L15.993,43.1678 C15.312,44.1398 15.428,45.4628 16.268,46.3018 L18.175,48.2088 C19.015,49.0488 20.337,49.1658 21.31,48.4838 L23.944,46.6268 C25.178,47.3408 26.499,47.8928 27.875,48.2678 L28.436,51.4528 C28.641,52.6218 29.655,53.4758 30.843,53.4768 L33.575,53.4768 C34.763,53.4758 35.779,52.6218 35.984,51.4528 L36.544,48.2678 C37.92,47.8938 39.241,47.3418 40.475,46.6268 L43.149,48.4348 C44.121,49.1168 45.444,49.0008 46.283,48.1598 L48.191,46.2538 C49.03,45.4138 49.147,44.0908 48.465,43.1178 L46.608,40.4738 C47.322,39.2398 47.874,37.9188 48.249,36.5428 L51.384,35.9638 C52.554,35.7578 53.407,34.7428 53.409,33.5548 L53.409,30.8518 C53.407,29.6648 52.554,28.6498 51.384,28.4448 L48.2,27.8838 C47.825,26.5078 47.274,25.1868 46.559,23.9528 L48.416,21.3088 C49.098,20.3358 48.982,19.0128 48.141,18.1738 L46.235,16.2668 C45.395,15.4258 44.072,15.3098 43.099,15.9918 L40.455,17.8488 C39.222,17.1338 37.901,16.5828 36.524,16.2088 L35.964,13.0238 C35.759,11.8538 34.743,11.0008 33.556,10.9998 Z M32.2046,17.2381 C36.317225,17.2381 39.6626,20.4517018 39.6626,24.4015203 L39.6626,24.4015203 L39.6626,26.8313651 L41.228725,26.8313651 C42.3191,26.8313651 43.2046,27.6811505 43.2046,28.7290211 L43.2046,28.7290211 L43.2046,41.340444 C43.2046,42.3889749 42.3191,43.2381 41.228725,43.2381 L41.228725,43.2381 L23.180475,43.2381 C22.088725,43.2381 21.2046,42.3889749 21.2046,41.340444 L21.2046,41.340444 L21.2046,28.7290211 C21.2046,27.6811505 22.088725,26.8313651 23.180475,26.8313651 L23.180475,26.8313651 L24.745225,26.8313651 L24.745225,24.4015203 C24.745225,20.4517018 28.0912875,17.2381 32.2046,17.2381 Z M32.205274,21.2381 C29.9993767,21.2381 28.2046,22.8998785 28.2046,24.9416881 L28.2046,24.9416881 L28.2046,27.2381 L36.2046,27.2381 L36.2046,24.9416881 C36.2046,22.8998785 34.4104972,21.2381 32.205274,21.2381 Z" id="icon" fill="#FFFFFF" fill-rule="nonzero"></path>
        <g id="EIC" transform="translate(74.250000, 13.953125)" fill="#FFFFFF" fill-rule="nonzero">
            <polygon id="Path" points="3.9375 32.9296875 3.9375 3.5625 0.0703125 2.9765625 0.0703125 0.375 24.4921875 0.375 25.1484375 7.8046875 22.125 7.8046875 20.671875 3.3515625 9.4453125 3.046875 9.4453125 16.2890625 17.0625 16.1484375 17.765625 12.2578125 20.7890625 12.2578125 20.7890625 23.3671875 17.765625 23.3671875 17.0859375 19.2421875 9.4453125 19.125 9.4453125 33.140625 22.3359375 32.625 24.984375 26.7421875 27.984375 27.6328125 26.6015625 36.046875 0 36.046875 0 33.4921875"></polygon>
            <polygon id="Path" points="36.046875 32.9296875 36.046875 3.5859375 31.7578125 2.9765625 31.7578125 0.375 45.8671875 0.375 45.8671875 2.9765625 41.578125 3.5625 41.578125 32.9296875 45.9375 33.5625 45.9375 36.046875 31.7578125 36.046875 31.7578125 33.4921875"></polygon>
            <path d="M50.0625,18.1875 C50.0625,14.5 50.8242188,11.28125 52.3476562,8.53125 C53.8710938,5.78125 55.953125,3.671875 58.59375,2.203125 C61.234375,0.734375 64.1875,0 67.453125,0 C68.953125,0 70.4023438,0.109375 71.8007812,0.328125 C73.1992188,0.546875 74.78125,0.8359375 76.546875,1.1953125 L77.8125,1.453125 L77.3671875,10.21875 L73.875,10.21875 L72.5625,4.2421875 C72.234375,3.8046875 71.5703125,3.45703125 70.5703125,3.19921875 C69.5703125,2.94140625 68.2578125,2.8125 66.6328125,2.8125 C64.6328125,2.8125 62.8632812,3.3828125 61.3242188,4.5234375 C59.7851562,5.6640625 58.5820312,7.34765625 57.7148438,9.57421875 C56.8476562,11.8007813 56.4140625,14.484375 56.4140625,17.625 C56.4140625,20.53125 56.8007812,23.2070312 57.5742188,25.6523438 C58.3476562,28.0976563 59.5429688,30.0664062 61.1601562,31.5585938 C62.7773438,33.0507812 64.796875,33.796875 67.21875,33.796875 C69.734375,33.796875 71.5390625,33.21875 72.6328125,32.0625 L74.671875,27.1171875 L78,27.5625 L76.96875,34.734375 C76.546875,34.765625 76.140625,34.8320312 75.75,34.9335938 C75.359375,35.0351562 74.8515625,35.1953125 74.2265625,35.4140625 C73.1640625,35.7890625 72.1484375,36.078125 71.1796875,36.28125 C70.2109375,36.484375 69.015625,36.5859375 67.59375,36.5859375 C63.875,36.5859375 60.703125,35.8554688 58.078125,34.3945312 C55.453125,32.9335938 53.4609375,30.828125 52.1015625,28.078125 C50.7421875,25.328125 50.0625,22.03125 50.0625,18.1875 Z" id="Path"></path>
        </g>
    </g>
</svg>