<?xml version="1.0" encoding="UTF-8"?>
<svg width="64px" height="64px" viewBox="0 0 64 64" version="1.1" xmlns="http://www.w3.org/2000/svg" xmlns:xlink="http://www.w3.org/1999/xlink">
    <title>logo/tbm/color-dark/icon/tbm-logo-color-dark-icon</title>
    <g id="logo/tbm/color-dark/icon/tbm-logo-color-dark-icon" stroke="none" stroke-width="1" fill="none" fill-rule="evenodd">
        <g id="Group">
            <path d="M32,64.0002 C14.327,64.0002 0,49.6732 0,32.0002 C0,14.3272 14.327,0.0002 32,0.0002 C49.673,0.0002 64,14.3272 64,32.0002 C64,49.6732 49.673,64.0002 32,64.0002 Z" id="circle" fill="#083C6F"></path>
            <polygon id="Fill-46" stroke="#F5EA14" stroke-width="2" points="16 50 48 50 41 42 23 42"></polygon>
            <path d="M32,48 C32.2213364,48 32.368894,47.9244332 32.5164516,47.7732997 C33.0329032,47.2443325 45.6842105,34.0633321 45.6842105,22.015833 C45.6842105,14.2900324 39.5430039,8 32,8 C24.4569961,8 18.3157895,14.2900324 18.3157895,22.015833 C18.3157895,34.0633321 30.8898047,47.2443325 31.4835484,47.7732997 C31.631106,47.9244332 31.7786636,48 32,48" id="Path" fill="#F5EA14"></path>
            <path d="M31.9818182,23.8 L37.4890759,29.2929224 C36.2021408,30.9417953 34.2115715,32 31.9868266,32 C29.7558174,32 27.769111,30.9358276 26.4899599,29.2789798 L31.9818182,23.8 Z M39,16 L39,24.8888254 C39,25.2406685 38.9746857,25.5865419 38.9258183,25.9246913 L31.9818182,19 L25.0692042,25.893656 C25.0235914,25.5653882 25,25.229912 25,24.8888254 L25,24.8888254 L25,16 L39,16 Z" id="icon" fill="#083C6F"></path>
        </g>
    </g>
</svg>