<?xml version="1.0" encoding="UTF-8"?>
<svg width="191px" height="64px" viewBox="0 0 191 64" version="1.1" xmlns="http://www.w3.org/2000/svg" xmlns:xlink="http://www.w3.org/1999/xlink">
    <title>logo/tbm/white/short/tbm-logo-white-short</title>
    <g id="logo/tbm/white/short/tbm-logo-white-short" stroke="none" stroke-width="1" fill="none" fill-rule="evenodd">
        <g id="TBM" transform="translate(72.750000, 13.976562)" fill="#FFFFFF" fill-rule="nonzero">
            <polygon id="Path" points="12.9609375 32.90625 12.9609375 3.140625 5.15625 3.375 3.3984375 13.171875 0 13.171875 0.8203125 0.3515625 30.4921875 0.3515625 31.2421875 13.171875 27.890625 13.171875 26.109375 3.375 18.609375 3.140625 18.609375 32.90625 25.2421875 33.46875 25.2421875 36.0234375 6.84375 36.0234375 6.84375 33.46875"></polygon>
            <path d="M38.5078125,32.90625 L38.5078125,3.5390625 L34.640625,2.953125 L34.640625,0.3515625 L41.015625,0.3515625 C42.078125,0.3515625 43.4375,0.2890625 45.09375,0.1640625 C46.375,0.0546875 47.4765625,0 48.3984375,0 C52.7890625,0 55.9726562,0.68359375 57.9492188,2.05078125 C59.9257812,3.41796875 60.9140625,5.4296875 60.9140625,8.0859375 C60.9140625,9.5703125 60.6289062,10.9257812 60.0585938,12.1523438 C59.4882812,13.3789062 58.6640625,14.4023438 57.5859375,15.2226563 C56.5078125,16.0429688 55.2265625,16.6015625 53.7421875,16.8984375 C55.6953125,16.8515625 57.4023438,17.171875 58.8632812,17.859375 C60.3242188,18.546875 61.453125,19.5390625 62.25,20.8359375 C63.046875,22.1328125 63.4453125,23.6484375 63.4453125,25.3828125 C63.4453125,28.6015625 62.3085938,31.2265625 60.0351562,33.2578125 C57.7617188,35.2890625 54,36.3046875 48.75,36.3046875 C48.171875,36.3046875 47.5625,36.2890625 46.921875,36.2578125 C46.28125,36.2265625 45.828125,36.203125 45.5625,36.1875 C43.671875,36.078125 42.171875,36.0234375 41.0625,36.0234375 L34.5703125,36.0234375 L34.5703125,33.46875 L38.5078125,32.90625 Z M43.9921875,15.84375 C44.7890625,15.90625 46.390625,15.9375 48.796875,15.9375 C53.21875,15.9375 55.4296875,13.6484375 55.4296875,9.0703125 C55.4296875,7.6015625 55.1953125,6.40234375 54.7265625,5.47265625 C54.2578125,4.54296875 53.4921875,3.84765625 52.4296875,3.38671875 C51.3671875,2.92578125 49.9296875,2.6953125 48.1171875,2.6953125 C46.9921875,2.6953125 46.0546875,2.73828125 45.3046875,2.82421875 C44.5546875,2.91015625 44.1171875,2.9609375 43.9921875,2.9765625 L43.9921875,15.84375 Z M43.96875,33.140625 C44.34375,33.3125 44.9375,33.4257812 45.75,33.4804688 C46.5625,33.5351562 47.515625,33.5625 48.609375,33.5625 C51.734375,33.5625 53.9960938,32.9296875 55.3945312,31.6640625 C56.7929688,30.3984375 57.4921875,28.5625 57.4921875,26.15625 C57.4921875,24.421875 57.21875,23.0234375 56.671875,21.9609375 C56.125,20.8984375 55.2617188,20.1210938 54.0820312,19.6289062 C52.9023438,19.1367188 51.3515625,18.890625 49.4296875,18.890625 L47.15625,18.890625 C45.515625,18.890625 44.453125,18.90625 43.96875,18.9375 L43.96875,33.140625 Z" id="Shape"></path>
            <polygon id="Path" points="69.3515625 32.9296875 72.8671875 3.5390625 67.8515625 2.953125 67.8515625 0.3515625 80.6484375 0.3515625 88.0078125 21.84375 89.2265625 27.234375 90.28125 21.84375 96.7734375 0.3515625 109.570312 0.3515625 109.570312 2.953125 104.367188 3.5625 108.914062 32.90625 113.109375 33.46875 113.109375 36.0234375 99.1875 36.0234375 99.1875 33.46875 103.335938 32.9296875 100.382812 11.6484375 99.3515625 2.296875 97.734375 8.71875 90.09375 34.4296875 87.0703125 34.4296875 78.609375 11.34375 76.0078125 2.3203125 75.2578125 11.625 73.359375 32.90625 77.9765625 33.46875 77.9765625 36.0234375 65.1796875 36.0234375 65.1796875 33.46875"></polygon>
        </g>
        <path d="M32,0 C49.673,0 64,14.327 64,32 C64,49.673 49.673,64 32,64 C14.327,64 0,49.673 0,32 C0,14.327 14.327,0 32,0 Z M32,7.9998 C24.4569961,7.9998 18.3157895,14.2898324 18.3157895,22.015633 C18.3157895,29.2690984 22.8737574,36.9334479 26.630823,42.0000462 L23,41.9998 L16,49.9998 L48,49.9998 L41,41.9998 L37.33573,42.0000462 C41.0982249,36.9334479 45.6842105,29.2690984 45.6842105,22.015633 C45.6842105,14.2898324 39.5430039,7.9998 32,7.9998 Z M31.4835484,47.7730997 C31.631106,47.9242332 31.7786636,47.9998 32,47.9998 C32.2213364,47.9998 32.368894,47.9242332 32.5164516,47.7730997 C32.7007378,47.5843475 34.4301404,45.7846274 36.5785018,43.0002841 L39.3125,42.9998 L45,48.9998 L19,48.9998 L24.6875,42.9998 L27.3872712,43.0002841 C29.5343821,45.7846274 31.2716819,47.5843475 31.4835484,47.7730997 Z M31.9818182,23.7998 L37.4890759,29.2927224 C36.2021408,30.9415953 34.2115715,31.9998 31.9868266,31.9998 C29.7558174,31.9998 27.769111,30.9356276 26.4899599,29.2787798 L31.9818182,23.7998 Z M39,15.9998 L39,24.8886254 C39,25.2404685 38.9746857,25.5863419 38.9258183,25.9244913 L31.9818182,18.9998 L25.0692042,25.893456 C25.0387957,25.6746108 25.0181744,25.4525619 25.0078057,25.2277827 L25,24.8886254 L25,15.9998 L39,15.9998 Z" id="icon" fill="#FFFFFF" fill-rule="nonzero"></path>
    </g>
</svg>