<?xml version="1.0" encoding="UTF-8"?>
<svg width="64px" height="64px" viewBox="0 0 64 64" version="1.1" xmlns="http://www.w3.org/2000/svg" xmlns:xlink="http://www.w3.org/1999/xlink">
    <title>logo/hrc/white/icon/hrc-logo-white-icon</title>
    <g id="logo/hrc/white/icon/hrc-logo-white-icon" stroke="none" stroke-width="1" fill="none" fill-rule="evenodd">
        <path d="M32,0 C49.673,0 64,14.327 64,32 C64,49.674 49.673,64 32,64 C14.327,64 0,49.674 0,32 C0,14.327 14.327,0 32,0 Z M25.7686,36.8549 L12.9136,49.7099 L12.8582139,49.7750233 C12.6320444,50.0905978 12.852,50.5549 13.2636,50.5549 L13.2636,50.5549 L17.3936,50.5549 L17.7037612,50.5484263 C19.5599657,50.4708917 21.3239158,49.6995842 22.6436,48.3799 L22.6436,48.3799 L29.9686,41.0549 L25.7686,36.8549 Z M38.2315,36.8549 L34.0315,41.0549 L41.3565,48.3799 C42.7495,49.7729 44.6375,50.5549 46.6065,50.5549 L46.6065,50.5549 L50.7365,50.5549 C51.1775,50.5549 51.3985,50.0219 51.0855,49.7099 L51.0855,49.7099 L38.2315,36.8549 Z M16.5734,19.0829 L13.2634,19.0829 L13.1782261,19.0897833 C12.7953022,19.1529844 12.6222,19.6367 12.9134,19.9279 L12.9134,19.9279 L32.0004,39.0149 L51.0864,19.9279 L51.1417861,19.8627767 C51.3679556,19.5472022 51.148,19.0829 50.7364,19.0829 L50.7364,19.0829 L47.4264,19.0829 L47.1017173,19.0885021 C44.7255871,19.1705352 42.4637043,20.1505957 40.7764,21.8379 L40.7764,21.8379 L32.0004,30.6139 L23.2234,21.8379 L22.9899142,21.6122147 C21.2521221,19.9895994 18.9589652,19.0829 16.5734,19.0829 L16.5734,19.0829 Z M32.0004,10.6585 C28.9244,10.6585 26.4314,13.1515 26.4314,16.2265 C26.4314,19.3015 28.9244,21.7945 32.0004,21.7945 C35.0754,21.7945 37.5684,19.3015 37.5684,16.2265 C37.5684,13.1515 35.0754,10.6585 32.0004,10.6585 Z" id="icon" fill="#FFFFFF" fill-rule="nonzero"></path>
    </g>
</svg>