<?xml version="1.0" encoding="UTF-8"?>
<svg width="283px" height="64px" viewBox="0 0 283 64" version="1.1" xmlns="http://www.w3.org/2000/svg" xmlns:xlink="http://www.w3.org/1999/xlink">
    <title>logo/teic/color-dark/long/teic-logo-color-dark-long</title>
    <g id="logo/teic/color-dark/long/teic-logo-color-dark-long" stroke="none" stroke-width="1" fill="none" fill-rule="evenodd">
        <g id="Group">
            <path d="M32,64.0002 C14.327,64.0002 0,49.6732 0,32.0002 C0,14.3272 14.327,0.0002 32,0.0002 C49.673,0.0002 64,14.3272 64,32.0002 C64,49.6732 49.673,64.0002 32,64.0002 Z" id="circle" fill="#083C6F"></path>
            <path d="M48,16 L48,35.9998571 C48,42.2067531 44.4430835,47.5879326 39.2695573,50.2412268 L38.9991611,50.3766932 L38.9991611,50.3766932 L38.9998,27.9996 L35.9998,27.9996 L35.9998126,51.4873108 C35.1894556,51.6977352 34.3545898,51.8462517 33.5006727,51.9275098 L33.5,28 L30.5,28 L30.5006061,51.9331926 C29.645491,51.8550516 28.8098651,51.7093785 27.999086,51.5015411 L27.9998,27.9996 L24.9998,27.9996 L24.9994483,50.3996242 C19.672054,47.8063497 16,42.3329159 16,35.9998571 L16,35.9998571 L16,16 L48,16 Z M40.145448,23.9996 L23.8551844,23.9996 C21.1771348,23.9996 18.9998,26.2420242 18.9998,28.9990684 C18.9998,31.7571758 21.1771348,33.9996 23.8551844,33.9996 L23.8551844,33.9996 L23.8551844,31.0607377 C22.7505147,31.0607377 21.8523254,30.1356978 21.8523254,28.9990684 C21.8523254,27.8635022 22.7505147,26.937399 23.8551844,26.937399 L23.8551844,26.937399 L40.145448,26.937399 C41.2480529,26.937399 42.1462422,27.8635022 42.1462422,28.9990684 C42.1462422,30.1356978 41.2480529,31.0607377 40.145448,31.0607377 L40.145448,31.0607377 L40.145448,33.9996 C42.8224652,33.9996 44.9998,31.7571758 44.9998,28.9990684 C44.9998,26.2420242 42.8224652,23.9996 40.145448,23.9996 L40.145448,23.9996 Z" id="icon" fill="#F5EA14"></path>
        </g>
        <g id="TEI-Coaching" transform="translate(75.468750, 18.405273)" fill="#000000">
            <polygon id="Path" points="8.10058594 22.6464844 8.10058594 4.04296875 3.22265625 4.18945312 2.12402344 10.3125 0 10.3125 0.512695312 2.29980469 19.0576172 2.29980469 19.5263672 10.3125 17.4316406 10.3125 16.3183594 4.18945312 11.6308594 4.04296875 11.6308594 22.6464844 15.7763672 22.9980469 15.7763672 24.5947266 4.27734375 24.5947266 4.27734375 22.9980469"></polygon>
            <polygon id="Path" points="24.0673828 22.6464844 24.0673828 4.29199219 21.6503906 3.92578125 21.6503906 2.29980469 36.9140625 2.29980469 37.3242188 6.94335938 35.4345703 6.94335938 34.5263672 4.16015625 27.5097656 3.96972656 27.5097656 12.2460938 32.2705078 12.1582031 32.7099609 9.7265625 34.5996094 9.7265625 34.5996094 16.6699219 32.7099609 16.6699219 32.2851562 14.0917969 27.5097656 14.0185547 27.5097656 22.7783203 35.5664062 22.4560547 37.2216797 18.7792969 39.0966797 19.3359375 38.2324219 24.5947266 21.6064453 24.5947266 21.6064453 22.9980469"></polygon>
            <polygon id="Path" points="44.1357422 22.6464844 44.1357422 4.30664062 41.4550781 3.92578125 41.4550781 2.29980469 50.2734375 2.29980469 50.2734375 3.92578125 47.5927734 4.29199219 47.5927734 22.6464844 50.3173828 23.0419922 50.3173828 24.5947266 41.4550781 24.5947266 41.4550781 22.9980469"></polygon>
            <path d="M61.9189453,13.4326172 C61.9189453,11.1279297 62.3950195,9.11621094 63.347168,7.39746094 C64.2993164,5.67871094 65.6005859,4.36035156 67.2509766,3.44238281 C68.9013672,2.52441406 70.7470703,2.06542969 72.7880859,2.06542969 C73.7255859,2.06542969 74.6313477,2.13378906 75.5053711,2.27050781 C76.3793945,2.40722656 77.3681641,2.58789062 78.4716797,2.8125 L79.2626953,2.97363281 L78.984375,8.45214844 L76.8017578,8.45214844 L75.9814453,4.71679688 C75.7763672,4.44335938 75.3613281,4.22607422 74.7363281,4.06494141 C74.1113281,3.90380859 73.2910156,3.82324219 72.2753906,3.82324219 C71.0253906,3.82324219 69.9194336,4.1796875 68.9575195,4.89257812 C67.9956055,5.60546875 67.2436523,6.65771484 66.7016602,8.04931641 C66.159668,9.44091797 65.8886719,11.1181641 65.8886719,13.0810547 C65.8886719,14.8974609 66.1303711,16.5698242 66.6137695,18.0981445 C67.097168,19.6264648 67.8442383,20.8569336 68.8549805,21.7895508 C69.8657227,22.722168 71.1279297,23.1884766 72.6416016,23.1884766 C74.2138672,23.1884766 75.3417969,22.8271484 76.0253906,22.1044922 L77.2998047,19.0136719 L79.3798828,19.2919922 L78.7353516,23.7744141 C78.4716797,23.7939453 78.2177734,23.8354492 77.9736328,23.8989258 C77.7294922,23.9624023 77.4121094,24.0625 77.0214844,24.1992188 C76.3574219,24.4335938 75.7226562,24.6142578 75.1171875,24.7412109 C74.5117188,24.8681641 73.7646484,24.9316406 72.8759766,24.9316406 C70.5517578,24.9316406 68.5693359,24.4750977 66.9287109,23.5620117 C65.2880859,22.6489258 64.0429688,21.3330078 63.1933594,19.6142578 C62.34375,17.8955078 61.9189453,15.8349609 61.9189453,13.4326172 Z" id="Path"></path>
            <path d="M89.6044922,7.48535156 C91.3037109,7.48535156 92.7197266,7.86132812 93.8525391,8.61328125 C94.9853516,9.36523438 95.8251953,10.3979492 96.3720703,11.7114258 C96.9189453,13.0249023 97.1923828,14.5263672 97.1923828,16.2158203 C97.1923828,18.0224609 96.8188477,19.5849609 96.0717773,20.9033203 C95.324707,22.2216797 94.3432617,23.2226562 93.1274414,23.90625 C91.9116211,24.5898438 90.6152344,24.9316406 89.2382812,24.9316406 C87.5390625,24.9316406 86.1254883,24.5556641 84.9975586,23.8037109 C83.8696289,23.0517578 83.0322266,22.019043 82.4853516,20.7055664 C81.9384766,19.3920898 81.6650391,17.890625 81.6650391,16.2011719 C81.6650391,14.4140625 82.0385742,12.8613281 82.7856445,11.5429688 C83.5327148,10.2246094 84.5141602,9.21875 85.7299805,8.52539062 C86.9458008,7.83203125 88.2373047,7.48535156 89.6044922,7.48535156 Z M93.4863281,16.4794922 C93.4863281,14.2822266 93.1616211,12.5366211 92.512207,11.2426758 C91.862793,9.94873047 90.8349609,9.30175781 89.4287109,9.30175781 C88.0810547,9.30175781 87.0654297,9.85595703 86.3818359,10.9643555 C85.6982422,12.0727539 85.3564453,13.7304688 85.3564453,15.9375 C85.3564453,18.1347656 85.6860352,19.8803711 86.3452148,21.1743164 C87.0043945,22.4682617 88.0322266,23.1152344 89.4287109,23.1152344 C92.1337891,23.1152344 93.4863281,20.9033203 93.4863281,16.4794922 Z" id="Shape"></path>
            <path d="M109.40918,13.7109375 C109.40918,12.7929688 109.313965,12.0703125 109.123535,11.5429688 C108.933105,11.015625 108.603516,10.6298828 108.134766,10.3857422 C107.666016,10.1416016 107.001953,10.0195312 106.142578,10.0195312 C104.492188,10.0195312 102.753906,10.4833984 100.927734,11.4111328 L100.913086,11.4111328 L100.180664,9.88769531 C100.444336,9.65332031 100.949707,9.35058594 101.696777,8.97949219 C102.443848,8.60839844 103.293457,8.28369141 104.245605,8.00537109 C105.197754,7.72705078 106.103516,7.58789062 106.962891,7.58789062 C108.388672,7.58789062 109.509277,7.78076172 110.324707,8.16650391 C111.140137,8.55224609 111.728516,9.16992188 112.089844,10.0195312 C112.451172,10.8691406 112.631836,12.0166016 112.631836,13.4619141 L112.631836,22.9833984 L114.418945,22.9833984 L114.418945,24.4189453 C112.993164,24.7607422 111.918945,24.9316406 111.196289,24.9316406 C110.786133,24.9316406 110.473633,24.8974609 110.258789,24.8291016 C110.043945,24.7607422 109.885254,24.621582 109.782715,24.4116211 C109.680176,24.2016602 109.628906,23.8769531 109.628906,23.4375 L109.628906,22.734375 C109.101562,23.2519531 108.408203,23.7475586 107.548828,24.2211914 C106.689453,24.6948242 105.727539,24.9316406 104.663086,24.9316406 C103.725586,24.9316406 102.873535,24.7607422 102.106934,24.4189453 C101.340332,24.0771484 100.72998,23.5498047 100.275879,22.8369141 C99.8217773,22.1240234 99.5947266,21.2353516 99.5947266,20.1708984 C99.5947266,18.8720703 100.046387,17.8027344 100.949707,16.9628906 C101.853027,16.1230469 103.039551,15.5053711 104.509277,15.1098633 C105.979004,14.7143555 107.612305,14.5019531 109.40918,14.4726562 L109.40918,13.7109375 Z M109.40918,16.1279297 C107.973633,16.1279297 106.794434,16.2915039 105.871582,16.6186523 C104.94873,16.9458008 104.279785,17.3779297 103.864746,17.9150391 C103.449707,18.4521484 103.242188,19.0625 103.242188,19.7460938 C103.242188,20.7714844 103.496094,21.5234375 104.003906,22.0019531 C104.511719,22.4804688 105.195312,22.7197266 106.054688,22.7197266 C106.513672,22.7197266 107.067871,22.590332 107.717285,22.331543 C108.366699,22.0727539 108.930664,21.7578125 109.40918,21.3867188 L109.40918,16.1279297 Z" id="Shape"></path>
            <path d="M124.731445,7.48535156 C126.137695,7.48535156 127.641602,7.78808594 129.243164,8.39355469 L129.09668,12.9052734 L127.060547,12.9052734 L126.386719,10.1660156 C126.25,9.84375 125.979004,9.60449219 125.57373,9.44824219 C125.168457,9.29199219 124.682617,9.21386719 124.116211,9.21386719 C123.256836,9.21386719 122.509766,9.45068359 121.875,9.92431641 C121.240234,10.3979492 120.74707,11.105957 120.395508,12.0483398 C120.043945,12.9907227 119.868164,14.1552734 119.868164,15.5419922 C119.868164,17.1533203 120.078125,18.4912109 120.498047,19.5556641 C120.917969,20.6201172 121.489258,21.40625 122.211914,21.9140625 C122.93457,22.421875 123.75,22.6757812 124.658203,22.6757812 C125.507812,22.6757812 126.291504,22.5512695 127.009277,22.3022461 C127.727051,22.0532227 128.339844,21.7480469 128.847656,21.3867188 L129.477539,22.734375 C129.125977,23.0957031 128.657227,23.4448242 128.071289,23.7817383 C127.485352,24.1186523 126.828613,24.3945312 126.101074,24.609375 C125.373535,24.8242188 124.643555,24.9316406 123.911133,24.9316406 C122.260742,24.9316406 120.864258,24.5654297 119.72168,23.8330078 C118.579102,23.1005859 117.722168,22.097168 117.150879,20.8227539 C116.57959,19.5483398 116.293945,18.1005859 116.293945,16.4794922 C116.293945,14.8095703 116.616211,13.293457 117.260742,11.9311523 C117.905273,10.5688477 118.862305,9.48730469 120.131836,8.68652344 C121.401367,7.88574219 122.93457,7.48535156 124.731445,7.48535156 Z" id="Path"></path>
            <path d="M133.564453,22.7636719 L133.564453,2.31445312 L131.147461,2.02148438 L131.147461,0.629882812 L136.113281,0 L136.186523,0 L136.889648,0.498046875 L136.904297,7.29492187 L136.772461,9.91699219 C137.436523,9.33105469 138.305664,8.79150391 139.379883,8.29833984 C140.454102,7.80517578 141.557617,7.55859375 142.69043,7.55859375 C143.94043,7.55859375 144.914551,7.79785156 145.612793,8.27636719 C146.311035,8.75488281 146.799316,9.48974609 147.077637,10.480957 C147.355957,11.472168 147.495117,12.8027344 147.495117,14.4726562 L147.495117,22.7490234 L149.604492,22.9980469 L149.604492,24.5947266 L142.236328,24.5947266 L142.236328,23.0126953 L144.155273,22.7636719 L144.155273,14.4580078 C144.155273,13.3251953 144.07959,12.434082 143.928223,11.784668 C143.776855,11.1352539 143.486328,10.6469727 143.056641,10.3198242 C142.626953,9.99267578 141.99707,9.82910156 141.166992,9.82910156 C140.463867,9.82910156 139.726562,9.97314453 138.955078,10.2612305 C138.183594,10.5493164 137.504883,10.9130859 136.918945,11.3525391 L136.918945,22.7490234 L138.999023,22.9980469 L138.999023,24.5947266 L131.806641,24.5947266 L131.806641,22.9980469 L133.564453,22.7636719 Z" id="Path"></path>
            <path d="M153.881836,22.7490234 L153.881836,10.4736328 L151.757812,9.87304688 L151.757812,8.14453125 L156.416016,7.54394531 L156.489258,7.54394531 L157.236328,8.11523438 L157.236328,22.7490234 L159.580078,22.9980469 L159.580078,24.5947266 L151.508789,24.5947266 L151.508789,22.9980469 L153.881836,22.7490234 Z M153.28125,2.78320312 C153.28125,2.11914062 153.474121,1.55761719 153.859863,1.09863281 C154.245605,0.639648438 154.785156,0.41015625 155.478516,0.41015625 L155.493164,0.41015625 C155.90332,0.41015625 156.259766,0.505371094 156.5625,0.695800781 C156.865234,0.886230469 157.097168,1.13769531 157.258301,1.45019531 C157.419434,1.76269531 157.5,2.09472656 157.5,2.44628906 C157.5,3.12988281 157.304688,3.69140625 156.914062,4.13085938 C156.523438,4.5703125 155.957031,4.79003906 155.214844,4.79003906 L155.200195,4.79003906 C154.633789,4.79003906 154.172363,4.59960938 153.815918,4.21875 C153.459473,3.83789062 153.28125,3.359375 153.28125,2.78320312 Z" id="Shape"></path>
            <path d="M163.813477,22.7490234 L163.813477,10.4736328 L161.71875,9.88769531 L161.71875,8.12988281 L166.054688,7.54394531 L166.12793,7.54394531 L166.816406,8.11523438 L166.816406,9.30175781 L166.801758,9.97558594 C167.250977,9.57519531 167.814941,9.18945312 168.493652,8.81835938 C169.172363,8.44726562 169.899902,8.14453125 170.67627,7.91015625 C171.452637,7.67578125 172.1875,7.55859375 172.880859,7.55859375 C174.150391,7.55859375 175.131836,7.79541016 175.825195,8.26904297 C176.518555,8.74267578 177.001953,9.47265625 177.275391,10.4589844 C177.548828,11.4453125 177.685547,12.7832031 177.685547,14.4726562 L177.685547,22.7490234 L179.794922,22.9980469 L179.794922,24.5947266 L172.441406,24.5947266 L172.441406,22.9980469 L174.316406,22.7490234 L174.316406,14.4580078 C174.316406,13.3251953 174.240723,12.434082 174.089355,11.784668 C173.937988,11.1352539 173.652344,10.6469727 173.232422,10.3198242 C172.8125,9.99267578 172.192383,9.82910156 171.37207,9.82910156 C170.668945,9.82910156 169.936523,9.98046875 169.174805,10.2832031 C168.413086,10.5859375 167.744141,10.9521484 167.167969,11.3818359 L167.167969,22.7490234 L169.189453,22.9980469 L169.189453,24.5947266 L161.894531,24.5947266 L161.894531,22.9980469 L163.813477,22.7490234 Z" id="Path"></path>
            <path d="M189.052734,18.6621094 C188.251953,18.6621094 187.504883,18.5791016 186.811523,18.4130859 C186.538086,18.6572266 186.323242,18.9379883 186.166992,19.2553711 C186.010742,19.5727539 185.932617,19.8974609 185.932617,20.2294922 C185.932617,20.7177734 186.047363,21.0913086 186.276855,21.3500977 C186.506348,21.6088867 186.853027,21.7871094 187.316895,21.8847656 C187.780762,21.9824219 188.417969,22.03125 189.228516,22.03125 L192.421875,22.03125 C196.240234,22.03125 198.149414,23.4960938 198.149414,26.4257812 C198.149414,27.5585938 197.746582,28.6035156 196.940918,29.5605469 C196.135254,30.5175781 195.058594,31.2768555 193.710938,31.8383789 C192.363281,32.3999023 190.917969,32.6806641 189.375,32.6806641 L189.360352,32.6806641 C186.743164,32.6806641 184.84375,32.2827148 183.662109,31.4868164 C182.480469,30.690918 181.889648,29.5654297 181.889648,28.1103516 C181.889648,27.2021484 182.155762,26.3793945 182.687988,25.6420898 C183.220215,24.9047852 183.862305,24.3457031 184.614258,23.9648438 C183.666992,23.4277344 183.193359,22.6074219 183.193359,21.5039062 C183.193359,20.7714844 183.40332,20.0952148 183.823242,19.4750977 C184.243164,18.8549805 184.794922,18.3544922 185.478516,17.9736328 C184.501953,17.5244141 183.752441,16.887207 183.22998,16.0620117 C182.70752,15.2368164 182.446289,14.2724609 182.446289,13.1689453 C182.446289,12.0166016 182.773438,11.0107422 183.427734,10.1513672 C184.082031,9.29199219 184.941406,8.63525391 186.005859,8.18115234 C187.070312,7.72705078 188.208008,7.49511719 189.418945,7.48535156 L189.433594,7.48535156 C190.488281,7.48535156 191.435547,7.60498047 192.275391,7.84423828 C193.115234,8.08349609 193.823242,8.4375 194.399414,8.90625 C194.692383,8.56445312 195.131836,8.23730469 195.717773,7.92480469 C196.303711,7.61230469 196.992188,7.45605469 197.783203,7.45605469 L198.574219,7.45605469 L198.574219,10.2978516 L195.498047,10.2978516 C195.839844,11.0107422 196.010742,11.796875 196.010742,12.65625 C196.010742,13.828125 195.708008,14.8706055 195.102539,15.7836914 C194.49707,16.6967773 193.666992,17.4047852 192.612305,17.9077148 C191.557617,18.4106445 190.375977,18.6621094 189.067383,18.6621094 L189.052734,18.6621094 Z M189.228516,9.19921875 C188.173828,9.19921875 187.355957,9.48486328 186.774902,10.0561523 C186.193848,10.6274414 185.90332,11.5625 185.90332,12.8613281 C185.90332,14.0917969 186.179199,15.0756836 186.730957,15.8129883 C187.282715,16.550293 188.164062,16.9189453 189.375,16.9189453 L189.389648,16.9189453 C190.50293,16.9189453 191.311035,16.5869141 191.813965,15.9228516 C192.316895,15.2587891 192.568359,14.2871094 192.568359,13.0078125 C192.568359,11.6992188 192.297363,10.7373047 191.755371,10.1220703 C191.213379,9.50683594 190.375977,9.19921875 189.243164,9.19921875 L189.228516,9.19921875 Z M186.108398,24.4775391 C185.483398,25.2490234 185.170898,26.171875 185.170898,27.2460938 C185.170898,28.4179688 185.517578,29.3066406 186.210938,29.9121094 C186.904297,30.5175781 188.041992,30.8203125 189.624023,30.8203125 L189.65332,30.8203125 C190.532227,30.8203125 191.37207,30.6835938 192.172852,30.4101562 C192.973633,30.1367188 193.623047,29.7314453 194.121094,29.1943359 C194.619141,28.6572266 194.868164,28.0175781 194.868164,27.2753906 C194.868164,26.640625 194.772949,26.1401367 194.58252,25.7739258 C194.39209,25.4077148 194.042969,25.1318359 193.535156,24.9462891 C193.027344,24.7607422 192.290039,24.6679688 191.323242,24.6679688 L188.378906,24.6679688 C187.578125,24.6679688 186.821289,24.6044922 186.108398,24.4775391 Z" id="Shape"></path>
        </g>
    </g>
</svg>