<?xml version="1.0" encoding="UTF-8"?>
<svg width="392px" height="64px" viewBox="0 0 392 64" version="1.1" xmlns="http://www.w3.org/2000/svg" xmlns:xlink="http://www.w3.org/1999/xlink">
    <title>logo/eas/color-dark/stacked/eas-logo-color-dark-stacked</title>
    <g id="logo/eas/color-dark/stacked/eas-logo-color-dark-stacked" stroke="none" stroke-width="1" fill="none" fill-rule="evenodd">
        <g id="Enterprise-Applicati" transform="translate(73.260146, 3.960570)" fill="#000000">
            <polygon id="Path" points="2.20525568 20.2936029 2.20525568 3.84607092 0.0393795657 3.51790787 0.0393795657 2.06086394 13.7172154 2.06086394 14.084758 6.22197139 12.3914367 6.22197139 11.5775923 3.72793222 5.28998833 3.55728744 5.28998833 10.9737723 9.55610795 10.8950132 9.94990361 8.71601055 11.6432249 8.71601055 11.6432249 14.9379819 9.94990361 14.9379819 9.56923448 12.6277141 5.28998833 12.5620815 5.28998833 20.4117416 12.5095754 20.1229581 13.9928724 16.8282011 15.6730672 17.3270089 14.8986024 22.0394303 0 22.0394303 0 20.6086394"></polygon>
            <path d="M19.3747463,20.3854885 L19.3747463,9.38546317 L17.4976537,8.86040229 L17.4976537,7.28521966 L21.3831042,6.76015879 L21.4487368,6.76015879 L22.0656833,7.27209314 L22.0656833,8.33534142 L22.0525568,8.93916142 C22.4551035,8.58036983 22.9604746,8.23470475 23.5686701,7.90216619 C24.1768656,7.56962764 24.8288162,7.29834619 25.5245219,7.08832183 C26.2202275,6.87829748 26.8787414,6.77328531 27.5000634,6.77328531 C28.6376953,6.77328531 29.5171723,6.98549741 30.1384943,7.40992162 C30.7598164,7.83434583 31.1929916,8.48848417 31.43802,9.37233665 C31.6830484,10.2561891 31.8055626,11.4550781 31.8055626,12.9690037 L31.8055626,20.3854885 L33.6957818,20.6086394 L33.6957818,22.0394303 L27.1062678,22.0394303 L27.1062678,20.6086394 L28.7864626,20.3854885 L28.7864626,12.9558771 C28.7864626,11.9407594 28.7186422,11.1422294 28.5830015,10.5602869 C28.4473607,9.97834441 28.1913936,9.54079368 27.8150999,9.24763469 C27.4388063,8.9544757 26.8831169,8.80789621 26.1480317,8.80789621 C25.5179586,8.80789621 24.8616325,8.94353693 24.1790534,9.21481838 C23.4964742,9.48609984 22.8970297,9.81426289 22.3807199,10.1993075 L22.3807199,20.3854885 L24.1921799,20.6086394 L24.1921799,22.0394303 L17.655172,22.0394303 L17.655172,20.6086394 L19.3747463,20.3854885 Z" id="Path"></path>
            <path d="M35.2447113,8.99166751 L35.2447113,7.74464793 C35.4897398,7.68339083 35.77196,7.59588068 36.091372,7.48211749 C36.410784,7.3683543 36.6186206,7.28084416 36.7148818,7.21958705 C37.0036653,7.0095627 37.2399427,6.66827313 37.423714,6.19571834 C37.5549792,5.89818385 37.7278117,5.4234413 37.9422116,4.77149072 C38.1566115,4.11954013 38.3031909,3.62729556 38.3819501,3.294757 L40.0883979,3.294757 L40.114651,7.11457488 L44.5251623,7.11457488 L44.5251623,8.99166751 L40.1277775,8.99166751 L40.1277775,16.9332133 C40.1277775,18.0008371 40.158406,18.7424855 40.2196631,19.1581587 C40.2809203,19.5738319 40.4056222,19.8407379 40.593769,19.9588766 C40.7819158,20.0770153 41.1253932,20.1360846 41.624201,20.1360846 L41.6373275,20.1360846 C42.0923803,20.1360846 42.6065024,20.079203 43.1796938,19.9654398 C43.7528853,19.8516766 44.1969993,19.7335379 44.5120358,19.6110237 L44.5251623,19.6110237 L44.9714641,20.8842964 C44.7089336,21.1030717 44.315138,21.3240349 43.7900771,21.5471857 C43.2650162,21.7703366 42.7005758,21.9562957 42.0967558,22.1050629 C41.4929358,22.2538302 40.9372463,22.3282138 40.4296875,22.3282138 L40.4034345,22.3282138 C39.3183086,22.3282138 38.5000888,22.0897486 37.9487749,21.6128183 C37.3974609,21.135888 37.121804,20.337358 37.121804,19.2172281 L37.121804,8.99166751 L35.2447113,8.99166751 Z" id="Path"></path>
            <path d="M46.428508,14.5441863 C46.428508,13.0040077 46.730418,11.6388494 47.334238,10.4487114 C47.938058,9.25857346 48.7737799,8.33752917 49.8414037,7.68557858 C50.9090275,7.03362799 52.121043,6.7076527 53.4774503,6.7076527 C55.1576451,6.7076527 56.4571708,7.16708097 57.3760273,8.0859375 C58.2948838,9.00479403 58.7849406,10.3305727 58.8461977,12.0632736 L58.8461977,12.5358284 C58.8461977,13.454685 58.7936917,14.1547661 58.6886795,14.6360719 L49.5919998,14.6360719 C49.6270039,15.9224711 49.8457792,16.9900949 50.2483259,17.8389433 C50.6508726,18.6877917 51.1803089,19.3134892 51.836635,19.7160359 C52.4929611,20.1185826 53.2324219,20.3198559 54.0550172,20.3198559 C54.7726004,20.3198559 55.5098734,20.195154 56.2668362,19.9457501 C57.023799,19.6963461 57.6166802,19.4097504 58.0454799,19.0859629 L58.5967938,20.346109 C58.2642553,20.6873985 57.8070148,21.0111861 57.2250723,21.3174716 C56.6431298,21.6237571 55.9955547,21.8709733 55.282347,22.0591201 C54.5691394,22.2472669 53.8624949,22.3413403 53.1624138,22.3413403 C51.6922433,22.3413403 50.451787,22.015365 49.4410448,21.3634144 C48.4303026,20.7114638 47.6755276,19.8013583 47.1767198,18.6330979 C46.6779119,17.4648374 46.428508,16.1018669 46.428508,14.5441863 Z M55.6958325,13.1133954 C55.7308365,12.7983589 55.7483386,12.4220652 55.7483386,11.9845145 C55.7395876,10.8731357 55.5076857,9.98053216 55.0526329,9.30670404 C54.5975802,8.63287591 53.879997,8.29596185 52.8998833,8.29596185 C51.9197697,8.29596185 51.1431171,8.66131671 50.5699257,9.39202643 C49.9967342,10.1227362 49.6707589,11.3631925 49.5919998,13.1133954 L55.6958325,13.1133954 Z" id="Shape"></path>
            <path d="M63.1910765,20.4117416 L63.1910765,9.38546317 L61.3271104,8.86040229 L61.3271104,7.28521966 L65.0812957,6.76015879 L65.1469283,6.76015879 L65.7770013,7.27209314 L65.7770013,8.09906402 L65.7507483,9.80551187 L65.7770013,9.80551187 C65.9345196,9.51672839 66.2386173,9.12949599 66.6892946,8.64381468 C67.1399718,8.15813337 67.7219143,7.71401938 68.435122,7.31147271 C69.1483297,6.90892603 69.9249822,6.7076527 70.7650796,6.7076527 C71.1063692,6.7076527 71.3951527,6.75578328 71.6314301,6.85204444 L71.6314301,10.0811688 C71.4651608,9.98490767 71.2441977,9.90396079 70.9685407,9.83832818 C70.6928838,9.77269557 70.397537,9.73987926 70.0825005,9.73987926 C69.198648,9.73987926 68.435122,9.84707919 67.7919224,10.061479 C67.1487229,10.2758789 66.6127232,10.5449726 66.1839235,10.8687601 L66.1839235,20.3986151 L69.6361988,20.6348925 L69.6361988,22.0394303 L61.1302126,22.0394303 L61.1302126,20.6217659 L63.1910765,20.4117416 Z" id="Path"></path>
            <path d="M80.5049589,22.3413403 C80.1111633,22.3413403 79.677988,22.308524 79.2054332,22.2428914 C78.7328784,22.1772588 78.3347073,22.1006874 78.0109197,22.0131773 L78.0896789,24.244686 L78.0896789,26.8437373 L80.7806159,27.1325208 L80.7806159,28.5501852 L73.1541066,28.5501852 L73.1541066,27.1325208 L75.1099584,26.8306108 L75.1099584,9.38546317 L73.2328658,8.86040229 L73.2328658,7.28521966 L77.1051897,6.76015879 L77.1708223,6.76015879 L77.7615158,7.27209314 L77.7615158,8.76851664 C78.2865767,8.19094968 78.9341518,7.70308061 79.7042411,7.30490945 C80.4743304,6.90673828 81.3450563,6.7076527 82.3164189,6.7076527 C83.3840427,6.7076527 84.3597808,6.96799538 85.2436333,7.48868075 C86.1274858,8.00936612 86.836318,8.81883497 87.3701299,9.91708731 C87.9039418,11.0153396 88.1708477,12.3914367 88.1708477,14.0453784 C88.1708477,15.576806 87.8579989,16.9725928 87.2323014,18.2327389 C86.6066038,19.492885 85.7140004,20.4926885 84.5544909,21.2321492 C83.3949815,21.9716099 82.0451375,22.3413403 80.5049589,22.3413403 Z M78.0896789,20.0179459 C78.2121931,20.2367213 78.5119153,20.4292436 78.9888456,20.5955129 C79.4657759,20.7617822 80.0017756,20.8449168 80.5968446,20.8449168 C81.445693,20.8449168 82.1960925,20.6195782 82.8480431,20.1689009 C83.4999937,19.7182237 84.0141158,19.005016 84.3904094,18.0292779 C84.766703,17.0535397 84.9548498,15.8130834 84.9548498,14.3079089 C84.9548498,13.0390118 84.7863928,11.98889 84.4494787,11.1575436 C84.1125647,10.3261972 83.6553242,9.71143846 83.0777572,9.3132673 C82.5001902,8.91509613 81.8394886,8.71601055 81.0956524,8.71601055 C80.4743304,8.71601055 79.8967634,8.84290026 79.3629515,9.09667969 C78.8291396,9.35045911 78.4047154,9.64799361 78.0896789,9.98928318 L78.0896789,20.0179459 Z" id="Shape"></path>
            <path d="M92.555106,20.4117416 L92.555106,9.38546317 L90.6911399,8.86040229 L90.6911399,7.28521966 L94.4453252,6.76015879 L94.5109578,6.76015879 L95.1410308,7.27209314 L95.1410308,8.09906402 L95.1147778,9.80551187 L95.1410308,9.80551187 C95.2985491,9.51672839 95.6026469,9.12949599 96.0533241,8.64381468 C96.5040014,8.15813337 97.0859438,7.71401938 97.7991515,7.31147271 C98.5123592,6.90892603 99.2890118,6.7076527 100.129109,6.7076527 C100.470399,6.7076527 100.759182,6.75578328 100.99546,6.85204444 L100.99546,10.0811688 C100.82919,9.98490767 100.608227,9.90396079 100.33257,9.83832818 C100.056913,9.77269557 99.7615666,9.73987926 99.44653,9.73987926 C98.5626776,9.73987926 97.7991515,9.84707919 97.155952,10.061479 C96.5127524,10.2758789 95.9767527,10.5449726 95.547953,10.8687601 L95.547953,20.3986151 L99.0002283,20.6348925 L99.0002283,22.0394303 L90.4942421,22.0394303 L90.4942421,20.6217659 L92.555106,20.4117416 Z" id="Path"></path>
            <path d="M104.802151,20.3854885 L104.802151,9.38546317 L102.898805,8.84727577 L102.898805,7.29834619 L107.073039,6.76015879 L107.138672,6.76015879 L107.808124,7.27209314 L107.808124,20.3854885 L109.908368,20.6086394 L109.908368,22.0394303 L102.675654,22.0394303 L102.675654,20.6086394 L104.802151,20.3854885 Z M104.263964,2.49403916 C104.263964,1.89897017 104.436796,1.39578683 104.782461,0.984489144 C105.128126,0.573191457 105.61162,0.367542614 106.232942,0.367542614 L106.246068,0.367542614 C106.613611,0.367542614 106.933023,0.452865006 107.204304,0.623509791 C107.475586,0.794154576 107.683423,1.0194932 107.827814,1.29952567 C107.972206,1.57955814 108.044402,1.87709263 108.044402,2.19212916 C108.044402,2.80470018 107.869382,3.30788352 107.519341,3.70167918 C107.1693,4.09547484 106.661742,4.29237267 105.996664,4.29237267 L105.983538,4.29237267 C105.475979,4.29237267 105.062494,4.12172788 104.743082,3.78043831 C104.42367,3.43914874 104.263964,3.01034903 104.263964,2.49403916 Z" id="Shape"></path>
            <path d="M114.056349,17.7733107 L114.58141,19.768542 C114.686422,19.9523133 114.889883,20.1273336 115.191793,20.2936029 C115.493703,20.4598722 115.850307,20.5955129 116.261605,20.7005251 C116.672902,20.8055372 117.092951,20.8580433 117.521751,20.8580433 C118.510615,20.8580433 119.215072,20.6720843 119.635121,20.3001661 C120.055169,19.928248 120.265194,19.4185014 120.265194,18.7709263 C120.265194,18.3158736 120.12299,17.9155147 119.838582,17.5698496 C119.554174,17.2241845 119.131937,16.8982092 118.571872,16.5919237 C118.011808,16.2856382 117.250469,15.9399731 116.287858,15.5549285 C114.896446,15.0123656 113.881329,14.3713537 113.242505,13.631893 C112.60368,12.8924323 112.284268,11.9363839 112.284268,10.763748 C112.284268,9.97615666 112.522734,9.28263875 112.999664,8.68319425 C113.476594,8.08374975 114.130733,7.61775822 114.962079,7.28521966 C115.793425,6.95268111 116.729784,6.78641183 117.771155,6.78641183 C118.576248,6.78641183 119.28508,6.84985669 119.897651,6.9767464 C120.510222,7.10363611 121.127169,7.26771763 121.748491,7.46899097 L122.221046,7.61338271 L122.221046,10.9343928 L120.540851,10.9343928 L119.97641,9.09667969 C119.871398,8.86915331 119.589178,8.67225548 119.12975,8.5059862 C118.670321,8.33971692 118.156199,8.25658228 117.587383,8.25658228 C116.78229,8.25658228 116.160968,8.42722707 115.723417,8.76851664 C115.285866,9.10980621 115.067091,9.55610795 115.067091,10.1074219 C115.067091,10.5974787 115.196169,11.0087764 115.454324,11.3413149 C115.712478,11.6738535 116.034078,11.9451349 116.419123,12.1551593 C116.804168,12.3651836 117.342355,12.6145876 118.033685,12.903371 L118.545619,13.1265219 C119.543235,13.5553216 120.352704,13.9578683 120.974026,14.3341619 C121.595348,14.7104556 122.111658,15.1917614 122.522956,15.7780793 C122.934253,16.3643973 123.139902,17.0819805 123.139902,17.9308289 C123.139902,18.8059304 122.910188,19.5760197 122.45076,20.2410968 C121.991331,20.9061739 121.326254,21.4224838 120.455528,21.7900264 C119.584802,22.157569 118.55437,22.3413403 117.364232,22.3413403 C116.471629,22.3413403 115.53527,22.2188261 114.555157,21.9737977 C113.575043,21.7287693 112.791827,21.4749899 112.205509,21.2124594 L112.205509,17.7733107 L114.056349,17.7733107 Z" id="Path"></path>
            <path d="M125.45017,14.5441863 C125.45017,13.0040077 125.75208,11.6388494 126.3559,10.4487114 C126.95972,9.25857346 127.795442,8.33752917 128.863066,7.68557858 C129.930689,7.03362799 131.142705,6.7076527 132.499112,6.7076527 C134.179307,6.7076527 135.478833,7.16708097 136.397689,8.0859375 C137.316546,9.00479403 137.806603,10.3305727 137.86786,12.0632736 L137.86786,12.5358284 C137.86786,13.454685 137.815354,14.1547661 137.710341,14.6360719 L128.613662,14.6360719 C128.648666,15.9224711 128.867441,16.9900949 129.269988,17.8389433 C129.672534,18.6877917 130.201971,19.3134892 130.858297,19.7160359 C131.514623,20.1185826 132.254084,20.3198559 133.076679,20.3198559 C133.794262,20.3198559 134.531535,20.195154 135.288498,19.9457501 C136.045461,19.6963461 136.638342,19.4097504 137.067142,19.0859629 L137.618456,20.346109 C137.285917,20.6873985 136.828677,21.0111861 136.246734,21.3174716 C135.664792,21.6237571 135.017217,21.8709733 134.304009,22.0591201 C133.590801,22.2472669 132.884157,22.3413403 132.184076,22.3413403 C130.713905,22.3413403 129.473449,22.015365 128.462707,21.3634144 C127.451965,20.7114638 126.69719,19.8013583 126.198382,18.6330979 C125.699574,17.4648374 125.45017,16.1018669 125.45017,14.5441863 Z M134.717494,13.1133954 C134.752498,12.7983589 134.770001,12.4220652 134.770001,11.9845145 C134.761249,10.8731357 134.529348,9.98053216 134.074295,9.30670404 C133.619242,8.63287591 132.901659,8.29596185 131.921545,8.29596185 C130.941432,8.29596185 130.164779,8.66131671 129.591588,9.39202643 C129.018396,10.1227362 128.692421,11.3631925 128.613662,13.1133954 L134.717494,13.1133954 Z" id="Shape"></path>
            <path d="M148.237812,20.2936029 L154.709187,1.90334568 L157.8333,1.90334568 L164.357181,20.2936029 L166.024249,20.6086394 L166.024249,22.0394303 L158.817789,22.0394303 L158.817789,20.6086394 L160.957412,20.2936029 L159.710392,16.4606585 L151.991997,16.4606585 L150.797484,20.2936029 L153.042119,20.6086394 L153.042119,22.0394303 L146.58387,22.0394303 L146.570744,20.6086394 L148.237812,20.2936029 Z M159.172205,14.7935902 L156.363129,6.1694653 L155.785562,3.96420962 L155.207995,6.19571834 L152.517058,14.7935902 L159.172205,14.7935902 Z" id="Shape"></path>
            <path d="M173.83453,22.3413403 C173.440734,22.3413403 173.007559,22.308524 172.535004,22.2428914 C172.062449,22.1772588 171.664278,22.1006874 171.340491,22.0131773 L171.41925,24.244686 L171.41925,26.8437373 L174.110187,27.1325208 L174.110187,28.5501852 L166.483677,28.5501852 L166.483677,27.1325208 L168.439529,26.8306108 L168.439529,9.38546317 L166.562437,8.86040229 L166.562437,7.28521966 L170.434761,6.76015879 L170.500393,6.76015879 L171.091087,7.27209314 L171.091087,8.76851664 C171.616148,8.19094968 172.263723,7.70308061 173.033812,7.30490945 C173.803901,6.90673828 174.674627,6.7076527 175.64599,6.7076527 C176.713614,6.7076527 177.689352,6.96799538 178.573204,7.48868075 C179.457057,8.00936612 180.165889,8.81883497 180.699701,9.91708731 C181.233513,11.0153396 181.500419,12.3914367 181.500419,14.0453784 C181.500419,15.576806 181.18757,16.9725928 180.561872,18.2327389 C179.936175,19.492885 179.043571,20.4926885 177.884062,21.2321492 C176.724552,21.9716099 175.374708,22.3413403 173.83453,22.3413403 Z M171.41925,20.0179459 C171.541764,20.2367213 171.841486,20.4292436 172.318416,20.5955129 C172.795347,20.7617822 173.331346,20.8449168 173.926415,20.8449168 C174.775264,20.8449168 175.525663,20.6195782 176.177614,20.1689009 C176.829564,19.7182237 177.343687,19.005016 177.71998,18.0292779 C178.096274,17.0535397 178.284421,15.8130834 178.284421,14.3079089 C178.284421,13.0390118 178.115964,11.98889 177.77905,11.1575436 C177.442136,10.3261972 176.984895,9.71143846 176.407328,9.3132673 C175.829761,8.91509613 175.169059,8.71601055 174.425223,8.71601055 C173.803901,8.71601055 173.226334,8.84290026 172.692522,9.09667969 C172.15871,9.35045911 171.734286,9.64799361 171.41925,9.98928318 L171.41925,20.0179459 Z" id="Shape"></path>
            <path d="M190.820249,22.3413403 C190.426453,22.3413403 189.993278,22.308524 189.520723,22.2428914 C189.048169,22.1772588 188.649997,22.1006874 188.32621,22.0131773 L188.404969,24.244686 L188.404969,26.8437373 L191.095906,27.1325208 L191.095906,28.5501852 L183.469397,28.5501852 L183.469397,27.1325208 L185.425249,26.8306108 L185.425249,9.38546317 L183.548156,8.86040229 L183.548156,7.28521966 L187.42048,6.76015879 L187.486113,6.76015879 L188.076806,7.27209314 L188.076806,8.76851664 C188.601867,8.19094968 189.249442,7.70308061 190.019531,7.30490945 C190.789621,6.90673828 191.660346,6.7076527 192.631709,6.7076527 C193.699333,6.7076527 194.675071,6.96799538 195.558923,7.48868075 C196.442776,8.00936612 197.151608,8.81883497 197.68542,9.91708731 C198.219232,11.0153396 198.486138,12.3914367 198.486138,14.0453784 C198.486138,15.576806 198.173289,16.9725928 197.547592,18.2327389 C196.921894,19.492885 196.029291,20.4926885 194.869781,21.2321492 C193.710272,21.9716099 192.360428,22.3413403 190.820249,22.3413403 Z M188.404969,20.0179459 C188.527483,20.2367213 188.827206,20.4292436 189.304136,20.5955129 C189.781066,20.7617822 190.317066,20.8449168 190.912135,20.8449168 C191.760983,20.8449168 192.511383,20.6195782 193.163333,20.1689009 C193.815284,19.7182237 194.329406,19.005016 194.7057,18.0292779 C195.081993,17.0535397 195.27014,15.8130834 195.27014,14.3079089 C195.27014,13.0390118 195.101683,11.98889 194.764769,11.1575436 C194.427855,10.3261972 193.970614,9.71143846 193.393047,9.3132673 C192.81548,8.91509613 192.154779,8.71601055 191.410943,8.71601055 C190.789621,8.71601055 190.212054,8.84290026 189.678242,9.09667969 C189.14443,9.35045911 188.720006,9.64799361 188.404969,9.98928318 L188.404969,20.0179459 Z" id="Shape"></path>
            <polygon id="Path" points="202.673498 20.3854885 202.673498 2.07399046 200.520749 1.81146002 200.520749 0.564440442 204.996893 0 205.023146 0 205.666345 0.446301745 205.666345 20.3854885 207.897854 20.6086394 207.897854 22.0394303 200.547002 22.0394303 200.547002 20.6086394"></polygon>
            <path d="M211.770178,20.3854885 L211.770178,9.38546317 L209.866832,8.84727577 L209.866832,7.29834619 L214.041066,6.76015879 L214.106699,6.76015879 L214.776152,7.27209314 L214.776152,20.3854885 L216.876395,20.6086394 L216.876395,22.0394303 L209.643682,22.0394303 L209.643682,20.6086394 L211.770178,20.3854885 Z M211.231991,2.49403916 C211.231991,1.89897017 211.404823,1.39578683 211.750488,0.984489144 C212.096153,0.573191457 212.579647,0.367542614 213.200969,0.367542614 L213.214095,0.367542614 C213.581638,0.367542614 213.90105,0.452865006 214.172332,0.623509791 C214.443613,0.794154576 214.65145,1.0194932 214.795841,1.29952567 C214.940233,1.57955814 215.012429,1.87709263 215.012429,2.19212916 C215.012429,2.80470018 214.837409,3.30788352 214.487368,3.70167918 C214.137328,4.09547484 213.629769,4.29237267 212.964692,4.29237267 L212.951565,4.29237267 C212.444006,4.29237267 212.030521,4.12172788 211.711109,3.78043831 C211.391697,3.43914874 211.231991,3.01034903 211.231991,2.49403916 Z" id="Shape"></path>
            <path d="M226.183099,6.7076527 C227.443245,6.7076527 228.790901,6.97893415 230.226068,7.52149706 L230.094803,11.5644658 L228.270216,11.5644658 L227.666396,9.10980621 C227.543882,8.82102273 227.301041,8.60662287 226.937874,8.46660664 C226.574707,8.3265904 226.139344,8.25658228 225.631785,8.25658228 C224.861696,8.25658228 224.192243,8.46879439 223.623427,8.8932186 C223.054611,9.31764281 222.612685,9.95209137 222.297649,10.7965643 C221.982612,11.6410372 221.825094,12.6845957 221.825094,13.9272398 C221.825094,15.3711572 222.013241,16.5700462 222.389534,17.5239068 C222.765828,18.4777673 223.277762,19.182224 223.925337,19.6372768 C224.572912,20.0923295 225.303622,20.3198559 226.117467,20.3198559 C226.878805,20.3198559 227.581074,20.2082805 228.224273,19.9851296 C228.867473,19.7619787 229.416599,19.4885095 229.871652,19.164722 L230.436092,20.372362 C230.121056,20.6961496 229.701007,21.0089983 229.175946,21.3109083 C228.650885,21.6128183 228.06238,21.8600345 227.410429,22.0525568 C226.758478,22.2450791 226.10434,22.3413403 225.448014,22.3413403 C223.969092,22.3413403 222.717697,22.0131773 221.693829,21.3568512 C220.66996,20.7005251 219.902058,19.8013583 219.390124,18.6593509 C218.87819,17.5173435 218.622223,16.2200056 218.622223,14.7673372 C218.622223,13.2709137 218.911006,11.9123186 219.488573,10.6915521 C220.06614,9.47078556 220.923739,8.50161069 222.061371,7.7840275 C223.199003,7.0664443 224.572912,6.7076527 226.183099,6.7076527 Z" id="Path"></path>
            <path d="M241.265473,12.2864245 C241.265473,11.4638291 241.18015,10.8162541 241.009506,10.3436993 C240.838861,9.87114448 240.543514,9.5254794 240.123465,9.30670404 C239.703417,9.08792867 239.108348,8.97854099 238.338258,8.97854099 C236.859337,8.97854099 235.301656,9.39421418 233.665217,10.2255606 L233.65209,10.2255606 L232.995764,8.86040229 C233.232041,8.65037794 233.684906,8.37909649 234.354359,8.04655793 C235.023812,7.71401938 235.78515,7.42304814 236.638374,7.17364423 C237.491598,6.92424031 238.303254,6.79953835 239.073344,6.79953835 C240.350992,6.79953835 241.355171,6.97237089 242.08588,7.31803597 C242.81659,7.66370105 243.343839,8.21720272 243.667626,8.97854099 C243.991414,9.73987926 244.153308,10.7681235 244.153308,12.0632736 L244.153308,20.5955129 L245.754743,20.5955129 L245.754743,21.881912 C244.477095,22.1881975 243.514484,22.3413403 242.866908,22.3413403 C242.499366,22.3413403 242.219333,22.3107117 242.026811,22.2494546 C241.834289,22.1881975 241.692085,22.0634956 241.600199,21.8753488 C241.508313,21.687202 241.462371,21.3962307 241.462371,21.0024351 L241.462371,20.372362 C240.989816,20.8361658 240.368494,21.2802798 239.598405,21.704704 C238.828315,22.1291282 237.96634,22.3413403 237.01248,22.3413403 C236.172382,22.3413403 235.408856,22.1881975 234.721902,21.881912 C234.034947,21.5756265 233.488009,21.1030717 233.081086,20.4642477 C232.674164,19.8254236 232.470703,19.0290813 232.470703,18.0752207 C232.470703,16.9113357 232.875438,15.9530996 233.684906,15.2005124 C234.494375,14.4479251 235.557624,13.8944234 236.874651,13.5400074 C238.191679,13.1855913 239.655286,12.9952567 241.265473,12.9690037 L241.265473,12.2864245 Z M241.265473,14.4523006 C239.979074,14.4523006 238.922389,14.5988801 238.095418,14.8920391 C237.268447,15.1851981 236.669002,15.5724305 236.297084,16.0537363 C235.925166,16.5350421 235.739207,17.0819805 235.739207,17.6945515 C235.739207,18.6134081 235.966733,19.2872362 236.421786,19.7160359 C236.876839,20.1448356 237.48941,20.3592355 238.259499,20.3592355 C238.670797,20.3592355 239.167417,20.2432845 239.74936,20.0113827 C240.331302,19.7794808 240.836673,19.4972606 241.265473,19.164722 L241.265473,14.4523006 Z" id="Shape"></path>
            <path d="M247.303673,8.99166751 L247.303673,7.74464793 C247.548701,7.68339083 247.830922,7.59588068 248.150334,7.48211749 C248.469746,7.3683543 248.677582,7.28084416 248.773843,7.21958705 C249.062627,7.0095627 249.298904,6.66827313 249.482676,6.19571834 C249.613941,5.89818385 249.786773,5.4234413 250.001173,4.77149072 C250.215573,4.11954013 250.362152,3.62729556 250.440912,3.294757 L252.147359,3.294757 L252.173613,7.11457488 L256.584124,7.11457488 L256.584124,8.99166751 L252.186739,8.99166751 L252.186739,16.9332133 C252.186739,18.0008371 252.217368,18.7424855 252.278625,19.1581587 C252.339882,19.5738319 252.464584,19.8407379 252.652731,19.9588766 C252.840877,20.0770153 253.184355,20.1360846 253.683163,20.1360846 L253.696289,20.1360846 C254.151342,20.1360846 254.665464,20.079203 255.238655,19.9654398 C255.811847,19.8516766 256.255961,19.7335379 256.570997,19.6110237 L256.584124,19.6110237 L257.030426,20.8842964 C256.767895,21.1030717 256.3741,21.3240349 255.849039,21.5471857 C255.323978,21.7703366 254.759537,21.9562957 254.155717,22.1050629 C253.551897,22.2538302 252.996208,22.3282138 252.488649,22.3282138 L252.462396,22.3282138 C251.37727,22.3282138 250.55905,22.0897486 250.007736,21.6128183 C249.456422,21.135888 249.180766,20.337358 249.180766,19.2172281 L249.180766,8.99166751 L247.303673,8.99166751 Z" id="Path"></path>
            <path d="M260.52208,20.3854885 L260.52208,9.38546317 L258.618735,8.84727577 L258.618735,7.29834619 L262.792969,6.76015879 L262.858601,6.76015879 L263.528054,7.27209314 L263.528054,20.3854885 L265.628297,20.6086394 L265.628297,22.0394303 L258.395584,22.0394303 L258.395584,20.6086394 L260.52208,20.3854885 Z M259.983893,2.49403916 C259.983893,1.89897017 260.156726,1.39578683 260.502391,0.984489144 C260.848056,0.573191457 261.331549,0.367542614 261.952871,0.367542614 L261.965998,0.367542614 C262.33354,0.367542614 262.652953,0.452865006 262.924234,0.623509791 C263.195515,0.794154576 263.403352,1.0194932 263.547744,1.29952567 C263.692136,1.57955814 263.764331,1.87709263 263.764331,2.19212916 C263.764331,2.80470018 263.589311,3.30788352 263.23927,3.70167918 C262.88923,4.09547484 262.381671,4.29237267 261.716594,4.29237267 L261.703467,4.29237267 C261.195909,4.29237267 260.782423,4.12172788 260.463011,3.78043831 C260.143599,3.43914874 259.983893,3.01034903 259.983893,2.49403916 Z" id="Shape"></path>
            <path d="M274.514953,6.7076527 C276.037629,6.7076527 277.306526,7.04456676 278.321644,7.71839489 C279.336762,8.39222301 280.089349,9.31764281 280.579406,10.4946543 C281.069463,11.6716657 281.314491,13.0171342 281.314491,14.5310598 C281.314491,16.1499975 280.979765,17.5501598 280.310312,18.7315468 C279.64086,19.9129337 278.761383,20.8099127 277.671881,21.4224838 C276.58238,22.0350548 275.420683,22.3413403 274.18679,22.3413403 C272.664113,22.3413403 271.397404,22.0044262 270.386662,21.3305981 C269.375919,20.65677 268.62552,19.7313502 268.135463,18.5543387 C267.645406,17.3773273 267.400378,16.0318588 267.400378,14.5179332 C267.400378,12.9164976 267.735104,11.5250862 268.404557,10.3436993 C269.074009,9.1623123 269.953486,8.26095779 271.042988,7.63963575 C272.132489,7.01831372 273.289811,6.7076527 274.514953,6.7076527 Z M277.993481,14.7673372 C277.993481,12.7983589 277.70251,11.234115 277.120567,10.0746056 C276.538625,8.91509613 275.617581,8.33534142 274.357435,8.33534142 C273.149795,8.33534142 272.239689,8.8319615 271.627118,9.82520165 C271.014547,10.8184418 270.708261,12.3039265 270.708261,14.2816558 C270.708261,16.2506341 271.003608,17.814878 271.594302,18.9743874 C272.184995,20.1338969 273.106039,20.7136516 274.357435,20.7136516 C276.781466,20.7136516 277.993481,18.7315468 277.993481,14.7673372 Z" id="Shape"></path>
            <path d="M285.409966,20.3854885 L285.409966,9.38546317 L283.532873,8.86040229 L283.532873,7.28521966 L287.418324,6.76015879 L287.483956,6.76015879 L288.100903,7.27209314 L288.100903,8.33534142 L288.087776,8.93916142 C288.490323,8.58036983 288.995694,8.23470475 289.60389,7.90216619 C290.212085,7.56962764 290.864036,7.29834619 291.559742,7.08832183 C292.255447,6.87829748 292.913961,6.77328531 293.535283,6.77328531 C294.672915,6.77328531 295.552392,6.98549741 296.173714,7.40992162 C296.795036,7.83434583 297.228211,8.48848417 297.47324,9.37233665 C297.718268,10.2561891 297.840782,11.4550781 297.840782,12.9690037 L297.840782,20.3854885 L299.731001,20.6086394 L299.731001,22.0394303 L293.141487,22.0394303 L293.141487,20.6086394 L294.821682,20.3854885 L294.821682,12.9558771 C294.821682,11.9407594 294.753862,11.1422294 294.618221,10.5602869 C294.48258,9.97834441 294.226613,9.54079368 293.85032,9.24763469 C293.474026,8.9544757 292.918337,8.80789621 292.183251,8.80789621 C291.553178,8.80789621 290.896852,8.94353693 290.214273,9.21481838 C289.531694,9.48609984 288.932249,9.81426289 288.41594,10.1993075 L288.41594,20.3854885 L290.2274,20.6086394 L290.2274,22.0394303 L283.690392,22.0394303 L283.690392,20.6086394 L285.409966,20.3854885 Z" id="Path"></path>
            <path d="M303.81335,17.7733107 L304.338411,19.768542 C304.443423,19.9523133 304.646884,20.1273336 304.948794,20.2936029 C305.250704,20.4598722 305.607308,20.5955129 306.018605,20.7005251 C306.429903,20.8055372 306.849952,20.8580433 307.278752,20.8580433 C308.267616,20.8580433 308.972073,20.6720843 309.392122,20.3001661 C309.81217,19.928248 310.022195,19.4185014 310.022195,18.7709263 C310.022195,18.3158736 309.879991,17.9155147 309.595583,17.5698496 C309.311175,17.2241845 308.888938,16.8982092 308.328873,16.5919237 C307.768808,16.2856382 307.00747,15.9399731 306.044858,15.5549285 C304.653447,15.0123656 303.638329,14.3713537 302.999505,13.631893 C302.360681,12.8924323 302.041269,11.9363839 302.041269,10.763748 C302.041269,9.97615666 302.279734,9.28263875 302.756665,8.68319425 C303.233595,8.08374975 303.887733,7.61775822 304.71908,7.28521966 C305.550426,6.95268111 306.486785,6.78641183 307.528155,6.78641183 C308.333249,6.78641183 309.042081,6.84985669 309.654652,6.9767464 C310.267223,7.10363611 310.88417,7.26771763 311.505492,7.46899097 L311.978046,7.61338271 L311.978046,10.9343928 L310.297852,10.9343928 L309.733411,9.09667969 C309.628399,8.86915331 309.346179,8.67225548 308.88675,8.5059862 C308.427322,8.33971692 307.9132,8.25658228 307.344384,8.25658228 C306.539291,8.25658228 305.917969,8.42722707 305.480418,8.76851664 C305.042867,9.10980621 304.824092,9.55610795 304.824092,10.1074219 C304.824092,10.5974787 304.953169,11.0087764 305.211324,11.3413149 C305.469479,11.6738535 305.791079,11.9451349 306.176124,12.1551593 C306.561168,12.3651836 307.099356,12.6145876 307.790686,12.903371 L308.30262,13.1265219 C309.300236,13.5553216 310.109705,13.9578683 310.731027,14.3341619 C311.352349,14.7104556 311.868659,15.1917614 312.279956,15.7780793 C312.691254,16.3643973 312.896903,17.0819805 312.896903,17.9308289 C312.896903,18.8059304 312.667189,19.5760197 312.207761,20.2410968 C311.748332,20.9061739 311.083255,21.4224838 310.212529,21.7900264 C309.341803,22.157569 308.311371,22.3413403 307.121233,22.3413403 C306.22863,22.3413403 305.292271,22.2188261 304.312158,21.9737977 C303.332044,21.7287693 302.548828,21.4749899 301.96251,21.2124594 L301.96251,17.7733107 L303.81335,17.7733107 Z" id="Path"></path>
            <path d="M0.498807833,47.2637607 L2.32339438,47.2637607 L2.84845526,50.6241503 C3.14598975,50.9391868 3.62729556,51.2082805 4.29237267,51.4314314 C4.95744978,51.6545822 5.67940848,51.7661577 6.45824878,51.7661577 C7.76214996,51.7661577 8.74445135,51.4751864 9.40515295,50.893244 C10.0658546,50.3113015 10.3962054,49.5040204 10.3962054,48.4714007 C10.3962054,47.7975725 10.2146218,47.2178178 9.8514547,46.7321365 C9.48828759,46.2464552 8.99604302,45.8198432 8.37472098,45.4523006 C7.75339894,45.084758 6.90017502,44.6559583 5.81504921,44.1659015 C4.86993963,43.7371018 4.02109121,43.273298 3.26850396,42.7744902 C2.5159167,42.2756823 1.86834162,41.6281072 1.32577871,40.8317649 C0.783215808,40.0354226 0.511934355,39.0946885 0.511934355,38.0095627 C0.511934355,37.011947 0.7788403,36.1215313 1.31265219,35.3383155 C1.84646408,34.5550997 2.60780235,33.9425287 3.596667,33.5006024 C4.58553166,33.0586762 5.73629008,32.8377131 7.04894227,32.8377131 C7.85403561,32.8377131 8.59787185,32.9055334 9.28045099,33.0411742 C9.96303013,33.1768149 10.6718623,33.3496474 11.4069475,33.5596718 C11.7919922,33.673435 12.1026532,33.7521941 12.3389306,33.7959492 L12.1682858,38.2983462 L10.4093319,38.2983462 L9.80551187,35.1086014 C9.63924259,34.9248301 9.28920201,34.756373 8.75539012,34.6032303 C8.22157823,34.4500875 7.64401126,34.3735161 7.02268922,34.3735161 C4.65991528,34.3735161 3.47852831,35.3273767 3.47852831,37.2350979 C3.47852831,37.900175 3.65792411,38.468991 4.01671571,38.9415458 C4.37550731,39.4141005 4.8524376,39.8319615 5.44750659,40.1951286 C6.04257559,40.5582957 6.92205256,41.0242872 8.0859375,41.5931032 C9.24107143,42.1619191 10.186181,42.6826045 10.9212662,43.1551593 C11.6563515,43.6277141 12.2864245,44.2293463 12.8114854,44.9600561 C13.3365463,45.6907658 13.5990767,46.5549285 13.5990767,47.5525441 C13.5990767,48.5151557 13.329983,49.4405755 12.7917956,50.3288035 C12.2536082,51.2170315 11.4441394,51.941178 10.3633891,52.5012429 C9.28263875,53.0613078 7.97217431,53.3413403 6.43199574,53.3413403 C5.48688616,53.3413403 4.62491122,53.2560179 3.84607092,53.0853731 C3.06723062,52.9147283 2.25776177,52.6937652 1.41766437,52.4224838 C0.840097403,52.2387125 0.459428267,52.1380758 0.27565696,52.1205738 L0.498807833,47.2637607 Z" id="Path"></path>
            <path d="M22.8401481,37.7076527 C24.3628247,37.7076527 25.6317218,38.0445668 26.6468395,38.7183949 C27.6619572,39.392223 28.4145444,40.3176428 28.9046013,41.4946543 C29.3946581,42.6716657 29.6396865,44.0171342 29.6396865,45.5310598 C29.6396865,47.1499975 29.3049602,48.5501598 28.6355076,49.7315468 C27.9660549,50.9129337 27.086578,51.8099127 25.9970767,52.4224838 C24.9075753,53.0350548 23.7458781,53.3413403 22.5119851,53.3413403 C20.9893085,53.3413403 19.7225992,53.0044262 18.711857,52.3305981 C17.7011148,51.65677 16.9507153,50.7313502 16.4606585,49.5543387 C15.9706017,48.3773273 15.7255733,47.0318588 15.7255733,45.5179332 C15.7255733,43.9164976 16.0602996,42.5250862 16.7297522,41.3436993 C17.3992048,40.1623123 18.2786818,39.2609578 19.3681831,38.6396358 C20.4576844,38.0183137 21.6150061,37.7076527 22.8401481,37.7076527 Z M26.3186764,45.7673372 C26.3186764,43.7983589 26.0277052,42.234115 25.4457627,41.0746056 C24.8638203,39.9150961 23.942776,39.3353414 22.6826299,39.3353414 C21.4749899,39.3353414 20.5648843,39.8319615 19.9523133,40.8252017 C19.3397423,41.8184418 19.0334568,43.3039265 19.0334568,45.2816558 C19.0334568,47.2506341 19.3288035,48.814878 19.919497,49.9743874 C20.5101905,51.1338969 21.4312348,51.7136516 22.6826299,51.7136516 C25.1066609,51.7136516 26.3186764,49.7315468 26.3186764,45.7673372 Z" id="Shape"></path>
            <polygon id="Path" points="33.7614144 51.3854885 33.7614144 33.0739905 31.6086648 32.81146 31.6086648 31.5644404 36.0848087 31 36.1110618 31 36.7542614 31.4463017 36.7542614 51.3854885 38.9857701 51.6086394 38.9857701 53.0394303 31.6349178 53.0394303 31.6349178 51.6086394"></polygon>
            <path d="M51.6266107,51.2542233 C51.0665458,51.7967862 50.3577136,52.2802798 49.5001141,52.704704 C48.6425147,53.1291282 47.7761643,53.3413403 46.9010628,53.3413403 C45.807186,53.3413403 44.918958,53.1466302 44.2363789,52.7572101 C43.5537997,52.3677899 43.0506164,51.7486556 42.7268288,50.8998072 C42.4030413,50.0509588 42.2411475,48.9308289 42.2411475,47.5394176 L42.2411475,39.9260349 L40.7841036,39.4403536 L40.7841036,38.167081 L44.6695541,37.7732853 L44.6826806,37.7732853 L45.2339945,38.1277014 L45.2339945,47.3950259 C45.2339945,48.3926415 45.3083781,49.1714818 45.4571454,49.7315468 C45.6059126,50.2916117 45.8684431,50.7007216 46.2447367,50.9588766 C46.6210303,51.2170315 47.1635932,51.346109 47.8724254,51.346109 C48.5550046,51.346109 49.1894531,51.2148438 49.7757711,50.9523133 C50.3620891,50.6897829 50.8696479,50.3878729 51.2984476,50.0465833 L51.2984476,39.9391614 L49.421355,39.4272271 L49.421355,38.1539544 L53.5693359,37.7732853 L53.595589,37.7732853 L54.2912946,38.1277014 L54.2912946,51.5561333 L55.8664773,51.5561333 L55.8664773,52.8687855 C55.3589184,53.0175528 54.9191799,53.1335037 54.5472618,53.2166383 C54.1753437,53.299773 53.7487317,53.3413403 53.2674259,53.3413403 C52.707361,53.3413403 52.2938756,53.2341404 52.0269696,53.0197405 C51.7600637,52.8053407 51.6266107,52.4443613 51.6266107,51.9368025 L51.6266107,51.2542233 Z" id="Path"></path>
            <path d="M57.7435699,39.9916675 L57.7435699,38.7446479 C57.9885983,38.6833908 58.2708185,38.5958807 58.5902306,38.4821175 C58.9096426,38.3683543 59.1174792,38.2808442 59.2137404,38.2195871 C59.5025238,38.0095627 59.7388012,37.6682731 59.9225725,37.1957183 C60.0538378,36.8981838 60.2266703,36.4234413 60.4410702,35.7714907 C60.65547,35.1195401 60.8020495,34.6272956 60.8808086,34.294757 L62.5872565,34.294757 L62.6135095,38.1145749 L67.0240209,38.1145749 L67.0240209,39.9916675 L62.6266361,39.9916675 L62.6266361,47.9332133 C62.6266361,49.0008371 62.6572646,49.7424855 62.7185217,50.1581587 C62.7797788,50.5738319 62.9044808,50.8407379 63.0926276,50.9588766 C63.2807744,51.0770153 63.6242517,51.1360846 64.1230596,51.1360846 L64.1361861,51.1360846 C64.5912388,51.1360846 65.1053609,51.079203 65.6785524,50.9654398 C66.2517439,50.8516766 66.6958579,50.7335379 67.0108944,50.6110237 L67.0240209,50.6110237 L67.4703226,51.8842964 C67.2077922,52.1030717 66.8139966,52.3240349 66.2889357,52.5471857 C65.7638748,52.7703366 65.1994344,52.9562957 64.5956143,53.1050629 C63.9917943,53.2538302 63.4361049,53.3282138 62.9285461,53.3282138 L62.902293,53.3282138 C61.8171672,53.3282138 60.9989473,53.0897486 60.4476334,52.6128183 C59.8963195,52.135888 59.6206625,51.337358 59.6206625,50.2172281 L59.6206625,39.9916675 L57.7435699,39.9916675 Z" id="Path"></path>
            <path d="M70.9619775,51.3854885 L70.9619775,40.3854632 L69.0586318,39.8472758 L69.0586318,38.2983462 L73.2328658,37.7601588 L73.2984984,37.7601588 L73.967951,38.2720931 L73.967951,51.3854885 L76.0681945,51.6086394 L76.0681945,53.0394303 L68.8354809,53.0394303 L68.8354809,51.6086394 L70.9619775,51.3854885 Z M70.4237901,33.4940392 C70.4237901,32.8989702 70.5966226,32.3957868 70.9422877,31.9844891 C71.2879528,31.5731915 71.7714463,31.3675426 72.3927684,31.3675426 L72.4058949,31.3675426 C72.7734375,31.3675426 73.0928495,31.452865 73.364131,31.6235098 C73.6354124,31.7941546 73.843249,32.0194932 73.9876408,32.2995257 C74.1320325,32.5795581 74.2042284,32.8770926 74.2042284,33.1921292 C74.2042284,33.8047002 74.0292081,34.3078835 73.6791675,34.7016792 C73.3291269,35.0954748 72.8215681,35.2923727 72.156491,35.2923727 L72.1433644,35.2923727 C71.6358056,35.2923727 71.2223202,35.1217279 70.9029081,34.7804383 C70.5834961,34.4391487 70.4237901,34.010349 70.4237901,33.4940392 Z" id="Shape"></path>
            <path d="M84.9548498,37.7076527 C86.4775264,37.7076527 87.7464235,38.0445668 88.7615412,38.7183949 C89.7766589,39.392223 90.5292461,40.3176428 91.019303,41.4946543 C91.5093598,42.6716657 91.7543882,44.0171342 91.7543882,45.5310598 C91.7543882,47.1499975 91.4196619,48.5501598 90.7502093,49.7315468 C90.0807566,50.9129337 89.2012797,51.8099127 88.1117784,52.4224838 C87.022277,53.0350548 85.8605798,53.3413403 84.6266868,53.3413403 C83.1040102,53.3413403 81.8373009,53.0044262 80.8265587,52.3305981 C79.8158165,51.65677 79.065417,50.7313502 78.5753602,49.5543387 C78.0853034,48.3773273 77.840275,47.0318588 77.840275,45.5179332 C77.840275,43.9164976 78.1750013,42.5250862 78.8444539,41.3436993 C79.5139065,40.1623123 80.3933835,39.2609578 81.4828848,38.6396358 C82.5723861,38.0183137 83.7297078,37.7076527 84.9548498,37.7076527 Z M88.4333781,45.7673372 C88.4333781,43.7983589 88.1424069,42.234115 87.5604644,41.0746056 C86.978522,39.9150961 86.0574777,39.3353414 84.7973316,39.3353414 C83.5896916,39.3353414 82.679586,39.8319615 82.067015,40.8252017 C81.454444,41.8184418 81.1481585,43.3039265 81.1481585,45.2816558 C81.1481585,47.2506341 81.4435052,48.814878 82.0341987,49.9743874 C82.6248922,51.1338969 83.5459365,51.7136516 84.7973316,51.7136516 C87.2213626,51.7136516 88.4333781,49.7315468 88.4333781,45.7673372 Z" id="Shape"></path>
            <path d="M95.849863,51.3854885 L95.849863,40.3854632 L93.9727704,39.8604023 L93.9727704,38.2852197 L97.8582209,37.7601588 L97.9238535,37.7601588 L98.5408,38.2720931 L98.5408,39.3353414 L98.5276735,39.9391614 C98.9302202,39.5803698 99.4355913,39.2347047 100.043787,38.9021662 C100.651982,38.5696276 101.303933,38.2983462 101.999639,38.0883218 C102.695344,37.8782975 103.353858,37.7732853 103.97518,37.7732853 C105.112812,37.7732853 105.992289,37.9854974 106.613611,38.4099216 C107.234933,38.8343458 107.668108,39.4884842 107.913137,40.3723366 C108.158165,41.2561891 108.280679,42.4550781 108.280679,43.9690037 L108.280679,51.3854885 L110.170898,51.6086394 L110.170898,53.0394303 L103.581384,53.0394303 L103.581384,51.6086394 L105.261579,51.3854885 L105.261579,43.9558771 C105.261579,42.9407594 105.193759,42.1422294 105.058118,41.5602869 C104.922477,40.9783444 104.66651,40.5407937 104.290217,40.2476347 C103.913923,39.9544757 103.358234,39.8078962 102.623148,39.8078962 C101.993075,39.8078962 101.336749,39.9435369 100.65417,40.2148184 C99.9715909,40.4860998 99.3721464,40.8142629 98.8558365,41.1993075 L98.8558365,51.3854885 L100.667297,51.6086394 L100.667297,53.0394303 L94.1302887,53.0394303 L94.1302887,51.6086394 L95.849863,51.3854885 Z" id="Path"></path>
            <path d="M114.253247,48.7733107 L114.778308,50.768542 C114.88332,50.9523133 115.086781,51.1273336 115.388691,51.2936029 C115.690601,51.4598722 116.047205,51.5955129 116.458502,51.7005251 C116.8698,51.8055372 117.289849,51.8580433 117.718649,51.8580433 C118.707513,51.8580433 119.41197,51.6720843 119.832019,51.3001661 C120.252067,50.928248 120.462092,50.4185014 120.462092,49.7709263 C120.462092,49.3158736 120.319888,48.9155147 120.03548,48.5698496 C119.751072,48.2241845 119.328835,47.8982092 118.76877,47.5919237 C118.208705,47.2856382 117.447367,46.9399731 116.484755,46.5549285 C115.093344,46.0123656 114.078226,45.3713537 113.439402,44.631893 C112.800578,43.8924323 112.481166,42.9363839 112.481166,41.763748 C112.481166,40.9761567 112.719631,40.2826387 113.196562,39.6831942 C113.673492,39.0837497 114.32763,38.6177582 115.158977,38.2852197 C115.990323,37.9526811 116.926682,37.7864118 117.968052,37.7864118 C118.773146,37.7864118 119.481978,37.8498567 120.094549,37.9767464 C120.70712,38.1036361 121.324067,38.2677176 121.945389,38.468991 L122.417943,38.6133827 L122.417943,41.9343928 L120.737749,41.9343928 L120.173308,40.0966797 C120.068296,39.8691533 119.786076,39.6722555 119.326647,39.5059862 C118.867219,39.3397169 118.353097,39.2565823 117.784281,39.2565823 C116.979188,39.2565823 116.357866,39.4272271 115.920315,39.7685166 C115.482764,40.1098062 115.263989,40.556108 115.263989,41.1074219 C115.263989,41.5974787 115.393066,42.0087764 115.651221,42.3413149 C115.909376,42.6738535 116.230976,42.9451349 116.616021,43.1551593 C117.001065,43.3651836 117.539253,43.6145876 118.230583,43.903371 L118.742517,44.1265219 C119.740133,44.5553216 120.549602,44.9578683 121.170924,45.3341619 C121.792246,45.7104556 122.308556,46.1917614 122.719853,46.7780793 C123.131151,47.3643973 123.3368,48.0819805 123.3368,48.9308289 C123.3368,49.8059304 123.107086,50.5760197 122.647658,51.2410968 C122.188229,51.9061739 121.523152,52.4224838 120.652426,52.7900264 C119.7817,53.157569 118.751268,53.3413403 117.56113,53.3413403 C116.668527,53.3413403 115.732168,53.2188261 114.752055,52.9737977 C113.771941,52.7287693 112.988725,52.4749899 112.402407,52.2124594 L112.402407,48.7733107 L114.253247,48.7733107 Z" id="Path"></path>
        </g>
        <g id="Group">
            <path d="M64,32.0002 C64,49.6732 49.673,64.0002 32,64.0002 C14.327,64.0002 0,49.6732 0,32.0002 C0,14.3272 14.327,0.0002 32,0.0002 C49.673,0.0002 64,14.3272 64,32.0002" id="circle" fill="#083C6F"></path>
            <path d="M49.1509,16.5798 C50.0429,16.5798 50.7769,17.3138 50.7769,18.2588 L50.7769,41.0038 L50.7769,41.0037 L50.7769,41.6617 C50.7769,42.5537 50.0429,43.2877 49.1509,43.2877 L37.2449,43.2877 L38.1359,48.6377 L40.8639,48.6377 C41.8079,48.6377 41.7559,50.3687 40.8639,50.3687 L23.1359,50.3687 C22.2449,50.3687 22.2449,48.6377 23.1359,48.6377 L25.8639,48.6377 L26.7559,43.2877 L14.9019,43.2877 C13.9579,43.2877 13.2229,42.5537 13.2229,41.6617 L13.2229,18.2588 C13.2229,17.3138 13.9579,16.5798 14.9019,16.5798 L49.1509,16.5798 Z M32,29.6 L24.7525764,36.8631354 C26.4918306,38.7823158 29.0852233,40 31.9821218,40 C34.8830369,40 37.4905752,38.7789368 39.2396559,36.8551486 L39.2396559,36.8551486 L32,29.6 Z M41.5,20 L22.5,20 L22.5,31.1110317 L22.5078857,31.4769133 C22.5340871,32.0836604 22.6251593,32.6747351 22.7747763,33.2442068 L22.7747763,33.2442068 L32,24 L41.223587,33.2422056 C41.4041493,32.5594459 41.5,31.8456487 41.5,31.1110317 L41.5,31.1110317 L41.5,20 Z" id="icon" fill="#F5EA14"></path>
        </g>
    </g>
</svg>