<?xml version="1.0" encoding="UTF-8"?>
<svg width="544px" height="64px" viewBox="0 0 544 64" version="1.1" xmlns="http://www.w3.org/2000/svg" xmlns:xlink="http://www.w3.org/1999/xlink">
    <title>logo/digital/white/long/digital-logo-white-long</title>
    <g id="logo/digital/white/long/digital-logo-white-long" stroke="none" stroke-width="1" fill="none" fill-rule="evenodd">
        <g id="Enterprise-Applicati" transform="translate(76.406250, 18.405073)" fill="#FFFFFF" fill-rule="nonzero">
            <polygon id="Path" points="2.4609375 22.6464844 2.4609375 4.29199219 0.0439453125 3.92578125 0.0439453125 2.29980469 15.3076172 2.29980469 15.7177734 6.94335938 13.828125 6.94335938 12.9199219 4.16015625 5.90332031 3.96972656 5.90332031 12.2460938 10.6640625 12.1582031 11.1035156 9.7265625 12.9931641 9.7265625 12.9931641 16.6699219 11.1035156 16.6699219 10.6787109 14.0917969 5.90332031 14.0185547 5.90332031 22.7783203 13.9599609 22.4560547 15.6152344 18.7792969 17.4902344 19.3359375 16.6259766 24.5947266 0 24.5947266 0 22.9980469"></polygon>
            <path d="M21.6210938,22.7490234 L21.6210938,10.4736328 L19.5263672,9.88769531 L19.5263672,8.12988281 L23.8623047,7.54394531 L23.9355469,7.54394531 L24.6240234,8.11523438 L24.6240234,9.30175781 L24.609375,9.97558594 C25.0585938,9.57519531 25.6225586,9.18945312 26.3012695,8.81835938 C26.9799805,8.44726562 27.7075195,8.14453125 28.4838867,7.91015625 C29.2602539,7.67578125 29.9951172,7.55859375 30.6884766,7.55859375 C31.9580078,7.55859375 32.9394531,7.79541016 33.6328125,8.26904297 C34.3261719,8.74267578 34.8095703,9.47265625 35.0830078,10.4589844 C35.3564453,11.4453125 35.4931641,12.7832031 35.4931641,14.4726562 L35.4931641,22.7490234 L37.6025391,22.9980469 L37.6025391,24.5947266 L30.2490234,24.5947266 L30.2490234,22.9980469 L32.1240234,22.7490234 L32.1240234,14.4580078 C32.1240234,13.3251953 32.0483398,12.434082 31.8969727,11.784668 C31.7456055,11.1352539 31.4599609,10.6469727 31.0400391,10.3198242 C30.6201172,9.99267578 30,9.82910156 29.1796875,9.82910156 C28.4765625,9.82910156 27.7441406,9.98046875 26.9824219,10.2832031 C26.2207031,10.5859375 25.5517578,10.9521484 24.9755859,11.3818359 L24.9755859,22.7490234 L26.9970703,22.9980469 L26.9970703,24.5947266 L19.7021484,24.5947266 L19.7021484,22.9980469 L21.6210938,22.7490234 Z" id="Path"></path>
            <path d="M39.3310547,10.0341797 L39.3310547,8.64257812 C39.6044922,8.57421875 39.9194336,8.4765625 40.2758789,8.34960938 C40.6323242,8.22265625 40.8642578,8.125 40.9716797,8.05664062 C41.2939453,7.82226562 41.5576172,7.44140625 41.7626953,6.9140625 C41.9091797,6.58203125 42.1020508,6.05224609 42.3413086,5.32470703 C42.5805664,4.59716797 42.7441406,4.04785156 42.8320312,3.67675781 L44.7363281,3.67675781 L44.765625,7.93945312 L49.6875,7.93945312 L49.6875,10.0341797 L44.7802734,10.0341797 L44.7802734,18.8964844 C44.7802734,20.0878906 44.8144531,20.9155273 44.8828125,21.3793945 C44.9511719,21.8432617 45.090332,22.1411133 45.300293,22.2729492 C45.5102539,22.4047852 45.8935547,22.4707031 46.4501953,22.4707031 L46.4648438,22.4707031 C46.9726562,22.4707031 47.5463867,22.4072266 48.1860352,22.2802734 C48.8256836,22.1533203 49.3212891,22.0214844 49.6728516,21.8847656 L49.6875,21.8847656 L50.1855469,23.3056641 C49.8925781,23.5498047 49.453125,23.7963867 48.8671875,24.0454102 C48.28125,24.2944336 47.6513672,24.5019531 46.9775391,24.6679688 C46.3037109,24.8339844 45.6835938,24.9169922 45.1171875,24.9169922 L45.0878906,24.9169922 C43.8769531,24.9169922 42.9638672,24.6508789 42.3486328,24.1186523 C41.7333984,23.5864258 41.4257812,22.6953125 41.4257812,21.4453125 L41.4257812,10.0341797 L39.3310547,10.0341797 Z" id="Path"></path>
            <path d="M51.8115234,16.2304688 C51.8115234,14.5117188 52.1484375,12.9882812 52.8222656,11.6601562 C53.4960938,10.3320312 54.4287109,9.30419922 55.6201172,8.57666016 C56.8115234,7.84912109 58.1640625,7.48535156 59.6777344,7.48535156 C61.5527344,7.48535156 63.0029297,7.99804688 64.0283203,9.0234375 C65.0537109,10.0488281 65.6005859,11.5283203 65.6689453,13.4619141 L65.6689453,13.9892578 C65.6689453,15.0146484 65.6103516,15.7958984 65.4931641,16.3330078 L55.3417969,16.3330078 C55.3808594,17.7685547 55.625,18.9599609 56.0742188,19.9072266 C56.5234375,20.8544922 57.1142578,21.5527344 57.8466797,22.0019531 C58.5791016,22.4511719 59.4042969,22.6757812 60.3222656,22.6757812 C61.1230469,22.6757812 61.9458008,22.5366211 62.7905273,22.2583008 C63.6352539,21.9799805 64.296875,21.6601562 64.7753906,21.2988281 L65.390625,22.7050781 C65.0195312,23.0859375 64.5092773,23.4472656 63.8598633,23.7890625 C63.2104492,24.1308594 62.487793,24.4067383 61.6918945,24.6166992 C60.8959961,24.8266602 60.1074219,24.9316406 59.3261719,24.9316406 C57.6855469,24.9316406 56.3012695,24.5678711 55.1733398,23.840332 C54.0454102,23.112793 53.203125,22.097168 52.6464844,20.793457 C52.0898438,19.4897461 51.8115234,17.96875 51.8115234,16.2304688 Z M62.1533203,14.6337891 C62.1923828,14.2822266 62.2119141,13.8623047 62.2119141,13.3740234 C62.2021484,12.1337891 61.9433594,11.1376953 61.4355469,10.3857422 C60.9277344,9.63378906 60.1269531,9.2578125 59.0332031,9.2578125 C57.9394531,9.2578125 57.0727539,9.66552734 56.4331055,10.480957 C55.793457,11.2963867 55.4296875,12.6806641 55.3417969,14.6337891 L62.1533203,14.6337891 Z" id="Shape"></path>
            <path d="M70.5175781,22.7783203 L70.5175781,10.4736328 L68.4375,9.88769531 L68.4375,8.12988281 L72.6269531,7.54394531 L72.7001953,7.54394531 L73.4033203,8.11523438 L73.4033203,9.03808594 L73.3740234,10.9423828 L73.4033203,10.9423828 C73.5791016,10.6201172 73.918457,10.1879883 74.4213867,9.64599609 C74.9243164,9.10400391 75.5737305,8.60839844 76.3696289,8.15917969 C77.1655273,7.70996094 78.0322266,7.48535156 78.9697266,7.48535156 C79.3505859,7.48535156 79.6728516,7.5390625 79.9365234,7.64648438 L79.9365234,11.25 C79.7509766,11.1425781 79.5043945,11.0522461 79.1967773,10.9790039 C78.8891602,10.9057617 78.5595703,10.8691406 78.2080078,10.8691406 C77.2216797,10.8691406 76.3696289,10.9887695 75.6518555,11.2280273 C74.934082,11.4672852 74.3359375,11.7675781 73.8574219,12.1289062 L73.8574219,22.7636719 L77.7099609,23.0273438 L77.7099609,24.5947266 L68.2177734,24.5947266 L68.2177734,23.0126953 L70.5175781,22.7783203 Z" id="Path"></path>
            <path d="M89.8388672,24.9316406 C89.3994141,24.9316406 88.9160156,24.8950195 88.3886719,24.8217773 C87.8613281,24.7485352 87.4169922,24.6630859 87.0556641,24.5654297 L87.1435547,27.0556641 L87.1435547,29.9560547 L90.1464844,30.2783203 L90.1464844,31.8603516 L81.6357422,31.8603516 L81.6357422,30.2783203 L83.8183594,29.9414062 L83.8183594,10.4736328 L81.7236328,9.88769531 L81.7236328,8.12988281 L86.0449219,7.54394531 L86.1181641,7.54394531 L86.7773438,8.11523438 L86.7773438,9.78515625 C87.3632812,9.140625 88.0859375,8.59619141 88.9453125,8.15185547 C89.8046875,7.70751953 90.7763672,7.48535156 91.8603516,7.48535156 C93.0517578,7.48535156 94.140625,7.77587891 95.1269531,8.35693359 C96.1132812,8.93798828 96.9042969,9.84130859 97.5,11.0668945 C98.0957031,12.2924805 98.3935547,13.828125 98.3935547,15.6738281 C98.3935547,17.3828125 98.0444336,18.9404297 97.3461914,20.3466797 C96.6479492,21.7529297 95.6518555,22.8686523 94.3579102,23.6938477 C93.0639648,24.519043 91.5576172,24.9316406 89.8388672,24.9316406 Z M87.1435547,22.3388672 C87.2802734,22.5830078 87.6147461,22.7978516 88.1469727,22.9833984 C88.6791992,23.1689453 89.2773438,23.2617188 89.9414062,23.2617188 C90.8886719,23.2617188 91.7260742,23.0102539 92.4536133,22.5073242 C93.1811523,22.0043945 93.7548828,21.2084961 94.1748047,20.1196289 C94.5947266,19.0307617 94.8046875,17.6464844 94.8046875,15.9667969 C94.8046875,14.5507812 94.6166992,13.3789062 94.2407227,12.4511719 C93.8647461,11.5234375 93.3544922,10.8374023 92.7099609,10.3930664 C92.0654297,9.94873047 91.328125,9.7265625 90.4980469,9.7265625 C89.8046875,9.7265625 89.1601562,9.86816406 88.5644531,10.1513672 C87.96875,10.4345703 87.4951172,10.7666016 87.1435547,11.1474609 L87.1435547,22.3388672 Z" id="Shape"></path>
            <path d="M103.286133,22.7783203 L103.286133,10.4736328 L101.206055,9.88769531 L101.206055,8.12988281 L105.395508,7.54394531 L105.46875,7.54394531 L106.171875,8.11523438 L106.171875,9.03808594 L106.142578,10.9423828 L106.171875,10.9423828 C106.347656,10.6201172 106.687012,10.1879883 107.189941,9.64599609 C107.692871,9.10400391 108.342285,8.60839844 109.138184,8.15917969 C109.934082,7.70996094 110.800781,7.48535156 111.738281,7.48535156 C112.119141,7.48535156 112.441406,7.5390625 112.705078,7.64648438 L112.705078,11.25 C112.519531,11.1425781 112.272949,11.0522461 111.965332,10.9790039 C111.657715,10.9057617 111.328125,10.8691406 110.976562,10.8691406 C109.990234,10.8691406 109.138184,10.9887695 108.42041,11.2280273 C107.702637,11.4672852 107.104492,11.7675781 106.625977,12.1289062 L106.625977,22.7636719 L110.478516,23.0273438 L110.478516,24.5947266 L100.986328,24.5947266 L100.986328,23.0126953 L103.286133,22.7783203 Z" id="Path"></path>
            <path d="M116.953125,22.7490234 L116.953125,10.4736328 L114.829102,9.87304688 L114.829102,8.14453125 L119.487305,7.54394531 L119.560547,7.54394531 L120.307617,8.11523438 L120.307617,22.7490234 L122.651367,22.9980469 L122.651367,24.5947266 L114.580078,24.5947266 L114.580078,22.9980469 L116.953125,22.7490234 Z M116.352539,2.78320312 C116.352539,2.11914062 116.54541,1.55761719 116.931152,1.09863281 C117.316895,0.639648438 117.856445,0.41015625 118.549805,0.41015625 L118.564453,0.41015625 C118.974609,0.41015625 119.331055,0.505371094 119.633789,0.695800781 C119.936523,0.886230469 120.168457,1.13769531 120.32959,1.45019531 C120.490723,1.76269531 120.571289,2.09472656 120.571289,2.44628906 C120.571289,3.12988281 120.375977,3.69140625 119.985352,4.13085938 C119.594727,4.5703125 119.02832,4.79003906 118.286133,4.79003906 L118.271484,4.79003906 C117.705078,4.79003906 117.243652,4.59960938 116.887207,4.21875 C116.530762,3.83789062 116.352539,3.359375 116.352539,2.78320312 Z" id="Shape"></path>
            <path d="M127.280273,19.8339844 L127.866211,22.0605469 C127.983398,22.265625 128.210449,22.4609375 128.547363,22.6464844 C128.884277,22.8320312 129.282227,22.9833984 129.741211,23.1005859 C130.200195,23.2177734 130.668945,23.2763672 131.147461,23.2763672 C132.250977,23.2763672 133.037109,23.0688477 133.505859,22.6538086 C133.974609,22.2387695 134.208984,21.6699219 134.208984,20.9472656 C134.208984,20.4394531 134.050293,19.9926758 133.73291,19.6069336 C133.415527,19.2211914 132.944336,18.8574219 132.319336,18.515625 C131.694336,18.1738281 130.844727,17.7880859 129.770508,17.3583984 C128.217773,16.7529297 127.084961,16.0375977 126.37207,15.2124023 C125.65918,14.387207 125.302734,13.3203125 125.302734,12.0117188 C125.302734,11.1328125 125.568848,10.3588867 126.101074,9.68994141 C126.633301,9.02099609 127.363281,8.50097656 128.291016,8.12988281 C129.21875,7.75878906 130.263672,7.57324219 131.425781,7.57324219 C132.324219,7.57324219 133.115234,7.64404297 133.798828,7.78564453 C134.482422,7.92724609 135.170898,8.11035156 135.864258,8.33496094 L136.391602,8.49609375 L136.391602,12.2021484 L134.516602,12.2021484 L133.886719,10.1513672 C133.769531,9.89746094 133.45459,9.67773438 132.941895,9.4921875 C132.429199,9.30664062 131.855469,9.21386719 131.220703,9.21386719 C130.322266,9.21386719 129.628906,9.40429688 129.140625,9.78515625 C128.652344,10.1660156 128.408203,10.6640625 128.408203,11.2792969 C128.408203,11.8261719 128.552246,12.2851562 128.840332,12.65625 C129.128418,13.0273438 129.487305,13.3300781 129.916992,13.5644531 C130.34668,13.7988281 130.947266,14.0771484 131.71875,14.3994141 L132.290039,14.6484375 C133.40332,15.1269531 134.306641,15.5761719 135,15.9960938 C135.693359,16.4160156 136.269531,16.953125 136.728516,17.6074219 C137.1875,18.2617188 137.416992,19.0625 137.416992,20.0097656 C137.416992,20.9863281 137.160645,21.8457031 136.647949,22.5878906 C136.135254,23.3300781 135.393066,23.90625 134.421387,24.3164062 C133.449707,24.7265625 132.299805,24.9316406 130.97168,24.9316406 C129.975586,24.9316406 128.930664,24.7949219 127.836914,24.5214844 C126.743164,24.2480469 125.869141,23.9648438 125.214844,23.671875 L125.214844,19.8339844 L127.280273,19.8339844 Z" id="Path"></path>
            <path d="M139.995117,16.2304688 C139.995117,14.5117188 140.332031,12.9882812 141.005859,11.6601562 C141.679688,10.3320312 142.612305,9.30419922 143.803711,8.57666016 C144.995117,7.84912109 146.347656,7.48535156 147.861328,7.48535156 C149.736328,7.48535156 151.186523,7.99804688 152.211914,9.0234375 C153.237305,10.0488281 153.78418,11.5283203 153.852539,13.4619141 L153.852539,13.9892578 C153.852539,15.0146484 153.793945,15.7958984 153.676758,16.3330078 L143.525391,16.3330078 C143.564453,17.7685547 143.808594,18.9599609 144.257812,19.9072266 C144.707031,20.8544922 145.297852,21.5527344 146.030273,22.0019531 C146.762695,22.4511719 147.587891,22.6757812 148.505859,22.6757812 C149.306641,22.6757812 150.129395,22.5366211 150.974121,22.2583008 C151.818848,21.9799805 152.480469,21.6601562 152.958984,21.2988281 L153.574219,22.7050781 C153.203125,23.0859375 152.692871,23.4472656 152.043457,23.7890625 C151.394043,24.1308594 150.671387,24.4067383 149.875488,24.6166992 C149.07959,24.8266602 148.291016,24.9316406 147.509766,24.9316406 C145.869141,24.9316406 144.484863,24.5678711 143.356934,23.840332 C142.229004,23.112793 141.386719,22.097168 140.830078,20.793457 C140.273438,19.4897461 139.995117,17.96875 139.995117,16.2304688 Z M150.336914,14.6337891 C150.375977,14.2822266 150.395508,13.8623047 150.395508,13.3740234 C150.385742,12.1337891 150.126953,11.1376953 149.619141,10.3857422 C149.111328,9.63378906 148.310547,9.2578125 147.216797,9.2578125 C146.123047,9.2578125 145.256348,9.66552734 144.616699,10.480957 C143.977051,11.2963867 143.613281,12.6806641 143.525391,14.6337891 L150.336914,14.6337891 Z" id="Shape"></path>
            <path d="M165.424805,22.6464844 L172.646484,2.12402344 L176.132812,2.12402344 L183.413086,22.6464844 L185.273438,22.9980469 L185.273438,24.5947266 L177.231445,24.5947266 L177.231445,22.9980469 L179.619141,22.6464844 L178.227539,18.3691406 L169.614258,18.3691406 L168.28125,22.6464844 L170.786133,22.9980469 L170.786133,24.5947266 L163.579102,24.5947266 L163.564453,22.9980469 L165.424805,22.6464844 Z M177.626953,16.5087891 L174.492188,6.88476562 L173.847656,4.42382812 L173.203125,6.9140625 L170.200195,16.5087891 L177.626953,16.5087891 Z" id="Shape"></path>
            <path d="M193.989258,24.9316406 C193.549805,24.9316406 193.066406,24.8950195 192.539062,24.8217773 C192.011719,24.7485352 191.567383,24.6630859 191.206055,24.5654297 L191.293945,27.0556641 L191.293945,29.9560547 L194.296875,30.2783203 L194.296875,31.8603516 L185.786133,31.8603516 L185.786133,30.2783203 L187.96875,29.9414062 L187.96875,10.4736328 L185.874023,9.88769531 L185.874023,8.12988281 L190.195312,7.54394531 L190.268555,7.54394531 L190.927734,8.11523438 L190.927734,9.78515625 C191.513672,9.140625 192.236328,8.59619141 193.095703,8.15185547 C193.955078,7.70751953 194.926758,7.48535156 196.010742,7.48535156 C197.202148,7.48535156 198.291016,7.77587891 199.277344,8.35693359 C200.263672,8.93798828 201.054688,9.84130859 201.650391,11.0668945 C202.246094,12.2924805 202.543945,13.828125 202.543945,15.6738281 C202.543945,17.3828125 202.194824,18.9404297 201.496582,20.3466797 C200.79834,21.7529297 199.802246,22.8686523 198.508301,23.6938477 C197.214355,24.519043 195.708008,24.9316406 193.989258,24.9316406 Z M191.293945,22.3388672 C191.430664,22.5830078 191.765137,22.7978516 192.297363,22.9833984 C192.82959,23.1689453 193.427734,23.2617188 194.091797,23.2617188 C195.039062,23.2617188 195.876465,23.0102539 196.604004,22.5073242 C197.331543,22.0043945 197.905273,21.2084961 198.325195,20.1196289 C198.745117,19.0307617 198.955078,17.6464844 198.955078,15.9667969 C198.955078,14.5507812 198.76709,13.3789062 198.391113,12.4511719 C198.015137,11.5234375 197.504883,10.8374023 196.860352,10.3930664 C196.21582,9.94873047 195.478516,9.7265625 194.648438,9.7265625 C193.955078,9.7265625 193.310547,9.86816406 192.714844,10.1513672 C192.119141,10.4345703 191.645508,10.7666016 191.293945,11.1474609 L191.293945,22.3388672 Z" id="Shape"></path>
            <path d="M212.944336,24.9316406 C212.504883,24.9316406 212.021484,24.8950195 211.494141,24.8217773 C210.966797,24.7485352 210.522461,24.6630859 210.161133,24.5654297 L210.249023,27.0556641 L210.249023,29.9560547 L213.251953,30.2783203 L213.251953,31.8603516 L204.741211,31.8603516 L204.741211,30.2783203 L206.923828,29.9414062 L206.923828,10.4736328 L204.829102,9.88769531 L204.829102,8.12988281 L209.150391,7.54394531 L209.223633,7.54394531 L209.882812,8.11523438 L209.882812,9.78515625 C210.46875,9.140625 211.191406,8.59619141 212.050781,8.15185547 C212.910156,7.70751953 213.881836,7.48535156 214.96582,7.48535156 C216.157227,7.48535156 217.246094,7.77587891 218.232422,8.35693359 C219.21875,8.93798828 220.009766,9.84130859 220.605469,11.0668945 C221.201172,12.2924805 221.499023,13.828125 221.499023,15.6738281 C221.499023,17.3828125 221.149902,18.9404297 220.45166,20.3466797 C219.753418,21.7529297 218.757324,22.8686523 217.463379,23.6938477 C216.169434,24.519043 214.663086,24.9316406 212.944336,24.9316406 Z M210.249023,22.3388672 C210.385742,22.5830078 210.720215,22.7978516 211.252441,22.9833984 C211.784668,23.1689453 212.382812,23.2617188 213.046875,23.2617188 C213.994141,23.2617188 214.831543,23.0102539 215.559082,22.5073242 C216.286621,22.0043945 216.860352,21.2084961 217.280273,20.1196289 C217.700195,19.0307617 217.910156,17.6464844 217.910156,15.9667969 C217.910156,14.5507812 217.722168,13.3789062 217.346191,12.4511719 C216.970215,11.5234375 216.459961,10.8374023 215.81543,10.3930664 C215.170898,9.94873047 214.433594,9.7265625 213.603516,9.7265625 C212.910156,9.7265625 212.265625,9.86816406 211.669922,10.1513672 C211.074219,10.4345703 210.600586,10.7666016 210.249023,11.1474609 L210.249023,22.3388672 Z" id="Shape"></path>
            <polygon id="Path" points="226.171875 22.7490234 226.171875 2.31445312 223.769531 2.02148438 223.769531 0.629882812 228.764648 0 228.793945 0 229.511719 0.498046875 229.511719 22.7490234 232.001953 22.9980469 232.001953 24.5947266 223.798828 24.5947266 223.798828 22.9980469"></polygon>
            <path d="M236.323242,22.7490234 L236.323242,10.4736328 L234.199219,9.87304688 L234.199219,8.14453125 L238.857422,7.54394531 L238.930664,7.54394531 L239.677734,8.11523438 L239.677734,22.7490234 L242.021484,22.9980469 L242.021484,24.5947266 L233.950195,24.5947266 L233.950195,22.9980469 L236.323242,22.7490234 Z M235.722656,2.78320312 C235.722656,2.11914062 235.915527,1.55761719 236.30127,1.09863281 C236.687012,0.639648438 237.226562,0.41015625 237.919922,0.41015625 L237.93457,0.41015625 C238.344727,0.41015625 238.701172,0.505371094 239.003906,0.695800781 C239.306641,0.886230469 239.538574,1.13769531 239.699707,1.45019531 C239.86084,1.76269531 239.941406,2.09472656 239.941406,2.44628906 C239.941406,3.12988281 239.746094,3.69140625 239.355469,4.13085938 C238.964844,4.5703125 238.398438,4.79003906 237.65625,4.79003906 L237.641602,4.79003906 C237.075195,4.79003906 236.61377,4.59960938 236.257324,4.21875 C235.900879,3.83789062 235.722656,3.359375 235.722656,2.78320312 Z" id="Shape"></path>
            <path d="M252.407227,7.48535156 C253.813477,7.48535156 255.317383,7.78808594 256.918945,8.39355469 L256.772461,12.9052734 L254.736328,12.9052734 L254.0625,10.1660156 C253.925781,9.84375 253.654785,9.60449219 253.249512,9.44824219 C252.844238,9.29199219 252.358398,9.21386719 251.791992,9.21386719 C250.932617,9.21386719 250.185547,9.45068359 249.550781,9.92431641 C248.916016,10.3979492 248.422852,11.105957 248.071289,12.0483398 C247.719727,12.9907227 247.543945,14.1552734 247.543945,15.5419922 C247.543945,17.1533203 247.753906,18.4912109 248.173828,19.5556641 C248.59375,20.6201172 249.165039,21.40625 249.887695,21.9140625 C250.610352,22.421875 251.425781,22.6757812 252.333984,22.6757812 C253.183594,22.6757812 253.967285,22.5512695 254.685059,22.3022461 C255.402832,22.0532227 256.015625,21.7480469 256.523438,21.3867188 L257.15332,22.734375 C256.801758,23.0957031 256.333008,23.4448242 255.74707,23.7817383 C255.161133,24.1186523 254.504395,24.3945312 253.776855,24.609375 C253.049316,24.8242188 252.319336,24.9316406 251.586914,24.9316406 C249.936523,24.9316406 248.540039,24.5654297 247.397461,23.8330078 C246.254883,23.1005859 245.397949,22.097168 244.82666,20.8227539 C244.255371,19.5483398 243.969727,18.1005859 243.969727,16.4794922 C243.969727,14.8095703 244.291992,13.293457 244.936523,11.9311523 C245.581055,10.5688477 246.538086,9.48730469 247.807617,8.68652344 C249.077148,7.88574219 250.610352,7.48535156 252.407227,7.48535156 Z" id="Path"></path>
            <path d="M269.238281,13.7109375 C269.238281,12.7929688 269.143066,12.0703125 268.952637,11.5429688 C268.762207,11.015625 268.432617,10.6298828 267.963867,10.3857422 C267.495117,10.1416016 266.831055,10.0195312 265.97168,10.0195312 C264.321289,10.0195312 262.583008,10.4833984 260.756836,11.4111328 L260.742188,11.4111328 L260.009766,9.88769531 C260.273438,9.65332031 260.778809,9.35058594 261.525879,8.97949219 C262.272949,8.60839844 263.122559,8.28369141 264.074707,8.00537109 C265.026855,7.72705078 265.932617,7.58789062 266.791992,7.58789062 C268.217773,7.58789062 269.338379,7.78076172 270.153809,8.16650391 C270.969238,8.55224609 271.557617,9.16992188 271.918945,10.0195312 C272.280273,10.8691406 272.460938,12.0166016 272.460938,13.4619141 L272.460938,22.9833984 L274.248047,22.9833984 L274.248047,24.4189453 C272.822266,24.7607422 271.748047,24.9316406 271.025391,24.9316406 C270.615234,24.9316406 270.302734,24.8974609 270.087891,24.8291016 C269.873047,24.7607422 269.714355,24.621582 269.611816,24.4116211 C269.509277,24.2016602 269.458008,23.8769531 269.458008,23.4375 L269.458008,22.734375 C268.930664,23.2519531 268.237305,23.7475586 267.37793,24.2211914 C266.518555,24.6948242 265.556641,24.9316406 264.492188,24.9316406 C263.554688,24.9316406 262.702637,24.7607422 261.936035,24.4189453 C261.169434,24.0771484 260.559082,23.5498047 260.10498,22.8369141 C259.650879,22.1240234 259.423828,21.2353516 259.423828,20.1708984 C259.423828,18.8720703 259.875488,17.8027344 260.778809,16.9628906 C261.682129,16.1230469 262.868652,15.5053711 264.338379,15.1098633 C265.808105,14.7143555 267.441406,14.5019531 269.238281,14.4726562 L269.238281,13.7109375 Z M269.238281,16.1279297 C267.802734,16.1279297 266.623535,16.2915039 265.700684,16.6186523 C264.777832,16.9458008 264.108887,17.3779297 263.693848,17.9150391 C263.278809,18.4521484 263.071289,19.0625 263.071289,19.7460938 C263.071289,20.7714844 263.325195,21.5234375 263.833008,22.0019531 C264.34082,22.4804688 265.024414,22.7197266 265.883789,22.7197266 C266.342773,22.7197266 266.896973,22.590332 267.546387,22.331543 C268.195801,22.0727539 268.759766,21.7578125 269.238281,21.3867188 L269.238281,16.1279297 Z" id="Shape"></path>
            <path d="M275.976562,10.0341797 L275.976562,8.64257812 C276.25,8.57421875 276.564941,8.4765625 276.921387,8.34960938 C277.277832,8.22265625 277.509766,8.125 277.617188,8.05664062 C277.939453,7.82226562 278.203125,7.44140625 278.408203,6.9140625 C278.554688,6.58203125 278.747559,6.05224609 278.986816,5.32470703 C279.226074,4.59716797 279.389648,4.04785156 279.477539,3.67675781 L281.381836,3.67675781 L281.411133,7.93945312 L286.333008,7.93945312 L286.333008,10.0341797 L281.425781,10.0341797 L281.425781,18.8964844 C281.425781,20.0878906 281.459961,20.9155273 281.52832,21.3793945 C281.59668,21.8432617 281.73584,22.1411133 281.945801,22.2729492 C282.155762,22.4047852 282.539062,22.4707031 283.095703,22.4707031 L283.110352,22.4707031 C283.618164,22.4707031 284.191895,22.4072266 284.831543,22.2802734 C285.471191,22.1533203 285.966797,22.0214844 286.318359,21.8847656 L286.333008,21.8847656 L286.831055,23.3056641 C286.538086,23.5498047 286.098633,23.7963867 285.512695,24.0454102 C284.926758,24.2944336 284.296875,24.5019531 283.623047,24.6679688 C282.949219,24.8339844 282.329102,24.9169922 281.762695,24.9169922 L281.733398,24.9169922 C280.522461,24.9169922 279.609375,24.6508789 278.994141,24.1186523 C278.378906,23.5864258 278.071289,22.6953125 278.071289,21.4453125 L278.071289,10.0341797 L275.976562,10.0341797 Z" id="Path"></path>
            <path d="M290.727539,22.7490234 L290.727539,10.4736328 L288.603516,9.87304688 L288.603516,8.14453125 L293.261719,7.54394531 L293.334961,7.54394531 L294.082031,8.11523438 L294.082031,22.7490234 L296.425781,22.9980469 L296.425781,24.5947266 L288.354492,24.5947266 L288.354492,22.9980469 L290.727539,22.7490234 Z M290.126953,2.78320312 C290.126953,2.11914062 290.319824,1.55761719 290.705566,1.09863281 C291.091309,0.639648438 291.630859,0.41015625 292.324219,0.41015625 L292.338867,0.41015625 C292.749023,0.41015625 293.105469,0.505371094 293.408203,0.695800781 C293.710938,0.886230469 293.942871,1.13769531 294.104004,1.45019531 C294.265137,1.76269531 294.345703,2.09472656 294.345703,2.44628906 C294.345703,3.12988281 294.150391,3.69140625 293.759766,4.13085938 C293.369141,4.5703125 292.802734,4.79003906 292.060547,4.79003906 L292.045898,4.79003906 C291.479492,4.79003906 291.018066,4.59960938 290.661621,4.21875 C290.305176,3.83789062 290.126953,3.359375 290.126953,2.78320312 Z" id="Shape"></path>
            <path d="M306.342773,7.48535156 C308.041992,7.48535156 309.458008,7.86132812 310.59082,8.61328125 C311.723633,9.36523438 312.563477,10.3979492 313.110352,11.7114258 C313.657227,13.0249023 313.930664,14.5263672 313.930664,16.2158203 C313.930664,18.0224609 313.557129,19.5849609 312.810059,20.9033203 C312.062988,22.2216797 311.081543,23.2226562 309.865723,23.90625 C308.649902,24.5898438 307.353516,24.9316406 305.976562,24.9316406 C304.277344,24.9316406 302.86377,24.5556641 301.73584,23.8037109 C300.60791,23.0517578 299.770508,22.019043 299.223633,20.7055664 C298.676758,19.3920898 298.40332,17.890625 298.40332,16.2011719 C298.40332,14.4140625 298.776855,12.8613281 299.523926,11.5429688 C300.270996,10.2246094 301.252441,9.21875 302.468262,8.52539062 C303.684082,7.83203125 304.975586,7.48535156 306.342773,7.48535156 Z M310.224609,16.4794922 C310.224609,14.2822266 309.899902,12.5366211 309.250488,11.2426758 C308.601074,9.94873047 307.573242,9.30175781 306.166992,9.30175781 C304.819336,9.30175781 303.803711,9.85595703 303.120117,10.9643555 C302.436523,12.0727539 302.094727,13.7304688 302.094727,15.9375 C302.094727,18.1347656 302.424316,19.8803711 303.083496,21.1743164 C303.742676,22.4682617 304.770508,23.1152344 306.166992,23.1152344 C308.87207,23.1152344 310.224609,20.9033203 310.224609,16.4794922 Z" id="Shape"></path>
            <path d="M318.500977,22.7490234 L318.500977,10.4736328 L316.40625,9.88769531 L316.40625,8.12988281 L320.742188,7.54394531 L320.81543,7.54394531 L321.503906,8.11523438 L321.503906,9.30175781 L321.489258,9.97558594 C321.938477,9.57519531 322.502441,9.18945312 323.181152,8.81835938 C323.859863,8.44726562 324.587402,8.14453125 325.36377,7.91015625 C326.140137,7.67578125 326.875,7.55859375 327.568359,7.55859375 C328.837891,7.55859375 329.819336,7.79541016 330.512695,8.26904297 C331.206055,8.74267578 331.689453,9.47265625 331.962891,10.4589844 C332.236328,11.4453125 332.373047,12.7832031 332.373047,14.4726562 L332.373047,22.7490234 L334.482422,22.9980469 L334.482422,24.5947266 L327.128906,24.5947266 L327.128906,22.9980469 L329.003906,22.7490234 L329.003906,14.4580078 C329.003906,13.3251953 328.928223,12.434082 328.776855,11.784668 C328.625488,11.1352539 328.339844,10.6469727 327.919922,10.3198242 C327.5,9.99267578 326.879883,9.82910156 326.05957,9.82910156 C325.356445,9.82910156 324.624023,9.98046875 323.862305,10.2832031 C323.100586,10.5859375 322.431641,10.9521484 321.855469,11.3818359 L321.855469,22.7490234 L323.876953,22.9980469 L323.876953,24.5947266 L316.582031,24.5947266 L316.582031,22.9980469 L318.500977,22.7490234 Z" id="Path"></path>
            <path d="M339.038086,19.8339844 L339.624023,22.0605469 C339.741211,22.265625 339.968262,22.4609375 340.305176,22.6464844 C340.64209,22.8320312 341.040039,22.9833984 341.499023,23.1005859 C341.958008,23.2177734 342.426758,23.2763672 342.905273,23.2763672 C344.008789,23.2763672 344.794922,23.0688477 345.263672,22.6538086 C345.732422,22.2387695 345.966797,21.6699219 345.966797,20.9472656 C345.966797,20.4394531 345.808105,19.9926758 345.490723,19.6069336 C345.17334,19.2211914 344.702148,18.8574219 344.077148,18.515625 C343.452148,18.1738281 342.602539,17.7880859 341.52832,17.3583984 C339.975586,16.7529297 338.842773,16.0375977 338.129883,15.2124023 C337.416992,14.387207 337.060547,13.3203125 337.060547,12.0117188 C337.060547,11.1328125 337.32666,10.3588867 337.858887,9.68994141 C338.391113,9.02099609 339.121094,8.50097656 340.048828,8.12988281 C340.976562,7.75878906 342.021484,7.57324219 343.183594,7.57324219 C344.082031,7.57324219 344.873047,7.64404297 345.556641,7.78564453 C346.240234,7.92724609 346.928711,8.11035156 347.62207,8.33496094 L348.149414,8.49609375 L348.149414,12.2021484 L346.274414,12.2021484 L345.644531,10.1513672 C345.527344,9.89746094 345.212402,9.67773438 344.699707,9.4921875 C344.187012,9.30664062 343.613281,9.21386719 342.978516,9.21386719 C342.080078,9.21386719 341.386719,9.40429688 340.898438,9.78515625 C340.410156,10.1660156 340.166016,10.6640625 340.166016,11.2792969 C340.166016,11.8261719 340.310059,12.2851562 340.598145,12.65625 C340.88623,13.0273438 341.245117,13.3300781 341.674805,13.5644531 C342.104492,13.7988281 342.705078,14.0771484 343.476562,14.3994141 L344.047852,14.6484375 C345.161133,15.1269531 346.064453,15.5761719 346.757812,15.9960938 C347.451172,16.4160156 348.027344,16.953125 348.486328,17.6074219 C348.945312,18.2617188 349.174805,19.0625 349.174805,20.0097656 C349.174805,20.9863281 348.918457,21.8457031 348.405762,22.5878906 C347.893066,23.3300781 347.150879,23.90625 346.179199,24.3164062 C345.20752,24.7265625 344.057617,24.9316406 342.729492,24.9316406 C341.733398,24.9316406 340.688477,24.7949219 339.594727,24.5214844 C338.500977,24.2480469 337.626953,23.9648438 336.972656,23.671875 L336.972656,19.8339844 L339.038086,19.8339844 Z" id="Path"></path>
            <path d="M363.398438,22.6464844 L363.398438,4.30664062 L361.083984,3.92578125 L361.083984,2.29980469 L364.995117,2.29980469 C365.483398,2.29980469 365.998535,2.28515625 366.540527,2.25585938 C367.08252,2.2265625 367.436523,2.20703125 367.602539,2.19726562 C368.754883,2.11914062 369.643555,2.08007812 370.268555,2.08007812 C374.008789,2.08007812 376.789551,3.01269531 378.61084,4.87792969 C380.432129,6.74316406 381.342773,9.36523438 381.342773,12.7441406 C381.342773,15.1171875 380.878906,17.2167969 379.951172,19.0429688 C379.023438,20.8691406 377.722168,22.2900391 376.047363,23.3056641 C374.372559,24.3212891 372.446289,24.8291016 370.268555,24.8291016 C369.770508,24.8291016 368.935547,24.7900391 367.763672,24.7119141 C366.552734,24.6337891 365.678711,24.5947266 365.141602,24.5947266 L360.922852,24.5947266 L360.922852,22.9980469 L363.398438,22.6464844 Z M366.826172,22.7929688 C367.236328,22.9003906 367.663574,22.9736328 368.10791,23.0126953 C368.552246,23.0517578 369.052734,23.0712891 369.609375,23.0712891 L370.283203,23.0712891 C371.728516,23.0419922 373.000488,22.6586914 374.099121,21.9213867 C375.197754,21.184082 376.057129,20.0952148 376.677246,18.6547852 C377.297363,17.2143555 377.607422,15.4541016 377.607422,13.3740234 C377.607422,10.2197266 376.933594,7.83691406 375.585938,6.22558594 C374.238281,4.61425781 372.207031,3.80859375 369.492188,3.80859375 C368.896484,3.80859375 368.15918,3.85742188 367.280273,3.95507812 L366.826172,3.99902344 L366.826172,22.7929688 Z" id="Shape"></path>
            <path d="M385.913086,22.7490234 L385.913086,10.4736328 L383.789062,9.87304688 L383.789062,8.14453125 L388.447266,7.54394531 L388.520508,7.54394531 L389.267578,8.11523438 L389.267578,22.7490234 L391.611328,22.9980469 L391.611328,24.5947266 L383.540039,24.5947266 L383.540039,22.9980469 L385.913086,22.7490234 Z M385.3125,2.78320312 C385.3125,2.11914062 385.505371,1.55761719 385.891113,1.09863281 C386.276855,0.639648438 386.816406,0.41015625 387.509766,0.41015625 L387.524414,0.41015625 C387.93457,0.41015625 388.291016,0.505371094 388.59375,0.695800781 C388.896484,0.886230469 389.128418,1.13769531 389.289551,1.45019531 C389.450684,1.76269531 389.53125,2.09472656 389.53125,2.44628906 C389.53125,3.12988281 389.335938,3.69140625 388.945312,4.13085938 C388.554688,4.5703125 387.988281,4.79003906 387.246094,4.79003906 L387.231445,4.79003906 C386.665039,4.79003906 386.203613,4.59960938 385.847168,4.21875 C385.490723,3.83789062 385.3125,3.359375 385.3125,2.78320312 Z" id="Shape"></path>
            <path d="M400.942383,18.6621094 C400.141602,18.6621094 399.394531,18.5791016 398.701172,18.4130859 C398.427734,18.6572266 398.212891,18.9379883 398.056641,19.2553711 C397.900391,19.5727539 397.822266,19.8974609 397.822266,20.2294922 C397.822266,20.7177734 397.937012,21.0913086 398.166504,21.3500977 C398.395996,21.6088867 398.742676,21.7871094 399.206543,21.8847656 C399.67041,21.9824219 400.307617,22.03125 401.118164,22.03125 L404.311523,22.03125 C408.129883,22.03125 410.039062,23.4960938 410.039062,26.4257812 C410.039062,27.5585938 409.63623,28.6035156 408.830566,29.5605469 C408.024902,30.5175781 406.948242,31.2768555 405.600586,31.8383789 C404.25293,32.3999023 402.807617,32.6806641 401.264648,32.6806641 L401.25,32.6806641 C398.632812,32.6806641 396.733398,32.2827148 395.551758,31.4868164 C394.370117,30.690918 393.779297,29.5654297 393.779297,28.1103516 C393.779297,27.2021484 394.04541,26.3793945 394.577637,25.6420898 C395.109863,24.9047852 395.751953,24.3457031 396.503906,23.9648438 C395.556641,23.4277344 395.083008,22.6074219 395.083008,21.5039062 C395.083008,20.7714844 395.292969,20.0952148 395.712891,19.4750977 C396.132812,18.8549805 396.68457,18.3544922 397.368164,17.9736328 C396.391602,17.5244141 395.64209,16.887207 395.119629,16.0620117 C394.597168,15.2368164 394.335938,14.2724609 394.335938,13.1689453 C394.335938,12.0166016 394.663086,11.0107422 395.317383,10.1513672 C395.97168,9.29199219 396.831055,8.63525391 397.895508,8.18115234 C398.959961,7.72705078 400.097656,7.49511719 401.308594,7.48535156 L401.323242,7.48535156 C402.37793,7.48535156 403.325195,7.60498047 404.165039,7.84423828 C405.004883,8.08349609 405.712891,8.4375 406.289062,8.90625 C406.582031,8.56445312 407.021484,8.23730469 407.607422,7.92480469 C408.193359,7.61230469 408.881836,7.45605469 409.672852,7.45605469 L410.463867,7.45605469 L410.463867,10.2978516 L407.387695,10.2978516 C407.729492,11.0107422 407.900391,11.796875 407.900391,12.65625 C407.900391,13.828125 407.597656,14.8706055 406.992188,15.7836914 C406.386719,16.6967773 405.556641,17.4047852 404.501953,17.9077148 C403.447266,18.4106445 402.265625,18.6621094 400.957031,18.6621094 L400.942383,18.6621094 Z M401.118164,9.19921875 C400.063477,9.19921875 399.245605,9.48486328 398.664551,10.0561523 C398.083496,10.6274414 397.792969,11.5625 397.792969,12.8613281 C397.792969,14.0917969 398.068848,15.0756836 398.620605,15.8129883 C399.172363,16.550293 400.053711,16.9189453 401.264648,16.9189453 L401.279297,16.9189453 C402.392578,16.9189453 403.200684,16.5869141 403.703613,15.9228516 C404.206543,15.2587891 404.458008,14.2871094 404.458008,13.0078125 C404.458008,11.6992188 404.187012,10.7373047 403.64502,10.1220703 C403.103027,9.50683594 402.265625,9.19921875 401.132812,9.19921875 L401.118164,9.19921875 Z M397.998047,24.4775391 C397.373047,25.2490234 397.060547,26.171875 397.060547,27.2460938 C397.060547,28.4179688 397.407227,29.3066406 398.100586,29.9121094 C398.793945,30.5175781 399.931641,30.8203125 401.513672,30.8203125 L401.542969,30.8203125 C402.421875,30.8203125 403.261719,30.6835938 404.0625,30.4101562 C404.863281,30.1367188 405.512695,29.7314453 406.010742,29.1943359 C406.508789,28.6572266 406.757812,28.0175781 406.757812,27.2753906 C406.757812,26.640625 406.662598,26.1401367 406.472168,25.7739258 C406.281738,25.4077148 405.932617,25.1318359 405.424805,24.9462891 C404.916992,24.7607422 404.179688,24.6679688 403.212891,24.6679688 L400.268555,24.6679688 C399.467773,24.6679688 398.710938,24.6044922 397.998047,24.4775391 Z" id="Shape"></path>
            <path d="M414.301758,22.7490234 L414.301758,10.4736328 L412.177734,9.87304688 L412.177734,8.14453125 L416.835938,7.54394531 L416.90918,7.54394531 L417.65625,8.11523438 L417.65625,22.7490234 L420,22.9980469 L420,24.5947266 L411.928711,24.5947266 L411.928711,22.9980469 L414.301758,22.7490234 Z M413.701172,2.78320312 C413.701172,2.11914062 413.894043,1.55761719 414.279785,1.09863281 C414.665527,0.639648438 415.205078,0.41015625 415.898438,0.41015625 L415.913086,0.41015625 C416.323242,0.41015625 416.679688,0.505371094 416.982422,0.695800781 C417.285156,0.886230469 417.51709,1.13769531 417.678223,1.45019531 C417.839355,1.76269531 417.919922,2.09472656 417.919922,2.44628906 C417.919922,3.12988281 417.724609,3.69140625 417.333984,4.13085938 C416.943359,4.5703125 416.376953,4.79003906 415.634766,4.79003906 L415.620117,4.79003906 C415.053711,4.79003906 414.592285,4.59960938 414.23584,4.21875 C413.879395,3.83789062 413.701172,3.359375 413.701172,2.78320312 Z" id="Shape"></path>
            <path d="M421.801758,10.0341797 L421.801758,8.64257812 C422.075195,8.57421875 422.390137,8.4765625 422.746582,8.34960938 C423.103027,8.22265625 423.334961,8.125 423.442383,8.05664062 C423.764648,7.82226562 424.02832,7.44140625 424.233398,6.9140625 C424.379883,6.58203125 424.572754,6.05224609 424.812012,5.32470703 C425.05127,4.59716797 425.214844,4.04785156 425.302734,3.67675781 L427.207031,3.67675781 L427.236328,7.93945312 L432.158203,7.93945312 L432.158203,10.0341797 L427.250977,10.0341797 L427.250977,18.8964844 C427.250977,20.0878906 427.285156,20.9155273 427.353516,21.3793945 C427.421875,21.8432617 427.561035,22.1411133 427.770996,22.2729492 C427.980957,22.4047852 428.364258,22.4707031 428.920898,22.4707031 L428.935547,22.4707031 C429.443359,22.4707031 430.01709,22.4072266 430.656738,22.2802734 C431.296387,22.1533203 431.791992,22.0214844 432.143555,21.8847656 L432.158203,21.8847656 L432.65625,23.3056641 C432.363281,23.5498047 431.923828,23.7963867 431.337891,24.0454102 C430.751953,24.2944336 430.12207,24.5019531 429.448242,24.6679688 C428.774414,24.8339844 428.154297,24.9169922 427.587891,24.9169922 L427.558594,24.9169922 C426.347656,24.9169922 425.43457,24.6508789 424.819336,24.1186523 C424.204102,23.5864258 423.896484,22.6953125 423.896484,21.4453125 L423.896484,10.0341797 L421.801758,10.0341797 Z" id="Path"></path>
            <path d="M444.09668,13.7109375 C444.09668,12.7929688 444.001465,12.0703125 443.811035,11.5429688 C443.620605,11.015625 443.291016,10.6298828 442.822266,10.3857422 C442.353516,10.1416016 441.689453,10.0195312 440.830078,10.0195312 C439.179688,10.0195312 437.441406,10.4833984 435.615234,11.4111328 L435.600586,11.4111328 L434.868164,9.88769531 C435.131836,9.65332031 435.637207,9.35058594 436.384277,8.97949219 C437.131348,8.60839844 437.980957,8.28369141 438.933105,8.00537109 C439.885254,7.72705078 440.791016,7.58789062 441.650391,7.58789062 C443.076172,7.58789062 444.196777,7.78076172 445.012207,8.16650391 C445.827637,8.55224609 446.416016,9.16992188 446.777344,10.0195312 C447.138672,10.8691406 447.319336,12.0166016 447.319336,13.4619141 L447.319336,22.9833984 L449.106445,22.9833984 L449.106445,24.4189453 C447.680664,24.7607422 446.606445,24.9316406 445.883789,24.9316406 C445.473633,24.9316406 445.161133,24.8974609 444.946289,24.8291016 C444.731445,24.7607422 444.572754,24.621582 444.470215,24.4116211 C444.367676,24.2016602 444.316406,23.8769531 444.316406,23.4375 L444.316406,22.734375 C443.789062,23.2519531 443.095703,23.7475586 442.236328,24.2211914 C441.376953,24.6948242 440.415039,24.9316406 439.350586,24.9316406 C438.413086,24.9316406 437.561035,24.7607422 436.794434,24.4189453 C436.027832,24.0771484 435.41748,23.5498047 434.963379,22.8369141 C434.509277,22.1240234 434.282227,21.2353516 434.282227,20.1708984 C434.282227,18.8720703 434.733887,17.8027344 435.637207,16.9628906 C436.540527,16.1230469 437.727051,15.5053711 439.196777,15.1098633 C440.666504,14.7143555 442.299805,14.5019531 444.09668,14.4726562 L444.09668,13.7109375 Z M444.09668,16.1279297 C442.661133,16.1279297 441.481934,16.2915039 440.559082,16.6186523 C439.63623,16.9458008 438.967285,17.3779297 438.552246,17.9150391 C438.137207,18.4521484 437.929688,19.0625 437.929688,19.7460938 C437.929688,20.7714844 438.183594,21.5234375 438.691406,22.0019531 C439.199219,22.4804688 439.882812,22.7197266 440.742188,22.7197266 C441.201172,22.7197266 441.755371,22.590332 442.404785,22.331543 C443.054199,22.0727539 443.618164,21.7578125 444.09668,21.3867188 L444.09668,16.1279297 Z" id="Shape"></path>
            <polygon id="Path" points="453.295898 22.7490234 453.295898 2.31445312 450.893555 2.02148438 450.893555 0.629882812 455.888672 0 455.917969 0 456.635742 0.498046875 456.635742 22.7490234 459.125977 22.9980469 459.125977 24.5947266 450.922852 24.5947266 450.922852 22.9980469"></polygon>
        </g>
        <path d="M32,0 C49.673,0 64,14.327 64,32 C64,49.673 49.673,64 32,64 C14.327,64 0,49.673 0,32 C0,14.327 14.327,0 32,0 Z M49.1509,16.5796 L14.9019,16.5796 C13.9579,16.5796 13.2229,17.3136 13.2229,18.2586 L13.2229,18.2586 L13.2229,41.6615 C13.2229,42.5535 13.9579,43.2875 14.9019,43.2875 L14.9019,43.2875 L26.7559,43.2875 L25.8639,48.6375 L23.1359,48.6375 C22.2449,48.6375 22.2449,50.3685 23.1359,50.3685 L23.1359,50.3685 L40.8639,50.3685 C41.7559,50.3685 41.8079,48.6375 40.8639,48.6375 L40.8639,48.6375 L38.1359,48.6375 L37.2449,43.2875 L49.1509,43.2875 C50.0429,43.2875 50.7769,42.5535 50.7769,41.6615 L50.7769,41.6615 L50.7769,41.0035 L50.7759,41.0026 L50.7769,18.2586 C50.7769,17.3136 50.0429,16.5796 49.1509,16.5796 L49.1509,16.5796 Z M36.1294381,20.9177269 C39.5860966,22.5057362 42,26.0126797 42,30.0842369 C42,35.6406579 37.5139141,40.1607901 32,40.1607901 C26.4860859,40.1607901 22,35.6406579 22,30.0842369 C22,26.1170786 24.2917005,22.6854407 27.6072381,21.0436043 L27.6072381,21.0436043 L27.871095,20.9177269 L27.871095,24.0878362 L27.6567894,24.2440993 C25.8953084,25.5780032 24.7508263,27.6977598 24.7508263,30.0842369 C24.7508263,34.1122795 28.0027722,37.3887575 32,37.3887575 C35.9972278,37.3887575 39.2491737,34.1122795 39.2491737,30.0842369 C39.2491737,27.6977598 38.1051845,25.5780032 36.3437414,24.2445769 L36.3437414,24.2445769 L36.1294381,24.0883734 Z M33.481288,18.4998 L33.481288,29.4998 L30.481288,29.4998 L30.481288,18.4998 L33.481288,18.4998 Z" id="icon" fill="#FFFFFF" fill-rule="nonzero"></path>
    </g>
</svg>