<?xml version="1.0" encoding="UTF-8"?>
<svg width="64px" height="64px" viewBox="0 0 64 64" version="1.1" xmlns="http://www.w3.org/2000/svg" xmlns:xlink="http://www.w3.org/1999/xlink">
    <title>logo/eic/white/icon/eic-logo-white-icon</title>
    <g id="logo/eic/white/icon/eic-logo-white-icon" stroke="none" stroke-width="1" fill="none" fill-rule="evenodd">
        <path d="M32,0 C49.673,0 64,14.327 64,32 C64,49.673 49.673,64 32,64 C14.327,64 0,49.673 0,32 C0,14.327 14.327,0 32,0 Z M33.556,10.9998 L30.854,10.9998 C29.665,11.0008 28.651,11.8538 28.446,13.0238 L27.885,16.2088 C26.509,16.5838 25.188,17.1348 23.954,17.8488 L21.31,15.9918 C20.327,15.3208 19.004,15.4538 18.175,16.3058 L16.268,18.2138 C15.428,19.0528 15.312,20.3758 15.993,21.3478 L17.851,23.9928 C17.136,25.2258 16.584,26.5478 16.209,27.9238 L13.025,28.4838 C11.855,28.6888 11.001,29.7038 11,30.8918 L11,33.6238 C11.001,34.8108 11.855,35.8268 13.025,36.0318 L16.209,36.5918 C16.584,37.9678 17.136,39.2898 17.851,40.5228 L15.993,43.1678 C15.312,44.1398 15.428,45.4628 16.268,46.3018 L18.175,48.2088 C19.015,49.0488 20.337,49.1658 21.31,48.4838 L23.944,46.6268 C25.178,47.3408 26.499,47.8928 27.875,48.2678 L28.436,51.4528 C28.641,52.6218 29.655,53.4758 30.843,53.4768 L33.575,53.4768 C34.763,53.4758 35.779,52.6218 35.984,51.4528 L36.544,48.2678 C37.92,47.8938 39.241,47.3418 40.475,46.6268 L43.149,48.4348 C44.121,49.1168 45.444,49.0008 46.283,48.1598 L48.191,46.2538 C49.03,45.4138 49.147,44.0908 48.465,43.1178 L46.608,40.4738 C47.322,39.2398 47.874,37.9188 48.249,36.5428 L51.384,35.9638 C52.554,35.7578 53.407,34.7428 53.409,33.5548 L53.409,30.8518 C53.407,29.6648 52.554,28.6498 51.384,28.4448 L48.2,27.8838 C47.825,26.5078 47.274,25.1868 46.559,23.9528 L48.416,21.3088 C49.098,20.3358 48.982,19.0128 48.141,18.1738 L46.235,16.2668 C45.395,15.4258 44.072,15.3098 43.099,15.9918 L40.455,17.8488 C39.222,17.1338 37.901,16.5828 36.524,16.2088 L35.964,13.0238 C35.759,11.8538 34.743,11.0008 33.556,10.9998 Z M32.2046,17.2381 C36.317225,17.2381 39.6626,20.4517018 39.6626,24.4015203 L39.6626,24.4015203 L39.6626,26.8313651 L41.228725,26.8313651 C42.3191,26.8313651 43.2046,27.6811505 43.2046,28.7290211 L43.2046,28.7290211 L43.2046,41.340444 C43.2046,42.3889749 42.3191,43.2381 41.228725,43.2381 L41.228725,43.2381 L23.180475,43.2381 C22.088725,43.2381 21.2046,42.3889749 21.2046,41.340444 L21.2046,41.340444 L21.2046,28.7290211 C21.2046,27.6811505 22.088725,26.8313651 23.180475,26.8313651 L23.180475,26.8313651 L24.745225,26.8313651 L24.745225,24.4015203 C24.745225,20.4517018 28.0912875,17.2381 32.2046,17.2381 Z M32.205274,21.2381 C29.9993767,21.2381 28.2046,22.8998785 28.2046,24.9416881 L28.2046,24.9416881 L28.2046,27.2381 L36.2046,27.2381 L36.2046,24.9416881 C36.2046,22.8998785 34.4104972,21.2381 32.205274,21.2381 Z" id="icon" fill="#FFFFFF" fill-rule="nonzero"></path>
    </g>
</svg>