<?xml version="1.0" encoding="UTF-8"?>
<svg width="64px" height="64px" viewBox="0 0 64 64" version="1.1" xmlns="http://www.w3.org/2000/svg" xmlns:xlink="http://www.w3.org/1999/xlink">
    <title>logo/cfius/color-dark/icon/cfius-logo-color-dark-icon</title>
    <g id="logo/cfius/color-dark/icon/cfius-logo-color-dark-icon" stroke="none" stroke-width="1" fill="none" fill-rule="evenodd">
        <g id="Group">
            <path d="M32,64.0002 C14.327,64.0002 0,49.6732 0,32.0002 C0,14.3272 14.327,0.0002 32,0.0002 C49.673,0.0002 64,14.3272 64,32.0002 C64,49.6732 49.673,64.0002 32,64.0002 Z" id="circle" fill="#083C6F"></path>
            <path d="M50.7767,23.662 L50.7767,44.008 C50.7767,44.952 50.0417,45.686 49.0987,45.686 L14.8487,45.686 C13.9567,45.686 13.2227,44.952 13.2227,44.008 L13.2227,23.662 L50.7767,23.662 Z M35.3737,14.6122 C36.4187,14.6122 37.3287,15.3252 37.5787,16.3392 L38.2277,18.9782 L49.0987,18.9782 C50.0417,18.9782 50.7767,19.7122 50.7767,20.6042 L50.7767,21.2622 L13.2227,21.2622 L13.2227,20.6042 C13.2227,19.7102 13.9547,18.9782 14.8487,18.9782 L25.7727,18.9782 L26.4207,16.3392 C26.6707,15.3252 27.5807,14.6122 28.6257,14.6122 L35.3737,14.6122 Z M34.7833,16.3051 L29.2173,16.3051 C28.8143,16.3051 28.4683,16.5901 28.3883,16.9861 L28.0133,18.8751 L35.9873,18.8751 L35.6113,16.9851 C35.5323,16.5901 35.1853,16.3051 34.7833,16.3051 Z" id="icon" fill="#F5EA14"></path>
        </g>
    </g>
</svg>