<?xml version="1.0" encoding="UTF-8"?>
<svg width="532px" height="64px" viewBox="0 0 532 64" version="1.1" xmlns="http://www.w3.org/2000/svg" xmlns:xlink="http://www.w3.org/1999/xlink">
    <title>logo/tms/color-dark/long/tms-logo-color-dark-long</title>
    <g id="logo/tms/color-dark/long/tms-logo-color-dark-long" stroke="none" stroke-width="1" fill="none" fill-rule="evenodd">
        <g id="Group">
            <path d="M64,31.9998 C64,49.6728 49.673,63.9998 32,63.9998 C14.327,63.9998 0,49.6728 0,31.9998 C0,14.3268 14.327,-0.0002 32,-0.0002 C49.673,-0.0002 64,14.3268 64,31.9998" id="circle" fill="#083C6F"></path>
            <path d="M51.9662,37.0498 C49.3532,40.5378 45.2652,39.9188 42.4112,40.2928 C42.3410065,40.3020043 42.2701432,40.3102975 42.198687,40.3178316 L41.9826159,40.3383086 C41.9100502,40.3444765 41.8369682,40.3500372 41.7634465,40.3551429 L41.5416389,40.3692463 L41.3176529,40.3815307 L41.0919484,40.3929081 L41.0353077,40.3957176 L41.0353077,40.3957176 L40.7511757,40.4102682 C37.7900252,40.5696606 34.6847161,41.0770258 35.9822,50.9478 C36.1222,52.3468 36.5712,55.5358 37.2152,57.3268 C35.5242,57.6538 33.7812,57.8308 31.9952,57.8308 C30.1922,57.8308 28.4322,57.6508 26.7272,57.3178 C27.3702,55.5258 27.8172,52.3438 27.9572,50.9478 C29.2546839,41.0770258 26.1493748,40.5696606 23.1882243,40.4102682 L22.9608045,40.3985416 C22.9229742,40.3966509 22.8851867,40.3947794 22.8474516,40.3929081 L22.6217471,40.3815307 L22.3977611,40.3692463 L22.1759535,40.3551429 C22.1024318,40.3500372 22.0293498,40.3444765 21.9567841,40.3383086 L21.740713,40.3178316 C21.6692568,40.3102975 21.5983935,40.3020043 21.5282,40.2928 C18.6732,39.9188 14.5862,40.5378 11.9742,37.0498 C11.6922,36.6738 12.1372,36.1678 12.5462,36.3968 C14.1752,37.3118 16.6932,37.9158 19.8862,37.7208 C23.4182,37.3618 26.1972,37.9558 28.1962,38.7268 C30.6332,39.6668 33.3072,39.6668 35.7432,38.7268 C37.7422,37.9558 40.5212,37.3618 44.0532,37.7208 C47.2462,37.9158 49.7652,37.3118 51.3932,36.3968 C51.8032,36.1678 52.2472,36.6738 51.9662,37.0498 Z M32.7553,29.0022 C34.3333,29.3002 35.6063,30.5742 35.9053,32.1522 C36.4403,34.9772 34.0103,37.4082 31.1843,36.8732 C29.6063,36.5742 28.3333,35.3002 28.0343,33.7222 C27.4993,30.8962 29.9283,28.4652 32.7553,29.0022 Z M45.0977,28.8436 C47.9157,28.2176 50.7127,28.8896 52.8887,30.4476 C51.5767,32.7806 49.3257,34.5716 46.5077,35.1976 C43.6897,35.8226 40.8927,35.1516 38.7167,33.5926 C40.0297,31.2596 42.2797,29.4686 45.0977,28.8436 Z M18.8418,28.8436 C21.6588,29.4686 23.9098,31.2596 25.2228,33.5926 C23.0468,35.1516 20.2498,35.8226 17.4318,35.1976 C14.6138,34.5716 12.3628,32.7806 11.0508,30.4476 C13.2268,28.8896 16.0238,28.2176 18.8418,28.8436 Z M24.168,20.325 C26.534,22.543 27.684,25.563 27.616,28.569 C24.621,28.83 21.533,27.877 19.167,25.659 C16.802,23.441 15.652,20.421 15.72,17.415 C18.714,17.154 21.803,18.107 24.168,20.325 Z M13.8692,23.2108 C15.4582,23.8468 16.6042,25.1088 17.1492,26.5998 C15.7272,27.3048 14.0262,27.4298 12.4362,26.7948 C10.8482,26.1588 9.7012,24.8968 9.1562,23.4058 C10.5782,22.7008 12.2792,22.5758 13.8692,23.2108 Z M22.1653,10.2888 C23.6783,10.7678 24.9913,11.8558 25.6963,13.4158 C26.4013,14.9768 26.3503,16.6818 25.7103,18.1328 C24.1973,17.6538 22.8833,16.5648 22.1793,15.0058 C21.4743,13.4458 21.5243,11.7408 22.1653,10.2888 Z M28.211,17.5028 C28.211,20.8998 29.695,23.9428 32.041,26.0458 C34.386,23.9428 35.87,20.8998 35.87,17.5028 C35.87,14.1068 34.386,11.0628 32.041,8.9608 C29.695,11.0628 28.211,14.1068 28.211,17.5028 M48.2195,17.415 C48.2875,20.421 47.1375,23.441 44.7725,25.659 C42.4065,27.877 39.3185,28.83 36.3235,28.569 C36.2555,25.563 37.4055,22.543 39.7715,20.325 C42.1365,18.107 45.2245,17.154 48.2195,17.415 Z M50.0704,23.2108 C51.6604,22.5758 53.3614,22.7008 54.7834,23.4058 C54.2384,24.8968 53.0914,26.1588 51.5034,26.7948 C49.9134,27.4298 48.2124,27.3048 46.7904,26.5998 C47.3354,25.1088 48.4814,23.8468 50.0704,23.2108 Z M41.7742,10.2888 C42.4152,11.7408 42.4652,13.4458 41.7602,15.0058 C41.0552,16.5648 39.7422,17.6538 38.2292,18.1328 C37.5892,16.6818 37.5382,14.9768 38.2432,13.4158 C38.9482,11.8558 40.2612,10.7678 41.7742,10.2888 Z" id="icon" fill="#F5EA14"></path>
        </g>
        <g id="Talent-Management-So" transform="translate(75.468750, 18.405273)" fill="#000000">
            <polygon id="Path" points="8.10058594 22.6464844 8.10058594 4.04296875 3.22265625 4.18945312 2.12402344 10.3125 0 10.3125 0.512695312 2.29980469 19.0576172 2.29980469 19.5263672 10.3125 17.4316406 10.3125 16.3183594 4.18945312 11.6308594 4.04296875 11.6308594 22.6464844 15.7763672 22.9980469 15.7763672 24.5947266 4.27734375 24.5947266 4.27734375 22.9980469"></polygon>
            <path d="M31.2597656,13.7109375 C31.2597656,12.7929688 31.1645508,12.0703125 30.9741211,11.5429688 C30.7836914,11.015625 30.4541016,10.6298828 29.9853516,10.3857422 C29.5166016,10.1416016 28.8525391,10.0195312 27.9931641,10.0195312 C26.3427734,10.0195312 24.6044922,10.4833984 22.7783203,11.4111328 L22.7636719,11.4111328 L22.03125,9.88769531 C22.2949219,9.65332031 22.800293,9.35058594 23.5473633,8.97949219 C24.2944336,8.60839844 25.144043,8.28369141 26.0961914,8.00537109 C27.0483398,7.72705078 27.9541016,7.58789062 28.8134766,7.58789062 C30.2392578,7.58789062 31.3598633,7.78076172 32.175293,8.16650391 C32.9907227,8.55224609 33.5791016,9.16992188 33.9404297,10.0195312 C34.3017578,10.8691406 34.4824219,12.0166016 34.4824219,13.4619141 L34.4824219,22.9833984 L36.2695312,22.9833984 L36.2695312,24.4189453 C34.84375,24.7607422 33.7695312,24.9316406 33.046875,24.9316406 C32.6367188,24.9316406 32.3242188,24.8974609 32.109375,24.8291016 C31.8945312,24.7607422 31.7358398,24.621582 31.6333008,24.4116211 C31.5307617,24.2016602 31.4794922,23.8769531 31.4794922,23.4375 L31.4794922,22.734375 C30.9521484,23.2519531 30.2587891,23.7475586 29.3994141,24.2211914 C28.5400391,24.6948242 27.578125,24.9316406 26.5136719,24.9316406 C25.5761719,24.9316406 24.7241211,24.7607422 23.9575195,24.4189453 C23.190918,24.0771484 22.5805664,23.5498047 22.1264648,22.8369141 C21.6723633,22.1240234 21.4453125,21.2353516 21.4453125,20.1708984 C21.4453125,18.8720703 21.8969727,17.8027344 22.800293,16.9628906 C23.7036133,16.1230469 24.8901367,15.5053711 26.3598633,15.1098633 C27.8295898,14.7143555 29.4628906,14.5019531 31.2597656,14.4726562 L31.2597656,13.7109375 Z M31.2597656,16.1279297 C29.8242188,16.1279297 28.6450195,16.2915039 27.722168,16.6186523 C26.7993164,16.9458008 26.1303711,17.3779297 25.715332,17.9150391 C25.300293,18.4521484 25.0927734,19.0625 25.0927734,19.7460938 C25.0927734,20.7714844 25.3466797,21.5234375 25.8544922,22.0019531 C26.3623047,22.4804688 27.0458984,22.7197266 27.9052734,22.7197266 C28.3642578,22.7197266 28.918457,22.590332 29.5678711,22.331543 C30.2172852,22.0727539 30.78125,21.7578125 31.2597656,21.3867188 L31.2597656,16.1279297 Z" id="Shape"></path>
            <polygon id="Path" points="40.4589844 22.7490234 40.4589844 2.31445312 38.0566406 2.02148438 38.0566406 0.629882812 43.0517578 0 43.0810547 0 43.7988281 0.498046875 43.7988281 22.7490234 46.2890625 22.9980469 46.2890625 24.5947266 38.0859375 24.5947266 38.0859375 22.9980469"></polygon>
            <path d="M48.3398438,16.2304688 C48.3398438,14.5117188 48.6767578,12.9882812 49.3505859,11.6601562 C50.0244141,10.3320312 50.9570312,9.30419922 52.1484375,8.57666016 C53.3398438,7.84912109 54.6923828,7.48535156 56.2060547,7.48535156 C58.0810547,7.48535156 59.53125,7.99804688 60.5566406,9.0234375 C61.5820312,10.0488281 62.1289062,11.5283203 62.1972656,13.4619141 L62.1972656,13.9892578 C62.1972656,15.0146484 62.1386719,15.7958984 62.0214844,16.3330078 L51.8701172,16.3330078 C51.9091797,17.7685547 52.1533203,18.9599609 52.6025391,19.9072266 C53.0517578,20.8544922 53.6425781,21.5527344 54.375,22.0019531 C55.1074219,22.4511719 55.9326172,22.6757812 56.8505859,22.6757812 C57.6513672,22.6757812 58.4741211,22.5366211 59.3188477,22.2583008 C60.1635742,21.9799805 60.8251953,21.6601562 61.3037109,21.2988281 L61.9189453,22.7050781 C61.5478516,23.0859375 61.0375977,23.4472656 60.3881836,23.7890625 C59.7387695,24.1308594 59.0161133,24.4067383 58.2202148,24.6166992 C57.4243164,24.8266602 56.6357422,24.9316406 55.8544922,24.9316406 C54.2138672,24.9316406 52.8295898,24.5678711 51.7016602,23.840332 C50.5737305,23.112793 49.7314453,22.097168 49.1748047,20.793457 C48.6181641,19.4897461 48.3398438,17.96875 48.3398438,16.2304688 Z M58.6816406,14.6337891 C58.7207031,14.2822266 58.7402344,13.8623047 58.7402344,13.3740234 C58.7304688,12.1337891 58.4716797,11.1376953 57.9638672,10.3857422 C57.4560547,9.63378906 56.6552734,9.2578125 55.5615234,9.2578125 C54.4677734,9.2578125 53.6010742,9.66552734 52.9614258,10.480957 C52.3217773,11.2963867 51.9580078,12.6806641 51.8701172,14.6337891 L58.6816406,14.6337891 Z" id="Shape"></path>
            <path d="M66.796875,22.7490234 L66.796875,10.4736328 L64.7021484,9.88769531 L64.7021484,8.12988281 L69.0380859,7.54394531 L69.1113281,7.54394531 L69.7998047,8.11523438 L69.7998047,9.30175781 L69.7851562,9.97558594 C70.234375,9.57519531 70.7983398,9.18945312 71.4770508,8.81835938 C72.1557617,8.44726562 72.8833008,8.14453125 73.659668,7.91015625 C74.4360352,7.67578125 75.1708984,7.55859375 75.8642578,7.55859375 C77.1337891,7.55859375 78.1152344,7.79541016 78.8085938,8.26904297 C79.5019531,8.74267578 79.9853516,9.47265625 80.2587891,10.4589844 C80.5322266,11.4453125 80.6689453,12.7832031 80.6689453,14.4726562 L80.6689453,22.7490234 L82.7783203,22.9980469 L82.7783203,24.5947266 L75.4248047,24.5947266 L75.4248047,22.9980469 L77.2998047,22.7490234 L77.2998047,14.4580078 C77.2998047,13.3251953 77.2241211,12.434082 77.0727539,11.784668 C76.9213867,11.1352539 76.6357422,10.6469727 76.2158203,10.3198242 C75.7958984,9.99267578 75.1757812,9.82910156 74.3554688,9.82910156 C73.6523438,9.82910156 72.9199219,9.98046875 72.1582031,10.2832031 C71.3964844,10.5859375 70.7275391,10.9521484 70.1513672,11.3818359 L70.1513672,22.7490234 L72.1728516,22.9980469 L72.1728516,24.5947266 L64.8779297,24.5947266 L64.8779297,22.9980469 L66.796875,22.7490234 Z" id="Path"></path>
            <path d="M84.5068359,10.0341797 L84.5068359,8.64257812 C84.7802734,8.57421875 85.0952148,8.4765625 85.4516602,8.34960938 C85.8081055,8.22265625 86.0400391,8.125 86.1474609,8.05664062 C86.4697266,7.82226562 86.7333984,7.44140625 86.9384766,6.9140625 C87.0849609,6.58203125 87.277832,6.05224609 87.5170898,5.32470703 C87.7563477,4.59716797 87.9199219,4.04785156 88.0078125,3.67675781 L89.9121094,3.67675781 L89.9414062,7.93945312 L94.8632812,7.93945312 L94.8632812,10.0341797 L89.9560547,10.0341797 L89.9560547,18.8964844 C89.9560547,20.0878906 89.9902344,20.9155273 90.0585938,21.3793945 C90.1269531,21.8432617 90.2661133,22.1411133 90.4760742,22.2729492 C90.6860352,22.4047852 91.0693359,22.4707031 91.6259766,22.4707031 L91.640625,22.4707031 C92.1484375,22.4707031 92.722168,22.4072266 93.3618164,22.2802734 C94.0014648,22.1533203 94.4970703,22.0214844 94.8486328,21.8847656 L94.8632812,21.8847656 L95.3613281,23.3056641 C95.0683594,23.5498047 94.6289062,23.7963867 94.0429688,24.0454102 C93.4570312,24.2944336 92.8271484,24.5019531 92.1533203,24.6679688 C91.4794922,24.8339844 90.859375,24.9169922 90.2929688,24.9169922 L90.2636719,24.9169922 C89.0527344,24.9169922 88.1396484,24.6508789 87.5244141,24.1186523 C86.9091797,23.5864258 86.6015625,22.6953125 86.6015625,21.4453125 L86.6015625,10.0341797 L84.5068359,10.0341797 Z" id="Path"></path>
            <polygon id="Path" points="107.387695 22.6611328 109.584961 4.29199219 106.450195 3.92578125 106.450195 2.29980469 114.448242 2.29980469 119.047852 15.7324219 119.80957 19.1015625 120.46875 15.7324219 124.526367 2.29980469 132.524414 2.29980469 132.524414 3.92578125 129.272461 4.30664062 132.114258 22.6464844 134.736328 22.9980469 134.736328 24.5947266 126.035156 24.5947266 126.035156 22.9980469 128.62793 22.6611328 126.782227 9.36035156 126.137695 3.515625 125.126953 7.52929688 120.351562 23.5986328 118.461914 23.5986328 113.173828 9.16992188 111.547852 3.53027344 111.079102 9.34570312 109.892578 22.6464844 112.77832 22.9980469 112.77832 24.5947266 104.780273 24.5947266 104.780273 22.9980469"></polygon>
            <path d="M145.795898,13.7109375 C145.795898,12.7929688 145.700684,12.0703125 145.510254,11.5429688 C145.319824,11.015625 144.990234,10.6298828 144.521484,10.3857422 C144.052734,10.1416016 143.388672,10.0195312 142.529297,10.0195312 C140.878906,10.0195312 139.140625,10.4833984 137.314453,11.4111328 L137.299805,11.4111328 L136.567383,9.88769531 C136.831055,9.65332031 137.336426,9.35058594 138.083496,8.97949219 C138.830566,8.60839844 139.680176,8.28369141 140.632324,8.00537109 C141.584473,7.72705078 142.490234,7.58789062 143.349609,7.58789062 C144.775391,7.58789062 145.895996,7.78076172 146.711426,8.16650391 C147.526855,8.55224609 148.115234,9.16992188 148.476562,10.0195312 C148.837891,10.8691406 149.018555,12.0166016 149.018555,13.4619141 L149.018555,22.9833984 L150.805664,22.9833984 L150.805664,24.4189453 C149.379883,24.7607422 148.305664,24.9316406 147.583008,24.9316406 C147.172852,24.9316406 146.860352,24.8974609 146.645508,24.8291016 C146.430664,24.7607422 146.271973,24.621582 146.169434,24.4116211 C146.066895,24.2016602 146.015625,23.8769531 146.015625,23.4375 L146.015625,22.734375 C145.488281,23.2519531 144.794922,23.7475586 143.935547,24.2211914 C143.076172,24.6948242 142.114258,24.9316406 141.049805,24.9316406 C140.112305,24.9316406 139.260254,24.7607422 138.493652,24.4189453 C137.727051,24.0771484 137.116699,23.5498047 136.662598,22.8369141 C136.208496,22.1240234 135.981445,21.2353516 135.981445,20.1708984 C135.981445,18.8720703 136.433105,17.8027344 137.336426,16.9628906 C138.239746,16.1230469 139.42627,15.5053711 140.895996,15.1098633 C142.365723,14.7143555 143.999023,14.5019531 145.795898,14.4726562 L145.795898,13.7109375 Z M145.795898,16.1279297 C144.360352,16.1279297 143.181152,16.2915039 142.258301,16.6186523 C141.335449,16.9458008 140.666504,17.3779297 140.251465,17.9150391 C139.836426,18.4521484 139.628906,19.0625 139.628906,19.7460938 C139.628906,20.7714844 139.882812,21.5234375 140.390625,22.0019531 C140.898438,22.4804688 141.582031,22.7197266 142.441406,22.7197266 C142.900391,22.7197266 143.45459,22.590332 144.104004,22.331543 C144.753418,22.0727539 145.317383,21.7578125 145.795898,21.3867188 L145.795898,16.1279297 Z" id="Shape"></path>
            <path d="M154.96582,22.7490234 L154.96582,10.4736328 L152.871094,9.88769531 L152.871094,8.12988281 L157.207031,7.54394531 L157.280273,7.54394531 L157.96875,8.11523438 L157.96875,9.30175781 L157.954102,9.97558594 C158.40332,9.57519531 158.967285,9.18945312 159.645996,8.81835938 C160.324707,8.44726562 161.052246,8.14453125 161.828613,7.91015625 C162.60498,7.67578125 163.339844,7.55859375 164.033203,7.55859375 C165.302734,7.55859375 166.28418,7.79541016 166.977539,8.26904297 C167.670898,8.74267578 168.154297,9.47265625 168.427734,10.4589844 C168.701172,11.4453125 168.837891,12.7832031 168.837891,14.4726562 L168.837891,22.7490234 L170.947266,22.9980469 L170.947266,24.5947266 L163.59375,24.5947266 L163.59375,22.9980469 L165.46875,22.7490234 L165.46875,14.4580078 C165.46875,13.3251953 165.393066,12.434082 165.241699,11.784668 C165.090332,11.1352539 164.804688,10.6469727 164.384766,10.3198242 C163.964844,9.99267578 163.344727,9.82910156 162.524414,9.82910156 C161.821289,9.82910156 161.088867,9.98046875 160.327148,10.2832031 C159.56543,10.5859375 158.896484,10.9521484 158.320312,11.3818359 L158.320312,22.7490234 L160.341797,22.9980469 L160.341797,24.5947266 L153.046875,24.5947266 L153.046875,22.9980469 L154.96582,22.7490234 Z" id="Path"></path>
            <path d="M182.753906,13.7109375 C182.753906,12.7929688 182.658691,12.0703125 182.468262,11.5429688 C182.277832,11.015625 181.948242,10.6298828 181.479492,10.3857422 C181.010742,10.1416016 180.34668,10.0195312 179.487305,10.0195312 C177.836914,10.0195312 176.098633,10.4833984 174.272461,11.4111328 L174.257812,11.4111328 L173.525391,9.88769531 C173.789062,9.65332031 174.294434,9.35058594 175.041504,8.97949219 C175.788574,8.60839844 176.638184,8.28369141 177.590332,8.00537109 C178.54248,7.72705078 179.448242,7.58789062 180.307617,7.58789062 C181.733398,7.58789062 182.854004,7.78076172 183.669434,8.16650391 C184.484863,8.55224609 185.073242,9.16992188 185.43457,10.0195312 C185.795898,10.8691406 185.976562,12.0166016 185.976562,13.4619141 L185.976562,22.9833984 L187.763672,22.9833984 L187.763672,24.4189453 C186.337891,24.7607422 185.263672,24.9316406 184.541016,24.9316406 C184.130859,24.9316406 183.818359,24.8974609 183.603516,24.8291016 C183.388672,24.7607422 183.22998,24.621582 183.127441,24.4116211 C183.024902,24.2016602 182.973633,23.8769531 182.973633,23.4375 L182.973633,22.734375 C182.446289,23.2519531 181.75293,23.7475586 180.893555,24.2211914 C180.03418,24.6948242 179.072266,24.9316406 178.007812,24.9316406 C177.070312,24.9316406 176.218262,24.7607422 175.45166,24.4189453 C174.685059,24.0771484 174.074707,23.5498047 173.620605,22.8369141 C173.166504,22.1240234 172.939453,21.2353516 172.939453,20.1708984 C172.939453,18.8720703 173.391113,17.8027344 174.294434,16.9628906 C175.197754,16.1230469 176.384277,15.5053711 177.854004,15.1098633 C179.32373,14.7143555 180.957031,14.5019531 182.753906,14.4726562 L182.753906,13.7109375 Z M182.753906,16.1279297 C181.318359,16.1279297 180.13916,16.2915039 179.216309,16.6186523 C178.293457,16.9458008 177.624512,17.3779297 177.209473,17.9150391 C176.794434,18.4521484 176.586914,19.0625 176.586914,19.7460938 C176.586914,20.7714844 176.84082,21.5234375 177.348633,22.0019531 C177.856445,22.4804688 178.540039,22.7197266 179.399414,22.7197266 C179.858398,22.7197266 180.412598,22.590332 181.062012,22.331543 C181.711426,22.0727539 182.275391,21.7578125 182.753906,21.3867188 L182.753906,16.1279297 Z" id="Shape"></path>
            <path d="M197.021484,18.6621094 C196.220703,18.6621094 195.473633,18.5791016 194.780273,18.4130859 C194.506836,18.6572266 194.291992,18.9379883 194.135742,19.2553711 C193.979492,19.5727539 193.901367,19.8974609 193.901367,20.2294922 C193.901367,20.7177734 194.016113,21.0913086 194.245605,21.3500977 C194.475098,21.6088867 194.821777,21.7871094 195.285645,21.8847656 C195.749512,21.9824219 196.386719,22.03125 197.197266,22.03125 L200.390625,22.03125 C204.208984,22.03125 206.118164,23.4960938 206.118164,26.4257812 C206.118164,27.5585938 205.715332,28.6035156 204.909668,29.5605469 C204.104004,30.5175781 203.027344,31.2768555 201.679688,31.8383789 C200.332031,32.3999023 198.886719,32.6806641 197.34375,32.6806641 L197.329102,32.6806641 C194.711914,32.6806641 192.8125,32.2827148 191.630859,31.4868164 C190.449219,30.690918 189.858398,29.5654297 189.858398,28.1103516 C189.858398,27.2021484 190.124512,26.3793945 190.656738,25.6420898 C191.188965,24.9047852 191.831055,24.3457031 192.583008,23.9648438 C191.635742,23.4277344 191.162109,22.6074219 191.162109,21.5039062 C191.162109,20.7714844 191.37207,20.0952148 191.791992,19.4750977 C192.211914,18.8549805 192.763672,18.3544922 193.447266,17.9736328 C192.470703,17.5244141 191.721191,16.887207 191.19873,16.0620117 C190.67627,15.2368164 190.415039,14.2724609 190.415039,13.1689453 C190.415039,12.0166016 190.742188,11.0107422 191.396484,10.1513672 C192.050781,9.29199219 192.910156,8.63525391 193.974609,8.18115234 C195.039062,7.72705078 196.176758,7.49511719 197.387695,7.48535156 L197.402344,7.48535156 C198.457031,7.48535156 199.404297,7.60498047 200.244141,7.84423828 C201.083984,8.08349609 201.791992,8.4375 202.368164,8.90625 C202.661133,8.56445312 203.100586,8.23730469 203.686523,7.92480469 C204.272461,7.61230469 204.960938,7.45605469 205.751953,7.45605469 L206.542969,7.45605469 L206.542969,10.2978516 L203.466797,10.2978516 C203.808594,11.0107422 203.979492,11.796875 203.979492,12.65625 C203.979492,13.828125 203.676758,14.8706055 203.071289,15.7836914 C202.46582,16.6967773 201.635742,17.4047852 200.581055,17.9077148 C199.526367,18.4106445 198.344727,18.6621094 197.036133,18.6621094 L197.021484,18.6621094 Z M197.197266,9.19921875 C196.142578,9.19921875 195.324707,9.48486328 194.743652,10.0561523 C194.162598,10.6274414 193.87207,11.5625 193.87207,12.8613281 C193.87207,14.0917969 194.147949,15.0756836 194.699707,15.8129883 C195.251465,16.550293 196.132812,16.9189453 197.34375,16.9189453 L197.358398,16.9189453 C198.47168,16.9189453 199.279785,16.5869141 199.782715,15.9228516 C200.285645,15.2587891 200.537109,14.2871094 200.537109,13.0078125 C200.537109,11.6992188 200.266113,10.7373047 199.724121,10.1220703 C199.182129,9.50683594 198.344727,9.19921875 197.211914,9.19921875 L197.197266,9.19921875 Z M194.077148,24.4775391 C193.452148,25.2490234 193.139648,26.171875 193.139648,27.2460938 C193.139648,28.4179688 193.486328,29.3066406 194.179688,29.9121094 C194.873047,30.5175781 196.010742,30.8203125 197.592773,30.8203125 L197.62207,30.8203125 C198.500977,30.8203125 199.34082,30.6835938 200.141602,30.4101562 C200.942383,30.1367188 201.591797,29.7314453 202.089844,29.1943359 C202.587891,28.6572266 202.836914,28.0175781 202.836914,27.2753906 C202.836914,26.640625 202.741699,26.1401367 202.55127,25.7739258 C202.36084,25.4077148 202.011719,25.1318359 201.503906,24.9462891 C200.996094,24.7607422 200.258789,24.6679688 199.291992,24.6679688 L196.347656,24.6679688 C195.546875,24.6679688 194.790039,24.6044922 194.077148,24.4775391 Z" id="Shape"></path>
            <path d="M208.110352,16.2304688 C208.110352,14.5117188 208.447266,12.9882812 209.121094,11.6601562 C209.794922,10.3320312 210.727539,9.30419922 211.918945,8.57666016 C213.110352,7.84912109 214.462891,7.48535156 215.976562,7.48535156 C217.851562,7.48535156 219.301758,7.99804688 220.327148,9.0234375 C221.352539,10.0488281 221.899414,11.5283203 221.967773,13.4619141 L221.967773,13.9892578 C221.967773,15.0146484 221.90918,15.7958984 221.791992,16.3330078 L211.640625,16.3330078 C211.679688,17.7685547 211.923828,18.9599609 212.373047,19.9072266 C212.822266,20.8544922 213.413086,21.5527344 214.145508,22.0019531 C214.87793,22.4511719 215.703125,22.6757812 216.621094,22.6757812 C217.421875,22.6757812 218.244629,22.5366211 219.089355,22.2583008 C219.934082,21.9799805 220.595703,21.6601562 221.074219,21.2988281 L221.689453,22.7050781 C221.318359,23.0859375 220.808105,23.4472656 220.158691,23.7890625 C219.509277,24.1308594 218.786621,24.4067383 217.990723,24.6166992 C217.194824,24.8266602 216.40625,24.9316406 215.625,24.9316406 C213.984375,24.9316406 212.600098,24.5678711 211.472168,23.840332 C210.344238,23.112793 209.501953,22.097168 208.945312,20.793457 C208.388672,19.4897461 208.110352,17.96875 208.110352,16.2304688 Z M218.452148,14.6337891 C218.491211,14.2822266 218.510742,13.8623047 218.510742,13.3740234 C218.500977,12.1337891 218.242188,11.1376953 217.734375,10.3857422 C217.226562,9.63378906 216.425781,9.2578125 215.332031,9.2578125 C214.238281,9.2578125 213.371582,9.66552734 212.731934,10.480957 C212.092285,11.2963867 211.728516,12.6806641 211.640625,14.6337891 L218.452148,14.6337891 Z" id="Shape"></path>
            <path d="M226.567383,22.7636719 L226.567383,10.4736328 L224.472656,9.88769531 L224.472656,8.12988281 L228.793945,7.54394531 L228.867188,7.54394531 L229.570312,8.11523438 L229.570312,9.30175781 L229.541016,9.97558594 C229.980469,9.57519531 230.549316,9.18945312 231.247559,8.81835938 C231.945801,8.44726562 232.683105,8.14453125 233.459473,7.91015625 C234.23584,7.67578125 234.941406,7.55859375 235.576172,7.55859375 C236.650391,7.55859375 237.514648,7.73925781 238.168945,8.10058594 C238.823242,8.46191406 239.321289,9.0234375 239.663086,9.78515625 C240.043945,9.453125 240.568848,9.11376953 241.237793,8.76708984 C241.906738,8.42041016 242.62207,8.13232422 243.383789,7.90283203 C244.145508,7.67333984 244.853516,7.55859375 245.507812,7.55859375 C246.777344,7.55859375 247.763672,7.79541016 248.466797,8.26904297 C249.169922,8.74267578 249.663086,9.47021484 249.946289,10.4516602 C250.229492,11.4331055 250.371094,12.7587891 250.371094,14.4287109 L250.371094,22.7636719 L252.46582,23.0126953 L252.46582,24.5947266 L245.288086,24.5947266 L245.288086,23.0126953 L247.016602,22.7490234 L247.016602,14.53125 C247.016602,13.3886719 246.933594,12.4853516 246.767578,11.8212891 C246.601562,11.1572266 246.289062,10.6567383 245.830078,10.3198242 C245.371094,9.98291016 244.711914,9.81445312 243.852539,9.81445312 C243.256836,9.81445312 242.607422,9.95117188 241.904297,10.2246094 C241.201172,10.4980469 240.595703,10.8154297 240.087891,11.1767578 C240.263672,12.0166016 240.351562,13.1152344 240.351562,14.4726562 L240.351562,22.7490234 L242.490234,23.0126953 L242.490234,24.5947266 L235.048828,24.5947266 L235.048828,23.0126953 L236.99707,22.7490234 L236.99707,14.4580078 C236.99707,13.3154297 236.923828,12.421875 236.777344,11.7773438 C236.630859,11.1328125 236.345215,10.6469727 235.92041,10.3198242 C235.495605,9.99267578 234.873047,9.82910156 234.052734,9.82910156 C233.369141,9.82910156 232.651367,9.97558594 231.899414,10.2685547 C231.147461,10.5615234 230.488281,10.9228516 229.921875,11.3525391 L229.921875,22.7490234 L231.884766,23.0126953 L231.884766,24.5947266 L224.736328,24.5947266 L224.736328,23.0126953 L226.567383,22.7636719 Z" id="Path"></path>
            <path d="M254.487305,16.2304688 C254.487305,14.5117188 254.824219,12.9882812 255.498047,11.6601562 C256.171875,10.3320312 257.104492,9.30419922 258.295898,8.57666016 C259.487305,7.84912109 260.839844,7.48535156 262.353516,7.48535156 C264.228516,7.48535156 265.678711,7.99804688 266.704102,9.0234375 C267.729492,10.0488281 268.276367,11.5283203 268.344727,13.4619141 L268.344727,13.9892578 C268.344727,15.0146484 268.286133,15.7958984 268.168945,16.3330078 L258.017578,16.3330078 C258.056641,17.7685547 258.300781,18.9599609 258.75,19.9072266 C259.199219,20.8544922 259.790039,21.5527344 260.522461,22.0019531 C261.254883,22.4511719 262.080078,22.6757812 262.998047,22.6757812 C263.798828,22.6757812 264.621582,22.5366211 265.466309,22.2583008 C266.311035,21.9799805 266.972656,21.6601562 267.451172,21.2988281 L268.066406,22.7050781 C267.695312,23.0859375 267.185059,23.4472656 266.535645,23.7890625 C265.88623,24.1308594 265.163574,24.4067383 264.367676,24.6166992 C263.571777,24.8266602 262.783203,24.9316406 262.001953,24.9316406 C260.361328,24.9316406 258.977051,24.5678711 257.849121,23.840332 C256.721191,23.112793 255.878906,22.097168 255.322266,20.793457 C254.765625,19.4897461 254.487305,17.96875 254.487305,16.2304688 Z M264.829102,14.6337891 C264.868164,14.2822266 264.887695,13.8623047 264.887695,13.3740234 C264.87793,12.1337891 264.619141,11.1376953 264.111328,10.3857422 C263.603516,9.63378906 262.802734,9.2578125 261.708984,9.2578125 C260.615234,9.2578125 259.748535,9.66552734 259.108887,10.480957 C258.469238,11.2963867 258.105469,12.6806641 258.017578,14.6337891 L264.829102,14.6337891 Z" id="Shape"></path>
            <path d="M272.944336,22.7490234 L272.944336,10.4736328 L270.849609,9.88769531 L270.849609,8.12988281 L275.185547,7.54394531 L275.258789,7.54394531 L275.947266,8.11523438 L275.947266,9.30175781 L275.932617,9.97558594 C276.381836,9.57519531 276.945801,9.18945312 277.624512,8.81835938 C278.303223,8.44726562 279.030762,8.14453125 279.807129,7.91015625 C280.583496,7.67578125 281.318359,7.55859375 282.011719,7.55859375 C283.28125,7.55859375 284.262695,7.79541016 284.956055,8.26904297 C285.649414,8.74267578 286.132812,9.47265625 286.40625,10.4589844 C286.679688,11.4453125 286.816406,12.7832031 286.816406,14.4726562 L286.816406,22.7490234 L288.925781,22.9980469 L288.925781,24.5947266 L281.572266,24.5947266 L281.572266,22.9980469 L283.447266,22.7490234 L283.447266,14.4580078 C283.447266,13.3251953 283.371582,12.434082 283.220215,11.784668 C283.068848,11.1352539 282.783203,10.6469727 282.363281,10.3198242 C281.943359,9.99267578 281.323242,9.82910156 280.50293,9.82910156 C279.799805,9.82910156 279.067383,9.98046875 278.305664,10.2832031 C277.543945,10.5859375 276.875,10.9521484 276.298828,11.3818359 L276.298828,22.7490234 L278.320312,22.9980469 L278.320312,24.5947266 L271.025391,24.5947266 L271.025391,22.9980469 L272.944336,22.7490234 Z" id="Path"></path>
            <path d="M290.654297,10.0341797 L290.654297,8.64257812 C290.927734,8.57421875 291.242676,8.4765625 291.599121,8.34960938 C291.955566,8.22265625 292.1875,8.125 292.294922,8.05664062 C292.617188,7.82226562 292.880859,7.44140625 293.085938,6.9140625 C293.232422,6.58203125 293.425293,6.05224609 293.664551,5.32470703 C293.903809,4.59716797 294.067383,4.04785156 294.155273,3.67675781 L296.05957,3.67675781 L296.088867,7.93945312 L301.010742,7.93945312 L301.010742,10.0341797 L296.103516,10.0341797 L296.103516,18.8964844 C296.103516,20.0878906 296.137695,20.9155273 296.206055,21.3793945 C296.274414,21.8432617 296.413574,22.1411133 296.623535,22.2729492 C296.833496,22.4047852 297.216797,22.4707031 297.773438,22.4707031 L297.788086,22.4707031 C298.295898,22.4707031 298.869629,22.4072266 299.509277,22.2802734 C300.148926,22.1533203 300.644531,22.0214844 300.996094,21.8847656 L301.010742,21.8847656 L301.508789,23.3056641 C301.21582,23.5498047 300.776367,23.7963867 300.19043,24.0454102 C299.604492,24.2944336 298.974609,24.5019531 298.300781,24.6679688 C297.626953,24.8339844 297.006836,24.9169922 296.44043,24.9169922 L296.411133,24.9169922 C295.200195,24.9169922 294.287109,24.6508789 293.671875,24.1186523 C293.056641,23.5864258 292.749023,22.6953125 292.749023,21.4453125 L292.749023,10.0341797 L290.654297,10.0341797 Z" id="Path"></path>
            <path d="M312.875977,18.1494141 L314.912109,18.1494141 L315.498047,21.8994141 C315.830078,22.2509766 316.367188,22.5512695 317.109375,22.800293 C317.851562,23.0493164 318.657227,23.1738281 319.526367,23.1738281 C320.981445,23.1738281 322.077637,22.8491211 322.814941,22.199707 C323.552246,21.550293 323.920898,20.6494141 323.920898,19.4970703 C323.920898,18.7451172 323.718262,18.0981445 323.312988,17.5561523 C322.907715,17.0141602 322.358398,16.5380859 321.665039,16.1279297 C320.97168,15.7177734 320.019531,15.2392578 318.808594,14.6923828 C317.753906,14.2138672 316.806641,13.6962891 315.966797,13.1396484 C315.126953,12.5830078 314.404297,11.8603516 313.798828,10.9716797 C313.193359,10.0830078 312.890625,9.03320312 312.890625,7.82226563 C312.890625,6.70898438 313.188477,5.71533203 313.78418,4.84130859 C314.379883,3.96728516 315.229492,3.28369141 316.333008,2.79052734 C317.436523,2.29736328 318.720703,2.05078125 320.185547,2.05078125 C321.083984,2.05078125 321.914062,2.12646484 322.675781,2.27783203 C323.4375,2.42919922 324.228516,2.62207031 325.048828,2.85644531 C325.478516,2.98339844 325.825195,3.07128906 326.088867,3.12011719 L325.898438,8.14453125 L323.935547,8.14453125 L323.261719,4.58496094 C323.076172,4.37988281 322.685547,4.19189453 322.089844,4.02099609 C321.494141,3.85009766 320.849609,3.76464844 320.15625,3.76464844 C317.519531,3.76464844 316.201172,4.82910156 316.201172,6.95800781 C316.201172,7.70019531 316.401367,8.33496094 316.801758,8.86230469 C317.202148,9.38964844 317.734375,9.85595703 318.398438,10.2612305 C319.0625,10.6665039 320.043945,11.1865234 321.342773,11.8212891 C322.631836,12.4560547 323.686523,13.0371094 324.506836,13.5644531 C325.327148,14.0917969 326.030273,14.7631836 326.616211,15.5786133 C327.202148,16.394043 327.495117,17.3583984 327.495117,18.4716797 C327.495117,19.5458984 327.194824,20.5786133 326.594238,21.5698242 C325.993652,22.5610352 325.090332,23.3691406 323.884277,23.9941406 C322.678223,24.6191406 321.21582,24.9316406 319.49707,24.9316406 C318.442383,24.9316406 317.480469,24.8364258 316.611328,24.6459961 C315.742188,24.4555664 314.838867,24.2089844 313.901367,23.90625 C313.256836,23.7011719 312.832031,23.5888672 312.626953,23.5693359 L312.875977,18.1494141 Z" id="Path"></path>
            <path d="M337.807617,7.48535156 C339.506836,7.48535156 340.922852,7.86132812 342.055664,8.61328125 C343.188477,9.36523438 344.02832,10.3979492 344.575195,11.7114258 C345.12207,13.0249023 345.395508,14.5263672 345.395508,16.2158203 C345.395508,18.0224609 345.021973,19.5849609 344.274902,20.9033203 C343.527832,22.2216797 342.546387,23.2226562 341.330566,23.90625 C340.114746,24.5898438 338.818359,24.9316406 337.441406,24.9316406 C335.742188,24.9316406 334.328613,24.5556641 333.200684,23.8037109 C332.072754,23.0517578 331.235352,22.019043 330.688477,20.7055664 C330.141602,19.3920898 329.868164,17.890625 329.868164,16.2011719 C329.868164,14.4140625 330.241699,12.8613281 330.98877,11.5429688 C331.73584,10.2246094 332.717285,9.21875 333.933105,8.52539062 C335.148926,7.83203125 336.44043,7.48535156 337.807617,7.48535156 Z M341.689453,16.4794922 C341.689453,14.2822266 341.364746,12.5366211 340.715332,11.2426758 C340.065918,9.94873047 339.038086,9.30175781 337.631836,9.30175781 C336.28418,9.30175781 335.268555,9.85595703 334.584961,10.9643555 C333.901367,12.0727539 333.55957,13.7304688 333.55957,15.9375 C333.55957,18.1347656 333.88916,19.8803711 334.54834,21.1743164 C335.20752,22.4682617 336.235352,23.1152344 337.631836,23.1152344 C340.336914,23.1152344 341.689453,20.9033203 341.689453,16.4794922 Z" id="Shape"></path>
            <polygon id="Path" points="349.995117 22.7490234 349.995117 2.31445312 347.592773 2.02148438 347.592773 0.629882812 352.587891 0 352.617188 0 353.334961 0.498046875 353.334961 22.7490234 355.825195 22.9980469 355.825195 24.5947266 347.62207 24.5947266 347.62207 22.9980469"></polygon>
            <path d="M369.931641,22.6025391 C369.306641,23.2080078 368.515625,23.7475586 367.558594,24.2211914 C366.601562,24.6948242 365.634766,24.9316406 364.658203,24.9316406 C363.4375,24.9316406 362.446289,24.7143555 361.68457,24.2797852 C360.922852,23.8452148 360.361328,23.1542969 360,22.2070312 C359.638672,21.2597656 359.458008,20.0097656 359.458008,18.4570312 L359.458008,9.9609375 L357.832031,9.41894531 L357.832031,7.99804688 L362.167969,7.55859375 L362.182617,7.55859375 L362.797852,7.95410156 L362.797852,18.2958984 C362.797852,19.4091797 362.880859,20.2783203 363.046875,20.9033203 C363.212891,21.5283203 363.505859,21.9848633 363.925781,22.2729492 C364.345703,22.5610352 364.951172,22.7050781 365.742188,22.7050781 C366.503906,22.7050781 367.211914,22.5585938 367.866211,22.265625 C368.520508,21.9726562 369.086914,21.6357422 369.56543,21.2548828 L369.56543,9.97558594 L367.470703,9.40429688 L367.470703,7.98339844 L372.099609,7.55859375 L372.128906,7.55859375 L372.905273,7.95410156 L372.905273,22.9394531 L374.663086,22.9394531 L374.663086,24.4042969 C374.09668,24.5703125 373.605957,24.699707 373.190918,24.7924805 C372.775879,24.8852539 372.299805,24.9316406 371.762695,24.9316406 C371.137695,24.9316406 370.67627,24.8120117 370.378418,24.5727539 C370.080566,24.3334961 369.931641,23.9306641 369.931641,23.3642578 L369.931641,22.6025391 Z" id="Path"></path>
            <path d="M376.757812,10.0341797 L376.757812,8.64257812 C377.03125,8.57421875 377.346191,8.4765625 377.702637,8.34960938 C378.059082,8.22265625 378.291016,8.125 378.398438,8.05664062 C378.720703,7.82226562 378.984375,7.44140625 379.189453,6.9140625 C379.335938,6.58203125 379.528809,6.05224609 379.768066,5.32470703 C380.007324,4.59716797 380.170898,4.04785156 380.258789,3.67675781 L382.163086,3.67675781 L382.192383,7.93945312 L387.114258,7.93945312 L387.114258,10.0341797 L382.207031,10.0341797 L382.207031,18.8964844 C382.207031,20.0878906 382.241211,20.9155273 382.30957,21.3793945 C382.37793,21.8432617 382.51709,22.1411133 382.727051,22.2729492 C382.937012,22.4047852 383.320312,22.4707031 383.876953,22.4707031 L383.891602,22.4707031 C384.399414,22.4707031 384.973145,22.4072266 385.612793,22.2802734 C386.252441,22.1533203 386.748047,22.0214844 387.099609,21.8847656 L387.114258,21.8847656 L387.612305,23.3056641 C387.319336,23.5498047 386.879883,23.7963867 386.293945,24.0454102 C385.708008,24.2944336 385.078125,24.5019531 384.404297,24.6679688 C383.730469,24.8339844 383.110352,24.9169922 382.543945,24.9169922 L382.514648,24.9169922 C381.303711,24.9169922 380.390625,24.6508789 379.775391,24.1186523 C379.160156,23.5864258 378.852539,22.6953125 378.852539,21.4453125 L378.852539,10.0341797 L376.757812,10.0341797 Z" id="Path"></path>
            <path d="M391.508789,22.7490234 L391.508789,10.4736328 L389.384766,9.87304688 L389.384766,8.14453125 L394.042969,7.54394531 L394.116211,7.54394531 L394.863281,8.11523438 L394.863281,22.7490234 L397.207031,22.9980469 L397.207031,24.5947266 L389.135742,24.5947266 L389.135742,22.9980469 L391.508789,22.7490234 Z M390.908203,2.78320312 C390.908203,2.11914062 391.101074,1.55761719 391.486816,1.09863281 C391.872559,0.639648438 392.412109,0.41015625 393.105469,0.41015625 L393.120117,0.41015625 C393.530273,0.41015625 393.886719,0.505371094 394.189453,0.695800781 C394.492188,0.886230469 394.724121,1.13769531 394.885254,1.45019531 C395.046387,1.76269531 395.126953,2.09472656 395.126953,2.44628906 C395.126953,3.12988281 394.931641,3.69140625 394.541016,4.13085938 C394.150391,4.5703125 393.583984,4.79003906 392.841797,4.79003906 L392.827148,4.79003906 C392.260742,4.79003906 391.799316,4.59960938 391.442871,4.21875 C391.086426,3.83789062 390.908203,3.359375 390.908203,2.78320312 Z" id="Shape"></path>
            <path d="M407.124023,7.48535156 C408.823242,7.48535156 410.239258,7.86132812 411.37207,8.61328125 C412.504883,9.36523438 413.344727,10.3979492 413.891602,11.7114258 C414.438477,13.0249023 414.711914,14.5263672 414.711914,16.2158203 C414.711914,18.0224609 414.338379,19.5849609 413.591309,20.9033203 C412.844238,22.2216797 411.862793,23.2226562 410.646973,23.90625 C409.431152,24.5898438 408.134766,24.9316406 406.757812,24.9316406 C405.058594,24.9316406 403.64502,24.5556641 402.51709,23.8037109 C401.38916,23.0517578 400.551758,22.019043 400.004883,20.7055664 C399.458008,19.3920898 399.18457,17.890625 399.18457,16.2011719 C399.18457,14.4140625 399.558105,12.8613281 400.305176,11.5429688 C401.052246,10.2246094 402.033691,9.21875 403.249512,8.52539062 C404.465332,7.83203125 405.756836,7.48535156 407.124023,7.48535156 Z M411.005859,16.4794922 C411.005859,14.2822266 410.681152,12.5366211 410.031738,11.2426758 C409.382324,9.94873047 408.354492,9.30175781 406.948242,9.30175781 C405.600586,9.30175781 404.584961,9.85595703 403.901367,10.9643555 C403.217773,12.0727539 402.875977,13.7304688 402.875977,15.9375 C402.875977,18.1347656 403.205566,19.8803711 403.864746,21.1743164 C404.523926,22.4682617 405.551758,23.1152344 406.948242,23.1152344 C409.65332,23.1152344 411.005859,20.9033203 411.005859,16.4794922 Z" id="Shape"></path>
            <path d="M419.282227,22.7490234 L419.282227,10.4736328 L417.1875,9.88769531 L417.1875,8.12988281 L421.523438,7.54394531 L421.59668,7.54394531 L422.285156,8.11523438 L422.285156,9.30175781 L422.270508,9.97558594 C422.719727,9.57519531 423.283691,9.18945312 423.962402,8.81835938 C424.641113,8.44726562 425.368652,8.14453125 426.14502,7.91015625 C426.921387,7.67578125 427.65625,7.55859375 428.349609,7.55859375 C429.619141,7.55859375 430.600586,7.79541016 431.293945,8.26904297 C431.987305,8.74267578 432.470703,9.47265625 432.744141,10.4589844 C433.017578,11.4453125 433.154297,12.7832031 433.154297,14.4726562 L433.154297,22.7490234 L435.263672,22.9980469 L435.263672,24.5947266 L427.910156,24.5947266 L427.910156,22.9980469 L429.785156,22.7490234 L429.785156,14.4580078 C429.785156,13.3251953 429.709473,12.434082 429.558105,11.784668 C429.406738,11.1352539 429.121094,10.6469727 428.701172,10.3198242 C428.28125,9.99267578 427.661133,9.82910156 426.84082,9.82910156 C426.137695,9.82910156 425.405273,9.98046875 424.643555,10.2832031 C423.881836,10.5859375 423.212891,10.9521484 422.636719,11.3818359 L422.636719,22.7490234 L424.658203,22.9980469 L424.658203,24.5947266 L417.363281,24.5947266 L417.363281,22.9980469 L419.282227,22.7490234 Z" id="Path"></path>
            <path d="M439.819336,19.8339844 L440.405273,22.0605469 C440.522461,22.265625 440.749512,22.4609375 441.086426,22.6464844 C441.42334,22.8320312 441.821289,22.9833984 442.280273,23.1005859 C442.739258,23.2177734 443.208008,23.2763672 443.686523,23.2763672 C444.790039,23.2763672 445.576172,23.0688477 446.044922,22.6538086 C446.513672,22.2387695 446.748047,21.6699219 446.748047,20.9472656 C446.748047,20.4394531 446.589355,19.9926758 446.271973,19.6069336 C445.95459,19.2211914 445.483398,18.8574219 444.858398,18.515625 C444.233398,18.1738281 443.383789,17.7880859 442.30957,17.3583984 C440.756836,16.7529297 439.624023,16.0375977 438.911133,15.2124023 C438.198242,14.387207 437.841797,13.3203125 437.841797,12.0117188 C437.841797,11.1328125 438.10791,10.3588867 438.640137,9.68994141 C439.172363,9.02099609 439.902344,8.50097656 440.830078,8.12988281 C441.757812,7.75878906 442.802734,7.57324219 443.964844,7.57324219 C444.863281,7.57324219 445.654297,7.64404297 446.337891,7.78564453 C447.021484,7.92724609 447.709961,8.11035156 448.40332,8.33496094 L448.930664,8.49609375 L448.930664,12.2021484 L447.055664,12.2021484 L446.425781,10.1513672 C446.308594,9.89746094 445.993652,9.67773438 445.480957,9.4921875 C444.968262,9.30664062 444.394531,9.21386719 443.759766,9.21386719 C442.861328,9.21386719 442.167969,9.40429688 441.679688,9.78515625 C441.191406,10.1660156 440.947266,10.6640625 440.947266,11.2792969 C440.947266,11.8261719 441.091309,12.2851562 441.379395,12.65625 C441.66748,13.0273438 442.026367,13.3300781 442.456055,13.5644531 C442.885742,13.7988281 443.486328,14.0771484 444.257812,14.3994141 L444.829102,14.6484375 C445.942383,15.1269531 446.845703,15.5761719 447.539062,15.9960938 C448.232422,16.4160156 448.808594,16.953125 449.267578,17.6074219 C449.726562,18.2617188 449.956055,19.0625 449.956055,20.0097656 C449.956055,20.9863281 449.699707,21.8457031 449.187012,22.5878906 C448.674316,23.3300781 447.932129,23.90625 446.960449,24.3164062 C445.98877,24.7265625 444.838867,24.9316406 443.510742,24.9316406 C442.514648,24.9316406 441.469727,24.7949219 440.375977,24.5214844 C439.282227,24.2480469 438.408203,23.9648438 437.753906,23.671875 L437.753906,19.8339844 L439.819336,19.8339844 Z" id="Path"></path>
        </g>
    </g>
</svg>