<?xml version="1.0" encoding="UTF-8"?>
<svg width="64px" height="64px" viewBox="0 0 64 64" version="1.1" xmlns="http://www.w3.org/2000/svg" xmlns:xlink="http://www.w3.org/1999/xlink">
    <title>logo/ecm/color-dark/icon/ecm-logo-color-dark-icon</title>
    <g id="logo/ecm/color-dark/icon/ecm-logo-color-dark-icon" stroke="none" stroke-width="1" fill="none" fill-rule="evenodd">
        <g id="Group">
            <path d="M32,64.0002 C14.327,64.0002 0,49.6732 0,32.0002 C0,14.3272 14.327,0.0002 32,0.0002 C49.673,0.0002 64,14.3272 64,32.0002 C64,49.6732 49.673,64.0002 32,64.0002 Z" id="circle" fill="#083C6F"></path>
            <path d="M31.9999861,6 L37.9016908,24.3344451 L57,24.3344451 L41.5491406,35.6655549 L47.4508454,54 L31.9999861,42.6688903 L16.5491267,54 L21.9716594,37.1542912 L34.0295682,33.1996155 L26.5774533,22.8459902 L31.9999861,6 Z M24.5476203,24.334417 L29.9704318,31.8681376 L21.1964823,34.7460048 L7,24.334417 L24.5476203,24.334417 Z" id="icon" fill="#F5EA14"></path>
        </g>
    </g>
</svg>