<?xml version="1.0" encoding="UTF-8"?>
<svg width="163px" height="64px" viewBox="0 0 163 64" version="1.1" xmlns="http://www.w3.org/2000/svg" xmlns:xlink="http://www.w3.org/1999/xlink">
    <title>logo/teic/white/short/teic-logo-white-short</title>
    <g id="logo/teic/white/short/teic-logo-white-short" stroke="none" stroke-width="1" fill="none" fill-rule="evenodd">
        <g id="TEI" transform="translate(72.750000, 14.328125)" fill="#FFFFFF" fill-rule="nonzero">
            <polygon id="Path" points="12.9609375 32.5546875 12.9609375 2.7890625 5.15625 3.0234375 3.3984375 12.8203125 0 12.8203125 0.8203125 0 30.4921875 0 31.2421875 12.8203125 27.890625 12.8203125 26.109375 3.0234375 18.609375 2.7890625 18.609375 32.5546875 25.2421875 33.1171875 25.2421875 35.671875 6.84375 35.671875 6.84375 33.1171875"></polygon>
            <polygon id="Path" points="38.5078125 32.5546875 38.5078125 3.1875 34.640625 2.6015625 34.640625 0 59.0625 0 59.71875 7.4296875 56.6953125 7.4296875 55.2421875 2.9765625 44.015625 2.671875 44.015625 15.9140625 51.6328125 15.7734375 52.3359375 11.8828125 55.359375 11.8828125 55.359375 22.9921875 52.3359375 22.9921875 51.65625 18.8671875 44.015625 18.75 44.015625 32.765625 56.90625 32.25 59.5546875 26.3671875 62.5546875 27.2578125 61.171875 35.671875 34.5703125 35.671875 34.5703125 33.1171875"></polygon>
            <polygon id="Path" points="70.6171875 32.5546875 70.6171875 3.2109375 66.328125 2.6015625 66.328125 0 80.4375 0 80.4375 2.6015625 76.1484375 3.1875 76.1484375 32.5546875 80.5078125 33.1875 80.5078125 35.671875 66.328125 35.671875 66.328125 33.1171875"></polygon>
        </g>
        <path d="M32,0 C49.673,0 64,14.327 64,32 C64,49.673 49.673,64 32,64 C14.327,64 0,49.673 0,32 C0,14.327 14.327,0 32,0 Z M48,15.9998 L16,15.9998 L16,35.9996571 L16.0039082,36.3572004 C16.1391574,42.5382353 19.7725709,47.8550794 24.9994483,50.3994242 L24.9994483,50.3994242 L24.9998,27.9994 L27.9998,27.9994 L27.999086,51.5013411 C28.8098651,51.7091785 29.645491,51.8548516 30.5006061,51.9329926 L30.5006061,51.9329926 L30.5,27.9998 L33.5,27.9998 L33.5006727,51.9273098 C34.3545898,51.8460517 35.1894556,51.6975352 35.9998126,51.4871108 L35.9998126,51.4871108 L35.9998,27.9994 L38.9998,27.9994 L38.9991611,50.3764932 L39.2695573,50.2410268 C44.4430835,47.5877326 48,42.2065531 48,35.9996571 L48,35.9996571 L48,15.9998 Z M40.145448,23.9994 C42.8224652,23.9994 44.9998,26.2418242 44.9998,28.9988684 C44.9998,31.7569758 42.8224652,33.9994 40.145448,33.9994 L40.145448,33.9994 L40.145448,31.0605377 L40.294471,31.054871 C41.3278507,30.976006 42.1462422,30.0838328 42.1462422,28.9988684 C42.1462422,27.8633022 41.2480529,26.937199 40.145448,26.937199 L40.145448,26.937199 L23.8551844,26.937199 L23.7058924,26.942872 C22.6707169,27.021823 21.8523254,27.9149188 21.8523254,28.9988684 C21.8523254,30.1354978 22.7505147,31.0605377 23.8551844,31.0605377 L23.8551844,31.0605377 L23.8551844,33.9994 L23.6448302,33.9947727 C21.0640461,33.8810206 18.9998,31.684394 18.9998,28.9988684 C18.9998,26.2418242 21.1771348,23.9994 23.8551844,23.9994 L23.8551844,23.9994 Z" id="icon" fill="#FFFFFF" fill-rule="nonzero"></path>
    </g>
</svg>