<?xml version="1.0" encoding="UTF-8"?>
<svg width="64px" height="64px" viewBox="0 0 64 64" version="1.1" xmlns="http://www.w3.org/2000/svg" xmlns:xlink="http://www.w3.org/1999/xlink">
    <title>logo/eac/color-light/icon/eac-logo-color-light-icon</title>
    <g id="logo/eac/color-light/icon/eac-logo-color-light-icon" stroke="none" stroke-width="1" fill="none" fill-rule="evenodd">
        <g id="mark/eac">
            <path d="M32,64.0002 C14.327,64.0002 0,49.6732 0,32.0002 C0,14.3272 14.327,0.0002 32,0.0002 C49.673,0.0002 64,14.3272 64,32.0002 C64,49.6732 49.673,64.0002 32,64.0002 Z" id="circle" fill="#0053A2" fill-rule="nonzero"></path>
            <path d="M50.7769,41.0042 L50.7769,41.6622 C50.7769,42.5542 50.0429,43.2872 49.1509,43.2872 L37.2449,43.2872 L38.1359,48.6382 L40.8639,48.6382 C41.8079,48.6382 41.7559,50.3682 40.8639,50.3682 L23.1359,50.3682 C22.2449,50.3682 22.2449,48.6382 23.1359,48.6382 L25.8639,48.6382 L26.7559,43.2872 L14.9019,43.2872 C13.9579,43.2872 13.2229,42.5542 13.2229,41.6622 L13.2229,41.0042 L50.7769,41.0042 Z M49.1509,16.5804 C50.0429,16.5804 50.7769,17.3134 50.7769,18.2584 L50.7769,38.6044 L13.2229,38.6044 L13.2229,18.2584 C13.2229,17.3134 13.9579,16.5804 14.9019,16.5804 L49.1509,16.5804 Z M32.2229,18.5804 C29.2314,18.5804 26.7979,21.0524014 26.7979,24.0907233 L26.7979,25.9598347 L25.6599,25.9598347 C24.8659,25.9598347 24.2229,26.6135158 24.2229,27.4195701 L24.2229,34.5804 C24.2229,35.3869622 24.8659,36.0401354 25.6599,36.0401354 L38.7859,36.0401354 C39.5789,36.0401354 40.2229,35.3869622 40.2229,34.5804 L40.2229,27.4195701 C40.2229,26.6135158 39.5789,25.9598347 38.7859,25.9598347 L37.6469,25.9598347 L37.6469,24.0907233 C37.6469,21.0524014 35.2139,18.5804 32.2229,18.5804 Z M32.2234055,21.5804 C33.8773229,21.5804 35.2229,22.9652154 35.2229,24.6667235 L35.2229,26.0804 L29.2229,26.0804 L29.2229,24.6667235 C29.2229,22.9652154 30.5689826,21.5804 32.2234055,21.5804 Z" id="icon" fill="#F5EA14"></path>
        </g>
    </g>
</svg>