<?xml version="1.0" encoding="UTF-8"?>
<svg width="64px" height="64px" viewBox="0 0 64 64" version="1.1" xmlns="http://www.w3.org/2000/svg" xmlns:xlink="http://www.w3.org/1999/xlink">
    <title>logo/teic/color-light/icon/teic-logo-color-light-icon</title>
    <g id="logo/teic/color-light/icon/teic-logo-color-light-icon" stroke="none" stroke-width="1" fill="none" fill-rule="evenodd">
        <g id="mark/tei">
            <path d="M32,64.0002 C14.327,64.0002 0,49.6732 0,32.0002 C0,14.3272 14.327,0.0002 32,0.0002 C49.673,0.0002 64,14.3272 64,32.0002 C64,49.6732 49.673,64.0002 32,64.0002 Z" id="circle" fill="#0053A2" fill-rule="nonzero"></path>
            <path d="M48,16 L48,35.9998571 C48,42.2067531 44.4430835,47.5879326 39.2695573,50.2412268 L38.9991611,50.3766932 L38.9991611,50.3766932 L38.9998,27.9996 L35.9998,27.9996 L35.9998126,51.4873108 C35.1894556,51.6977352 34.3545898,51.8462517 33.5006727,51.9275098 L33.5,28 L30.5,28 L30.5006061,51.9331926 C29.645491,51.8550516 28.8098651,51.7093785 27.999086,51.5015411 L27.9998,27.9996 L24.9998,27.9996 L24.9994483,50.3996242 C19.672054,47.8063497 16,42.3329159 16,35.9998571 L16,35.9998571 L16,16 L48,16 Z M40.145448,23.9996 L23.8551844,23.9996 C21.1771348,23.9996 18.9998,26.2420242 18.9998,28.9990684 C18.9998,31.7571758 21.1771348,33.9996 23.8551844,33.9996 L23.8551844,33.9996 L23.8551844,31.0607377 C22.7505147,31.0607377 21.8523254,30.1356978 21.8523254,28.9990684 C21.8523254,27.8635022 22.7505147,26.937399 23.8551844,26.937399 L23.8551844,26.937399 L40.145448,26.937399 C41.2480529,26.937399 42.1462422,27.8635022 42.1462422,28.9990684 C42.1462422,30.1356978 41.2480529,31.0607377 40.145448,31.0607377 L40.145448,31.0607377 L40.145448,33.9996 C42.8224652,33.9996 44.9998,31.7571758 44.9998,28.9990684 C44.9998,26.2420242 42.8224652,23.9996 40.145448,23.9996 L40.145448,23.9996 Z" id="icon" fill="#F5EA14"></path>
        </g>
    </g>
</svg>