<?xml version="1.0" encoding="UTF-8"?>
<svg width="64px" height="64px" viewBox="0 0 64 64" version="1.1" xmlns="http://www.w3.org/2000/svg" xmlns:xlink="http://www.w3.org/1999/xlink">
    <title>logo/digital/color-light/icon/digital-logo-color-light-icon</title>
    <g id="logo/digital/color-light/icon/digital-logo-color-light-icon" stroke="none" stroke-width="1" fill="none" fill-rule="evenodd">
        <g id="mark/digital">
            <path d="M32,64.0002 C14.327,64.0002 0,49.6732 0,32.0002 C0,14.3272 14.327,0.0002 32,0.0002 C49.673,0.0002 64,14.3272 64,32.0002 C64,49.6732 49.673,64.0002 32,64.0002 Z" id="circle" fill="#0053A2" fill-rule="nonzero"></path>
            <path d="M49.1509,16.5798 C50.0429,16.5798 50.7769,17.3138 50.7769,18.2588 L50.7759,41.0028 L50.7769,41.0037 L50.7769,41.6617 C50.7769,42.5537 50.0429,43.2877 49.1509,43.2877 L37.2449,43.2877 L38.1359,48.6377 L40.8639,48.6377 C41.8079,48.6377 41.7559,50.3687 40.8639,50.3687 L23.1359,50.3687 C22.2449,50.3687 22.2449,48.6377 23.1359,48.6377 L25.8639,48.6377 L26.7559,43.2877 L14.9019,43.2877 C13.9579,43.2877 13.2229,42.5537 13.2229,41.6617 L13.2229,18.2588 C13.2229,17.3138 13.9579,16.5798 14.9019,16.5798 L49.1509,16.5798 Z M36.1294381,20.9179269 L36.1294381,24.0885734 L36.3437414,24.2447769 C38.1051845,25.5782032 39.2491737,27.6979598 39.2491737,30.0844369 C39.2491737,34.1124795 35.9972278,37.3889575 32,37.3889575 C28.0027722,37.3889575 24.7508263,34.1124795 24.7508263,30.0844369 C24.7508263,27.6025007 25.9886982,25.4090494 27.871095,24.0880362 L27.871095,24.0880362 L27.871095,20.9179269 L27.6072381,21.0438043 C24.2917005,22.6856407 22,26.1172786 22,30.0844369 C22,35.6408579 26.4860859,40.1609901 32,40.1609901 C37.5139141,40.1609901 42,35.6408579 42,30.0844369 C42,26.0128797 39.5860966,22.5059362 36.1294381,20.9179269 L36.1294381,20.9179269 Z M33.481288,18.5 L30.481288,18.5 L30.481288,29.5 L33.481288,29.5 L33.481288,18.5 Z" id="icon" fill="#F5EA14"></path>
        </g>
    </g>
</svg>