<?xml version="1.0" encoding="UTF-8"?>
<svg width="64px" height="64px" viewBox="0 0 64 64" version="1.1" xmlns="http://www.w3.org/2000/svg" xmlns:xlink="http://www.w3.org/1999/xlink">
    <title>logo/eih/color-light/icon/eih-logo-color-light-icon</title>
    <g id="logo/eih/color-light/icon/eih-logo-color-light-icon" stroke="none" stroke-width="1" fill="none" fill-rule="evenodd">
        <g id="mark/eih">
            <path d="M64,32 C64,49.672429 49.672429,64 32,64 C14.3262845,64 0,49.672429 0,32 C0,14.3262845 14.3262845,0 32,0 C49.672429,0 64,14.3262845 64,32 Z" id="circle" fill="#0053A2" fill-rule="nonzero"></path>
            <path d="M48,16 L48,35.9998571 C48,44.8367938 40.790117,52 31.9698894,52 C23.1496618,52 16,44.8367938 16,35.9998571 L16,35.9998571 L16,16 L48,16 Z M25.686,21 C21.987,23.168 19.5,27.186 19.5,31.778 C19.5,36.792 22.449,41.118 26.713,43.101 L27.751,39.094 C25.234,37.912 23.487,35.241 23.487,32.148 C23.487,30.515 23.97,29.004 24.802,27.771 L30.289,35.95 L33.608,35.95 L39.094,27.771 C39.926,29.004 40.409,30.525 40.409,32.148 C40.409,35.036 38.889,37.543 36.649,38.837 L37.707,42.885 C41.735,40.81 44.478,36.618 44.478,31.778 C44.478,27.206 42.022,23.22 38.365,21.041 L31.994,30.874 L25.686,21 Z" id="icon" fill="#F5EA14"></path>
        </g>
    </g>
</svg>