<?xml version="1.0" encoding="UTF-8"?>
<svg width="239px" height="64px" viewBox="0 0 239 64" version="1.1" xmlns="http://www.w3.org/2000/svg" xmlns:xlink="http://www.w3.org/1999/xlink">
    <title>logo/digital/color-dark/short/digital-logo-color-dark-short</title>
    <g id="logo/digital/color-dark/short/digital-logo-color-dark-short" stroke="none" stroke-width="1" fill="none" fill-rule="evenodd">
        <g id="Digital" transform="translate(74.226562, 10.648438)" fill="#000000">
            <path d="M3.9609375,36.234375 L3.9609375,6.890625 L0.2578125,6.28125 L0.2578125,3.6796875 L6.515625,3.6796875 C7.296875,3.6796875 8.12109375,3.65625 8.98828125,3.609375 C9.85546875,3.5625 10.421875,3.53125 10.6875,3.515625 C12.53125,3.390625 13.953125,3.328125 14.953125,3.328125 C20.9375,3.328125 25.3867188,4.8203125 28.3007812,7.8046875 C31.2148438,10.7890625 32.671875,14.984375 32.671875,20.390625 C32.671875,24.1875 31.9296875,27.546875 30.4453125,30.46875 C28.9609375,33.390625 26.8789062,35.6640625 24.1992188,37.2890625 C21.5195312,38.9140625 18.4375,39.7265625 14.953125,39.7265625 C14.15625,39.7265625 12.8203125,39.6640625 10.9453125,39.5390625 C9.0078125,39.4140625 7.609375,39.3515625 6.75,39.3515625 L0,39.3515625 L0,36.796875 L3.9609375,36.234375 Z M9.4453125,36.46875 C10.1015625,36.640625 10.7851562,36.7578125 11.4960938,36.8203125 C12.2070312,36.8828125 13.0078125,36.9140625 13.8984375,36.9140625 L14.9765625,36.9140625 C17.2890625,36.8671875 19.3242188,36.2539062 21.0820312,35.0742188 C22.8398438,33.8945312 24.2148438,32.1523438 25.2070312,29.8476562 C26.1992188,27.5429688 26.6953125,24.7265625 26.6953125,21.3984375 C26.6953125,16.3515625 25.6171875,12.5390625 23.4609375,9.9609375 C21.3046875,7.3828125 18.0546875,6.09375 13.7109375,6.09375 C12.7578125,6.09375 11.578125,6.171875 10.171875,6.328125 L9.4453125,6.3984375 L9.4453125,36.46875 Z" id="Shape"></path>
            <path d="M39.984375,36.3984375 L39.984375,16.7578125 L36.5859375,15.796875 L36.5859375,13.03125 L44.0390625,12.0703125 L44.15625,12.0703125 L45.3515625,12.984375 L45.3515625,36.3984375 L49.1015625,36.796875 L49.1015625,39.3515625 L36.1875,39.3515625 L36.1875,36.796875 L39.984375,36.3984375 Z M39.0234375,4.453125 C39.0234375,3.390625 39.3320312,2.4921875 39.9492188,1.7578125 C40.5664062,1.0234375 41.4296875,0.65625 42.5390625,0.65625 L42.5625,0.65625 C43.21875,0.65625 43.7890625,0.80859375 44.2734375,1.11328125 C44.7578125,1.41796875 45.1289062,1.8203125 45.3867188,2.3203125 C45.6445312,2.8203125 45.7734375,3.3515625 45.7734375,3.9140625 C45.7734375,5.0078125 45.4609375,5.90625 44.8359375,6.609375 C44.2109375,7.3125 43.3046875,7.6640625 42.1171875,7.6640625 L42.09375,7.6640625 C41.1875,7.6640625 40.4492188,7.359375 39.8789062,6.75 C39.3085938,6.140625 39.0234375,5.375 39.0234375,4.453125 Z" id="Shape"></path>
            <path d="M64.03125,29.859375 C62.75,29.859375 61.5546875,29.7265625 60.4453125,29.4609375 C60.0078125,29.8515625 59.6640625,30.3007812 59.4140625,30.8085938 C59.1640625,31.3164062 59.0390625,31.8359375 59.0390625,32.3671875 C59.0390625,33.1484375 59.2226562,33.7460938 59.5898438,34.1601562 C59.9570312,34.5742188 60.5117188,34.859375 61.2539062,35.015625 C61.9960938,35.171875 63.015625,35.25 64.3125,35.25 L69.421875,35.25 C75.53125,35.25 78.5859375,37.59375 78.5859375,42.28125 C78.5859375,44.09375 77.9414062,45.765625 76.6523438,47.296875 C75.3632812,48.828125 73.640625,50.0429688 71.484375,50.9414062 C69.328125,51.8398438 67.015625,52.2890625 64.546875,52.2890625 L64.5234375,52.2890625 C60.3359375,52.2890625 57.296875,51.6523438 55.40625,50.3789062 C53.515625,49.1054688 52.5703125,47.3046875 52.5703125,44.9765625 C52.5703125,43.5234375 52.9960938,42.2070312 53.8476562,41.0273438 C54.6992188,39.8476562 55.7265625,38.953125 56.9296875,38.34375 C55.4140625,37.484375 54.65625,36.171875 54.65625,34.40625 C54.65625,33.234375 54.9921875,32.1523438 55.6640625,31.1601562 C56.3359375,30.1679688 57.21875,29.3671875 58.3125,28.7578125 C56.75,28.0390625 55.5507812,27.0195312 54.7148438,25.6992188 C53.8789062,24.3789062 53.4609375,22.8359375 53.4609375,21.0703125 C53.4609375,19.2265625 53.984375,17.6171875 55.03125,16.2421875 C56.078125,14.8671875 57.453125,13.8164062 59.15625,13.0898438 C60.859375,12.3632812 62.6796875,11.9921875 64.6171875,11.9765625 L64.640625,11.9765625 C66.328125,11.9765625 67.84375,12.1679688 69.1875,12.5507812 C70.53125,12.9335938 71.6640625,13.5 72.5859375,14.25 C73.0546875,13.703125 73.7578125,13.1796875 74.6953125,12.6796875 C75.6328125,12.1796875 76.734375,11.9296875 78,11.9296875 L79.265625,11.9296875 L79.265625,16.4765625 L74.34375,16.4765625 C74.890625,17.6171875 75.1640625,18.875 75.1640625,20.25 C75.1640625,22.125 74.6796875,23.7929688 73.7109375,25.2539062 C72.7421875,26.7148438 71.4140625,27.8476562 69.7265625,28.6523438 C68.0390625,29.4570312 66.1484375,29.859375 64.0546875,29.859375 L64.03125,29.859375 Z M64.3125,14.71875 C62.625,14.71875 61.3164062,15.1757812 60.3867188,16.0898438 C59.4570312,17.0039062 58.9921875,18.5 58.9921875,20.578125 C58.9921875,22.546875 59.4335938,24.1210938 60.3164062,25.3007812 C61.1992188,26.4804688 62.609375,27.0703125 64.546875,27.0703125 L64.5703125,27.0703125 C66.3515625,27.0703125 67.6445312,26.5390625 68.4492188,25.4765625 C69.2539062,24.4140625 69.65625,22.859375 69.65625,20.8125 C69.65625,18.71875 69.2226562,17.1796875 68.3554688,16.1953125 C67.4882812,15.2109375 66.1484375,14.71875 64.3359375,14.71875 L64.3125,14.71875 Z M59.3203125,39.1640625 C58.3203125,40.3984375 57.8203125,41.875 57.8203125,43.59375 C57.8203125,45.46875 58.375,46.890625 59.484375,47.859375 C60.59375,48.828125 62.4140625,49.3125 64.9453125,49.3125 L64.9921875,49.3125 C66.3984375,49.3125 67.7421875,49.09375 69.0234375,48.65625 C70.3046875,48.21875 71.34375,47.5703125 72.140625,46.7109375 C72.9375,45.8515625 73.3359375,44.828125 73.3359375,43.640625 C73.3359375,42.625 73.1835938,41.8242188 72.8789062,41.2382812 C72.5742188,40.6523438 72.015625,40.2109375 71.203125,39.9140625 C70.390625,39.6171875 69.2109375,39.46875 67.6640625,39.46875 L62.953125,39.46875 C61.671875,39.46875 60.4609375,39.3671875 59.3203125,39.1640625 Z" id="Shape"></path>
            <path d="M85.40625,36.3984375 L85.40625,16.7578125 L82.0078125,15.796875 L82.0078125,13.03125 L89.4609375,12.0703125 L89.578125,12.0703125 L90.7734375,12.984375 L90.7734375,36.3984375 L94.5234375,36.796875 L94.5234375,39.3515625 L81.609375,39.3515625 L81.609375,36.796875 L85.40625,36.3984375 Z M84.4453125,4.453125 C84.4453125,3.390625 84.7539062,2.4921875 85.3710938,1.7578125 C85.9882812,1.0234375 86.8515625,0.65625 87.9609375,0.65625 L87.984375,0.65625 C88.640625,0.65625 89.2109375,0.80859375 89.6953125,1.11328125 C90.1796875,1.41796875 90.5507812,1.8203125 90.8085938,2.3203125 C91.0664062,2.8203125 91.1953125,3.3515625 91.1953125,3.9140625 C91.1953125,5.0078125 90.8828125,5.90625 90.2578125,6.609375 C89.6328125,7.3125 88.7265625,7.6640625 87.5390625,7.6640625 L87.515625,7.6640625 C86.609375,7.6640625 85.8710938,7.359375 85.3007812,6.75 C84.7304688,6.140625 84.4453125,5.375 84.4453125,4.453125 Z" id="Shape"></path>
            <path d="M97.40625,16.0546875 L97.40625,13.828125 C97.84375,13.71875 98.3476562,13.5625 98.9179688,13.359375 C99.4882812,13.15625 99.859375,13 100.03125,12.890625 C100.546875,12.515625 100.96875,11.90625 101.296875,11.0625 C101.53125,10.53125 101.839844,9.68359375 102.222656,8.51953125 C102.605469,7.35546875 102.867188,6.4765625 103.007812,5.8828125 L106.054688,5.8828125 L106.101562,12.703125 L113.976562,12.703125 L113.976562,16.0546875 L106.125,16.0546875 L106.125,30.234375 C106.125,32.140625 106.179688,33.4648438 106.289062,34.2070312 C106.398438,34.9492188 106.621094,35.4257812 106.957031,35.6367188 C107.292969,35.8476562 107.90625,35.953125 108.796875,35.953125 L108.820312,35.953125 C109.632812,35.953125 110.550781,35.8515625 111.574219,35.6484375 C112.597656,35.4453125 113.390625,35.234375 113.953125,35.015625 L113.976562,35.015625 L114.773438,37.2890625 C114.304688,37.6796875 113.601562,38.0742188 112.664062,38.4726562 C111.726562,38.8710938 110.71875,39.203125 109.640625,39.46875 C108.5625,39.734375 107.570312,39.8671875 106.664062,39.8671875 L106.617188,39.8671875 C104.679688,39.8671875 103.21875,39.4414062 102.234375,38.5898438 C101.25,37.7382812 100.757812,36.3125 100.757812,34.3125 L100.757812,16.0546875 L97.40625,16.0546875 Z" id="Path"></path>
            <path d="M133.078125,21.9375 C133.078125,20.46875 132.925781,19.3125 132.621094,18.46875 C132.316406,17.625 131.789062,17.0078125 131.039062,16.6171875 C130.289062,16.2265625 129.226562,16.03125 127.851562,16.03125 C125.210938,16.03125 122.429688,16.7734375 119.507812,18.2578125 L119.484375,18.2578125 L118.3125,15.8203125 C118.734375,15.4453125 119.542969,14.9609375 120.738281,14.3671875 C121.933594,13.7734375 123.292969,13.2539062 124.816406,12.8085938 C126.339844,12.3632812 127.789062,12.140625 129.164062,12.140625 C131.445312,12.140625 133.238281,12.4492188 134.542969,13.0664062 C135.847656,13.6835938 136.789062,14.671875 137.367188,16.03125 C137.945312,17.390625 138.234375,19.2265625 138.234375,21.5390625 L138.234375,36.7734375 L141.09375,36.7734375 L141.09375,39.0703125 C138.8125,39.6171875 137.09375,39.890625 135.9375,39.890625 C135.28125,39.890625 134.78125,39.8359375 134.4375,39.7265625 C134.09375,39.6171875 133.839844,39.3945312 133.675781,39.0585938 C133.511719,38.7226562 133.429688,38.203125 133.429688,37.5 L133.429688,36.375 C132.585938,37.203125 131.476562,37.9960938 130.101562,38.7539062 C128.726562,39.5117188 127.1875,39.890625 125.484375,39.890625 C123.984375,39.890625 122.621094,39.6171875 121.394531,39.0703125 C120.167969,38.5234375 119.191406,37.6796875 118.464844,36.5390625 C117.738281,35.3984375 117.375,33.9765625 117.375,32.2734375 C117.375,30.1953125 118.097656,28.484375 119.542969,27.140625 C120.988281,25.796875 122.886719,24.8085938 125.238281,24.1757812 C127.589844,23.5429688 130.203125,23.203125 133.078125,23.15625 L133.078125,21.9375 Z M133.078125,25.8046875 C130.78125,25.8046875 128.894531,26.0664062 127.417969,26.5898438 C125.941406,27.1132812 124.871094,27.8046875 124.207031,28.6640625 C123.542969,29.5234375 123.210938,30.5 123.210938,31.59375 C123.210938,33.234375 123.617188,34.4375 124.429688,35.203125 C125.242188,35.96875 126.335938,36.3515625 127.710938,36.3515625 C128.445312,36.3515625 129.332031,36.1445312 130.371094,35.7304688 C131.410156,35.3164062 132.3125,34.8125 133.078125,34.21875 L133.078125,25.8046875 Z" id="Shape"></path>
            <polygon id="Path" points="147.796875 36.3984375 147.796875 3.703125 143.953125 3.234375 143.953125 1.0078125 151.945312 0 151.992188 0 153.140625 0.796875 153.140625 36.3984375 157.125 36.796875 157.125 39.3515625 144 39.3515625 144 36.796875"></polygon>
        </g>
        <g id="Group">
            <path d="M32,64.0002 C14.327,64.0002 0,49.6732 0,32.0002 C0,14.3272 14.327,0.0002 32,0.0002 C49.673,0.0002 64,14.3272 64,32.0002 C64,49.6732 49.673,64.0002 32,64.0002 Z" id="circle" fill="#083C6F"></path>
            <path d="M49.1509,16.5798 C50.0429,16.5798 50.7769,17.3138 50.7769,18.2588 L50.7759,41.0028 L50.7769,41.0037 L50.7769,41.6617 C50.7769,42.5537 50.0429,43.2877 49.1509,43.2877 L37.2449,43.2877 L38.1359,48.6377 L40.8639,48.6377 C41.8079,48.6377 41.7559,50.3687 40.8639,50.3687 L23.1359,50.3687 C22.2449,50.3687 22.2449,48.6377 23.1359,48.6377 L25.8639,48.6377 L26.7559,43.2877 L14.9019,43.2877 C13.9579,43.2877 13.2229,42.5537 13.2229,41.6617 L13.2229,18.2588 C13.2229,17.3138 13.9579,16.5798 14.9019,16.5798 L49.1509,16.5798 Z M36.1294381,20.9179269 L36.1294381,24.0885734 L36.3437414,24.2447769 C38.1051845,25.5782032 39.2491737,27.6979598 39.2491737,30.0844369 C39.2491737,34.1124795 35.9972278,37.3889575 32,37.3889575 C28.0027722,37.3889575 24.7508263,34.1124795 24.7508263,30.0844369 C24.7508263,27.6025007 25.9886982,25.4090494 27.871095,24.0880362 L27.871095,24.0880362 L27.871095,20.9179269 L27.6072381,21.0438043 C24.2917005,22.6856407 22,26.1172786 22,30.0844369 C22,35.6408579 26.4860859,40.1609901 32,40.1609901 C37.5139141,40.1609901 42,35.6408579 42,30.0844369 C42,26.0128797 39.5860966,22.5059362 36.1294381,20.9179269 L36.1294381,20.9179269 Z M33.481288,18.5 L30.481288,18.5 L30.481288,29.5 L33.481288,29.5 L33.481288,18.5 Z" id="icon" fill="#F5EA14"></path>
        </g>
    </g>
</svg>