<?xml version="1.0" encoding="UTF-8"?>
<svg width="250px" height="64px" viewBox="0 0 250 64" version="1.1" xmlns="http://www.w3.org/2000/svg" xmlns:xlink="http://www.w3.org/1999/xlink">
    <title>logo/hrc/white/long/hrc-logo-white-long</title>
    <g id="logo/hrc/white/long/hrc-logo-white-long" stroke="none" stroke-width="1" fill="none" fill-rule="evenodd">
        <path d="M32,0 C49.673,0 64,14.327 64,32 C64,49.674 49.673,64 32,64 C14.327,64 0,49.674 0,32 C0,14.327 14.327,0 32,0 Z M25.7686,36.8549 L12.9136,49.7099 L12.8582139,49.7750233 C12.6320444,50.0905978 12.852,50.5549 13.2636,50.5549 L13.2636,50.5549 L17.3936,50.5549 L17.7037612,50.5484263 C19.5599657,50.4708917 21.3239158,49.6995842 22.6436,48.3799 L22.6436,48.3799 L29.9686,41.0549 L25.7686,36.8549 Z M38.2315,36.8549 L34.0315,41.0549 L41.3565,48.3799 C42.7495,49.7729 44.6375,50.5549 46.6065,50.5549 L46.6065,50.5549 L50.7365,50.5549 C51.1775,50.5549 51.3985,50.0219 51.0855,49.7099 L51.0855,49.7099 L38.2315,36.8549 Z M16.5734,19.0829 L13.2634,19.0829 L13.1782261,19.0897833 C12.7953022,19.1529844 12.6222,19.6367 12.9134,19.9279 L12.9134,19.9279 L32.0004,39.0149 L51.0864,19.9279 L51.1417861,19.8627767 C51.3679556,19.5472022 51.148,19.0829 50.7364,19.0829 L50.7364,19.0829 L47.4264,19.0829 L47.1017173,19.0885021 C44.7255871,19.1705352 42.4637043,20.1505957 40.7764,21.8379 L40.7764,21.8379 L32.0004,30.6139 L23.2234,21.8379 L22.9899142,21.6122147 C21.2521221,19.9895994 18.9589652,19.0829 16.5734,19.0829 L16.5734,19.0829 Z M32.0004,10.6585 C28.9244,10.6585 26.4314,13.1515 26.4314,16.2265 C26.4314,19.3015 28.9244,21.7945 32.0004,21.7945 C35.0754,21.7945 37.5684,19.3015 37.5684,16.2265 C37.5684,13.1515 35.0754,10.6585 32.0004,10.6585 Z" id="icon" fill="#FFFFFF" fill-rule="nonzero"></path>
        <g id="HRConnect" transform="translate(76.464844, 20.470703)" fill="#FFFFFF" fill-rule="nonzero">
            <polygon id="Path" points="2.41699219 20.5810547 2.41699219 2.24121094 0.087890625 1.86035156 0.087890625 0.234375 8.37890625 0.234375 8.37890625 1.86035156 5.859375 2.2265625 5.859375 10.1367188 16.1132812 10.1367188 16.1132812 2.2265625 13.7109375 1.86035156 13.7109375 0.234375 21.8994141 0.234375 21.8994141 1.86035156 19.5556641 2.2265625 19.5556641 20.5957031 21.8994141 20.9326172 21.8994141 22.5292969 13.7255859 22.5292969 13.7255859 20.9326172 16.1132812 20.5957031 16.1132812 12.0703125 5.859375 12.0703125 5.859375 20.5810547 8.37890625 20.9326172 8.37890625 22.5292969 0 22.5292969 0 20.9326172"></polygon>
            <path d="M27.3046875,20.6103516 L27.3046875,2.21191406 L24.9902344,1.83105469 L24.9902344,0.234375 L29.0185547,0.234375 C29.4482422,0.234375 29.8974609,0.219726562 30.3662109,0.190429688 C30.8349609,0.161132812 31.1376953,0.141601562 31.2744141,0.131835938 C32.2705078,0.0537109375 33.0566406,0.0146484375 33.6328125,0.0146484375 C35.6054688,0.0146484375 37.1875,0.229492187 38.3789062,0.659179688 C39.5703125,1.08886719 40.4321289,1.73339844 40.9643555,2.59277344 C41.496582,3.45214844 41.7626953,4.55566406 41.7626953,5.90332031 C41.7626953,6.81152344 41.5893555,7.69287109 41.2426758,8.54736328 C40.8959961,9.40185547 40.3930664,10.1489258 39.7338867,10.7885742 C39.074707,11.4282227 38.2910156,11.8896484 37.3828125,12.1728516 C37.8027344,12.4169922 38.2177734,12.7954102 38.6279297,13.3081055 C39.0380859,13.8208008 39.4140625,14.3676758 39.7558594,14.9487305 C40.0976562,15.5297852 40.5175781,16.2792969 41.015625,17.1972656 C41.6015625,18.3007812 42.0727539,19.1235352 42.4291992,19.6655273 C42.7856445,20.2075195 43.1201172,20.5175781 43.4326172,20.5957031 L44.5751953,20.9472656 L44.5751953,22.5292969 L40.2392578,22.5292969 C39.9072266,22.5292969 39.543457,22.1826172 39.1479492,21.4892578 C38.7524414,20.7958984 38.2226562,19.7167969 37.5585938,18.2519531 C36.8652344,16.6992188 36.2695312,15.4736328 35.7714844,14.5751953 C35.2734375,13.6767578 34.7753906,13.0761719 34.2773438,12.7734375 C32.3339844,12.7734375 31.1523438,12.7587891 30.7324219,12.7294922 L30.7324219,20.6103516 L33.6181641,20.9326172 L33.6181641,22.5292969 L24.84375,22.5292969 L24.84375,20.9326172 L27.3046875,20.6103516 Z M34.0429688,11.0449219 C35.3027344,11.0449219 36.2817383,10.6347656 36.9799805,9.81445312 C37.6782227,8.99414062 38.0273438,7.76855469 38.0273438,6.13769531 C38.0273438,4.74121094 37.668457,3.65722656 36.9506836,2.88574219 C36.2329102,2.11425781 35,1.72851562 33.2519531,1.72851562 C32.5097656,1.72851562 31.8212891,1.77246094 31.1865234,1.86035156 L30.7324219,1.90429688 L30.7324219,11.015625 C31.0449219,11.0449219 31.5380859,11.0595703 32.2119141,11.0595703 L34.0429688,11.0449219 Z" id="Shape"></path>
            <path d="M45.4980469,11.3671875 C45.4980469,9.0625 45.9741211,7.05078125 46.9262695,5.33203125 C47.878418,3.61328125 49.1796875,2.29492188 50.8300781,1.37695312 C52.4804688,0.458984375 54.3261719,0 56.3671875,0 C57.3046875,0 58.2104492,0.068359375 59.0844727,0.205078125 C59.9584961,0.341796875 60.9472656,0.522460938 62.0507812,0.747070312 L62.8417969,0.908203125 L62.5634766,6.38671875 L60.3808594,6.38671875 L59.5605469,2.65136719 C59.3554688,2.37792969 58.9404297,2.16064453 58.3154297,1.99951172 C57.6904297,1.83837891 56.8701172,1.7578125 55.8544922,1.7578125 C54.6044922,1.7578125 53.4985352,2.11425781 52.5366211,2.82714844 C51.574707,3.54003906 50.8227539,4.59228516 50.2807617,5.98388672 C49.7387695,7.37548828 49.4677734,9.05273438 49.4677734,11.015625 C49.4677734,12.8320312 49.7094727,14.5043945 50.1928711,16.0327148 C50.6762695,17.5610352 51.4233398,18.7915039 52.434082,19.7241211 C53.4448242,20.6567383 54.7070312,21.1230469 56.2207031,21.1230469 C57.7929688,21.1230469 58.9208984,20.7617188 59.6044922,20.0390625 L60.8789062,16.9482422 L62.9589844,17.2265625 L62.3144531,21.7089844 C62.0507812,21.7285156 61.796875,21.7700195 61.5527344,21.8334961 C61.3085938,21.8969727 60.9912109,21.9970703 60.6005859,22.1337891 C59.9365234,22.3681641 59.3017578,22.5488281 58.6962891,22.6757812 C58.0908203,22.8027344 57.34375,22.8662109 56.4550781,22.8662109 C54.1308594,22.8662109 52.1484375,22.409668 50.5078125,21.496582 C48.8671875,20.5834961 47.6220703,19.2675781 46.7724609,17.5488281 C45.9228516,15.8300781 45.4980469,13.7695312 45.4980469,11.3671875 Z" id="Path"></path>
            <path d="M73.1835938,5.41992188 C74.8828125,5.41992188 76.2988281,5.79589844 77.4316406,6.54785156 C78.5644531,7.29980469 79.4042969,8.33251953 79.9511719,9.64599609 C80.4980469,10.9594727 80.7714844,12.4609375 80.7714844,14.1503906 C80.7714844,15.9570312 80.3979492,17.5195312 79.6508789,18.8378906 C78.9038086,20.15625 77.9223633,21.1572266 76.706543,21.8408203 C75.4907227,22.5244141 74.1943359,22.8662109 72.8173828,22.8662109 C71.1181641,22.8662109 69.7045898,22.4902344 68.5766602,21.7382812 C67.4487305,20.9863281 66.6113281,19.9536133 66.0644531,18.6401367 C65.5175781,17.3266602 65.2441406,15.8251953 65.2441406,14.1357422 C65.2441406,12.3486328 65.6176758,10.7958984 66.3647461,9.47753906 C67.1118164,8.15917969 68.0932617,7.15332031 69.309082,6.45996094 C70.5249023,5.76660156 71.8164062,5.41992188 73.1835938,5.41992188 Z M77.0654297,14.4140625 C77.0654297,12.2167969 76.7407227,10.4711914 76.0913086,9.17724609 C75.4418945,7.88330078 74.4140625,7.23632812 73.0078125,7.23632812 C71.6601562,7.23632812 70.6445312,7.79052734 69.9609375,8.89892578 C69.2773438,10.0073242 68.9355469,11.6650391 68.9355469,13.8720703 C68.9355469,16.0693359 69.2651367,17.8149414 69.9243164,19.1088867 C70.5834961,20.402832 71.6113281,21.0498047 73.0078125,21.0498047 C75.7128906,21.0498047 77.0654297,18.8378906 77.0654297,14.4140625 Z" id="Shape"></path>
            <path d="M85.3417969,20.6835938 L85.3417969,8.40820312 L83.2470703,7.82226562 L83.2470703,6.06445312 L87.5830078,5.47851562 L87.65625,5.47851562 L88.3447266,6.04980469 L88.3447266,7.23632812 L88.3300781,7.91015625 C88.7792969,7.50976562 89.3432617,7.12402344 90.0219727,6.75292969 C90.7006836,6.38183594 91.4282227,6.07910156 92.2045898,5.84472656 C92.980957,5.61035156 93.7158203,5.49316406 94.4091797,5.49316406 C95.6787109,5.49316406 96.6601562,5.72998047 97.3535156,6.20361328 C98.046875,6.67724609 98.5302734,7.40722656 98.8037109,8.39355469 C99.0771484,9.37988281 99.2138672,10.7177734 99.2138672,12.4072266 L99.2138672,20.6835938 L101.323242,20.9326172 L101.323242,22.5292969 L93.9697266,22.5292969 L93.9697266,20.9326172 L95.8447266,20.6835938 L95.8447266,12.3925781 C95.8447266,11.2597656 95.769043,10.3686523 95.6176758,9.71923828 C95.4663086,9.06982422 95.1806641,8.58154297 94.7607422,8.25439453 C94.3408203,7.92724609 93.7207031,7.76367188 92.9003906,7.76367188 C92.1972656,7.76367188 91.4648438,7.91503906 90.703125,8.21777344 C89.9414062,8.52050781 89.2724609,8.88671875 88.6962891,9.31640625 L88.6962891,20.6835938 L90.7177734,20.9326172 L90.7177734,22.5292969 L83.4228516,22.5292969 L83.4228516,20.9326172 L85.3417969,20.6835938 Z" id="Path"></path>
            <path d="M105.483398,20.6835938 L105.483398,8.40820312 L103.388672,7.82226562 L103.388672,6.06445312 L107.724609,5.47851562 L107.797852,5.47851562 L108.486328,6.04980469 L108.486328,7.23632812 L108.47168,7.91015625 C108.920898,7.50976562 109.484863,7.12402344 110.163574,6.75292969 C110.842285,6.38183594 111.569824,6.07910156 112.346191,5.84472656 C113.122559,5.61035156 113.857422,5.49316406 114.550781,5.49316406 C115.820312,5.49316406 116.801758,5.72998047 117.495117,6.20361328 C118.188477,6.67724609 118.671875,7.40722656 118.945312,8.39355469 C119.21875,9.37988281 119.355469,10.7177734 119.355469,12.4072266 L119.355469,20.6835938 L121.464844,20.9326172 L121.464844,22.5292969 L114.111328,22.5292969 L114.111328,20.9326172 L115.986328,20.6835938 L115.986328,12.3925781 C115.986328,11.2597656 115.910645,10.3686523 115.759277,9.71923828 C115.60791,9.06982422 115.322266,8.58154297 114.902344,8.25439453 C114.482422,7.92724609 113.862305,7.76367188 113.041992,7.76367188 C112.338867,7.76367188 111.606445,7.91503906 110.844727,8.21777344 C110.083008,8.52050781 109.414062,8.88671875 108.837891,9.31640625 L108.837891,20.6835938 L110.859375,20.9326172 L110.859375,22.5292969 L103.564453,22.5292969 L103.564453,20.9326172 L105.483398,20.6835938 Z" id="Path"></path>
            <path d="M123.457031,14.1650391 C123.457031,12.4462891 123.793945,10.9228516 124.467773,9.59472656 C125.141602,8.26660156 126.074219,7.23876953 127.265625,6.51123047 C128.457031,5.78369141 129.80957,5.41992188 131.323242,5.41992188 C133.198242,5.41992188 134.648438,5.93261719 135.673828,6.95800781 C136.699219,7.98339844 137.246094,9.46289062 137.314453,11.3964844 L137.314453,11.9238281 C137.314453,12.9492188 137.255859,13.7304688 137.138672,14.2675781 L126.987305,14.2675781 C127.026367,15.703125 127.270508,16.8945312 127.719727,17.8417969 C128.168945,18.7890625 128.759766,19.4873047 129.492188,19.9365234 C130.224609,20.3857422 131.049805,20.6103516 131.967773,20.6103516 C132.768555,20.6103516 133.591309,20.4711914 134.436035,20.1928711 C135.280762,19.9145508 135.942383,19.5947266 136.420898,19.2333984 L137.036133,20.6396484 C136.665039,21.0205078 136.154785,21.3818359 135.505371,21.7236328 C134.855957,22.0654297 134.133301,22.3413086 133.337402,22.5512695 C132.541504,22.7612305 131.75293,22.8662109 130.97168,22.8662109 C129.331055,22.8662109 127.946777,22.5024414 126.818848,21.7749023 C125.690918,21.0473633 124.848633,20.0317383 124.291992,18.7280273 C123.735352,17.4243164 123.457031,15.9033203 123.457031,14.1650391 Z M133.798828,12.5683594 C133.837891,12.2167969 133.857422,11.796875 133.857422,11.3085938 C133.847656,10.0683594 133.588867,9.07226562 133.081055,8.3203125 C132.573242,7.56835938 131.772461,7.19238281 130.678711,7.19238281 C129.584961,7.19238281 128.718262,7.60009766 128.078613,8.41552734 C127.438965,9.23095703 127.075195,10.6152344 126.987305,12.5683594 L133.798828,12.5683594 Z" id="Shape"></path>
            <path d="M148.066406,5.41992188 C149.472656,5.41992188 150.976562,5.72265625 152.578125,6.328125 L152.431641,10.8398438 L150.395508,10.8398438 L149.72168,8.10058594 C149.584961,7.77832031 149.313965,7.5390625 148.908691,7.3828125 C148.503418,7.2265625 148.017578,7.1484375 147.451172,7.1484375 C146.591797,7.1484375 145.844727,7.38525391 145.209961,7.85888672 C144.575195,8.33251953 144.082031,9.04052734 143.730469,9.98291016 C143.378906,10.925293 143.203125,12.0898438 143.203125,13.4765625 C143.203125,15.0878906 143.413086,16.4257812 143.833008,17.4902344 C144.25293,18.5546875 144.824219,19.3408203 145.546875,19.8486328 C146.269531,20.3564453 147.084961,20.6103516 147.993164,20.6103516 C148.842773,20.6103516 149.626465,20.4858398 150.344238,20.2368164 C151.062012,19.987793 151.674805,19.6826172 152.182617,19.3212891 L152.8125,20.6689453 C152.460938,21.0302734 151.992188,21.3793945 151.40625,21.7163086 C150.820312,22.0532227 150.163574,22.3291016 149.436035,22.5439453 C148.708496,22.7587891 147.978516,22.8662109 147.246094,22.8662109 C145.595703,22.8662109 144.199219,22.5 143.056641,21.7675781 C141.914062,21.0351562 141.057129,20.0317383 140.48584,18.7573242 C139.914551,17.4829102 139.628906,16.0351562 139.628906,14.4140625 C139.628906,12.7441406 139.951172,11.2280273 140.595703,9.86572266 C141.240234,8.50341797 142.197266,7.421875 143.466797,6.62109375 C144.736328,5.8203125 146.269531,5.41992188 148.066406,5.41992188 Z" id="Path"></path>
            <path d="M154.819336,7.96875 L154.819336,6.57714844 C155.092773,6.50878906 155.407715,6.41113281 155.76416,6.28417969 C156.120605,6.15722656 156.352539,6.05957031 156.459961,5.99121094 C156.782227,5.75683594 157.045898,5.37597656 157.250977,4.84863281 C157.397461,4.51660156 157.590332,3.98681641 157.82959,3.25927734 C158.068848,2.53173828 158.232422,1.98242188 158.320312,1.61132812 L160.224609,1.61132812 L160.253906,5.87402344 L165.175781,5.87402344 L165.175781,7.96875 L160.268555,7.96875 L160.268555,16.8310547 C160.268555,18.0224609 160.302734,18.8500977 160.371094,19.3139648 C160.439453,19.777832 160.578613,20.0756836 160.788574,20.2075195 C160.998535,20.3393555 161.381836,20.4052734 161.938477,20.4052734 L161.953125,20.4052734 C162.460938,20.4052734 163.034668,20.3417969 163.674316,20.2148438 C164.313965,20.0878906 164.80957,19.9560547 165.161133,19.8193359 L165.175781,19.8193359 L165.673828,21.2402344 C165.380859,21.484375 164.941406,21.730957 164.355469,21.9799805 C163.769531,22.2290039 163.139648,22.4365234 162.46582,22.6025391 C161.791992,22.7685547 161.171875,22.8515625 160.605469,22.8515625 L160.576172,22.8515625 C159.365234,22.8515625 158.452148,22.5854492 157.836914,22.0532227 C157.22168,21.5209961 156.914062,20.6298828 156.914062,19.3798828 L156.914062,7.96875 L154.819336,7.96875 Z" id="Path"></path>
        </g>
    </g>
</svg>