<?xml version="1.0" encoding="UTF-8"?>
<svg width="333px" height="64px" viewBox="0 0 333 64" version="1.1" xmlns="http://www.w3.org/2000/svg" xmlns:xlink="http://www.w3.org/1999/xlink">
    <title>logo/ecm/color-dark/stacked/ecm-logo-color-dark-stacked</title>
    <g id="logo/ecm/color-dark/stacked/ecm-logo-color-dark-stacked" stroke="none" stroke-width="1" fill="none" fill-rule="evenodd">
        <g id="Enterprise-Content-M" transform="translate(72.013127, 4.328112)" fill="#000000">
            <polygon id="Path" points="3.45227526 19.9260603 3.45227526 3.47852831 1.28639915 3.15036526 1.28639915 1.69332133 14.964235 1.69332133 15.3317776 5.85442877 13.6384563 5.85442877 12.8246119 3.36038961 6.53700791 3.18974483 6.53700791 10.6062297 10.8031275 10.5274706 11.1969232 8.34846794 12.8902445 8.34846794 12.8902445 14.5704393 11.1969232 14.5704393 10.8162541 12.2601715 6.53700791 12.1945389 6.53700791 20.044199 13.756595 19.7554155 15.2398919 16.4606585 16.9200867 16.9594663 16.145622 21.6718877 1.24701958 21.6718877 1.24701958 20.2410968"></polygon>
            <path d="M20.6217659,20.0179459 L20.6217659,9.01792056 L18.7446733,8.49285968 L18.7446733,6.91767705 L22.6301238,6.39261617 L22.6957564,6.39261617 L23.3127029,6.90455053 L23.3127029,7.9677988 L23.2995764,8.57161881 C23.7021231,8.21282721 24.2074942,7.86716213 24.8156897,7.53462358 C25.4238852,7.20208502 26.0758358,6.93080357 26.7715414,6.72077922 C27.4672471,6.51075487 28.125761,6.40574269 28.747083,6.40574269 C29.8847149,6.40574269 30.7641919,6.6179548 31.3855139,7.04237901 C32.0068359,7.46680322 32.4400112,8.12094156 32.6850396,9.00479403 C32.930068,9.88864651 33.0525822,11.0875355 33.0525822,12.601461 L33.0525822,20.0179459 L34.9428013,20.2410968 L34.9428013,21.6718877 L28.3532873,21.6718877 L28.3532873,20.2410968 L30.0334821,20.0179459 L30.0334821,12.5883345 C30.0334821,11.5732168 29.9656618,10.7746867 29.8300211,10.1927443 C29.6943803,9.6108018 29.4384131,9.17325107 29.0621195,8.88009208 C28.6858259,8.58693309 28.1301365,8.44035359 27.3950512,8.44035359 C26.7649782,8.44035359 26.1086521,8.57599432 25.426073,8.84727577 C24.7434938,9.11855722 24.1440493,9.44672027 23.6277394,9.83176491 L23.6277394,20.0179459 L25.4391995,20.2410968 L25.4391995,21.6718877 L18.9021916,21.6718877 L18.9021916,20.2410968 L20.6217659,20.0179459 Z" id="Path"></path>
            <path d="M36.4917309,8.6241249 L36.4917309,7.37710532 C36.7367593,7.31584821 37.0189796,7.22833807 37.3383916,7.11457488 C37.6578036,7.00081169 37.8656402,6.91330154 37.9619014,6.85204444 C38.2506849,6.64202009 38.4869623,6.30073052 38.6707336,5.82817573 C38.8019988,5.53064123 38.9748313,5.05589869 39.1892312,4.4039481 C39.403631,3.75199751 39.5502105,3.25975294 39.6289697,2.92721439 L41.3354175,2.92721439 L41.3616706,6.74703226 L45.7721819,6.74703226 L45.7721819,8.6241249 L41.3747971,8.6241249 L41.3747971,16.5656707 C41.3747971,17.6332944 41.4054256,18.3749429 41.4666827,18.7906161 C41.5279398,19.2062893 41.6526418,19.4731953 41.8407886,19.591334 C42.0289354,19.7094727 42.3724127,19.768542 42.8712206,19.768542 L42.8843471,19.768542 C43.3393999,19.768542 43.853522,19.7116604 44.4267134,19.5978972 C44.9999049,19.484134 45.4440189,19.3659953 45.7590554,19.2434811 L45.7721819,19.2434811 L46.2184837,20.5167538 C45.9559532,20.7355291 45.5621576,20.9564922 45.0370967,21.1796431 C44.5120358,21.402794 43.9475954,21.588753 43.3437754,21.7375203 C42.7399554,21.8862875 42.1842659,21.9606712 41.6767071,21.9606712 L41.650454,21.9606712 C40.5653282,21.9606712 39.7471084,21.722206 39.1957944,21.2452757 C38.6444805,20.7683454 38.3688236,19.9698153 38.3688236,18.8496855 L38.3688236,8.6241249 L36.4917309,8.6241249 Z" id="Path"></path>
            <path d="M47.6755276,14.1766437 C47.6755276,12.6364651 47.9774376,11.2713068 48.5812576,10.0811688 C49.1850776,8.89103084 50.0207995,7.96998656 51.0884233,7.31803597 C52.1560471,6.66608538 53.3680626,6.34011009 54.7244699,6.34011009 C56.4046647,6.34011009 57.7041903,6.79953835 58.6230469,7.71839489 C59.5419034,8.63725142 60.0319602,9.96303013 60.0932173,11.695731 L60.0932173,12.1682858 C60.0932173,13.0871423 60.0407112,13.7872235 59.9356991,14.2685293 L50.8390194,14.2685293 C50.8740234,15.5549285 51.0927988,16.6225523 51.4953455,17.4714007 C51.8978921,18.3202491 52.4273285,18.9459466 53.0836546,19.3484933 C53.7399807,19.75104 54.4794415,19.9523133 55.3020368,19.9523133 C56.01962,19.9523133 56.756893,19.8276114 57.5138558,19.5782074 C58.2708185,19.3288035 58.8636998,19.0422078 59.2924995,18.7184203 L59.8438134,19.9785664 C59.5112749,20.3198559 59.0540343,20.6436435 58.4720919,20.949929 C57.8901494,21.2562145 57.2425743,21.5034307 56.5293666,21.6915775 C55.8161589,21.8797243 55.1095145,21.9737977 54.4094333,21.9737977 C52.9392629,21.9737977 51.6988066,21.6478224 50.6880644,20.9958718 C49.6773222,20.3439212 48.9225472,19.4338157 48.4237393,18.2655552 C47.9249315,17.0972948 47.6755276,15.7343243 47.6755276,14.1766437 Z M56.9428521,12.7458528 C56.9778561,12.4308163 56.9953582,12.0545226 56.9953582,11.6169719 C56.9866071,10.505593 56.7547053,9.61298955 56.2996525,8.93916142 C55.8445997,8.2653333 55.1270165,7.92841924 54.1469029,7.92841924 C53.1667893,7.92841924 52.3901367,8.2937741 51.8169453,9.02448382 C51.2437538,9.75519354 50.9177785,10.9956499 50.8390194,12.7458528 L56.9428521,12.7458528 Z" id="Shape"></path>
            <path d="M64.4380961,20.044199 L64.4380961,9.01792056 L62.57413,8.49285968 L62.57413,6.91767705 L66.3283152,6.39261617 L66.3939478,6.39261617 L67.0240209,6.90455053 L67.0240209,7.73152141 L66.9977679,9.43796926 L67.0240209,9.43796926 C67.1815392,9.14918578 67.4856369,8.76195338 67.9363142,8.27627207 C68.3869914,7.79059076 68.9689339,7.34647677 69.6821416,6.94393009 C70.3953493,6.54138342 71.1720018,6.34011009 72.0120992,6.34011009 C72.3533888,6.34011009 72.6421723,6.38824067 72.8784497,6.48450183 L72.8784497,9.71362622 C72.7121804,9.61736506 72.4912173,9.53641817 72.2155603,9.47078556 C71.9399034,9.40515295 71.6445566,9.37233665 71.3295201,9.37233665 C70.4456676,9.37233665 69.6821416,9.47953658 69.038942,9.69393643 C68.3957424,9.90833629 67.8597428,10.17743 67.4309431,10.5012175 L67.4309431,20.0310724 L70.8832183,20.2673498 L70.8832183,21.6718877 L62.3772321,21.6718877 L62.3772321,20.2542233 L64.4380961,20.044199 Z" id="Path"></path>
            <path d="M81.7519785,21.9737977 C81.3581828,21.9737977 80.9250076,21.9409814 80.4524528,21.8753488 C79.979898,21.8097162 79.5817269,21.7331448 79.2579393,21.6456346 L79.3366985,23.8771434 L79.3366985,26.4761947 L82.0276355,26.7649782 L82.0276355,28.1826426 L74.4011262,28.1826426 L74.4011262,26.7649782 L76.356978,26.4630682 L76.356978,9.01792056 L74.4798853,8.49285968 L74.4798853,6.91767705 L78.3522093,6.39261617 L78.4178419,6.39261617 L79.0085354,6.90455053 L79.0085354,8.40097403 C79.5335963,7.82340706 80.1811714,7.335538 80.9512607,6.93736683 C81.7213499,6.53919567 82.5920759,6.34011009 83.5634385,6.34011009 C84.6310623,6.34011009 85.6068004,6.60045277 86.4906529,7.12113814 C87.3745054,7.64182351 88.0833376,8.45129236 88.6171495,9.54954469 C89.1509613,10.647797 89.4178673,12.0238941 89.4178673,13.6778358 C89.4178673,15.2092634 89.1050185,16.6050502 88.479321,17.8651963 C87.8536234,19.1253424 86.9610199,20.1251459 85.8015105,20.8646066 C84.6420011,21.6040673 83.2921571,21.9737977 81.7519785,21.9737977 Z M79.3366985,19.6504033 C79.4592127,19.8691787 79.7589349,20.061701 80.2358652,20.2279703 C80.7127955,20.3942395 81.2487952,20.4773742 81.8438641,20.4773742 C82.6927126,20.4773742 83.4431121,20.2520356 84.0950627,19.8013583 C84.7470132,19.3506811 85.2611353,18.6374734 85.637429,17.6617352 C86.0137226,16.6859971 86.2018694,15.4455408 86.2018694,13.9403663 C86.2018694,12.6714692 86.0334124,11.6213474 85.6964983,10.790001 C85.3595843,9.95865463 84.9023438,9.34389585 84.3247768,8.94572469 C83.7472098,8.54755352 83.0865082,8.34846794 82.342672,8.34846794 C81.7213499,8.34846794 81.143783,8.47535765 80.6099711,8.72913707 C80.0761592,8.9829165 79.651735,9.28045099 79.3366985,9.62174056 L79.3366985,19.6504033 Z" id="Shape"></path>
            <path d="M93.8021256,20.044199 L93.8021256,9.01792056 L91.9381595,8.49285968 L91.9381595,6.91767705 L95.6923448,6.39261617 L95.7579774,6.39261617 L96.3880504,6.90455053 L96.3880504,7.73152141 L96.3617974,9.43796926 L96.3880504,9.43796926 C96.5455687,9.14918578 96.8496664,8.76195338 97.3003437,8.27627207 C97.751021,7.79059076 98.3329634,7.34647677 99.0461711,6.94393009 C99.7593788,6.54138342 100.536031,6.34011009 101.376129,6.34011009 C101.717418,6.34011009 102.006202,6.38824067 102.242479,6.48450183 L102.242479,9.71362622 C102.07621,9.61736506 101.855247,9.53641817 101.57959,9.47078556 C101.303933,9.40515295 101.008586,9.37233665 100.69355,9.37233665 C99.8096971,9.37233665 99.0461711,9.47953658 98.4029715,9.69393643 C97.759772,9.90833629 97.2237723,10.17743 96.7949726,10.5012175 L96.7949726,20.0310724 L100.247248,20.2673498 L100.247248,21.6718877 L91.7412617,21.6718877 L91.7412617,20.2542233 L93.8021256,20.044199 Z" id="Path"></path>
            <path d="M106.049171,20.0179459 L106.049171,9.01792056 L104.145825,8.47973316 L104.145825,6.93080357 L108.320059,6.39261617 L108.385691,6.39261617 L109.055144,6.90455053 L109.055144,20.0179459 L111.155388,20.2410968 L111.155388,21.6718877 L103.922674,21.6718877 L103.922674,20.2410968 L106.049171,20.0179459 Z M105.510983,2.12649655 C105.510983,1.53142756 105.683816,1.02824422 106.029481,0.61694653 C106.375146,0.205648843 106.858639,0 107.479961,0 L107.493088,0 C107.860631,0 108.180043,0.0853223925 108.451324,0.255967177 C108.722606,0.426611962 108.930442,0.651950588 109.074834,0.931983056 C109.219226,1.21201552 109.291421,1.50955002 109.291421,1.82458655 C109.291421,2.43715757 109.116401,2.94034091 108.766361,3.33413657 C108.41632,3.72793222 107.908761,3.92483005 107.243684,3.92483005 L107.230558,3.92483005 C106.722999,3.92483005 106.309513,3.75418527 105.990101,3.4128957 C105.670689,3.07160613 105.510983,2.64280641 105.510983,2.12649655 Z" id="Shape"></path>
            <path d="M115.303369,17.4057681 L115.828429,19.4009994 C115.933442,19.5847707 116.136903,19.759791 116.438813,19.9260603 C116.740723,20.0923295 117.097327,20.2279703 117.508624,20.3329824 C117.919922,20.4379946 118.339971,20.4905007 118.76877,20.4905007 C119.757635,20.4905007 120.462092,20.3045416 120.88214,19.9326235 C121.302189,19.5607054 121.512213,19.0509588 121.512213,18.4033837 C121.512213,17.948331 121.370009,17.547972 121.085601,17.202307 C120.801193,16.8566419 120.378957,16.5306666 119.818892,16.2243811 C119.258827,15.9180956 118.497489,15.5724305 117.534877,15.1873859 C116.143466,14.644823 115.128348,14.0038111 114.489524,13.2643504 C113.8507,12.5248897 113.531288,11.5688413 113.531288,10.3962054 C113.531288,9.60861404 113.769753,8.91509613 114.246683,8.31565163 C114.723614,7.71620713 115.377752,7.2502156 116.209099,6.91767705 C117.040445,6.58513849 117.976803,6.41886922 119.018174,6.41886922 C119.823268,6.41886922 120.5321,6.48231407 121.144671,6.60920378 C121.757242,6.7360935 122.374188,6.90017502 122.99551,7.10144836 L123.468065,7.2458401 L123.468065,10.5668501 L121.78787,10.5668501 L121.22343,8.72913707 C121.118418,8.50161069 120.836197,8.30471287 120.376769,8.13844359 C119.917341,7.97217431 119.403219,7.88903967 118.834403,7.88903967 C118.02931,7.88903967 117.407988,8.05968446 116.970437,8.40097403 C116.532886,8.7422636 116.314111,9.18856534 116.314111,9.73987926 C116.314111,10.2299361 116.443188,10.6412338 116.701343,10.9737723 C116.959498,11.3063109 117.281098,11.5775923 117.666142,11.7876167 C118.051187,11.997641 118.589374,12.2470449 119.280705,12.5358284 L119.792639,12.7589793 C120.790255,13.187779 121.599724,13.5903257 122.221046,13.9666193 C122.842368,14.3429129 123.358677,14.8242188 123.769975,15.4105367 C124.181273,15.9968547 124.386922,16.7144379 124.386922,17.5632863 C124.386922,18.4383878 124.157208,19.2084771 123.697779,19.8735542 C123.238351,20.5386313 122.573274,21.0549412 121.702548,21.4224838 C120.831822,21.7900264 119.80139,21.9737977 118.611252,21.9737977 C117.718649,21.9737977 116.78229,21.8512835 115.802176,21.6062551 C114.822063,21.3612267 114.038847,21.1074472 113.452529,20.8449168 L113.452529,17.4057681 L115.303369,17.4057681 Z" id="Path"></path>
            <path d="M126.69719,14.1766437 C126.69719,12.6364651 126.9991,11.2713068 127.60292,10.0811688 C128.20674,8.89103084 129.042461,7.96998656 130.110085,7.31803597 C131.177709,6.66608538 132.389725,6.34011009 133.746132,6.34011009 C135.426327,6.34011009 136.725852,6.79953835 137.644709,7.71839489 C138.563565,8.63725142 139.053622,9.96303013 139.114879,11.695731 L139.114879,12.1682858 C139.114879,13.0871423 139.062373,13.7872235 138.957361,14.2685293 L129.860681,14.2685293 C129.895685,15.5549285 130.114461,16.6225523 130.517007,17.4714007 C130.919554,18.3202491 131.44899,18.9459466 132.105317,19.3484933 C132.761643,19.75104 133.501103,19.9523133 134.323699,19.9523133 C135.041282,19.9523133 135.778555,19.8276114 136.535518,19.5782074 C137.29248,19.3288035 137.885362,19.0422078 138.314161,18.7184203 L138.865475,19.9785664 C138.532937,20.3198559 138.075696,20.6436435 137.493754,20.949929 C136.911811,21.2562145 136.264236,21.5034307 135.551029,21.6915775 C134.837821,21.8797243 134.131176,21.9737977 133.431095,21.9737977 C131.960925,21.9737977 130.720468,21.6478224 129.709726,20.9958718 C128.698984,20.3439212 127.944209,19.4338157 127.445401,18.2655552 C126.946593,17.0972948 126.69719,15.7343243 126.69719,14.1766437 Z M135.964514,12.7458528 C135.999518,12.4308163 136.01702,12.0545226 136.01702,11.6169719 C136.008269,10.505593 135.776367,9.61298955 135.321314,8.93916142 C134.866262,8.2653333 134.148678,7.92841924 133.168565,7.92841924 C132.188451,7.92841924 131.411799,8.2937741 130.838607,9.02448382 C130.265416,9.75519354 129.93944,10.9956499 129.860681,12.7458528 L135.964514,12.7458528 Z" id="Shape"></path>
            <path d="M149.130415,11.669478 C149.130415,9.60423853 149.557027,7.80152953 150.410251,6.26135095 C151.263475,4.72117238 152.429548,3.53978541 153.908469,2.71719004 C155.387391,1.89459466 157.041333,1.48329698 158.870295,1.48329698 C159.710392,1.48329698 160.522049,1.54455408 161.305265,1.66706828 C162.08848,1.78958249 162.974521,1.95147626 163.963385,2.15274959 L164.672217,2.29714134 L164.422814,7.20646053 L162.466962,7.20646053 L161.731877,3.85919744 C161.548105,3.61416903 161.176187,3.41945896 160.616122,3.27506722 C160.056057,3.13067548 159.320972,3.05847961 158.410866,3.05847961 C157.290737,3.05847961 156.299684,3.37789164 155.437709,4.01671571 C154.575734,4.65553977 153.901906,5.5984616 153.416225,6.84548118 C152.930544,8.09250076 152.687703,9.59548752 152.687703,11.3544415 C152.687703,12.9821302 152.904291,14.4807414 153.337466,15.8502752 C153.770641,17.219809 154.440094,18.3224368 155.345824,19.1581587 C156.251554,19.9938806 157.382622,20.4117416 158.73903,20.4117416 C160.147943,20.4117416 161.158685,20.087954 161.771256,19.440379 L162.913263,16.6706828 L164.77723,16.9200867 L164.199663,20.9368025 C163.963385,20.9543045 163.735859,20.9914963 163.517084,21.0483779 C163.298308,21.1052595 163.0139,21.1949574 162.66386,21.3174716 C162.068791,21.5274959 161.499975,21.6893897 160.957412,21.8031529 C160.414849,21.9169161 159.745396,21.9737977 158.949054,21.9737977 C156.866312,21.9737977 155.089856,21.5646878 153.619686,20.7464679 C152.149516,19.928248 151.033761,18.7490488 150.272423,17.2088702 C149.511085,15.6686917 149.130415,13.8222276 149.130415,11.669478 Z" id="Path"></path>
            <path d="M173.939542,6.34011009 C175.462218,6.34011009 176.731116,6.67702415 177.746233,7.35085227 C178.761351,8.0246804 179.513938,8.95010019 180.003995,10.1271117 C180.494052,11.3041231 180.73908,12.6495916 180.73908,14.1635171 C180.73908,15.7824548 180.404354,17.1826172 179.734901,18.3640042 C179.065449,19.5453911 178.185972,20.4423701 177.09647,21.0549412 C176.006969,21.6675122 174.845272,21.9737977 173.611379,21.9737977 C172.088702,21.9737977 170.821993,21.6368836 169.811251,20.9630555 C168.800509,20.2892274 168.050109,19.3638076 167.560052,18.1867961 C167.069995,17.0097846 166.824967,15.6643162 166.824967,14.1503906 C166.824967,12.548955 167.159693,11.1575436 167.829146,9.97615666 C168.498599,8.79476968 169.378076,7.89341518 170.467577,7.27209314 C171.557078,6.6507711 172.7144,6.34011009 173.939542,6.34011009 Z M177.41807,14.3997945 C177.41807,12.4308163 177.127099,10.8665724 176.545157,9.70706296 C175.963214,8.54755352 175.04217,7.9677988 173.782024,7.9677988 C172.574384,7.9677988 171.664278,8.46441888 171.051707,9.45765904 C170.439136,10.4508992 170.132851,11.9363839 170.132851,13.9141132 C170.132851,15.8830915 170.428197,17.4473354 171.018891,18.6068448 C171.609584,19.7663543 172.530629,20.346109 173.782024,20.346109 C176.206055,20.346109 177.41807,18.3640042 177.41807,14.3997945 Z" id="Shape"></path>
            <path d="M184.834555,20.0179459 L184.834555,9.01792056 L182.957462,8.49285968 L182.957462,6.91767705 L186.842913,6.39261617 L186.908546,6.39261617 L187.525492,6.90455053 L187.525492,7.9677988 L187.512366,8.57161881 C187.914912,8.21282721 188.420283,7.86716213 189.028479,7.53462358 C189.636674,7.20208502 190.288625,6.93080357 190.984331,6.72077922 C191.680036,6.51075487 192.33855,6.40574269 192.959872,6.40574269 C194.097504,6.40574269 194.976981,6.6179548 195.598303,7.04237901 C196.219625,7.46680322 196.6528,8.12094156 196.897829,9.00479403 C197.142857,9.88864651 197.265371,11.0875355 197.265371,12.601461 L197.265371,20.0179459 L199.155591,20.2410968 L199.155591,21.6718877 L192.566077,21.6718877 L192.566077,20.2410968 L194.246271,20.0179459 L194.246271,12.5883345 C194.246271,11.5732168 194.178451,10.7746867 194.04281,10.1927443 C193.907169,9.6108018 193.651202,9.17325107 193.274909,8.88009208 C192.898615,8.58693309 192.342926,8.44035359 191.60784,8.44035359 C190.977767,8.44035359 190.321441,8.57599432 189.638862,8.84727577 C188.956283,9.11855722 188.356838,9.44672027 187.840529,9.83176491 L187.840529,20.0179459 L189.651989,20.2410968 L189.651989,21.6718877 L183.114981,21.6718877 L183.114981,20.2410968 L184.834555,20.0179459 Z" id="Path"></path>
            <path d="M200.70452,8.6241249 L200.70452,7.37710532 C200.949548,7.31584821 201.231769,7.22833807 201.551181,7.11457488 C201.870593,7.00081169 202.078429,6.91330154 202.174691,6.85204444 C202.463474,6.64202009 202.699751,6.30073052 202.883523,5.82817573 C203.014788,5.53064123 203.18762,5.05589869 203.40202,4.4039481 C203.61642,3.75199751 203.763,3.25975294 203.841759,2.92721439 L205.548207,2.92721439 L205.57446,6.74703226 L209.984971,6.74703226 L209.984971,8.6241249 L205.587586,8.6241249 L205.587586,16.5656707 C205.587586,17.6332944 205.618215,18.3749429 205.679472,18.7906161 C205.740729,19.2062893 205.865431,19.4731953 206.053578,19.591334 C206.241725,19.7094727 206.585202,19.768542 207.08401,19.768542 L207.097136,19.768542 C207.552189,19.768542 208.066311,19.7116604 208.639503,19.5978972 C209.212694,19.484134 209.656808,19.3659953 209.971845,19.2434811 L209.984971,19.2434811 L210.431273,20.5167538 C210.168742,20.7355291 209.774947,20.9564922 209.249886,21.1796431 C208.724825,21.402794 208.160385,21.588753 207.556565,21.7375203 C206.952745,21.8862875 206.397055,21.9606712 205.889496,21.9606712 L205.863243,21.9606712 C204.778117,21.9606712 203.959898,21.722206 203.408584,21.2452757 C202.85727,20.7683454 202.581613,19.9698153 202.581613,18.8496855 L202.581613,8.6241249 L200.70452,8.6241249 Z" id="Path"></path>
            <path d="M211.888317,14.1766437 C211.888317,12.6364651 212.190227,11.2713068 212.794047,10.0811688 C213.397867,8.89103084 214.233589,7.96998656 215.301212,7.31803597 C216.368836,6.66608538 217.580852,6.34011009 218.937259,6.34011009 C220.617454,6.34011009 221.91698,6.79953835 222.835836,7.71839489 C223.754693,8.63725142 224.244749,9.96303013 224.306006,11.695731 L224.306006,12.1682858 C224.306006,13.0871423 224.2535,13.7872235 224.148488,14.2685293 L215.051809,14.2685293 C215.086813,15.5549285 215.305588,16.6225523 215.708135,17.4714007 C216.110681,18.3202491 216.640118,18.9459466 217.296444,19.3484933 C217.95277,19.75104 218.692231,19.9523133 219.514826,19.9523133 C220.232409,19.9523133 220.969682,19.8276114 221.726645,19.5782074 C222.483608,19.3288035 223.076489,19.0422078 223.505289,18.7184203 L224.056603,19.9785664 C223.724064,20.3198559 223.266824,20.6436435 222.684881,20.949929 C222.102939,21.2562145 221.455363,21.5034307 220.742156,21.6915775 C220.028948,21.8797243 219.322304,21.9737977 218.622223,21.9737977 C217.152052,21.9737977 215.911596,21.6478224 214.900854,20.9958718 C213.890111,20.3439212 213.135336,19.4338157 212.636529,18.2655552 C212.137721,17.0972948 211.888317,15.7343243 211.888317,14.1766437 Z M221.155641,12.7458528 C221.190645,12.4308163 221.208147,12.0545226 221.208147,11.6169719 C221.199396,10.505593 220.967494,9.61298955 220.512442,8.93916142 C220.057389,8.2653333 219.339806,7.92841924 218.359692,7.92841924 C217.379578,7.92841924 216.602926,8.2937741 216.029734,9.02448382 C215.456543,9.75519354 215.130568,10.9956499 215.051809,12.7458528 L221.155641,12.7458528 Z" id="Shape"></path>
            <path d="M228.427734,20.0179459 L228.427734,9.01792056 L226.550642,8.49285968 L226.550642,6.91767705 L230.436092,6.39261617 L230.501725,6.39261617 L231.118671,6.90455053 L231.118671,7.9677988 L231.105545,8.57161881 C231.508092,8.21282721 232.013463,7.86716213 232.621658,7.53462358 C233.229854,7.20208502 233.881804,6.93080357 234.57751,6.72077922 C235.273216,6.51075487 235.931729,6.40574269 236.553051,6.40574269 C237.690683,6.40574269 238.57016,6.6179548 239.191482,7.04237901 C239.812804,7.46680322 240.24598,8.12094156 240.491008,9.00479403 C240.736036,9.88864651 240.858551,11.0875355 240.858551,12.601461 L240.858551,20.0179459 L242.74877,20.2410968 L242.74877,21.6718877 L236.159256,21.6718877 L236.159256,20.2410968 L237.839451,20.0179459 L237.839451,12.5883345 C237.839451,11.5732168 237.77163,10.7746867 237.635989,10.1927443 C237.500349,9.6108018 237.244382,9.17325107 236.868088,8.88009208 C236.491794,8.58693309 235.936105,8.44035359 235.20102,8.44035359 C234.570947,8.44035359 233.914621,8.57599432 233.232041,8.84727577 C232.549462,9.11855722 231.950018,9.44672027 231.433708,9.83176491 L231.433708,20.0179459 L233.245168,20.2410968 L233.245168,21.6718877 L226.70816,21.6718877 L226.70816,20.2410968 L228.427734,20.0179459 Z" id="Path"></path>
            <path d="M244.297699,8.6241249 L244.297699,7.37710532 C244.542728,7.31584821 244.824948,7.22833807 245.14436,7.11457488 C245.463772,7.00081169 245.671609,6.91330154 245.76787,6.85204444 C246.056653,6.64202009 246.292931,6.30073052 246.476702,5.82817573 C246.607967,5.53064123 246.7808,5.05589869 246.9952,4.4039481 C247.209599,3.75199751 247.356179,3.25975294 247.434938,2.92721439 L249.141386,2.92721439 L249.167639,6.74703226 L253.57815,6.74703226 L253.57815,8.6241249 L249.180766,8.6241249 L249.180766,16.5656707 C249.180766,17.6332944 249.211394,18.3749429 249.272651,18.7906161 C249.333908,19.2062893 249.45861,19.4731953 249.646757,19.591334 C249.834904,19.7094727 250.178381,19.768542 250.677189,19.768542 L250.690316,19.768542 C251.145368,19.768542 251.65949,19.7116604 252.232682,19.5978972 C252.805873,19.484134 253.249987,19.3659953 253.565024,19.2434811 L253.57815,19.2434811 L254.024452,20.5167538 C253.761922,20.7355291 253.368126,20.9564922 252.843065,21.1796431 C252.318004,21.402794 251.753564,21.588753 251.149744,21.7375203 C250.545924,21.8862875 249.990234,21.9606712 249.482676,21.9606712 L249.456422,21.9606712 C248.371297,21.9606712 247.553077,21.722206 247.001763,21.2452757 C246.450449,20.7683454 246.174792,19.9698153 246.174792,18.8496855 L246.174792,8.6241249 L244.297699,8.6241249 Z" id="Path"></path>
            <polygon id="Path" points="2.3365209 50.9391868 4.30549919 34.4785283 1.4964235 34.1503653 1.4964235 32.6933213 8.66350446 32.6933213 12.7852323 44.7303419 13.4678115 47.749442 14.058505 44.7303419 17.6945515 32.6933213 24.8616325 32.6933213 24.8616325 34.1503653 21.9475446 34.4916548 24.4940899 50.9260603 26.8437373 51.2410968 26.8437373 52.6718877 19.0465833 52.6718877 19.0465833 51.2410968 21.3699777 50.9391868 19.7160359 39.0203049 19.138469 33.7828226 18.2327389 37.3794897 13.9534928 51.7792842 12.2601715 51.7792842 7.52149706 38.8496601 6.06445313 33.7959492 5.64440442 39.0071784 4.58115615 50.9260603 7.16708097 51.2410968 7.16708097 52.6718877 0 52.6718877 0 51.2410968"></polygon>
            <path d="M36.7542614,42.9188819 C36.7542614,42.0962865 36.668939,41.4487114 36.4982942,40.9761567 C36.3276494,40.5036019 36.0323027,40.1579368 35.612254,39.9391614 C35.1922053,39.7203861 34.5971363,39.6109984 33.827047,39.6109984 C32.3481255,39.6109984 30.7904449,40.0266716 29.1540052,40.858018 L29.1408787,40.858018 L28.4845526,39.4928597 C28.72083,39.2828353 29.173695,39.0115539 29.8431476,38.6790153 C30.5126002,38.3464768 31.2739385,38.0555055 32.1271624,37.8061016 C32.9803863,37.5566977 33.7920429,37.4319957 34.5621322,37.4319957 C35.8397803,37.4319957 36.8439593,37.6048283 37.574669,37.9504934 C38.3053787,38.2961584 38.8326273,38.8496601 39.1564149,39.6109984 C39.4802024,40.3723366 39.6420962,41.4005809 39.6420962,42.695731 L39.6420962,51.2279703 L41.2435319,51.2279703 L41.2435319,52.5143694 C39.9658837,52.8206549 39.0032721,52.9737977 38.355697,52.9737977 C37.9881544,52.9737977 37.708122,52.9431691 37.5155996,52.881912 C37.3230773,52.8206549 37.1808733,52.695953 37.0889877,52.5078062 C36.997102,52.3196593 36.9511592,52.0286881 36.9511592,51.6348925 L36.9511592,51.0048194 C36.4786044,51.4686232 35.8572824,51.9127372 35.0871931,52.3371614 C34.3171038,52.7615856 33.4551289,52.9737977 32.5012683,52.9737977 C31.6611709,52.9737977 30.8976448,52.8206549 30.2106902,52.5143694 C29.5237355,52.2080839 28.9767971,51.7355291 28.5698749,51.0967051 C28.1629528,50.457881 27.9594917,49.6615387 27.9594917,48.7076781 C27.9594917,47.5437931 28.3642261,46.585557 29.173695,45.8329698 C29.9831638,45.0803825 31.0464121,44.5268808 32.3634398,44.1724647 C33.6804675,43.8180487 35.1440747,43.6277141 36.7542614,43.601461 L36.7542614,42.9188819 Z M36.7542614,45.084758 C35.4678622,45.084758 34.4111772,45.2313375 33.5842063,45.5244965 C32.7572354,45.8176555 32.1577909,46.2048879 31.7858728,46.6861937 C31.4139547,47.1674995 31.2279956,47.7144379 31.2279956,48.3270089 C31.2279956,49.2458655 31.455522,49.9196936 31.9105748,50.3484933 C32.3656275,50.777293 32.9781986,50.9916929 33.7482878,50.9916929 C34.1595855,50.9916929 34.6562056,50.8757419 35.2381481,50.64384 C35.8200906,50.4119382 36.3254616,50.1297179 36.7542614,49.7971794 L36.7542614,45.084758 Z" id="Shape"></path>
            <path d="M44.9714641,51.0179459 L44.9714641,40.0179206 L43.0943714,39.4928597 L43.0943714,37.917677 L46.9798219,37.3926162 L47.0454545,37.3926162 L47.6624011,37.9045505 L47.6624011,38.9677988 L47.6492746,39.5716188 C48.0518212,39.2128272 48.5571923,38.8671621 49.1653878,38.5346236 C49.7735834,38.202085 50.4255339,37.9308036 51.1212396,37.7207792 C51.8169453,37.5107549 52.4754591,37.4057427 53.0967811,37.4057427 C54.234413,37.4057427 55.11389,37.6179548 55.7352121,38.042379 C56.3565341,38.4668032 56.7897093,39.1209416 57.0347377,40.004794 C57.2797661,40.8886465 57.4022803,42.0875355 57.4022803,43.601461 L57.4022803,51.0179459 L59.2924995,51.2410968 L59.2924995,52.6718877 L52.7029855,52.6718877 L52.7029855,51.2410968 L54.3831803,51.0179459 L54.3831803,43.5883345 C54.3831803,42.5732168 54.3153599,41.7746867 54.1797192,41.1927443 C54.0440785,40.6108018 53.7881113,40.1732511 53.4118177,39.8800921 C53.035524,39.5869331 52.4798346,39.4403536 51.7447494,39.4403536 C51.1146763,39.4403536 50.4583502,39.5759943 49.7757711,39.8472758 C49.093192,40.1185572 48.4937475,40.4467203 47.9774376,40.8317649 L47.9774376,51.0179459 L49.7888976,51.2410968 L49.7888976,52.6718877 L43.2518897,52.6718877 L43.2518897,51.2410968 L44.9714641,51.0179459 Z" id="Path"></path>
            <path d="M69.8724762,42.9188819 C69.8724762,42.0962865 69.7871538,41.4487114 69.616509,40.9761567 C69.4458642,40.5036019 69.1505175,40.1579368 68.7304688,39.9391614 C68.31042,39.7203861 67.7153511,39.6109984 66.9452618,39.6109984 C65.4663403,39.6109984 63.9086597,40.0266716 62.27222,40.858018 L62.2590934,40.858018 L61.6027673,39.4928597 C61.8390447,39.2828353 62.2919098,39.0115539 62.9613624,38.6790153 C63.630815,38.3464768 64.3921533,38.0555055 65.2453772,37.8061016 C66.0986011,37.5566977 66.9102577,37.4319957 67.680347,37.4319957 C68.9579951,37.4319957 69.9621741,37.6048283 70.6928838,37.9504934 C71.4235935,38.2961584 71.9508421,38.8496601 72.2746297,39.6109984 C72.5984172,40.3723366 72.760311,41.4005809 72.760311,42.695731 L72.760311,51.2279703 L74.3617467,51.2279703 L74.3617467,52.5143694 C73.0840985,52.8206549 72.1214869,52.9737977 71.4739118,52.9737977 C71.1063692,52.9737977 70.8263367,52.9431691 70.6338144,52.881912 C70.4412921,52.8206549 70.2990881,52.695953 70.2072025,52.5078062 C70.1153168,52.3196593 70.069374,52.0286881 70.069374,51.6348925 L70.069374,51.0048194 C69.5968192,51.4686232 68.9754972,51.9127372 68.2054079,52.3371614 C67.4353186,52.7615856 66.5733436,52.9737977 65.6194831,52.9737977 C64.7793857,52.9737977 64.0158596,52.8206549 63.328905,52.5143694 C62.6419503,52.2080839 62.0950119,51.7355291 61.6880897,51.0967051 C61.2811676,50.457881 61.0777065,49.6615387 61.0777065,48.7076781 C61.0777065,47.5437931 61.4824409,46.585557 62.2919098,45.8329698 C63.1013786,45.0803825 64.1646269,44.5268808 65.4816546,44.1724647 C66.7986823,43.8180487 68.2622895,43.6277141 69.8724762,43.601461 L69.8724762,42.9188819 Z M69.8724762,45.084758 C68.586077,45.084758 67.529392,45.2313375 66.7024211,45.5244965 C65.8754502,45.8176555 65.2760057,46.2048879 64.9040876,46.6861937 C64.5321695,47.1674995 64.3462104,47.7144379 64.3462104,48.3270089 C64.3462104,49.2458655 64.5737368,49.9196936 65.0287896,50.3484933 C65.4838423,50.777293 66.0964134,50.9916929 66.8665026,50.9916929 C67.2778003,50.9916929 67.7744204,50.8757419 68.3563629,50.64384 C68.9383053,50.4119382 69.4436764,50.1297179 69.8724762,49.7971794 L69.8724762,45.084758 Z" id="Shape"></path>
            <path d="M82.6577085,47.3556463 C81.9401253,47.3556463 81.2706727,47.2812627 80.6493506,47.1324954 C80.4043222,47.3512708 80.2117999,47.6028625 80.0717837,47.8872704 C79.9317675,48.1716784 79.8617593,48.4626497 79.8617593,48.7601842 C79.8617593,49.1977349 79.9645838,49.5324612 80.1702326,49.7643631 C80.3758814,49.996265 80.6865425,50.155971 81.1022157,50.2434811 C81.5178888,50.3309913 82.0888926,50.3747463 82.8152268,50.3747463 L85.6768085,50.3747463 C89.0984553,50.3747463 90.8092786,51.6873985 90.8092786,54.3127029 C90.8092786,55.3278206 90.4482993,56.2641792 89.7263406,57.1217786 C89.0043818,57.979378 88.0395825,58.6597694 86.8319425,59.1629528 C85.6243025,59.6661361 84.3291523,59.9177278 82.946492,59.9177278 L82.9333655,59.9177278 C80.5880935,59.9177278 78.8860212,59.5611239 77.8271484,58.8479162 C76.7682757,58.1347086 76.2388393,57.1261541 76.2388393,55.8222529 C76.2388393,55.0084086 76.4773044,54.2711356 76.9542347,53.610434 C77.431165,52.9497324 78.0065442,52.4487368 78.6803724,52.1074472 C77.8315239,51.6261414 77.4070997,50.8910562 77.4070997,49.9021916 C77.4070997,49.2458655 77.5952466,48.6398577 77.9715402,48.0841683 C78.3478338,47.5284788 78.8422661,47.0799893 79.4548372,46.7386998 C78.5797357,46.3361531 77.9080953,45.7651494 77.439916,45.0256887 C76.9717368,44.2862279 76.7376471,43.4220652 76.7376471,42.4332006 C76.7376471,41.4005809 77.0308061,40.4992264 77.6171241,39.7291371 C78.2034421,38.9590478 78.9735314,38.3705421 79.9273919,37.9636199 C80.8812525,37.5566977 81.9007457,37.3488611 82.9858716,37.3401101 L82.9989981,37.3401101 C83.9441077,37.3401101 84.7929561,37.44731 85.5455433,37.6617099 C86.2981306,37.8761097 86.9325791,38.193334 87.448889,38.6133827 C87.7114194,38.3070972 88.1052151,38.0139382 88.630276,37.7339057 C89.1553369,37.4538733 89.7722834,37.313857 90.4811156,37.313857 L91.1899477,37.313857 L91.1899477,39.8604023 L88.4333781,39.8604023 C88.7396637,40.4992264 88.8928064,41.203683 88.8928064,41.9737723 C88.8928064,43.0238941 88.621525,43.9580649 88.0789621,44.7762848 C87.5363991,45.5945046 86.7925629,46.2289532 85.8474533,46.6796304 C84.9023438,47.1303077 83.843471,47.3556463 82.670835,47.3556463 L82.6577085,47.3556463 Z M82.8152268,38.8759131 C81.8701172,38.8759131 81.1372197,39.1318803 80.6165343,39.6438147 C80.095849,40.155749 79.8355063,40.9936587 79.8355063,42.1575436 C79.8355063,43.2601715 80.0827225,44.1418362 80.5771548,44.8025378 C81.0715871,45.4632394 81.8613662,45.7935902 82.946492,45.7935902 L82.9596185,45.7935902 C83.9572342,45.7935902 84.6813806,45.4960557 85.1320579,44.9009867 C85.5827351,44.3059177 85.8080738,43.4351918 85.8080738,42.2888088 C85.8080738,41.1161729 85.5652331,40.254198 85.0795518,39.702884 C84.5938705,39.1515701 83.843471,38.8759131 82.8283533,38.8759131 L82.8152268,38.8759131 Z M80.0192776,52.5668755 C79.4592127,53.2582057 79.1791802,54.0851765 79.1791802,55.0477881 C79.1791802,56.0979099 79.4898412,56.8942522 80.1111633,57.4368151 C80.7324853,57.979378 81.7519785,58.2506595 83.1696429,58.2506595 L83.1958959,58.2506595 C83.9834872,58.2506595 84.7360745,58.1281453 85.4536577,57.8831169 C86.1712409,57.6380885 86.7531833,57.2749214 87.1994851,56.7936156 C87.6457868,56.3123098 87.8689377,55.7391183 87.8689377,55.0740412 C87.8689377,54.5052252 87.7836153,54.0567357 87.6129705,53.7285727 C87.4423257,53.4004096 87.129477,53.1531935 86.6744242,52.9869242 C86.2193714,52.8206549 85.5586698,52.7375203 84.6923194,52.7375203 L82.0538885,52.7375203 C81.3363053,52.7375203 80.6581017,52.6806387 80.0192776,52.5668755 Z" id="Shape"></path>
            <path d="M92.5944856,45.1766437 C92.5944856,43.6364651 92.8963956,42.2713068 93.5002156,41.0811688 C94.1040356,39.8910308 94.9397575,38.9699866 96.0073813,38.318036 C97.0750051,37.6660854 98.2870206,37.3401101 99.6434279,37.3401101 C101.323623,37.3401101 102.623148,37.7995384 103.542005,38.7183949 C104.460861,39.6372514 104.950918,40.9630301 105.012175,42.695731 L105.012175,43.1682858 C105.012175,44.0871423 104.959669,44.7872235 104.854657,45.2685293 L95.7579774,45.2685293 C95.7929814,46.5549285 96.0117568,47.6225523 96.4143035,48.4714007 C96.8168501,49.3202491 97.3462865,49.9459466 98.0026126,50.3484933 C98.6589387,50.75104 99.3983995,50.9523133 100.220995,50.9523133 C100.938578,50.9523133 101.675851,50.8276114 102.432814,50.5782074 C103.189777,50.3288035 103.782658,50.0422078 104.211457,49.7184203 L104.762771,50.9785664 C104.430233,51.3198559 103.972992,51.6436435 103.39105,51.949929 C102.809107,52.2562145 102.161532,52.5034307 101.448325,52.6915775 C100.735117,52.8797243 100.028473,52.9737977 99.3283913,52.9737977 C97.8582209,52.9737977 96.6177646,52.6478224 95.6070224,51.9958718 C94.5962802,51.3439212 93.8415052,50.4338157 93.3426973,49.2655552 C92.8438895,48.0972948 92.5944856,46.7343243 92.5944856,45.1766437 Z M101.86181,43.7458528 C101.896814,43.4308163 101.914316,43.0545226 101.914316,42.6169719 C101.905565,41.505593 101.673663,40.6129895 101.21861,39.9391614 C100.763558,39.2653333 100.045975,38.9284192 99.0658609,38.9284192 C98.0857473,38.9284192 97.3090947,39.2937741 96.7359033,40.0244838 C96.1627118,40.7551935 95.8367365,41.9956499 95.7579774,43.7458528 L101.86181,43.7458528 Z" id="Shape"></path>
            <path d="M109.133903,51.0310724 L109.133903,40.0179206 L107.256811,39.4928597 L107.256811,37.917677 L111.129135,37.3926162 L111.194767,37.3926162 L111.82484,37.9045505 L111.82484,38.9677988 L111.798587,39.5716188 C112.192383,39.2128272 112.702129,38.8671621 113.327827,38.5346236 C113.953525,38.202085 114.614226,37.9308036 115.309932,37.7207792 C116.005637,37.5107549 116.637898,37.4057427 117.206714,37.4057427 C118.169326,37.4057427 118.943791,37.5676365 119.530109,37.891424 C120.116427,38.2152115 120.562728,38.7183949 120.869014,39.400974 C121.210303,39.1034395 121.68067,38.7993418 122.280115,38.4886808 C122.879559,38.1780197 123.520571,37.9198648 124.20315,37.714216 C124.88573,37.5085671 125.520178,37.4057427 126.106496,37.4057427 C127.244128,37.4057427 128.12798,37.6179548 128.758053,38.042379 C129.388127,38.4668032 129.830053,39.1187538 130.083832,39.9982308 C130.337612,40.8777077 130.464501,42.065658 130.464501,43.5620815 L130.464501,51.0310724 L132.341594,51.2542233 L132.341594,52.6718877 L125.909598,52.6718877 L125.909598,51.2542233 L127.458528,51.0179459 L127.458528,43.6539671 C127.458528,42.6300984 127.384144,41.8206296 127.235377,41.2255606 C127.08661,40.6304916 126.806577,40.1820021 126.39528,39.8800921 C125.983982,39.5781821 125.393288,39.4272271 124.623199,39.4272271 C124.089387,39.4272271 123.507445,39.5497413 122.877372,39.7947697 C122.247299,40.0397981 121.704736,40.3242061 121.249683,40.6479936 C121.407201,41.4005809 121.48596,42.38507 121.48596,43.601461 L121.48596,51.0179459 L123.402433,51.2542233 L123.402433,52.6718877 L116.734159,52.6718877 L116.734159,51.2542233 L118.479987,51.0179459 L118.479987,43.5883345 C118.479987,42.5644658 118.414354,41.763748 118.283089,41.186181 C118.151824,40.608614 117.895857,40.1732511 117.515187,39.8800921 C117.134518,39.5869331 116.576641,39.4403536 115.841556,39.4403536 C115.228985,39.4403536 114.585785,39.5716188 113.911957,39.8341492 C113.238129,40.0966797 112.647436,40.4204672 112.139877,40.8055119 L112.139877,51.0179459 L113.898831,51.2542233 L113.898831,52.6718877 L107.493088,52.6718877 L107.493088,51.2542233 L109.133903,51.0310724 Z" id="Path"></path>
            <path d="M134.153054,45.1766437 C134.153054,43.6364651 134.454964,42.2713068 135.058784,41.0811688 C135.662604,39.8910308 136.498326,38.9699866 137.56595,38.318036 C138.633573,37.6660854 139.845589,37.3401101 141.201996,37.3401101 C142.882191,37.3401101 144.181717,37.7995384 145.100573,38.7183949 C146.01943,39.6372514 146.509487,40.9630301 146.570744,42.695731 L146.570744,43.1682858 C146.570744,44.0871423 146.518238,44.7872235 146.413225,45.2685293 L137.316546,45.2685293 C137.35155,46.5549285 137.570325,47.6225523 137.972872,48.4714007 C138.375419,49.3202491 138.904855,49.9459466 139.561181,50.3484933 C140.217507,50.75104 140.956968,50.9523133 141.779563,50.9523133 C142.497146,50.9523133 143.234419,50.8276114 143.991382,50.5782074 C144.748345,50.3288035 145.341226,50.0422078 145.770026,49.7184203 L146.32134,50.9785664 C145.988801,51.3198559 145.531561,51.6436435 144.949618,51.949929 C144.367676,52.2562145 143.720101,52.5034307 143.006893,52.6915775 C142.293685,52.8797243 141.587041,52.9737977 140.88696,52.9737977 C139.416789,52.9737977 138.176333,52.6478224 137.165591,51.9958718 C136.154849,51.3439212 135.400074,50.4338157 134.901266,49.2655552 C134.402458,48.0972948 134.153054,46.7343243 134.153054,45.1766437 Z M143.420378,43.7458528 C143.455383,43.4308163 143.472885,43.0545226 143.472885,42.6169719 C143.464134,41.505593 143.232232,40.6129895 142.777179,39.9391614 C142.322126,39.2653333 141.604543,38.9284192 140.624429,38.9284192 C139.644316,38.9284192 138.867663,39.2937741 138.294472,40.0244838 C137.72128,40.7551935 137.395305,41.9956499 137.316546,43.7458528 L143.420378,43.7458528 Z" id="Shape"></path>
            <path d="M150.692472,51.0179459 L150.692472,40.0179206 L148.815379,39.4928597 L148.815379,37.917677 L152.700829,37.3926162 L152.766462,37.3926162 L153.383409,37.9045505 L153.383409,38.9677988 L153.370282,39.5716188 C153.772829,39.2128272 154.2782,38.8671621 154.886395,38.5346236 C155.494591,38.202085 156.146541,37.9308036 156.842247,37.7207792 C157.537953,37.5107549 158.196467,37.4057427 158.817789,37.4057427 C159.955421,37.4057427 160.834898,37.6179548 161.45622,38.042379 C162.077542,38.4668032 162.510717,39.1209416 162.755745,40.004794 C163.000774,40.8886465 163.123288,42.0875355 163.123288,43.601461 L163.123288,51.0179459 L165.013507,51.2410968 L165.013507,52.6718877 L158.423993,52.6718877 L158.423993,51.2410968 L160.104188,51.0179459 L160.104188,43.5883345 C160.104188,42.5732168 160.036367,41.7746867 159.900727,41.1927443 C159.765086,40.6108018 159.509119,40.1732511 159.132825,39.8800921 C158.756532,39.5869331 158.200842,39.4403536 157.465757,39.4403536 C156.835684,39.4403536 156.179358,39.5759943 155.496779,39.8472758 C154.814199,40.1185572 154.214755,40.4467203 153.698445,40.8317649 L153.698445,51.0179459 L155.509905,51.2410968 L155.509905,52.6718877 L148.972897,52.6718877 L148.972897,51.2410968 L150.692472,51.0179459 Z" id="Path"></path>
            <path d="M166.562437,39.6241249 L166.562437,38.3771053 C166.807465,38.3158482 167.089685,38.2283381 167.409097,38.1145749 C167.728509,38.0008117 167.936346,37.9133015 168.032607,37.8520444 C168.321391,37.6420201 168.557668,37.3007305 168.741439,36.8281757 C168.872704,36.5306412 169.045537,36.0558987 169.259937,35.4039481 C169.474337,34.7519975 169.620916,34.2597529 169.699675,33.9272144 L171.406123,33.9272144 L171.432376,37.7470323 L175.842888,37.7470323 L175.842888,39.6241249 L171.445503,39.6241249 L171.445503,47.5656707 C171.445503,48.6332944 171.476131,49.3749429 171.537388,49.7906161 C171.598645,50.2062893 171.723347,50.4731953 171.911494,50.591334 C172.099641,50.7094727 172.443118,50.768542 172.941926,50.768542 L172.955053,50.768542 C173.410106,50.768542 173.924228,50.7116604 174.497419,50.5978972 C175.070611,50.484134 175.514725,50.3659953 175.829761,50.2434811 L175.842888,50.2434811 L176.289189,51.5167538 C176.026659,51.7355291 175.632863,51.9564922 175.107802,52.1796431 C174.582741,52.402794 174.018301,52.588753 173.414481,52.7375203 C172.810661,52.8862875 172.254972,52.9606712 171.747413,52.9606712 L171.72116,52.9606712 C170.636034,52.9606712 169.817814,52.722206 169.2665,52.2452757 C168.715186,51.7683454 168.439529,50.9698153 168.439529,49.8496855 L168.439529,39.6241249 L166.562437,39.6241249 Z" id="Path"></path>
        </g>
        <g id="Group">
            <path d="M32,64.0002 C14.327,64.0002 0,49.6732 0,32.0002 C0,14.3272 14.327,0.0002 32,0.0002 C49.673,0.0002 64,14.3272 64,32.0002 C64,49.6732 49.673,64.0002 32,64.0002 Z" id="circle" fill="#083C6F"></path>
            <path d="M31.9999861,6 L37.9016908,24.3344451 L57,24.3344451 L41.5491406,35.6655549 L47.4508454,54 L31.9999861,42.6688903 L16.5491267,54 L21.9716594,37.1542912 L34.0295682,33.1996155 L26.5774533,22.8459902 L31.9999861,6 Z M24.5476203,24.334417 L29.9704318,31.8681376 L21.1964823,34.7460048 L7,24.334417 L24.5476203,24.334417 Z" id="icon" fill="#F5EA14"></path>
        </g>
    </g>
</svg>