<?xml version="1.0" encoding="UTF-8"?>
<svg width="600px" height="64px" viewBox="0 0 600 64" version="1.1" xmlns="http://www.w3.org/2000/svg" xmlns:xlink="http://www.w3.org/1999/xlink">
    <title>logo/tbm/white/long/tbm-logo-white-long</title>
    <g id="logo/tbm/white/long/tbm-logo-white-long" stroke="none" stroke-width="1" fill="none" fill-rule="evenodd">
        <g id="Technology-Buisness" transform="translate(75.468750, 18.405273)" fill="#FFFFFF" fill-rule="nonzero">
            <polygon id="Path" points="8.10058594 22.6464844 8.10058594 4.04296875 3.22265625 4.18945312 2.12402344 10.3125 0 10.3125 0.512695312 2.29980469 19.0576172 2.29980469 19.5263672 10.3125 17.4316406 10.3125 16.3183594 4.18945312 11.6308594 4.04296875 11.6308594 22.6464844 15.7763672 22.9980469 15.7763672 24.5947266 4.27734375 24.5947266 4.27734375 22.9980469"></polygon>
            <path d="M21.4453125,16.2304688 C21.4453125,14.5117188 21.7822266,12.9882812 22.4560547,11.6601562 C23.1298828,10.3320312 24.0625,9.30419922 25.2539062,8.57666016 C26.4453125,7.84912109 27.7978516,7.48535156 29.3115234,7.48535156 C31.1865234,7.48535156 32.6367188,7.99804688 33.6621094,9.0234375 C34.6875,10.0488281 35.234375,11.5283203 35.3027344,13.4619141 L35.3027344,13.9892578 C35.3027344,15.0146484 35.2441406,15.7958984 35.1269531,16.3330078 L24.9755859,16.3330078 C25.0146484,17.7685547 25.2587891,18.9599609 25.7080078,19.9072266 C26.1572266,20.8544922 26.7480469,21.5527344 27.4804688,22.0019531 C28.2128906,22.4511719 29.0380859,22.6757812 29.9560547,22.6757812 C30.7568359,22.6757812 31.5795898,22.5366211 32.4243164,22.2583008 C33.269043,21.9799805 33.9306641,21.6601562 34.4091797,21.2988281 L35.0244141,22.7050781 C34.6533203,23.0859375 34.1430664,23.4472656 33.4936523,23.7890625 C32.8442383,24.1308594 32.121582,24.4067383 31.3256836,24.6166992 C30.5297852,24.8266602 29.7412109,24.9316406 28.9599609,24.9316406 C27.3193359,24.9316406 25.9350586,24.5678711 24.8071289,23.840332 C23.6791992,23.112793 22.8369141,22.097168 22.2802734,20.793457 C21.7236328,19.4897461 21.4453125,17.96875 21.4453125,16.2304688 Z M31.7871094,14.6337891 C31.8261719,14.2822266 31.8457031,13.8623047 31.8457031,13.3740234 C31.8359375,12.1337891 31.5771484,11.1376953 31.0693359,10.3857422 C30.5615234,9.63378906 29.7607422,9.2578125 28.6669922,9.2578125 C27.5732422,9.2578125 26.706543,9.66552734 26.0668945,10.480957 C25.4272461,11.2963867 25.0634766,12.6806641 24.9755859,14.6337891 L31.7871094,14.6337891 Z" id="Shape"></path>
            <path d="M46.0546875,7.48535156 C47.4609375,7.48535156 48.9648438,7.78808594 50.5664062,8.39355469 L50.4199219,12.9052734 L48.3837891,12.9052734 L47.7099609,10.1660156 C47.5732422,9.84375 47.3022461,9.60449219 46.8969727,9.44824219 C46.4916992,9.29199219 46.0058594,9.21386719 45.4394531,9.21386719 C44.5800781,9.21386719 43.8330078,9.45068359 43.1982422,9.92431641 C42.5634766,10.3979492 42.0703125,11.105957 41.71875,12.0483398 C41.3671875,12.9907227 41.1914062,14.1552734 41.1914062,15.5419922 C41.1914062,17.1533203 41.4013672,18.4912109 41.8212891,19.5556641 C42.2412109,20.6201172 42.8125,21.40625 43.5351562,21.9140625 C44.2578125,22.421875 45.0732422,22.6757812 45.9814453,22.6757812 C46.8310547,22.6757812 47.6147461,22.5512695 48.3325195,22.3022461 C49.050293,22.0532227 49.6630859,21.7480469 50.1708984,21.3867188 L50.8007812,22.734375 C50.4492188,23.0957031 49.9804688,23.4448242 49.3945312,23.7817383 C48.8085938,24.1186523 48.1518555,24.3945312 47.4243164,24.609375 C46.6967773,24.8242188 45.9667969,24.9316406 45.234375,24.9316406 C43.5839844,24.9316406 42.1875,24.5654297 41.0449219,23.8330078 C39.9023438,23.1005859 39.0454102,22.097168 38.4741211,20.8227539 C37.902832,19.5483398 37.6171875,18.1005859 37.6171875,16.4794922 C37.6171875,14.8095703 37.9394531,13.293457 38.5839844,11.9311523 C39.2285156,10.5688477 40.1855469,9.48730469 41.4550781,8.68652344 C42.7246094,7.88574219 44.2578125,7.48535156 46.0546875,7.48535156 Z" id="Path"></path>
            <path d="M54.8876953,22.7636719 L54.8876953,2.31445312 L52.4707031,2.02148438 L52.4707031,0.629882812 L57.4365234,0 L57.5097656,0 L58.2128906,0.498046875 L58.2275391,7.29492187 L58.0957031,9.91699219 C58.7597656,9.33105469 59.6289062,8.79150391 60.703125,8.29833984 C61.7773438,7.80517578 62.8808594,7.55859375 64.0136719,7.55859375 C65.2636719,7.55859375 66.237793,7.79785156 66.9360352,8.27636719 C67.6342773,8.75488281 68.1225586,9.48974609 68.4008789,10.480957 C68.6791992,11.472168 68.8183594,12.8027344 68.8183594,14.4726562 L68.8183594,22.7490234 L70.9277344,22.9980469 L70.9277344,24.5947266 L63.5595703,24.5947266 L63.5595703,23.0126953 L65.4785156,22.7636719 L65.4785156,14.4580078 C65.4785156,13.3251953 65.402832,12.434082 65.2514648,11.784668 C65.1000977,11.1352539 64.8095703,10.6469727 64.3798828,10.3198242 C63.9501953,9.99267578 63.3203125,9.82910156 62.4902344,9.82910156 C61.7871094,9.82910156 61.0498047,9.97314453 60.2783203,10.2612305 C59.5068359,10.5493164 58.828125,10.9130859 58.2421875,11.3525391 L58.2421875,22.7490234 L60.3222656,22.9980469 L60.3222656,24.5947266 L53.1298828,24.5947266 L53.1298828,22.9980469 L54.8876953,22.7636719 Z" id="Path"></path>
            <path d="M75.1025391,22.7490234 L75.1025391,10.4736328 L73.0078125,9.88769531 L73.0078125,8.12988281 L77.34375,7.54394531 L77.4169922,7.54394531 L78.1054688,8.11523438 L78.1054688,9.30175781 L78.0908203,9.97558594 C78.5400391,9.57519531 79.1040039,9.18945312 79.7827148,8.81835938 C80.4614258,8.44726562 81.1889648,8.14453125 81.965332,7.91015625 C82.7416992,7.67578125 83.4765625,7.55859375 84.1699219,7.55859375 C85.4394531,7.55859375 86.4208984,7.79541016 87.1142578,8.26904297 C87.8076172,8.74267578 88.2910156,9.47265625 88.5644531,10.4589844 C88.8378906,11.4453125 88.9746094,12.7832031 88.9746094,14.4726562 L88.9746094,22.7490234 L91.0839844,22.9980469 L91.0839844,24.5947266 L83.7304688,24.5947266 L83.7304688,22.9980469 L85.6054688,22.7490234 L85.6054688,14.4580078 C85.6054688,13.3251953 85.5297852,12.434082 85.378418,11.784668 C85.2270508,11.1352539 84.9414062,10.6469727 84.5214844,10.3198242 C84.1015625,9.99267578 83.4814453,9.82910156 82.6611328,9.82910156 C81.9580078,9.82910156 81.2255859,9.98046875 80.4638672,10.2832031 C79.7021484,10.5859375 79.0332031,10.9521484 78.4570312,11.3818359 L78.4570312,22.7490234 L80.4785156,22.9980469 L80.4785156,24.5947266 L73.1835938,24.5947266 L73.1835938,22.9980469 L75.1025391,22.7490234 Z" id="Path"></path>
            <path d="M100.927734,7.48535156 C102.626953,7.48535156 104.042969,7.86132812 105.175781,8.61328125 C106.308594,9.36523438 107.148438,10.3979492 107.695312,11.7114258 C108.242188,13.0249023 108.515625,14.5263672 108.515625,16.2158203 C108.515625,18.0224609 108.14209,19.5849609 107.39502,20.9033203 C106.647949,22.2216797 105.666504,23.2226562 104.450684,23.90625 C103.234863,24.5898438 101.938477,24.9316406 100.561523,24.9316406 C98.8623047,24.9316406 97.4487305,24.5556641 96.3208008,23.8037109 C95.1928711,23.0517578 94.3554688,22.019043 93.8085938,20.7055664 C93.2617188,19.3920898 92.9882812,17.890625 92.9882812,16.2011719 C92.9882812,14.4140625 93.3618164,12.8613281 94.1088867,11.5429688 C94.855957,10.2246094 95.8374023,9.21875 97.0532227,8.52539062 C98.269043,7.83203125 99.5605469,7.48535156 100.927734,7.48535156 Z M104.80957,16.4794922 C104.80957,14.2822266 104.484863,12.5366211 103.835449,11.2426758 C103.186035,9.94873047 102.158203,9.30175781 100.751953,9.30175781 C99.4042969,9.30175781 98.3886719,9.85595703 97.7050781,10.9643555 C97.0214844,12.0727539 96.6796875,13.7304688 96.6796875,15.9375 C96.6796875,18.1347656 97.0092773,19.8803711 97.668457,21.1743164 C98.3276367,22.4682617 99.3554688,23.1152344 100.751953,23.1152344 C103.457031,23.1152344 104.80957,20.9033203 104.80957,16.4794922 Z" id="Shape"></path>
            <polygon id="Path" points="113.115234 22.7490234 113.115234 2.31445312 110.712891 2.02148438 110.712891 0.629882812 115.708008 0 115.737305 0 116.455078 0.498046875 116.455078 22.7490234 118.945312 22.9980469 118.945312 24.5947266 110.742188 24.5947266 110.742188 22.9980469"></polygon>
            <path d="M128.847656,7.48535156 C130.546875,7.48535156 131.962891,7.86132812 133.095703,8.61328125 C134.228516,9.36523438 135.068359,10.3979492 135.615234,11.7114258 C136.162109,13.0249023 136.435547,14.5263672 136.435547,16.2158203 C136.435547,18.0224609 136.062012,19.5849609 135.314941,20.9033203 C134.567871,22.2216797 133.586426,23.2226562 132.370605,23.90625 C131.154785,24.5898438 129.858398,24.9316406 128.481445,24.9316406 C126.782227,24.9316406 125.368652,24.5556641 124.240723,23.8037109 C123.112793,23.0517578 122.275391,22.019043 121.728516,20.7055664 C121.181641,19.3920898 120.908203,17.890625 120.908203,16.2011719 C120.908203,14.4140625 121.281738,12.8613281 122.028809,11.5429688 C122.775879,10.2246094 123.757324,9.21875 124.973145,8.52539062 C126.188965,7.83203125 127.480469,7.48535156 128.847656,7.48535156 Z M132.729492,16.4794922 C132.729492,14.2822266 132.404785,12.5366211 131.755371,11.2426758 C131.105957,9.94873047 130.078125,9.30175781 128.671875,9.30175781 C127.324219,9.30175781 126.308594,9.85595703 125.625,10.9643555 C124.941406,12.0727539 124.599609,13.7304688 124.599609,15.9375 C124.599609,18.1347656 124.929199,19.8803711 125.588379,21.1743164 C126.247559,22.4682617 127.275391,23.1152344 128.671875,23.1152344 C131.376953,23.1152344 132.729492,20.9033203 132.729492,16.4794922 Z" id="Shape"></path>
            <path d="M146.103516,18.6621094 C145.302734,18.6621094 144.555664,18.5791016 143.862305,18.4130859 C143.588867,18.6572266 143.374023,18.9379883 143.217773,19.2553711 C143.061523,19.5727539 142.983398,19.8974609 142.983398,20.2294922 C142.983398,20.7177734 143.098145,21.0913086 143.327637,21.3500977 C143.557129,21.6088867 143.903809,21.7871094 144.367676,21.8847656 C144.831543,21.9824219 145.46875,22.03125 146.279297,22.03125 L149.472656,22.03125 C153.291016,22.03125 155.200195,23.4960938 155.200195,26.4257812 C155.200195,27.5585938 154.797363,28.6035156 153.991699,29.5605469 C153.186035,30.5175781 152.109375,31.2768555 150.761719,31.8383789 C149.414062,32.3999023 147.96875,32.6806641 146.425781,32.6806641 L146.411133,32.6806641 C143.793945,32.6806641 141.894531,32.2827148 140.712891,31.4868164 C139.53125,30.690918 138.94043,29.5654297 138.94043,28.1103516 C138.94043,27.2021484 139.206543,26.3793945 139.73877,25.6420898 C140.270996,24.9047852 140.913086,24.3457031 141.665039,23.9648438 C140.717773,23.4277344 140.244141,22.6074219 140.244141,21.5039062 C140.244141,20.7714844 140.454102,20.0952148 140.874023,19.4750977 C141.293945,18.8549805 141.845703,18.3544922 142.529297,17.9736328 C141.552734,17.5244141 140.803223,16.887207 140.280762,16.0620117 C139.758301,15.2368164 139.49707,14.2724609 139.49707,13.1689453 C139.49707,12.0166016 139.824219,11.0107422 140.478516,10.1513672 C141.132812,9.29199219 141.992188,8.63525391 143.056641,8.18115234 C144.121094,7.72705078 145.258789,7.49511719 146.469727,7.48535156 L146.484375,7.48535156 C147.539062,7.48535156 148.486328,7.60498047 149.326172,7.84423828 C150.166016,8.08349609 150.874023,8.4375 151.450195,8.90625 C151.743164,8.56445312 152.182617,8.23730469 152.768555,7.92480469 C153.354492,7.61230469 154.042969,7.45605469 154.833984,7.45605469 L155.625,7.45605469 L155.625,10.2978516 L152.548828,10.2978516 C152.890625,11.0107422 153.061523,11.796875 153.061523,12.65625 C153.061523,13.828125 152.758789,14.8706055 152.15332,15.7836914 C151.547852,16.6967773 150.717773,17.4047852 149.663086,17.9077148 C148.608398,18.4106445 147.426758,18.6621094 146.118164,18.6621094 L146.103516,18.6621094 Z M146.279297,9.19921875 C145.224609,9.19921875 144.406738,9.48486328 143.825684,10.0561523 C143.244629,10.6274414 142.954102,11.5625 142.954102,12.8613281 C142.954102,14.0917969 143.22998,15.0756836 143.781738,15.8129883 C144.333496,16.550293 145.214844,16.9189453 146.425781,16.9189453 L146.44043,16.9189453 C147.553711,16.9189453 148.361816,16.5869141 148.864746,15.9228516 C149.367676,15.2587891 149.619141,14.2871094 149.619141,13.0078125 C149.619141,11.6992188 149.348145,10.7373047 148.806152,10.1220703 C148.26416,9.50683594 147.426758,9.19921875 146.293945,9.19921875 L146.279297,9.19921875 Z M143.15918,24.4775391 C142.53418,25.2490234 142.22168,26.171875 142.22168,27.2460938 C142.22168,28.4179688 142.568359,29.3066406 143.261719,29.9121094 C143.955078,30.5175781 145.092773,30.8203125 146.674805,30.8203125 L146.704102,30.8203125 C147.583008,30.8203125 148.422852,30.6835938 149.223633,30.4101562 C150.024414,30.1367188 150.673828,29.7314453 151.171875,29.1943359 C151.669922,28.6572266 151.918945,28.0175781 151.918945,27.2753906 C151.918945,26.640625 151.82373,26.1401367 151.633301,25.7739258 C151.442871,25.4077148 151.09375,25.1318359 150.585938,24.9462891 C150.078125,24.7607422 149.34082,24.6679688 148.374023,24.6679688 L145.429688,24.6679688 C144.628906,24.6679688 143.87207,24.6044922 143.15918,24.4775391 Z" id="Shape"></path>
            <path d="M158.085938,29.0771484 C158.203125,29.1455078 158.442383,29.206543 158.803711,29.2602539 C159.165039,29.3139648 159.506836,29.3408203 159.829102,29.3408203 C160.415039,29.3408203 160.95459,29.2211914 161.447754,28.9819336 C161.940918,28.7426758 162.441406,28.2763672 162.949219,27.5830078 C163.457031,26.8896484 163.950195,25.8935547 164.428711,24.5947266 L162.773438,24.5947266 L157.294922,9.87304688 L155.90332,9.4921875 L155.90332,7.93945312 L163.359375,7.93945312 L163.359375,9.4921875 L161.05957,9.87304688 L163.886719,18.7207031 L165.19043,22.96875 L166.362305,18.7060547 L169.013672,9.85839844 L167.050781,9.4921875 L167.050781,7.93945312 L173.203125,7.93945312 L173.203125,9.4921875 L171.708984,9.85839844 C170.302734,14.2333984 169.157715,17.7270508 168.273926,20.3393555 C167.390137,22.9516602 166.826172,24.5361328 166.582031,25.0927734 C165.917969,26.7724609 165.290527,28.1005859 164.699707,29.0771484 C164.108887,30.0537109 163.425293,30.7958984 162.648926,31.3037109 C161.872559,31.8115234 160.922852,32.0654297 159.799805,32.0654297 C159.49707,32.0654297 159.169922,32.043457 158.818359,31.9995117 C158.466797,31.9555664 158.222656,31.9042969 158.085938,31.8457031 L158.085938,29.0771484 Z" id="Path"></path>
            <path d="M186.123047,22.6464844 L186.123047,4.29199219 L183.706055,3.92578125 L183.706055,2.29980469 L187.69043,2.29980469 C188.354492,2.29980469 189.204102,2.26074219 190.239258,2.18261719 C191.040039,2.11425781 191.728516,2.08007812 192.304688,2.08007812 C195.048828,2.08007812 197.038574,2.50732422 198.273926,3.36181641 C199.509277,4.21630859 200.126953,5.47363281 200.126953,7.13378906 C200.126953,8.06152344 199.94873,8.90869141 199.592285,9.67529297 C199.23584,10.4418945 198.720703,11.081543 198.046875,11.5942383 C197.373047,12.1069336 196.572266,12.4560547 195.644531,12.6416016 C196.865234,12.6123047 197.932129,12.8125 198.845215,13.2421875 C199.758301,13.671875 200.463867,14.2919922 200.961914,15.1025391 C201.459961,15.9130859 201.708984,16.8603516 201.708984,17.9443359 C201.708984,19.9560547 200.998535,21.5966797 199.577637,22.8662109 C198.156738,24.1357422 195.805664,24.7705078 192.524414,24.7705078 C192.163086,24.7705078 191.782227,24.7607422 191.381836,24.7412109 C190.981445,24.7216797 190.698242,24.7070312 190.532227,24.6972656 C189.350586,24.6289062 188.413086,24.5947266 187.719727,24.5947266 L183.662109,24.5947266 L183.662109,22.9980469 L186.123047,22.6464844 Z M189.550781,11.9824219 C190.048828,12.0214844 191.049805,12.0410156 192.553711,12.0410156 C195.317383,12.0410156 196.699219,10.6103516 196.699219,7.74902344 C196.699219,6.83105469 196.552734,6.08154297 196.259766,5.50048828 C195.966797,4.91943359 195.488281,4.48486328 194.824219,4.19677734 C194.160156,3.90869141 193.261719,3.76464844 192.128906,3.76464844 C191.425781,3.76464844 190.839844,3.79150391 190.371094,3.84521484 C189.902344,3.89892578 189.628906,3.93066406 189.550781,3.94042969 L189.550781,11.9824219 Z M189.536133,22.7929688 C189.770508,22.9003906 190.141602,22.9711914 190.649414,23.0053711 C191.157227,23.0395508 191.75293,23.0566406 192.436523,23.0566406 C194.389648,23.0566406 195.803223,22.6611328 196.677246,21.8701172 C197.55127,21.0791016 197.988281,19.9316406 197.988281,18.4277344 C197.988281,17.34375 197.817383,16.4697266 197.475586,15.8056641 C197.133789,15.1416016 196.594238,14.6557617 195.856934,14.3481445 C195.119629,14.0405273 194.150391,13.8867188 192.949219,13.8867188 L191.52832,13.8867188 C190.50293,13.8867188 189.838867,13.8964844 189.536133,13.9160156 L189.536133,22.7929688 Z" id="Shape"></path>
            <path d="M216.079102,22.6025391 C215.454102,23.2080078 214.663086,23.7475586 213.706055,24.2211914 C212.749023,24.6948242 211.782227,24.9316406 210.805664,24.9316406 C209.584961,24.9316406 208.59375,24.7143555 207.832031,24.2797852 C207.070312,23.8452148 206.508789,23.1542969 206.147461,22.2070312 C205.786133,21.2597656 205.605469,20.0097656 205.605469,18.4570312 L205.605469,9.9609375 L203.979492,9.41894531 L203.979492,7.99804688 L208.31543,7.55859375 L208.330078,7.55859375 L208.945312,7.95410156 L208.945312,18.2958984 C208.945312,19.4091797 209.02832,20.2783203 209.194336,20.9033203 C209.360352,21.5283203 209.65332,21.9848633 210.073242,22.2729492 C210.493164,22.5610352 211.098633,22.7050781 211.889648,22.7050781 C212.651367,22.7050781 213.359375,22.5585938 214.013672,22.265625 C214.667969,21.9726562 215.234375,21.6357422 215.712891,21.2548828 L215.712891,9.97558594 L213.618164,9.40429688 L213.618164,7.98339844 L218.24707,7.55859375 L218.276367,7.55859375 L219.052734,7.95410156 L219.052734,22.9394531 L220.810547,22.9394531 L220.810547,24.4042969 C220.244141,24.5703125 219.753418,24.699707 219.338379,24.7924805 C218.92334,24.8852539 218.447266,24.9316406 217.910156,24.9316406 C217.285156,24.9316406 216.82373,24.8120117 216.525879,24.5727539 C216.228027,24.3334961 216.079102,23.9306641 216.079102,23.3642578 L216.079102,22.6025391 Z" id="Path"></path>
            <path d="M225.439453,22.7490234 L225.439453,10.4736328 L223.31543,9.87304688 L223.31543,8.14453125 L227.973633,7.54394531 L228.046875,7.54394531 L228.793945,8.11523438 L228.793945,22.7490234 L231.137695,22.9980469 L231.137695,24.5947266 L223.066406,24.5947266 L223.066406,22.9980469 L225.439453,22.7490234 Z M224.838867,2.78320312 C224.838867,2.11914062 225.031738,1.55761719 225.41748,1.09863281 C225.803223,0.639648438 226.342773,0.41015625 227.036133,0.41015625 L227.050781,0.41015625 C227.460938,0.41015625 227.817383,0.505371094 228.120117,0.695800781 C228.422852,0.886230469 228.654785,1.13769531 228.815918,1.45019531 C228.977051,1.76269531 229.057617,2.09472656 229.057617,2.44628906 C229.057617,3.12988281 228.862305,3.69140625 228.47168,4.13085938 C228.081055,4.5703125 227.514648,4.79003906 226.772461,4.79003906 L226.757812,4.79003906 C226.191406,4.79003906 225.72998,4.59960938 225.373535,4.21875 C225.01709,3.83789062 224.838867,3.359375 224.838867,2.78320312 Z" id="Shape"></path>
            <path d="M235.766602,19.8339844 L236.352539,22.0605469 C236.469727,22.265625 236.696777,22.4609375 237.033691,22.6464844 C237.370605,22.8320312 237.768555,22.9833984 238.227539,23.1005859 C238.686523,23.2177734 239.155273,23.2763672 239.633789,23.2763672 C240.737305,23.2763672 241.523438,23.0688477 241.992188,22.6538086 C242.460938,22.2387695 242.695312,21.6699219 242.695312,20.9472656 C242.695312,20.4394531 242.536621,19.9926758 242.219238,19.6069336 C241.901855,19.2211914 241.430664,18.8574219 240.805664,18.515625 C240.180664,18.1738281 239.331055,17.7880859 238.256836,17.3583984 C236.704102,16.7529297 235.571289,16.0375977 234.858398,15.2124023 C234.145508,14.387207 233.789062,13.3203125 233.789062,12.0117188 C233.789062,11.1328125 234.055176,10.3588867 234.587402,9.68994141 C235.119629,9.02099609 235.849609,8.50097656 236.777344,8.12988281 C237.705078,7.75878906 238.75,7.57324219 239.912109,7.57324219 C240.810547,7.57324219 241.601562,7.64404297 242.285156,7.78564453 C242.96875,7.92724609 243.657227,8.11035156 244.350586,8.33496094 L244.87793,8.49609375 L244.87793,12.2021484 L243.00293,12.2021484 L242.373047,10.1513672 C242.255859,9.89746094 241.940918,9.67773438 241.428223,9.4921875 C240.915527,9.30664062 240.341797,9.21386719 239.707031,9.21386719 C238.808594,9.21386719 238.115234,9.40429688 237.626953,9.78515625 C237.138672,10.1660156 236.894531,10.6640625 236.894531,11.2792969 C236.894531,11.8261719 237.038574,12.2851562 237.32666,12.65625 C237.614746,13.0273438 237.973633,13.3300781 238.40332,13.5644531 C238.833008,13.7988281 239.433594,14.0771484 240.205078,14.3994141 L240.776367,14.6484375 C241.889648,15.1269531 242.792969,15.5761719 243.486328,15.9960938 C244.179688,16.4160156 244.755859,16.953125 245.214844,17.6074219 C245.673828,18.2617188 245.90332,19.0625 245.90332,20.0097656 C245.90332,20.9863281 245.646973,21.8457031 245.134277,22.5878906 C244.621582,23.3300781 243.879395,23.90625 242.907715,24.3164062 C241.936035,24.7265625 240.786133,24.9316406 239.458008,24.9316406 C238.461914,24.9316406 237.416992,24.7949219 236.323242,24.5214844 C235.229492,24.2480469 234.355469,23.9648438 233.701172,23.671875 L233.701172,19.8339844 L235.766602,19.8339844 Z" id="Path"></path>
            <path d="M250.649414,22.7490234 L250.649414,10.4736328 L248.554688,9.88769531 L248.554688,8.12988281 L252.890625,7.54394531 L252.963867,7.54394531 L253.652344,8.11523438 L253.652344,9.30175781 L253.637695,9.97558594 C254.086914,9.57519531 254.650879,9.18945312 255.32959,8.81835938 C256.008301,8.44726562 256.73584,8.14453125 257.512207,7.91015625 C258.288574,7.67578125 259.023438,7.55859375 259.716797,7.55859375 C260.986328,7.55859375 261.967773,7.79541016 262.661133,8.26904297 C263.354492,8.74267578 263.837891,9.47265625 264.111328,10.4589844 C264.384766,11.4453125 264.521484,12.7832031 264.521484,14.4726562 L264.521484,22.7490234 L266.630859,22.9980469 L266.630859,24.5947266 L259.277344,24.5947266 L259.277344,22.9980469 L261.152344,22.7490234 L261.152344,14.4580078 C261.152344,13.3251953 261.07666,12.434082 260.925293,11.784668 C260.773926,11.1352539 260.488281,10.6469727 260.068359,10.3198242 C259.648438,9.99267578 259.02832,9.82910156 258.208008,9.82910156 C257.504883,9.82910156 256.772461,9.98046875 256.010742,10.2832031 C255.249023,10.5859375 254.580078,10.9521484 254.003906,11.3818359 L254.003906,22.7490234 L256.025391,22.9980469 L256.025391,24.5947266 L248.730469,24.5947266 L248.730469,22.9980469 L250.649414,22.7490234 Z" id="Path"></path>
            <path d="M268.623047,16.2304688 C268.623047,14.5117188 268.959961,12.9882812 269.633789,11.6601562 C270.307617,10.3320312 271.240234,9.30419922 272.431641,8.57666016 C273.623047,7.84912109 274.975586,7.48535156 276.489258,7.48535156 C278.364258,7.48535156 279.814453,7.99804688 280.839844,9.0234375 C281.865234,10.0488281 282.412109,11.5283203 282.480469,13.4619141 L282.480469,13.9892578 C282.480469,15.0146484 282.421875,15.7958984 282.304688,16.3330078 L272.15332,16.3330078 C272.192383,17.7685547 272.436523,18.9599609 272.885742,19.9072266 C273.334961,20.8544922 273.925781,21.5527344 274.658203,22.0019531 C275.390625,22.4511719 276.21582,22.6757812 277.133789,22.6757812 C277.93457,22.6757812 278.757324,22.5366211 279.602051,22.2583008 C280.446777,21.9799805 281.108398,21.6601562 281.586914,21.2988281 L282.202148,22.7050781 C281.831055,23.0859375 281.320801,23.4472656 280.671387,23.7890625 C280.021973,24.1308594 279.299316,24.4067383 278.503418,24.6166992 C277.70752,24.8266602 276.918945,24.9316406 276.137695,24.9316406 C274.49707,24.9316406 273.112793,24.5678711 271.984863,23.840332 C270.856934,23.112793 270.014648,22.097168 269.458008,20.793457 C268.901367,19.4897461 268.623047,17.96875 268.623047,16.2304688 Z M278.964844,14.6337891 C279.003906,14.2822266 279.023438,13.8623047 279.023438,13.3740234 C279.013672,12.1337891 278.754883,11.1376953 278.24707,10.3857422 C277.739258,9.63378906 276.938477,9.2578125 275.844727,9.2578125 C274.750977,9.2578125 273.884277,9.66552734 273.244629,10.480957 C272.60498,11.2963867 272.241211,12.6806641 272.15332,14.6337891 L278.964844,14.6337891 Z" id="Shape"></path>
            <path d="M287.475586,19.8339844 L288.061523,22.0605469 C288.178711,22.265625 288.405762,22.4609375 288.742676,22.6464844 C289.07959,22.8320312 289.477539,22.9833984 289.936523,23.1005859 C290.395508,23.2177734 290.864258,23.2763672 291.342773,23.2763672 C292.446289,23.2763672 293.232422,23.0688477 293.701172,22.6538086 C294.169922,22.2387695 294.404297,21.6699219 294.404297,20.9472656 C294.404297,20.4394531 294.245605,19.9926758 293.928223,19.6069336 C293.61084,19.2211914 293.139648,18.8574219 292.514648,18.515625 C291.889648,18.1738281 291.040039,17.7880859 289.96582,17.3583984 C288.413086,16.7529297 287.280273,16.0375977 286.567383,15.2124023 C285.854492,14.387207 285.498047,13.3203125 285.498047,12.0117188 C285.498047,11.1328125 285.76416,10.3588867 286.296387,9.68994141 C286.828613,9.02099609 287.558594,8.50097656 288.486328,8.12988281 C289.414062,7.75878906 290.458984,7.57324219 291.621094,7.57324219 C292.519531,7.57324219 293.310547,7.64404297 293.994141,7.78564453 C294.677734,7.92724609 295.366211,8.11035156 296.05957,8.33496094 L296.586914,8.49609375 L296.586914,12.2021484 L294.711914,12.2021484 L294.082031,10.1513672 C293.964844,9.89746094 293.649902,9.67773438 293.137207,9.4921875 C292.624512,9.30664062 292.050781,9.21386719 291.416016,9.21386719 C290.517578,9.21386719 289.824219,9.40429688 289.335938,9.78515625 C288.847656,10.1660156 288.603516,10.6640625 288.603516,11.2792969 C288.603516,11.8261719 288.747559,12.2851562 289.035645,12.65625 C289.32373,13.0273438 289.682617,13.3300781 290.112305,13.5644531 C290.541992,13.7988281 291.142578,14.0771484 291.914062,14.3994141 L292.485352,14.6484375 C293.598633,15.1269531 294.501953,15.5761719 295.195312,15.9960938 C295.888672,16.4160156 296.464844,16.953125 296.923828,17.6074219 C297.382812,18.2617188 297.612305,19.0625 297.612305,20.0097656 C297.612305,20.9863281 297.355957,21.8457031 296.843262,22.5878906 C296.330566,23.3300781 295.588379,23.90625 294.616699,24.3164062 C293.64502,24.7265625 292.495117,24.9316406 291.166992,24.9316406 C290.170898,24.9316406 289.125977,24.7949219 288.032227,24.5214844 C286.938477,24.2480469 286.064453,23.9648438 285.410156,23.671875 L285.410156,19.8339844 L287.475586,19.8339844 Z" id="Path"></path>
            <path d="M302.753906,19.8339844 L303.339844,22.0605469 C303.457031,22.265625 303.684082,22.4609375 304.020996,22.6464844 C304.35791,22.8320312 304.755859,22.9833984 305.214844,23.1005859 C305.673828,23.2177734 306.142578,23.2763672 306.621094,23.2763672 C307.724609,23.2763672 308.510742,23.0688477 308.979492,22.6538086 C309.448242,22.2387695 309.682617,21.6699219 309.682617,20.9472656 C309.682617,20.4394531 309.523926,19.9926758 309.206543,19.6069336 C308.88916,19.2211914 308.417969,18.8574219 307.792969,18.515625 C307.167969,18.1738281 306.318359,17.7880859 305.244141,17.3583984 C303.691406,16.7529297 302.558594,16.0375977 301.845703,15.2124023 C301.132812,14.387207 300.776367,13.3203125 300.776367,12.0117188 C300.776367,11.1328125 301.04248,10.3588867 301.574707,9.68994141 C302.106934,9.02099609 302.836914,8.50097656 303.764648,8.12988281 C304.692383,7.75878906 305.737305,7.57324219 306.899414,7.57324219 C307.797852,7.57324219 308.588867,7.64404297 309.272461,7.78564453 C309.956055,7.92724609 310.644531,8.11035156 311.337891,8.33496094 L311.865234,8.49609375 L311.865234,12.2021484 L309.990234,12.2021484 L309.360352,10.1513672 C309.243164,9.89746094 308.928223,9.67773438 308.415527,9.4921875 C307.902832,9.30664062 307.329102,9.21386719 306.694336,9.21386719 C305.795898,9.21386719 305.102539,9.40429688 304.614258,9.78515625 C304.125977,10.1660156 303.881836,10.6640625 303.881836,11.2792969 C303.881836,11.8261719 304.025879,12.2851562 304.313965,12.65625 C304.602051,13.0273438 304.960938,13.3300781 305.390625,13.5644531 C305.820312,13.7988281 306.420898,14.0771484 307.192383,14.3994141 L307.763672,14.6484375 C308.876953,15.1269531 309.780273,15.5761719 310.473633,15.9960938 C311.166992,16.4160156 311.743164,16.953125 312.202148,17.6074219 C312.661133,18.2617188 312.890625,19.0625 312.890625,20.0097656 C312.890625,20.9863281 312.634277,21.8457031 312.121582,22.5878906 C311.608887,23.3300781 310.866699,23.90625 309.89502,24.3164062 C308.92334,24.7265625 307.773438,24.9316406 306.445312,24.9316406 C305.449219,24.9316406 304.404297,24.7949219 303.310547,24.5214844 C302.216797,24.2480469 301.342773,23.9648438 300.688477,23.671875 L300.688477,19.8339844 L302.753906,19.8339844 Z" id="Path"></path>
            <polygon id="Path" points="325.869141 22.6611328 328.066406 4.29199219 324.931641 3.92578125 324.931641 2.29980469 332.929688 2.29980469 337.529297 15.7324219 338.291016 19.1015625 338.950195 15.7324219 343.007812 2.29980469 351.005859 2.29980469 351.005859 3.92578125 347.753906 4.30664062 350.595703 22.6464844 353.217773 22.9980469 353.217773 24.5947266 344.516602 24.5947266 344.516602 22.9980469 347.109375 22.6611328 345.263672 9.36035156 344.619141 3.515625 343.608398 7.52929688 338.833008 23.5986328 336.943359 23.5986328 331.655273 9.16992188 330.029297 3.53027344 329.560547 9.34570312 328.374023 22.6464844 331.259766 22.9980469 331.259766 24.5947266 323.261719 24.5947266 323.261719 22.9980469"></polygon>
            <path d="M364.277344,13.7109375 C364.277344,12.7929688 364.182129,12.0703125 363.991699,11.5429688 C363.80127,11.015625 363.47168,10.6298828 363.00293,10.3857422 C362.53418,10.1416016 361.870117,10.0195312 361.010742,10.0195312 C359.360352,10.0195312 357.62207,10.4833984 355.795898,11.4111328 L355.78125,11.4111328 L355.048828,9.88769531 C355.3125,9.65332031 355.817871,9.35058594 356.564941,8.97949219 C357.312012,8.60839844 358.161621,8.28369141 359.11377,8.00537109 C360.065918,7.72705078 360.97168,7.58789062 361.831055,7.58789062 C363.256836,7.58789062 364.377441,7.78076172 365.192871,8.16650391 C366.008301,8.55224609 366.59668,9.16992188 366.958008,10.0195312 C367.319336,10.8691406 367.5,12.0166016 367.5,13.4619141 L367.5,22.9833984 L369.287109,22.9833984 L369.287109,24.4189453 C367.861328,24.7607422 366.787109,24.9316406 366.064453,24.9316406 C365.654297,24.9316406 365.341797,24.8974609 365.126953,24.8291016 C364.912109,24.7607422 364.753418,24.621582 364.650879,24.4116211 C364.54834,24.2016602 364.49707,23.8769531 364.49707,23.4375 L364.49707,22.734375 C363.969727,23.2519531 363.276367,23.7475586 362.416992,24.2211914 C361.557617,24.6948242 360.595703,24.9316406 359.53125,24.9316406 C358.59375,24.9316406 357.741699,24.7607422 356.975098,24.4189453 C356.208496,24.0771484 355.598145,23.5498047 355.144043,22.8369141 C354.689941,22.1240234 354.462891,21.2353516 354.462891,20.1708984 C354.462891,18.8720703 354.914551,17.8027344 355.817871,16.9628906 C356.721191,16.1230469 357.907715,15.5053711 359.377441,15.1098633 C360.847168,14.7143555 362.480469,14.5019531 364.277344,14.4726562 L364.277344,13.7109375 Z M364.277344,16.1279297 C362.841797,16.1279297 361.662598,16.2915039 360.739746,16.6186523 C359.816895,16.9458008 359.147949,17.3779297 358.73291,17.9150391 C358.317871,18.4521484 358.110352,19.0625 358.110352,19.7460938 C358.110352,20.7714844 358.364258,21.5234375 358.87207,22.0019531 C359.379883,22.4804688 360.063477,22.7197266 360.922852,22.7197266 C361.381836,22.7197266 361.936035,22.590332 362.585449,22.331543 C363.234863,22.0727539 363.798828,21.7578125 364.277344,21.3867188 L364.277344,16.1279297 Z" id="Shape"></path>
            <path d="M373.447266,22.7490234 L373.447266,10.4736328 L371.352539,9.88769531 L371.352539,8.12988281 L375.688477,7.54394531 L375.761719,7.54394531 L376.450195,8.11523438 L376.450195,9.30175781 L376.435547,9.97558594 C376.884766,9.57519531 377.44873,9.18945312 378.127441,8.81835938 C378.806152,8.44726562 379.533691,8.14453125 380.310059,7.91015625 C381.086426,7.67578125 381.821289,7.55859375 382.514648,7.55859375 C383.78418,7.55859375 384.765625,7.79541016 385.458984,8.26904297 C386.152344,8.74267578 386.635742,9.47265625 386.90918,10.4589844 C387.182617,11.4453125 387.319336,12.7832031 387.319336,14.4726562 L387.319336,22.7490234 L389.428711,22.9980469 L389.428711,24.5947266 L382.075195,24.5947266 L382.075195,22.9980469 L383.950195,22.7490234 L383.950195,14.4580078 C383.950195,13.3251953 383.874512,12.434082 383.723145,11.784668 C383.571777,11.1352539 383.286133,10.6469727 382.866211,10.3198242 C382.446289,9.99267578 381.826172,9.82910156 381.005859,9.82910156 C380.302734,9.82910156 379.570312,9.98046875 378.808594,10.2832031 C378.046875,10.5859375 377.37793,10.9521484 376.801758,11.3818359 L376.801758,22.7490234 L378.823242,22.9980469 L378.823242,24.5947266 L371.52832,24.5947266 L371.52832,22.9980469 L373.447266,22.7490234 Z" id="Path"></path>
            <path d="M401.235352,13.7109375 C401.235352,12.7929688 401.140137,12.0703125 400.949707,11.5429688 C400.759277,11.015625 400.429688,10.6298828 399.960938,10.3857422 C399.492188,10.1416016 398.828125,10.0195312 397.96875,10.0195312 C396.318359,10.0195312 394.580078,10.4833984 392.753906,11.4111328 L392.739258,11.4111328 L392.006836,9.88769531 C392.270508,9.65332031 392.775879,9.35058594 393.522949,8.97949219 C394.27002,8.60839844 395.119629,8.28369141 396.071777,8.00537109 C397.023926,7.72705078 397.929688,7.58789062 398.789062,7.58789062 C400.214844,7.58789062 401.335449,7.78076172 402.150879,8.16650391 C402.966309,8.55224609 403.554688,9.16992188 403.916016,10.0195312 C404.277344,10.8691406 404.458008,12.0166016 404.458008,13.4619141 L404.458008,22.9833984 L406.245117,22.9833984 L406.245117,24.4189453 C404.819336,24.7607422 403.745117,24.9316406 403.022461,24.9316406 C402.612305,24.9316406 402.299805,24.8974609 402.084961,24.8291016 C401.870117,24.7607422 401.711426,24.621582 401.608887,24.4116211 C401.506348,24.2016602 401.455078,23.8769531 401.455078,23.4375 L401.455078,22.734375 C400.927734,23.2519531 400.234375,23.7475586 399.375,24.2211914 C398.515625,24.6948242 397.553711,24.9316406 396.489258,24.9316406 C395.551758,24.9316406 394.699707,24.7607422 393.933105,24.4189453 C393.166504,24.0771484 392.556152,23.5498047 392.102051,22.8369141 C391.647949,22.1240234 391.420898,21.2353516 391.420898,20.1708984 C391.420898,18.8720703 391.872559,17.8027344 392.775879,16.9628906 C393.679199,16.1230469 394.865723,15.5053711 396.335449,15.1098633 C397.805176,14.7143555 399.438477,14.5019531 401.235352,14.4726562 L401.235352,13.7109375 Z M401.235352,16.1279297 C399.799805,16.1279297 398.620605,16.2915039 397.697754,16.6186523 C396.774902,16.9458008 396.105957,17.3779297 395.690918,17.9150391 C395.275879,18.4521484 395.068359,19.0625 395.068359,19.7460938 C395.068359,20.7714844 395.322266,21.5234375 395.830078,22.0019531 C396.337891,22.4804688 397.021484,22.7197266 397.880859,22.7197266 C398.339844,22.7197266 398.894043,22.590332 399.543457,22.331543 C400.192871,22.0727539 400.756836,21.7578125 401.235352,21.3867188 L401.235352,16.1279297 Z" id="Shape"></path>
            <path d="M415.50293,18.6621094 C414.702148,18.6621094 413.955078,18.5791016 413.261719,18.4130859 C412.988281,18.6572266 412.773438,18.9379883 412.617188,19.2553711 C412.460938,19.5727539 412.382812,19.8974609 412.382812,20.2294922 C412.382812,20.7177734 412.497559,21.0913086 412.727051,21.3500977 C412.956543,21.6088867 413.303223,21.7871094 413.76709,21.8847656 C414.230957,21.9824219 414.868164,22.03125 415.678711,22.03125 L418.87207,22.03125 C422.69043,22.03125 424.599609,23.4960938 424.599609,26.4257812 C424.599609,27.5585938 424.196777,28.6035156 423.391113,29.5605469 C422.585449,30.5175781 421.508789,31.2768555 420.161133,31.8383789 C418.813477,32.3999023 417.368164,32.6806641 415.825195,32.6806641 L415.810547,32.6806641 C413.193359,32.6806641 411.293945,32.2827148 410.112305,31.4868164 C408.930664,30.690918 408.339844,29.5654297 408.339844,28.1103516 C408.339844,27.2021484 408.605957,26.3793945 409.138184,25.6420898 C409.67041,24.9047852 410.3125,24.3457031 411.064453,23.9648438 C410.117188,23.4277344 409.643555,22.6074219 409.643555,21.5039062 C409.643555,20.7714844 409.853516,20.0952148 410.273438,19.4750977 C410.693359,18.8549805 411.245117,18.3544922 411.928711,17.9736328 C410.952148,17.5244141 410.202637,16.887207 409.680176,16.0620117 C409.157715,15.2368164 408.896484,14.2724609 408.896484,13.1689453 C408.896484,12.0166016 409.223633,11.0107422 409.87793,10.1513672 C410.532227,9.29199219 411.391602,8.63525391 412.456055,8.18115234 C413.520508,7.72705078 414.658203,7.49511719 415.869141,7.48535156 L415.883789,7.48535156 C416.938477,7.48535156 417.885742,7.60498047 418.725586,7.84423828 C419.56543,8.08349609 420.273438,8.4375 420.849609,8.90625 C421.142578,8.56445312 421.582031,8.23730469 422.167969,7.92480469 C422.753906,7.61230469 423.442383,7.45605469 424.233398,7.45605469 L425.024414,7.45605469 L425.024414,10.2978516 L421.948242,10.2978516 C422.290039,11.0107422 422.460938,11.796875 422.460938,12.65625 C422.460938,13.828125 422.158203,14.8706055 421.552734,15.7836914 C420.947266,16.6967773 420.117188,17.4047852 419.0625,17.9077148 C418.007812,18.4106445 416.826172,18.6621094 415.517578,18.6621094 L415.50293,18.6621094 Z M415.678711,9.19921875 C414.624023,9.19921875 413.806152,9.48486328 413.225098,10.0561523 C412.644043,10.6274414 412.353516,11.5625 412.353516,12.8613281 C412.353516,14.0917969 412.629395,15.0756836 413.181152,15.8129883 C413.73291,16.550293 414.614258,16.9189453 415.825195,16.9189453 L415.839844,16.9189453 C416.953125,16.9189453 417.76123,16.5869141 418.26416,15.9228516 C418.76709,15.2587891 419.018555,14.2871094 419.018555,13.0078125 C419.018555,11.6992188 418.747559,10.7373047 418.205566,10.1220703 C417.663574,9.50683594 416.826172,9.19921875 415.693359,9.19921875 L415.678711,9.19921875 Z M412.558594,24.4775391 C411.933594,25.2490234 411.621094,26.171875 411.621094,27.2460938 C411.621094,28.4179688 411.967773,29.3066406 412.661133,29.9121094 C413.354492,30.5175781 414.492188,30.8203125 416.074219,30.8203125 L416.103516,30.8203125 C416.982422,30.8203125 417.822266,30.6835938 418.623047,30.4101562 C419.423828,30.1367188 420.073242,29.7314453 420.571289,29.1943359 C421.069336,28.6572266 421.318359,28.0175781 421.318359,27.2753906 C421.318359,26.640625 421.223145,26.1401367 421.032715,25.7739258 C420.842285,25.4077148 420.493164,25.1318359 419.985352,24.9462891 C419.477539,24.7607422 418.740234,24.6679688 417.773438,24.6679688 L414.829102,24.6679688 C414.02832,24.6679688 413.271484,24.6044922 412.558594,24.4775391 Z" id="Shape"></path>
            <path d="M426.591797,16.2304688 C426.591797,14.5117188 426.928711,12.9882812 427.602539,11.6601562 C428.276367,10.3320312 429.208984,9.30419922 430.400391,8.57666016 C431.591797,7.84912109 432.944336,7.48535156 434.458008,7.48535156 C436.333008,7.48535156 437.783203,7.99804688 438.808594,9.0234375 C439.833984,10.0488281 440.380859,11.5283203 440.449219,13.4619141 L440.449219,13.9892578 C440.449219,15.0146484 440.390625,15.7958984 440.273438,16.3330078 L430.12207,16.3330078 C430.161133,17.7685547 430.405273,18.9599609 430.854492,19.9072266 C431.303711,20.8544922 431.894531,21.5527344 432.626953,22.0019531 C433.359375,22.4511719 434.18457,22.6757812 435.102539,22.6757812 C435.90332,22.6757812 436.726074,22.5366211 437.570801,22.2583008 C438.415527,21.9799805 439.077148,21.6601562 439.555664,21.2988281 L440.170898,22.7050781 C439.799805,23.0859375 439.289551,23.4472656 438.640137,23.7890625 C437.990723,24.1308594 437.268066,24.4067383 436.472168,24.6166992 C435.67627,24.8266602 434.887695,24.9316406 434.106445,24.9316406 C432.46582,24.9316406 431.081543,24.5678711 429.953613,23.840332 C428.825684,23.112793 427.983398,22.097168 427.426758,20.793457 C426.870117,19.4897461 426.591797,17.96875 426.591797,16.2304688 Z M436.933594,14.6337891 C436.972656,14.2822266 436.992188,13.8623047 436.992188,13.3740234 C436.982422,12.1337891 436.723633,11.1376953 436.21582,10.3857422 C435.708008,9.63378906 434.907227,9.2578125 433.813477,9.2578125 C432.719727,9.2578125 431.853027,9.66552734 431.213379,10.480957 C430.57373,11.2963867 430.209961,12.6806641 430.12207,14.6337891 L436.933594,14.6337891 Z" id="Shape"></path>
            <path d="M445.048828,22.7636719 L445.048828,10.4736328 L442.954102,9.88769531 L442.954102,8.12988281 L447.275391,7.54394531 L447.348633,7.54394531 L448.051758,8.11523438 L448.051758,9.30175781 L448.022461,9.97558594 C448.461914,9.57519531 449.030762,9.18945312 449.729004,8.81835938 C450.427246,8.44726562 451.164551,8.14453125 451.940918,7.91015625 C452.717285,7.67578125 453.422852,7.55859375 454.057617,7.55859375 C455.131836,7.55859375 455.996094,7.73925781 456.650391,8.10058594 C457.304688,8.46191406 457.802734,9.0234375 458.144531,9.78515625 C458.525391,9.453125 459.050293,9.11376953 459.719238,8.76708984 C460.388184,8.42041016 461.103516,8.13232422 461.865234,7.90283203 C462.626953,7.67333984 463.334961,7.55859375 463.989258,7.55859375 C465.258789,7.55859375 466.245117,7.79541016 466.948242,8.26904297 C467.651367,8.74267578 468.144531,9.47021484 468.427734,10.4516602 C468.710938,11.4331055 468.852539,12.7587891 468.852539,14.4287109 L468.852539,22.7636719 L470.947266,23.0126953 L470.947266,24.5947266 L463.769531,24.5947266 L463.769531,23.0126953 L465.498047,22.7490234 L465.498047,14.53125 C465.498047,13.3886719 465.415039,12.4853516 465.249023,11.8212891 C465.083008,11.1572266 464.770508,10.6567383 464.311523,10.3198242 C463.852539,9.98291016 463.193359,9.81445312 462.333984,9.81445312 C461.738281,9.81445312 461.088867,9.95117188 460.385742,10.2246094 C459.682617,10.4980469 459.077148,10.8154297 458.569336,11.1767578 C458.745117,12.0166016 458.833008,13.1152344 458.833008,14.4726562 L458.833008,22.7490234 L460.97168,23.0126953 L460.97168,24.5947266 L453.530273,24.5947266 L453.530273,23.0126953 L455.478516,22.7490234 L455.478516,14.4580078 C455.478516,13.3154297 455.405273,12.421875 455.258789,11.7773438 C455.112305,11.1328125 454.82666,10.6469727 454.401855,10.3198242 C453.977051,9.99267578 453.354492,9.82910156 452.53418,9.82910156 C451.850586,9.82910156 451.132812,9.97558594 450.380859,10.2685547 C449.628906,10.5615234 448.969727,10.9228516 448.40332,11.3525391 L448.40332,22.7490234 L450.366211,23.0126953 L450.366211,24.5947266 L443.217773,24.5947266 L443.217773,23.0126953 L445.048828,22.7636719 Z" id="Path"></path>
            <path d="M472.96875,16.2304688 C472.96875,14.5117188 473.305664,12.9882812 473.979492,11.6601562 C474.65332,10.3320312 475.585938,9.30419922 476.777344,8.57666016 C477.96875,7.84912109 479.321289,7.48535156 480.834961,7.48535156 C482.709961,7.48535156 484.160156,7.99804688 485.185547,9.0234375 C486.210938,10.0488281 486.757812,11.5283203 486.826172,13.4619141 L486.826172,13.9892578 C486.826172,15.0146484 486.767578,15.7958984 486.650391,16.3330078 L476.499023,16.3330078 C476.538086,17.7685547 476.782227,18.9599609 477.231445,19.9072266 C477.680664,20.8544922 478.271484,21.5527344 479.003906,22.0019531 C479.736328,22.4511719 480.561523,22.6757812 481.479492,22.6757812 C482.280273,22.6757812 483.103027,22.5366211 483.947754,22.2583008 C484.79248,21.9799805 485.454102,21.6601562 485.932617,21.2988281 L486.547852,22.7050781 C486.176758,23.0859375 485.666504,23.4472656 485.01709,23.7890625 C484.367676,24.1308594 483.64502,24.4067383 482.849121,24.6166992 C482.053223,24.8266602 481.264648,24.9316406 480.483398,24.9316406 C478.842773,24.9316406 477.458496,24.5678711 476.330566,23.840332 C475.202637,23.112793 474.360352,22.097168 473.803711,20.793457 C473.24707,19.4897461 472.96875,17.96875 472.96875,16.2304688 Z M483.310547,14.6337891 C483.349609,14.2822266 483.369141,13.8623047 483.369141,13.3740234 C483.359375,12.1337891 483.100586,11.1376953 482.592773,10.3857422 C482.084961,9.63378906 481.28418,9.2578125 480.19043,9.2578125 C479.09668,9.2578125 478.22998,9.66552734 477.590332,10.480957 C476.950684,11.2963867 476.586914,12.6806641 476.499023,14.6337891 L483.310547,14.6337891 Z" id="Shape"></path>
            <path d="M491.425781,22.7490234 L491.425781,10.4736328 L489.331055,9.88769531 L489.331055,8.12988281 L493.666992,7.54394531 L493.740234,7.54394531 L494.428711,8.11523438 L494.428711,9.30175781 L494.414062,9.97558594 C494.863281,9.57519531 495.427246,9.18945312 496.105957,8.81835938 C496.784668,8.44726562 497.512207,8.14453125 498.288574,7.91015625 C499.064941,7.67578125 499.799805,7.55859375 500.493164,7.55859375 C501.762695,7.55859375 502.744141,7.79541016 503.4375,8.26904297 C504.130859,8.74267578 504.614258,9.47265625 504.887695,10.4589844 C505.161133,11.4453125 505.297852,12.7832031 505.297852,14.4726562 L505.297852,22.7490234 L507.407227,22.9980469 L507.407227,24.5947266 L500.053711,24.5947266 L500.053711,22.9980469 L501.928711,22.7490234 L501.928711,14.4580078 C501.928711,13.3251953 501.853027,12.434082 501.70166,11.784668 C501.550293,11.1352539 501.264648,10.6469727 500.844727,10.3198242 C500.424805,9.99267578 499.804688,9.82910156 498.984375,9.82910156 C498.28125,9.82910156 497.548828,9.98046875 496.787109,10.2832031 C496.025391,10.5859375 495.356445,10.9521484 494.780273,11.3818359 L494.780273,22.7490234 L496.801758,22.9980469 L496.801758,24.5947266 L489.506836,24.5947266 L489.506836,22.9980469 L491.425781,22.7490234 Z" id="Path"></path>
            <path d="M509.135742,10.0341797 L509.135742,8.64257812 C509.40918,8.57421875 509.724121,8.4765625 510.080566,8.34960938 C510.437012,8.22265625 510.668945,8.125 510.776367,8.05664062 C511.098633,7.82226562 511.362305,7.44140625 511.567383,6.9140625 C511.713867,6.58203125 511.906738,6.05224609 512.145996,5.32470703 C512.385254,4.59716797 512.548828,4.04785156 512.636719,3.67675781 L514.541016,3.67675781 L514.570312,7.93945312 L519.492188,7.93945312 L519.492188,10.0341797 L514.584961,10.0341797 L514.584961,18.8964844 C514.584961,20.0878906 514.619141,20.9155273 514.6875,21.3793945 C514.755859,21.8432617 514.89502,22.1411133 515.10498,22.2729492 C515.314941,22.4047852 515.698242,22.4707031 516.254883,22.4707031 L516.269531,22.4707031 C516.777344,22.4707031 517.351074,22.4072266 517.990723,22.2802734 C518.630371,22.1533203 519.125977,22.0214844 519.477539,21.8847656 L519.492188,21.8847656 L519.990234,23.3056641 C519.697266,23.5498047 519.257812,23.7963867 518.671875,24.0454102 C518.085938,24.2944336 517.456055,24.5019531 516.782227,24.6679688 C516.108398,24.8339844 515.488281,24.9169922 514.921875,24.9169922 L514.892578,24.9169922 C513.681641,24.9169922 512.768555,24.6508789 512.15332,24.1186523 C511.538086,23.5864258 511.230469,22.6953125 511.230469,21.4453125 L511.230469,10.0341797 L509.135742,10.0341797 Z" id="Path"></path>
        </g>
        <path d="M32,0 C49.673,0 64,14.327 64,32 C64,49.673 49.673,64 32,64 C14.327,64 0,49.673 0,32 C0,14.327 14.327,0 32,0 Z M32,7.9998 C24.4569961,7.9998 18.3157895,14.2898324 18.3157895,22.015633 C18.3157895,29.2690984 22.8737574,36.9334479 26.630823,42.0000462 L23,41.9998 L16,49.9998 L48,49.9998 L41,41.9998 L37.33573,42.0000462 C41.0982249,36.9334479 45.6842105,29.2690984 45.6842105,22.015633 C45.6842105,14.2898324 39.5430039,7.9998 32,7.9998 Z M31.4835484,47.7730997 C31.631106,47.9242332 31.7786636,47.9998 32,47.9998 C32.2213364,47.9998 32.368894,47.9242332 32.5164516,47.7730997 C32.7007378,47.5843475 34.4301404,45.7846274 36.5785018,43.0002841 L39.3125,42.9998 L45,48.9998 L19,48.9998 L24.6875,42.9998 L27.3872712,43.0002841 C29.5343821,45.7846274 31.2716819,47.5843475 31.4835484,47.7730997 Z M31.9818182,23.7998 L37.4890759,29.2927224 C36.2021408,30.9415953 34.2115715,31.9998 31.9868266,31.9998 C29.7558174,31.9998 27.769111,30.9356276 26.4899599,29.2787798 L31.9818182,23.7998 Z M39,15.9998 L39,24.8886254 C39,25.2404685 38.9746857,25.5863419 38.9258183,25.9244913 L31.9818182,18.9998 L25.0692042,25.893456 C25.0387957,25.6746108 25.0181744,25.4525619 25.0078057,25.2277827 L25,24.8886254 L25,15.9998 L39,15.9998 Z" id="icon" fill="#FFFFFF" fill-rule="nonzero"></path>
    </g>
</svg>