<?xml version="1.0" encoding="UTF-8"?>
<svg width="164px" height="64px" viewBox="0 0 164 64" version="1.1" xmlns="http://www.w3.org/2000/svg" xmlns:xlink="http://www.w3.org/1999/xlink">
    <title>logo/eic/color-light/short/eic-logo-color-light-short</title>
    <g id="logo/eic/color-light/short/eic-logo-color-light-short" stroke="none" stroke-width="1" fill="none" fill-rule="evenodd">
        <g id="mark/eic">
            <path d="M32,64.0002 C14.327,64.0002 0,49.6732 0,32.0002 C0,14.3272 14.327,0.0002 32,0.0002 C49.673,0.0002 64,14.3272 64,32.0002 C64,49.6732 49.673,64.0002 32,64.0002 Z" id="circle" fill="#0053A2" fill-rule="nonzero"></path>
            <path d="M33.556,11 C34.743,11.001 35.759,11.854 35.964,13.024 L35.964,13.024 L36.524,16.209 C37.901,16.583 39.222,17.134 40.455,17.849 L40.455,17.849 L43.099,15.992 C44.072,15.31 45.395,15.426 46.235,16.267 L46.235,16.267 L48.141,18.174 C48.982,19.013 49.098,20.336 48.416,21.309 L48.416,21.309 L46.559,23.953 C47.274,25.187 47.825,26.508 48.2,27.884 L48.2,27.884 L51.384,28.445 C52.554,28.65 53.407,29.665 53.409,30.852 L53.409,30.852 L53.409,33.555 C53.407,34.743 52.554,35.758 51.384,35.964 L51.384,35.964 L48.249,36.543 C47.874,37.919 47.322,39.24 46.608,40.474 L46.608,40.474 L48.465,43.118 C49.147,44.091 49.03,45.414 48.191,46.254 L48.191,46.254 L46.283,48.16 C45.444,49.001 44.121,49.117 43.149,48.435 L43.149,48.435 L40.475,46.627 C39.241,47.342 37.92,47.894 36.544,48.268 L36.544,48.268 L35.984,51.453 C35.779,52.622 34.763,53.476 33.575,53.477 L33.575,53.477 L30.843,53.477 C29.655,53.476 28.641,52.622 28.436,51.453 L28.436,51.453 L27.875,48.268 C26.499,47.893 25.178,47.341 23.944,46.627 L23.944,46.627 L21.31,48.484 C20.337,49.166 19.015,49.049 18.175,48.209 L18.175,48.209 L16.268,46.302 C15.428,45.463 15.312,44.14 15.993,43.168 L15.993,43.168 L17.851,40.523 C17.136,39.29 16.584,37.968 16.209,36.592 L16.209,36.592 L13.025,36.032 C11.855,35.827 11.001,34.811 11,33.624 L11,33.624 L11,30.892 C11.001,29.704 11.855,28.689 13.025,28.484 L13.025,28.484 L16.209,27.924 C16.584,26.548 17.136,25.226 17.851,23.993 L17.851,23.993 L15.993,21.348 C15.312,20.376 15.428,19.053 16.268,18.214 L16.268,18.214 L18.175,16.306 C19.004,15.454 20.327,15.321 21.31,15.992 L21.31,15.992 L23.954,17.849 C25.188,17.135 26.509,16.584 27.885,16.209 L27.885,16.209 L28.446,13.024 C28.651,11.854 29.665,11.001 30.854,11 L30.854,11 Z M32.2046,17.2383 C28.0912875,17.2383 24.745225,20.4519018 24.745225,24.4017203 L24.745225,26.8315651 L23.180475,26.8315651 C22.088725,26.8315651 21.2046,27.6813505 21.2046,28.7292211 L21.2046,41.340644 C21.2046,42.3891749 22.088725,43.2383 23.180475,43.2383 L41.228725,43.2383 C42.3191,43.2383 43.2046,42.3891749 43.2046,41.340644 L43.2046,28.7292211 C43.2046,27.6813505 42.3191,26.8315651 41.228725,26.8315651 L39.6626,26.8315651 L39.6626,24.4017203 C39.6626,20.4519018 36.317225,17.2383 32.2046,17.2383 Z M32.205274,21.2383 C34.4104972,21.2383 36.2046,22.9000785 36.2046,24.9418881 L36.2046,27.2383 L28.2046,27.2383 L28.2046,24.9418881 C28.2046,22.9000785 29.9993767,21.2383 32.205274,21.2383 Z" id="icon" fill="#F5EA14"></path>
        </g>
        <g id="EIC" transform="translate(74.250000, 13.953125)" fill="#FFFFFF" fill-rule="nonzero">
            <polygon id="Path" points="3.9375 32.9296875 3.9375 3.5625 0.0703125 2.9765625 0.0703125 0.375 24.4921875 0.375 25.1484375 7.8046875 22.125 7.8046875 20.671875 3.3515625 9.4453125 3.046875 9.4453125 16.2890625 17.0625 16.1484375 17.765625 12.2578125 20.7890625 12.2578125 20.7890625 23.3671875 17.765625 23.3671875 17.0859375 19.2421875 9.4453125 19.125 9.4453125 33.140625 22.3359375 32.625 24.984375 26.7421875 27.984375 27.6328125 26.6015625 36.046875 0 36.046875 0 33.4921875"></polygon>
            <polygon id="Path" points="36.046875 32.9296875 36.046875 3.5859375 31.7578125 2.9765625 31.7578125 0.375 45.8671875 0.375 45.8671875 2.9765625 41.578125 3.5625 41.578125 32.9296875 45.9375 33.5625 45.9375 36.046875 31.7578125 36.046875 31.7578125 33.4921875"></polygon>
            <path d="M50.0625,18.1875 C50.0625,14.5 50.8242188,11.28125 52.3476562,8.53125 C53.8710938,5.78125 55.953125,3.671875 58.59375,2.203125 C61.234375,0.734375 64.1875,0 67.453125,0 C68.953125,0 70.4023438,0.109375 71.8007812,0.328125 C73.1992188,0.546875 74.78125,0.8359375 76.546875,1.1953125 L77.8125,1.453125 L77.3671875,10.21875 L73.875,10.21875 L72.5625,4.2421875 C72.234375,3.8046875 71.5703125,3.45703125 70.5703125,3.19921875 C69.5703125,2.94140625 68.2578125,2.8125 66.6328125,2.8125 C64.6328125,2.8125 62.8632812,3.3828125 61.3242188,4.5234375 C59.7851562,5.6640625 58.5820312,7.34765625 57.7148438,9.57421875 C56.8476562,11.8007813 56.4140625,14.484375 56.4140625,17.625 C56.4140625,20.53125 56.8007812,23.2070312 57.5742188,25.6523438 C58.3476562,28.0976563 59.5429688,30.0664062 61.1601562,31.5585938 C62.7773438,33.0507812 64.796875,33.796875 67.21875,33.796875 C69.734375,33.796875 71.5390625,33.21875 72.6328125,32.0625 L74.671875,27.1171875 L78,27.5625 L76.96875,34.734375 C76.546875,34.765625 76.140625,34.8320312 75.75,34.9335938 C75.359375,35.0351562 74.8515625,35.1953125 74.2265625,35.4140625 C73.1640625,35.7890625 72.1484375,36.078125 71.1796875,36.28125 C70.2109375,36.484375 69.015625,36.5859375 67.59375,36.5859375 C63.875,36.5859375 60.703125,35.8554688 58.078125,34.3945312 C55.453125,32.9335938 53.4609375,30.828125 52.1015625,28.078125 C50.7421875,25.328125 50.0625,22.03125 50.0625,18.1875 Z" id="Path"></path>
        </g>
    </g>
</svg>