<?xml version="1.0" encoding="UTF-8"?>
<svg width="173px" height="64px" viewBox="0 0 173 64" version="1.1" xmlns="http://www.w3.org/2000/svg" xmlns:xlink="http://www.w3.org/1999/xlink">
    <title>logo/eas/white/short/eas-logo-white-short</title>
    <g id="logo/eas/white/short/eas-logo-white-short" stroke="none" stroke-width="1" fill="none" fill-rule="evenodd">
        <path d="M32,0 C49.673,0 64,14.327 64,32 C64,49.673 49.673,64 32,64 C14.327,64 0,49.673 0,32 C0,14.327 14.327,0 32,0 Z M49.1509,16.5796 L14.9019,16.5796 C13.9579,16.5796 13.2229,17.3136 13.2229,18.2586 L13.2229,18.2586 L13.2229,41.6615 C13.2229,42.5535 13.9579,43.2875 14.9019,43.2875 L14.9019,43.2875 L26.7559,43.2875 L25.8639,48.6375 L23.1359,48.6375 C22.2449,48.6375 22.2449,50.3685 23.1359,50.3685 L23.1359,50.3685 L40.8639,50.3685 C41.7559,50.3685 41.8079,48.6375 40.8639,48.6375 L40.8639,48.6375 L38.1359,48.6375 L37.2449,43.2875 L49.1509,43.2875 C50.0429,43.2875 50.7769,42.5535 50.7769,41.6615 L50.7769,41.6615 L50.7769,18.2586 C50.7769,17.3136 50.0429,16.5796 49.1509,16.5796 L49.1509,16.5796 Z M32,29.5998 L39.2396559,36.8549486 L39.0340613,37.0737761 C37.2895613,38.8708585 34.7714632,39.9998 31.9821218,39.9998 C29.0852233,39.9998 26.4918306,38.7821158 24.7525764,36.8629354 L24.7525764,36.8629354 L32,29.5998 Z M41.5,19.9998 L41.5,31.1108317 L41.492064,31.4763579 C41.4656967,32.082519 41.3740556,32.6730392 41.223587,33.2420056 L41.223587,33.2420056 L32,23.9998 L22.7747763,33.2440068 L22.6920821,32.8997789 C22.5913253,32.4374783 22.5288468,31.962111 22.5078857,31.4767133 L22.5078857,31.4767133 L22.5,31.1108317 L22.5,19.9998 L41.5,19.9998 Z" id="icon" fill="#FFFFFF" fill-rule="nonzero"></path>
        <g id="EAS" transform="translate(74.250000, 13.929688)" fill="#FFFFFF" fill-rule="nonzero">
            <polygon id="Path" points="3.9375 32.953125 3.9375 3.5859375 0.0703125 3 0.0703125 0.3984375 24.4921875 0.3984375 25.1484375 7.828125 22.125 7.828125 20.671875 3.375 9.4453125 3.0703125 9.4453125 16.3125 17.0625 16.171875 17.765625 12.28125 20.7890625 12.28125 20.7890625 23.390625 17.765625 23.390625 17.0859375 19.265625 9.4453125 19.1484375 9.4453125 33.1640625 22.3359375 32.6484375 24.984375 26.765625 27.984375 27.65625 26.6015625 36.0703125 0 36.0703125 0 33.515625"></polygon>
            <path d="M31.3125,32.953125 L42.8671875,0.1171875 L48.4453125,0.1171875 L60.09375,32.953125 L63.0703125,33.515625 L63.0703125,36.0703125 L50.203125,36.0703125 L50.203125,33.515625 L54.0234375,32.953125 L51.796875,26.109375 L38.015625,26.109375 L35.8828125,32.953125 L39.890625,33.515625 L39.890625,36.0703125 L28.359375,36.0703125 L28.3359375,33.515625 L31.3125,32.953125 Z M50.8359375,23.1328125 L45.8203125,7.734375 L44.7890625,3.796875 L43.7578125,7.78125 L38.953125,23.1328125 L50.8359375,23.1328125 Z" id="Shape"></path>
            <path d="M65.484375,25.7578125 L68.7421875,25.7578125 L69.6796875,31.7578125 C70.2109375,32.3203125 71.0703125,32.8007812 72.2578125,33.1992188 C73.4453125,33.5976562 74.734375,33.796875 76.125,33.796875 C78.453125,33.796875 80.2070312,33.2773438 81.3867188,32.2382812 C82.5664062,31.1992188 83.15625,29.7578125 83.15625,27.9140625 C83.15625,26.7109375 82.8320312,25.6757812 82.1835938,24.8085938 C81.5351562,23.9414062 80.65625,23.1796875 79.546875,22.5234375 C78.4375,21.8671875 76.9140625,21.1015625 74.9765625,20.2265625 C73.2890625,19.4609375 71.7734375,18.6328125 70.4296875,17.7421875 C69.0859375,16.8515625 67.9296875,15.6953125 66.9609375,14.2734375 C65.9921875,12.8515625 65.5078125,11.171875 65.5078125,9.234375 C65.5078125,7.453125 65.984375,5.86328125 66.9375,4.46484375 C67.890625,3.06640625 69.25,1.97265625 71.015625,1.18359375 C72.78125,0.39453125 74.8359375,0 77.1796875,0 C78.6171875,0 79.9453125,0.12109375 81.1640625,0.36328125 C82.3828125,0.60546875 83.6484375,0.9140625 84.9609375,1.2890625 C85.6484375,1.4921875 86.203125,1.6328125 86.625,1.7109375 L86.3203125,9.75 L83.1796875,9.75 L82.1015625,4.0546875 C81.8046875,3.7265625 81.1796875,3.42578125 80.2265625,3.15234375 C79.2734375,2.87890625 78.2421875,2.7421875 77.1328125,2.7421875 C72.9140625,2.7421875 70.8046875,4.4453125 70.8046875,7.8515625 C70.8046875,9.0390625 71.125,10.0546875 71.765625,10.8984375 C72.40625,11.7421875 73.2578125,12.4882812 74.3203125,13.1367188 C75.3828125,13.7851562 76.953125,14.6171875 79.03125,15.6328125 C81.09375,16.6484375 82.78125,17.578125 84.09375,18.421875 C85.40625,19.265625 86.53125,20.3398438 87.46875,21.6445312 C88.40625,22.9492188 88.875,24.4921875 88.875,26.2734375 C88.875,27.9921875 88.3945312,29.6445312 87.4335938,31.2304688 C86.4726562,32.8164062 85.0273438,34.109375 83.0976562,35.109375 C81.1679688,36.109375 78.828125,36.609375 76.078125,36.609375 C74.390625,36.609375 72.8515625,36.4570312 71.4609375,36.1523438 C70.0703125,35.8476562 68.625,35.453125 67.125,34.96875 C66.09375,34.640625 65.4140625,34.4609375 65.0859375,34.4296875 L65.484375,25.7578125 Z" id="Path"></path>
        </g>
    </g>
</svg>